MetaMessage('track_name', name='Alex AcA®AaA\xa0A«', time=0)
program_change channel=15 program=80 time=0
MetaMessage('set_tempo', tempo=428571, time=0)
MetaMessage('time_signature', numerator=4, denominator=4, clocks_per_click=24, notated_32nd_notes_per_beat=8, time=0)
note_on channel=15 note=57 velocity=80 time=15840
note_off channel=15 note=57 velocity=64 time=480
note_on channel=15 note=56 velocity=80 time=0
note_off channel=15 note=56 velocity=64 time=480
note_on channel=15 note=57 velocity=80 time=0
note_off channel=15 note=57 velocity=64 time=480
note_on channel=15 note=57 velocity=80 time=480
note_off channel=15 note=57 velocity=64 time=480
note_on channel=15 note=56 velocity=80 time=0
note_off channel=15 note=56 velocity=64 time=480
note_on channel=15 note=57 velocity=80 time=0
note_off channel=15 note=57 velocity=64 time=480
note_on channel=15 note=57 velocity=80 time=480
note_off channel=15 note=57 velocity=64 time=480
note_on channel=15 note=56 velocity=80 time=0
note_off channel=15 note=56 velocity=64 time=480
note_on channel=15 note=59 velocity=80 time=0
note_off channel=15 note=59 velocity=64 time=480
note_on channel=15 note=61 velocity=80 time=0
note_off channel=15 note=61 velocity=64 time=480
note_on channel=15 note=57 velocity=80 time=0
note_off channel=15 note=57 velocity=64 time=480
note_on channel=15 note=56 velocity=80 time=0
note_off channel=15 note=56 velocity=64 time=480
note_on channel=15 note=52 velocity=80 time=0
note_off channel=15 note=52 velocity=64 time=480
note_on channel=15 note=57 velocity=80 time=480
note_off channel=15 note=57 velocity=64 time=480
note_on channel=15 note=56 velocity=80 time=0
note_off channel=15 note=56 velocity=64 time=480
note_on channel=15 note=57 velocity=80 time=0
note_off channel=15 note=57 velocity=64 time=480
note_on channel=15 note=57 velocity=80 time=480
note_off channel=15 note=57 velocity=64 time=480
note_on channel=15 note=56 velocity=80 time=0
note_off channel=15 note=56 velocity=64 time=480
note_on channel=15 note=57 velocity=80 time=0
note_off channel=15 note=57 velocity=64 time=480
note_on channel=15 note=57 velocity=80 time=480
note_off channel=15 note=57 velocity=64 time=480
note_on channel=15 note=56 velocity=80 time=0
note_off channel=15 note=56 velocity=64 time=480
note_on channel=15 note=59 velocity=80 time=0
note_off channel=15 note=59 velocity=64 time=480
note_on channel=15 note=61 velocity=80 time=0
note_off channel=15 note=61 velocity=64 time=480
note_on channel=15 note=57 velocity=80 time=0
note_off channel=15 note=57 velocity=64 time=480
note_on channel=15 note=56 velocity=80 time=0
note_off channel=15 note=56 velocity=64 time=480
note_on channel=15 note=52 velocity=80 time=0
note_off channel=15 note=52 velocity=64 time=480
note_on channel=15 note=57 velocity=80 time=480
note_off channel=15 note=57 velocity=64 time=480
note_on channel=15 note=56 velocity=80 time=0
note_off channel=15 note=56 velocity=64 time=480
note_on channel=15 note=57 velocity=80 time=0
note_off channel=15 note=57 velocity=64 time=480
note_on channel=15 note=57 velocity=80 time=480
note_off channel=15 note=57 velocity=64 time=480
note_on channel=15 note=56 velocity=80 time=0
note_off channel=15 note=56 velocity=64 time=480
note_on channel=15 note=57 velocity=80 time=0
note_off channel=15 note=57 velocity=64 time=480
note_on channel=15 note=57 velocity=80 time=480
note_off channel=15 note=57 velocity=64 time=480
note_on channel=15 note=59 velocity=80 time=0
note_off channel=15 note=59 velocity=64 time=480
note_on channel=15 note=56 velocity=80 time=0
note_off channel=15 note=56 velocity=64 time=480
note_on channel=15 note=61 velocity=80 time=0
note_off channel=15 note=61 velocity=64 time=480
note_on channel=15 note=57 velocity=80 time=0
note_off channel=15 note=57 velocity=64 time=480
note_on channel=15 note=59 velocity=80 time=0
note_off channel=15 note=59 velocity=64 time=480
note_on channel=15 note=56 velocity=80 time=0
note_off channel=15 note=56 velocity=64 time=480
note_on channel=15 note=57 velocity=80 time=480
note_off channel=15 note=57 velocity=64 time=480
note_on channel=15 note=56 velocity=80 time=0
note_off channel=15 note=56 velocity=64 time=480
note_on channel=15 note=57 velocity=80 time=0
note_off channel=15 note=57 velocity=64 time=480
note_on channel=15 note=57 velocity=80 time=480
note_off channel=15 note=57 velocity=64 time=480
note_on channel=15 note=56 velocity=80 time=0
note_off channel=15 note=56 velocity=64 time=480
note_on channel=15 note=57 velocity=80 time=0
note_off channel=15 note=57 velocity=64 time=480
note_on channel=15 note=57 velocity=80 time=480
note_off channel=15 note=57 velocity=64 time=480
note_on channel=15 note=59 velocity=80 time=0
note_off channel=15 note=59 velocity=64 time=480
note_on channel=15 note=56 velocity=80 time=0
note_off channel=15 note=56 velocity=64 time=480
note_on channel=15 note=61 velocity=80 time=0
note_off channel=15 note=61 velocity=64 time=480
note_on channel=15 note=57 velocity=80 time=0
note_off channel=15 note=57 velocity=64 time=480
note_on channel=15 note=59 velocity=80 time=0
note_off channel=15 note=59 velocity=64 time=480
note_on channel=15 note=56 velocity=80 time=0
note_off channel=15 note=56 velocity=64 time=480
note_on channel=15 note=54 velocity=80 time=0
note_off channel=15 note=54 velocity=64 time=480
note_on channel=15 note=57 velocity=80 time=14880
note_off channel=15 note=57 velocity=64 time=960
note_on channel=15 note=56 velocity=80 time=0
note_off channel=15 note=56 velocity=64 time=240
note_on channel=15 note=52 velocity=80 time=0
note_off channel=15 note=52 velocity=64 time=240
note_on channel=15 note=56 velocity=80 time=0
note_off channel=15 note=56 velocity=64 time=240
note_on channel=15 note=57 velocity=80 time=0
note_off channel=15 note=57 velocity=64 time=240
note_on channel=15 note=59 velocity=80 time=480
note_off channel=15 note=59 velocity=64 time=480
note_on channel=15 note=57 velocity=80 time=0
note_off channel=15 note=57 velocity=64 time=480
note_on channel=15 note=56 velocity=80 time=0
note_off channel=15 note=56 velocity=64 time=480
note_on channel=15 note=57 velocity=80 time=0
note_off channel=15 note=57 velocity=64 time=960
note_on channel=15 note=56 velocity=80 time=0
note_off channel=15 note=56 velocity=64 time=240
note_on channel=15 note=52 velocity=80 time=0
note_off channel=15 note=52 velocity=64 time=240
note_on channel=15 note=56 velocity=80 time=0
note_off channel=15 note=56 velocity=64 time=240
note_on channel=15 note=57 velocity=80 time=0
note_off channel=15 note=57 velocity=64 time=240
note_on channel=15 note=61 velocity=80 time=480
note_off channel=15 note=61 velocity=64 time=480
note_on channel=15 note=59 velocity=80 time=0
note_off channel=15 note=59 velocity=64 time=480
note_on channel=15 note=56 velocity=80 time=0
note_off channel=15 note=56 velocity=64 time=480
note_on channel=15 note=54 velocity=80 time=0
note_off channel=15 note=54 velocity=64 time=960
note_on channel=15 note=57 velocity=80 time=1440
note_off channel=15 note=57 velocity=64 time=480
note_on channel=15 note=56 velocity=80 time=0
note_off channel=15 note=56 velocity=64 time=480
note_on channel=15 note=52 velocity=80 time=0
note_off channel=15 note=52 velocity=64 time=480
note_on channel=15 note=54 velocity=80 time=0
note_off channel=15 note=54 velocity=64 time=960
note_on channel=15 note=59 velocity=80 time=1440
note_off channel=15 note=59 velocity=64 time=480
note_on channel=15 note=57 velocity=80 time=0
note_off channel=15 note=57 velocity=64 time=480
note_on channel=15 note=52 velocity=80 time=0
note_off channel=15 note=52 velocity=64 time=480
note_on channel=15 note=54 velocity=80 time=0
note_off channel=15 note=54 velocity=64 time=480
note_on channel=15 note=57 velocity=80 time=15360
note_off channel=15 note=57 velocity=64 time=480
note_on channel=15 note=56 velocity=80 time=0
note_off channel=15 note=56 velocity=64 time=480
note_on channel=15 note=57 velocity=80 time=0
note_off channel=15 note=57 velocity=64 time=480
note_on channel=15 note=57 velocity=80 time=480
note_off channel=15 note=57 velocity=64 time=480
note_on channel=15 note=56 velocity=80 time=0
note_off channel=15 note=56 velocity=64 time=480
note_on channel=15 note=57 velocity=80 time=0
note_off channel=15 note=57 velocity=64 time=480
note_on channel=15 note=57 velocity=80 time=480
note_off channel=15 note=57 velocity=64 time=480
note_on channel=15 note=56 velocity=80 time=0
note_off channel=15 note=56 velocity=64 time=480
note_on channel=15 note=59 velocity=80 time=0
note_off channel=15 note=59 velocity=64 time=480
note_on channel=15 note=61 velocity=80 time=0
note_off channel=15 note=61 velocity=64 time=480
note_on channel=15 note=57 velocity=80 time=0
note_off channel=15 note=57 velocity=64 time=480
note_on channel=15 note=56 velocity=80 time=0
note_off channel=15 note=56 velocity=64 time=480
note_on channel=15 note=52 velocity=80 time=0
note_off channel=15 note=52 velocity=64 time=480
note_on channel=15 note=57 velocity=80 time=480
note_off channel=15 note=57 velocity=64 time=480
note_on channel=15 note=56 velocity=80 time=0
note_off channel=15 note=56 velocity=64 time=480
note_on channel=15 note=57 velocity=80 time=0
note_off channel=15 note=57 velocity=64 time=480
note_on channel=15 note=57 velocity=80 time=480
note_off channel=15 note=57 velocity=64 time=480
note_on channel=15 note=56 velocity=80 time=0
note_off channel=15 note=56 velocity=64 time=480
note_on channel=15 note=57 velocity=80 time=0
note_off channel=15 note=57 velocity=64 time=480
note_on channel=15 note=57 velocity=80 time=480
note_off channel=15 note=57 velocity=64 time=480
note_on channel=15 note=56 velocity=80 time=0
note_off channel=15 note=56 velocity=64 time=480
note_on channel=15 note=59 velocity=80 time=0
note_off channel=15 note=59 velocity=64 time=480
note_on channel=15 note=61 velocity=80 time=0
note_off channel=15 note=61 velocity=64 time=480
note_on channel=15 note=57 velocity=80 time=0
note_off channel=15 note=57 velocity=64 time=480
note_on channel=15 note=56 velocity=80 time=0
note_off channel=15 note=56 velocity=64 time=480
note_on channel=15 note=52 velocity=80 time=0
note_off channel=15 note=52 velocity=64 time=480
note_on channel=15 note=54 velocity=80 time=0
note_off channel=15 note=54 velocity=64 time=1920
note_on channel=15 note=52 velocity=80 time=960
note_off channel=15 note=52 velocity=64 time=960
note_on channel=15 note=54 velocity=80 time=0
note_off channel=15 note=54 velocity=64 time=1920
note_on channel=15 note=52 velocity=80 time=960
note_off channel=15 note=52 velocity=64 time=960
note_on channel=15 note=54 velocity=80 time=0
note_off channel=15 note=54 velocity=64 time=1920
note_on channel=15 note=52 velocity=80 time=960
note_off channel=15 note=52 velocity=64 time=960
note_on channel=15 note=54 velocity=80 time=0
note_off channel=15 note=54 velocity=64 time=1920
note_on channel=15 note=56 velocity=80 time=0
note_off channel=15 note=56 velocity=64 time=1920
note_on channel=15 note=57 velocity=80 time=0
note_off channel=15 note=57 velocity=64 time=1920
note_on channel=15 note=56 velocity=80 time=960
note_off channel=15 note=56 velocity=64 time=960
note_on channel=15 note=57 velocity=80 time=0
note_off channel=15 note=57 velocity=64 time=1920
note_on channel=15 note=61 velocity=80 time=960
note_off channel=15 note=61 velocity=64 time=960
note_on channel=15 note=57 velocity=80 time=0
note_off channel=15 note=57 velocity=64 time=1920
note_on channel=15 note=56 velocity=80 time=960
note_off channel=15 note=56 velocity=64 time=960
note_on channel=15 note=57 velocity=80 time=0
note_off channel=15 note=57 velocity=64 time=1920
note_on channel=15 note=56 velocity=80 time=0
note_off channel=15 note=56 velocity=64 time=1920
note_on channel=15 note=54 velocity=80 time=0
note_off channel=15 note=54 velocity=64 time=960
note_on channel=15 note=57 velocity=80 time=14400
note_off channel=15 note=57 velocity=64 time=960
note_on channel=15 note=56 velocity=80 time=0
note_off channel=15 note=56 velocity=64 time=240
note_on channel=15 note=52 velocity=80 time=0
note_off channel=15 note=52 velocity=64 time=240
note_on channel=15 note=56 velocity=80 time=0
note_off channel=15 note=56 velocity=64 time=240
note_on channel=15 note=57 velocity=80 time=0
note_off channel=15 note=57 velocity=64 time=240
note_on channel=15 note=59 velocity=80 time=480
note_off channel=15 note=59 velocity=64 time=480
note_on channel=15 note=57 velocity=80 time=0
note_off channel=15 note=57 velocity=64 time=480
note_on channel=15 note=56 velocity=80 time=0
note_off channel=15 note=56 velocity=64 time=480
note_on channel=15 note=57 velocity=80 time=0
note_off channel=15 note=57 velocity=64 time=960
note_on channel=15 note=56 velocity=80 time=0
note_off channel=15 note=56 velocity=64 time=240
note_on channel=15 note=52 velocity=80 time=0
note_off channel=15 note=52 velocity=64 time=240
note_on channel=15 note=56 velocity=80 time=0
note_off channel=15 note=56 velocity=64 time=240
note_on channel=15 note=57 velocity=80 time=0
note_off channel=15 note=57 velocity=64 time=240
note_on channel=15 note=61 velocity=80 time=480
note_off channel=15 note=61 velocity=64 time=480
note_on channel=15 note=59 velocity=80 time=0
note_off channel=15 note=59 velocity=64 time=480
note_on channel=15 note=56 velocity=80 time=0
note_off channel=15 note=56 velocity=64 time=480
note_on channel=15 note=54 velocity=80 time=0
note_off channel=15 note=54 velocity=64 time=960
note_on channel=15 note=57 velocity=80 time=1440
note_off channel=15 note=57 velocity=64 time=480
note_on channel=15 note=56 velocity=80 time=0
note_off channel=15 note=56 velocity=64 time=480
note_on channel=15 note=52 velocity=80 time=0
note_off channel=15 note=52 velocity=64 time=480
note_on channel=15 note=54 velocity=80 time=0
note_off channel=15 note=54 velocity=64 time=960
note_on channel=15 note=59 velocity=80 time=1440
note_off channel=15 note=59 velocity=64 time=480
note_on channel=15 note=57 velocity=80 time=0
note_off channel=15 note=57 velocity=64 time=480
note_on channel=15 note=56 velocity=80 time=0
note_off channel=15 note=56 velocity=64 time=480
note_on channel=15 note=54 velocity=80 time=0
note_off channel=15 note=54 velocity=64 time=1920
MetaMessage('end_of_track', time=0)
MetaMessage('track_name', name='A\x81A1Aa AcA®AaA\xa0A«', time=0)
program_change channel=8 program=85 time=0
note_on channel=8 note=61 velocity=80 time=31200
note_off channel=8 note=61 velocity=64 time=480
note_on channel=8 note=59 velocity=80 time=0
note_off channel=8 note=59 velocity=64 time=480
note_on channel=8 note=61 velocity=80 time=0
note_off channel=8 note=61 velocity=64 time=480
note_on channel=8 note=61 velocity=80 time=480
note_off channel=8 note=61 velocity=64 time=480
note_on channel=8 note=59 velocity=80 time=0
note_off channel=8 note=59 velocity=64 time=480
note_on channel=8 note=61 velocity=80 time=0
note_off channel=8 note=61 velocity=64 time=480
note_on channel=8 note=61 velocity=80 time=480
note_off channel=8 note=61 velocity=64 time=480
note_on channel=8 note=59 velocity=80 time=0
note_off channel=8 note=59 velocity=64 time=480
note_on channel=8 note=59 velocity=80 time=0
note_off channel=8 note=59 velocity=64 time=480
note_on channel=8 note=61 velocity=80 time=0
note_off channel=8 note=61 velocity=64 time=480
note_on channel=8 note=61 velocity=80 time=0
note_off channel=8 note=61 velocity=64 time=480
note_on channel=8 note=59 velocity=80 time=0
note_off channel=8 note=59 velocity=64 time=480
note_on channel=8 note=59 velocity=80 time=0
note_off channel=8 note=59 velocity=64 time=480
note_on channel=8 note=61 velocity=80 time=480
note_off channel=8 note=61 velocity=64 time=480
note_on channel=8 note=59 velocity=80 time=0
note_off channel=8 note=59 velocity=64 time=480
note_on channel=8 note=61 velocity=80 time=0
note_off channel=8 note=61 velocity=64 time=480
note_on channel=8 note=61 velocity=80 time=480
note_off channel=8 note=61 velocity=64 time=480
note_on channel=8 note=59 velocity=80 time=0
note_off channel=8 note=59 velocity=64 time=480
note_on channel=8 note=61 velocity=80 time=0
note_off channel=8 note=61 velocity=64 time=480
note_on channel=8 note=61 velocity=80 time=480
note_off channel=8 note=61 velocity=64 time=480
note_on channel=8 note=59 velocity=80 time=0
note_off channel=8 note=59 velocity=64 time=480
note_on channel=8 note=59 velocity=80 time=0
note_off channel=8 note=59 velocity=64 time=480
note_on channel=8 note=61 velocity=80 time=0
note_off channel=8 note=61 velocity=64 time=480
note_on channel=8 note=61 velocity=80 time=0
note_off channel=8 note=61 velocity=64 time=480
note_on channel=8 note=59 velocity=80 time=0
note_off channel=8 note=59 velocity=64 time=480
note_on channel=8 note=59 velocity=80 time=0
note_off channel=8 note=59 velocity=64 time=480
note_on channel=8 note=54 velocity=80 time=0
note_off channel=8 note=54 velocity=64 time=480
note_on channel=8 note=54 velocity=80 time=76320
note_off channel=8 note=54 velocity=64 time=1920
note_on channel=8 note=52 velocity=80 time=960
note_off channel=8 note=52 velocity=64 time=960
note_on channel=8 note=54 velocity=80 time=0
note_off channel=8 note=54 velocity=64 time=1920
note_on channel=8 note=52 velocity=80 time=960
note_off channel=8 note=52 velocity=64 time=960
note_on channel=8 note=54 velocity=80 time=0
note_off channel=8 note=54 velocity=64 time=1920
note_on channel=8 note=52 velocity=80 time=960
note_off channel=8 note=52 velocity=64 time=960
note_on channel=8 note=54 velocity=80 time=0
note_off channel=8 note=54 velocity=64 time=1920
note_on channel=8 note=56 velocity=80 time=0
note_off channel=8 note=56 velocity=64 time=1920
note_on channel=8 note=54 velocity=80 time=0
note_off channel=8 note=54 velocity=64 time=960
MetaMessage('end_of_track', time=0)
MetaMessage('track_name', name='A\x80A\xadA?', time=0)
program_change channel=5 program=96 time=0
note_on channel=5 note=61 velocity=80 time=30720
note_off channel=5 note=61 velocity=64 time=120
note_on channel=5 note=66 velocity=80 time=120
note_off channel=5 note=66 velocity=64 time=120
note_on channel=5 note=69 velocity=80 time=120
note_off channel=5 note=69 velocity=64 time=120
note_on channel=5 note=66 velocity=80 time=120
note_off channel=5 note=66 velocity=64 time=120
note_on channel=5 note=68 velocity=80 time=120
note_off channel=5 note=68 velocity=64 time=120
note_on channel=5 note=66 velocity=80 time=120
note_off channel=5 note=66 velocity=64 time=120
note_on channel=5 note=69 velocity=80 time=120
note_off channel=5 note=69 velocity=64 time=120
note_on channel=5 note=66 velocity=80 time=120
note_off channel=5 note=66 velocity=64 time=120
note_on channel=5 note=61 velocity=80 time=120
note_off channel=5 note=61 velocity=64 time=120
note_on channel=5 note=66 velocity=80 time=120
note_off channel=5 note=66 velocity=64 time=120
note_on channel=5 note=69 velocity=80 time=120
note_off channel=5 note=69 velocity=64 time=120
note_on channel=5 note=66 velocity=80 time=120
note_off channel=5 note=66 velocity=64 time=120
note_on channel=5 note=68 velocity=80 time=120
note_off channel=5 note=68 velocity=64 time=120
note_on channel=5 note=66 velocity=80 time=120
note_off channel=5 note=66 velocity=64 time=120
note_on channel=5 note=69 velocity=80 time=120
note_off channel=5 note=69 velocity=64 time=120
note_on channel=5 note=66 velocity=80 time=120
note_off channel=5 note=66 velocity=64 time=120
note_on channel=5 note=62 velocity=80 time=120
note_off channel=5 note=62 velocity=64 time=120
note_on channel=5 note=66 velocity=80 time=120
note_off channel=5 note=66 velocity=64 time=120
note_on channel=5 note=69 velocity=80 time=120
note_off channel=5 note=69 velocity=64 time=120
note_on channel=5 note=62 velocity=80 time=120
note_off channel=5 note=62 velocity=64 time=120
note_on channel=5 note=76 velocity=80 time=120
note_off channel=5 note=76 velocity=64 time=120
note_on channel=5 note=69 velocity=80 time=120
note_off channel=5 note=69 velocity=64 time=120
note_on channel=5 note=73 velocity=80 time=120
note_off channel=5 note=73 velocity=64 time=120
note_on channel=5 note=71 velocity=80 time=120
note_off channel=5 note=71 velocity=64 time=120
note_on channel=5 note=73 velocity=80 time=120
note_off channel=5 note=73 velocity=64 time=120
note_on channel=5 note=69 velocity=80 time=120
note_off channel=5 note=69 velocity=64 time=120
note_on channel=5 note=73 velocity=80 time=120
note_off channel=5 note=73 velocity=64 time=120
note_on channel=5 note=69 velocity=80 time=120
note_off channel=5 note=69 velocity=64 time=120
note_on channel=5 note=71 velocity=80 time=120
note_off channel=5 note=71 velocity=64 time=120
note_on channel=5 note=64 velocity=80 time=120
note_off channel=5 note=64 velocity=64 time=120
note_on channel=5 note=71 velocity=80 time=120
note_off channel=5 note=71 velocity=64 time=120
note_on channel=5 note=64 velocity=80 time=120
note_off channel=5 note=64 velocity=64 time=120
note_on channel=5 note=61 velocity=80 time=120
note_off channel=5 note=61 velocity=64 time=120
note_on channel=5 note=66 velocity=80 time=120
note_off channel=5 note=66 velocity=64 time=120
note_on channel=5 note=69 velocity=80 time=120
note_off channel=5 note=69 velocity=64 time=120
note_on channel=5 note=66 velocity=80 time=120
note_off channel=5 note=66 velocity=64 time=120
note_on channel=5 note=68 velocity=80 time=120
note_off channel=5 note=68 velocity=64 time=120
note_on channel=5 note=66 velocity=80 time=120
note_off channel=5 note=66 velocity=64 time=120
note_on channel=5 note=69 velocity=80 time=120
note_off channel=5 note=69 velocity=64 time=120
note_on channel=5 note=66 velocity=80 time=120
note_off channel=5 note=66 velocity=64 time=120
note_on channel=5 note=61 velocity=80 time=120
note_off channel=5 note=61 velocity=64 time=120
note_on channel=5 note=66 velocity=80 time=120
note_off channel=5 note=66 velocity=64 time=120
note_on channel=5 note=69 velocity=80 time=120
note_off channel=5 note=69 velocity=64 time=120
note_on channel=5 note=66 velocity=80 time=120
note_off channel=5 note=66 velocity=64 time=120
note_on channel=5 note=68 velocity=80 time=120
note_off channel=5 note=68 velocity=64 time=120
note_on channel=5 note=66 velocity=80 time=120
note_off channel=5 note=66 velocity=64 time=120
note_on channel=5 note=69 velocity=80 time=120
note_off channel=5 note=69 velocity=64 time=120
note_on channel=5 note=66 velocity=80 time=120
note_off channel=5 note=66 velocity=64 time=120
note_on channel=5 note=62 velocity=80 time=120
note_off channel=5 note=62 velocity=64 time=120
note_on channel=5 note=66 velocity=80 time=120
note_off channel=5 note=66 velocity=64 time=120
note_on channel=5 note=69 velocity=80 time=120
note_off channel=5 note=69 velocity=64 time=120
note_on channel=5 note=62 velocity=80 time=120
note_off channel=5 note=62 velocity=64 time=120
note_on channel=5 note=76 velocity=80 time=120
note_off channel=5 note=76 velocity=64 time=120
note_on channel=5 note=69 velocity=80 time=120
note_off channel=5 note=69 velocity=64 time=120
note_on channel=5 note=73 velocity=80 time=120
note_off channel=5 note=73 velocity=64 time=120
note_on channel=5 note=71 velocity=80 time=120
note_off channel=5 note=71 velocity=64 time=120
note_on channel=5 note=73 velocity=80 time=120
note_off channel=5 note=73 velocity=64 time=120
note_on channel=5 note=69 velocity=80 time=120
note_off channel=5 note=69 velocity=64 time=120
note_on channel=5 note=73 velocity=80 time=120
note_off channel=5 note=73 velocity=64 time=120
note_on channel=5 note=69 velocity=80 time=120
note_off channel=5 note=69 velocity=64 time=120
note_on channel=5 note=71 velocity=80 time=120
note_off channel=5 note=71 velocity=64 time=120
note_on channel=5 note=64 velocity=80 time=120
note_off channel=5 note=64 velocity=64 time=120
note_on channel=5 note=71 velocity=80 time=120
note_off channel=5 note=71 velocity=64 time=120
note_on channel=5 note=64 velocity=80 time=120
note_off channel=5 note=64 velocity=64 time=120
note_on channel=5 note=61 velocity=80 time=120
note_off channel=5 note=61 velocity=64 time=240
note_on channel=5 note=54 velocity=80 time=0
note_off channel=5 note=54 velocity=64 time=240
note_on channel=5 note=61 velocity=80 time=0
note_off channel=5 note=61 velocity=64 time=240
note_on channel=5 note=64 velocity=80 time=0
note_off channel=5 note=64 velocity=64 time=120
note_on channel=5 note=66 velocity=80 time=0
note_off channel=5 note=66 velocity=64 time=120
note_on channel=5 note=68 velocity=80 time=0
note_off channel=5 note=68 velocity=64 time=240
note_on channel=5 note=64 velocity=80 time=0
note_off channel=5 note=64 velocity=64 time=240
note_on channel=5 note=68 velocity=80 time=0
note_off channel=5 note=68 velocity=64 time=240
note_on channel=5 note=71 velocity=80 time=0
note_off channel=5 note=71 velocity=64 time=240
note_on channel=5 note=73 velocity=80 time=0
note_off channel=5 note=73 velocity=64 time=240
note_on channel=5 note=69 velocity=80 time=0
note_off channel=5 note=69 velocity=64 time=240
note_on channel=5 note=73 velocity=80 time=0
note_off channel=5 note=73 velocity=64 time=240
note_on channel=5 note=71 velocity=80 time=0
note_off channel=5 note=71 velocity=64 time=120
note_on channel=5 note=69 velocity=80 time=0
note_off channel=5 note=69 velocity=64 time=120
note_on channel=5 note=71 velocity=80 time=0
note_off channel=5 note=71 velocity=64 time=240
note_on channel=5 note=68 velocity=80 time=0
note_off channel=5 note=68 velocity=64 time=240
note_on channel=5 note=64 velocity=80 time=0
note_off channel=5 note=64 velocity=64 time=240
note_on channel=5 note=68 velocity=80 time=0
note_off channel=5 note=68 velocity=64 time=240
note_on channel=5 note=69 velocity=80 time=0
note_off channel=5 note=69 velocity=64 time=240
note_on channel=5 note=66 velocity=80 time=0
note_off channel=5 note=66 velocity=64 time=240
note_on channel=5 note=69 velocity=80 time=0
note_off channel=5 note=69 velocity=64 time=240
note_on channel=5 note=71 velocity=80 time=0
note_off channel=5 note=71 velocity=64 time=120
note_on channel=5 note=69 velocity=80 time=0
note_off channel=5 note=69 velocity=64 time=120
note_on channel=5 note=68 velocity=80 time=0
note_off channel=5 note=68 velocity=64 time=240
note_on channel=5 note=64 velocity=80 time=0
note_off channel=5 note=64 velocity=64 time=240
note_on channel=5 note=66 velocity=80 time=0
note_off channel=5 note=66 velocity=64 time=240
note_on channel=5 note=68 velocity=80 time=0
note_off channel=5 note=68 velocity=64 time=240
note_on channel=5 note=69 velocity=80 time=0
note_off channel=5 note=69 velocity=64 time=240
note_on channel=5 note=66 velocity=80 time=0
note_off channel=5 note=66 velocity=64 time=240
note_on channel=5 note=69 velocity=80 time=0
note_off channel=5 note=69 velocity=64 time=240
note_on channel=5 note=71 velocity=80 time=0
note_off channel=5 note=71 velocity=64 time=120
note_on channel=5 note=69 velocity=80 time=0
note_off channel=5 note=69 velocity=64 time=120
note_on channel=5 note=68 velocity=80 time=0
note_off channel=5 note=68 velocity=64 time=240
note_on channel=5 note=64 velocity=80 time=0
note_off channel=5 note=64 velocity=64 time=240
note_on channel=5 note=61 velocity=80 time=0
note_off channel=5 note=61 velocity=64 time=240
note_on channel=5 note=68 velocity=80 time=0
note_off channel=5 note=68 velocity=64 time=240
note_on channel=5 note=66 velocity=80 time=0
note_off channel=5 note=66 velocity=64 time=240
note_on channel=5 note=61 velocity=80 time=0
note_off channel=5 note=61 velocity=64 time=240
note_on channel=5 note=61 velocity=80 time=0
note_off channel=5 note=61 velocity=64 time=240
note_on channel=5 note=64 velocity=80 time=0
note_off channel=5 note=64 velocity=64 time=120
note_on channel=5 note=66 velocity=80 time=0
note_off channel=5 note=66 velocity=64 time=120
note_on channel=5 note=68 velocity=80 time=0
note_off channel=5 note=68 velocity=64 time=240
note_on channel=5 note=64 velocity=80 time=0
note_off channel=5 note=64 velocity=64 time=240
note_on channel=5 note=68 velocity=80 time=0
note_off channel=5 note=68 velocity=64 time=240
note_on channel=5 note=71 velocity=80 time=0
note_off channel=5 note=71 velocity=64 time=240
note_on channel=5 note=73 velocity=80 time=0
note_off channel=5 note=73 velocity=64 time=240
note_on channel=5 note=69 velocity=80 time=0
note_off channel=5 note=69 velocity=64 time=240
note_on channel=5 note=73 velocity=80 time=0
note_off channel=5 note=73 velocity=64 time=240
note_on channel=5 note=74 velocity=80 time=0
note_off channel=5 note=74 velocity=64 time=120
note_on channel=5 note=73 velocity=80 time=0
note_off channel=5 note=73 velocity=64 time=120
note_on channel=5 note=71 velocity=80 time=0
note_off channel=5 note=71 velocity=64 time=240
note_on channel=5 note=68 velocity=80 time=0
note_off channel=5 note=68 velocity=64 time=240
note_on channel=5 note=64 velocity=80 time=0
note_off channel=5 note=64 velocity=64 time=240
note_on channel=5 note=68 velocity=80 time=0
note_off channel=5 note=68 velocity=64 time=240
note_on channel=5 note=69 velocity=80 time=0
note_off channel=5 note=69 velocity=64 time=240
note_on channel=5 note=66 velocity=80 time=0
note_off channel=5 note=66 velocity=64 time=240
note_on channel=5 note=69 velocity=80 time=0
note_off channel=5 note=69 velocity=64 time=240
note_on channel=5 note=71 velocity=80 time=0
note_off channel=5 note=71 velocity=64 time=120
note_on channel=5 note=69 velocity=80 time=0
note_off channel=5 note=69 velocity=64 time=120
note_on channel=5 note=68 velocity=80 time=0
note_off channel=5 note=68 velocity=64 time=240
note_on channel=5 note=64 velocity=80 time=0
note_off channel=5 note=64 velocity=64 time=240
note_on channel=5 note=66 velocity=80 time=0
note_off channel=5 note=66 velocity=64 time=240
note_on channel=5 note=68 velocity=80 time=0
note_off channel=5 note=68 velocity=64 time=240
note_on channel=5 note=69 velocity=80 time=0
note_off channel=5 note=69 velocity=64 time=240
note_on channel=5 note=66 velocity=80 time=0
note_off channel=5 note=66 velocity=64 time=240
note_on channel=5 note=69 velocity=80 time=0
note_off channel=5 note=69 velocity=64 time=240
note_on channel=5 note=71 velocity=80 time=0
note_off channel=5 note=71 velocity=64 time=120
note_on channel=5 note=69 velocity=80 time=0
note_off channel=5 note=69 velocity=64 time=120
note_on channel=5 note=68 velocity=80 time=0
note_off channel=5 note=68 velocity=64 time=240
note_on channel=5 note=64 velocity=80 time=0
note_off channel=5 note=64 velocity=64 time=240
note_on channel=5 note=61 velocity=80 time=0
note_off channel=5 note=61 velocity=64 time=240
note_on channel=5 note=68 velocity=80 time=0
note_off channel=5 note=68 velocity=64 time=240
note_on channel=5 note=69 velocity=80 time=0
note_off channel=5 note=69 velocity=64 time=240
note_on channel=5 note=66 velocity=80 time=0
note_off channel=5 note=66 velocity=64 time=240
note_on channel=5 note=69 velocity=80 time=0
note_off channel=5 note=69 velocity=64 time=240
note_on channel=5 note=68 velocity=80 time=0
note_off channel=5 note=68 velocity=64 time=120
note_on channel=5 note=66 velocity=80 time=0
note_off channel=5 note=66 velocity=64 time=120
note_on channel=5 note=68 velocity=80 time=0
note_off channel=5 note=68 velocity=64 time=240
note_on channel=5 note=64 velocity=80 time=0
note_off channel=5 note=64 velocity=64 time=240
note_on channel=5 note=66 velocity=80 time=0
note_off channel=5 note=66 velocity=64 time=240
note_on channel=5 note=68 velocity=80 time=0
note_off channel=5 note=68 velocity=64 time=240
note_on channel=5 note=69 velocity=80 time=0
note_off channel=5 note=69 velocity=64 time=240
note_on channel=5 note=66 velocity=80 time=0
note_off channel=5 note=66 velocity=64 time=240
note_on channel=5 note=69 velocity=80 time=0
note_off channel=5 note=69 velocity=64 time=240
note_on channel=5 note=68 velocity=80 time=0
note_off channel=5 note=68 velocity=64 time=120
note_on channel=5 note=66 velocity=80 time=0
note_off channel=5 note=66 velocity=64 time=120
note_on channel=5 note=68 velocity=80 time=0
note_off channel=5 note=68 velocity=64 time=240
note_on channel=5 note=64 velocity=80 time=0
note_off channel=5 note=64 velocity=64 time=240
note_on channel=5 note=66 velocity=80 time=0
note_off channel=5 note=66 velocity=64 time=240
note_on channel=5 note=68 velocity=80 time=0
note_off channel=5 note=68 velocity=64 time=240
note_on channel=5 note=69 velocity=80 time=0
note_off channel=5 note=69 velocity=64 time=240
note_on channel=5 note=66 velocity=80 time=0
note_off channel=5 note=66 velocity=64 time=240
note_on channel=5 note=69 velocity=80 time=0
note_off channel=5 note=69 velocity=64 time=240
note_on channel=5 note=68 velocity=80 time=0
note_off channel=5 note=68 velocity=64 time=120
note_on channel=5 note=69 velocity=80 time=0
note_off channel=5 note=69 velocity=64 time=120
note_on channel=5 note=71 velocity=80 time=0
note_off channel=5 note=71 velocity=64 time=240
note_on channel=5 note=64 velocity=80 time=0
note_off channel=5 note=64 velocity=64 time=240
note_on channel=5 note=71 velocity=80 time=0
note_off channel=5 note=71 velocity=64 time=240
note_on channel=5 note=69 velocity=80 time=0
note_off channel=5 note=69 velocity=64 time=120
note_on channel=5 note=71 velocity=80 time=0
note_off channel=5 note=71 velocity=64 time=120
note_on channel=5 note=73 velocity=80 time=0
note_off channel=5 note=73 velocity=64 time=240
note_on channel=5 note=66 velocity=80 time=0
note_off channel=5 note=66 velocity=64 time=240
note_on channel=5 note=73 velocity=80 time=0
note_off channel=5 note=73 velocity=64 time=240
note_on channel=5 note=71 velocity=80 time=0
note_off channel=5 note=71 velocity=64 time=120
note_on channel=5 note=69 velocity=80 time=0
note_off channel=5 note=69 velocity=64 time=120
note_on channel=5 note=71 velocity=80 time=0
note_off channel=5 note=71 velocity=64 time=240
note_on channel=5 note=68 velocity=80 time=0
note_off channel=5 note=68 velocity=64 time=240
note_on channel=5 note=69 velocity=80 time=0
note_off channel=5 note=69 velocity=64 time=240
note_on channel=5 note=71 velocity=80 time=0
note_off channel=5 note=71 velocity=64 time=240
note_on channel=5 note=69 velocity=80 time=0
note_off channel=5 note=69 velocity=64 time=240
note_on channel=5 note=66 velocity=80 time=0
note_off channel=5 note=66 velocity=64 time=240
note_on channel=5 note=69 velocity=80 time=0
note_off channel=5 note=69 velocity=64 time=240
note_on channel=5 note=68 velocity=80 time=0
note_off channel=5 note=68 velocity=64 time=120
note_on channel=5 note=66 velocity=80 time=0
note_off channel=5 note=66 velocity=64 time=120
note_on channel=5 note=68 velocity=80 time=0
note_off channel=5 note=68 velocity=64 time=240
note_on channel=5 note=64 velocity=80 time=0
note_off channel=5 note=64 velocity=64 time=240
note_on channel=5 note=66 velocity=80 time=0
note_off channel=5 note=66 velocity=64 time=240
note_on channel=5 note=68 velocity=80 time=0
note_off channel=5 note=68 velocity=64 time=240
note_on channel=5 note=69 velocity=80 time=0
note_off channel=5 note=69 velocity=64 time=240
note_on channel=5 note=66 velocity=80 time=0
note_off channel=5 note=66 velocity=64 time=240
note_on channel=5 note=69 velocity=80 time=0
note_off channel=5 note=69 velocity=64 time=240
note_on channel=5 note=68 velocity=80 time=0
note_off channel=5 note=68 velocity=64 time=120
note_on channel=5 note=66 velocity=80 time=0
note_off channel=5 note=66 velocity=64 time=120
note_on channel=5 note=68 velocity=80 time=0
note_off channel=5 note=68 velocity=64 time=240
note_on channel=5 note=64 velocity=80 time=0
note_off channel=5 note=64 velocity=64 time=240
note_on channel=5 note=66 velocity=80 time=0
note_off channel=5 note=66 velocity=64 time=240
note_on channel=5 note=68 velocity=80 time=0
note_off channel=5 note=68 velocity=64 time=240
note_on channel=5 note=69 velocity=80 time=0
note_off channel=5 note=69 velocity=64 time=240
note_on channel=5 note=66 velocity=80 time=0
note_off channel=5 note=66 velocity=64 time=240
note_on channel=5 note=69 velocity=80 time=0
note_off channel=5 note=69 velocity=64 time=240
note_on channel=5 note=68 velocity=80 time=0
note_off channel=5 note=68 velocity=64 time=120
note_on channel=5 note=69 velocity=80 time=0
note_off channel=5 note=69 velocity=64 time=120
note_on channel=5 note=71 velocity=80 time=0
note_off channel=5 note=71 velocity=64 time=240
note_on channel=5 note=64 velocity=80 time=0
note_off channel=5 note=64 velocity=64 time=240
note_on channel=5 note=71 velocity=80 time=0
note_off channel=5 note=71 velocity=64 time=240
note_on channel=5 note=69 velocity=80 time=0
note_off channel=5 note=69 velocity=64 time=120
note_on channel=5 note=71 velocity=80 time=0
note_off channel=5 note=71 velocity=64 time=120
note_on channel=5 note=73 velocity=80 time=0
note_off channel=5 note=73 velocity=64 time=240
note_on channel=5 note=66 velocity=80 time=0
note_off channel=5 note=66 velocity=64 time=240
note_on channel=5 note=73 velocity=80 time=0
note_off channel=5 note=73 velocity=64 time=240
note_on channel=5 note=71 velocity=80 time=0
note_off channel=5 note=71 velocity=64 time=120
note_on channel=5 note=69 velocity=80 time=0
note_off channel=5 note=69 velocity=64 time=120
note_on channel=5 note=71 velocity=80 time=0
note_off channel=5 note=71 velocity=64 time=240
note_on channel=5 note=68 velocity=80 time=0
note_off channel=5 note=68 velocity=64 time=240
note_on channel=5 note=64 velocity=80 time=0
note_off channel=5 note=64 velocity=64 time=240
note_on channel=5 note=68 velocity=80 time=0
note_off channel=5 note=68 velocity=64 time=240
note_on channel=5 note=61 velocity=80 time=0
note_off channel=5 note=61 velocity=64 time=120
note_on channel=5 note=66 velocity=80 time=120
note_off channel=5 note=66 velocity=64 time=120
note_on channel=5 note=69 velocity=80 time=120
note_off channel=5 note=69 velocity=64 time=120
note_on channel=5 note=66 velocity=80 time=120
note_off channel=5 note=66 velocity=64 time=120
note_on channel=5 note=68 velocity=80 time=120
note_off channel=5 note=68 velocity=64 time=120
note_on channel=5 note=66 velocity=80 time=120
note_off channel=5 note=66 velocity=64 time=120
note_on channel=5 note=69 velocity=80 time=120
note_off channel=5 note=69 velocity=64 time=120
note_on channel=5 note=66 velocity=80 time=120
note_off channel=5 note=66 velocity=64 time=120
note_on channel=5 note=61 velocity=80 time=120
note_off channel=5 note=61 velocity=64 time=120
note_on channel=5 note=66 velocity=80 time=120
note_off channel=5 note=66 velocity=64 time=120
note_on channel=5 note=69 velocity=80 time=120
note_off channel=5 note=69 velocity=64 time=120
note_on channel=5 note=66 velocity=80 time=120
note_off channel=5 note=66 velocity=64 time=120
note_on channel=5 note=68 velocity=80 time=120
note_off channel=5 note=68 velocity=64 time=120
note_on channel=5 note=66 velocity=80 time=120
note_off channel=5 note=66 velocity=64 time=120
note_on channel=5 note=69 velocity=80 time=120
note_off channel=5 note=69 velocity=64 time=120
note_on channel=5 note=66 velocity=80 time=120
note_off channel=5 note=66 velocity=64 time=120
note_on channel=5 note=62 velocity=80 time=120
note_off channel=5 note=62 velocity=64 time=120
note_on channel=5 note=66 velocity=80 time=120
note_off channel=5 note=66 velocity=64 time=120
note_on channel=5 note=69 velocity=80 time=120
note_off channel=5 note=69 velocity=64 time=120
note_on channel=5 note=62 velocity=80 time=120
note_off channel=5 note=62 velocity=64 time=120
note_on channel=5 note=74 velocity=80 time=120
note_off channel=5 note=74 velocity=64 time=120
note_on channel=5 note=69 velocity=80 time=120
note_off channel=5 note=69 velocity=64 time=120
note_on channel=5 note=74 velocity=80 time=120
note_off channel=5 note=74 velocity=64 time=120
note_on channel=5 note=71 velocity=80 time=120
note_off channel=5 note=71 velocity=64 time=120
note_on channel=5 note=73 velocity=80 time=120
note_off channel=5 note=73 velocity=64 time=120
note_on channel=5 note=69 velocity=80 time=120
note_off channel=5 note=69 velocity=64 time=120
note_on channel=5 note=73 velocity=80 time=120
note_off channel=5 note=73 velocity=64 time=120
note_on channel=5 note=69 velocity=80 time=120
note_off channel=5 note=69 velocity=64 time=120
note_on channel=5 note=71 velocity=80 time=120
note_off channel=5 note=71 velocity=64 time=120
note_on channel=5 note=64 velocity=80 time=120
note_off channel=5 note=64 velocity=64 time=120
note_on channel=5 note=71 velocity=80 time=120
note_off channel=5 note=71 velocity=64 time=120
note_on channel=5 note=64 velocity=80 time=120
note_off channel=5 note=64 velocity=64 time=120
note_on channel=5 note=61 velocity=80 time=120
note_off channel=5 note=61 velocity=64 time=120
note_on channel=5 note=66 velocity=80 time=120
note_off channel=5 note=66 velocity=64 time=120
note_on channel=5 note=69 velocity=80 time=120
note_off channel=5 note=69 velocity=64 time=120
note_on channel=5 note=66 velocity=80 time=120
note_off channel=5 note=66 velocity=64 time=120
note_on channel=5 note=68 velocity=80 time=120
note_off channel=5 note=68 velocity=64 time=120
note_on channel=5 note=66 velocity=80 time=120
note_off channel=5 note=66 velocity=64 time=120
note_on channel=5 note=69 velocity=80 time=120
note_off channel=5 note=69 velocity=64 time=120
note_on channel=5 note=66 velocity=80 time=120
note_off channel=5 note=66 velocity=64 time=120
note_on channel=5 note=61 velocity=80 time=120
note_off channel=5 note=61 velocity=64 time=120
note_on channel=5 note=66 velocity=80 time=120
note_off channel=5 note=66 velocity=64 time=120
note_on channel=5 note=69 velocity=80 time=120
note_off channel=5 note=69 velocity=64 time=120
note_on channel=5 note=66 velocity=80 time=120
note_off channel=5 note=66 velocity=64 time=120
note_on channel=5 note=68 velocity=80 time=120
note_off channel=5 note=68 velocity=64 time=120
note_on channel=5 note=66 velocity=80 time=120
note_off channel=5 note=66 velocity=64 time=120
note_on channel=5 note=69 velocity=80 time=120
note_off channel=5 note=69 velocity=64 time=120
note_on channel=5 note=66 velocity=80 time=120
note_off channel=5 note=66 velocity=64 time=120
note_on channel=5 note=62 velocity=80 time=120
note_off channel=5 note=62 velocity=64 time=120
note_on channel=5 note=66 velocity=80 time=120
note_off channel=5 note=66 velocity=64 time=120
note_on channel=5 note=69 velocity=80 time=120
note_off channel=5 note=69 velocity=64 time=120
note_on channel=5 note=62 velocity=80 time=120
note_off channel=5 note=62 velocity=64 time=120
note_on channel=5 note=74 velocity=80 time=120
note_off channel=5 note=74 velocity=64 time=120
note_on channel=5 note=69 velocity=80 time=120
note_off channel=5 note=69 velocity=64 time=120
note_on channel=5 note=74 velocity=80 time=120
note_off channel=5 note=74 velocity=64 time=120
note_on channel=5 note=71 velocity=80 time=120
note_off channel=5 note=71 velocity=64 time=120
note_on channel=5 note=73 velocity=80 time=120
note_off channel=5 note=73 velocity=64 time=120
note_on channel=5 note=69 velocity=80 time=120
note_off channel=5 note=69 velocity=64 time=120
note_on channel=5 note=73 velocity=80 time=120
note_off channel=5 note=73 velocity=64 time=120
note_on channel=5 note=69 velocity=80 time=120
note_off channel=5 note=69 velocity=64 time=120
note_on channel=5 note=71 velocity=80 time=120
note_off channel=5 note=71 velocity=64 time=120
note_on channel=5 note=64 velocity=80 time=120
note_off channel=5 note=64 velocity=64 time=120
note_on channel=5 note=71 velocity=80 time=120
note_off channel=5 note=71 velocity=64 time=120
note_on channel=5 note=64 velocity=80 time=120
note_off channel=5 note=64 velocity=64 time=120
note_on channel=5 note=57 velocity=80 time=15480
note_off channel=5 note=57 velocity=64 time=240
note_on channel=5 note=54 velocity=80 time=0
note_off channel=5 note=54 velocity=64 time=240
note_on channel=5 note=56 velocity=80 time=0
note_off channel=5 note=56 velocity=64 time=240
note_on channel=5 note=57 velocity=80 time=0
note_off channel=5 note=57 velocity=64 time=240
note_on channel=5 note=59 velocity=80 time=0
note_off channel=5 note=59 velocity=64 time=240
note_on channel=5 note=56 velocity=80 time=0
note_off channel=5 note=56 velocity=64 time=240
note_on channel=5 note=57 velocity=80 time=0
note_off channel=5 note=57 velocity=64 time=240
note_on channel=5 note=59 velocity=80 time=0
note_off channel=5 note=59 velocity=64 time=240
note_on channel=5 note=61 velocity=80 time=0
note_off channel=5 note=61 velocity=64 time=240
note_on channel=5 note=57 velocity=80 time=0
note_off channel=5 note=57 velocity=64 time=240
note_on channel=5 note=62 velocity=80 time=0
note_off channel=5 note=62 velocity=64 time=240
note_on channel=5 note=57 velocity=80 time=0
note_off channel=5 note=57 velocity=64 time=240
note_on channel=5 note=61 velocity=80 time=0
note_off channel=5 note=61 velocity=64 time=240
note_on channel=5 note=57 velocity=80 time=0
note_off channel=5 note=57 velocity=64 time=240
note_on channel=5 note=59 velocity=80 time=0
note_off channel=5 note=59 velocity=64 time=240
note_on channel=5 note=56 velocity=80 time=0
note_off channel=5 note=56 velocity=64 time=240
note_on channel=5 note=57 velocity=80 time=0
note_off channel=5 note=57 velocity=64 time=240
note_on channel=5 note=54 velocity=80 time=0
note_off channel=5 note=54 velocity=64 time=240
note_on channel=5 note=56 velocity=80 time=0
note_off channel=5 note=56 velocity=64 time=240
note_on channel=5 note=57 velocity=80 time=0
note_off channel=5 note=57 velocity=64 time=240
note_on channel=5 note=59 velocity=80 time=0
note_off channel=5 note=59 velocity=64 time=240
note_on channel=5 note=56 velocity=80 time=0
note_off channel=5 note=56 velocity=64 time=240
note_on channel=5 note=57 velocity=80 time=0
note_off channel=5 note=57 velocity=64 time=240
note_on channel=5 note=59 velocity=80 time=0
note_off channel=5 note=59 velocity=64 time=240
note_on channel=5 note=61 velocity=80 time=0
note_off channel=5 note=61 velocity=64 time=240
note_on channel=5 note=57 velocity=80 time=0
note_off channel=5 note=57 velocity=64 time=240
note_on channel=5 note=62 velocity=80 time=0
note_off channel=5 note=62 velocity=64 time=240
note_on channel=5 note=57 velocity=80 time=0
note_off channel=5 note=57 velocity=64 time=240
note_on channel=5 note=61 velocity=80 time=0
note_off channel=5 note=61 velocity=64 time=240
note_on channel=5 note=57 velocity=80 time=0
note_off channel=5 note=57 velocity=64 time=240
note_on channel=5 note=59 velocity=80 time=0
note_off channel=5 note=59 velocity=64 time=240
note_on channel=5 note=56 velocity=80 time=0
note_off channel=5 note=56 velocity=64 time=240
note_on channel=5 note=61 velocity=80 time=0
note_off channel=5 note=61 velocity=64 time=240
note_on channel=5 note=57 velocity=80 time=0
note_off channel=5 note=57 velocity=64 time=240
note_on channel=5 note=59 velocity=80 time=0
note_off channel=5 note=59 velocity=64 time=240
note_on channel=5 note=61 velocity=80 time=0
note_off channel=5 note=61 velocity=64 time=240
note_on channel=5 note=62 velocity=80 time=0
note_off channel=5 note=62 velocity=64 time=240
note_on channel=5 note=59 velocity=80 time=0
note_off channel=5 note=59 velocity=64 time=240
note_on channel=5 note=61 velocity=80 time=0
note_off channel=5 note=61 velocity=64 time=240
note_on channel=5 note=62 velocity=80 time=0
note_off channel=5 note=62 velocity=64 time=240
note_on channel=5 note=64 velocity=80 time=0
note_off channel=5 note=64 velocity=64 time=240
note_on channel=5 note=61 velocity=80 time=0
note_off channel=5 note=61 velocity=64 time=240
note_on channel=5 note=66 velocity=80 time=0
note_off channel=5 note=66 velocity=64 time=240
note_on channel=5 note=61 velocity=80 time=0
note_off channel=5 note=61 velocity=64 time=240
note_on channel=5 note=64 velocity=80 time=0
note_off channel=5 note=64 velocity=64 time=240
note_on channel=5 note=61 velocity=80 time=0
note_off channel=5 note=61 velocity=64 time=240
note_on channel=5 note=62 velocity=80 time=0
note_off channel=5 note=62 velocity=64 time=240
note_on channel=5 note=59 velocity=80 time=0
note_off channel=5 note=59 velocity=64 time=240
note_on channel=5 note=61 velocity=80 time=0
note_off channel=5 note=61 velocity=64 time=240
note_on channel=5 note=57 velocity=80 time=0
note_off channel=5 note=57 velocity=64 time=240
note_on channel=5 note=59 velocity=80 time=0
note_off channel=5 note=59 velocity=64 time=240
note_on channel=5 note=61 velocity=80 time=0
note_off channel=5 note=61 velocity=64 time=240
note_on channel=5 note=62 velocity=80 time=0
note_off channel=5 note=62 velocity=64 time=240
note_on channel=5 note=59 velocity=80 time=0
note_off channel=5 note=59 velocity=64 time=240
note_on channel=5 note=61 velocity=80 time=0
note_off channel=5 note=61 velocity=64 time=240
note_on channel=5 note=62 velocity=80 time=0
note_off channel=5 note=62 velocity=64 time=240
note_on channel=5 note=64 velocity=80 time=0
note_off channel=5 note=64 velocity=64 time=240
note_on channel=5 note=61 velocity=80 time=0
note_off channel=5 note=61 velocity=64 time=240
note_on channel=5 note=66 velocity=80 time=0
note_off channel=5 note=66 velocity=64 time=240
note_on channel=5 note=61 velocity=80 time=0
note_off channel=5 note=61 velocity=64 time=240
note_on channel=5 note=64 velocity=80 time=0
note_off channel=5 note=64 velocity=64 time=240
note_on channel=5 note=61 velocity=80 time=0
note_off channel=5 note=61 velocity=64 time=240
note_on channel=5 note=62 velocity=80 time=0
note_off channel=5 note=62 velocity=64 time=240
note_on channel=5 note=59 velocity=80 time=0
note_off channel=5 note=59 velocity=64 time=240
note_on channel=5 note=57 velocity=80 time=0
note_off channel=5 note=57 velocity=64 time=240
note_on channel=5 note=54 velocity=80 time=0
note_off channel=5 note=54 velocity=64 time=240
note_on channel=5 note=56 velocity=80 time=0
note_off channel=5 note=56 velocity=64 time=240
note_on channel=5 note=57 velocity=80 time=0
note_off channel=5 note=57 velocity=64 time=240
note_on channel=5 note=59 velocity=80 time=0
note_off channel=5 note=59 velocity=64 time=240
note_on channel=5 note=56 velocity=80 time=0
note_off channel=5 note=56 velocity=64 time=240
note_on channel=5 note=57 velocity=80 time=0
note_off channel=5 note=57 velocity=64 time=240
note_on channel=5 note=59 velocity=80 time=0
note_off channel=5 note=59 velocity=64 time=240
note_on channel=5 note=61 velocity=80 time=0
note_off channel=5 note=61 velocity=64 time=240
note_on channel=5 note=57 velocity=80 time=0
note_off channel=5 note=57 velocity=64 time=240
note_on channel=5 note=62 velocity=80 time=0
note_off channel=5 note=62 velocity=64 time=240
note_on channel=5 note=57 velocity=80 time=0
note_off channel=5 note=57 velocity=64 time=240
note_on channel=5 note=61 velocity=80 time=0
note_off channel=5 note=61 velocity=64 time=240
note_on channel=5 note=57 velocity=80 time=0
note_off channel=5 note=57 velocity=64 time=240
note_on channel=5 note=59 velocity=80 time=0
note_off channel=5 note=59 velocity=64 time=240
note_on channel=5 note=56 velocity=80 time=0
note_off channel=5 note=56 velocity=64 time=240
note_on channel=5 note=57 velocity=80 time=0
note_off channel=5 note=57 velocity=64 time=240
note_on channel=5 note=54 velocity=80 time=0
note_off channel=5 note=54 velocity=64 time=240
note_on channel=5 note=56 velocity=80 time=0
note_off channel=5 note=56 velocity=64 time=240
note_on channel=5 note=57 velocity=80 time=0
note_off channel=5 note=57 velocity=64 time=240
note_on channel=5 note=59 velocity=80 time=0
note_off channel=5 note=59 velocity=64 time=240
note_on channel=5 note=56 velocity=80 time=0
note_off channel=5 note=56 velocity=64 time=240
note_on channel=5 note=57 velocity=80 time=0
note_off channel=5 note=57 velocity=64 time=240
note_on channel=5 note=59 velocity=80 time=0
note_off channel=5 note=59 velocity=64 time=240
note_on channel=5 note=61 velocity=80 time=0
note_off channel=5 note=61 velocity=64 time=240
note_on channel=5 note=57 velocity=80 time=0
note_off channel=5 note=57 velocity=64 time=240
note_on channel=5 note=62 velocity=80 time=0
note_off channel=5 note=62 velocity=64 time=240
note_on channel=5 note=57 velocity=80 time=0
note_off channel=5 note=57 velocity=64 time=240
note_on channel=5 note=61 velocity=80 time=0
note_off channel=5 note=61 velocity=64 time=240
note_on channel=5 note=57 velocity=80 time=0
note_off channel=5 note=57 velocity=64 time=240
note_on channel=5 note=59 velocity=80 time=0
note_off channel=5 note=59 velocity=64 time=240
note_on channel=5 note=56 velocity=80 time=0
note_off channel=5 note=56 velocity=64 time=240
note_on channel=5 note=61 velocity=80 time=0
note_off channel=5 note=61 velocity=64 time=240
note_on channel=5 note=57 velocity=80 time=0
note_off channel=5 note=57 velocity=64 time=240
note_on channel=5 note=59 velocity=80 time=0
note_off channel=5 note=59 velocity=64 time=240
note_on channel=5 note=61 velocity=80 time=0
note_off channel=5 note=61 velocity=64 time=240
note_on channel=5 note=62 velocity=80 time=0
note_off channel=5 note=62 velocity=64 time=240
note_on channel=5 note=59 velocity=80 time=0
note_off channel=5 note=59 velocity=64 time=240
note_on channel=5 note=61 velocity=80 time=0
note_off channel=5 note=61 velocity=64 time=240
note_on channel=5 note=62 velocity=80 time=0
note_off channel=5 note=62 velocity=64 time=240
note_on channel=5 note=64 velocity=80 time=0
note_off channel=5 note=64 velocity=64 time=240
note_on channel=5 note=61 velocity=80 time=0
note_off channel=5 note=61 velocity=64 time=240
note_on channel=5 note=66 velocity=80 time=0
note_off channel=5 note=66 velocity=64 time=240
note_on channel=5 note=61 velocity=80 time=0
note_off channel=5 note=61 velocity=64 time=240
note_on channel=5 note=64 velocity=80 time=0
note_off channel=5 note=64 velocity=64 time=240
note_on channel=5 note=61 velocity=80 time=0
note_off channel=5 note=61 velocity=64 time=240
note_on channel=5 note=62 velocity=80 time=0
note_off channel=5 note=62 velocity=64 time=240
note_on channel=5 note=59 velocity=80 time=0
note_off channel=5 note=59 velocity=64 time=240
note_on channel=5 note=61 velocity=80 time=0
note_off channel=5 note=61 velocity=64 time=240
note_on channel=5 note=57 velocity=80 time=0
note_off channel=5 note=57 velocity=64 time=240
note_on channel=5 note=59 velocity=80 time=0
note_off channel=5 note=59 velocity=64 time=240
note_on channel=5 note=61 velocity=80 time=0
note_off channel=5 note=61 velocity=64 time=240
note_on channel=5 note=62 velocity=80 time=0
note_off channel=5 note=62 velocity=64 time=240
note_on channel=5 note=59 velocity=80 time=0
note_off channel=5 note=59 velocity=64 time=240
note_on channel=5 note=61 velocity=80 time=0
note_off channel=5 note=61 velocity=64 time=240
note_on channel=5 note=62 velocity=80 time=0
note_off channel=5 note=62 velocity=64 time=240
note_on channel=5 note=64 velocity=80 time=0
note_off channel=5 note=64 velocity=64 time=240
note_on channel=5 note=61 velocity=80 time=0
note_off channel=5 note=61 velocity=64 time=240
note_on channel=5 note=66 velocity=80 time=0
note_off channel=5 note=66 velocity=64 time=240
note_on channel=5 note=61 velocity=80 time=0
note_off channel=5 note=61 velocity=64 time=240
note_on channel=5 note=64 velocity=80 time=0
note_off channel=5 note=64 velocity=64 time=240
note_on channel=5 note=61 velocity=80 time=0
note_off channel=5 note=61 velocity=64 time=240
note_on channel=5 note=62 velocity=80 time=0
note_off channel=5 note=62 velocity=64 time=240
note_on channel=5 note=59 velocity=80 time=0
note_off channel=5 note=59 velocity=64 time=240
note_on channel=5 note=61 velocity=80 time=0
note_off channel=5 note=61 velocity=64 time=240
note_on channel=5 note=54 velocity=80 time=0
note_off channel=5 note=54 velocity=64 time=240
note_on channel=5 note=61 velocity=80 time=0
note_off channel=5 note=61 velocity=64 time=240
note_on channel=5 note=64 velocity=80 time=0
note_off channel=5 note=64 velocity=64 time=120
note_on channel=5 note=66 velocity=80 time=0
note_off channel=5 note=66 velocity=64 time=120
note_on channel=5 note=68 velocity=80 time=0
note_off channel=5 note=68 velocity=64 time=240
note_on channel=5 note=64 velocity=80 time=0
note_off channel=5 note=64 velocity=64 time=240
note_on channel=5 note=68 velocity=80 time=0
note_off channel=5 note=68 velocity=64 time=240
note_on channel=5 note=71 velocity=80 time=0
note_off channel=5 note=71 velocity=64 time=240
note_on channel=5 note=73 velocity=80 time=0
note_off channel=5 note=73 velocity=64 time=240
note_on channel=5 note=69 velocity=80 time=0
note_off channel=5 note=69 velocity=64 time=240
note_on channel=5 note=73 velocity=80 time=0
note_off channel=5 note=73 velocity=64 time=240
note_on channel=5 note=71 velocity=80 time=0
note_off channel=5 note=71 velocity=64 time=120
note_on channel=5 note=69 velocity=80 time=0
note_off channel=5 note=69 velocity=64 time=120
note_on channel=5 note=71 velocity=80 time=0
note_off channel=5 note=71 velocity=64 time=240
note_on channel=5 note=68 velocity=80 time=0
note_off channel=5 note=68 velocity=64 time=240
note_on channel=5 note=64 velocity=80 time=0
note_off channel=5 note=64 velocity=64 time=240
note_on channel=5 note=68 velocity=80 time=0
note_off channel=5 note=68 velocity=64 time=240
note_on channel=5 note=69 velocity=80 time=0
note_off channel=5 note=69 velocity=64 time=240
note_on channel=5 note=66 velocity=80 time=0
note_off channel=5 note=66 velocity=64 time=240
note_on channel=5 note=69 velocity=80 time=0
note_off channel=5 note=69 velocity=64 time=240
note_on channel=5 note=71 velocity=80 time=0
note_off channel=5 note=71 velocity=64 time=120
note_on channel=5 note=69 velocity=80 time=0
note_off channel=5 note=69 velocity=64 time=120
note_on channel=5 note=68 velocity=80 time=0
note_off channel=5 note=68 velocity=64 time=240
note_on channel=5 note=64 velocity=80 time=0
note_off channel=5 note=64 velocity=64 time=240
note_on channel=5 note=66 velocity=80 time=0
note_off channel=5 note=66 velocity=64 time=240
note_on channel=5 note=68 velocity=80 time=0
note_off channel=5 note=68 velocity=64 time=240
note_on channel=5 note=69 velocity=80 time=0
note_off channel=5 note=69 velocity=64 time=240
note_on channel=5 note=66 velocity=80 time=0
note_off channel=5 note=66 velocity=64 time=240
note_on channel=5 note=69 velocity=80 time=0
note_off channel=5 note=69 velocity=64 time=240
note_on channel=5 note=71 velocity=80 time=0
note_off channel=5 note=71 velocity=64 time=120
note_on channel=5 note=69 velocity=80 time=0
note_off channel=5 note=69 velocity=64 time=120
note_on channel=5 note=68 velocity=80 time=0
note_off channel=5 note=68 velocity=64 time=240
note_on channel=5 note=64 velocity=80 time=0
note_off channel=5 note=64 velocity=64 time=240
note_on channel=5 note=61 velocity=80 time=0
note_off channel=5 note=61 velocity=64 time=240
note_on channel=5 note=68 velocity=80 time=0
note_off channel=5 note=68 velocity=64 time=240
note_on channel=5 note=66 velocity=80 time=0
note_off channel=5 note=66 velocity=64 time=240
note_on channel=5 note=61 velocity=80 time=0
note_off channel=5 note=61 velocity=64 time=240
note_on channel=5 note=61 velocity=80 time=0
note_off channel=5 note=61 velocity=64 time=240
note_on channel=5 note=64 velocity=80 time=0
note_off channel=5 note=64 velocity=64 time=120
note_on channel=5 note=66 velocity=80 time=0
note_off channel=5 note=66 velocity=64 time=120
note_on channel=5 note=68 velocity=80 time=0
note_off channel=5 note=68 velocity=64 time=240
note_on channel=5 note=64 velocity=80 time=0
note_off channel=5 note=64 velocity=64 time=240
note_on channel=5 note=68 velocity=80 time=0
note_off channel=5 note=68 velocity=64 time=240
note_on channel=5 note=71 velocity=80 time=0
note_off channel=5 note=71 velocity=64 time=240
note_on channel=5 note=73 velocity=80 time=0
note_off channel=5 note=73 velocity=64 time=240
note_on channel=5 note=69 velocity=80 time=0
note_off channel=5 note=69 velocity=64 time=240
note_on channel=5 note=73 velocity=80 time=0
note_off channel=5 note=73 velocity=64 time=240
note_on channel=5 note=74 velocity=80 time=0
note_off channel=5 note=74 velocity=64 time=120
note_on channel=5 note=73 velocity=80 time=0
note_off channel=5 note=73 velocity=64 time=120
note_on channel=5 note=71 velocity=80 time=0
note_off channel=5 note=71 velocity=64 time=240
note_on channel=5 note=68 velocity=80 time=0
note_off channel=5 note=68 velocity=64 time=240
note_on channel=5 note=64 velocity=80 time=0
note_off channel=5 note=64 velocity=64 time=240
note_on channel=5 note=68 velocity=80 time=0
note_off channel=5 note=68 velocity=64 time=240
note_on channel=5 note=69 velocity=80 time=0
note_off channel=5 note=69 velocity=64 time=240
note_on channel=5 note=66 velocity=80 time=0
note_off channel=5 note=66 velocity=64 time=240
note_on channel=5 note=69 velocity=80 time=0
note_off channel=5 note=69 velocity=64 time=240
note_on channel=5 note=71 velocity=80 time=0
note_off channel=5 note=71 velocity=64 time=120
note_on channel=5 note=69 velocity=80 time=0
note_off channel=5 note=69 velocity=64 time=120
note_on channel=5 note=68 velocity=80 time=0
note_off channel=5 note=68 velocity=64 time=240
note_on channel=5 note=64 velocity=80 time=0
note_off channel=5 note=64 velocity=64 time=240
note_on channel=5 note=66 velocity=80 time=0
note_off channel=5 note=66 velocity=64 time=240
note_on channel=5 note=68 velocity=80 time=0
note_off channel=5 note=68 velocity=64 time=240
note_on channel=5 note=69 velocity=80 time=0
note_off channel=5 note=69 velocity=64 time=240
note_on channel=5 note=66 velocity=80 time=0
note_off channel=5 note=66 velocity=64 time=240
note_on channel=5 note=69 velocity=80 time=0
note_off channel=5 note=69 velocity=64 time=240
note_on channel=5 note=71 velocity=80 time=0
note_off channel=5 note=71 velocity=64 time=120
note_on channel=5 note=69 velocity=80 time=0
note_off channel=5 note=69 velocity=64 time=120
note_on channel=5 note=68 velocity=80 time=0
note_off channel=5 note=68 velocity=64 time=240
note_on channel=5 note=64 velocity=80 time=0
note_off channel=5 note=64 velocity=64 time=240
note_on channel=5 note=61 velocity=80 time=0
note_off channel=5 note=61 velocity=64 time=240
note_on channel=5 note=68 velocity=80 time=0
note_off channel=5 note=68 velocity=64 time=240
note_on channel=5 note=69 velocity=80 time=0
note_off channel=5 note=69 velocity=64 time=240
note_on channel=5 note=66 velocity=80 time=0
note_off channel=5 note=66 velocity=64 time=240
note_on channel=5 note=69 velocity=80 time=0
note_off channel=5 note=69 velocity=64 time=240
note_on channel=5 note=68 velocity=80 time=0
note_off channel=5 note=68 velocity=64 time=120
note_on channel=5 note=66 velocity=80 time=0
note_off channel=5 note=66 velocity=64 time=120
note_on channel=5 note=68 velocity=80 time=0
note_off channel=5 note=68 velocity=64 time=240
note_on channel=5 note=64 velocity=80 time=0
note_off channel=5 note=64 velocity=64 time=240
note_on channel=5 note=66 velocity=80 time=0
note_off channel=5 note=66 velocity=64 time=240
note_on channel=5 note=68 velocity=80 time=0
note_off channel=5 note=68 velocity=64 time=240
note_on channel=5 note=69 velocity=80 time=0
note_off channel=5 note=69 velocity=64 time=240
note_on channel=5 note=66 velocity=80 time=0
note_off channel=5 note=66 velocity=64 time=240
note_on channel=5 note=69 velocity=80 time=0
note_off channel=5 note=69 velocity=64 time=240
note_on channel=5 note=68 velocity=80 time=0
note_off channel=5 note=68 velocity=64 time=120
note_on channel=5 note=66 velocity=80 time=0
note_off channel=5 note=66 velocity=64 time=120
note_on channel=5 note=68 velocity=80 time=0
note_off channel=5 note=68 velocity=64 time=240
note_on channel=5 note=64 velocity=80 time=0
note_off channel=5 note=64 velocity=64 time=240
note_on channel=5 note=66 velocity=80 time=0
note_off channel=5 note=66 velocity=64 time=240
note_on channel=5 note=68 velocity=80 time=0
note_off channel=5 note=68 velocity=64 time=240
note_on channel=5 note=69 velocity=80 time=0
note_off channel=5 note=69 velocity=64 time=240
note_on channel=5 note=66 velocity=80 time=0
note_off channel=5 note=66 velocity=64 time=240
note_on channel=5 note=69 velocity=80 time=0
note_off channel=5 note=69 velocity=64 time=240
note_on channel=5 note=68 velocity=80 time=0
note_off channel=5 note=68 velocity=64 time=120
note_on channel=5 note=69 velocity=80 time=0
note_off channel=5 note=69 velocity=64 time=120
note_on channel=5 note=71 velocity=80 time=0
note_off channel=5 note=71 velocity=64 time=240
note_on channel=5 note=64 velocity=80 time=0
note_off channel=5 note=64 velocity=64 time=240
note_on channel=5 note=71 velocity=80 time=0
note_off channel=5 note=71 velocity=64 time=240
note_on channel=5 note=69 velocity=80 time=0
note_off channel=5 note=69 velocity=64 time=120
note_on channel=5 note=71 velocity=80 time=0
note_off channel=5 note=71 velocity=64 time=120
note_on channel=5 note=73 velocity=80 time=0
note_off channel=5 note=73 velocity=64 time=240
note_on channel=5 note=66 velocity=80 time=0
note_off channel=5 note=66 velocity=64 time=240
note_on channel=5 note=73 velocity=80 time=0
note_off channel=5 note=73 velocity=64 time=240
note_on channel=5 note=71 velocity=80 time=0
note_off channel=5 note=71 velocity=64 time=120
note_on channel=5 note=69 velocity=80 time=0
note_off channel=5 note=69 velocity=64 time=120
note_on channel=5 note=71 velocity=80 time=0
note_off channel=5 note=71 velocity=64 time=240
note_on channel=5 note=68 velocity=80 time=0
note_off channel=5 note=68 velocity=64 time=240
note_on channel=5 note=69 velocity=80 time=0
note_off channel=5 note=69 velocity=64 time=240
note_on channel=5 note=71 velocity=80 time=0
note_off channel=5 note=71 velocity=64 time=240
note_on channel=5 note=69 velocity=80 time=0
note_off channel=5 note=69 velocity=64 time=240
note_on channel=5 note=66 velocity=80 time=0
note_off channel=5 note=66 velocity=64 time=240
note_on channel=5 note=69 velocity=80 time=0
note_off channel=5 note=69 velocity=64 time=240
note_on channel=5 note=68 velocity=80 time=0
note_off channel=5 note=68 velocity=64 time=120
note_on channel=5 note=66 velocity=80 time=0
note_off channel=5 note=66 velocity=64 time=120
note_on channel=5 note=68 velocity=80 time=0
note_off channel=5 note=68 velocity=64 time=240
note_on channel=5 note=64 velocity=80 time=0
note_off channel=5 note=64 velocity=64 time=240
note_on channel=5 note=66 velocity=80 time=0
note_off channel=5 note=66 velocity=64 time=240
note_on channel=5 note=68 velocity=80 time=0
note_off channel=5 note=68 velocity=64 time=240
note_on channel=5 note=69 velocity=80 time=0
note_off channel=5 note=69 velocity=64 time=240
note_on channel=5 note=66 velocity=80 time=0
note_off channel=5 note=66 velocity=64 time=240
note_on channel=5 note=69 velocity=80 time=0
note_off channel=5 note=69 velocity=64 time=240
note_on channel=5 note=68 velocity=80 time=0
note_off channel=5 note=68 velocity=64 time=120
note_on channel=5 note=66 velocity=80 time=0
note_off channel=5 note=66 velocity=64 time=120
note_on channel=5 note=68 velocity=80 time=0
note_off channel=5 note=68 velocity=64 time=240
note_on channel=5 note=64 velocity=80 time=0
note_off channel=5 note=64 velocity=64 time=240
note_on channel=5 note=66 velocity=80 time=0
note_off channel=5 note=66 velocity=64 time=240
note_on channel=5 note=68 velocity=80 time=0
note_off channel=5 note=68 velocity=64 time=240
note_on channel=5 note=69 velocity=80 time=0
note_off channel=5 note=69 velocity=64 time=240
note_on channel=5 note=66 velocity=80 time=0
note_off channel=5 note=66 velocity=64 time=240
note_on channel=5 note=69 velocity=80 time=0
note_off channel=5 note=69 velocity=64 time=240
note_on channel=5 note=68 velocity=80 time=0
note_off channel=5 note=68 velocity=64 time=120
note_on channel=5 note=69 velocity=80 time=0
note_off channel=5 note=69 velocity=64 time=120
note_on channel=5 note=71 velocity=80 time=0
note_off channel=5 note=71 velocity=64 time=240
note_on channel=5 note=64 velocity=80 time=0
note_off channel=5 note=64 velocity=64 time=240
note_on channel=5 note=71 velocity=80 time=0
note_off channel=5 note=71 velocity=64 time=240
note_on channel=5 note=69 velocity=80 time=0
note_off channel=5 note=69 velocity=64 time=120
note_on channel=5 note=71 velocity=80 time=0
note_off channel=5 note=71 velocity=64 time=120
note_on channel=5 note=73 velocity=80 time=0
note_off channel=5 note=73 velocity=64 time=240
note_on channel=5 note=66 velocity=80 time=0
note_off channel=5 note=66 velocity=64 time=240
note_on channel=5 note=73 velocity=80 time=0
note_off channel=5 note=73 velocity=64 time=240
note_on channel=5 note=71 velocity=80 time=0
note_off channel=5 note=71 velocity=64 time=120
note_on channel=5 note=69 velocity=80 time=0
note_off channel=5 note=69 velocity=64 time=120
note_on channel=5 note=71 velocity=80 time=0
note_off channel=5 note=71 velocity=64 time=240
note_on channel=5 note=68 velocity=80 time=0
note_off channel=5 note=68 velocity=64 time=240
note_on channel=5 note=64 velocity=80 time=0
note_off channel=5 note=64 velocity=64 time=240
note_on channel=5 note=68 velocity=80 time=0
note_off channel=5 note=68 velocity=64 time=240
note_on channel=5 note=66 velocity=80 time=0
note_off channel=5 note=66 velocity=64 time=1920
MetaMessage('end_of_track', time=0)
MetaMessage('track_name', name='A\x80A\xadA?', time=0)
program_change channel=2 program=48 time=0
note_on channel=2 note=49 velocity=80 time=30720
note_off channel=2 note=49 velocity=64 time=120
note_on channel=2 note=54 velocity=80 time=120
note_off channel=2 note=54 velocity=64 time=120
note_on channel=2 note=57 velocity=80 time=120
note_off channel=2 note=57 velocity=64 time=120
note_on channel=2 note=54 velocity=80 time=120
note_off channel=2 note=54 velocity=64 time=120
note_on channel=2 note=56 velocity=80 time=120
note_off channel=2 note=56 velocity=64 time=120
note_on channel=2 note=54 velocity=80 time=120
note_off channel=2 note=54 velocity=64 time=120
note_on channel=2 note=57 velocity=80 time=120
note_off channel=2 note=57 velocity=64 time=120
note_on channel=2 note=54 velocity=80 time=120
note_off channel=2 note=54 velocity=64 time=120
note_on channel=2 note=49 velocity=80 time=120
note_off channel=2 note=49 velocity=64 time=120
note_on channel=2 note=54 velocity=80 time=120
note_off channel=2 note=54 velocity=64 time=120
note_on channel=2 note=57 velocity=80 time=120
note_off channel=2 note=57 velocity=64 time=120
note_on channel=2 note=54 velocity=80 time=120
note_off channel=2 note=54 velocity=64 time=120
note_on channel=2 note=56 velocity=80 time=120
note_off channel=2 note=56 velocity=64 time=120
note_on channel=2 note=54 velocity=80 time=120
note_off channel=2 note=54 velocity=64 time=120
note_on channel=2 note=57 velocity=80 time=120
note_off channel=2 note=57 velocity=64 time=120
note_on channel=2 note=54 velocity=80 time=120
note_off channel=2 note=54 velocity=64 time=120
note_on channel=2 note=50 velocity=80 time=120
note_off channel=2 note=50 velocity=64 time=120
note_on channel=2 note=54 velocity=80 time=120
note_off channel=2 note=54 velocity=64 time=120
note_on channel=2 note=57 velocity=80 time=120
note_off channel=2 note=57 velocity=64 time=120
note_on channel=2 note=50 velocity=80 time=120
note_off channel=2 note=50 velocity=64 time=120
note_on channel=2 note=64 velocity=80 time=120
note_off channel=2 note=64 velocity=64 time=120
note_on channel=2 note=57 velocity=80 time=120
note_off channel=2 note=57 velocity=64 time=120
note_on channel=2 note=61 velocity=80 time=120
note_off channel=2 note=61 velocity=64 time=120
note_on channel=2 note=59 velocity=80 time=120
note_off channel=2 note=59 velocity=64 time=120
note_on channel=2 note=61 velocity=80 time=120
note_off channel=2 note=61 velocity=64 time=120
note_on channel=2 note=57 velocity=80 time=120
note_off channel=2 note=57 velocity=64 time=120
note_on channel=2 note=61 velocity=80 time=120
note_off channel=2 note=61 velocity=64 time=120
note_on channel=2 note=57 velocity=80 time=120
note_off channel=2 note=57 velocity=64 time=120
note_on channel=2 note=59 velocity=80 time=120
note_off channel=2 note=59 velocity=64 time=120
note_on channel=2 note=52 velocity=80 time=120
note_off channel=2 note=52 velocity=64 time=120
note_on channel=2 note=59 velocity=80 time=120
note_off channel=2 note=59 velocity=64 time=120
note_on channel=2 note=52 velocity=80 time=120
note_off channel=2 note=52 velocity=64 time=120
note_on channel=2 note=49 velocity=80 time=120
note_off channel=2 note=49 velocity=64 time=120
note_on channel=2 note=54 velocity=80 time=120
note_off channel=2 note=54 velocity=64 time=120
note_on channel=2 note=57 velocity=80 time=120
note_off channel=2 note=57 velocity=64 time=120
note_on channel=2 note=54 velocity=80 time=120
note_off channel=2 note=54 velocity=64 time=120
note_on channel=2 note=56 velocity=80 time=120
note_off channel=2 note=56 velocity=64 time=120
note_on channel=2 note=54 velocity=80 time=120
note_off channel=2 note=54 velocity=64 time=120
note_on channel=2 note=57 velocity=80 time=120
note_off channel=2 note=57 velocity=64 time=120
note_on channel=2 note=54 velocity=80 time=120
note_off channel=2 note=54 velocity=64 time=120
note_on channel=2 note=49 velocity=80 time=120
note_off channel=2 note=49 velocity=64 time=120
note_on channel=2 note=54 velocity=80 time=120
note_off channel=2 note=54 velocity=64 time=120
note_on channel=2 note=57 velocity=80 time=120
note_off channel=2 note=57 velocity=64 time=120
note_on channel=2 note=54 velocity=80 time=120
note_off channel=2 note=54 velocity=64 time=120
note_on channel=2 note=56 velocity=80 time=120
note_off channel=2 note=56 velocity=64 time=120
note_on channel=2 note=54 velocity=80 time=120
note_off channel=2 note=54 velocity=64 time=120
note_on channel=2 note=57 velocity=80 time=120
note_off channel=2 note=57 velocity=64 time=120
note_on channel=2 note=54 velocity=80 time=120
note_off channel=2 note=54 velocity=64 time=120
note_on channel=2 note=50 velocity=80 time=120
note_off channel=2 note=50 velocity=64 time=120
note_on channel=2 note=54 velocity=80 time=120
note_off channel=2 note=54 velocity=64 time=120
note_on channel=2 note=57 velocity=80 time=120
note_off channel=2 note=57 velocity=64 time=120
note_on channel=2 note=50 velocity=80 time=120
note_off channel=2 note=50 velocity=64 time=120
note_on channel=2 note=64 velocity=80 time=120
note_off channel=2 note=64 velocity=64 time=120
note_on channel=2 note=57 velocity=80 time=120
note_off channel=2 note=57 velocity=64 time=120
note_on channel=2 note=61 velocity=80 time=120
note_off channel=2 note=61 velocity=64 time=120
note_on channel=2 note=59 velocity=80 time=120
note_off channel=2 note=59 velocity=64 time=120
note_on channel=2 note=61 velocity=80 time=120
note_off channel=2 note=61 velocity=64 time=120
note_on channel=2 note=57 velocity=80 time=120
note_off channel=2 note=57 velocity=64 time=120
note_on channel=2 note=61 velocity=80 time=120
note_off channel=2 note=61 velocity=64 time=120
note_on channel=2 note=57 velocity=80 time=120
note_off channel=2 note=57 velocity=64 time=120
note_on channel=2 note=59 velocity=80 time=120
note_off channel=2 note=59 velocity=64 time=120
note_on channel=2 note=52 velocity=80 time=120
note_off channel=2 note=52 velocity=64 time=120
note_on channel=2 note=59 velocity=80 time=120
note_off channel=2 note=59 velocity=64 time=120
note_on channel=2 note=52 velocity=80 time=120
note_off channel=2 note=52 velocity=64 time=120
note_on channel=2 note=61 velocity=80 time=120
note_off channel=2 note=61 velocity=64 time=240
note_on channel=2 note=54 velocity=80 time=0
note_off channel=2 note=54 velocity=64 time=240
note_on channel=2 note=61 velocity=80 time=0
note_off channel=2 note=61 velocity=64 time=240
note_on channel=2 note=64 velocity=80 time=0
note_off channel=2 note=64 velocity=64 time=120
note_on channel=2 note=66 velocity=80 time=0
note_off channel=2 note=66 velocity=64 time=120
note_on channel=2 note=68 velocity=80 time=0
note_off channel=2 note=68 velocity=64 time=240
note_on channel=2 note=64 velocity=80 time=0
note_off channel=2 note=64 velocity=64 time=240
note_on channel=2 note=68 velocity=80 time=0
note_off channel=2 note=68 velocity=64 time=240
note_on channel=2 note=71 velocity=80 time=0
note_off channel=2 note=71 velocity=64 time=240
note_on channel=2 note=73 velocity=80 time=0
note_off channel=2 note=73 velocity=64 time=240
note_on channel=2 note=69 velocity=80 time=0
note_off channel=2 note=69 velocity=64 time=240
note_on channel=2 note=73 velocity=80 time=0
note_off channel=2 note=73 velocity=64 time=240
note_on channel=2 note=71 velocity=80 time=0
note_off channel=2 note=71 velocity=64 time=120
note_on channel=2 note=69 velocity=80 time=0
note_off channel=2 note=69 velocity=64 time=120
note_on channel=2 note=71 velocity=80 time=0
note_off channel=2 note=71 velocity=64 time=240
note_on channel=2 note=68 velocity=80 time=0
note_off channel=2 note=68 velocity=64 time=240
note_on channel=2 note=64 velocity=80 time=0
note_off channel=2 note=64 velocity=64 time=240
note_on channel=2 note=68 velocity=80 time=0
note_off channel=2 note=68 velocity=64 time=240
note_on channel=2 note=69 velocity=80 time=0
note_off channel=2 note=69 velocity=64 time=240
note_on channel=2 note=66 velocity=80 time=0
note_off channel=2 note=66 velocity=64 time=240
note_on channel=2 note=69 velocity=80 time=0
note_off channel=2 note=69 velocity=64 time=240
note_on channel=2 note=71 velocity=80 time=0
note_off channel=2 note=71 velocity=64 time=120
note_on channel=2 note=69 velocity=80 time=0
note_off channel=2 note=69 velocity=64 time=120
note_on channel=2 note=68 velocity=80 time=0
note_off channel=2 note=68 velocity=64 time=240
note_on channel=2 note=64 velocity=80 time=0
note_off channel=2 note=64 velocity=64 time=240
note_on channel=2 note=66 velocity=80 time=0
note_off channel=2 note=66 velocity=64 time=240
note_on channel=2 note=68 velocity=80 time=0
note_off channel=2 note=68 velocity=64 time=240
note_on channel=2 note=69 velocity=80 time=0
note_off channel=2 note=69 velocity=64 time=240
note_on channel=2 note=66 velocity=80 time=0
note_off channel=2 note=66 velocity=64 time=240
note_on channel=2 note=69 velocity=80 time=0
note_off channel=2 note=69 velocity=64 time=240
note_on channel=2 note=71 velocity=80 time=0
note_off channel=2 note=71 velocity=64 time=120
note_on channel=2 note=69 velocity=80 time=0
note_off channel=2 note=69 velocity=64 time=120
note_on channel=2 note=68 velocity=80 time=0
note_off channel=2 note=68 velocity=64 time=240
note_on channel=2 note=64 velocity=80 time=0
note_off channel=2 note=64 velocity=64 time=240
note_on channel=2 note=61 velocity=80 time=0
note_off channel=2 note=61 velocity=64 time=240
note_on channel=2 note=68 velocity=80 time=0
note_off channel=2 note=68 velocity=64 time=240
note_on channel=2 note=66 velocity=80 time=0
note_off channel=2 note=66 velocity=64 time=240
note_on channel=2 note=61 velocity=80 time=0
note_off channel=2 note=61 velocity=64 time=240
note_on channel=2 note=61 velocity=80 time=0
note_off channel=2 note=61 velocity=64 time=240
note_on channel=2 note=64 velocity=80 time=0
note_off channel=2 note=64 velocity=64 time=120
note_on channel=2 note=66 velocity=80 time=0
note_off channel=2 note=66 velocity=64 time=120
note_on channel=2 note=68 velocity=80 time=0
note_off channel=2 note=68 velocity=64 time=240
note_on channel=2 note=64 velocity=80 time=0
note_off channel=2 note=64 velocity=64 time=240
note_on channel=2 note=68 velocity=80 time=0
note_off channel=2 note=68 velocity=64 time=240
note_on channel=2 note=71 velocity=80 time=0
note_off channel=2 note=71 velocity=64 time=240
note_on channel=2 note=73 velocity=80 time=0
note_off channel=2 note=73 velocity=64 time=240
note_on channel=2 note=69 velocity=80 time=0
note_off channel=2 note=69 velocity=64 time=240
note_on channel=2 note=73 velocity=80 time=0
note_off channel=2 note=73 velocity=64 time=240
note_on channel=2 note=74 velocity=80 time=0
note_off channel=2 note=74 velocity=64 time=120
note_on channel=2 note=73 velocity=80 time=0
note_off channel=2 note=73 velocity=64 time=120
note_on channel=2 note=71 velocity=80 time=0
note_off channel=2 note=71 velocity=64 time=240
note_on channel=2 note=68 velocity=80 time=0
note_off channel=2 note=68 velocity=64 time=240
note_on channel=2 note=64 velocity=80 time=0
note_off channel=2 note=64 velocity=64 time=240
note_on channel=2 note=68 velocity=80 time=0
note_off channel=2 note=68 velocity=64 time=240
note_on channel=2 note=69 velocity=80 time=0
note_off channel=2 note=69 velocity=64 time=240
note_on channel=2 note=66 velocity=80 time=0
note_off channel=2 note=66 velocity=64 time=240
note_on channel=2 note=69 velocity=80 time=0
note_off channel=2 note=69 velocity=64 time=240
note_on channel=2 note=71 velocity=80 time=0
note_off channel=2 note=71 velocity=64 time=120
note_on channel=2 note=69 velocity=80 time=0
note_off channel=2 note=69 velocity=64 time=120
note_on channel=2 note=68 velocity=80 time=0
note_off channel=2 note=68 velocity=64 time=240
note_on channel=2 note=64 velocity=80 time=0
note_off channel=2 note=64 velocity=64 time=240
note_on channel=2 note=66 velocity=80 time=0
note_off channel=2 note=66 velocity=64 time=240
note_on channel=2 note=68 velocity=80 time=0
note_off channel=2 note=68 velocity=64 time=240
note_on channel=2 note=69 velocity=80 time=0
note_off channel=2 note=69 velocity=64 time=240
note_on channel=2 note=66 velocity=80 time=0
note_off channel=2 note=66 velocity=64 time=240
note_on channel=2 note=69 velocity=80 time=0
note_off channel=2 note=69 velocity=64 time=240
note_on channel=2 note=71 velocity=80 time=0
note_off channel=2 note=71 velocity=64 time=120
note_on channel=2 note=69 velocity=80 time=0
note_off channel=2 note=69 velocity=64 time=120
note_on channel=2 note=68 velocity=80 time=0
note_off channel=2 note=68 velocity=64 time=240
note_on channel=2 note=64 velocity=80 time=0
note_off channel=2 note=64 velocity=64 time=240
note_on channel=2 note=61 velocity=80 time=0
note_off channel=2 note=61 velocity=64 time=240
note_on channel=2 note=68 velocity=80 time=0
note_off channel=2 note=68 velocity=64 time=240
note_on channel=2 note=69 velocity=80 time=0
note_off channel=2 note=69 velocity=64 time=240
note_on channel=2 note=66 velocity=80 time=0
note_off channel=2 note=66 velocity=64 time=240
note_on channel=2 note=69 velocity=80 time=0
note_off channel=2 note=69 velocity=64 time=240
note_on channel=2 note=68 velocity=80 time=0
note_off channel=2 note=68 velocity=64 time=120
note_on channel=2 note=66 velocity=80 time=0
note_off channel=2 note=66 velocity=64 time=120
note_on channel=2 note=68 velocity=80 time=0
note_off channel=2 note=68 velocity=64 time=240
note_on channel=2 note=64 velocity=80 time=0
note_off channel=2 note=64 velocity=64 time=240
note_on channel=2 note=66 velocity=80 time=0
note_off channel=2 note=66 velocity=64 time=240
note_on channel=2 note=68 velocity=80 time=0
note_off channel=2 note=68 velocity=64 time=240
note_on channel=2 note=69 velocity=80 time=0
note_off channel=2 note=69 velocity=64 time=240
note_on channel=2 note=66 velocity=80 time=0
note_off channel=2 note=66 velocity=64 time=240
note_on channel=2 note=69 velocity=80 time=0
note_off channel=2 note=69 velocity=64 time=240
note_on channel=2 note=68 velocity=80 time=0
note_off channel=2 note=68 velocity=64 time=120
note_on channel=2 note=66 velocity=80 time=0
note_off channel=2 note=66 velocity=64 time=120
note_on channel=2 note=68 velocity=80 time=0
note_off channel=2 note=68 velocity=64 time=240
note_on channel=2 note=64 velocity=80 time=0
note_off channel=2 note=64 velocity=64 time=240
note_on channel=2 note=66 velocity=80 time=0
note_off channel=2 note=66 velocity=64 time=240
note_on channel=2 note=68 velocity=80 time=0
note_off channel=2 note=68 velocity=64 time=240
note_on channel=2 note=69 velocity=80 time=0
note_off channel=2 note=69 velocity=64 time=240
note_on channel=2 note=66 velocity=80 time=0
note_off channel=2 note=66 velocity=64 time=240
note_on channel=2 note=69 velocity=80 time=0
note_off channel=2 note=69 velocity=64 time=240
note_on channel=2 note=68 velocity=80 time=0
note_off channel=2 note=68 velocity=64 time=120
note_on channel=2 note=69 velocity=80 time=0
note_off channel=2 note=69 velocity=64 time=120
note_on channel=2 note=71 velocity=80 time=0
note_off channel=2 note=71 velocity=64 time=240
note_on channel=2 note=64 velocity=80 time=0
note_off channel=2 note=64 velocity=64 time=240
note_on channel=2 note=71 velocity=80 time=0
note_off channel=2 note=71 velocity=64 time=240
note_on channel=2 note=69 velocity=80 time=0
note_off channel=2 note=69 velocity=64 time=120
note_on channel=2 note=71 velocity=80 time=0
note_off channel=2 note=71 velocity=64 time=120
note_on channel=2 note=73 velocity=80 time=0
note_off channel=2 note=73 velocity=64 time=240
note_on channel=2 note=66 velocity=80 time=0
note_off channel=2 note=66 velocity=64 time=240
note_on channel=2 note=73 velocity=80 time=0
note_off channel=2 note=73 velocity=64 time=240
note_on channel=2 note=71 velocity=80 time=0
note_off channel=2 note=71 velocity=64 time=120
note_on channel=2 note=69 velocity=80 time=0
note_off channel=2 note=69 velocity=64 time=120
note_on channel=2 note=71 velocity=80 time=0
note_off channel=2 note=71 velocity=64 time=240
note_on channel=2 note=68 velocity=80 time=0
note_off channel=2 note=68 velocity=64 time=240
note_on channel=2 note=69 velocity=80 time=0
note_off channel=2 note=69 velocity=64 time=240
note_on channel=2 note=71 velocity=80 time=0
note_off channel=2 note=71 velocity=64 time=240
note_on channel=2 note=69 velocity=80 time=0
note_off channel=2 note=69 velocity=64 time=240
note_on channel=2 note=66 velocity=80 time=0
note_off channel=2 note=66 velocity=64 time=240
note_on channel=2 note=69 velocity=80 time=0
note_off channel=2 note=69 velocity=64 time=240
note_on channel=2 note=68 velocity=80 time=0
note_off channel=2 note=68 velocity=64 time=120
note_on channel=2 note=66 velocity=80 time=0
note_off channel=2 note=66 velocity=64 time=120
note_on channel=2 note=68 velocity=80 time=0
note_off channel=2 note=68 velocity=64 time=240
note_on channel=2 note=64 velocity=80 time=0
note_off channel=2 note=64 velocity=64 time=240
note_on channel=2 note=66 velocity=80 time=0
note_off channel=2 note=66 velocity=64 time=240
note_on channel=2 note=68 velocity=80 time=0
note_off channel=2 note=68 velocity=64 time=240
note_on channel=2 note=69 velocity=80 time=0
note_off channel=2 note=69 velocity=64 time=240
note_on channel=2 note=66 velocity=80 time=0
note_off channel=2 note=66 velocity=64 time=240
note_on channel=2 note=69 velocity=80 time=0
note_off channel=2 note=69 velocity=64 time=240
note_on channel=2 note=68 velocity=80 time=0
note_off channel=2 note=68 velocity=64 time=120
note_on channel=2 note=66 velocity=80 time=0
note_off channel=2 note=66 velocity=64 time=120
note_on channel=2 note=68 velocity=80 time=0
note_off channel=2 note=68 velocity=64 time=240
note_on channel=2 note=64 velocity=80 time=0
note_off channel=2 note=64 velocity=64 time=240
note_on channel=2 note=66 velocity=80 time=0
note_off channel=2 note=66 velocity=64 time=240
note_on channel=2 note=68 velocity=80 time=0
note_off channel=2 note=68 velocity=64 time=240
note_on channel=2 note=69 velocity=80 time=0
note_off channel=2 note=69 velocity=64 time=240
note_on channel=2 note=66 velocity=80 time=0
note_off channel=2 note=66 velocity=64 time=240
note_on channel=2 note=69 velocity=80 time=0
note_off channel=2 note=69 velocity=64 time=240
note_on channel=2 note=68 velocity=80 time=0
note_off channel=2 note=68 velocity=64 time=120
note_on channel=2 note=69 velocity=80 time=0
note_off channel=2 note=69 velocity=64 time=120
note_on channel=2 note=71 velocity=80 time=0
note_off channel=2 note=71 velocity=64 time=240
note_on channel=2 note=64 velocity=80 time=0
note_off channel=2 note=64 velocity=64 time=240
note_on channel=2 note=71 velocity=80 time=0
note_off channel=2 note=71 velocity=64 time=240
note_on channel=2 note=69 velocity=80 time=0
note_off channel=2 note=69 velocity=64 time=120
note_on channel=2 note=71 velocity=80 time=0
note_off channel=2 note=71 velocity=64 time=120
note_on channel=2 note=73 velocity=80 time=0
note_off channel=2 note=73 velocity=64 time=240
note_on channel=2 note=66 velocity=80 time=0
note_off channel=2 note=66 velocity=64 time=240
note_on channel=2 note=73 velocity=80 time=0
note_off channel=2 note=73 velocity=64 time=240
note_on channel=2 note=71 velocity=80 time=0
note_off channel=2 note=71 velocity=64 time=120
note_on channel=2 note=69 velocity=80 time=0
note_off channel=2 note=69 velocity=64 time=120
note_on channel=2 note=71 velocity=80 time=0
note_off channel=2 note=71 velocity=64 time=240
note_on channel=2 note=68 velocity=80 time=0
note_off channel=2 note=68 velocity=64 time=240
note_on channel=2 note=64 velocity=80 time=0
note_off channel=2 note=64 velocity=64 time=240
note_on channel=2 note=68 velocity=80 time=0
note_off channel=2 note=68 velocity=64 time=240
note_on channel=2 note=49 velocity=80 time=0
note_off channel=2 note=49 velocity=64 time=120
note_on channel=2 note=54 velocity=80 time=120
note_off channel=2 note=54 velocity=64 time=120
note_on channel=2 note=57 velocity=80 time=120
note_off channel=2 note=57 velocity=64 time=120
note_on channel=2 note=54 velocity=80 time=120
note_off channel=2 note=54 velocity=64 time=120
note_on channel=2 note=56 velocity=80 time=120
note_off channel=2 note=56 velocity=64 time=120
note_on channel=2 note=54 velocity=80 time=120
note_off channel=2 note=54 velocity=64 time=120
note_on channel=2 note=57 velocity=80 time=120
note_off channel=2 note=57 velocity=64 time=120
note_on channel=2 note=54 velocity=80 time=120
note_off channel=2 note=54 velocity=64 time=120
note_on channel=2 note=49 velocity=80 time=120
note_off channel=2 note=49 velocity=64 time=120
note_on channel=2 note=54 velocity=80 time=120
note_off channel=2 note=54 velocity=64 time=120
note_on channel=2 note=57 velocity=80 time=120
note_off channel=2 note=57 velocity=64 time=120
note_on channel=2 note=54 velocity=80 time=120
note_off channel=2 note=54 velocity=64 time=120
note_on channel=2 note=56 velocity=80 time=120
note_off channel=2 note=56 velocity=64 time=120
note_on channel=2 note=54 velocity=80 time=120
note_off channel=2 note=54 velocity=64 time=120
note_on channel=2 note=57 velocity=80 time=120
note_off channel=2 note=57 velocity=64 time=120
note_on channel=2 note=54 velocity=80 time=120
note_off channel=2 note=54 velocity=64 time=120
note_on channel=2 note=50 velocity=80 time=120
note_off channel=2 note=50 velocity=64 time=120
note_on channel=2 note=54 velocity=80 time=120
note_off channel=2 note=54 velocity=64 time=120
note_on channel=2 note=57 velocity=80 time=120
note_off channel=2 note=57 velocity=64 time=120
note_on channel=2 note=50 velocity=80 time=120
note_off channel=2 note=50 velocity=64 time=120
note_on channel=2 note=62 velocity=80 time=120
note_off channel=2 note=62 velocity=64 time=120
note_on channel=2 note=57 velocity=80 time=120
note_off channel=2 note=57 velocity=64 time=120
note_on channel=2 note=62 velocity=80 time=120
note_off channel=2 note=62 velocity=64 time=120
note_on channel=2 note=59 velocity=80 time=120
note_off channel=2 note=59 velocity=64 time=120
note_on channel=2 note=61 velocity=80 time=120
note_off channel=2 note=61 velocity=64 time=120
note_on channel=2 note=57 velocity=80 time=120
note_off channel=2 note=57 velocity=64 time=120
note_on channel=2 note=61 velocity=80 time=120
note_off channel=2 note=61 velocity=64 time=120
note_on channel=2 note=57 velocity=80 time=120
note_off channel=2 note=57 velocity=64 time=120
note_on channel=2 note=59 velocity=80 time=120
note_off channel=2 note=59 velocity=64 time=120
note_on channel=2 note=52 velocity=80 time=120
note_off channel=2 note=52 velocity=64 time=120
note_on channel=2 note=59 velocity=80 time=120
note_off channel=2 note=59 velocity=64 time=120
note_on channel=2 note=52 velocity=80 time=120
note_off channel=2 note=52 velocity=64 time=120
note_on channel=2 note=49 velocity=80 time=120
note_off channel=2 note=49 velocity=64 time=120
note_on channel=2 note=54 velocity=80 time=120
note_off channel=2 note=54 velocity=64 time=120
note_on channel=2 note=57 velocity=80 time=120
note_off channel=2 note=57 velocity=64 time=120
note_on channel=2 note=54 velocity=80 time=120
note_off channel=2 note=54 velocity=64 time=120
note_on channel=2 note=56 velocity=80 time=120
note_off channel=2 note=56 velocity=64 time=120
note_on channel=2 note=54 velocity=80 time=120
note_off channel=2 note=54 velocity=64 time=120
note_on channel=2 note=57 velocity=80 time=120
note_off channel=2 note=57 velocity=64 time=120
note_on channel=2 note=54 velocity=80 time=120
note_off channel=2 note=54 velocity=64 time=120
note_on channel=2 note=49 velocity=80 time=120
note_off channel=2 note=49 velocity=64 time=120
note_on channel=2 note=54 velocity=80 time=120
note_off channel=2 note=54 velocity=64 time=120
note_on channel=2 note=57 velocity=80 time=120
note_off channel=2 note=57 velocity=64 time=120
note_on channel=2 note=54 velocity=80 time=120
note_off channel=2 note=54 velocity=64 time=120
note_on channel=2 note=56 velocity=80 time=120
note_off channel=2 note=56 velocity=64 time=120
note_on channel=2 note=54 velocity=80 time=120
note_off channel=2 note=54 velocity=64 time=120
note_on channel=2 note=57 velocity=80 time=120
note_off channel=2 note=57 velocity=64 time=120
note_on channel=2 note=54 velocity=80 time=120
note_off channel=2 note=54 velocity=64 time=120
note_on channel=2 note=50 velocity=80 time=120
note_off channel=2 note=50 velocity=64 time=120
note_on channel=2 note=54 velocity=80 time=120
note_off channel=2 note=54 velocity=64 time=120
note_on channel=2 note=57 velocity=80 time=120
note_off channel=2 note=57 velocity=64 time=120
note_on channel=2 note=50 velocity=80 time=120
note_off channel=2 note=50 velocity=64 time=120
note_on channel=2 note=62 velocity=80 time=120
note_off channel=2 note=62 velocity=64 time=120
note_on channel=2 note=57 velocity=80 time=120
note_off channel=2 note=57 velocity=64 time=120
note_on channel=2 note=62 velocity=80 time=120
note_off channel=2 note=62 velocity=64 time=120
note_on channel=2 note=59 velocity=80 time=120
note_off channel=2 note=59 velocity=64 time=120
note_on channel=2 note=61 velocity=80 time=120
note_off channel=2 note=61 velocity=64 time=120
note_on channel=2 note=57 velocity=80 time=120
note_off channel=2 note=57 velocity=64 time=120
note_on channel=2 note=61 velocity=80 time=120
note_off channel=2 note=61 velocity=64 time=120
note_on channel=2 note=57 velocity=80 time=120
note_off channel=2 note=57 velocity=64 time=120
note_on channel=2 note=59 velocity=80 time=120
note_off channel=2 note=59 velocity=64 time=120
note_on channel=2 note=52 velocity=80 time=120
note_off channel=2 note=52 velocity=64 time=120
note_on channel=2 note=59 velocity=80 time=120
note_off channel=2 note=59 velocity=64 time=120
note_on channel=2 note=52 velocity=80 time=120
note_off channel=2 note=52 velocity=64 time=120
note_on channel=2 note=57 velocity=80 time=15480
note_off channel=2 note=57 velocity=64 time=240
note_on channel=2 note=54 velocity=80 time=0
note_off channel=2 note=54 velocity=64 time=240
note_on channel=2 note=56 velocity=80 time=0
note_off channel=2 note=56 velocity=64 time=240
note_on channel=2 note=57 velocity=80 time=0
note_off channel=2 note=57 velocity=64 time=240
note_on channel=2 note=59 velocity=80 time=0
note_off channel=2 note=59 velocity=64 time=240
note_on channel=2 note=56 velocity=80 time=0
note_off channel=2 note=56 velocity=64 time=240
note_on channel=2 note=57 velocity=80 time=0
note_off channel=2 note=57 velocity=64 time=240
note_on channel=2 note=59 velocity=80 time=0
note_off channel=2 note=59 velocity=64 time=240
note_on channel=2 note=61 velocity=80 time=0
note_off channel=2 note=61 velocity=64 time=240
note_on channel=2 note=57 velocity=80 time=0
note_off channel=2 note=57 velocity=64 time=240
note_on channel=2 note=62 velocity=80 time=0
note_off channel=2 note=62 velocity=64 time=240
note_on channel=2 note=57 velocity=80 time=0
note_off channel=2 note=57 velocity=64 time=240
note_on channel=2 note=61 velocity=80 time=0
note_off channel=2 note=61 velocity=64 time=240
note_on channel=2 note=57 velocity=80 time=0
note_off channel=2 note=57 velocity=64 time=240
note_on channel=2 note=59 velocity=80 time=0
note_off channel=2 note=59 velocity=64 time=240
note_on channel=2 note=56 velocity=80 time=0
note_off channel=2 note=56 velocity=64 time=240
note_on channel=2 note=57 velocity=80 time=0
note_off channel=2 note=57 velocity=64 time=240
note_on channel=2 note=54 velocity=80 time=0
note_off channel=2 note=54 velocity=64 time=240
note_on channel=2 note=56 velocity=80 time=0
note_off channel=2 note=56 velocity=64 time=240
note_on channel=2 note=57 velocity=80 time=0
note_off channel=2 note=57 velocity=64 time=240
note_on channel=2 note=59 velocity=80 time=0
note_off channel=2 note=59 velocity=64 time=240
note_on channel=2 note=56 velocity=80 time=0
note_off channel=2 note=56 velocity=64 time=240
note_on channel=2 note=57 velocity=80 time=0
note_off channel=2 note=57 velocity=64 time=240
note_on channel=2 note=59 velocity=80 time=0
note_off channel=2 note=59 velocity=64 time=240
note_on channel=2 note=61 velocity=80 time=0
note_off channel=2 note=61 velocity=64 time=240
note_on channel=2 note=57 velocity=80 time=0
note_off channel=2 note=57 velocity=64 time=240
note_on channel=2 note=62 velocity=80 time=0
note_off channel=2 note=62 velocity=64 time=240
note_on channel=2 note=57 velocity=80 time=0
note_off channel=2 note=57 velocity=64 time=240
note_on channel=2 note=61 velocity=80 time=0
note_off channel=2 note=61 velocity=64 time=240
note_on channel=2 note=57 velocity=80 time=0
note_off channel=2 note=57 velocity=64 time=240
note_on channel=2 note=59 velocity=80 time=0
note_off channel=2 note=59 velocity=64 time=240
note_on channel=2 note=56 velocity=80 time=0
note_off channel=2 note=56 velocity=64 time=240
note_on channel=2 note=61 velocity=80 time=0
note_off channel=2 note=61 velocity=64 time=240
note_on channel=2 note=57 velocity=80 time=0
note_off channel=2 note=57 velocity=64 time=240
note_on channel=2 note=59 velocity=80 time=0
note_off channel=2 note=59 velocity=64 time=240
note_on channel=2 note=61 velocity=80 time=0
note_off channel=2 note=61 velocity=64 time=240
note_on channel=2 note=62 velocity=80 time=0
note_off channel=2 note=62 velocity=64 time=240
note_on channel=2 note=59 velocity=80 time=0
note_off channel=2 note=59 velocity=64 time=240
note_on channel=2 note=61 velocity=80 time=0
note_off channel=2 note=61 velocity=64 time=240
note_on channel=2 note=62 velocity=80 time=0
note_off channel=2 note=62 velocity=64 time=240
note_on channel=2 note=64 velocity=80 time=0
note_off channel=2 note=64 velocity=64 time=240
note_on channel=2 note=61 velocity=80 time=0
note_off channel=2 note=61 velocity=64 time=240
note_on channel=2 note=66 velocity=80 time=0
note_off channel=2 note=66 velocity=64 time=240
note_on channel=2 note=61 velocity=80 time=0
note_off channel=2 note=61 velocity=64 time=240
note_on channel=2 note=64 velocity=80 time=0
note_off channel=2 note=64 velocity=64 time=240
note_on channel=2 note=61 velocity=80 time=0
note_off channel=2 note=61 velocity=64 time=240
note_on channel=2 note=62 velocity=80 time=0
note_off channel=2 note=62 velocity=64 time=240
note_on channel=2 note=59 velocity=80 time=0
note_off channel=2 note=59 velocity=64 time=240
note_on channel=2 note=61 velocity=80 time=0
note_off channel=2 note=61 velocity=64 time=240
note_on channel=2 note=57 velocity=80 time=0
note_off channel=2 note=57 velocity=64 time=240
note_on channel=2 note=59 velocity=80 time=0
note_off channel=2 note=59 velocity=64 time=240
note_on channel=2 note=61 velocity=80 time=0
note_off channel=2 note=61 velocity=64 time=240
note_on channel=2 note=62 velocity=80 time=0
note_off channel=2 note=62 velocity=64 time=240
note_on channel=2 note=59 velocity=80 time=0
note_off channel=2 note=59 velocity=64 time=240
note_on channel=2 note=61 velocity=80 time=0
note_off channel=2 note=61 velocity=64 time=240
note_on channel=2 note=62 velocity=80 time=0
note_off channel=2 note=62 velocity=64 time=240
note_on channel=2 note=64 velocity=80 time=0
note_off channel=2 note=64 velocity=64 time=240
note_on channel=2 note=61 velocity=80 time=0
note_off channel=2 note=61 velocity=64 time=240
note_on channel=2 note=66 velocity=80 time=0
note_off channel=2 note=66 velocity=64 time=240
note_on channel=2 note=61 velocity=80 time=0
note_off channel=2 note=61 velocity=64 time=240
note_on channel=2 note=64 velocity=80 time=0
note_off channel=2 note=64 velocity=64 time=240
note_on channel=2 note=61 velocity=80 time=0
note_off channel=2 note=61 velocity=64 time=240
note_on channel=2 note=62 velocity=80 time=0
note_off channel=2 note=62 velocity=64 time=240
note_on channel=2 note=59 velocity=80 time=0
note_off channel=2 note=59 velocity=64 time=240
note_on channel=2 note=57 velocity=80 time=0
note_off channel=2 note=57 velocity=64 time=240
note_on channel=2 note=54 velocity=80 time=0
note_off channel=2 note=54 velocity=64 time=240
note_on channel=2 note=56 velocity=80 time=0
note_off channel=2 note=56 velocity=64 time=240
note_on channel=2 note=57 velocity=80 time=0
note_off channel=2 note=57 velocity=64 time=240
note_on channel=2 note=59 velocity=80 time=0
note_off channel=2 note=59 velocity=64 time=240
note_on channel=2 note=56 velocity=80 time=0
note_off channel=2 note=56 velocity=64 time=240
note_on channel=2 note=57 velocity=80 time=0
note_off channel=2 note=57 velocity=64 time=240
note_on channel=2 note=59 velocity=80 time=0
note_off channel=2 note=59 velocity=64 time=240
note_on channel=2 note=61 velocity=80 time=0
note_off channel=2 note=61 velocity=64 time=240
note_on channel=2 note=57 velocity=80 time=0
note_off channel=2 note=57 velocity=64 time=240
note_on channel=2 note=62 velocity=80 time=0
note_off channel=2 note=62 velocity=64 time=240
note_on channel=2 note=57 velocity=80 time=0
note_off channel=2 note=57 velocity=64 time=240
note_on channel=2 note=61 velocity=80 time=0
note_off channel=2 note=61 velocity=64 time=240
note_on channel=2 note=57 velocity=80 time=0
note_off channel=2 note=57 velocity=64 time=240
note_on channel=2 note=59 velocity=80 time=0
note_off channel=2 note=59 velocity=64 time=240
note_on channel=2 note=56 velocity=80 time=0
note_off channel=2 note=56 velocity=64 time=240
note_on channel=2 note=57 velocity=80 time=0
note_off channel=2 note=57 velocity=64 time=240
note_on channel=2 note=54 velocity=80 time=0
note_off channel=2 note=54 velocity=64 time=240
note_on channel=2 note=56 velocity=80 time=0
note_off channel=2 note=56 velocity=64 time=240
note_on channel=2 note=57 velocity=80 time=0
note_off channel=2 note=57 velocity=64 time=240
note_on channel=2 note=59 velocity=80 time=0
note_off channel=2 note=59 velocity=64 time=240
note_on channel=2 note=56 velocity=80 time=0
note_off channel=2 note=56 velocity=64 time=240
note_on channel=2 note=57 velocity=80 time=0
note_off channel=2 note=57 velocity=64 time=240
note_on channel=2 note=59 velocity=80 time=0
note_off channel=2 note=59 velocity=64 time=240
note_on channel=2 note=61 velocity=80 time=0
note_off channel=2 note=61 velocity=64 time=240
note_on channel=2 note=57 velocity=80 time=0
note_off channel=2 note=57 velocity=64 time=240
note_on channel=2 note=62 velocity=80 time=0
note_off channel=2 note=62 velocity=64 time=240
note_on channel=2 note=57 velocity=80 time=0
note_off channel=2 note=57 velocity=64 time=240
note_on channel=2 note=61 velocity=80 time=0
note_off channel=2 note=61 velocity=64 time=240
note_on channel=2 note=57 velocity=80 time=0
note_off channel=2 note=57 velocity=64 time=240
note_on channel=2 note=59 velocity=80 time=0
note_off channel=2 note=59 velocity=64 time=240
note_on channel=2 note=56 velocity=80 time=0
note_off channel=2 note=56 velocity=64 time=240
note_on channel=2 note=61 velocity=80 time=0
note_off channel=2 note=61 velocity=64 time=240
note_on channel=2 note=57 velocity=80 time=0
note_off channel=2 note=57 velocity=64 time=240
note_on channel=2 note=59 velocity=80 time=0
note_off channel=2 note=59 velocity=64 time=240
note_on channel=2 note=61 velocity=80 time=0
note_off channel=2 note=61 velocity=64 time=240
note_on channel=2 note=62 velocity=80 time=0
note_off channel=2 note=62 velocity=64 time=240
note_on channel=2 note=59 velocity=80 time=0
note_off channel=2 note=59 velocity=64 time=240
note_on channel=2 note=61 velocity=80 time=0
note_off channel=2 note=61 velocity=64 time=240
note_on channel=2 note=62 velocity=80 time=0
note_off channel=2 note=62 velocity=64 time=240
note_on channel=2 note=64 velocity=80 time=0
note_off channel=2 note=64 velocity=64 time=240
note_on channel=2 note=61 velocity=80 time=0
note_off channel=2 note=61 velocity=64 time=240
note_on channel=2 note=66 velocity=80 time=0
note_off channel=2 note=66 velocity=64 time=240
note_on channel=2 note=61 velocity=80 time=0
note_off channel=2 note=61 velocity=64 time=240
note_on channel=2 note=64 velocity=80 time=0
note_off channel=2 note=64 velocity=64 time=240
note_on channel=2 note=61 velocity=80 time=0
note_off channel=2 note=61 velocity=64 time=240
note_on channel=2 note=62 velocity=80 time=0
note_off channel=2 note=62 velocity=64 time=240
note_on channel=2 note=59 velocity=80 time=0
note_off channel=2 note=59 velocity=64 time=240
note_on channel=2 note=61 velocity=80 time=0
note_off channel=2 note=61 velocity=64 time=240
note_on channel=2 note=57 velocity=80 time=0
note_off channel=2 note=57 velocity=64 time=240
note_on channel=2 note=59 velocity=80 time=0
note_off channel=2 note=59 velocity=64 time=240
note_on channel=2 note=61 velocity=80 time=0
note_off channel=2 note=61 velocity=64 time=240
note_on channel=2 note=62 velocity=80 time=0
note_off channel=2 note=62 velocity=64 time=240
note_on channel=2 note=59 velocity=80 time=0
note_off channel=2 note=59 velocity=64 time=240
note_on channel=2 note=61 velocity=80 time=0
note_off channel=2 note=61 velocity=64 time=240
note_on channel=2 note=62 velocity=80 time=0
note_off channel=2 note=62 velocity=64 time=240
note_on channel=2 note=64 velocity=80 time=0
note_off channel=2 note=64 velocity=64 time=240
note_on channel=2 note=61 velocity=80 time=0
note_off channel=2 note=61 velocity=64 time=240
note_on channel=2 note=66 velocity=80 time=0
note_off channel=2 note=66 velocity=64 time=240
note_on channel=2 note=61 velocity=80 time=0
note_off channel=2 note=61 velocity=64 time=240
note_on channel=2 note=64 velocity=80 time=0
note_off channel=2 note=64 velocity=64 time=240
note_on channel=2 note=61 velocity=80 time=0
note_off channel=2 note=61 velocity=64 time=240
note_on channel=2 note=62 velocity=80 time=0
note_off channel=2 note=62 velocity=64 time=240
note_on channel=2 note=59 velocity=80 time=0
note_off channel=2 note=59 velocity=64 time=240
note_on channel=2 note=61 velocity=80 time=0
note_off channel=2 note=61 velocity=64 time=240
note_on channel=2 note=54 velocity=80 time=0
note_off channel=2 note=54 velocity=64 time=240
note_on channel=2 note=61 velocity=80 time=0
note_off channel=2 note=61 velocity=64 time=240
note_on channel=2 note=64 velocity=80 time=0
note_off channel=2 note=64 velocity=64 time=120
note_on channel=2 note=66 velocity=80 time=0
note_off channel=2 note=66 velocity=64 time=120
note_on channel=2 note=68 velocity=80 time=0
note_off channel=2 note=68 velocity=64 time=240
note_on channel=2 note=64 velocity=80 time=0
note_off channel=2 note=64 velocity=64 time=240
note_on channel=2 note=68 velocity=80 time=0
note_off channel=2 note=68 velocity=64 time=240
note_on channel=2 note=71 velocity=80 time=0
note_off channel=2 note=71 velocity=64 time=240
note_on channel=2 note=73 velocity=80 time=0
note_off channel=2 note=73 velocity=64 time=240
note_on channel=2 note=69 velocity=80 time=0
note_off channel=2 note=69 velocity=64 time=240
note_on channel=2 note=73 velocity=80 time=0
note_off channel=2 note=73 velocity=64 time=240
note_on channel=2 note=71 velocity=80 time=0
note_off channel=2 note=71 velocity=64 time=120
note_on channel=2 note=69 velocity=80 time=0
note_off channel=2 note=69 velocity=64 time=120
note_on channel=2 note=71 velocity=80 time=0
note_off channel=2 note=71 velocity=64 time=240
note_on channel=2 note=68 velocity=80 time=0
note_off channel=2 note=68 velocity=64 time=240
note_on channel=2 note=64 velocity=80 time=0
note_off channel=2 note=64 velocity=64 time=240
note_on channel=2 note=68 velocity=80 time=0
note_off channel=2 note=68 velocity=64 time=240
note_on channel=2 note=69 velocity=80 time=0
note_off channel=2 note=69 velocity=64 time=240
note_on channel=2 note=66 velocity=80 time=0
note_off channel=2 note=66 velocity=64 time=240
note_on channel=2 note=69 velocity=80 time=0
note_off channel=2 note=69 velocity=64 time=240
note_on channel=2 note=71 velocity=80 time=0
note_off channel=2 note=71 velocity=64 time=120
note_on channel=2 note=69 velocity=80 time=0
note_off channel=2 note=69 velocity=64 time=120
note_on channel=2 note=68 velocity=80 time=0
note_off channel=2 note=68 velocity=64 time=240
note_on channel=2 note=64 velocity=80 time=0
note_off channel=2 note=64 velocity=64 time=240
note_on channel=2 note=66 velocity=80 time=0
note_off channel=2 note=66 velocity=64 time=240
note_on channel=2 note=68 velocity=80 time=0
note_off channel=2 note=68 velocity=64 time=240
note_on channel=2 note=69 velocity=80 time=0
note_off channel=2 note=69 velocity=64 time=240
note_on channel=2 note=66 velocity=80 time=0
note_off channel=2 note=66 velocity=64 time=240
note_on channel=2 note=69 velocity=80 time=0
note_off channel=2 note=69 velocity=64 time=240
note_on channel=2 note=71 velocity=80 time=0
note_off channel=2 note=71 velocity=64 time=120
note_on channel=2 note=69 velocity=80 time=0
note_off channel=2 note=69 velocity=64 time=120
note_on channel=2 note=68 velocity=80 time=0
note_off channel=2 note=68 velocity=64 time=240
note_on channel=2 note=64 velocity=80 time=0
note_off channel=2 note=64 velocity=64 time=240
note_on channel=2 note=61 velocity=80 time=0
note_off channel=2 note=61 velocity=64 time=240
note_on channel=2 note=68 velocity=80 time=0
note_off channel=2 note=68 velocity=64 time=240
note_on channel=2 note=66 velocity=80 time=0
note_off channel=2 note=66 velocity=64 time=240
note_on channel=2 note=61 velocity=80 time=0
note_off channel=2 note=61 velocity=64 time=240
note_on channel=2 note=61 velocity=80 time=0
note_off channel=2 note=61 velocity=64 time=240
note_on channel=2 note=64 velocity=80 time=0
note_off channel=2 note=64 velocity=64 time=120
note_on channel=2 note=66 velocity=80 time=0
note_off channel=2 note=66 velocity=64 time=120
note_on channel=2 note=68 velocity=80 time=0
note_off channel=2 note=68 velocity=64 time=240
note_on channel=2 note=64 velocity=80 time=0
note_off channel=2 note=64 velocity=64 time=240
note_on channel=2 note=68 velocity=80 time=0
note_off channel=2 note=68 velocity=64 time=240
note_on channel=2 note=71 velocity=80 time=0
note_off channel=2 note=71 velocity=64 time=240
note_on channel=2 note=73 velocity=80 time=0
note_off channel=2 note=73 velocity=64 time=240
note_on channel=2 note=69 velocity=80 time=0
note_off channel=2 note=69 velocity=64 time=240
note_on channel=2 note=73 velocity=80 time=0
note_off channel=2 note=73 velocity=64 time=240
note_on channel=2 note=74 velocity=80 time=0
note_off channel=2 note=74 velocity=64 time=120
note_on channel=2 note=73 velocity=80 time=0
note_off channel=2 note=73 velocity=64 time=120
note_on channel=2 note=71 velocity=80 time=0
note_off channel=2 note=71 velocity=64 time=240
note_on channel=2 note=68 velocity=80 time=0
note_off channel=2 note=68 velocity=64 time=240
note_on channel=2 note=64 velocity=80 time=0
note_off channel=2 note=64 velocity=64 time=240
note_on channel=2 note=68 velocity=80 time=0
note_off channel=2 note=68 velocity=64 time=240
note_on channel=2 note=69 velocity=80 time=0
note_off channel=2 note=69 velocity=64 time=240
note_on channel=2 note=66 velocity=80 time=0
note_off channel=2 note=66 velocity=64 time=240
note_on channel=2 note=69 velocity=80 time=0
note_off channel=2 note=69 velocity=64 time=240
note_on channel=2 note=71 velocity=80 time=0
note_off channel=2 note=71 velocity=64 time=120
note_on channel=2 note=69 velocity=80 time=0
note_off channel=2 note=69 velocity=64 time=120
note_on channel=2 note=68 velocity=80 time=0
note_off channel=2 note=68 velocity=64 time=240
note_on channel=2 note=64 velocity=80 time=0
note_off channel=2 note=64 velocity=64 time=240
note_on channel=2 note=66 velocity=80 time=0
note_off channel=2 note=66 velocity=64 time=240
note_on channel=2 note=68 velocity=80 time=0
note_off channel=2 note=68 velocity=64 time=240
note_on channel=2 note=69 velocity=80 time=0
note_off channel=2 note=69 velocity=64 time=240
note_on channel=2 note=66 velocity=80 time=0
note_off channel=2 note=66 velocity=64 time=240
note_on channel=2 note=69 velocity=80 time=0
note_off channel=2 note=69 velocity=64 time=240
note_on channel=2 note=71 velocity=80 time=0
note_off channel=2 note=71 velocity=64 time=120
note_on channel=2 note=69 velocity=80 time=0
note_off channel=2 note=69 velocity=64 time=120
note_on channel=2 note=68 velocity=80 time=0
note_off channel=2 note=68 velocity=64 time=240
note_on channel=2 note=64 velocity=80 time=0
note_off channel=2 note=64 velocity=64 time=240
note_on channel=2 note=61 velocity=80 time=0
note_off channel=2 note=61 velocity=64 time=240
note_on channel=2 note=68 velocity=80 time=0
note_off channel=2 note=68 velocity=64 time=240
note_on channel=2 note=69 velocity=80 time=0
note_off channel=2 note=69 velocity=64 time=240
note_on channel=2 note=66 velocity=80 time=0
note_off channel=2 note=66 velocity=64 time=240
note_on channel=2 note=69 velocity=80 time=0
note_off channel=2 note=69 velocity=64 time=240
note_on channel=2 note=68 velocity=80 time=0
note_off channel=2 note=68 velocity=64 time=120
note_on channel=2 note=66 velocity=80 time=0
note_off channel=2 note=66 velocity=64 time=120
note_on channel=2 note=68 velocity=80 time=0
note_off channel=2 note=68 velocity=64 time=240
note_on channel=2 note=64 velocity=80 time=0
note_off channel=2 note=64 velocity=64 time=240
note_on channel=2 note=66 velocity=80 time=0
note_off channel=2 note=66 velocity=64 time=240
note_on channel=2 note=68 velocity=80 time=0
note_off channel=2 note=68 velocity=64 time=240
note_on channel=2 note=69 velocity=80 time=0
note_off channel=2 note=69 velocity=64 time=240
note_on channel=2 note=66 velocity=80 time=0
note_off channel=2 note=66 velocity=64 time=240
note_on channel=2 note=69 velocity=80 time=0
note_off channel=2 note=69 velocity=64 time=240
note_on channel=2 note=68 velocity=80 time=0
note_off channel=2 note=68 velocity=64 time=120
note_on channel=2 note=66 velocity=80 time=0
note_off channel=2 note=66 velocity=64 time=120
note_on channel=2 note=68 velocity=80 time=0
note_off channel=2 note=68 velocity=64 time=240
note_on channel=2 note=64 velocity=80 time=0
note_off channel=2 note=64 velocity=64 time=240
note_on channel=2 note=66 velocity=80 time=0
note_off channel=2 note=66 velocity=64 time=240
note_on channel=2 note=68 velocity=80 time=0
note_off channel=2 note=68 velocity=64 time=240
note_on channel=2 note=69 velocity=80 time=0
note_off channel=2 note=69 velocity=64 time=240
note_on channel=2 note=66 velocity=80 time=0
note_off channel=2 note=66 velocity=64 time=240
note_on channel=2 note=69 velocity=80 time=0
note_off channel=2 note=69 velocity=64 time=240
note_on channel=2 note=68 velocity=80 time=0
note_off channel=2 note=68 velocity=64 time=120
note_on channel=2 note=69 velocity=80 time=0
note_off channel=2 note=69 velocity=64 time=120
note_on channel=2 note=71 velocity=80 time=0
note_off channel=2 note=71 velocity=64 time=240
note_on channel=2 note=64 velocity=80 time=0
note_off channel=2 note=64 velocity=64 time=240
note_on channel=2 note=71 velocity=80 time=0
note_off channel=2 note=71 velocity=64 time=240
note_on channel=2 note=69 velocity=80 time=0
note_off channel=2 note=69 velocity=64 time=120
note_on channel=2 note=71 velocity=80 time=0
note_off channel=2 note=71 velocity=64 time=120
note_on channel=2 note=73 velocity=80 time=0
note_off channel=2 note=73 velocity=64 time=240
note_on channel=2 note=66 velocity=80 time=0
note_off channel=2 note=66 velocity=64 time=240
note_on channel=2 note=73 velocity=80 time=0
note_off channel=2 note=73 velocity=64 time=240
note_on channel=2 note=71 velocity=80 time=0
note_off channel=2 note=71 velocity=64 time=120
note_on channel=2 note=69 velocity=80 time=0
note_off channel=2 note=69 velocity=64 time=120
note_on channel=2 note=71 velocity=80 time=0
note_off channel=2 note=71 velocity=64 time=240
note_on channel=2 note=68 velocity=80 time=0
note_off channel=2 note=68 velocity=64 time=240
note_on channel=2 note=69 velocity=80 time=0
note_off channel=2 note=69 velocity=64 time=240
note_on channel=2 note=71 velocity=80 time=0
note_off channel=2 note=71 velocity=64 time=240
note_on channel=2 note=69 velocity=80 time=0
note_off channel=2 note=69 velocity=64 time=240
note_on channel=2 note=66 velocity=80 time=0
note_off channel=2 note=66 velocity=64 time=240
note_on channel=2 note=69 velocity=80 time=0
note_off channel=2 note=69 velocity=64 time=240
note_on channel=2 note=68 velocity=80 time=0
note_off channel=2 note=68 velocity=64 time=120
note_on channel=2 note=66 velocity=80 time=0
note_off channel=2 note=66 velocity=64 time=120
note_on channel=2 note=68 velocity=80 time=0
note_off channel=2 note=68 velocity=64 time=240
note_on channel=2 note=64 velocity=80 time=0
note_off channel=2 note=64 velocity=64 time=240
note_on channel=2 note=66 velocity=80 time=0
note_off channel=2 note=66 velocity=64 time=240
note_on channel=2 note=68 velocity=80 time=0
note_off channel=2 note=68 velocity=64 time=240
note_on channel=2 note=69 velocity=80 time=0
note_off channel=2 note=69 velocity=64 time=240
note_on channel=2 note=66 velocity=80 time=0
note_off channel=2 note=66 velocity=64 time=240
note_on channel=2 note=69 velocity=80 time=0
note_off channel=2 note=69 velocity=64 time=240
note_on channel=2 note=68 velocity=80 time=0
note_off channel=2 note=68 velocity=64 time=120
note_on channel=2 note=66 velocity=80 time=0
note_off channel=2 note=66 velocity=64 time=120
note_on channel=2 note=68 velocity=80 time=0
note_off channel=2 note=68 velocity=64 time=240
note_on channel=2 note=64 velocity=80 time=0
note_off channel=2 note=64 velocity=64 time=240
note_on channel=2 note=66 velocity=80 time=0
note_off channel=2 note=66 velocity=64 time=240
note_on channel=2 note=68 velocity=80 time=0
note_off channel=2 note=68 velocity=64 time=240
note_on channel=2 note=69 velocity=80 time=0
note_off channel=2 note=69 velocity=64 time=240
note_on channel=2 note=66 velocity=80 time=0
note_off channel=2 note=66 velocity=64 time=240
note_on channel=2 note=69 velocity=80 time=0
note_off channel=2 note=69 velocity=64 time=240
note_on channel=2 note=68 velocity=80 time=0
note_off channel=2 note=68 velocity=64 time=120
note_on channel=2 note=69 velocity=80 time=0
note_off channel=2 note=69 velocity=64 time=120
note_on channel=2 note=71 velocity=80 time=0
note_off channel=2 note=71 velocity=64 time=240
note_on channel=2 note=64 velocity=80 time=0
note_off channel=2 note=64 velocity=64 time=240
note_on channel=2 note=71 velocity=80 time=0
note_off channel=2 note=71 velocity=64 time=240
note_on channel=2 note=69 velocity=80 time=0
note_off channel=2 note=69 velocity=64 time=120
note_on channel=2 note=71 velocity=80 time=0
note_off channel=2 note=71 velocity=64 time=120
note_on channel=2 note=73 velocity=80 time=0
note_off channel=2 note=73 velocity=64 time=240
note_on channel=2 note=66 velocity=80 time=0
note_off channel=2 note=66 velocity=64 time=240
note_on channel=2 note=73 velocity=80 time=0
note_off channel=2 note=73 velocity=64 time=240
note_on channel=2 note=71 velocity=80 time=0
note_off channel=2 note=71 velocity=64 time=120
note_on channel=2 note=69 velocity=80 time=0
note_off channel=2 note=69 velocity=64 time=120
note_on channel=2 note=71 velocity=80 time=0
note_off channel=2 note=71 velocity=64 time=240
note_on channel=2 note=68 velocity=80 time=0
note_off channel=2 note=68 velocity=64 time=240
note_on channel=2 note=64 velocity=80 time=0
note_off channel=2 note=64 velocity=64 time=240
note_on channel=2 note=68 velocity=80 time=0
note_off channel=2 note=68 velocity=64 time=240
note_on channel=2 note=66 velocity=80 time=0
note_off channel=2 note=66 velocity=64 time=1920
MetaMessage('end_of_track', time=0)
MetaMessage('track_name', name='A\x88A«A1A?', time=0)
program_change channel=4 program=48 time=0
note_on channel=4 note=73 velocity=80 time=30720
note_on channel=4 note=69 velocity=80 time=0
note_on channel=4 note=66 velocity=80 time=0
note_on channel=4 note=54 velocity=80 time=0
note_off channel=4 note=73 velocity=64 time=120
note_off channel=4 note=69 velocity=64 time=0
note_off channel=4 note=66 velocity=64 time=0
note_off channel=4 note=54 velocity=64 time=0
note_on channel=4 note=73 velocity=80 time=120
note_on channel=4 note=69 velocity=80 time=0
note_on channel=4 note=66 velocity=80 time=0
note_on channel=4 note=54 velocity=80 time=0
note_off channel=4 note=73 velocity=64 time=120
note_off channel=4 note=69 velocity=64 time=0
note_off channel=4 note=66 velocity=64 time=0
note_off channel=4 note=54 velocity=64 time=0
note_on channel=4 note=73 velocity=80 time=1560
note_on channel=4 note=69 velocity=80 time=0
note_on channel=4 note=66 velocity=80 time=0
note_on channel=4 note=54 velocity=80 time=0
note_off channel=4 note=73 velocity=64 time=120
note_off channel=4 note=69 velocity=64 time=0
note_off channel=4 note=66 velocity=64 time=0
note_off channel=4 note=54 velocity=64 time=0
note_on channel=4 note=73 velocity=80 time=120
note_on channel=4 note=69 velocity=80 time=0
note_on channel=4 note=66 velocity=80 time=0
note_on channel=4 note=54 velocity=80 time=0
note_off channel=4 note=73 velocity=64 time=120
note_off channel=4 note=69 velocity=64 time=0
note_off channel=4 note=66 velocity=64 time=0
note_off channel=4 note=54 velocity=64 time=0
note_on channel=4 note=73 velocity=80 time=1080
note_on channel=4 note=57 velocity=80 time=0
note_off channel=4 note=73 velocity=64 time=480
note_off channel=4 note=57 velocity=64 time=0
note_on channel=4 note=74 velocity=80 time=0
note_on channel=4 note=69 velocity=80 time=0
note_on channel=4 note=66 velocity=80 time=0
note_on channel=4 note=62 velocity=80 time=0
note_off channel=4 note=74 velocity=64 time=240
note_off channel=4 note=69 velocity=64 time=0
note_off channel=4 note=66 velocity=64 time=0
note_off channel=4 note=62 velocity=64 time=0
note_on channel=4 note=74 velocity=80 time=240
note_on channel=4 note=69 velocity=80 time=0
note_on channel=4 note=66 velocity=80 time=0
note_on channel=4 note=62 velocity=80 time=0
note_off channel=4 note=74 velocity=64 time=240
note_off channel=4 note=69 velocity=64 time=0
note_off channel=4 note=66 velocity=64 time=0
note_off channel=4 note=62 velocity=64 time=0
note_on channel=4 note=73 velocity=80 time=1200
note_on channel=4 note=69 velocity=80 time=0
note_on channel=4 note=64 velocity=80 time=0
note_off channel=4 note=73 velocity=64 time=240
note_off channel=4 note=69 velocity=64 time=0
note_off channel=4 note=64 velocity=64 time=0
note_on channel=4 note=57 velocity=80 time=0
note_off channel=4 note=57 velocity=64 time=240
note_on channel=4 note=73 velocity=80 time=0
note_on channel=4 note=69 velocity=80 time=0
note_on channel=4 note=64 velocity=80 time=0
note_off channel=4 note=73 velocity=64 time=240
note_off channel=4 note=69 velocity=64 time=0
note_off channel=4 note=64 velocity=64 time=0
note_on channel=4 note=57 velocity=80 time=0
note_off channel=4 note=57 velocity=64 time=240
note_on channel=4 note=71 velocity=80 time=0
note_on channel=4 note=68 velocity=80 time=0
note_on channel=4 note=64 velocity=80 time=0
note_off channel=4 note=71 velocity=64 time=240
note_off channel=4 note=68 velocity=64 time=0
note_off channel=4 note=64 velocity=64 time=0
note_on channel=4 note=56 velocity=80 time=0
note_off channel=4 note=56 velocity=64 time=240
note_on channel=4 note=71 velocity=80 time=0
note_on channel=4 note=68 velocity=80 time=0
note_on channel=4 note=64 velocity=80 time=0
note_off channel=4 note=71 velocity=64 time=240
note_off channel=4 note=68 velocity=64 time=0
note_off channel=4 note=64 velocity=64 time=0
note_on channel=4 note=56 velocity=80 time=0
note_off channel=4 note=56 velocity=64 time=240
note_on channel=4 note=73 velocity=80 time=0
note_on channel=4 note=69 velocity=80 time=0
note_on channel=4 note=66 velocity=80 time=0
note_on channel=4 note=54 velocity=80 time=0
note_off channel=4 note=73 velocity=64 time=120
note_off channel=4 note=69 velocity=64 time=0
note_off channel=4 note=66 velocity=64 time=0
note_off channel=4 note=54 velocity=64 time=0
note_on channel=4 note=73 velocity=80 time=120
note_on channel=4 note=69 velocity=80 time=0
note_on channel=4 note=66 velocity=80 time=0
note_on channel=4 note=54 velocity=80 time=0
note_off channel=4 note=73 velocity=64 time=120
note_off channel=4 note=69 velocity=64 time=0
note_off channel=4 note=66 velocity=64 time=0
note_off channel=4 note=54 velocity=64 time=0
note_on channel=4 note=73 velocity=80 time=1560
note_on channel=4 note=69 velocity=80 time=0
note_on channel=4 note=66 velocity=80 time=0
note_on channel=4 note=54 velocity=80 time=0
note_off channel=4 note=73 velocity=64 time=120
note_off channel=4 note=69 velocity=64 time=0
note_off channel=4 note=66 velocity=64 time=0
note_off channel=4 note=54 velocity=64 time=0
note_on channel=4 note=73 velocity=80 time=120
note_on channel=4 note=69 velocity=80 time=0
note_on channel=4 note=66 velocity=80 time=0
note_on channel=4 note=54 velocity=80 time=0
note_off channel=4 note=73 velocity=64 time=120
note_off channel=4 note=69 velocity=64 time=0
note_off channel=4 note=66 velocity=64 time=0
note_off channel=4 note=54 velocity=64 time=0
note_on channel=4 note=73 velocity=80 time=1080
note_on channel=4 note=57 velocity=80 time=0
note_off channel=4 note=73 velocity=64 time=480
note_off channel=4 note=57 velocity=64 time=0
note_on channel=4 note=74 velocity=80 time=0
note_on channel=4 note=69 velocity=80 time=0
note_on channel=4 note=66 velocity=80 time=0
note_on channel=4 note=62 velocity=80 time=0
note_off channel=4 note=74 velocity=64 time=240
note_off channel=4 note=69 velocity=64 time=0
note_off channel=4 note=66 velocity=64 time=0
note_off channel=4 note=62 velocity=64 time=0
note_on channel=4 note=74 velocity=80 time=240
note_on channel=4 note=69 velocity=80 time=0
note_on channel=4 note=66 velocity=80 time=0
note_on channel=4 note=62 velocity=80 time=0
note_off channel=4 note=74 velocity=64 time=240
note_off channel=4 note=69 velocity=64 time=0
note_off channel=4 note=66 velocity=64 time=0
note_off channel=4 note=62 velocity=64 time=0
note_on channel=4 note=73 velocity=80 time=1200
note_on channel=4 note=69 velocity=80 time=0
note_on channel=4 note=64 velocity=80 time=0
note_off channel=4 note=73 velocity=64 time=240
note_off channel=4 note=69 velocity=64 time=0
note_off channel=4 note=64 velocity=64 time=0
note_on channel=4 note=57 velocity=80 time=0
note_off channel=4 note=57 velocity=64 time=240
note_on channel=4 note=73 velocity=80 time=0
note_on channel=4 note=69 velocity=80 time=0
note_on channel=4 note=64 velocity=80 time=0
note_off channel=4 note=73 velocity=64 time=240
note_off channel=4 note=69 velocity=64 time=0
note_off channel=4 note=64 velocity=64 time=0
note_on channel=4 note=57 velocity=80 time=0
note_off channel=4 note=57 velocity=64 time=240
note_on channel=4 note=71 velocity=80 time=0
note_on channel=4 note=68 velocity=80 time=0
note_on channel=4 note=64 velocity=80 time=0
note_off channel=4 note=71 velocity=64 time=240
note_off channel=4 note=68 velocity=64 time=0
note_off channel=4 note=64 velocity=64 time=0
note_on channel=4 note=56 velocity=80 time=0
note_off channel=4 note=56 velocity=64 time=240
note_on channel=4 note=71 velocity=80 time=0
note_on channel=4 note=68 velocity=80 time=0
note_on channel=4 note=64 velocity=80 time=0
note_off channel=4 note=71 velocity=64 time=240
note_off channel=4 note=68 velocity=64 time=0
note_off channel=4 note=64 velocity=64 time=0
note_on channel=4 note=56 velocity=80 time=0
note_off channel=4 note=56 velocity=64 time=240
note_on channel=4 note=54 velocity=80 time=15360
note_off channel=4 note=54 velocity=64 time=480
note_on channel=4 note=61 velocity=80 time=0
note_off channel=4 note=61 velocity=64 time=480
note_on channel=4 note=52 velocity=80 time=0
note_off channel=4 note=52 velocity=64 time=480
note_on channel=4 note=59 velocity=80 time=0
note_off channel=4 note=59 velocity=64 time=480
note_on channel=4 note=57 velocity=80 time=0
note_off channel=4 note=57 velocity=64 time=480
note_on channel=4 note=64 velocity=80 time=0
note_off channel=4 note=64 velocity=64 time=480
note_on channel=4 note=52 velocity=80 time=0
note_off channel=4 note=52 velocity=64 time=480
note_on channel=4 note=59 velocity=80 time=0
note_off channel=4 note=59 velocity=64 time=240
note_on channel=4 note=57 velocity=80 time=0
note_off channel=4 note=57 velocity=64 time=240
note_on channel=4 note=54 velocity=80 time=0
note_off channel=4 note=54 velocity=64 time=480
note_on channel=4 note=61 velocity=80 time=0
note_off channel=4 note=61 velocity=64 time=480
note_on channel=4 note=52 velocity=80 time=0
note_off channel=4 note=52 velocity=64 time=480
note_on channel=4 note=59 velocity=80 time=0
note_off channel=4 note=59 velocity=64 time=480
note_on channel=4 note=57 velocity=80 time=0
note_off channel=4 note=57 velocity=64 time=480
note_on channel=4 note=64 velocity=80 time=0
note_off channel=4 note=64 velocity=64 time=480
note_on channel=4 note=59 velocity=80 time=0
note_off channel=4 note=59 velocity=64 time=480
note_on channel=4 note=56 velocity=80 time=0
note_off channel=4 note=56 velocity=64 time=480
note_on channel=4 note=54 velocity=80 time=0
note_off channel=4 note=54 velocity=64 time=480
note_on channel=4 note=61 velocity=80 time=0
note_off channel=4 note=61 velocity=64 time=480
note_on channel=4 note=52 velocity=80 time=0
note_off channel=4 note=52 velocity=64 time=480
note_on channel=4 note=59 velocity=80 time=0
note_off channel=4 note=59 velocity=64 time=480
note_on channel=4 note=57 velocity=80 time=0
note_off channel=4 note=57 velocity=64 time=480
note_on channel=4 note=64 velocity=80 time=0
note_off channel=4 note=64 velocity=64 time=480
note_on channel=4 note=52 velocity=80 time=0
note_off channel=4 note=52 velocity=64 time=480
note_on channel=4 note=59 velocity=80 time=0
note_off channel=4 note=59 velocity=64 time=240
note_on channel=4 note=57 velocity=80 time=0
note_off channel=4 note=57 velocity=64 time=240
note_on channel=4 note=54 velocity=80 time=0
note_off channel=4 note=54 velocity=64 time=480
note_on channel=4 note=61 velocity=80 time=0
note_off channel=4 note=61 velocity=64 time=480
note_on channel=4 note=52 velocity=80 time=0
note_off channel=4 note=52 velocity=64 time=480
note_on channel=4 note=59 velocity=80 time=0
note_off channel=4 note=59 velocity=64 time=480
note_on channel=4 note=57 velocity=80 time=0
note_off channel=4 note=57 velocity=64 time=480
note_on channel=4 note=64 velocity=80 time=0
note_off channel=4 note=64 velocity=64 time=480
note_on channel=4 note=59 velocity=80 time=0
note_off channel=4 note=59 velocity=64 time=480
note_on channel=4 note=56 velocity=80 time=0
note_off channel=4 note=56 velocity=64 time=480
note_on channel=4 note=73 velocity=80 time=0
note_on channel=4 note=69 velocity=80 time=0
note_on channel=4 note=66 velocity=80 time=0
note_on channel=4 note=54 velocity=80 time=0
note_off channel=4 note=73 velocity=64 time=120
note_off channel=4 note=69 velocity=64 time=0
note_off channel=4 note=66 velocity=64 time=0
note_off channel=4 note=54 velocity=64 time=0
note_on channel=4 note=73 velocity=80 time=120
note_on channel=4 note=69 velocity=80 time=0
note_on channel=4 note=66 velocity=80 time=0
note_on channel=4 note=54 velocity=80 time=0
note_off channel=4 note=73 velocity=64 time=120
note_off channel=4 note=69 velocity=64 time=0
note_off channel=4 note=66 velocity=64 time=0
note_off channel=4 note=54 velocity=64 time=0
note_on channel=4 note=73 velocity=80 time=1560
note_on channel=4 note=69 velocity=80 time=0
note_on channel=4 note=66 velocity=80 time=0
note_on channel=4 note=54 velocity=80 time=0
note_off channel=4 note=73 velocity=64 time=120
note_off channel=4 note=69 velocity=64 time=0
note_off channel=4 note=66 velocity=64 time=0
note_off channel=4 note=54 velocity=64 time=0
note_on channel=4 note=73 velocity=80 time=120
note_on channel=4 note=69 velocity=80 time=0
note_on channel=4 note=66 velocity=80 time=0
note_on channel=4 note=54 velocity=80 time=0
note_off channel=4 note=73 velocity=64 time=120
note_off channel=4 note=69 velocity=64 time=0
note_off channel=4 note=66 velocity=64 time=0
note_off channel=4 note=54 velocity=64 time=0
note_on channel=4 note=73 velocity=80 time=1080
note_on channel=4 note=57 velocity=80 time=0
note_off channel=4 note=73 velocity=64 time=480
note_off channel=4 note=57 velocity=64 time=0
note_on channel=4 note=74 velocity=80 time=0
note_on channel=4 note=69 velocity=80 time=0
note_on channel=4 note=66 velocity=80 time=0
note_on channel=4 note=62 velocity=80 time=0
note_off channel=4 note=74 velocity=64 time=240
note_off channel=4 note=69 velocity=64 time=0
note_off channel=4 note=66 velocity=64 time=0
note_off channel=4 note=62 velocity=64 time=0
note_on channel=4 note=74 velocity=80 time=240
note_on channel=4 note=69 velocity=80 time=0
note_on channel=4 note=66 velocity=80 time=0
note_on channel=4 note=62 velocity=80 time=0
note_off channel=4 note=74 velocity=64 time=240
note_off channel=4 note=69 velocity=64 time=0
note_off channel=4 note=66 velocity=64 time=0
note_off channel=4 note=62 velocity=64 time=0
note_on channel=4 note=73 velocity=80 time=1200
note_on channel=4 note=69 velocity=80 time=0
note_on channel=4 note=64 velocity=80 time=0
note_on channel=4 note=57 velocity=80 time=0
note_off channel=4 note=73 velocity=64 time=240
note_off channel=4 note=69 velocity=64 time=0
note_off channel=4 note=64 velocity=64 time=0
note_off channel=4 note=57 velocity=64 time=0
note_on channel=4 note=73 velocity=80 time=240
note_on channel=4 note=69 velocity=80 time=0
note_on channel=4 note=64 velocity=80 time=0
note_on channel=4 note=57 velocity=80 time=0
note_off channel=4 note=73 velocity=64 time=240
note_off channel=4 note=69 velocity=64 time=0
note_off channel=4 note=64 velocity=64 time=0
note_off channel=4 note=57 velocity=64 time=0
note_on channel=4 note=71 velocity=80 time=240
note_on channel=4 note=68 velocity=80 time=0
note_on channel=4 note=64 velocity=80 time=0
note_on channel=4 note=59 velocity=80 time=0
note_off channel=4 note=71 velocity=64 time=240
note_off channel=4 note=68 velocity=64 time=0
note_off channel=4 note=64 velocity=64 time=0
note_off channel=4 note=59 velocity=64 time=0
note_on channel=4 note=71 velocity=80 time=240
note_on channel=4 note=68 velocity=80 time=0
note_on channel=4 note=64 velocity=80 time=0
note_on channel=4 note=59 velocity=80 time=0
note_off channel=4 note=71 velocity=64 time=240
note_off channel=4 note=68 velocity=64 time=0
note_off channel=4 note=64 velocity=64 time=0
note_off channel=4 note=59 velocity=64 time=0
note_on channel=4 note=73 velocity=80 time=240
note_on channel=4 note=69 velocity=80 time=0
note_on channel=4 note=66 velocity=80 time=0
note_on channel=4 note=54 velocity=80 time=0
note_off channel=4 note=73 velocity=64 time=120
note_off channel=4 note=69 velocity=64 time=0
note_off channel=4 note=66 velocity=64 time=0
note_off channel=4 note=54 velocity=64 time=0
note_on channel=4 note=73 velocity=80 time=120
note_on channel=4 note=69 velocity=80 time=0
note_on channel=4 note=66 velocity=80 time=0
note_on channel=4 note=54 velocity=80 time=0
note_off channel=4 note=73 velocity=64 time=120
note_off channel=4 note=69 velocity=64 time=0
note_off channel=4 note=66 velocity=64 time=0
note_off channel=4 note=54 velocity=64 time=0
note_on channel=4 note=73 velocity=80 time=1560
note_on channel=4 note=69 velocity=80 time=0
note_on channel=4 note=66 velocity=80 time=0
note_on channel=4 note=54 velocity=80 time=0
note_off channel=4 note=73 velocity=64 time=120
note_off channel=4 note=69 velocity=64 time=0
note_off channel=4 note=66 velocity=64 time=0
note_off channel=4 note=54 velocity=64 time=0
note_on channel=4 note=73 velocity=80 time=120
note_on channel=4 note=69 velocity=80 time=0
note_on channel=4 note=66 velocity=80 time=0
note_on channel=4 note=54 velocity=80 time=0
note_off channel=4 note=73 velocity=64 time=120
note_off channel=4 note=69 velocity=64 time=0
note_off channel=4 note=66 velocity=64 time=0
note_off channel=4 note=54 velocity=64 time=0
note_on channel=4 note=73 velocity=80 time=1080
note_on channel=4 note=57 velocity=80 time=0
note_off channel=4 note=73 velocity=64 time=480
note_off channel=4 note=57 velocity=64 time=0
note_on channel=4 note=74 velocity=80 time=0
note_on channel=4 note=69 velocity=80 time=0
note_on channel=4 note=66 velocity=80 time=0
note_on channel=4 note=62 velocity=80 time=0
note_off channel=4 note=74 velocity=64 time=240
note_off channel=4 note=69 velocity=64 time=0
note_off channel=4 note=66 velocity=64 time=0
note_off channel=4 note=62 velocity=64 time=0
note_on channel=4 note=74 velocity=80 time=240
note_on channel=4 note=69 velocity=80 time=0
note_on channel=4 note=66 velocity=80 time=0
note_on channel=4 note=62 velocity=80 time=0
note_off channel=4 note=74 velocity=64 time=240
note_off channel=4 note=69 velocity=64 time=0
note_off channel=4 note=66 velocity=64 time=0
note_off channel=4 note=62 velocity=64 time=0
note_on channel=4 note=73 velocity=80 time=1200
note_on channel=4 note=69 velocity=80 time=0
note_on channel=4 note=64 velocity=80 time=0
note_on channel=4 note=57 velocity=80 time=0
note_off channel=4 note=73 velocity=64 time=480
note_off channel=4 note=69 velocity=64 time=0
note_off channel=4 note=64 velocity=64 time=0
note_off channel=4 note=57 velocity=64 time=0
note_on channel=4 note=73 velocity=80 time=0
note_on channel=4 note=69 velocity=80 time=0
note_on channel=4 note=64 velocity=80 time=0
note_on channel=4 note=57 velocity=80 time=0
note_off channel=4 note=73 velocity=64 time=480
note_off channel=4 note=69 velocity=64 time=0
note_off channel=4 note=64 velocity=64 time=0
note_off channel=4 note=57 velocity=64 time=0
note_on channel=4 note=71 velocity=80 time=0
note_on channel=4 note=68 velocity=80 time=0
note_on channel=4 note=64 velocity=80 time=0
note_on channel=4 note=59 velocity=80 time=0
note_off channel=4 note=71 velocity=64 time=480
note_off channel=4 note=68 velocity=64 time=0
note_off channel=4 note=64 velocity=64 time=0
note_off channel=4 note=59 velocity=64 time=0
note_on channel=4 note=71 velocity=80 time=0
note_on channel=4 note=68 velocity=80 time=0
note_on channel=4 note=64 velocity=80 time=0
note_on channel=4 note=59 velocity=80 time=0
note_off channel=4 note=71 velocity=64 time=480
note_off channel=4 note=68 velocity=64 time=0
note_off channel=4 note=64 velocity=64 time=0
note_off channel=4 note=59 velocity=64 time=0
note_on channel=4 note=69 velocity=80 time=15360
note_on channel=4 note=57 velocity=80 time=0
note_off channel=4 note=69 velocity=64 time=240
note_off channel=4 note=57 velocity=64 time=0
note_on channel=4 note=68 velocity=80 time=240
note_on channel=4 note=56 velocity=80 time=0
note_off channel=4 note=68 velocity=64 time=120
note_off channel=4 note=56 velocity=64 time=0
note_on channel=4 note=69 velocity=80 time=120
note_on channel=4 note=57 velocity=80 time=0
note_off channel=4 note=69 velocity=64 time=120
note_off channel=4 note=57 velocity=64 time=0
note_on channel=4 note=71 velocity=80 time=120
note_on channel=4 note=59 velocity=80 time=0
note_off channel=4 note=71 velocity=64 time=240
note_off channel=4 note=59 velocity=64 time=0
note_on channel=4 note=69 velocity=80 time=240
note_on channel=4 note=57 velocity=80 time=0
note_off channel=4 note=69 velocity=64 time=120
note_off channel=4 note=57 velocity=64 time=0
note_on channel=4 note=71 velocity=80 time=120
note_on channel=4 note=59 velocity=80 time=0
note_off channel=4 note=71 velocity=64 time=120
note_off channel=4 note=59 velocity=64 time=0
note_on channel=4 note=73 velocity=80 time=120
note_on channel=4 note=61 velocity=80 time=0
note_off channel=4 note=73 velocity=64 time=240
note_off channel=4 note=61 velocity=64 time=0
note_on channel=4 note=74 velocity=80 time=240
note_on channel=4 note=62 velocity=80 time=0
note_off channel=4 note=74 velocity=64 time=480
note_off channel=4 note=62 velocity=64 time=0
note_on channel=4 note=73 velocity=80 time=0
note_on channel=4 note=61 velocity=80 time=0
note_off channel=4 note=73 velocity=64 time=480
note_off channel=4 note=61 velocity=64 time=0
note_on channel=4 note=71 velocity=80 time=0
note_on channel=4 note=59 velocity=80 time=0
note_off channel=4 note=71 velocity=64 time=480
note_off channel=4 note=59 velocity=64 time=0
note_on channel=4 note=69 velocity=80 time=0
note_on channel=4 note=57 velocity=80 time=0
note_off channel=4 note=69 velocity=64 time=240
note_off channel=4 note=57 velocity=64 time=0
note_on channel=4 note=68 velocity=80 time=240
note_on channel=4 note=56 velocity=80 time=0
note_off channel=4 note=68 velocity=64 time=120
note_off channel=4 note=56 velocity=64 time=0
note_on channel=4 note=69 velocity=80 time=120
note_on channel=4 note=57 velocity=80 time=0
note_off channel=4 note=69 velocity=64 time=120
note_off channel=4 note=57 velocity=64 time=0
note_on channel=4 note=71 velocity=80 time=120
note_on channel=4 note=59 velocity=80 time=0
note_off channel=4 note=71 velocity=64 time=240
note_off channel=4 note=59 velocity=64 time=0
note_on channel=4 note=69 velocity=80 time=240
note_on channel=4 note=57 velocity=80 time=0
note_off channel=4 note=69 velocity=64 time=120
note_off channel=4 note=57 velocity=64 time=0
note_on channel=4 note=71 velocity=80 time=120
note_on channel=4 note=59 velocity=80 time=0
note_off channel=4 note=71 velocity=64 time=120
note_off channel=4 note=59 velocity=64 time=0
note_on channel=4 note=73 velocity=80 time=120
note_on channel=4 note=61 velocity=80 time=0
note_off channel=4 note=73 velocity=64 time=240
note_off channel=4 note=61 velocity=64 time=0
note_on channel=4 note=74 velocity=80 time=240
note_on channel=4 note=62 velocity=80 time=0
note_off channel=4 note=74 velocity=64 time=480
note_off channel=4 note=62 velocity=64 time=0
note_on channel=4 note=73 velocity=80 time=0
note_on channel=4 note=61 velocity=80 time=0
note_off channel=4 note=73 velocity=64 time=480
note_off channel=4 note=61 velocity=64 time=0
note_on channel=4 note=68 velocity=80 time=0
note_on channel=4 note=56 velocity=80 time=0
note_off channel=4 note=68 velocity=64 time=480
note_off channel=4 note=56 velocity=64 time=0
note_on channel=4 note=69 velocity=80 time=0
note_on channel=4 note=57 velocity=80 time=0
note_off channel=4 note=69 velocity=64 time=240
note_off channel=4 note=57 velocity=64 time=0
note_on channel=4 note=68 velocity=80 time=240
note_on channel=4 note=56 velocity=80 time=0
note_off channel=4 note=68 velocity=64 time=120
note_off channel=4 note=56 velocity=64 time=0
note_on channel=4 note=69 velocity=80 time=120
note_on channel=4 note=57 velocity=80 time=0
note_off channel=4 note=69 velocity=64 time=120
note_off channel=4 note=57 velocity=64 time=0
note_on channel=4 note=71 velocity=80 time=120
note_on channel=4 note=59 velocity=80 time=0
note_off channel=4 note=71 velocity=64 time=240
note_off channel=4 note=59 velocity=64 time=0
note_on channel=4 note=69 velocity=80 time=240
note_on channel=4 note=57 velocity=80 time=0
note_off channel=4 note=69 velocity=64 time=120
note_off channel=4 note=57 velocity=64 time=0
note_on channel=4 note=71 velocity=80 time=120
note_on channel=4 note=59 velocity=80 time=0
note_off channel=4 note=71 velocity=64 time=120
note_off channel=4 note=59 velocity=64 time=0
note_on channel=4 note=73 velocity=80 time=120
note_on channel=4 note=61 velocity=80 time=0
note_off channel=4 note=73 velocity=64 time=240
note_off channel=4 note=61 velocity=64 time=0
note_on channel=4 note=74 velocity=80 time=240
note_on channel=4 note=62 velocity=80 time=0
note_off channel=4 note=74 velocity=64 time=480
note_off channel=4 note=62 velocity=64 time=0
note_on channel=4 note=73 velocity=80 time=0
note_on channel=4 note=61 velocity=80 time=0
note_off channel=4 note=73 velocity=64 time=480
note_off channel=4 note=61 velocity=64 time=0
note_on channel=4 note=71 velocity=80 time=0
note_on channel=4 note=59 velocity=80 time=0
note_off channel=4 note=71 velocity=64 time=480
note_off channel=4 note=59 velocity=64 time=0
note_on channel=4 note=69 velocity=80 time=0
note_on channel=4 note=57 velocity=80 time=0
note_off channel=4 note=69 velocity=64 time=240
note_off channel=4 note=57 velocity=64 time=0
note_on channel=4 note=68 velocity=80 time=240
note_on channel=4 note=56 velocity=80 time=0
note_off channel=4 note=68 velocity=64 time=120
note_off channel=4 note=56 velocity=64 time=0
note_on channel=4 note=69 velocity=80 time=120
note_on channel=4 note=57 velocity=80 time=0
note_off channel=4 note=69 velocity=64 time=120
note_off channel=4 note=57 velocity=64 time=0
note_on channel=4 note=71 velocity=80 time=120
note_on channel=4 note=59 velocity=80 time=0
note_off channel=4 note=71 velocity=64 time=240
note_off channel=4 note=59 velocity=64 time=0
note_on channel=4 note=69 velocity=80 time=240
note_on channel=4 note=57 velocity=80 time=0
note_off channel=4 note=69 velocity=64 time=120
note_off channel=4 note=57 velocity=64 time=0
note_on channel=4 note=71 velocity=80 time=120
note_on channel=4 note=59 velocity=80 time=0
note_off channel=4 note=71 velocity=64 time=120
note_off channel=4 note=59 velocity=64 time=0
note_on channel=4 note=73 velocity=80 time=120
note_on channel=4 note=61 velocity=80 time=0
note_off channel=4 note=73 velocity=64 time=240
note_off channel=4 note=61 velocity=64 time=0
note_on channel=4 note=74 velocity=80 time=240
note_on channel=4 note=62 velocity=80 time=0
note_off channel=4 note=74 velocity=64 time=480
note_off channel=4 note=62 velocity=64 time=0
note_on channel=4 note=73 velocity=80 time=0
note_on channel=4 note=61 velocity=80 time=0
note_off channel=4 note=73 velocity=64 time=480
note_off channel=4 note=61 velocity=64 time=0
note_on channel=4 note=68 velocity=80 time=0
note_on channel=4 note=56 velocity=80 time=0
note_off channel=4 note=68 velocity=64 time=480
note_off channel=4 note=56 velocity=64 time=0
note_on channel=4 note=69 velocity=80 time=0
note_on channel=4 note=57 velocity=80 time=0
note_off channel=4 note=69 velocity=64 time=240
note_off channel=4 note=57 velocity=64 time=0
note_on channel=4 note=68 velocity=80 time=240
note_on channel=4 note=56 velocity=80 time=0
note_off channel=4 note=68 velocity=64 time=120
note_off channel=4 note=56 velocity=64 time=0
note_on channel=4 note=69 velocity=80 time=120
note_on channel=4 note=57 velocity=80 time=0
note_off channel=4 note=69 velocity=64 time=120
note_off channel=4 note=57 velocity=64 time=0
note_on channel=4 note=71 velocity=80 time=120
note_on channel=4 note=59 velocity=80 time=0
note_off channel=4 note=71 velocity=64 time=240
note_off channel=4 note=59 velocity=64 time=0
note_on channel=4 note=69 velocity=80 time=240
note_on channel=4 note=57 velocity=80 time=0
note_off channel=4 note=69 velocity=64 time=120
note_off channel=4 note=57 velocity=64 time=0
note_on channel=4 note=71 velocity=80 time=120
note_on channel=4 note=59 velocity=80 time=0
note_off channel=4 note=71 velocity=64 time=120
note_off channel=4 note=59 velocity=64 time=0
note_on channel=4 note=73 velocity=80 time=120
note_on channel=4 note=61 velocity=80 time=0
note_off channel=4 note=73 velocity=64 time=240
note_off channel=4 note=61 velocity=64 time=0
note_on channel=4 note=74 velocity=80 time=240
note_on channel=4 note=62 velocity=80 time=0
note_off channel=4 note=74 velocity=64 time=480
note_off channel=4 note=62 velocity=64 time=0
note_on channel=4 note=73 velocity=80 time=0
note_on channel=4 note=61 velocity=80 time=0
note_off channel=4 note=73 velocity=64 time=480
note_off channel=4 note=61 velocity=64 time=0
note_on channel=4 note=71 velocity=80 time=0
note_on channel=4 note=59 velocity=80 time=0
note_off channel=4 note=71 velocity=64 time=480
note_off channel=4 note=59 velocity=64 time=0
note_on channel=4 note=69 velocity=80 time=0
note_on channel=4 note=57 velocity=80 time=0
note_off channel=4 note=69 velocity=64 time=240
note_off channel=4 note=57 velocity=64 time=0
note_on channel=4 note=68 velocity=80 time=240
note_on channel=4 note=56 velocity=80 time=0
note_off channel=4 note=68 velocity=64 time=120
note_off channel=4 note=56 velocity=64 time=0
note_on channel=4 note=69 velocity=80 time=120
note_on channel=4 note=57 velocity=80 time=0
note_off channel=4 note=69 velocity=64 time=120
note_off channel=4 note=57 velocity=64 time=0
note_on channel=4 note=71 velocity=80 time=120
note_on channel=4 note=59 velocity=80 time=0
note_off channel=4 note=71 velocity=64 time=240
note_off channel=4 note=59 velocity=64 time=0
note_on channel=4 note=69 velocity=80 time=240
note_on channel=4 note=57 velocity=80 time=0
note_off channel=4 note=69 velocity=64 time=120
note_off channel=4 note=57 velocity=64 time=0
note_on channel=4 note=71 velocity=80 time=120
note_on channel=4 note=59 velocity=80 time=0
note_off channel=4 note=71 velocity=64 time=120
note_off channel=4 note=59 velocity=64 time=0
note_on channel=4 note=73 velocity=80 time=120
note_on channel=4 note=61 velocity=80 time=0
note_off channel=4 note=73 velocity=64 time=240
note_off channel=4 note=61 velocity=64 time=0
note_on channel=4 note=74 velocity=80 time=240
note_on channel=4 note=62 velocity=80 time=0
note_off channel=4 note=74 velocity=64 time=480
note_off channel=4 note=62 velocity=64 time=0
note_on channel=4 note=73 velocity=80 time=0
note_on channel=4 note=61 velocity=80 time=0
note_off channel=4 note=73 velocity=64 time=480
note_off channel=4 note=61 velocity=64 time=0
note_on channel=4 note=68 velocity=80 time=0
note_on channel=4 note=56 velocity=80 time=0
note_off channel=4 note=68 velocity=64 time=480
note_off channel=4 note=56 velocity=64 time=0
note_on channel=4 note=69 velocity=80 time=0
note_on channel=4 note=57 velocity=80 time=0
note_off channel=4 note=69 velocity=64 time=240
note_off channel=4 note=57 velocity=64 time=0
note_on channel=4 note=68 velocity=80 time=240
note_on channel=4 note=56 velocity=80 time=0
note_off channel=4 note=68 velocity=64 time=120
note_off channel=4 note=56 velocity=64 time=0
note_on channel=4 note=69 velocity=80 time=120
note_on channel=4 note=57 velocity=80 time=0
note_off channel=4 note=69 velocity=64 time=120
note_off channel=4 note=57 velocity=64 time=0
note_on channel=4 note=71 velocity=80 time=120
note_on channel=4 note=59 velocity=80 time=0
note_off channel=4 note=71 velocity=64 time=240
note_off channel=4 note=59 velocity=64 time=0
note_on channel=4 note=69 velocity=80 time=240
note_on channel=4 note=57 velocity=80 time=0
note_off channel=4 note=69 velocity=64 time=120
note_off channel=4 note=57 velocity=64 time=0
note_on channel=4 note=71 velocity=80 time=120
note_on channel=4 note=59 velocity=80 time=0
note_off channel=4 note=71 velocity=64 time=120
note_off channel=4 note=59 velocity=64 time=0
note_on channel=4 note=73 velocity=80 time=120
note_on channel=4 note=61 velocity=80 time=0
note_off channel=4 note=73 velocity=64 time=240
note_off channel=4 note=61 velocity=64 time=0
note_on channel=4 note=74 velocity=80 time=240
note_on channel=4 note=62 velocity=80 time=0
note_off channel=4 note=74 velocity=64 time=480
note_off channel=4 note=62 velocity=64 time=0
note_on channel=4 note=73 velocity=80 time=0
note_on channel=4 note=61 velocity=80 time=0
note_off channel=4 note=73 velocity=64 time=480
note_off channel=4 note=61 velocity=64 time=0
note_on channel=4 note=71 velocity=80 time=0
note_on channel=4 note=59 velocity=80 time=0
note_off channel=4 note=71 velocity=64 time=480
note_off channel=4 note=59 velocity=64 time=0
note_on channel=4 note=69 velocity=80 time=0
note_on channel=4 note=57 velocity=80 time=0
note_off channel=4 note=69 velocity=64 time=240
note_off channel=4 note=57 velocity=64 time=0
note_on channel=4 note=68 velocity=80 time=240
note_on channel=4 note=56 velocity=80 time=0
note_off channel=4 note=68 velocity=64 time=120
note_off channel=4 note=56 velocity=64 time=0
note_on channel=4 note=69 velocity=80 time=120
note_on channel=4 note=57 velocity=80 time=0
note_off channel=4 note=69 velocity=64 time=120
note_off channel=4 note=57 velocity=64 time=0
note_on channel=4 note=71 velocity=80 time=120
note_on channel=4 note=59 velocity=80 time=0
note_off channel=4 note=71 velocity=64 time=240
note_off channel=4 note=59 velocity=64 time=0
note_on channel=4 note=69 velocity=80 time=240
note_on channel=4 note=57 velocity=80 time=0
note_off channel=4 note=69 velocity=64 time=120
note_off channel=4 note=57 velocity=64 time=0
note_on channel=4 note=71 velocity=80 time=120
note_on channel=4 note=59 velocity=80 time=0
note_off channel=4 note=71 velocity=64 time=120
note_off channel=4 note=59 velocity=64 time=0
note_on channel=4 note=73 velocity=80 time=120
note_on channel=4 note=61 velocity=80 time=0
note_off channel=4 note=73 velocity=64 time=240
note_off channel=4 note=61 velocity=64 time=0
note_on channel=4 note=74 velocity=80 time=240
note_on channel=4 note=62 velocity=80 time=0
note_off channel=4 note=74 velocity=64 time=480
note_off channel=4 note=62 velocity=64 time=0
note_on channel=4 note=73 velocity=80 time=0
note_on channel=4 note=61 velocity=80 time=0
note_off channel=4 note=73 velocity=64 time=480
note_off channel=4 note=61 velocity=64 time=0
note_on channel=4 note=68 velocity=80 time=0
note_on channel=4 note=56 velocity=80 time=0
note_off channel=4 note=68 velocity=64 time=480
note_off channel=4 note=56 velocity=64 time=0
note_on channel=4 note=54 velocity=80 time=15360
note_off channel=4 note=54 velocity=64 time=480
note_on channel=4 note=61 velocity=80 time=0
note_off channel=4 note=61 velocity=64 time=480
note_on channel=4 note=52 velocity=80 time=0
note_off channel=4 note=52 velocity=64 time=480
note_on channel=4 note=59 velocity=80 time=0
note_off channel=4 note=59 velocity=64 time=480
note_on channel=4 note=57 velocity=80 time=0
note_off channel=4 note=57 velocity=64 time=480
note_on channel=4 note=64 velocity=80 time=0
note_off channel=4 note=64 velocity=64 time=480
note_on channel=4 note=52 velocity=80 time=0
note_off channel=4 note=52 velocity=64 time=480
note_on channel=4 note=59 velocity=80 time=0
note_off channel=4 note=59 velocity=64 time=240
note_on channel=4 note=57 velocity=80 time=0
note_off channel=4 note=57 velocity=64 time=240
note_on channel=4 note=54 velocity=80 time=0
note_off channel=4 note=54 velocity=64 time=480
note_on channel=4 note=61 velocity=80 time=0
note_off channel=4 note=61 velocity=64 time=480
note_on channel=4 note=52 velocity=80 time=0
note_off channel=4 note=52 velocity=64 time=480
note_on channel=4 note=59 velocity=80 time=0
note_off channel=4 note=59 velocity=64 time=480
note_on channel=4 note=57 velocity=80 time=0
note_off channel=4 note=57 velocity=64 time=480
note_on channel=4 note=64 velocity=80 time=0
note_off channel=4 note=64 velocity=64 time=480
note_on channel=4 note=59 velocity=80 time=0
note_off channel=4 note=59 velocity=64 time=480
note_on channel=4 note=56 velocity=80 time=0
note_off channel=4 note=56 velocity=64 time=480
note_on channel=4 note=54 velocity=80 time=0
note_off channel=4 note=54 velocity=64 time=480
note_on channel=4 note=61 velocity=80 time=0
note_off channel=4 note=61 velocity=64 time=480
note_on channel=4 note=52 velocity=80 time=0
note_off channel=4 note=52 velocity=64 time=480
note_on channel=4 note=59 velocity=80 time=0
note_off channel=4 note=59 velocity=64 time=480
note_on channel=4 note=57 velocity=80 time=0
note_off channel=4 note=57 velocity=64 time=480
note_on channel=4 note=64 velocity=80 time=0
note_off channel=4 note=64 velocity=64 time=480
note_on channel=4 note=52 velocity=80 time=0
note_off channel=4 note=52 velocity=64 time=480
note_on channel=4 note=59 velocity=80 time=0
note_off channel=4 note=59 velocity=64 time=240
note_on channel=4 note=57 velocity=80 time=0
note_off channel=4 note=57 velocity=64 time=240
note_on channel=4 note=54 velocity=80 time=0
note_off channel=4 note=54 velocity=64 time=480
note_on channel=4 note=61 velocity=80 time=0
note_off channel=4 note=61 velocity=64 time=480
note_on channel=4 note=52 velocity=80 time=0
note_off channel=4 note=52 velocity=64 time=480
note_on channel=4 note=59 velocity=80 time=0
note_off channel=4 note=59 velocity=64 time=480
note_on channel=4 note=57 velocity=80 time=0
note_off channel=4 note=57 velocity=64 time=480
note_on channel=4 note=64 velocity=80 time=0
note_off channel=4 note=64 velocity=64 time=480
note_on channel=4 note=59 velocity=80 time=0
note_off channel=4 note=59 velocity=64 time=480
note_on channel=4 note=56 velocity=80 time=0
note_off channel=4 note=56 velocity=64 time=480
note_on channel=4 note=54 velocity=80 time=0
note_off channel=4 note=54 velocity=64 time=1920
MetaMessage('end_of_track', time=0)
MetaMessage('track_name', name='A\x88A«A1A?', time=0)
program_change channel=3 program=52 time=0
note_on channel=3 note=69 velocity=80 time=7680
note_on channel=3 note=66 velocity=80 time=0
note_on channel=3 note=61 velocity=80 time=0
note_on channel=3 note=57 velocity=80 time=0
note_off channel=3 note=69 velocity=64 time=240
note_off channel=3 note=66 velocity=64 time=0
note_off channel=3 note=61 velocity=64 time=0
note_off channel=3 note=57 velocity=64 time=0
note_on channel=3 note=69 velocity=80 time=0
note_on channel=3 note=66 velocity=80 time=0
note_on channel=3 note=61 velocity=80 time=0
note_on channel=3 note=57 velocity=80 time=0
note_off channel=3 note=69 velocity=64 time=240
note_off channel=3 note=66 velocity=64 time=0
note_off channel=3 note=61 velocity=64 time=0
note_off channel=3 note=57 velocity=64 time=0
note_on channel=3 note=69 velocity=80 time=240
note_on channel=3 note=66 velocity=80 time=0
note_on channel=3 note=61 velocity=80 time=0
note_on channel=3 note=57 velocity=80 time=0
note_off channel=3 note=69 velocity=64 time=240
note_off channel=3 note=66 velocity=64 time=0
note_off channel=3 note=61 velocity=64 time=0
note_off channel=3 note=57 velocity=64 time=0
note_on channel=3 note=69 velocity=80 time=0
note_on channel=3 note=66 velocity=80 time=0
note_on channel=3 note=61 velocity=80 time=0
note_on channel=3 note=57 velocity=80 time=0
note_off channel=3 note=69 velocity=64 time=240
note_off channel=3 note=66 velocity=64 time=0
note_off channel=3 note=61 velocity=64 time=0
note_off channel=3 note=57 velocity=64 time=0
note_on channel=3 note=69 velocity=80 time=240
note_on channel=3 note=66 velocity=80 time=0
note_on channel=3 note=61 velocity=80 time=0
note_on channel=3 note=57 velocity=80 time=0
note_off channel=3 note=69 velocity=64 time=240
note_off channel=3 note=66 velocity=64 time=0
note_off channel=3 note=61 velocity=64 time=0
note_off channel=3 note=57 velocity=64 time=0
note_on channel=3 note=66 velocity=80 time=0
note_on channel=3 note=62 velocity=80 time=0
note_on channel=3 note=57 velocity=80 time=0
note_on channel=3 note=50 velocity=80 time=0
note_off channel=3 note=66 velocity=64 time=240
note_off channel=3 note=62 velocity=64 time=0
note_off channel=3 note=57 velocity=64 time=0
note_off channel=3 note=50 velocity=64 time=0
note_on channel=3 note=66 velocity=80 time=240
note_on channel=3 note=62 velocity=80 time=0
note_on channel=3 note=57 velocity=80 time=0
note_on channel=3 note=50 velocity=80 time=0
note_off channel=3 note=66 velocity=64 time=240
note_off channel=3 note=62 velocity=64 time=0
note_off channel=3 note=57 velocity=64 time=0
note_off channel=3 note=50 velocity=64 time=0
note_on channel=3 note=66 velocity=80 time=0
note_on channel=3 note=62 velocity=80 time=0
note_on channel=3 note=57 velocity=80 time=0
note_on channel=3 note=50 velocity=80 time=0
note_off channel=3 note=66 velocity=64 time=240
note_off channel=3 note=62 velocity=64 time=0
note_off channel=3 note=57 velocity=64 time=0
note_off channel=3 note=50 velocity=64 time=0
note_on channel=3 note=68 velocity=80 time=240
note_on channel=3 note=64 velocity=80 time=0
note_on channel=3 note=59 velocity=80 time=0
note_on channel=3 note=52 velocity=80 time=0
note_off channel=3 note=68 velocity=64 time=240
note_off channel=3 note=64 velocity=64 time=0
note_off channel=3 note=59 velocity=64 time=0
note_off channel=3 note=52 velocity=64 time=0
note_on channel=3 note=68 velocity=80 time=240
note_on channel=3 note=64 velocity=80 time=0
note_on channel=3 note=59 velocity=80 time=0
note_on channel=3 note=52 velocity=80 time=0
note_off channel=3 note=68 velocity=64 time=240
note_off channel=3 note=64 velocity=64 time=0
note_off channel=3 note=59 velocity=64 time=0
note_off channel=3 note=52 velocity=64 time=0
note_on channel=3 note=69 velocity=80 time=240
note_on channel=3 note=66 velocity=80 time=0
note_on channel=3 note=61 velocity=80 time=0
note_on channel=3 note=57 velocity=80 time=0
note_off channel=3 note=69 velocity=64 time=240
note_off channel=3 note=66 velocity=64 time=0
note_off channel=3 note=61 velocity=64 time=0
note_off channel=3 note=57 velocity=64 time=0
note_on channel=3 note=69 velocity=80 time=0
note_on channel=3 note=66 velocity=80 time=0
note_on channel=3 note=61 velocity=80 time=0
note_on channel=3 note=57 velocity=80 time=0
note_off channel=3 note=69 velocity=64 time=240
note_off channel=3 note=66 velocity=64 time=0
note_off channel=3 note=61 velocity=64 time=0
note_off channel=3 note=57 velocity=64 time=0
note_on channel=3 note=69 velocity=80 time=240
note_on channel=3 note=66 velocity=80 time=0
note_on channel=3 note=61 velocity=80 time=0
note_on channel=3 note=57 velocity=80 time=0
note_off channel=3 note=69 velocity=64 time=240
note_off channel=3 note=66 velocity=64 time=0
note_off channel=3 note=61 velocity=64 time=0
note_off channel=3 note=57 velocity=64 time=0
note_on channel=3 note=69 velocity=80 time=0
note_on channel=3 note=66 velocity=80 time=0
note_on channel=3 note=61 velocity=80 time=0
note_on channel=3 note=57 velocity=80 time=0
note_off channel=3 note=69 velocity=64 time=240
note_off channel=3 note=66 velocity=64 time=0
note_off channel=3 note=61 velocity=64 time=0
note_off channel=3 note=57 velocity=64 time=0
note_on channel=3 note=69 velocity=80 time=240
note_on channel=3 note=66 velocity=80 time=0
note_on channel=3 note=61 velocity=80 time=0
note_on channel=3 note=57 velocity=80 time=0
note_off channel=3 note=69 velocity=64 time=240
note_off channel=3 note=66 velocity=64 time=0
note_off channel=3 note=61 velocity=64 time=0
note_off channel=3 note=57 velocity=64 time=0
note_on channel=3 note=66 velocity=80 time=0
note_on channel=3 note=62 velocity=80 time=0
note_on channel=3 note=57 velocity=80 time=0
note_on channel=3 note=50 velocity=80 time=0
note_off channel=3 note=66 velocity=64 time=240
note_off channel=3 note=62 velocity=64 time=0
note_off channel=3 note=57 velocity=64 time=0
note_off channel=3 note=50 velocity=64 time=0
note_on channel=3 note=66 velocity=80 time=240
note_on channel=3 note=62 velocity=80 time=0
note_on channel=3 note=57 velocity=80 time=0
note_on channel=3 note=50 velocity=80 time=0
note_off channel=3 note=66 velocity=64 time=240
note_off channel=3 note=62 velocity=64 time=0
note_off channel=3 note=57 velocity=64 time=0
note_off channel=3 note=50 velocity=64 time=0
note_on channel=3 note=66 velocity=80 time=0
note_on channel=3 note=62 velocity=80 time=0
note_on channel=3 note=57 velocity=80 time=0
note_on channel=3 note=50 velocity=80 time=0
note_off channel=3 note=66 velocity=64 time=240
note_off channel=3 note=62 velocity=64 time=0
note_off channel=3 note=57 velocity=64 time=0
note_off channel=3 note=50 velocity=64 time=0
note_on channel=3 note=68 velocity=80 time=240
note_on channel=3 note=64 velocity=80 time=0
note_on channel=3 note=59 velocity=80 time=0
note_on channel=3 note=52 velocity=80 time=0
note_off channel=3 note=68 velocity=64 time=240
note_off channel=3 note=64 velocity=64 time=0
note_off channel=3 note=59 velocity=64 time=0
note_off channel=3 note=52 velocity=64 time=0
note_on channel=3 note=68 velocity=80 time=240
note_on channel=3 note=64 velocity=80 time=0
note_on channel=3 note=59 velocity=80 time=0
note_on channel=3 note=52 velocity=80 time=0
note_off channel=3 note=68 velocity=64 time=240
note_off channel=3 note=64 velocity=64 time=0
note_off channel=3 note=59 velocity=64 time=0
note_off channel=3 note=52 velocity=64 time=0
note_on channel=3 note=66 velocity=80 time=4080
note_on channel=3 note=62 velocity=80 time=0
note_on channel=3 note=57 velocity=80 time=0
note_off channel=3 note=66 velocity=64 time=960
note_off channel=3 note=62 velocity=64 time=0
note_off channel=3 note=57 velocity=64 time=0
note_on channel=3 note=68 velocity=80 time=0
note_on channel=3 note=64 velocity=80 time=0
note_on channel=3 note=59 velocity=80 time=0
note_off channel=3 note=68 velocity=64 time=960
note_off channel=3 note=64 velocity=64 time=0
note_off channel=3 note=59 velocity=64 time=0
note_on channel=3 note=73 velocity=80 time=0
note_on channel=3 note=69 velocity=80 time=0
note_on channel=3 note=64 velocity=80 time=0
note_off channel=3 note=73 velocity=64 time=960
note_off channel=3 note=69 velocity=64 time=0
note_off channel=3 note=64 velocity=64 time=0
note_on channel=3 note=68 velocity=80 time=0
note_on channel=3 note=64 velocity=80 time=0
note_on channel=3 note=59 velocity=80 time=0
note_off channel=3 note=68 velocity=64 time=960
note_off channel=3 note=64 velocity=64 time=0
note_off channel=3 note=59 velocity=64 time=0
note_on channel=3 note=66 velocity=80 time=3840
note_on channel=3 note=62 velocity=80 time=0
note_on channel=3 note=57 velocity=80 time=0
note_off channel=3 note=66 velocity=64 time=960
note_off channel=3 note=62 velocity=64 time=0
note_off channel=3 note=57 velocity=64 time=0
note_on channel=3 note=68 velocity=80 time=0
note_on channel=3 note=64 velocity=80 time=0
note_on channel=3 note=59 velocity=80 time=0
note_off channel=3 note=68 velocity=64 time=960
note_off channel=3 note=64 velocity=64 time=0
note_off channel=3 note=59 velocity=64 time=0
note_on channel=3 note=73 velocity=80 time=0
note_on channel=3 note=69 velocity=80 time=0
note_on channel=3 note=64 velocity=80 time=0
note_off channel=3 note=73 velocity=64 time=960
note_off channel=3 note=69 velocity=64 time=0
note_off channel=3 note=64 velocity=64 time=0
note_on channel=3 note=68 velocity=80 time=0
note_on channel=3 note=64 velocity=80 time=0
note_on channel=3 note=59 velocity=80 time=0
note_off channel=3 note=68 velocity=64 time=960
note_off channel=3 note=64 velocity=64 time=0
note_off channel=3 note=59 velocity=64 time=0
note_on channel=3 note=69 velocity=80 time=15360
note_on channel=3 note=66 velocity=80 time=0
note_on channel=3 note=61 velocity=80 time=0
note_off channel=3 note=69 velocity=64 time=960
note_off channel=3 note=66 velocity=64 time=0
note_off channel=3 note=61 velocity=64 time=0
note_on channel=3 note=68 velocity=80 time=0
note_on channel=3 note=64 velocity=80 time=0
note_on channel=3 note=59 velocity=80 time=0
note_off channel=3 note=68 velocity=64 time=960
note_off channel=3 note=64 velocity=64 time=0
note_off channel=3 note=59 velocity=64 time=0
note_on channel=3 note=69 velocity=80 time=0
note_on channel=3 note=64 velocity=80 time=0
note_on channel=3 note=61 velocity=80 time=0
note_off channel=3 note=69 velocity=64 time=960
note_off channel=3 note=64 velocity=64 time=0
note_off channel=3 note=61 velocity=64 time=0
note_on channel=3 note=68 velocity=80 time=0
note_on channel=3 note=64 velocity=80 time=0
note_on channel=3 note=59 velocity=80 time=0
note_off channel=3 note=68 velocity=64 time=960
note_off channel=3 note=64 velocity=64 time=0
note_off channel=3 note=59 velocity=64 time=0
note_on channel=3 note=69 velocity=80 time=0
note_on channel=3 note=66 velocity=80 time=0
note_on channel=3 note=61 velocity=80 time=0
note_off channel=3 note=69 velocity=64 time=960
note_off channel=3 note=66 velocity=64 time=0
note_off channel=3 note=61 velocity=64 time=0
note_on channel=3 note=68 velocity=80 time=0
note_on channel=3 note=64 velocity=80 time=0
note_on channel=3 note=59 velocity=80 time=0
note_off channel=3 note=68 velocity=64 time=960
note_off channel=3 note=64 velocity=64 time=0
note_off channel=3 note=59 velocity=64 time=0
note_on channel=3 note=69 velocity=80 time=0
note_on channel=3 note=66 velocity=80 time=0
note_on channel=3 note=62 velocity=80 time=0
note_off channel=3 note=69 velocity=64 time=960
note_off channel=3 note=66 velocity=64 time=0
note_off channel=3 note=62 velocity=64 time=0
note_on channel=3 note=71 velocity=80 time=0
note_on channel=3 note=68 velocity=80 time=0
note_on channel=3 note=64 velocity=80 time=0
note_off channel=3 note=71 velocity=64 time=960
note_off channel=3 note=68 velocity=64 time=0
note_off channel=3 note=64 velocity=64 time=0
note_on channel=3 note=69 velocity=80 time=0
note_on channel=3 note=66 velocity=80 time=0
note_on channel=3 note=61 velocity=80 time=0
note_off channel=3 note=69 velocity=64 time=960
note_off channel=3 note=66 velocity=64 time=0
note_off channel=3 note=61 velocity=64 time=0
note_on channel=3 note=68 velocity=80 time=0
note_on channel=3 note=64 velocity=80 time=0
note_on channel=3 note=59 velocity=80 time=0
note_off channel=3 note=68 velocity=64 time=960
note_off channel=3 note=64 velocity=64 time=0
note_off channel=3 note=59 velocity=64 time=0
note_on channel=3 note=69 velocity=80 time=0
note_on channel=3 note=64 velocity=80 time=0
note_on channel=3 note=61 velocity=80 time=0
note_off channel=3 note=69 velocity=64 time=960
note_off channel=3 note=64 velocity=64 time=0
note_off channel=3 note=61 velocity=64 time=0
note_on channel=3 note=68 velocity=80 time=0
note_on channel=3 note=64 velocity=80 time=0
note_on channel=3 note=59 velocity=80 time=0
note_off channel=3 note=68 velocity=64 time=960
note_off channel=3 note=64 velocity=64 time=0
note_off channel=3 note=59 velocity=64 time=0
note_on channel=3 note=69 velocity=80 time=0
note_on channel=3 note=66 velocity=80 time=0
note_on channel=3 note=61 velocity=80 time=0
note_off channel=3 note=69 velocity=64 time=960
note_off channel=3 note=66 velocity=64 time=0
note_off channel=3 note=61 velocity=64 time=0
note_on channel=3 note=68 velocity=80 time=0
note_on channel=3 note=64 velocity=80 time=0
note_on channel=3 note=59 velocity=80 time=0
note_off channel=3 note=68 velocity=64 time=960
note_off channel=3 note=64 velocity=64 time=0
note_off channel=3 note=59 velocity=64 time=0
note_on channel=3 note=69 velocity=80 time=0
note_on channel=3 note=66 velocity=80 time=0
note_on channel=3 note=62 velocity=80 time=0
note_off channel=3 note=69 velocity=64 time=960
note_off channel=3 note=66 velocity=64 time=0
note_off channel=3 note=62 velocity=64 time=0
note_on channel=3 note=68 velocity=80 time=0
note_on channel=3 note=64 velocity=80 time=0
note_on channel=3 note=59 velocity=80 time=0
note_off channel=3 note=68 velocity=64 time=960
note_off channel=3 note=64 velocity=64 time=0
note_off channel=3 note=59 velocity=64 time=0
note_on channel=3 note=69 velocity=80 time=0
note_on channel=3 note=66 velocity=80 time=0
note_off channel=3 note=69 velocity=64 time=960
note_off channel=3 note=66 velocity=64 time=0
note_on channel=3 note=68 velocity=80 time=0
note_on channel=3 note=64 velocity=80 time=0
note_off channel=3 note=68 velocity=64 time=960
note_off channel=3 note=64 velocity=64 time=0
note_on channel=3 note=69 velocity=80 time=0
note_on channel=3 note=66 velocity=80 time=0
note_off channel=3 note=69 velocity=64 time=960
note_off channel=3 note=66 velocity=64 time=0
note_on channel=3 note=68 velocity=80 time=0
note_on channel=3 note=64 velocity=80 time=0
note_off channel=3 note=68 velocity=64 time=960
note_off channel=3 note=64 velocity=64 time=0
note_on channel=3 note=69 velocity=80 time=0
note_on channel=3 note=66 velocity=80 time=0
note_off channel=3 note=69 velocity=64 time=960
note_off channel=3 note=66 velocity=64 time=0
note_on channel=3 note=68 velocity=80 time=0
note_on channel=3 note=64 velocity=80 time=0
note_off channel=3 note=68 velocity=64 time=960
note_off channel=3 note=64 velocity=64 time=0
note_on channel=3 note=69 velocity=80 time=0
note_on channel=3 note=66 velocity=80 time=0
note_off channel=3 note=69 velocity=64 time=960
note_off channel=3 note=66 velocity=64 time=0
note_on channel=3 note=68 velocity=80 time=0
note_on channel=3 note=64 velocity=80 time=0
note_off channel=3 note=68 velocity=64 time=960
note_off channel=3 note=64 velocity=64 time=0
note_on channel=3 note=69 velocity=80 time=0
note_on channel=3 note=66 velocity=80 time=0
note_on channel=3 note=61 velocity=80 time=0
note_on channel=3 note=54 velocity=80 time=0
note_off channel=3 note=69 velocity=64 time=960
note_off channel=3 note=66 velocity=64 time=0
note_off channel=3 note=61 velocity=64 time=0
note_off channel=3 note=54 velocity=64 time=0
note_on channel=3 note=68 velocity=80 time=0
note_on channel=3 note=64 velocity=80 time=0
note_on channel=3 note=59 velocity=80 time=0
note_on channel=3 note=52 velocity=80 time=0
note_off channel=3 note=68 velocity=64 time=960
note_off channel=3 note=64 velocity=64 time=0
note_off channel=3 note=59 velocity=64 time=0
note_off channel=3 note=52 velocity=64 time=0
note_on channel=3 note=69 velocity=80 time=0
note_on channel=3 note=66 velocity=80 time=0
note_on channel=3 note=62 velocity=80 time=0
note_on channel=3 note=57 velocity=80 time=0
note_off channel=3 note=69 velocity=64 time=960
note_off channel=3 note=66 velocity=64 time=0
note_off channel=3 note=62 velocity=64 time=0
note_off channel=3 note=57 velocity=64 time=0
note_on channel=3 note=68 velocity=80 time=0
note_on channel=3 note=64 velocity=80 time=0
note_on channel=3 note=59 velocity=80 time=0
note_on channel=3 note=52 velocity=80 time=0
note_off channel=3 note=68 velocity=64 time=960
note_off channel=3 note=64 velocity=64 time=0
note_off channel=3 note=59 velocity=64 time=0
note_off channel=3 note=52 velocity=64 time=0
note_on channel=3 note=69 velocity=80 time=0
note_on channel=3 note=66 velocity=80 time=0
note_on channel=3 note=61 velocity=80 time=0
note_on channel=3 note=54 velocity=80 time=0
note_off channel=3 note=69 velocity=64 time=960
note_off channel=3 note=66 velocity=64 time=0
note_off channel=3 note=61 velocity=64 time=0
note_off channel=3 note=54 velocity=64 time=0
note_on channel=3 note=68 velocity=80 time=0
note_on channel=3 note=64 velocity=80 time=0
note_on channel=3 note=59 velocity=80 time=0
note_on channel=3 note=52 velocity=80 time=0
note_off channel=3 note=68 velocity=64 time=960
note_off channel=3 note=64 velocity=64 time=0
note_off channel=3 note=59 velocity=64 time=0
note_off channel=3 note=52 velocity=64 time=0
note_on channel=3 note=69 velocity=80 time=0
note_on channel=3 note=66 velocity=80 time=0
note_on channel=3 note=62 velocity=80 time=0
note_on channel=3 note=57 velocity=80 time=0
note_off channel=3 note=69 velocity=64 time=960
note_off channel=3 note=66 velocity=64 time=0
note_off channel=3 note=62 velocity=64 time=0
note_off channel=3 note=57 velocity=64 time=0
note_on channel=3 note=68 velocity=80 time=0
note_on channel=3 note=64 velocity=80 time=0
note_on channel=3 note=59 velocity=80 time=0
note_on channel=3 note=52 velocity=80 time=0
note_off channel=3 note=68 velocity=64 time=960
note_off channel=3 note=64 velocity=64 time=0
note_off channel=3 note=59 velocity=64 time=0
note_off channel=3 note=52 velocity=64 time=0
note_on channel=3 note=66 velocity=80 time=19200
note_on channel=3 note=62 velocity=80 time=0
note_on channel=3 note=57 velocity=80 time=0
note_off channel=3 note=66 velocity=64 time=960
note_off channel=3 note=62 velocity=64 time=0
note_off channel=3 note=57 velocity=64 time=0
note_on channel=3 note=68 velocity=80 time=0
note_on channel=3 note=64 velocity=80 time=0
note_on channel=3 note=59 velocity=80 time=0
note_off channel=3 note=68 velocity=64 time=960
note_off channel=3 note=64 velocity=64 time=0
note_off channel=3 note=59 velocity=64 time=0
note_on channel=3 note=73 velocity=80 time=0
note_on channel=3 note=69 velocity=80 time=0
note_on channel=3 note=64 velocity=80 time=0
note_off channel=3 note=73 velocity=64 time=960
note_off channel=3 note=69 velocity=64 time=0
note_off channel=3 note=64 velocity=64 time=0
note_on channel=3 note=68 velocity=80 time=0
note_on channel=3 note=64 velocity=80 time=0
note_on channel=3 note=59 velocity=80 time=0
note_off channel=3 note=68 velocity=64 time=960
note_off channel=3 note=64 velocity=64 time=0
note_off channel=3 note=59 velocity=64 time=0
note_on channel=3 note=66 velocity=80 time=3840
note_on channel=3 note=62 velocity=80 time=0
note_on channel=3 note=57 velocity=80 time=0
note_off channel=3 note=66 velocity=64 time=960
note_off channel=3 note=62 velocity=64 time=0
note_off channel=3 note=57 velocity=64 time=0
note_on channel=3 note=68 velocity=80 time=0
note_on channel=3 note=64 velocity=80 time=0
note_on channel=3 note=59 velocity=80 time=0
note_off channel=3 note=68 velocity=64 time=960
note_off channel=3 note=64 velocity=64 time=0
note_off channel=3 note=59 velocity=64 time=0
note_on channel=3 note=73 velocity=80 time=0
note_on channel=3 note=69 velocity=80 time=0
note_on channel=3 note=64 velocity=80 time=0
note_off channel=3 note=73 velocity=64 time=960
note_off channel=3 note=69 velocity=64 time=0
note_off channel=3 note=64 velocity=64 time=0
note_on channel=3 note=68 velocity=80 time=0
note_on channel=3 note=64 velocity=80 time=0
note_on channel=3 note=59 velocity=80 time=0
note_off channel=3 note=68 velocity=64 time=960
note_off channel=3 note=64 velocity=64 time=0
note_off channel=3 note=59 velocity=64 time=0
note_on channel=3 note=69 velocity=80 time=0
note_on channel=3 note=66 velocity=80 time=0
note_on channel=3 note=61 velocity=80 time=0
note_off channel=3 note=69 velocity=64 time=960
note_off channel=3 note=66 velocity=64 time=0
note_off channel=3 note=61 velocity=64 time=0
note_on channel=3 note=69 velocity=80 time=29760
note_on channel=3 note=66 velocity=80 time=0
note_on channel=3 note=61 velocity=80 time=0
note_off channel=3 note=69 velocity=64 time=960
note_off channel=3 note=66 velocity=64 time=0
note_off channel=3 note=61 velocity=64 time=0
note_on channel=3 note=68 velocity=80 time=0
note_on channel=3 note=64 velocity=80 time=0
note_on channel=3 note=59 velocity=80 time=0
note_off channel=3 note=68 velocity=64 time=960
note_off channel=3 note=64 velocity=64 time=0
note_off channel=3 note=59 velocity=64 time=0
note_on channel=3 note=69 velocity=80 time=0
note_on channel=3 note=64 velocity=80 time=0
note_on channel=3 note=61 velocity=80 time=0
note_off channel=3 note=69 velocity=64 time=960
note_off channel=3 note=64 velocity=64 time=0
note_off channel=3 note=61 velocity=64 time=0
note_on channel=3 note=68 velocity=80 time=0
note_on channel=3 note=64 velocity=80 time=0
note_on channel=3 note=59 velocity=80 time=0
note_off channel=3 note=68 velocity=64 time=960
note_off channel=3 note=64 velocity=64 time=0
note_off channel=3 note=59 velocity=64 time=0
note_on channel=3 note=69 velocity=80 time=0
note_on channel=3 note=66 velocity=80 time=0
note_on channel=3 note=61 velocity=80 time=0
note_off channel=3 note=69 velocity=64 time=960
note_off channel=3 note=66 velocity=64 time=0
note_off channel=3 note=61 velocity=64 time=0
note_on channel=3 note=68 velocity=80 time=0
note_on channel=3 note=64 velocity=80 time=0
note_on channel=3 note=59 velocity=80 time=0
note_off channel=3 note=68 velocity=64 time=960
note_off channel=3 note=64 velocity=64 time=0
note_off channel=3 note=59 velocity=64 time=0
note_on channel=3 note=69 velocity=80 time=0
note_on channel=3 note=66 velocity=80 time=0
note_on channel=3 note=62 velocity=80 time=0
note_off channel=3 note=69 velocity=64 time=960
note_off channel=3 note=66 velocity=64 time=0
note_off channel=3 note=62 velocity=64 time=0
note_on channel=3 note=71 velocity=80 time=0
note_on channel=3 note=68 velocity=80 time=0
note_on channel=3 note=64 velocity=80 time=0
note_off channel=3 note=71 velocity=64 time=960
note_off channel=3 note=68 velocity=64 time=0
note_off channel=3 note=64 velocity=64 time=0
note_on channel=3 note=69 velocity=80 time=0
note_on channel=3 note=66 velocity=80 time=0
note_on channel=3 note=61 velocity=80 time=0
note_off channel=3 note=69 velocity=64 time=960
note_off channel=3 note=66 velocity=64 time=0
note_off channel=3 note=61 velocity=64 time=0
note_on channel=3 note=68 velocity=80 time=0
note_on channel=3 note=64 velocity=80 time=0
note_on channel=3 note=59 velocity=80 time=0
note_off channel=3 note=68 velocity=64 time=960
note_off channel=3 note=64 velocity=64 time=0
note_off channel=3 note=59 velocity=64 time=0
note_on channel=3 note=69 velocity=80 time=0
note_on channel=3 note=64 velocity=80 time=0
note_on channel=3 note=61 velocity=80 time=0
note_off channel=3 note=69 velocity=64 time=960
note_off channel=3 note=64 velocity=64 time=0
note_off channel=3 note=61 velocity=64 time=0
note_on channel=3 note=68 velocity=80 time=0
note_on channel=3 note=64 velocity=80 time=0
note_on channel=3 note=59 velocity=80 time=0
note_off channel=3 note=68 velocity=64 time=960
note_off channel=3 note=64 velocity=64 time=0
note_off channel=3 note=59 velocity=64 time=0
note_on channel=3 note=69 velocity=80 time=0
note_on channel=3 note=66 velocity=80 time=0
note_on channel=3 note=61 velocity=80 time=0
note_off channel=3 note=69 velocity=64 time=960
note_off channel=3 note=66 velocity=64 time=0
note_off channel=3 note=61 velocity=64 time=0
note_on channel=3 note=68 velocity=80 time=0
note_on channel=3 note=64 velocity=80 time=0
note_on channel=3 note=59 velocity=80 time=0
note_off channel=3 note=68 velocity=64 time=960
note_off channel=3 note=64 velocity=64 time=0
note_off channel=3 note=59 velocity=64 time=0
note_on channel=3 note=69 velocity=80 time=0
note_on channel=3 note=66 velocity=80 time=0
note_on channel=3 note=62 velocity=80 time=0
note_off channel=3 note=69 velocity=64 time=960
note_off channel=3 note=66 velocity=64 time=0
note_off channel=3 note=62 velocity=64 time=0
note_on channel=3 note=68 velocity=80 time=0
note_on channel=3 note=64 velocity=80 time=0
note_on channel=3 note=59 velocity=80 time=0
note_off channel=3 note=68 velocity=64 time=960
note_off channel=3 note=64 velocity=64 time=0
note_off channel=3 note=59 velocity=64 time=0
note_on channel=3 note=69 velocity=80 time=0
note_on channel=3 note=66 velocity=80 time=0
note_off channel=3 note=69 velocity=64 time=960
note_off channel=3 note=66 velocity=64 time=0
note_on channel=3 note=68 velocity=80 time=0
note_on channel=3 note=64 velocity=80 time=0
note_off channel=3 note=68 velocity=64 time=960
note_off channel=3 note=64 velocity=64 time=0
note_on channel=3 note=69 velocity=80 time=0
note_on channel=3 note=66 velocity=80 time=0
note_off channel=3 note=69 velocity=64 time=960
note_off channel=3 note=66 velocity=64 time=0
note_on channel=3 note=68 velocity=80 time=0
note_on channel=3 note=64 velocity=80 time=0
note_off channel=3 note=68 velocity=64 time=960
note_off channel=3 note=64 velocity=64 time=0
note_on channel=3 note=69 velocity=80 time=0
note_on channel=3 note=66 velocity=80 time=0
note_off channel=3 note=69 velocity=64 time=960
note_off channel=3 note=66 velocity=64 time=0
note_on channel=3 note=68 velocity=80 time=0
note_on channel=3 note=64 velocity=80 time=0
note_off channel=3 note=68 velocity=64 time=960
note_off channel=3 note=64 velocity=64 time=0
note_on channel=3 note=69 velocity=80 time=0
note_on channel=3 note=66 velocity=80 time=0
note_off channel=3 note=69 velocity=64 time=960
note_off channel=3 note=66 velocity=64 time=0
note_on channel=3 note=68 velocity=80 time=0
note_on channel=3 note=64 velocity=80 time=0
note_off channel=3 note=68 velocity=64 time=960
note_off channel=3 note=64 velocity=64 time=0
note_on channel=3 note=69 velocity=80 time=0
note_on channel=3 note=66 velocity=80 time=0
note_on channel=3 note=61 velocity=80 time=0
note_on channel=3 note=54 velocity=80 time=0
note_off channel=3 note=69 velocity=64 time=960
note_off channel=3 note=66 velocity=64 time=0
note_off channel=3 note=61 velocity=64 time=0
note_off channel=3 note=54 velocity=64 time=0
note_on channel=3 note=68 velocity=80 time=0
note_on channel=3 note=64 velocity=80 time=0
note_on channel=3 note=59 velocity=80 time=0
note_on channel=3 note=52 velocity=80 time=0
note_off channel=3 note=68 velocity=64 time=960
note_off channel=3 note=64 velocity=64 time=0
note_off channel=3 note=59 velocity=64 time=0
note_off channel=3 note=52 velocity=64 time=0
note_on channel=3 note=69 velocity=80 time=0
note_on channel=3 note=66 velocity=80 time=0
note_on channel=3 note=62 velocity=80 time=0
note_on channel=3 note=57 velocity=80 time=0
note_off channel=3 note=69 velocity=64 time=960
note_off channel=3 note=66 velocity=64 time=0
note_off channel=3 note=62 velocity=64 time=0
note_off channel=3 note=57 velocity=64 time=0
note_on channel=3 note=68 velocity=80 time=0
note_on channel=3 note=64 velocity=80 time=0
note_on channel=3 note=59 velocity=80 time=0
note_on channel=3 note=52 velocity=80 time=0
note_off channel=3 note=68 velocity=64 time=960
note_off channel=3 note=64 velocity=64 time=0
note_off channel=3 note=59 velocity=64 time=0
note_off channel=3 note=52 velocity=64 time=0
note_on channel=3 note=69 velocity=80 time=0
note_on channel=3 note=66 velocity=80 time=0
note_on channel=3 note=61 velocity=80 time=0
note_on channel=3 note=54 velocity=80 time=0
note_off channel=3 note=69 velocity=64 time=960
note_off channel=3 note=66 velocity=64 time=0
note_off channel=3 note=61 velocity=64 time=0
note_off channel=3 note=54 velocity=64 time=0
note_on channel=3 note=68 velocity=80 time=0
note_on channel=3 note=64 velocity=80 time=0
note_on channel=3 note=59 velocity=80 time=0
note_on channel=3 note=52 velocity=80 time=0
note_off channel=3 note=68 velocity=64 time=960
note_off channel=3 note=64 velocity=64 time=0
note_off channel=3 note=59 velocity=64 time=0
note_off channel=3 note=52 velocity=64 time=0
note_on channel=3 note=69 velocity=80 time=0
note_on channel=3 note=66 velocity=80 time=0
note_on channel=3 note=62 velocity=80 time=0
note_on channel=3 note=57 velocity=80 time=0
note_off channel=3 note=69 velocity=64 time=960
note_off channel=3 note=66 velocity=64 time=0
note_off channel=3 note=62 velocity=64 time=0
note_off channel=3 note=57 velocity=64 time=0
note_on channel=3 note=68 velocity=80 time=0
note_on channel=3 note=64 velocity=80 time=0
note_on channel=3 note=59 velocity=80 time=0
note_on channel=3 note=52 velocity=80 time=0
note_off channel=3 note=68 velocity=64 time=960
note_off channel=3 note=64 velocity=64 time=0
note_off channel=3 note=59 velocity=64 time=0
note_off channel=3 note=52 velocity=64 time=0
note_on channel=3 note=66 velocity=80 time=0
note_off channel=3 note=66 velocity=64 time=1920
MetaMessage('end_of_track', time=0)
MetaMessage('track_name', name='A\x8eA«AYAL ALA¨A2A\xa0A°A\xa0', time=0)
program_change channel=0 program=30 time=0
note_on channel=0 note=54 velocity=80 time=0
note_on channel=0 note=49 velocity=80 time=0
note_on channel=0 note=42 velocity=80 time=0
note_off channel=0 note=54 velocity=64 time=240
note_off channel=0 note=49 velocity=64 time=0
note_off channel=0 note=42 velocity=64 time=0
note_on channel=0 note=54 velocity=80 time=0
note_on channel=0 note=49 velocity=80 time=0
note_on channel=0 note=42 velocity=80 time=0
note_off channel=0 note=54 velocity=64 time=240
note_off channel=0 note=49 velocity=64 time=0
note_off channel=0 note=42 velocity=64 time=0
note_on channel=0 note=54 velocity=80 time=240
note_on channel=0 note=49 velocity=80 time=0
note_on channel=0 note=42 velocity=80 time=0
note_off channel=0 note=54 velocity=64 time=240
note_off channel=0 note=49 velocity=64 time=0
note_off channel=0 note=42 velocity=64 time=0
note_on channel=0 note=54 velocity=80 time=0
note_on channel=0 note=49 velocity=80 time=0
note_on channel=0 note=42 velocity=80 time=0
note_off channel=0 note=54 velocity=64 time=240
note_off channel=0 note=49 velocity=64 time=0
note_off channel=0 note=42 velocity=64 time=0
note_on channel=0 note=54 velocity=80 time=240
note_on channel=0 note=49 velocity=80 time=0
note_on channel=0 note=42 velocity=80 time=0
note_off channel=0 note=54 velocity=64 time=240
note_off channel=0 note=49 velocity=64 time=0
note_off channel=0 note=42 velocity=64 time=0
note_on channel=0 note=50 velocity=80 time=0
note_on channel=0 note=45 velocity=80 time=0
note_on channel=0 note=38 velocity=80 time=0
note_off channel=0 note=50 velocity=64 time=240
note_off channel=0 note=45 velocity=64 time=0
note_off channel=0 note=38 velocity=64 time=0
note_on channel=0 note=50 velocity=80 time=240
note_on channel=0 note=45 velocity=80 time=0
note_on channel=0 note=38 velocity=80 time=0
note_off channel=0 note=50 velocity=64 time=240
note_off channel=0 note=45 velocity=64 time=0
note_off channel=0 note=38 velocity=64 time=0
note_on channel=0 note=50 velocity=80 time=0
note_on channel=0 note=45 velocity=80 time=0
note_on channel=0 note=38 velocity=80 time=0
note_off channel=0 note=50 velocity=64 time=240
note_off channel=0 note=45 velocity=64 time=0
note_off channel=0 note=38 velocity=64 time=0
note_on channel=0 note=52 velocity=80 time=240
note_on channel=0 note=47 velocity=80 time=0
note_on channel=0 note=40 velocity=80 time=0
note_off channel=0 note=52 velocity=64 time=240
note_off channel=0 note=47 velocity=64 time=0
note_off channel=0 note=40 velocity=64 time=0
note_on channel=0 note=40 velocity=80 time=0
note_off channel=0 note=40 velocity=64 time=120
note_on channel=0 note=40 velocity=80 time=0
note_off channel=0 note=40 velocity=64 time=120
note_on channel=0 note=52 velocity=80 time=0
note_on channel=0 note=47 velocity=80 time=0
note_on channel=0 note=40 velocity=80 time=0
note_off channel=0 note=52 velocity=64 time=240
note_off channel=0 note=47 velocity=64 time=0
note_off channel=0 note=40 velocity=64 time=0
note_on channel=0 note=52 velocity=80 time=0
note_on channel=0 note=47 velocity=80 time=0
note_on channel=0 note=40 velocity=80 time=0
note_off channel=0 note=52 velocity=64 time=240
note_off channel=0 note=47 velocity=64 time=0
note_off channel=0 note=40 velocity=64 time=0
note_on channel=0 note=54 velocity=80 time=0
note_on channel=0 note=49 velocity=80 time=0
note_on channel=0 note=42 velocity=80 time=0
note_off channel=0 note=54 velocity=64 time=240
note_off channel=0 note=49 velocity=64 time=0
note_off channel=0 note=42 velocity=64 time=0
note_on channel=0 note=54 velocity=80 time=0
note_on channel=0 note=49 velocity=80 time=0
note_on channel=0 note=42 velocity=80 time=0
note_off channel=0 note=54 velocity=64 time=240
note_off channel=0 note=49 velocity=64 time=0
note_off channel=0 note=42 velocity=64 time=0
note_on channel=0 note=54 velocity=80 time=240
note_on channel=0 note=49 velocity=80 time=0
note_on channel=0 note=42 velocity=80 time=0
note_off channel=0 note=54 velocity=64 time=240
note_off channel=0 note=49 velocity=64 time=0
note_off channel=0 note=42 velocity=64 time=0
note_on channel=0 note=54 velocity=80 time=0
note_on channel=0 note=49 velocity=80 time=0
note_on channel=0 note=42 velocity=80 time=0
note_off channel=0 note=54 velocity=64 time=240
note_off channel=0 note=49 velocity=64 time=0
note_off channel=0 note=42 velocity=64 time=0
note_on channel=0 note=54 velocity=80 time=240
note_on channel=0 note=49 velocity=80 time=0
note_on channel=0 note=42 velocity=80 time=0
note_off channel=0 note=54 velocity=64 time=240
note_off channel=0 note=49 velocity=64 time=0
note_off channel=0 note=42 velocity=64 time=0
note_on channel=0 note=50 velocity=80 time=0
note_on channel=0 note=45 velocity=80 time=0
note_on channel=0 note=38 velocity=80 time=0
note_off channel=0 note=50 velocity=64 time=240
note_off channel=0 note=45 velocity=64 time=0
note_off channel=0 note=38 velocity=64 time=0
note_on channel=0 note=50 velocity=80 time=240
note_on channel=0 note=45 velocity=80 time=0
note_on channel=0 note=38 velocity=80 time=0
note_off channel=0 note=50 velocity=64 time=240
note_off channel=0 note=45 velocity=64 time=0
note_off channel=0 note=38 velocity=64 time=0
note_on channel=0 note=50 velocity=80 time=0
note_on channel=0 note=45 velocity=80 time=0
note_on channel=0 note=38 velocity=80 time=0
note_off channel=0 note=50 velocity=64 time=240
note_off channel=0 note=45 velocity=64 time=0
note_off channel=0 note=38 velocity=64 time=0
note_on channel=0 note=52 velocity=80 time=240
note_on channel=0 note=47 velocity=80 time=0
note_on channel=0 note=40 velocity=80 time=0
note_off channel=0 note=52 velocity=64 time=240
note_off channel=0 note=47 velocity=64 time=0
note_off channel=0 note=40 velocity=64 time=0
note_on channel=0 note=40 velocity=80 time=0
note_off channel=0 note=40 velocity=64 time=120
note_on channel=0 note=40 velocity=80 time=0
note_off channel=0 note=40 velocity=64 time=120
note_on channel=0 note=52 velocity=80 time=0
note_on channel=0 note=47 velocity=80 time=0
note_on channel=0 note=40 velocity=80 time=0
note_off channel=0 note=52 velocity=64 time=240
note_off channel=0 note=47 velocity=64 time=0
note_off channel=0 note=40 velocity=64 time=0
note_on channel=0 note=52 velocity=80 time=0
note_on channel=0 note=47 velocity=80 time=0
note_on channel=0 note=40 velocity=80 time=0
note_off channel=0 note=52 velocity=64 time=240
note_off channel=0 note=47 velocity=64 time=0
note_off channel=0 note=40 velocity=64 time=0
note_on channel=0 note=54 velocity=80 time=0
note_on channel=0 note=49 velocity=80 time=0
note_on channel=0 note=42 velocity=80 time=0
note_off channel=0 note=54 velocity=64 time=240
note_off channel=0 note=49 velocity=64 time=0
note_off channel=0 note=42 velocity=64 time=0
note_on channel=0 note=54 velocity=80 time=0
note_on channel=0 note=49 velocity=80 time=0
note_on channel=0 note=42 velocity=80 time=0
note_off channel=0 note=54 velocity=64 time=240
note_off channel=0 note=49 velocity=64 time=0
note_off channel=0 note=42 velocity=64 time=0
note_on channel=0 note=54 velocity=80 time=240
note_on channel=0 note=49 velocity=80 time=0
note_on channel=0 note=42 velocity=80 time=0
note_off channel=0 note=54 velocity=64 time=240
note_off channel=0 note=49 velocity=64 time=0
note_off channel=0 note=42 velocity=64 time=0
note_on channel=0 note=54 velocity=80 time=0
note_on channel=0 note=49 velocity=80 time=0
note_on channel=0 note=42 velocity=80 time=0
note_off channel=0 note=54 velocity=64 time=240
note_off channel=0 note=49 velocity=64 time=0
note_off channel=0 note=42 velocity=64 time=0
note_on channel=0 note=54 velocity=80 time=240
note_on channel=0 note=49 velocity=80 time=0
note_on channel=0 note=42 velocity=80 time=0
note_off channel=0 note=54 velocity=64 time=240
note_off channel=0 note=49 velocity=64 time=0
note_off channel=0 note=42 velocity=64 time=0
note_on channel=0 note=50 velocity=80 time=0
note_on channel=0 note=45 velocity=80 time=0
note_on channel=0 note=38 velocity=80 time=0
note_off channel=0 note=50 velocity=64 time=240
note_off channel=0 note=45 velocity=64 time=0
note_off channel=0 note=38 velocity=64 time=0
note_on channel=0 note=50 velocity=80 time=240
note_on channel=0 note=45 velocity=80 time=0
note_on channel=0 note=38 velocity=80 time=0
note_off channel=0 note=50 velocity=64 time=240
note_off channel=0 note=45 velocity=64 time=0
note_off channel=0 note=38 velocity=64 time=0
note_on channel=0 note=50 velocity=80 time=0
note_on channel=0 note=45 velocity=80 time=0
note_on channel=0 note=38 velocity=80 time=0
note_off channel=0 note=50 velocity=64 time=240
note_off channel=0 note=45 velocity=64 time=0
note_off channel=0 note=38 velocity=64 time=0
note_on channel=0 note=52 velocity=80 time=240
note_on channel=0 note=47 velocity=80 time=0
note_on channel=0 note=40 velocity=80 time=0
note_off channel=0 note=52 velocity=64 time=240
note_off channel=0 note=47 velocity=64 time=0
note_off channel=0 note=40 velocity=64 time=0
note_on channel=0 note=40 velocity=80 time=0
note_off channel=0 note=40 velocity=64 time=120
note_on channel=0 note=40 velocity=80 time=0
note_off channel=0 note=40 velocity=64 time=120
note_on channel=0 note=52 velocity=80 time=0
note_on channel=0 note=47 velocity=80 time=0
note_on channel=0 note=40 velocity=80 time=0
note_off channel=0 note=52 velocity=64 time=240
note_off channel=0 note=47 velocity=64 time=0
note_off channel=0 note=40 velocity=64 time=0
note_on channel=0 note=52 velocity=80 time=0
note_on channel=0 note=47 velocity=80 time=0
note_on channel=0 note=40 velocity=80 time=0
note_off channel=0 note=52 velocity=64 time=240
note_off channel=0 note=47 velocity=64 time=0
note_off channel=0 note=40 velocity=64 time=0
note_on channel=0 note=54 velocity=80 time=0
note_on channel=0 note=49 velocity=80 time=0
note_on channel=0 note=42 velocity=80 time=0
note_off channel=0 note=54 velocity=64 time=240
note_off channel=0 note=49 velocity=64 time=0
note_off channel=0 note=42 velocity=64 time=0
note_on channel=0 note=54 velocity=80 time=0
note_on channel=0 note=49 velocity=80 time=0
note_on channel=0 note=42 velocity=80 time=0
note_off channel=0 note=54 velocity=64 time=240
note_off channel=0 note=49 velocity=64 time=0
note_off channel=0 note=42 velocity=64 time=0
note_on channel=0 note=54 velocity=80 time=240
note_on channel=0 note=49 velocity=80 time=0
note_on channel=0 note=42 velocity=80 time=0
note_off channel=0 note=54 velocity=64 time=240
note_off channel=0 note=49 velocity=64 time=0
note_off channel=0 note=42 velocity=64 time=0
note_on channel=0 note=54 velocity=80 time=0
note_on channel=0 note=49 velocity=80 time=0
note_on channel=0 note=42 velocity=80 time=0
note_off channel=0 note=54 velocity=64 time=240
note_off channel=0 note=49 velocity=64 time=0
note_off channel=0 note=42 velocity=64 time=0
note_on channel=0 note=54 velocity=80 time=240
note_on channel=0 note=49 velocity=80 time=0
note_on channel=0 note=42 velocity=80 time=0
note_off channel=0 note=54 velocity=64 time=240
note_off channel=0 note=49 velocity=64 time=0
note_off channel=0 note=42 velocity=64 time=0
note_on channel=0 note=50 velocity=80 time=0
note_on channel=0 note=45 velocity=80 time=0
note_on channel=0 note=38 velocity=80 time=0
note_off channel=0 note=50 velocity=64 time=240
note_off channel=0 note=45 velocity=64 time=0
note_off channel=0 note=38 velocity=64 time=0
note_on channel=0 note=50 velocity=80 time=240
note_on channel=0 note=45 velocity=80 time=0
note_on channel=0 note=38 velocity=80 time=0
note_off channel=0 note=50 velocity=64 time=240
note_off channel=0 note=45 velocity=64 time=0
note_off channel=0 note=38 velocity=64 time=0
note_on channel=0 note=50 velocity=80 time=0
note_on channel=0 note=45 velocity=80 time=0
note_on channel=0 note=38 velocity=80 time=0
note_off channel=0 note=50 velocity=64 time=240
note_off channel=0 note=45 velocity=64 time=0
note_off channel=0 note=38 velocity=64 time=0
note_on channel=0 note=52 velocity=80 time=240
note_on channel=0 note=47 velocity=80 time=0
note_on channel=0 note=40 velocity=80 time=0
note_off channel=0 note=52 velocity=64 time=240
note_off channel=0 note=47 velocity=64 time=0
note_off channel=0 note=40 velocity=64 time=0
note_on channel=0 note=40 velocity=80 time=0
note_off channel=0 note=40 velocity=64 time=120
note_on channel=0 note=40 velocity=80 time=0
note_off channel=0 note=40 velocity=64 time=120
note_on channel=0 note=52 velocity=80 time=0
note_on channel=0 note=47 velocity=80 time=0
note_on channel=0 note=40 velocity=80 time=0
note_off channel=0 note=52 velocity=64 time=240
note_off channel=0 note=47 velocity=64 time=0
note_off channel=0 note=40 velocity=64 time=0
note_on channel=0 note=52 velocity=80 time=0
note_on channel=0 note=47 velocity=80 time=0
note_on channel=0 note=40 velocity=80 time=0
note_off channel=0 note=52 velocity=64 time=240
note_off channel=0 note=47 velocity=64 time=0
note_off channel=0 note=40 velocity=64 time=0
note_on channel=0 note=42 velocity=80 time=0
note_off channel=0 note=42 velocity=64 time=120
note_on channel=0 note=42 velocity=80 time=0
note_off channel=0 note=42 velocity=64 time=120
note_on channel=0 note=42 velocity=80 time=0
note_off channel=0 note=42 velocity=64 time=120
note_on channel=0 note=42 velocity=80 time=0
note_off channel=0 note=42 velocity=64 time=120
note_on channel=0 note=54 velocity=80 time=0
note_on channel=0 note=49 velocity=80 time=0
note_on channel=0 note=42 velocity=80 time=0
note_off channel=0 note=54 velocity=64 time=240
note_off channel=0 note=49 velocity=64 time=0
note_off channel=0 note=42 velocity=64 time=0
note_on channel=0 note=54 velocity=80 time=0
note_on channel=0 note=49 velocity=80 time=0
note_on channel=0 note=42 velocity=80 time=0
note_off channel=0 note=54 velocity=64 time=240
note_off channel=0 note=49 velocity=64 time=0
note_off channel=0 note=42 velocity=64 time=0
note_on channel=0 note=45 velocity=80 time=0
note_off channel=0 note=45 velocity=64 time=240
note_on channel=0 note=44 velocity=80 time=0
note_off channel=0 note=44 velocity=64 time=240
note_on channel=0 note=45 velocity=80 time=0
note_off channel=0 note=45 velocity=64 time=240
note_on channel=0 note=44 velocity=80 time=0
note_off channel=0 note=44 velocity=64 time=240
note_on channel=0 note=42 velocity=80 time=0
note_off channel=0 note=42 velocity=64 time=120
note_on channel=0 note=42 velocity=80 time=0
note_off channel=0 note=42 velocity=64 time=120
note_on channel=0 note=42 velocity=80 time=0
note_off channel=0 note=42 velocity=64 time=120
note_on channel=0 note=42 velocity=80 time=0
note_off channel=0 note=42 velocity=64 time=120
note_on channel=0 note=54 velocity=80 time=0
note_on channel=0 note=49 velocity=80 time=0
note_on channel=0 note=42 velocity=80 time=0
note_off channel=0 note=54 velocity=64 time=240
note_off channel=0 note=49 velocity=64 time=0
note_off channel=0 note=42 velocity=64 time=0
note_on channel=0 note=54 velocity=80 time=0
note_on channel=0 note=49 velocity=80 time=0
note_on channel=0 note=42 velocity=80 time=0
note_off channel=0 note=54 velocity=64 time=240
note_off channel=0 note=49 velocity=64 time=0
note_off channel=0 note=42 velocity=64 time=0
note_on channel=0 note=45 velocity=80 time=0
note_off channel=0 note=45 velocity=64 time=240
note_on channel=0 note=44 velocity=80 time=0
note_off channel=0 note=44 velocity=64 time=240
note_on channel=0 note=45 velocity=80 time=0
note_off channel=0 note=45 velocity=64 time=240
note_on channel=0 note=44 velocity=80 time=0
note_off channel=0 note=44 velocity=64 time=240
note_on channel=0 note=50 velocity=80 time=0
note_on channel=0 note=45 velocity=80 time=0
note_on channel=0 note=38 velocity=80 time=0
note_off channel=0 note=50 velocity=64 time=240
note_off channel=0 note=45 velocity=64 time=0
note_off channel=0 note=38 velocity=64 time=0
note_on channel=0 note=50 velocity=80 time=0
note_on channel=0 note=45 velocity=80 time=0
note_on channel=0 note=38 velocity=80 time=0
note_off channel=0 note=50 velocity=64 time=240
note_off channel=0 note=45 velocity=64 time=0
note_off channel=0 note=38 velocity=64 time=0
note_on channel=0 note=50 velocity=80 time=240
note_on channel=0 note=45 velocity=80 time=0
note_on channel=0 note=38 velocity=80 time=0
note_off channel=0 note=50 velocity=64 time=240
note_off channel=0 note=45 velocity=64 time=0
note_off channel=0 note=38 velocity=64 time=0
note_on channel=0 note=52 velocity=80 time=0
note_on channel=0 note=47 velocity=80 time=0
note_on channel=0 note=40 velocity=80 time=0
note_off channel=0 note=52 velocity=64 time=240
note_off channel=0 note=47 velocity=64 time=0
note_off channel=0 note=40 velocity=64 time=0
note_on channel=0 note=52 velocity=80 time=240
note_on channel=0 note=47 velocity=80 time=0
note_on channel=0 note=40 velocity=80 time=0
note_off channel=0 note=52 velocity=64 time=240
note_off channel=0 note=47 velocity=64 time=0
note_off channel=0 note=40 velocity=64 time=0
note_on channel=0 note=52 velocity=80 time=0
note_on channel=0 note=47 velocity=80 time=0
note_on channel=0 note=40 velocity=80 time=0
note_off channel=0 note=52 velocity=64 time=240
note_off channel=0 note=47 velocity=64 time=0
note_off channel=0 note=40 velocity=64 time=0
note_on channel=0 note=57 velocity=80 time=0
note_on channel=0 note=52 velocity=80 time=0
note_on channel=0 note=45 velocity=80 time=0
note_off channel=0 note=57 velocity=64 time=240
note_off channel=0 note=52 velocity=64 time=0
note_off channel=0 note=45 velocity=64 time=0
note_on channel=0 note=57 velocity=80 time=0
note_on channel=0 note=52 velocity=80 time=0
note_on channel=0 note=45 velocity=80 time=0
note_off channel=0 note=57 velocity=64 time=240
note_off channel=0 note=52 velocity=64 time=0
note_off channel=0 note=45 velocity=64 time=0
note_on channel=0 note=57 velocity=80 time=0
note_on channel=0 note=52 velocity=80 time=0
note_on channel=0 note=45 velocity=80 time=0
note_off channel=0 note=57 velocity=64 time=240
note_off channel=0 note=52 velocity=64 time=0
note_off channel=0 note=45 velocity=64 time=0
note_on channel=0 note=57 velocity=80 time=0
note_on channel=0 note=52 velocity=80 time=0
note_on channel=0 note=45 velocity=80 time=0
note_off channel=0 note=57 velocity=64 time=240
note_off channel=0 note=52 velocity=64 time=0
note_off channel=0 note=45 velocity=64 time=0
note_on channel=0 note=52 velocity=80 time=0
note_on channel=0 note=47 velocity=80 time=0
note_on channel=0 note=40 velocity=80 time=0
note_off channel=0 note=52 velocity=64 time=240
note_off channel=0 note=47 velocity=64 time=0
note_off channel=0 note=40 velocity=64 time=0
note_on channel=0 note=52 velocity=80 time=0
note_on channel=0 note=47 velocity=80 time=0
note_on channel=0 note=40 velocity=80 time=0
note_off channel=0 note=52 velocity=64 time=240
note_off channel=0 note=47 velocity=64 time=0
note_off channel=0 note=40 velocity=64 time=0
note_on channel=0 note=52 velocity=80 time=0
note_on channel=0 note=47 velocity=80 time=0
note_on channel=0 note=40 velocity=80 time=0
note_off channel=0 note=52 velocity=64 time=240
note_off channel=0 note=47 velocity=64 time=0
note_off channel=0 note=40 velocity=64 time=0
note_on channel=0 note=52 velocity=80 time=0
note_on channel=0 note=47 velocity=80 time=0
note_on channel=0 note=40 velocity=80 time=0
note_off channel=0 note=52 velocity=64 time=240
note_off channel=0 note=47 velocity=64 time=0
note_off channel=0 note=40 velocity=64 time=0
note_on channel=0 note=42 velocity=80 time=0
note_off channel=0 note=42 velocity=64 time=120
note_on channel=0 note=42 velocity=80 time=0
note_off channel=0 note=42 velocity=64 time=120
note_on channel=0 note=42 velocity=80 time=0
note_off channel=0 note=42 velocity=64 time=120
note_on channel=0 note=42 velocity=80 time=0
note_off channel=0 note=42 velocity=64 time=120
note_on channel=0 note=54 velocity=80 time=0
note_on channel=0 note=49 velocity=80 time=0
note_on channel=0 note=42 velocity=80 time=0
note_off channel=0 note=54 velocity=64 time=240
note_off channel=0 note=49 velocity=64 time=0
note_off channel=0 note=42 velocity=64 time=0
note_on channel=0 note=54 velocity=80 time=0
note_on channel=0 note=49 velocity=80 time=0
note_on channel=0 note=42 velocity=80 time=0
note_off channel=0 note=54 velocity=64 time=240
note_off channel=0 note=49 velocity=64 time=0
note_off channel=0 note=42 velocity=64 time=0
note_on channel=0 note=45 velocity=80 time=0
note_off channel=0 note=45 velocity=64 time=240
note_on channel=0 note=44 velocity=80 time=0
note_off channel=0 note=44 velocity=64 time=240
note_on channel=0 note=45 velocity=80 time=0
note_off channel=0 note=45 velocity=64 time=240
note_on channel=0 note=44 velocity=80 time=0
note_off channel=0 note=44 velocity=64 time=240
note_on channel=0 note=42 velocity=80 time=0
note_off channel=0 note=42 velocity=64 time=120
note_on channel=0 note=42 velocity=80 time=0
note_off channel=0 note=42 velocity=64 time=120
note_on channel=0 note=42 velocity=80 time=0
note_off channel=0 note=42 velocity=64 time=120
note_on channel=0 note=42 velocity=80 time=0
note_off channel=0 note=42 velocity=64 time=120
note_on channel=0 note=54 velocity=80 time=0
note_on channel=0 note=49 velocity=80 time=0
note_on channel=0 note=42 velocity=80 time=0
note_off channel=0 note=54 velocity=64 time=240
note_off channel=0 note=49 velocity=64 time=0
note_off channel=0 note=42 velocity=64 time=0
note_on channel=0 note=54 velocity=80 time=0
note_on channel=0 note=49 velocity=80 time=0
note_on channel=0 note=42 velocity=80 time=0
note_off channel=0 note=54 velocity=64 time=240
note_off channel=0 note=49 velocity=64 time=0
note_off channel=0 note=42 velocity=64 time=0
note_on channel=0 note=45 velocity=80 time=0
note_off channel=0 note=45 velocity=64 time=240
note_on channel=0 note=44 velocity=80 time=0
note_off channel=0 note=44 velocity=64 time=240
note_on channel=0 note=45 velocity=80 time=0
note_off channel=0 note=45 velocity=64 time=240
note_on channel=0 note=44 velocity=80 time=0
note_off channel=0 note=44 velocity=64 time=240
note_on channel=0 note=50 velocity=80 time=0
note_on channel=0 note=45 velocity=80 time=0
note_on channel=0 note=38 velocity=80 time=0
note_off channel=0 note=50 velocity=64 time=240
note_off channel=0 note=45 velocity=64 time=0
note_off channel=0 note=38 velocity=64 time=0
note_on channel=0 note=50 velocity=80 time=0
note_on channel=0 note=45 velocity=80 time=0
note_on channel=0 note=38 velocity=80 time=0
note_off channel=0 note=50 velocity=64 time=240
note_off channel=0 note=45 velocity=64 time=0
note_off channel=0 note=38 velocity=64 time=0
note_on channel=0 note=50 velocity=80 time=240
note_on channel=0 note=45 velocity=80 time=0
note_on channel=0 note=38 velocity=80 time=0
note_off channel=0 note=50 velocity=64 time=240
note_off channel=0 note=45 velocity=64 time=0
note_off channel=0 note=38 velocity=64 time=0
note_on channel=0 note=52 velocity=80 time=0
note_on channel=0 note=47 velocity=80 time=0
note_on channel=0 note=40 velocity=80 time=0
note_off channel=0 note=52 velocity=64 time=240
note_off channel=0 note=47 velocity=64 time=0
note_off channel=0 note=40 velocity=64 time=0
note_on channel=0 note=52 velocity=80 time=240
note_on channel=0 note=47 velocity=80 time=0
note_on channel=0 note=40 velocity=80 time=0
note_off channel=0 note=52 velocity=64 time=240
note_off channel=0 note=47 velocity=64 time=0
note_off channel=0 note=40 velocity=64 time=0
note_on channel=0 note=52 velocity=80 time=0
note_on channel=0 note=47 velocity=80 time=0
note_on channel=0 note=40 velocity=80 time=0
note_off channel=0 note=52 velocity=64 time=240
note_off channel=0 note=47 velocity=64 time=0
note_off channel=0 note=40 velocity=64 time=0
note_on channel=0 note=57 velocity=80 time=0
note_on channel=0 note=52 velocity=80 time=0
note_on channel=0 note=45 velocity=80 time=0
note_off channel=0 note=57 velocity=64 time=240
note_off channel=0 note=52 velocity=64 time=0
note_off channel=0 note=45 velocity=64 time=0
note_on channel=0 note=57 velocity=80 time=0
note_on channel=0 note=52 velocity=80 time=0
note_on channel=0 note=45 velocity=80 time=0
note_off channel=0 note=57 velocity=64 time=240
note_off channel=0 note=52 velocity=64 time=0
note_off channel=0 note=45 velocity=64 time=0
note_on channel=0 note=57 velocity=80 time=0
note_on channel=0 note=52 velocity=80 time=0
note_on channel=0 note=45 velocity=80 time=0
note_off channel=0 note=57 velocity=64 time=240
note_off channel=0 note=52 velocity=64 time=0
note_off channel=0 note=45 velocity=64 time=0
note_on channel=0 note=57 velocity=80 time=0
note_on channel=0 note=52 velocity=80 time=0
note_on channel=0 note=45 velocity=80 time=0
note_off channel=0 note=57 velocity=64 time=240
note_off channel=0 note=52 velocity=64 time=0
note_off channel=0 note=45 velocity=64 time=0
note_on channel=0 note=52 velocity=80 time=0
note_on channel=0 note=47 velocity=80 time=0
note_on channel=0 note=40 velocity=80 time=0
note_off channel=0 note=52 velocity=64 time=240
note_off channel=0 note=47 velocity=64 time=0
note_off channel=0 note=40 velocity=64 time=0
note_on channel=0 note=52 velocity=80 time=0
note_on channel=0 note=47 velocity=80 time=0
note_on channel=0 note=40 velocity=80 time=0
note_off channel=0 note=52 velocity=64 time=240
note_off channel=0 note=47 velocity=64 time=0
note_off channel=0 note=40 velocity=64 time=0
note_on channel=0 note=52 velocity=80 time=0
note_on channel=0 note=47 velocity=80 time=0
note_on channel=0 note=40 velocity=80 time=0
note_off channel=0 note=52 velocity=64 time=240
note_off channel=0 note=47 velocity=64 time=0
note_off channel=0 note=40 velocity=64 time=0
note_on channel=0 note=52 velocity=80 time=0
note_on channel=0 note=47 velocity=80 time=0
note_on channel=0 note=40 velocity=80 time=0
note_off channel=0 note=52 velocity=64 time=240
note_off channel=0 note=47 velocity=64 time=0
note_off channel=0 note=40 velocity=64 time=0
note_on channel=0 note=54 velocity=80 time=0
note_on channel=0 note=49 velocity=80 time=0
note_on channel=0 note=42 velocity=80 time=0
note_off channel=0 note=54 velocity=64 time=240
note_off channel=0 note=49 velocity=64 time=0
note_off channel=0 note=42 velocity=64 time=0
note_on channel=0 note=54 velocity=80 time=0
note_on channel=0 note=49 velocity=80 time=0
note_on channel=0 note=42 velocity=80 time=0
note_off channel=0 note=54 velocity=64 time=240
note_off channel=0 note=49 velocity=64 time=0
note_off channel=0 note=42 velocity=64 time=0
note_on channel=0 note=49 velocity=80 time=0
note_on channel=0 note=42 velocity=80 time=0
note_off channel=0 note=49 velocity=64 time=240
note_off channel=0 note=42 velocity=64 time=0
note_on channel=0 note=49 velocity=80 time=0
note_on channel=0 note=42 velocity=80 time=0
note_off channel=0 note=49 velocity=64 time=240
note_off channel=0 note=42 velocity=64 time=0
note_on channel=0 note=49 velocity=80 time=0
note_on channel=0 note=42 velocity=80 time=0
note_off channel=0 note=49 velocity=64 time=240
note_off channel=0 note=42 velocity=64 time=0
note_on channel=0 note=49 velocity=80 time=0
note_on channel=0 note=42 velocity=80 time=0
note_off channel=0 note=49 velocity=64 time=240
note_off channel=0 note=42 velocity=64 time=0
note_on channel=0 note=49 velocity=80 time=0
note_on channel=0 note=42 velocity=80 time=0
note_off channel=0 note=49 velocity=64 time=240
note_off channel=0 note=42 velocity=64 time=0
note_on channel=0 note=49 velocity=80 time=0
note_on channel=0 note=42 velocity=80 time=0
note_off channel=0 note=49 velocity=64 time=240
note_off channel=0 note=42 velocity=64 time=0
note_on channel=0 note=54 velocity=80 time=0
note_on channel=0 note=49 velocity=80 time=0
note_on channel=0 note=42 velocity=80 time=0
note_off channel=0 note=54 velocity=64 time=240
note_off channel=0 note=49 velocity=64 time=0
note_off channel=0 note=42 velocity=64 time=0
note_on channel=0 note=54 velocity=80 time=0
note_on channel=0 note=49 velocity=80 time=0
note_on channel=0 note=42 velocity=80 time=0
note_off channel=0 note=54 velocity=64 time=240
note_off channel=0 note=49 velocity=64 time=0
note_off channel=0 note=42 velocity=64 time=0
note_on channel=0 note=49 velocity=80 time=0
note_on channel=0 note=42 velocity=80 time=0
note_off channel=0 note=49 velocity=64 time=240
note_off channel=0 note=42 velocity=64 time=0
note_on channel=0 note=49 velocity=80 time=0
note_on channel=0 note=42 velocity=80 time=0
note_off channel=0 note=49 velocity=64 time=240
note_off channel=0 note=42 velocity=64 time=0
note_on channel=0 note=49 velocity=80 time=0
note_on channel=0 note=42 velocity=80 time=0
note_off channel=0 note=49 velocity=64 time=240
note_off channel=0 note=42 velocity=64 time=0
note_on channel=0 note=49 velocity=80 time=0
note_on channel=0 note=42 velocity=80 time=0
note_off channel=0 note=49 velocity=64 time=240
note_off channel=0 note=42 velocity=64 time=0
note_on channel=0 note=49 velocity=80 time=0
note_on channel=0 note=42 velocity=80 time=0
note_off channel=0 note=49 velocity=64 time=240
note_off channel=0 note=42 velocity=64 time=0
note_on channel=0 note=49 velocity=80 time=0
note_on channel=0 note=42 velocity=80 time=0
note_off channel=0 note=49 velocity=64 time=240
note_off channel=0 note=42 velocity=64 time=0
note_on channel=0 note=50 velocity=80 time=0
note_on channel=0 note=45 velocity=80 time=0
note_on channel=0 note=38 velocity=80 time=0
note_off channel=0 note=50 velocity=64 time=240
note_off channel=0 note=45 velocity=64 time=0
note_off channel=0 note=38 velocity=64 time=0
note_on channel=0 note=38 velocity=80 time=0
note_off channel=0 note=38 velocity=64 time=120
note_on channel=0 note=38 velocity=80 time=0
note_off channel=0 note=38 velocity=64 time=120
note_on channel=0 note=50 velocity=80 time=0
note_on channel=0 note=45 velocity=80 time=0
note_on channel=0 note=38 velocity=80 time=0
note_off channel=0 note=50 velocity=64 time=240
note_off channel=0 note=45 velocity=64 time=0
note_off channel=0 note=38 velocity=64 time=0
note_on channel=0 note=52 velocity=80 time=240
note_on channel=0 note=47 velocity=80 time=0
note_on channel=0 note=40 velocity=80 time=0
note_off channel=0 note=52 velocity=64 time=240
note_off channel=0 note=47 velocity=64 time=0
note_off channel=0 note=40 velocity=64 time=0
note_on channel=0 note=52 velocity=80 time=240
note_on channel=0 note=47 velocity=80 time=0
note_on channel=0 note=40 velocity=80 time=0
note_off channel=0 note=52 velocity=64 time=240
note_off channel=0 note=47 velocity=64 time=0
note_off channel=0 note=40 velocity=64 time=0
note_on channel=0 note=52 velocity=80 time=0
note_on channel=0 note=47 velocity=80 time=0
note_on channel=0 note=40 velocity=80 time=0
note_off channel=0 note=52 velocity=64 time=240
note_off channel=0 note=47 velocity=64 time=0
note_off channel=0 note=40 velocity=64 time=0
note_on channel=0 note=57 velocity=80 time=0
note_on channel=0 note=52 velocity=80 time=0
note_on channel=0 note=45 velocity=80 time=0
note_off channel=0 note=57 velocity=64 time=240
note_off channel=0 note=52 velocity=64 time=0
note_off channel=0 note=45 velocity=64 time=0
note_on channel=0 note=57 velocity=80 time=0
note_on channel=0 note=52 velocity=80 time=0
note_on channel=0 note=45 velocity=80 time=0
note_off channel=0 note=57 velocity=64 time=240
note_off channel=0 note=52 velocity=64 time=0
note_off channel=0 note=45 velocity=64 time=0
note_on channel=0 note=57 velocity=80 time=0
note_on channel=0 note=52 velocity=80 time=0
note_on channel=0 note=45 velocity=80 time=0
note_off channel=0 note=57 velocity=64 time=240
note_off channel=0 note=52 velocity=64 time=0
note_off channel=0 note=45 velocity=64 time=0
note_on channel=0 note=57 velocity=80 time=0
note_on channel=0 note=52 velocity=80 time=0
note_on channel=0 note=45 velocity=80 time=0
note_off channel=0 note=57 velocity=64 time=240
note_off channel=0 note=52 velocity=64 time=0
note_off channel=0 note=45 velocity=64 time=0
note_on channel=0 note=52 velocity=80 time=0
note_on channel=0 note=47 velocity=80 time=0
note_on channel=0 note=40 velocity=80 time=0
note_off channel=0 note=52 velocity=64 time=240
note_off channel=0 note=47 velocity=64 time=0
note_off channel=0 note=40 velocity=64 time=0
note_on channel=0 note=52 velocity=80 time=0
note_on channel=0 note=47 velocity=80 time=0
note_on channel=0 note=40 velocity=80 time=0
note_off channel=0 note=52 velocity=64 time=240
note_off channel=0 note=47 velocity=64 time=0
note_off channel=0 note=40 velocity=64 time=0
note_on channel=0 note=52 velocity=80 time=0
note_on channel=0 note=47 velocity=80 time=0
note_on channel=0 note=40 velocity=80 time=0
note_off channel=0 note=52 velocity=64 time=240
note_off channel=0 note=47 velocity=64 time=0
note_off channel=0 note=40 velocity=64 time=0
note_on channel=0 note=52 velocity=80 time=0
note_on channel=0 note=47 velocity=80 time=0
note_on channel=0 note=40 velocity=80 time=0
note_off channel=0 note=52 velocity=64 time=240
note_off channel=0 note=47 velocity=64 time=0
note_off channel=0 note=40 velocity=64 time=0
note_on channel=0 note=54 velocity=80 time=0
note_on channel=0 note=49 velocity=80 time=0
note_on channel=0 note=42 velocity=80 time=0
note_off channel=0 note=54 velocity=64 time=240
note_off channel=0 note=49 velocity=64 time=0
note_off channel=0 note=42 velocity=64 time=0
note_on channel=0 note=54 velocity=80 time=0
note_on channel=0 note=49 velocity=80 time=0
note_on channel=0 note=42 velocity=80 time=0
note_off channel=0 note=54 velocity=64 time=240
note_off channel=0 note=49 velocity=64 time=0
note_off channel=0 note=42 velocity=64 time=0
note_on channel=0 note=49 velocity=80 time=0
note_on channel=0 note=42 velocity=80 time=0
note_off channel=0 note=49 velocity=64 time=240
note_off channel=0 note=42 velocity=64 time=0
note_on channel=0 note=49 velocity=80 time=0
note_on channel=0 note=42 velocity=80 time=0
note_off channel=0 note=49 velocity=64 time=240
note_off channel=0 note=42 velocity=64 time=0
note_on channel=0 note=49 velocity=80 time=0
note_on channel=0 note=42 velocity=80 time=0
note_off channel=0 note=49 velocity=64 time=240
note_off channel=0 note=42 velocity=64 time=0
note_on channel=0 note=49 velocity=80 time=0
note_on channel=0 note=42 velocity=80 time=0
note_off channel=0 note=49 velocity=64 time=240
note_off channel=0 note=42 velocity=64 time=0
note_on channel=0 note=49 velocity=80 time=0
note_on channel=0 note=42 velocity=80 time=0
note_off channel=0 note=49 velocity=64 time=240
note_off channel=0 note=42 velocity=64 time=0
note_on channel=0 note=49 velocity=80 time=0
note_on channel=0 note=42 velocity=80 time=0
note_off channel=0 note=49 velocity=64 time=240
note_off channel=0 note=42 velocity=64 time=0
note_on channel=0 note=54 velocity=80 time=0
note_on channel=0 note=49 velocity=80 time=0
note_on channel=0 note=42 velocity=80 time=0
note_off channel=0 note=54 velocity=64 time=240
note_off channel=0 note=49 velocity=64 time=0
note_off channel=0 note=42 velocity=64 time=0
note_on channel=0 note=54 velocity=80 time=0
note_on channel=0 note=49 velocity=80 time=0
note_on channel=0 note=42 velocity=80 time=0
note_off channel=0 note=54 velocity=64 time=240
note_off channel=0 note=49 velocity=64 time=0
note_off channel=0 note=42 velocity=64 time=0
note_on channel=0 note=49 velocity=80 time=0
note_on channel=0 note=42 velocity=80 time=0
note_off channel=0 note=49 velocity=64 time=240
note_off channel=0 note=42 velocity=64 time=0
note_on channel=0 note=49 velocity=80 time=0
note_on channel=0 note=42 velocity=80 time=0
note_off channel=0 note=49 velocity=64 time=240
note_off channel=0 note=42 velocity=64 time=0
note_on channel=0 note=49 velocity=80 time=0
note_on channel=0 note=42 velocity=80 time=0
note_off channel=0 note=49 velocity=64 time=240
note_off channel=0 note=42 velocity=64 time=0
note_on channel=0 note=49 velocity=80 time=0
note_on channel=0 note=42 velocity=80 time=0
note_off channel=0 note=49 velocity=64 time=240
note_off channel=0 note=42 velocity=64 time=0
note_on channel=0 note=49 velocity=80 time=0
note_on channel=0 note=42 velocity=80 time=0
note_off channel=0 note=49 velocity=64 time=240
note_off channel=0 note=42 velocity=64 time=0
note_on channel=0 note=49 velocity=80 time=0
note_on channel=0 note=42 velocity=80 time=0
note_off channel=0 note=49 velocity=64 time=240
note_off channel=0 note=42 velocity=64 time=0
note_on channel=0 note=50 velocity=80 time=0
note_on channel=0 note=45 velocity=80 time=0
note_on channel=0 note=38 velocity=80 time=0
note_off channel=0 note=50 velocity=64 time=240
note_off channel=0 note=45 velocity=64 time=0
note_off channel=0 note=38 velocity=64 time=0
note_on channel=0 note=38 velocity=80 time=0
note_off channel=0 note=38 velocity=64 time=120
note_on channel=0 note=38 velocity=80 time=0
note_off channel=0 note=38 velocity=64 time=120
note_on channel=0 note=50 velocity=80 time=0
note_on channel=0 note=45 velocity=80 time=0
note_on channel=0 note=38 velocity=80 time=0
note_off channel=0 note=50 velocity=64 time=240
note_off channel=0 note=45 velocity=64 time=0
note_off channel=0 note=38 velocity=64 time=0
note_on channel=0 note=52 velocity=80 time=240
note_on channel=0 note=47 velocity=80 time=0
note_on channel=0 note=40 velocity=80 time=0
note_off channel=0 note=52 velocity=64 time=240
note_off channel=0 note=47 velocity=64 time=0
note_off channel=0 note=40 velocity=64 time=0
note_on channel=0 note=52 velocity=80 time=240
note_on channel=0 note=47 velocity=80 time=0
note_on channel=0 note=40 velocity=80 time=0
note_off channel=0 note=52 velocity=64 time=240
note_off channel=0 note=47 velocity=64 time=0
note_off channel=0 note=40 velocity=64 time=0
note_on channel=0 note=52 velocity=80 time=0
note_on channel=0 note=47 velocity=80 time=0
note_on channel=0 note=40 velocity=80 time=0
note_off channel=0 note=52 velocity=64 time=240
note_off channel=0 note=47 velocity=64 time=0
note_off channel=0 note=40 velocity=64 time=0
note_on channel=0 note=57 velocity=80 time=0
note_on channel=0 note=52 velocity=80 time=0
note_on channel=0 note=45 velocity=80 time=0
note_off channel=0 note=57 velocity=64 time=240
note_off channel=0 note=52 velocity=64 time=0
note_off channel=0 note=45 velocity=64 time=0
note_on channel=0 note=57 velocity=80 time=0
note_on channel=0 note=52 velocity=80 time=0
note_on channel=0 note=45 velocity=80 time=0
note_off channel=0 note=57 velocity=64 time=240
note_off channel=0 note=52 velocity=64 time=0
note_off channel=0 note=45 velocity=64 time=0
note_on channel=0 note=57 velocity=80 time=0
note_on channel=0 note=52 velocity=80 time=0
note_on channel=0 note=45 velocity=80 time=0
note_off channel=0 note=57 velocity=64 time=240
note_off channel=0 note=52 velocity=64 time=0
note_off channel=0 note=45 velocity=64 time=0
note_on channel=0 note=57 velocity=80 time=0
note_on channel=0 note=52 velocity=80 time=0
note_on channel=0 note=45 velocity=80 time=0
note_off channel=0 note=57 velocity=64 time=240
note_off channel=0 note=52 velocity=64 time=0
note_off channel=0 note=45 velocity=64 time=0
note_on channel=0 note=52 velocity=80 time=0
note_on channel=0 note=47 velocity=80 time=0
note_on channel=0 note=40 velocity=80 time=0
note_off channel=0 note=52 velocity=64 time=240
note_off channel=0 note=47 velocity=64 time=0
note_off channel=0 note=40 velocity=64 time=0
note_on channel=0 note=52 velocity=80 time=0
note_on channel=0 note=47 velocity=80 time=0
note_on channel=0 note=40 velocity=80 time=0
note_off channel=0 note=52 velocity=64 time=240
note_off channel=0 note=47 velocity=64 time=0
note_off channel=0 note=40 velocity=64 time=0
note_on channel=0 note=52 velocity=80 time=0
note_on channel=0 note=47 velocity=80 time=0
note_on channel=0 note=40 velocity=80 time=0
note_off channel=0 note=52 velocity=64 time=240
note_off channel=0 note=47 velocity=64 time=0
note_off channel=0 note=40 velocity=64 time=0
note_on channel=0 note=52 velocity=80 time=0
note_on channel=0 note=47 velocity=80 time=0
note_on channel=0 note=40 velocity=80 time=0
note_off channel=0 note=52 velocity=64 time=240
note_off channel=0 note=47 velocity=64 time=0
note_off channel=0 note=40 velocity=64 time=0
note_on channel=0 note=61 velocity=80 time=0
note_off channel=0 note=61 velocity=64 time=240
note_on channel=0 note=54 velocity=80 time=0
note_off channel=0 note=54 velocity=64 time=240
note_on channel=0 note=61 velocity=80 time=0
note_off channel=0 note=61 velocity=64 time=240
note_on channel=0 note=64 velocity=80 time=0
note_off channel=0 note=64 velocity=64 time=120
note_on channel=0 note=66 velocity=80 time=0
note_off channel=0 note=66 velocity=64 time=120
note_on channel=0 note=68 velocity=80 time=0
note_off channel=0 note=68 velocity=64 time=240
note_on channel=0 note=64 velocity=80 time=0
note_off channel=0 note=64 velocity=64 time=240
note_on channel=0 note=68 velocity=80 time=0
note_off channel=0 note=68 velocity=64 time=240
note_on channel=0 note=71 velocity=80 time=0
note_off channel=0 note=71 velocity=64 time=240
note_on channel=0 note=73 velocity=80 time=0
note_off channel=0 note=73 velocity=64 time=240
note_on channel=0 note=69 velocity=80 time=0
note_off channel=0 note=69 velocity=64 time=240
note_on channel=0 note=73 velocity=80 time=0
note_off channel=0 note=73 velocity=64 time=240
note_on channel=0 note=71 velocity=80 time=0
note_off channel=0 note=71 velocity=64 time=120
note_on channel=0 note=69 velocity=80 time=0
note_off channel=0 note=69 velocity=64 time=120
note_on channel=0 note=71 velocity=80 time=0
note_off channel=0 note=71 velocity=64 time=240
note_on channel=0 note=68 velocity=80 time=0
note_off channel=0 note=68 velocity=64 time=240
note_on channel=0 note=64 velocity=80 time=0
note_off channel=0 note=64 velocity=64 time=240
note_on channel=0 note=68 velocity=80 time=0
note_off channel=0 note=68 velocity=64 time=240
note_on channel=0 note=69 velocity=80 time=0
note_off channel=0 note=69 velocity=64 time=240
note_on channel=0 note=66 velocity=80 time=0
note_off channel=0 note=66 velocity=64 time=240
note_on channel=0 note=69 velocity=80 time=0
note_off channel=0 note=69 velocity=64 time=240
note_on channel=0 note=71 velocity=80 time=0
note_off channel=0 note=71 velocity=64 time=120
note_on channel=0 note=69 velocity=80 time=0
note_off channel=0 note=69 velocity=64 time=120
note_on channel=0 note=68 velocity=80 time=0
note_off channel=0 note=68 velocity=64 time=240
note_on channel=0 note=64 velocity=80 time=0
note_off channel=0 note=64 velocity=64 time=240
note_on channel=0 note=66 velocity=80 time=0
note_off channel=0 note=66 velocity=64 time=240
note_on channel=0 note=68 velocity=80 time=0
note_off channel=0 note=68 velocity=64 time=240
note_on channel=0 note=69 velocity=80 time=0
note_off channel=0 note=69 velocity=64 time=240
note_on channel=0 note=66 velocity=80 time=0
note_off channel=0 note=66 velocity=64 time=240
note_on channel=0 note=69 velocity=80 time=0
note_off channel=0 note=69 velocity=64 time=240
note_on channel=0 note=71 velocity=80 time=0
note_off channel=0 note=71 velocity=64 time=120
note_on channel=0 note=69 velocity=80 time=0
note_off channel=0 note=69 velocity=64 time=120
note_on channel=0 note=68 velocity=80 time=0
note_off channel=0 note=68 velocity=64 time=240
note_on channel=0 note=64 velocity=80 time=0
note_off channel=0 note=64 velocity=64 time=240
note_on channel=0 note=61 velocity=80 time=0
note_off channel=0 note=61 velocity=64 time=240
note_on channel=0 note=68 velocity=80 time=0
note_off channel=0 note=68 velocity=64 time=240
note_on channel=0 note=66 velocity=80 time=0
note_off channel=0 note=66 velocity=64 time=240
note_on channel=0 note=61 velocity=80 time=0
note_off channel=0 note=61 velocity=64 time=240
note_on channel=0 note=61 velocity=80 time=0
note_off channel=0 note=61 velocity=64 time=240
note_on channel=0 note=64 velocity=80 time=0
note_off channel=0 note=64 velocity=64 time=120
note_on channel=0 note=66 velocity=80 time=0
note_off channel=0 note=66 velocity=64 time=120
note_on channel=0 note=68 velocity=80 time=0
note_off channel=0 note=68 velocity=64 time=240
note_on channel=0 note=64 velocity=80 time=0
note_off channel=0 note=64 velocity=64 time=240
note_on channel=0 note=68 velocity=80 time=0
note_off channel=0 note=68 velocity=64 time=240
note_on channel=0 note=71 velocity=80 time=0
note_off channel=0 note=71 velocity=64 time=240
note_on channel=0 note=73 velocity=80 time=0
note_off channel=0 note=73 velocity=64 time=240
note_on channel=0 note=69 velocity=80 time=0
note_off channel=0 note=69 velocity=64 time=240
note_on channel=0 note=73 velocity=80 time=0
note_off channel=0 note=73 velocity=64 time=240
note_on channel=0 note=74 velocity=80 time=0
note_off channel=0 note=74 velocity=64 time=120
note_on channel=0 note=73 velocity=80 time=0
note_off channel=0 note=73 velocity=64 time=120
note_on channel=0 note=71 velocity=80 time=0
note_off channel=0 note=71 velocity=64 time=240
note_on channel=0 note=68 velocity=80 time=0
note_off channel=0 note=68 velocity=64 time=240
note_on channel=0 note=64 velocity=80 time=0
note_off channel=0 note=64 velocity=64 time=240
note_on channel=0 note=68 velocity=80 time=0
note_off channel=0 note=68 velocity=64 time=240
note_on channel=0 note=69 velocity=80 time=0
note_off channel=0 note=69 velocity=64 time=240
note_on channel=0 note=66 velocity=80 time=0
note_off channel=0 note=66 velocity=64 time=240
note_on channel=0 note=69 velocity=80 time=0
note_off channel=0 note=69 velocity=64 time=240
note_on channel=0 note=71 velocity=80 time=0
note_off channel=0 note=71 velocity=64 time=120
note_on channel=0 note=69 velocity=80 time=0
note_off channel=0 note=69 velocity=64 time=120
note_on channel=0 note=68 velocity=80 time=0
note_off channel=0 note=68 velocity=64 time=240
note_on channel=0 note=64 velocity=80 time=0
note_off channel=0 note=64 velocity=64 time=240
note_on channel=0 note=66 velocity=80 time=0
note_off channel=0 note=66 velocity=64 time=240
note_on channel=0 note=68 velocity=80 time=0
note_off channel=0 note=68 velocity=64 time=240
note_on channel=0 note=69 velocity=80 time=0
note_off channel=0 note=69 velocity=64 time=240
note_on channel=0 note=66 velocity=80 time=0
note_off channel=0 note=66 velocity=64 time=240
note_on channel=0 note=69 velocity=80 time=0
note_off channel=0 note=69 velocity=64 time=240
note_on channel=0 note=71 velocity=80 time=0
note_off channel=0 note=71 velocity=64 time=120
note_on channel=0 note=69 velocity=80 time=0
note_off channel=0 note=69 velocity=64 time=120
note_on channel=0 note=68 velocity=80 time=0
note_off channel=0 note=68 velocity=64 time=240
note_on channel=0 note=64 velocity=80 time=0
note_off channel=0 note=64 velocity=64 time=240
note_on channel=0 note=61 velocity=80 time=0
note_off channel=0 note=61 velocity=64 time=240
note_on channel=0 note=68 velocity=80 time=0
note_off channel=0 note=68 velocity=64 time=240
note_on channel=0 note=69 velocity=80 time=0
note_off channel=0 note=69 velocity=64 time=240
note_on channel=0 note=66 velocity=80 time=0
note_off channel=0 note=66 velocity=64 time=240
note_on channel=0 note=69 velocity=80 time=0
note_off channel=0 note=69 velocity=64 time=240
note_on channel=0 note=68 velocity=80 time=0
note_off channel=0 note=68 velocity=64 time=120
note_on channel=0 note=66 velocity=80 time=0
note_off channel=0 note=66 velocity=64 time=120
note_on channel=0 note=68 velocity=80 time=0
note_off channel=0 note=68 velocity=64 time=240
note_on channel=0 note=64 velocity=80 time=0
note_off channel=0 note=64 velocity=64 time=240
note_on channel=0 note=66 velocity=80 time=0
note_off channel=0 note=66 velocity=64 time=240
note_on channel=0 note=68 velocity=80 time=0
note_off channel=0 note=68 velocity=64 time=240
note_on channel=0 note=69 velocity=80 time=0
note_off channel=0 note=69 velocity=64 time=240
note_on channel=0 note=66 velocity=80 time=0
note_off channel=0 note=66 velocity=64 time=240
note_on channel=0 note=69 velocity=80 time=0
note_off channel=0 note=69 velocity=64 time=240
note_on channel=0 note=68 velocity=80 time=0
note_off channel=0 note=68 velocity=64 time=120
note_on channel=0 note=66 velocity=80 time=0
note_off channel=0 note=66 velocity=64 time=120
note_on channel=0 note=68 velocity=80 time=0
note_off channel=0 note=68 velocity=64 time=240
note_on channel=0 note=64 velocity=80 time=0
note_off channel=0 note=64 velocity=64 time=240
note_on channel=0 note=66 velocity=80 time=0
note_off channel=0 note=66 velocity=64 time=240
note_on channel=0 note=68 velocity=80 time=0
note_off channel=0 note=68 velocity=64 time=240
note_on channel=0 note=69 velocity=80 time=0
note_off channel=0 note=69 velocity=64 time=240
note_on channel=0 note=66 velocity=80 time=0
note_off channel=0 note=66 velocity=64 time=240
note_on channel=0 note=69 velocity=80 time=0
note_off channel=0 note=69 velocity=64 time=240
note_on channel=0 note=68 velocity=80 time=0
note_off channel=0 note=68 velocity=64 time=120
note_on channel=0 note=69 velocity=80 time=0
note_off channel=0 note=69 velocity=64 time=120
note_on channel=0 note=71 velocity=80 time=0
note_off channel=0 note=71 velocity=64 time=240
note_on channel=0 note=64 velocity=80 time=0
note_off channel=0 note=64 velocity=64 time=240
note_on channel=0 note=71 velocity=80 time=0
note_off channel=0 note=71 velocity=64 time=240
note_on channel=0 note=69 velocity=80 time=0
note_off channel=0 note=69 velocity=64 time=120
note_on channel=0 note=71 velocity=80 time=0
note_off channel=0 note=71 velocity=64 time=120
note_on channel=0 note=73 velocity=80 time=0
note_off channel=0 note=73 velocity=64 time=240
note_on channel=0 note=66 velocity=80 time=0
note_off channel=0 note=66 velocity=64 time=240
note_on channel=0 note=73 velocity=80 time=0
note_off channel=0 note=73 velocity=64 time=240
note_on channel=0 note=71 velocity=80 time=0
note_off channel=0 note=71 velocity=64 time=120
note_on channel=0 note=69 velocity=80 time=0
note_off channel=0 note=69 velocity=64 time=120
note_on channel=0 note=71 velocity=80 time=0
note_off channel=0 note=71 velocity=64 time=240
note_on channel=0 note=68 velocity=80 time=0
note_off channel=0 note=68 velocity=64 time=240
note_on channel=0 note=69 velocity=80 time=0
note_off channel=0 note=69 velocity=64 time=240
note_on channel=0 note=71 velocity=80 time=0
note_off channel=0 note=71 velocity=64 time=240
note_on channel=0 note=73 velocity=80 time=0
note_off channel=0 note=73 velocity=64 time=240
note_on channel=0 note=69 velocity=80 time=0
note_off channel=0 note=69 velocity=64 time=240
note_on channel=0 note=73 velocity=80 time=0
note_off channel=0 note=73 velocity=64 time=240
note_on channel=0 note=71 velocity=80 time=0
note_off channel=0 note=71 velocity=64 time=120
note_on channel=0 note=69 velocity=80 time=0
note_off channel=0 note=69 velocity=64 time=120
note_on channel=0 note=71 velocity=80 time=0
note_off channel=0 note=71 velocity=64 time=240
note_on channel=0 note=68 velocity=80 time=0
note_off channel=0 note=68 velocity=64 time=240
note_on channel=0 note=69 velocity=80 time=0
note_off channel=0 note=69 velocity=64 time=240
note_on channel=0 note=71 velocity=80 time=0
note_off channel=0 note=71 velocity=64 time=240
note_on channel=0 note=73 velocity=80 time=0
note_off channel=0 note=73 velocity=64 time=240
note_on channel=0 note=69 velocity=80 time=0
note_off channel=0 note=69 velocity=64 time=240
note_on channel=0 note=73 velocity=80 time=0
note_off channel=0 note=73 velocity=64 time=240
note_on channel=0 note=71 velocity=80 time=0
note_off channel=0 note=71 velocity=64 time=120
note_on channel=0 note=69 velocity=80 time=0
note_off channel=0 note=69 velocity=64 time=120
note_on channel=0 note=71 velocity=80 time=0
note_off channel=0 note=71 velocity=64 time=240
note_on channel=0 note=68 velocity=80 time=0
note_off channel=0 note=68 velocity=64 time=240
note_on channel=0 note=69 velocity=80 time=0
note_off channel=0 note=69 velocity=64 time=240
note_on channel=0 note=71 velocity=80 time=0
note_off channel=0 note=71 velocity=64 time=240
note_on channel=0 note=73 velocity=80 time=0
note_off channel=0 note=73 velocity=64 time=240
note_on channel=0 note=66 velocity=80 time=0
note_off channel=0 note=66 velocity=64 time=240
note_on channel=0 note=73 velocity=80 time=0
note_off channel=0 note=73 velocity=64 time=240
note_on channel=0 note=71 velocity=80 time=0
note_off channel=0 note=71 velocity=64 time=120
note_on channel=0 note=73 velocity=80 time=0
note_off channel=0 note=73 velocity=64 time=120
note_on channel=0 note=71 velocity=80 time=0
note_off channel=0 note=71 velocity=64 time=240
note_on channel=0 note=68 velocity=80 time=0
note_off channel=0 note=68 velocity=64 time=240
note_on channel=0 note=74 velocity=80 time=0
note_off channel=0 note=74 velocity=64 time=240
note_on channel=0 note=73 velocity=80 time=0
note_off channel=0 note=73 velocity=64 time=120
note_on channel=0 note=71 velocity=80 time=0
note_off channel=0 note=71 velocity=64 time=120
note_on channel=0 note=69 velocity=80 time=0
note_off channel=0 note=69 velocity=64 time=240
note_on channel=0 note=66 velocity=80 time=0
note_off channel=0 note=66 velocity=64 time=240
note_on channel=0 note=69 velocity=80 time=0
note_off channel=0 note=69 velocity=64 time=240
note_on channel=0 note=68 velocity=80 time=0
note_off channel=0 note=68 velocity=64 time=120
note_on channel=0 note=66 velocity=80 time=0
note_off channel=0 note=66 velocity=64 time=120
note_on channel=0 note=68 velocity=80 time=0
note_off channel=0 note=68 velocity=64 time=240
note_on channel=0 note=64 velocity=80 time=0
note_off channel=0 note=64 velocity=64 time=240
note_on channel=0 note=61 velocity=80 time=0
note_off channel=0 note=61 velocity=64 time=240
note_on channel=0 note=56 velocity=80 time=0
note_off channel=0 note=56 velocity=64 time=240
note_on channel=0 note=54 velocity=80 time=0
note_on channel=0 note=49 velocity=80 time=0
note_on channel=0 note=42 velocity=80 time=0
note_off channel=0 note=54 velocity=64 time=240
note_off channel=0 note=49 velocity=64 time=0
note_off channel=0 note=42 velocity=64 time=0
note_on channel=0 note=54 velocity=80 time=0
note_on channel=0 note=49 velocity=80 time=0
note_on channel=0 note=42 velocity=80 time=0
note_off channel=0 note=54 velocity=64 time=240
note_off channel=0 note=49 velocity=64 time=0
note_off channel=0 note=42 velocity=64 time=0
note_on channel=0 note=54 velocity=80 time=1440
note_on channel=0 note=49 velocity=80 time=0
note_on channel=0 note=42 velocity=80 time=0
note_off channel=0 note=54 velocity=64 time=240
note_off channel=0 note=49 velocity=64 time=0
note_off channel=0 note=42 velocity=64 time=0
note_on channel=0 note=54 velocity=80 time=0
note_on channel=0 note=49 velocity=80 time=0
note_on channel=0 note=42 velocity=80 time=0
note_off channel=0 note=54 velocity=64 time=240
note_off channel=0 note=49 velocity=64 time=0
note_off channel=0 note=42 velocity=64 time=0
note_on channel=0 note=50 velocity=80 time=1440
note_on channel=0 note=45 velocity=80 time=0
note_on channel=0 note=38 velocity=80 time=0
note_off channel=0 note=50 velocity=64 time=240
note_off channel=0 note=45 velocity=64 time=0
note_off channel=0 note=38 velocity=64 time=0
note_on channel=0 note=38 velocity=80 time=0
note_off channel=0 note=38 velocity=64 time=120
note_on channel=0 note=38 velocity=80 time=0
note_off channel=0 note=38 velocity=64 time=120
note_on channel=0 note=50 velocity=80 time=0
note_on channel=0 note=45 velocity=80 time=0
note_on channel=0 note=38 velocity=80 time=0
note_off channel=0 note=50 velocity=64 time=240
note_off channel=0 note=45 velocity=64 time=0
note_off channel=0 note=38 velocity=64 time=0
note_on channel=0 note=45 velocity=80 time=720
note_off channel=0 note=45 velocity=64 time=240
note_on channel=0 note=47 velocity=80 time=0
note_off channel=0 note=47 velocity=64 time=240
note_on channel=0 note=57 velocity=80 time=0
note_on channel=0 note=52 velocity=80 time=0
note_on channel=0 note=45 velocity=80 time=0
note_off channel=0 note=57 velocity=64 time=240
note_off channel=0 note=52 velocity=64 time=0
note_off channel=0 note=45 velocity=64 time=0
note_on channel=0 note=57 velocity=80 time=240
note_on channel=0 note=52 velocity=80 time=0
note_on channel=0 note=45 velocity=80 time=0
note_off channel=0 note=57 velocity=64 time=240
note_off channel=0 note=52 velocity=64 time=0
note_off channel=0 note=45 velocity=64 time=0
note_on channel=0 note=52 velocity=80 time=240
note_on channel=0 note=47 velocity=80 time=0
note_on channel=0 note=40 velocity=80 time=0
note_off channel=0 note=52 velocity=64 time=240
note_off channel=0 note=47 velocity=64 time=0
note_off channel=0 note=40 velocity=64 time=0
note_on channel=0 note=52 velocity=80 time=240
note_on channel=0 note=47 velocity=80 time=0
note_on channel=0 note=40 velocity=80 time=0
note_off channel=0 note=52 velocity=64 time=240
note_off channel=0 note=47 velocity=64 time=0
note_off channel=0 note=40 velocity=64 time=0
note_on channel=0 note=54 velocity=80 time=240
note_on channel=0 note=49 velocity=80 time=0
note_on channel=0 note=42 velocity=80 time=0
note_off channel=0 note=54 velocity=64 time=240
note_off channel=0 note=49 velocity=64 time=0
note_off channel=0 note=42 velocity=64 time=0
note_on channel=0 note=54 velocity=80 time=0
note_on channel=0 note=49 velocity=80 time=0
note_on channel=0 note=42 velocity=80 time=0
note_off channel=0 note=54 velocity=64 time=240
note_off channel=0 note=49 velocity=64 time=0
note_off channel=0 note=42 velocity=64 time=0
note_on channel=0 note=54 velocity=80 time=1440
note_on channel=0 note=49 velocity=80 time=0
note_on channel=0 note=42 velocity=80 time=0
note_off channel=0 note=54 velocity=64 time=240
note_off channel=0 note=49 velocity=64 time=0
note_off channel=0 note=42 velocity=64 time=0
note_on channel=0 note=54 velocity=80 time=0
note_on channel=0 note=49 velocity=80 time=0
note_on channel=0 note=42 velocity=80 time=0
note_off channel=0 note=54 velocity=64 time=240
note_off channel=0 note=49 velocity=64 time=0
note_off channel=0 note=42 velocity=64 time=0
note_on channel=0 note=50 velocity=80 time=1440
note_on channel=0 note=45 velocity=80 time=0
note_on channel=0 note=38 velocity=80 time=0
note_off channel=0 note=50 velocity=64 time=240
note_off channel=0 note=45 velocity=64 time=0
note_off channel=0 note=38 velocity=64 time=0
note_on channel=0 note=38 velocity=80 time=0
note_off channel=0 note=38 velocity=64 time=120
note_on channel=0 note=38 velocity=80 time=0
note_off channel=0 note=38 velocity=64 time=120
note_on channel=0 note=50 velocity=80 time=0
note_on channel=0 note=45 velocity=80 time=0
note_on channel=0 note=38 velocity=80 time=0
note_off channel=0 note=50 velocity=64 time=240
note_off channel=0 note=45 velocity=64 time=0
note_off channel=0 note=38 velocity=64 time=0
note_on channel=0 note=45 velocity=80 time=720
note_off channel=0 note=45 velocity=64 time=240
note_on channel=0 note=47 velocity=80 time=0
note_off channel=0 note=47 velocity=64 time=240
note_on channel=0 note=57 velocity=80 time=0
note_on channel=0 note=52 velocity=80 time=0
note_on channel=0 note=45 velocity=80 time=0
note_off channel=0 note=57 velocity=64 time=480
note_off channel=0 note=52 velocity=64 time=0
note_off channel=0 note=45 velocity=64 time=0
note_on channel=0 note=57 velocity=80 time=0
note_on channel=0 note=52 velocity=80 time=0
note_on channel=0 note=45 velocity=80 time=0
note_off channel=0 note=57 velocity=64 time=480
note_off channel=0 note=52 velocity=64 time=0
note_off channel=0 note=45 velocity=64 time=0
note_on channel=0 note=52 velocity=80 time=0
note_on channel=0 note=47 velocity=80 time=0
note_on channel=0 note=40 velocity=80 time=0
note_off channel=0 note=52 velocity=64 time=480
note_off channel=0 note=47 velocity=64 time=0
note_off channel=0 note=40 velocity=64 time=0
note_on channel=0 note=52 velocity=80 time=0
note_on channel=0 note=47 velocity=80 time=0
note_on channel=0 note=40 velocity=80 time=0
note_off channel=0 note=52 velocity=64 time=480
note_off channel=0 note=47 velocity=64 time=0
note_off channel=0 note=40 velocity=64 time=0
note_on channel=0 note=42 velocity=80 time=0
note_off channel=0 note=42 velocity=64 time=120
note_on channel=0 note=42 velocity=80 time=0
note_off channel=0 note=42 velocity=64 time=120
note_on channel=0 note=42 velocity=80 time=0
note_off channel=0 note=42 velocity=64 time=120
note_on channel=0 note=42 velocity=80 time=0
note_off channel=0 note=42 velocity=64 time=120
note_on channel=0 note=54 velocity=80 time=0
note_on channel=0 note=49 velocity=80 time=0
note_on channel=0 note=42 velocity=80 time=0
note_off channel=0 note=54 velocity=64 time=240
note_off channel=0 note=49 velocity=64 time=0
note_off channel=0 note=42 velocity=64 time=0
note_on channel=0 note=54 velocity=80 time=0
note_on channel=0 note=49 velocity=80 time=0
note_on channel=0 note=42 velocity=80 time=0
note_off channel=0 note=54 velocity=64 time=240
note_off channel=0 note=49 velocity=64 time=0
note_off channel=0 note=42 velocity=64 time=0
note_on channel=0 note=45 velocity=80 time=0
note_off channel=0 note=45 velocity=64 time=240
note_on channel=0 note=44 velocity=80 time=0
note_off channel=0 note=44 velocity=64 time=240
note_on channel=0 note=45 velocity=80 time=0
note_off channel=0 note=45 velocity=64 time=240
note_on channel=0 note=44 velocity=80 time=0
note_off channel=0 note=44 velocity=64 time=240
note_on channel=0 note=42 velocity=80 time=0
note_off channel=0 note=42 velocity=64 time=120
note_on channel=0 note=42 velocity=80 time=0
note_off channel=0 note=42 velocity=64 time=120
note_on channel=0 note=42 velocity=80 time=0
note_off channel=0 note=42 velocity=64 time=120
note_on channel=0 note=42 velocity=80 time=0
note_off channel=0 note=42 velocity=64 time=120
note_on channel=0 note=54 velocity=80 time=0
note_on channel=0 note=49 velocity=80 time=0
note_on channel=0 note=42 velocity=80 time=0
note_off channel=0 note=54 velocity=64 time=240
note_off channel=0 note=49 velocity=64 time=0
note_off channel=0 note=42 velocity=64 time=0
note_on channel=0 note=54 velocity=80 time=0
note_on channel=0 note=49 velocity=80 time=0
note_on channel=0 note=42 velocity=80 time=0
note_off channel=0 note=54 velocity=64 time=240
note_off channel=0 note=49 velocity=64 time=0
note_off channel=0 note=42 velocity=64 time=0
note_on channel=0 note=45 velocity=80 time=0
note_off channel=0 note=45 velocity=64 time=240
note_on channel=0 note=44 velocity=80 time=0
note_off channel=0 note=44 velocity=64 time=240
note_on channel=0 note=45 velocity=80 time=0
note_off channel=0 note=45 velocity=64 time=240
note_on channel=0 note=44 velocity=80 time=0
note_off channel=0 note=44 velocity=64 time=240
note_on channel=0 note=50 velocity=80 time=0
note_on channel=0 note=45 velocity=80 time=0
note_on channel=0 note=38 velocity=80 time=0
note_off channel=0 note=50 velocity=64 time=240
note_off channel=0 note=45 velocity=64 time=0
note_off channel=0 note=38 velocity=64 time=0
note_on channel=0 note=50 velocity=80 time=0
note_on channel=0 note=45 velocity=80 time=0
note_on channel=0 note=38 velocity=80 time=0
note_off channel=0 note=50 velocity=64 time=240
note_off channel=0 note=45 velocity=64 time=0
note_off channel=0 note=38 velocity=64 time=0
note_on channel=0 note=50 velocity=80 time=240
note_on channel=0 note=45 velocity=80 time=0
note_on channel=0 note=38 velocity=80 time=0
note_off channel=0 note=50 velocity=64 time=240
note_off channel=0 note=45 velocity=64 time=0
note_off channel=0 note=38 velocity=64 time=0
note_on channel=0 note=52 velocity=80 time=0
note_on channel=0 note=47 velocity=80 time=0
note_on channel=0 note=40 velocity=80 time=0
note_off channel=0 note=52 velocity=64 time=240
note_off channel=0 note=47 velocity=64 time=0
note_off channel=0 note=40 velocity=64 time=0
note_on channel=0 note=52 velocity=80 time=240
note_on channel=0 note=47 velocity=80 time=0
note_on channel=0 note=40 velocity=80 time=0
note_off channel=0 note=52 velocity=64 time=240
note_off channel=0 note=47 velocity=64 time=0
note_off channel=0 note=40 velocity=64 time=0
note_on channel=0 note=52 velocity=80 time=0
note_on channel=0 note=47 velocity=80 time=0
note_on channel=0 note=40 velocity=80 time=0
note_off channel=0 note=52 velocity=64 time=240
note_off channel=0 note=47 velocity=64 time=0
note_off channel=0 note=40 velocity=64 time=0
note_on channel=0 note=57 velocity=80 time=0
note_on channel=0 note=52 velocity=80 time=0
note_on channel=0 note=45 velocity=80 time=0
note_off channel=0 note=57 velocity=64 time=240
note_off channel=0 note=52 velocity=64 time=0
note_off channel=0 note=45 velocity=64 time=0
note_on channel=0 note=57 velocity=80 time=0
note_on channel=0 note=52 velocity=80 time=0
note_on channel=0 note=45 velocity=80 time=0
note_off channel=0 note=57 velocity=64 time=240
note_off channel=0 note=52 velocity=64 time=0
note_off channel=0 note=45 velocity=64 time=0
note_on channel=0 note=57 velocity=80 time=0
note_on channel=0 note=52 velocity=80 time=0
note_on channel=0 note=45 velocity=80 time=0
note_off channel=0 note=57 velocity=64 time=240
note_off channel=0 note=52 velocity=64 time=0
note_off channel=0 note=45 velocity=64 time=0
note_on channel=0 note=57 velocity=80 time=0
note_on channel=0 note=52 velocity=80 time=0
note_on channel=0 note=45 velocity=80 time=0
note_off channel=0 note=57 velocity=64 time=240
note_off channel=0 note=52 velocity=64 time=0
note_off channel=0 note=45 velocity=64 time=0
note_on channel=0 note=52 velocity=80 time=0
note_on channel=0 note=47 velocity=80 time=0
note_on channel=0 note=40 velocity=80 time=0
note_off channel=0 note=52 velocity=64 time=240
note_off channel=0 note=47 velocity=64 time=0
note_off channel=0 note=40 velocity=64 time=0
note_on channel=0 note=52 velocity=80 time=0
note_on channel=0 note=47 velocity=80 time=0
note_on channel=0 note=40 velocity=80 time=0
note_off channel=0 note=52 velocity=64 time=240
note_off channel=0 note=47 velocity=64 time=0
note_off channel=0 note=40 velocity=64 time=0
note_on channel=0 note=52 velocity=80 time=0
note_on channel=0 note=47 velocity=80 time=0
note_on channel=0 note=40 velocity=80 time=0
note_off channel=0 note=52 velocity=64 time=240
note_off channel=0 note=47 velocity=64 time=0
note_off channel=0 note=40 velocity=64 time=0
note_on channel=0 note=52 velocity=80 time=0
note_on channel=0 note=47 velocity=80 time=0
note_on channel=0 note=40 velocity=80 time=0
note_off channel=0 note=52 velocity=64 time=240
note_off channel=0 note=47 velocity=64 time=0
note_off channel=0 note=40 velocity=64 time=0
note_on channel=0 note=42 velocity=80 time=0
note_off channel=0 note=42 velocity=64 time=120
note_on channel=0 note=42 velocity=80 time=0
note_off channel=0 note=42 velocity=64 time=120
note_on channel=0 note=42 velocity=80 time=0
note_off channel=0 note=42 velocity=64 time=120
note_on channel=0 note=42 velocity=80 time=0
note_off channel=0 note=42 velocity=64 time=120
note_on channel=0 note=54 velocity=80 time=0
note_on channel=0 note=49 velocity=80 time=0
note_on channel=0 note=42 velocity=80 time=0
note_off channel=0 note=54 velocity=64 time=240
note_off channel=0 note=49 velocity=64 time=0
note_off channel=0 note=42 velocity=64 time=0
note_on channel=0 note=54 velocity=80 time=0
note_on channel=0 note=49 velocity=80 time=0
note_on channel=0 note=42 velocity=80 time=0
note_off channel=0 note=54 velocity=64 time=240
note_off channel=0 note=49 velocity=64 time=0
note_off channel=0 note=42 velocity=64 time=0
note_on channel=0 note=45 velocity=80 time=0
note_off channel=0 note=45 velocity=64 time=240
note_on channel=0 note=44 velocity=80 time=0
note_off channel=0 note=44 velocity=64 time=240
note_on channel=0 note=45 velocity=80 time=0
note_off channel=0 note=45 velocity=64 time=240
note_on channel=0 note=44 velocity=80 time=0
note_off channel=0 note=44 velocity=64 time=240
note_on channel=0 note=42 velocity=80 time=0
note_off channel=0 note=42 velocity=64 time=120
note_on channel=0 note=42 velocity=80 time=0
note_off channel=0 note=42 velocity=64 time=120
note_on channel=0 note=42 velocity=80 time=0
note_off channel=0 note=42 velocity=64 time=120
note_on channel=0 note=42 velocity=80 time=0
note_off channel=0 note=42 velocity=64 time=120
note_on channel=0 note=54 velocity=80 time=0
note_on channel=0 note=49 velocity=80 time=0
note_on channel=0 note=42 velocity=80 time=0
note_off channel=0 note=54 velocity=64 time=240
note_off channel=0 note=49 velocity=64 time=0
note_off channel=0 note=42 velocity=64 time=0
note_on channel=0 note=54 velocity=80 time=0
note_on channel=0 note=49 velocity=80 time=0
note_on channel=0 note=42 velocity=80 time=0
note_off channel=0 note=54 velocity=64 time=240
note_off channel=0 note=49 velocity=64 time=0
note_off channel=0 note=42 velocity=64 time=0
note_on channel=0 note=45 velocity=80 time=0
note_off channel=0 note=45 velocity=64 time=240
note_on channel=0 note=44 velocity=80 time=0
note_off channel=0 note=44 velocity=64 time=240
note_on channel=0 note=45 velocity=80 time=0
note_off channel=0 note=45 velocity=64 time=240
note_on channel=0 note=44 velocity=80 time=0
note_off channel=0 note=44 velocity=64 time=240
note_on channel=0 note=50 velocity=80 time=0
note_on channel=0 note=45 velocity=80 time=0
note_on channel=0 note=38 velocity=80 time=0
note_off channel=0 note=50 velocity=64 time=240
note_off channel=0 note=45 velocity=64 time=0
note_off channel=0 note=38 velocity=64 time=0
note_on channel=0 note=50 velocity=80 time=0
note_on channel=0 note=45 velocity=80 time=0
note_on channel=0 note=38 velocity=80 time=0
note_off channel=0 note=50 velocity=64 time=240
note_off channel=0 note=45 velocity=64 time=0
note_off channel=0 note=38 velocity=64 time=0
note_on channel=0 note=50 velocity=80 time=240
note_on channel=0 note=45 velocity=80 time=0
note_on channel=0 note=38 velocity=80 time=0
note_off channel=0 note=50 velocity=64 time=240
note_off channel=0 note=45 velocity=64 time=0
note_off channel=0 note=38 velocity=64 time=0
note_on channel=0 note=52 velocity=80 time=0
note_on channel=0 note=47 velocity=80 time=0
note_on channel=0 note=40 velocity=80 time=0
note_off channel=0 note=52 velocity=64 time=240
note_off channel=0 note=47 velocity=64 time=0
note_off channel=0 note=40 velocity=64 time=0
note_on channel=0 note=52 velocity=80 time=240
note_on channel=0 note=47 velocity=80 time=0
note_on channel=0 note=40 velocity=80 time=0
note_off channel=0 note=52 velocity=64 time=240
note_off channel=0 note=47 velocity=64 time=0
note_off channel=0 note=40 velocity=64 time=0
note_on channel=0 note=52 velocity=80 time=0
note_on channel=0 note=47 velocity=80 time=0
note_on channel=0 note=40 velocity=80 time=0
note_off channel=0 note=52 velocity=64 time=240
note_off channel=0 note=47 velocity=64 time=0
note_off channel=0 note=40 velocity=64 time=0
note_on channel=0 note=57 velocity=80 time=0
note_on channel=0 note=52 velocity=80 time=0
note_on channel=0 note=45 velocity=80 time=0
note_off channel=0 note=57 velocity=64 time=240
note_off channel=0 note=52 velocity=64 time=0
note_off channel=0 note=45 velocity=64 time=0
note_on channel=0 note=57 velocity=80 time=0
note_on channel=0 note=52 velocity=80 time=0
note_on channel=0 note=45 velocity=80 time=0
note_off channel=0 note=57 velocity=64 time=240
note_off channel=0 note=52 velocity=64 time=0
note_off channel=0 note=45 velocity=64 time=0
note_on channel=0 note=57 velocity=80 time=0
note_on channel=0 note=52 velocity=80 time=0
note_on channel=0 note=45 velocity=80 time=0
note_off channel=0 note=57 velocity=64 time=240
note_off channel=0 note=52 velocity=64 time=0
note_off channel=0 note=45 velocity=64 time=0
note_on channel=0 note=57 velocity=80 time=0
note_on channel=0 note=52 velocity=80 time=0
note_on channel=0 note=45 velocity=80 time=0
note_off channel=0 note=57 velocity=64 time=240
note_off channel=0 note=52 velocity=64 time=0
note_off channel=0 note=45 velocity=64 time=0
note_on channel=0 note=52 velocity=80 time=0
note_on channel=0 note=47 velocity=80 time=0
note_on channel=0 note=40 velocity=80 time=0
note_off channel=0 note=52 velocity=64 time=240
note_off channel=0 note=47 velocity=64 time=0
note_off channel=0 note=40 velocity=64 time=0
note_on channel=0 note=52 velocity=80 time=0
note_on channel=0 note=47 velocity=80 time=0
note_on channel=0 note=40 velocity=80 time=0
note_off channel=0 note=52 velocity=64 time=240
note_off channel=0 note=47 velocity=64 time=0
note_off channel=0 note=40 velocity=64 time=0
note_on channel=0 note=52 velocity=80 time=0
note_on channel=0 note=47 velocity=80 time=0
note_on channel=0 note=40 velocity=80 time=0
note_off channel=0 note=52 velocity=64 time=240
note_off channel=0 note=47 velocity=64 time=0
note_off channel=0 note=40 velocity=64 time=0
note_on channel=0 note=52 velocity=80 time=0
note_on channel=0 note=47 velocity=80 time=0
note_on channel=0 note=40 velocity=80 time=0
note_off channel=0 note=52 velocity=64 time=240
note_off channel=0 note=47 velocity=64 time=0
note_off channel=0 note=40 velocity=64 time=0
note_on channel=0 note=54 velocity=80 time=0
note_on channel=0 note=49 velocity=80 time=0
note_on channel=0 note=42 velocity=80 time=0
note_off channel=0 note=54 velocity=64 time=240
note_off channel=0 note=49 velocity=64 time=0
note_off channel=0 note=42 velocity=64 time=0
note_on channel=0 note=49 velocity=80 time=0
note_on channel=0 note=42 velocity=80 time=0
note_off channel=0 note=49 velocity=64 time=240
note_off channel=0 note=42 velocity=64 time=0
note_on channel=0 note=49 velocity=80 time=0
note_on channel=0 note=42 velocity=80 time=0
note_off channel=0 note=49 velocity=64 time=240
note_off channel=0 note=42 velocity=64 time=0
note_on channel=0 note=49 velocity=80 time=0
note_on channel=0 note=42 velocity=80 time=0
note_off channel=0 note=49 velocity=64 time=240
note_off channel=0 note=42 velocity=64 time=0
note_on channel=0 note=49 velocity=80 time=0
note_on channel=0 note=42 velocity=80 time=0
note_off channel=0 note=49 velocity=64 time=240
note_off channel=0 note=42 velocity=64 time=0
note_on channel=0 note=49 velocity=80 time=0
note_on channel=0 note=42 velocity=80 time=0
note_off channel=0 note=49 velocity=64 time=240
note_off channel=0 note=42 velocity=64 time=0
note_on channel=0 note=49 velocity=80 time=0
note_on channel=0 note=42 velocity=80 time=0
note_off channel=0 note=49 velocity=64 time=240
note_off channel=0 note=42 velocity=64 time=0
note_on channel=0 note=49 velocity=80 time=0
note_on channel=0 note=42 velocity=80 time=0
note_off channel=0 note=49 velocity=64 time=240
note_off channel=0 note=42 velocity=64 time=0
note_on channel=0 note=57 velocity=80 time=0
note_on channel=0 note=52 velocity=80 time=0
note_on channel=0 note=45 velocity=80 time=0
note_off channel=0 note=57 velocity=64 time=240
note_off channel=0 note=52 velocity=64 time=0
note_off channel=0 note=45 velocity=64 time=0
note_on channel=0 note=52 velocity=80 time=0
note_on channel=0 note=45 velocity=80 time=0
note_off channel=0 note=52 velocity=64 time=240
note_off channel=0 note=45 velocity=64 time=0
note_on channel=0 note=52 velocity=80 time=0
note_on channel=0 note=45 velocity=80 time=0
note_off channel=0 note=52 velocity=64 time=240
note_off channel=0 note=45 velocity=64 time=0
note_on channel=0 note=52 velocity=80 time=0
note_on channel=0 note=45 velocity=80 time=0
note_off channel=0 note=52 velocity=64 time=240
note_off channel=0 note=45 velocity=64 time=0
note_on channel=0 note=52 velocity=80 time=0
note_on channel=0 note=45 velocity=80 time=0
note_off channel=0 note=52 velocity=64 time=240
note_off channel=0 note=45 velocity=64 time=0
note_on channel=0 note=52 velocity=80 time=0
note_on channel=0 note=45 velocity=80 time=0
note_off channel=0 note=52 velocity=64 time=240
note_off channel=0 note=45 velocity=64 time=0
note_on channel=0 note=52 velocity=80 time=0
note_on channel=0 note=45 velocity=80 time=0
note_off channel=0 note=52 velocity=64 time=240
note_off channel=0 note=45 velocity=64 time=0
note_on channel=0 note=52 velocity=80 time=0
note_on channel=0 note=45 velocity=80 time=0
note_off channel=0 note=52 velocity=64 time=240
note_off channel=0 note=45 velocity=64 time=0
note_on channel=0 note=50 velocity=80 time=0
note_on channel=0 note=45 velocity=80 time=0
note_on channel=0 note=38 velocity=80 time=0
note_off channel=0 note=50 velocity=64 time=240
note_off channel=0 note=45 velocity=64 time=0
note_off channel=0 note=38 velocity=64 time=0
note_on channel=0 note=45 velocity=80 time=0
note_on channel=0 note=38 velocity=80 time=0
note_off channel=0 note=45 velocity=64 time=240
note_off channel=0 note=38 velocity=64 time=0
note_on channel=0 note=45 velocity=80 time=0
note_on channel=0 note=38 velocity=80 time=0
note_off channel=0 note=45 velocity=64 time=240
note_off channel=0 note=38 velocity=64 time=0
note_on channel=0 note=45 velocity=80 time=0
note_on channel=0 note=38 velocity=80 time=0
note_off channel=0 note=45 velocity=64 time=240
note_off channel=0 note=38 velocity=64 time=0
note_on channel=0 note=45 velocity=80 time=0
note_on channel=0 note=38 velocity=80 time=0
note_off channel=0 note=45 velocity=64 time=240
note_off channel=0 note=38 velocity=64 time=0
note_on channel=0 note=45 velocity=80 time=0
note_on channel=0 note=38 velocity=80 time=0
note_off channel=0 note=45 velocity=64 time=240
note_off channel=0 note=38 velocity=64 time=0
note_on channel=0 note=45 velocity=80 time=0
note_on channel=0 note=38 velocity=80 time=0
note_off channel=0 note=45 velocity=64 time=240
note_off channel=0 note=38 velocity=64 time=0
note_on channel=0 note=45 velocity=80 time=0
note_on channel=0 note=38 velocity=80 time=0
note_off channel=0 note=45 velocity=64 time=240
note_off channel=0 note=38 velocity=64 time=0
note_on channel=0 note=52 velocity=80 time=0
note_on channel=0 note=47 velocity=80 time=0
note_on channel=0 note=40 velocity=80 time=0
note_off channel=0 note=52 velocity=64 time=240
note_off channel=0 note=47 velocity=64 time=0
note_off channel=0 note=40 velocity=64 time=0
note_on channel=0 note=47 velocity=80 time=0
note_on channel=0 note=40 velocity=80 time=0
note_off channel=0 note=47 velocity=64 time=240
note_off channel=0 note=40 velocity=64 time=0
note_on channel=0 note=47 velocity=80 time=0
note_on channel=0 note=40 velocity=80 time=0
note_off channel=0 note=47 velocity=64 time=240
note_off channel=0 note=40 velocity=64 time=0
note_on channel=0 note=47 velocity=80 time=0
note_on channel=0 note=40 velocity=80 time=0
note_off channel=0 note=47 velocity=64 time=240
note_off channel=0 note=40 velocity=64 time=0
note_on channel=0 note=47 velocity=80 time=0
note_on channel=0 note=40 velocity=80 time=0
note_off channel=0 note=47 velocity=64 time=240
note_off channel=0 note=40 velocity=64 time=0
note_on channel=0 note=47 velocity=80 time=0
note_on channel=0 note=40 velocity=80 time=0
note_off channel=0 note=47 velocity=64 time=240
note_off channel=0 note=40 velocity=64 time=0
note_on channel=0 note=47 velocity=80 time=0
note_on channel=0 note=40 velocity=80 time=0
note_off channel=0 note=47 velocity=64 time=240
note_off channel=0 note=40 velocity=64 time=0
note_on channel=0 note=47 velocity=80 time=0
note_on channel=0 note=40 velocity=80 time=0
note_off channel=0 note=47 velocity=64 time=240
note_off channel=0 note=40 velocity=64 time=0
note_on channel=0 note=54 velocity=80 time=0
note_on channel=0 note=49 velocity=80 time=0
note_on channel=0 note=42 velocity=80 time=0
note_off channel=0 note=54 velocity=64 time=240
note_off channel=0 note=49 velocity=64 time=0
note_off channel=0 note=42 velocity=64 time=0
note_on channel=0 note=49 velocity=80 time=0
note_on channel=0 note=42 velocity=80 time=0
note_off channel=0 note=49 velocity=64 time=240
note_off channel=0 note=42 velocity=64 time=0
note_on channel=0 note=49 velocity=80 time=0
note_on channel=0 note=42 velocity=80 time=0
note_off channel=0 note=49 velocity=64 time=240
note_off channel=0 note=42 velocity=64 time=0
note_on channel=0 note=49 velocity=80 time=0
note_on channel=0 note=42 velocity=80 time=0
note_off channel=0 note=49 velocity=64 time=240
note_off channel=0 note=42 velocity=64 time=0
note_on channel=0 note=49 velocity=80 time=0
note_on channel=0 note=42 velocity=80 time=0
note_off channel=0 note=49 velocity=64 time=240
note_off channel=0 note=42 velocity=64 time=0
note_on channel=0 note=49 velocity=80 time=0
note_on channel=0 note=42 velocity=80 time=0
note_off channel=0 note=49 velocity=64 time=240
note_off channel=0 note=42 velocity=64 time=0
note_on channel=0 note=49 velocity=80 time=0
note_on channel=0 note=42 velocity=80 time=0
note_off channel=0 note=49 velocity=64 time=240
note_off channel=0 note=42 velocity=64 time=0
note_on channel=0 note=49 velocity=80 time=0
note_on channel=0 note=42 velocity=80 time=0
note_off channel=0 note=49 velocity=64 time=240
note_off channel=0 note=42 velocity=64 time=0
note_on channel=0 note=57 velocity=80 time=0
note_on channel=0 note=52 velocity=80 time=0
note_on channel=0 note=45 velocity=80 time=0
note_off channel=0 note=57 velocity=64 time=240
note_off channel=0 note=52 velocity=64 time=0
note_off channel=0 note=45 velocity=64 time=0
note_on channel=0 note=52 velocity=80 time=0
note_on channel=0 note=45 velocity=80 time=0
note_off channel=0 note=52 velocity=64 time=240
note_off channel=0 note=45 velocity=64 time=0
note_on channel=0 note=52 velocity=80 time=0
note_on channel=0 note=45 velocity=80 time=0
note_off channel=0 note=52 velocity=64 time=240
note_off channel=0 note=45 velocity=64 time=0
note_on channel=0 note=52 velocity=80 time=0
note_on channel=0 note=45 velocity=80 time=0
note_off channel=0 note=52 velocity=64 time=240
note_off channel=0 note=45 velocity=64 time=0
note_on channel=0 note=52 velocity=80 time=0
note_on channel=0 note=45 velocity=80 time=0
note_off channel=0 note=52 velocity=64 time=240
note_off channel=0 note=45 velocity=64 time=0
note_on channel=0 note=52 velocity=80 time=0
note_on channel=0 note=45 velocity=80 time=0
note_off channel=0 note=52 velocity=64 time=240
note_off channel=0 note=45 velocity=64 time=0
note_on channel=0 note=52 velocity=80 time=0
note_on channel=0 note=45 velocity=80 time=0
note_off channel=0 note=52 velocity=64 time=240
note_off channel=0 note=45 velocity=64 time=0
note_on channel=0 note=52 velocity=80 time=0
note_on channel=0 note=45 velocity=80 time=0
note_off channel=0 note=52 velocity=64 time=240
note_off channel=0 note=45 velocity=64 time=0
note_on channel=0 note=50 velocity=80 time=0
note_on channel=0 note=45 velocity=80 time=0
note_on channel=0 note=38 velocity=80 time=0
note_off channel=0 note=50 velocity=64 time=240
note_off channel=0 note=45 velocity=64 time=0
note_off channel=0 note=38 velocity=64 time=0
note_on channel=0 note=45 velocity=80 time=0
note_on channel=0 note=38 velocity=80 time=0
note_off channel=0 note=45 velocity=64 time=240
note_off channel=0 note=38 velocity=64 time=0
note_on channel=0 note=45 velocity=80 time=0
note_on channel=0 note=38 velocity=80 time=0
note_off channel=0 note=45 velocity=64 time=240
note_off channel=0 note=38 velocity=64 time=0
note_on channel=0 note=45 velocity=80 time=0
note_on channel=0 note=38 velocity=80 time=0
note_off channel=0 note=45 velocity=64 time=240
note_off channel=0 note=38 velocity=64 time=0
note_on channel=0 note=45 velocity=80 time=0
note_on channel=0 note=38 velocity=80 time=0
note_off channel=0 note=45 velocity=64 time=240
note_off channel=0 note=38 velocity=64 time=0
note_on channel=0 note=45 velocity=80 time=0
note_on channel=0 note=38 velocity=80 time=0
note_off channel=0 note=45 velocity=64 time=240
note_off channel=0 note=38 velocity=64 time=0
note_on channel=0 note=45 velocity=80 time=0
note_on channel=0 note=38 velocity=80 time=0
note_off channel=0 note=45 velocity=64 time=240
note_off channel=0 note=38 velocity=64 time=0
note_on channel=0 note=45 velocity=80 time=0
note_on channel=0 note=38 velocity=80 time=0
note_off channel=0 note=45 velocity=64 time=240
note_off channel=0 note=38 velocity=64 time=0
note_on channel=0 note=52 velocity=80 time=0
note_on channel=0 note=47 velocity=80 time=0
note_on channel=0 note=40 velocity=80 time=0
note_off channel=0 note=52 velocity=64 time=240
note_off channel=0 note=47 velocity=64 time=0
note_off channel=0 note=40 velocity=64 time=0
note_on channel=0 note=47 velocity=80 time=0
note_on channel=0 note=40 velocity=80 time=0
note_off channel=0 note=47 velocity=64 time=240
note_off channel=0 note=40 velocity=64 time=0
note_on channel=0 note=47 velocity=80 time=0
note_on channel=0 note=40 velocity=80 time=0
note_off channel=0 note=47 velocity=64 time=240
note_off channel=0 note=40 velocity=64 time=0
note_on channel=0 note=47 velocity=80 time=0
note_on channel=0 note=40 velocity=80 time=0
note_off channel=0 note=47 velocity=64 time=240
note_off channel=0 note=40 velocity=64 time=0
note_on channel=0 note=47 velocity=80 time=0
note_on channel=0 note=40 velocity=80 time=0
note_off channel=0 note=47 velocity=64 time=240
note_off channel=0 note=40 velocity=64 time=0
note_on channel=0 note=47 velocity=80 time=0
note_on channel=0 note=40 velocity=80 time=0
note_off channel=0 note=47 velocity=64 time=240
note_off channel=0 note=40 velocity=64 time=0
note_on channel=0 note=47 velocity=80 time=0
note_on channel=0 note=40 velocity=80 time=0
note_off channel=0 note=47 velocity=64 time=240
note_off channel=0 note=40 velocity=64 time=0
note_on channel=0 note=47 velocity=80 time=0
note_on channel=0 note=40 velocity=80 time=0
note_off channel=0 note=47 velocity=64 time=240
note_off channel=0 note=40 velocity=64 time=0
note_on channel=0 note=54 velocity=80 time=0
note_on channel=0 note=49 velocity=80 time=0
note_on channel=0 note=42 velocity=80 time=0
note_off channel=0 note=54 velocity=64 time=240
note_off channel=0 note=49 velocity=64 time=0
note_off channel=0 note=42 velocity=64 time=0
note_on channel=0 note=49 velocity=80 time=0
note_on channel=0 note=42 velocity=80 time=0
note_off channel=0 note=49 velocity=64 time=240
note_off channel=0 note=42 velocity=64 time=0
note_on channel=0 note=49 velocity=80 time=0
note_on channel=0 note=42 velocity=80 time=0
note_off channel=0 note=49 velocity=64 time=240
note_off channel=0 note=42 velocity=64 time=0
note_on channel=0 note=49 velocity=80 time=0
note_on channel=0 note=42 velocity=80 time=0
note_off channel=0 note=49 velocity=64 time=240
note_off channel=0 note=42 velocity=64 time=0
note_on channel=0 note=49 velocity=80 time=0
note_on channel=0 note=42 velocity=80 time=0
note_off channel=0 note=49 velocity=64 time=240
note_off channel=0 note=42 velocity=64 time=0
note_on channel=0 note=49 velocity=80 time=0
note_on channel=0 note=42 velocity=80 time=0
note_off channel=0 note=49 velocity=64 time=240
note_off channel=0 note=42 velocity=64 time=0
note_on channel=0 note=49 velocity=80 time=0
note_on channel=0 note=42 velocity=80 time=0
note_off channel=0 note=49 velocity=64 time=240
note_off channel=0 note=42 velocity=64 time=0
note_on channel=0 note=49 velocity=80 time=0
note_on channel=0 note=42 velocity=80 time=0
note_off channel=0 note=49 velocity=64 time=240
note_off channel=0 note=42 velocity=64 time=0
note_on channel=0 note=57 velocity=80 time=0
note_on channel=0 note=52 velocity=80 time=0
note_on channel=0 note=45 velocity=80 time=0
note_off channel=0 note=57 velocity=64 time=240
note_off channel=0 note=52 velocity=64 time=0
note_off channel=0 note=45 velocity=64 time=0
note_on channel=0 note=52 velocity=80 time=0
note_on channel=0 note=45 velocity=80 time=0
note_off channel=0 note=52 velocity=64 time=240
note_off channel=0 note=45 velocity=64 time=0
note_on channel=0 note=52 velocity=80 time=0
note_on channel=0 note=45 velocity=80 time=0
note_off channel=0 note=52 velocity=64 time=240
note_off channel=0 note=45 velocity=64 time=0
note_on channel=0 note=52 velocity=80 time=0
note_on channel=0 note=45 velocity=80 time=0
note_off channel=0 note=52 velocity=64 time=240
note_off channel=0 note=45 velocity=64 time=0
note_on channel=0 note=52 velocity=80 time=0
note_on channel=0 note=45 velocity=80 time=0
note_off channel=0 note=52 velocity=64 time=240
note_off channel=0 note=45 velocity=64 time=0
note_on channel=0 note=52 velocity=80 time=0
note_on channel=0 note=45 velocity=80 time=0
note_off channel=0 note=52 velocity=64 time=240
note_off channel=0 note=45 velocity=64 time=0
note_on channel=0 note=52 velocity=80 time=0
note_on channel=0 note=45 velocity=80 time=0
note_off channel=0 note=52 velocity=64 time=240
note_off channel=0 note=45 velocity=64 time=0
note_on channel=0 note=52 velocity=80 time=0
note_on channel=0 note=45 velocity=80 time=0
note_off channel=0 note=52 velocity=64 time=240
note_off channel=0 note=45 velocity=64 time=0
note_on channel=0 note=50 velocity=80 time=0
note_on channel=0 note=45 velocity=80 time=0
note_on channel=0 note=38 velocity=80 time=0
note_off channel=0 note=50 velocity=64 time=240
note_off channel=0 note=45 velocity=64 time=0
note_off channel=0 note=38 velocity=64 time=0
note_on channel=0 note=45 velocity=80 time=0
note_on channel=0 note=38 velocity=80 time=0
note_off channel=0 note=45 velocity=64 time=240
note_off channel=0 note=38 velocity=64 time=0
note_on channel=0 note=45 velocity=80 time=0
note_on channel=0 note=38 velocity=80 time=0
note_off channel=0 note=45 velocity=64 time=240
note_off channel=0 note=38 velocity=64 time=0
note_on channel=0 note=45 velocity=80 time=0
note_on channel=0 note=38 velocity=80 time=0
note_off channel=0 note=45 velocity=64 time=240
note_off channel=0 note=38 velocity=64 time=0
note_on channel=0 note=45 velocity=80 time=0
note_on channel=0 note=38 velocity=80 time=0
note_off channel=0 note=45 velocity=64 time=240
note_off channel=0 note=38 velocity=64 time=0
note_on channel=0 note=45 velocity=80 time=0
note_on channel=0 note=38 velocity=80 time=0
note_off channel=0 note=45 velocity=64 time=240
note_off channel=0 note=38 velocity=64 time=0
note_on channel=0 note=45 velocity=80 time=0
note_on channel=0 note=38 velocity=80 time=0
note_off channel=0 note=45 velocity=64 time=240
note_off channel=0 note=38 velocity=64 time=0
note_on channel=0 note=45 velocity=80 time=0
note_on channel=0 note=38 velocity=80 time=0
note_off channel=0 note=45 velocity=64 time=240
note_off channel=0 note=38 velocity=64 time=0
note_on channel=0 note=52 velocity=80 time=0
note_on channel=0 note=47 velocity=80 time=0
note_on channel=0 note=40 velocity=80 time=0
note_off channel=0 note=52 velocity=64 time=240
note_off channel=0 note=47 velocity=64 time=0
note_off channel=0 note=40 velocity=64 time=0
note_on channel=0 note=47 velocity=80 time=0
note_on channel=0 note=40 velocity=80 time=0
note_off channel=0 note=47 velocity=64 time=240
note_off channel=0 note=40 velocity=64 time=0
note_on channel=0 note=47 velocity=80 time=0
note_on channel=0 note=40 velocity=80 time=0
note_off channel=0 note=47 velocity=64 time=240
note_off channel=0 note=40 velocity=64 time=0
note_on channel=0 note=47 velocity=80 time=0
note_on channel=0 note=40 velocity=80 time=0
note_off channel=0 note=47 velocity=64 time=240
note_off channel=0 note=40 velocity=64 time=0
note_on channel=0 note=47 velocity=80 time=0
note_on channel=0 note=40 velocity=80 time=0
note_off channel=0 note=47 velocity=64 time=240
note_off channel=0 note=40 velocity=64 time=0
note_on channel=0 note=47 velocity=80 time=0
note_on channel=0 note=40 velocity=80 time=0
note_off channel=0 note=47 velocity=64 time=240
note_off channel=0 note=40 velocity=64 time=0
note_on channel=0 note=47 velocity=80 time=0
note_on channel=0 note=40 velocity=80 time=0
note_off channel=0 note=47 velocity=64 time=240
note_off channel=0 note=40 velocity=64 time=0
note_on channel=0 note=47 velocity=80 time=0
note_on channel=0 note=40 velocity=80 time=0
note_off channel=0 note=47 velocity=64 time=240
note_off channel=0 note=40 velocity=64 time=0
note_on channel=0 note=54 velocity=80 time=0
note_on channel=0 note=49 velocity=80 time=0
note_on channel=0 note=42 velocity=80 time=0
note_off channel=0 note=54 velocity=64 time=240
note_off channel=0 note=49 velocity=64 time=0
note_off channel=0 note=42 velocity=64 time=0
note_on channel=0 note=49 velocity=80 time=0
note_on channel=0 note=42 velocity=80 time=0
note_off channel=0 note=49 velocity=64 time=240
note_off channel=0 note=42 velocity=64 time=0
note_on channel=0 note=49 velocity=80 time=0
note_on channel=0 note=42 velocity=80 time=0
note_off channel=0 note=49 velocity=64 time=240
note_off channel=0 note=42 velocity=64 time=0
note_on channel=0 note=49 velocity=80 time=0
note_on channel=0 note=42 velocity=80 time=0
note_off channel=0 note=49 velocity=64 time=240
note_off channel=0 note=42 velocity=64 time=0
note_on channel=0 note=49 velocity=80 time=0
note_on channel=0 note=42 velocity=80 time=0
note_off channel=0 note=49 velocity=64 time=240
note_off channel=0 note=42 velocity=64 time=0
note_on channel=0 note=49 velocity=80 time=0
note_on channel=0 note=42 velocity=80 time=0
note_off channel=0 note=49 velocity=64 time=240
note_off channel=0 note=42 velocity=64 time=0
note_on channel=0 note=49 velocity=80 time=0
note_on channel=0 note=42 velocity=80 time=0
note_off channel=0 note=49 velocity=64 time=240
note_off channel=0 note=42 velocity=64 time=0
note_on channel=0 note=49 velocity=80 time=0
note_on channel=0 note=42 velocity=80 time=0
note_off channel=0 note=49 velocity=64 time=240
note_off channel=0 note=42 velocity=64 time=0
note_on channel=0 note=57 velocity=80 time=0
note_on channel=0 note=52 velocity=80 time=0
note_on channel=0 note=45 velocity=80 time=0
note_off channel=0 note=57 velocity=64 time=240
note_off channel=0 note=52 velocity=64 time=0
note_off channel=0 note=45 velocity=64 time=0
note_on channel=0 note=52 velocity=80 time=0
note_on channel=0 note=45 velocity=80 time=0
note_off channel=0 note=52 velocity=64 time=240
note_off channel=0 note=45 velocity=64 time=0
note_on channel=0 note=52 velocity=80 time=0
note_on channel=0 note=45 velocity=80 time=0
note_off channel=0 note=52 velocity=64 time=240
note_off channel=0 note=45 velocity=64 time=0
note_on channel=0 note=52 velocity=80 time=0
note_on channel=0 note=45 velocity=80 time=0
note_off channel=0 note=52 velocity=64 time=240
note_off channel=0 note=45 velocity=64 time=0
note_on channel=0 note=52 velocity=80 time=0
note_on channel=0 note=45 velocity=80 time=0
note_off channel=0 note=52 velocity=64 time=240
note_off channel=0 note=45 velocity=64 time=0
note_on channel=0 note=52 velocity=80 time=0
note_on channel=0 note=45 velocity=80 time=0
note_off channel=0 note=52 velocity=64 time=240
note_off channel=0 note=45 velocity=64 time=0
note_on channel=0 note=52 velocity=80 time=0
note_on channel=0 note=45 velocity=80 time=0
note_off channel=0 note=52 velocity=64 time=240
note_off channel=0 note=45 velocity=64 time=0
note_on channel=0 note=52 velocity=80 time=0
note_on channel=0 note=45 velocity=80 time=0
note_off channel=0 note=52 velocity=64 time=240
note_off channel=0 note=45 velocity=64 time=0
note_on channel=0 note=50 velocity=80 time=0
note_on channel=0 note=45 velocity=80 time=0
note_on channel=0 note=38 velocity=80 time=0
note_off channel=0 note=50 velocity=64 time=240
note_off channel=0 note=45 velocity=64 time=0
note_off channel=0 note=38 velocity=64 time=0
note_on channel=0 note=45 velocity=80 time=0
note_on channel=0 note=38 velocity=80 time=0
note_off channel=0 note=45 velocity=64 time=240
note_off channel=0 note=38 velocity=64 time=0
note_on channel=0 note=45 velocity=80 time=0
note_on channel=0 note=38 velocity=80 time=0
note_off channel=0 note=45 velocity=64 time=240
note_off channel=0 note=38 velocity=64 time=0
note_on channel=0 note=45 velocity=80 time=0
note_on channel=0 note=38 velocity=80 time=0
note_off channel=0 note=45 velocity=64 time=240
note_off channel=0 note=38 velocity=64 time=0
note_on channel=0 note=45 velocity=80 time=0
note_on channel=0 note=38 velocity=80 time=0
note_off channel=0 note=45 velocity=64 time=240
note_off channel=0 note=38 velocity=64 time=0
note_on channel=0 note=45 velocity=80 time=0
note_on channel=0 note=38 velocity=80 time=0
note_off channel=0 note=45 velocity=64 time=240
note_off channel=0 note=38 velocity=64 time=0
note_on channel=0 note=45 velocity=80 time=0
note_on channel=0 note=38 velocity=80 time=0
note_off channel=0 note=45 velocity=64 time=240
note_off channel=0 note=38 velocity=64 time=0
note_on channel=0 note=45 velocity=80 time=0
note_on channel=0 note=38 velocity=80 time=0
note_off channel=0 note=45 velocity=64 time=240
note_off channel=0 note=38 velocity=64 time=0
note_on channel=0 note=52 velocity=80 time=0
note_on channel=0 note=47 velocity=80 time=0
note_on channel=0 note=40 velocity=80 time=0
note_off channel=0 note=52 velocity=64 time=240
note_off channel=0 note=47 velocity=64 time=0
note_off channel=0 note=40 velocity=64 time=0
note_on channel=0 note=47 velocity=80 time=0
note_on channel=0 note=40 velocity=80 time=0
note_off channel=0 note=47 velocity=64 time=240
note_off channel=0 note=40 velocity=64 time=0
note_on channel=0 note=47 velocity=80 time=0
note_on channel=0 note=40 velocity=80 time=0
note_off channel=0 note=47 velocity=64 time=240
note_off channel=0 note=40 velocity=64 time=0
note_on channel=0 note=47 velocity=80 time=0
note_on channel=0 note=40 velocity=80 time=0
note_off channel=0 note=47 velocity=64 time=240
note_off channel=0 note=40 velocity=64 time=0
note_on channel=0 note=47 velocity=80 time=0
note_on channel=0 note=40 velocity=80 time=0
note_off channel=0 note=47 velocity=64 time=240
note_off channel=0 note=40 velocity=64 time=0
note_on channel=0 note=47 velocity=80 time=0
note_on channel=0 note=40 velocity=80 time=0
note_off channel=0 note=47 velocity=64 time=240
note_off channel=0 note=40 velocity=64 time=0
note_on channel=0 note=47 velocity=80 time=0
note_on channel=0 note=40 velocity=80 time=0
note_off channel=0 note=47 velocity=64 time=240
note_off channel=0 note=40 velocity=64 time=0
note_on channel=0 note=47 velocity=80 time=0
note_on channel=0 note=40 velocity=80 time=0
note_off channel=0 note=47 velocity=64 time=240
note_off channel=0 note=40 velocity=64 time=0
note_on channel=0 note=61 velocity=80 time=0
note_off channel=0 note=61 velocity=64 time=240
note_on channel=0 note=54 velocity=80 time=0
note_off channel=0 note=54 velocity=64 time=240
note_on channel=0 note=61 velocity=80 time=0
note_off channel=0 note=61 velocity=64 time=240
note_on channel=0 note=64 velocity=80 time=0
note_off channel=0 note=64 velocity=64 time=120
note_on channel=0 note=66 velocity=80 time=0
note_off channel=0 note=66 velocity=64 time=120
note_on channel=0 note=68 velocity=80 time=0
note_off channel=0 note=68 velocity=64 time=240
note_on channel=0 note=64 velocity=80 time=0
note_off channel=0 note=64 velocity=64 time=240
note_on channel=0 note=68 velocity=80 time=0
note_off channel=0 note=68 velocity=64 time=240
note_on channel=0 note=71 velocity=80 time=0
note_off channel=0 note=71 velocity=64 time=240
note_on channel=0 note=73 velocity=80 time=0
note_off channel=0 note=73 velocity=64 time=240
note_on channel=0 note=69 velocity=80 time=0
note_off channel=0 note=69 velocity=64 time=240
note_on channel=0 note=73 velocity=80 time=0
note_off channel=0 note=73 velocity=64 time=240
note_on channel=0 note=71 velocity=80 time=0
note_off channel=0 note=71 velocity=64 time=120
note_on channel=0 note=69 velocity=80 time=0
note_off channel=0 note=69 velocity=64 time=120
note_on channel=0 note=71 velocity=80 time=0
note_off channel=0 note=71 velocity=64 time=240
note_on channel=0 note=68 velocity=80 time=0
note_off channel=0 note=68 velocity=64 time=240
note_on channel=0 note=64 velocity=80 time=0
note_off channel=0 note=64 velocity=64 time=240
note_on channel=0 note=68 velocity=80 time=0
note_off channel=0 note=68 velocity=64 time=240
note_on channel=0 note=69 velocity=80 time=0
note_off channel=0 note=69 velocity=64 time=240
note_on channel=0 note=66 velocity=80 time=0
note_off channel=0 note=66 velocity=64 time=240
note_on channel=0 note=69 velocity=80 time=0
note_off channel=0 note=69 velocity=64 time=240
note_on channel=0 note=71 velocity=80 time=0
note_off channel=0 note=71 velocity=64 time=120
note_on channel=0 note=69 velocity=80 time=0
note_off channel=0 note=69 velocity=64 time=120
note_on channel=0 note=68 velocity=80 time=0
note_off channel=0 note=68 velocity=64 time=240
note_on channel=0 note=64 velocity=80 time=0
note_off channel=0 note=64 velocity=64 time=240
note_on channel=0 note=66 velocity=80 time=0
note_off channel=0 note=66 velocity=64 time=240
note_on channel=0 note=68 velocity=80 time=0
note_off channel=0 note=68 velocity=64 time=240
note_on channel=0 note=69 velocity=80 time=0
note_off channel=0 note=69 velocity=64 time=240
note_on channel=0 note=66 velocity=80 time=0
note_off channel=0 note=66 velocity=64 time=240
note_on channel=0 note=69 velocity=80 time=0
note_off channel=0 note=69 velocity=64 time=240
note_on channel=0 note=71 velocity=80 time=0
note_off channel=0 note=71 velocity=64 time=120
note_on channel=0 note=69 velocity=80 time=0
note_off channel=0 note=69 velocity=64 time=120
note_on channel=0 note=68 velocity=80 time=0
note_off channel=0 note=68 velocity=64 time=240
note_on channel=0 note=64 velocity=80 time=0
note_off channel=0 note=64 velocity=64 time=240
note_on channel=0 note=61 velocity=80 time=0
note_off channel=0 note=61 velocity=64 time=240
note_on channel=0 note=68 velocity=80 time=0
note_off channel=0 note=68 velocity=64 time=240
note_on channel=0 note=66 velocity=80 time=0
note_off channel=0 note=66 velocity=64 time=240
note_on channel=0 note=61 velocity=80 time=0
note_off channel=0 note=61 velocity=64 time=240
note_on channel=0 note=61 velocity=80 time=0
note_off channel=0 note=61 velocity=64 time=240
note_on channel=0 note=64 velocity=80 time=0
note_off channel=0 note=64 velocity=64 time=120
note_on channel=0 note=66 velocity=80 time=0
note_off channel=0 note=66 velocity=64 time=120
note_on channel=0 note=68 velocity=80 time=0
note_off channel=0 note=68 velocity=64 time=240
note_on channel=0 note=64 velocity=80 time=0
note_off channel=0 note=64 velocity=64 time=240
note_on channel=0 note=68 velocity=80 time=0
note_off channel=0 note=68 velocity=64 time=240
note_on channel=0 note=71 velocity=80 time=0
note_off channel=0 note=71 velocity=64 time=240
note_on channel=0 note=73 velocity=80 time=0
note_off channel=0 note=73 velocity=64 time=240
note_on channel=0 note=69 velocity=80 time=0
note_off channel=0 note=69 velocity=64 time=240
note_on channel=0 note=73 velocity=80 time=0
note_off channel=0 note=73 velocity=64 time=240
note_on channel=0 note=74 velocity=80 time=0
note_off channel=0 note=74 velocity=64 time=120
note_on channel=0 note=73 velocity=80 time=0
note_off channel=0 note=73 velocity=64 time=120
note_on channel=0 note=71 velocity=80 time=0
note_off channel=0 note=71 velocity=64 time=240
note_on channel=0 note=68 velocity=80 time=0
note_off channel=0 note=68 velocity=64 time=240
note_on channel=0 note=64 velocity=80 time=0
note_off channel=0 note=64 velocity=64 time=240
note_on channel=0 note=68 velocity=80 time=0
note_off channel=0 note=68 velocity=64 time=240
note_on channel=0 note=69 velocity=80 time=0
note_off channel=0 note=69 velocity=64 time=240
note_on channel=0 note=66 velocity=80 time=0
note_off channel=0 note=66 velocity=64 time=240
note_on channel=0 note=69 velocity=80 time=0
note_off channel=0 note=69 velocity=64 time=240
note_on channel=0 note=71 velocity=80 time=0
note_off channel=0 note=71 velocity=64 time=120
note_on channel=0 note=69 velocity=80 time=0
note_off channel=0 note=69 velocity=64 time=120
note_on channel=0 note=68 velocity=80 time=0
note_off channel=0 note=68 velocity=64 time=240
note_on channel=0 note=64 velocity=80 time=0
note_off channel=0 note=64 velocity=64 time=240
note_on channel=0 note=66 velocity=80 time=0
note_off channel=0 note=66 velocity=64 time=240
note_on channel=0 note=68 velocity=80 time=0
note_off channel=0 note=68 velocity=64 time=240
note_on channel=0 note=69 velocity=80 time=0
note_off channel=0 note=69 velocity=64 time=240
note_on channel=0 note=66 velocity=80 time=0
note_off channel=0 note=66 velocity=64 time=240
note_on channel=0 note=69 velocity=80 time=0
note_off channel=0 note=69 velocity=64 time=240
note_on channel=0 note=71 velocity=80 time=0
note_off channel=0 note=71 velocity=64 time=120
note_on channel=0 note=69 velocity=80 time=0
note_off channel=0 note=69 velocity=64 time=120
note_on channel=0 note=68 velocity=80 time=0
note_off channel=0 note=68 velocity=64 time=240
note_on channel=0 note=64 velocity=80 time=0
note_off channel=0 note=64 velocity=64 time=240
note_on channel=0 note=61 velocity=80 time=0
note_off channel=0 note=61 velocity=64 time=240
note_on channel=0 note=68 velocity=80 time=0
note_off channel=0 note=68 velocity=64 time=240
note_on channel=0 note=69 velocity=80 time=0
note_off channel=0 note=69 velocity=64 time=240
note_on channel=0 note=66 velocity=80 time=0
note_off channel=0 note=66 velocity=64 time=240
note_on channel=0 note=69 velocity=80 time=0
note_off channel=0 note=69 velocity=64 time=240
note_on channel=0 note=68 velocity=80 time=0
note_off channel=0 note=68 velocity=64 time=120
note_on channel=0 note=66 velocity=80 time=0
note_off channel=0 note=66 velocity=64 time=120
note_on channel=0 note=68 velocity=80 time=0
note_off channel=0 note=68 velocity=64 time=240
note_on channel=0 note=64 velocity=80 time=0
note_off channel=0 note=64 velocity=64 time=240
note_on channel=0 note=66 velocity=80 time=0
note_off channel=0 note=66 velocity=64 time=240
note_on channel=0 note=68 velocity=80 time=0
note_off channel=0 note=68 velocity=64 time=240
note_on channel=0 note=69 velocity=80 time=0
note_off channel=0 note=69 velocity=64 time=240
note_on channel=0 note=66 velocity=80 time=0
note_off channel=0 note=66 velocity=64 time=240
note_on channel=0 note=69 velocity=80 time=0
note_off channel=0 note=69 velocity=64 time=240
note_on channel=0 note=68 velocity=80 time=0
note_off channel=0 note=68 velocity=64 time=120
note_on channel=0 note=66 velocity=80 time=0
note_off channel=0 note=66 velocity=64 time=120
note_on channel=0 note=68 velocity=80 time=0
note_off channel=0 note=68 velocity=64 time=240
note_on channel=0 note=64 velocity=80 time=0
note_off channel=0 note=64 velocity=64 time=240
note_on channel=0 note=66 velocity=80 time=0
note_off channel=0 note=66 velocity=64 time=240
note_on channel=0 note=68 velocity=80 time=0
note_off channel=0 note=68 velocity=64 time=240
note_on channel=0 note=69 velocity=80 time=0
note_off channel=0 note=69 velocity=64 time=240
note_on channel=0 note=66 velocity=80 time=0
note_off channel=0 note=66 velocity=64 time=240
note_on channel=0 note=69 velocity=80 time=0
note_off channel=0 note=69 velocity=64 time=240
note_on channel=0 note=68 velocity=80 time=0
note_off channel=0 note=68 velocity=64 time=120
note_on channel=0 note=69 velocity=80 time=0
note_off channel=0 note=69 velocity=64 time=120
note_on channel=0 note=71 velocity=80 time=0
note_off channel=0 note=71 velocity=64 time=240
note_on channel=0 note=64 velocity=80 time=0
note_off channel=0 note=64 velocity=64 time=240
note_on channel=0 note=71 velocity=80 time=0
note_off channel=0 note=71 velocity=64 time=240
note_on channel=0 note=69 velocity=80 time=0
note_off channel=0 note=69 velocity=64 time=120
note_on channel=0 note=71 velocity=80 time=0
note_off channel=0 note=71 velocity=64 time=120
note_on channel=0 note=73 velocity=80 time=0
note_off channel=0 note=73 velocity=64 time=240
note_on channel=0 note=66 velocity=80 time=0
note_off channel=0 note=66 velocity=64 time=240
note_on channel=0 note=73 velocity=80 time=0
note_off channel=0 note=73 velocity=64 time=240
note_on channel=0 note=71 velocity=80 time=0
note_off channel=0 note=71 velocity=64 time=120
note_on channel=0 note=69 velocity=80 time=0
note_off channel=0 note=69 velocity=64 time=120
note_on channel=0 note=71 velocity=80 time=0
note_off channel=0 note=71 velocity=64 time=240
note_on channel=0 note=68 velocity=80 time=0
note_off channel=0 note=68 velocity=64 time=240
note_on channel=0 note=69 velocity=80 time=0
note_off channel=0 note=69 velocity=64 time=240
note_on channel=0 note=71 velocity=80 time=0
note_off channel=0 note=71 velocity=64 time=240
note_on channel=0 note=73 velocity=80 time=0
note_off channel=0 note=73 velocity=64 time=240
note_on channel=0 note=69 velocity=80 time=0
note_off channel=0 note=69 velocity=64 time=240
note_on channel=0 note=73 velocity=80 time=0
note_off channel=0 note=73 velocity=64 time=240
note_on channel=0 note=71 velocity=80 time=0
note_off channel=0 note=71 velocity=64 time=120
note_on channel=0 note=69 velocity=80 time=0
note_off channel=0 note=69 velocity=64 time=120
note_on channel=0 note=71 velocity=80 time=0
note_off channel=0 note=71 velocity=64 time=240
note_on channel=0 note=68 velocity=80 time=0
note_off channel=0 note=68 velocity=64 time=240
note_on channel=0 note=69 velocity=80 time=0
note_off channel=0 note=69 velocity=64 time=240
note_on channel=0 note=71 velocity=80 time=0
note_off channel=0 note=71 velocity=64 time=240
note_on channel=0 note=73 velocity=80 time=0
note_off channel=0 note=73 velocity=64 time=240
note_on channel=0 note=69 velocity=80 time=0
note_off channel=0 note=69 velocity=64 time=240
note_on channel=0 note=73 velocity=80 time=0
note_off channel=0 note=73 velocity=64 time=240
note_on channel=0 note=71 velocity=80 time=0
note_off channel=0 note=71 velocity=64 time=120
note_on channel=0 note=69 velocity=80 time=0
note_off channel=0 note=69 velocity=64 time=120
note_on channel=0 note=71 velocity=80 time=0
note_off channel=0 note=71 velocity=64 time=240
note_on channel=0 note=68 velocity=80 time=0
note_off channel=0 note=68 velocity=64 time=240
note_on channel=0 note=69 velocity=80 time=0
note_off channel=0 note=69 velocity=64 time=240
note_on channel=0 note=71 velocity=80 time=0
note_off channel=0 note=71 velocity=64 time=240
note_on channel=0 note=73 velocity=80 time=0
note_off channel=0 note=73 velocity=64 time=240
note_on channel=0 note=66 velocity=80 time=0
note_off channel=0 note=66 velocity=64 time=240
note_on channel=0 note=73 velocity=80 time=0
note_off channel=0 note=73 velocity=64 time=240
note_on channel=0 note=71 velocity=80 time=0
note_off channel=0 note=71 velocity=64 time=120
note_on channel=0 note=73 velocity=80 time=0
note_off channel=0 note=73 velocity=64 time=120
note_on channel=0 note=71 velocity=80 time=0
note_off channel=0 note=71 velocity=64 time=240
note_on channel=0 note=68 velocity=80 time=0
note_off channel=0 note=68 velocity=64 time=240
note_on channel=0 note=74 velocity=80 time=0
note_off channel=0 note=74 velocity=64 time=240
note_on channel=0 note=73 velocity=80 time=0
note_off channel=0 note=73 velocity=64 time=120
note_on channel=0 note=71 velocity=80 time=0
note_off channel=0 note=71 velocity=64 time=120
note_on channel=0 note=69 velocity=80 time=0
note_off channel=0 note=69 velocity=64 time=240
note_on channel=0 note=66 velocity=80 time=0
note_off channel=0 note=66 velocity=64 time=240
note_on channel=0 note=69 velocity=80 time=0
note_off channel=0 note=69 velocity=64 time=240
note_on channel=0 note=68 velocity=80 time=0
note_off channel=0 note=68 velocity=64 time=120
note_on channel=0 note=66 velocity=80 time=0
note_off channel=0 note=66 velocity=64 time=120
note_on channel=0 note=68 velocity=80 time=0
note_off channel=0 note=68 velocity=64 time=240
note_on channel=0 note=64 velocity=80 time=0
note_off channel=0 note=64 velocity=64 time=240
note_on channel=0 note=61 velocity=80 time=0
note_off channel=0 note=61 velocity=64 time=240
note_on channel=0 note=56 velocity=80 time=0
note_off channel=0 note=56 velocity=64 time=240
note_on channel=0 note=54 velocity=80 time=0
note_off channel=0 note=54 velocity=64 time=1920
MetaMessage('end_of_track', time=0)
MetaMessage('track_name', name='Alex ALA¨A2A\xa0A°A\xa0', time=0)
program_change channel=1 program=30 time=0
note_on channel=1 note=54 velocity=80 time=0
note_on channel=1 note=49 velocity=80 time=0
note_on channel=1 note=42 velocity=80 time=0
note_off channel=1 note=54 velocity=64 time=240
note_off channel=1 note=49 velocity=64 time=0
note_off channel=1 note=42 velocity=64 time=0
note_on channel=1 note=54 velocity=80 time=0
note_on channel=1 note=49 velocity=80 time=0
note_on channel=1 note=42 velocity=80 time=0
note_off channel=1 note=54 velocity=64 time=240
note_off channel=1 note=49 velocity=64 time=0
note_off channel=1 note=42 velocity=64 time=0
note_on channel=1 note=54 velocity=80 time=240
note_on channel=1 note=49 velocity=80 time=0
note_on channel=1 note=42 velocity=80 time=0
note_off channel=1 note=54 velocity=64 time=240
note_off channel=1 note=49 velocity=64 time=0
note_off channel=1 note=42 velocity=64 time=0
note_on channel=1 note=54 velocity=80 time=0
note_on channel=1 note=49 velocity=80 time=0
note_on channel=1 note=42 velocity=80 time=0
note_off channel=1 note=54 velocity=64 time=240
note_off channel=1 note=49 velocity=64 time=0
note_off channel=1 note=42 velocity=64 time=0
note_on channel=1 note=54 velocity=80 time=240
note_on channel=1 note=49 velocity=80 time=0
note_on channel=1 note=42 velocity=80 time=0
note_off channel=1 note=54 velocity=64 time=240
note_off channel=1 note=49 velocity=64 time=0
note_off channel=1 note=42 velocity=64 time=0
note_on channel=1 note=50 velocity=80 time=0
note_on channel=1 note=45 velocity=80 time=0
note_on channel=1 note=38 velocity=80 time=0
note_off channel=1 note=50 velocity=64 time=240
note_off channel=1 note=45 velocity=64 time=0
note_off channel=1 note=38 velocity=64 time=0
note_on channel=1 note=50 velocity=80 time=240
note_on channel=1 note=45 velocity=80 time=0
note_on channel=1 note=38 velocity=80 time=0
note_off channel=1 note=50 velocity=64 time=240
note_off channel=1 note=45 velocity=64 time=0
note_off channel=1 note=38 velocity=64 time=0
note_on channel=1 note=50 velocity=80 time=0
note_on channel=1 note=45 velocity=80 time=0
note_on channel=1 note=38 velocity=80 time=0
note_off channel=1 note=50 velocity=64 time=240
note_off channel=1 note=45 velocity=64 time=0
note_off channel=1 note=38 velocity=64 time=0
note_on channel=1 note=52 velocity=80 time=240
note_on channel=1 note=47 velocity=80 time=0
note_on channel=1 note=40 velocity=80 time=0
note_off channel=1 note=52 velocity=64 time=240
note_off channel=1 note=47 velocity=64 time=0
note_off channel=1 note=40 velocity=64 time=0
note_on channel=1 note=40 velocity=80 time=0
note_off channel=1 note=40 velocity=64 time=120
note_on channel=1 note=40 velocity=80 time=0
note_off channel=1 note=40 velocity=64 time=120
note_on channel=1 note=52 velocity=80 time=0
note_on channel=1 note=47 velocity=80 time=0
note_on channel=1 note=40 velocity=80 time=0
note_off channel=1 note=52 velocity=64 time=240
note_off channel=1 note=47 velocity=64 time=0
note_off channel=1 note=40 velocity=64 time=0
note_on channel=1 note=52 velocity=80 time=0
note_on channel=1 note=47 velocity=80 time=0
note_on channel=1 note=40 velocity=80 time=0
note_off channel=1 note=52 velocity=64 time=240
note_off channel=1 note=47 velocity=64 time=0
note_off channel=1 note=40 velocity=64 time=0
note_on channel=1 note=54 velocity=80 time=0
note_on channel=1 note=49 velocity=80 time=0
note_on channel=1 note=42 velocity=80 time=0
note_off channel=1 note=54 velocity=64 time=240
note_off channel=1 note=49 velocity=64 time=0
note_off channel=1 note=42 velocity=64 time=0
note_on channel=1 note=54 velocity=80 time=0
note_on channel=1 note=49 velocity=80 time=0
note_on channel=1 note=42 velocity=80 time=0
note_off channel=1 note=54 velocity=64 time=240
note_off channel=1 note=49 velocity=64 time=0
note_off channel=1 note=42 velocity=64 time=0
note_on channel=1 note=54 velocity=80 time=240
note_on channel=1 note=49 velocity=80 time=0
note_on channel=1 note=42 velocity=80 time=0
note_off channel=1 note=54 velocity=64 time=240
note_off channel=1 note=49 velocity=64 time=0
note_off channel=1 note=42 velocity=64 time=0
note_on channel=1 note=54 velocity=80 time=0
note_on channel=1 note=49 velocity=80 time=0
note_on channel=1 note=42 velocity=80 time=0
note_off channel=1 note=54 velocity=64 time=240
note_off channel=1 note=49 velocity=64 time=0
note_off channel=1 note=42 velocity=64 time=0
note_on channel=1 note=54 velocity=80 time=240
note_on channel=1 note=49 velocity=80 time=0
note_on channel=1 note=42 velocity=80 time=0
note_off channel=1 note=54 velocity=64 time=240
note_off channel=1 note=49 velocity=64 time=0
note_off channel=1 note=42 velocity=64 time=0
note_on channel=1 note=50 velocity=80 time=0
note_on channel=1 note=45 velocity=80 time=0
note_on channel=1 note=38 velocity=80 time=0
note_off channel=1 note=50 velocity=64 time=240
note_off channel=1 note=45 velocity=64 time=0
note_off channel=1 note=38 velocity=64 time=0
note_on channel=1 note=50 velocity=80 time=240
note_on channel=1 note=45 velocity=80 time=0
note_on channel=1 note=38 velocity=80 time=0
note_off channel=1 note=50 velocity=64 time=240
note_off channel=1 note=45 velocity=64 time=0
note_off channel=1 note=38 velocity=64 time=0
note_on channel=1 note=50 velocity=80 time=0
note_on channel=1 note=45 velocity=80 time=0
note_on channel=1 note=38 velocity=80 time=0
note_off channel=1 note=50 velocity=64 time=240
note_off channel=1 note=45 velocity=64 time=0
note_off channel=1 note=38 velocity=64 time=0
note_on channel=1 note=52 velocity=80 time=240
note_on channel=1 note=47 velocity=80 time=0
note_on channel=1 note=40 velocity=80 time=0
note_off channel=1 note=52 velocity=64 time=240
note_off channel=1 note=47 velocity=64 time=0
note_off channel=1 note=40 velocity=64 time=0
note_on channel=1 note=40 velocity=80 time=0
note_off channel=1 note=40 velocity=64 time=120
note_on channel=1 note=40 velocity=80 time=0
note_off channel=1 note=40 velocity=64 time=120
note_on channel=1 note=52 velocity=80 time=0
note_on channel=1 note=47 velocity=80 time=0
note_on channel=1 note=40 velocity=80 time=0
note_off channel=1 note=52 velocity=64 time=240
note_off channel=1 note=47 velocity=64 time=0
note_off channel=1 note=40 velocity=64 time=0
note_on channel=1 note=52 velocity=80 time=0
note_on channel=1 note=47 velocity=80 time=0
note_on channel=1 note=40 velocity=80 time=0
note_off channel=1 note=52 velocity=64 time=240
note_off channel=1 note=47 velocity=64 time=0
note_off channel=1 note=40 velocity=64 time=0
note_on channel=1 note=54 velocity=80 time=0
note_on channel=1 note=49 velocity=80 time=0
note_on channel=1 note=42 velocity=80 time=0
note_off channel=1 note=54 velocity=64 time=240
note_off channel=1 note=49 velocity=64 time=0
note_off channel=1 note=42 velocity=64 time=0
note_on channel=1 note=54 velocity=80 time=0
note_on channel=1 note=49 velocity=80 time=0
note_on channel=1 note=42 velocity=80 time=0
note_off channel=1 note=54 velocity=64 time=240
note_off channel=1 note=49 velocity=64 time=0
note_off channel=1 note=42 velocity=64 time=0
note_on channel=1 note=54 velocity=80 time=240
note_on channel=1 note=49 velocity=80 time=0
note_on channel=1 note=42 velocity=80 time=0
note_off channel=1 note=54 velocity=64 time=240
note_off channel=1 note=49 velocity=64 time=0
note_off channel=1 note=42 velocity=64 time=0
note_on channel=1 note=54 velocity=80 time=0
note_on channel=1 note=49 velocity=80 time=0
note_on channel=1 note=42 velocity=80 time=0
note_off channel=1 note=54 velocity=64 time=240
note_off channel=1 note=49 velocity=64 time=0
note_off channel=1 note=42 velocity=64 time=0
note_on channel=1 note=54 velocity=80 time=240
note_on channel=1 note=49 velocity=80 time=0
note_on channel=1 note=42 velocity=80 time=0
note_off channel=1 note=54 velocity=64 time=240
note_off channel=1 note=49 velocity=64 time=0
note_off channel=1 note=42 velocity=64 time=0
note_on channel=1 note=50 velocity=80 time=0
note_on channel=1 note=45 velocity=80 time=0
note_on channel=1 note=38 velocity=80 time=0
note_off channel=1 note=50 velocity=64 time=240
note_off channel=1 note=45 velocity=64 time=0
note_off channel=1 note=38 velocity=64 time=0
note_on channel=1 note=50 velocity=80 time=240
note_on channel=1 note=45 velocity=80 time=0
note_on channel=1 note=38 velocity=80 time=0
note_off channel=1 note=50 velocity=64 time=240
note_off channel=1 note=45 velocity=64 time=0
note_off channel=1 note=38 velocity=64 time=0
note_on channel=1 note=50 velocity=80 time=0
note_on channel=1 note=45 velocity=80 time=0
note_on channel=1 note=38 velocity=80 time=0
note_off channel=1 note=50 velocity=64 time=240
note_off channel=1 note=45 velocity=64 time=0
note_off channel=1 note=38 velocity=64 time=0
note_on channel=1 note=52 velocity=80 time=240
note_on channel=1 note=47 velocity=80 time=0
note_on channel=1 note=40 velocity=80 time=0
note_off channel=1 note=52 velocity=64 time=240
note_off channel=1 note=47 velocity=64 time=0
note_off channel=1 note=40 velocity=64 time=0
note_on channel=1 note=40 velocity=80 time=0
note_off channel=1 note=40 velocity=64 time=120
note_on channel=1 note=40 velocity=80 time=0
note_off channel=1 note=40 velocity=64 time=120
note_on channel=1 note=52 velocity=80 time=0
note_on channel=1 note=47 velocity=80 time=0
note_on channel=1 note=40 velocity=80 time=0
note_off channel=1 note=52 velocity=64 time=240
note_off channel=1 note=47 velocity=64 time=0
note_off channel=1 note=40 velocity=64 time=0
note_on channel=1 note=52 velocity=80 time=0
note_on channel=1 note=47 velocity=80 time=0
note_on channel=1 note=40 velocity=80 time=0
note_off channel=1 note=52 velocity=64 time=240
note_off channel=1 note=47 velocity=64 time=0
note_off channel=1 note=40 velocity=64 time=0
note_on channel=1 note=54 velocity=80 time=0
note_on channel=1 note=49 velocity=80 time=0
note_on channel=1 note=42 velocity=80 time=0
note_off channel=1 note=54 velocity=64 time=240
note_off channel=1 note=49 velocity=64 time=0
note_off channel=1 note=42 velocity=64 time=0
note_on channel=1 note=54 velocity=80 time=0
note_on channel=1 note=49 velocity=80 time=0
note_on channel=1 note=42 velocity=80 time=0
note_off channel=1 note=54 velocity=64 time=240
note_off channel=1 note=49 velocity=64 time=0
note_off channel=1 note=42 velocity=64 time=0
note_on channel=1 note=54 velocity=80 time=240
note_on channel=1 note=49 velocity=80 time=0
note_on channel=1 note=42 velocity=80 time=0
note_off channel=1 note=54 velocity=64 time=240
note_off channel=1 note=49 velocity=64 time=0
note_off channel=1 note=42 velocity=64 time=0
note_on channel=1 note=54 velocity=80 time=0
note_on channel=1 note=49 velocity=80 time=0
note_on channel=1 note=42 velocity=80 time=0
note_off channel=1 note=54 velocity=64 time=240
note_off channel=1 note=49 velocity=64 time=0
note_off channel=1 note=42 velocity=64 time=0
note_on channel=1 note=54 velocity=80 time=240
note_on channel=1 note=49 velocity=80 time=0
note_on channel=1 note=42 velocity=80 time=0
note_off channel=1 note=54 velocity=64 time=240
note_off channel=1 note=49 velocity=64 time=0
note_off channel=1 note=42 velocity=64 time=0
note_on channel=1 note=50 velocity=80 time=0
note_on channel=1 note=45 velocity=80 time=0
note_on channel=1 note=38 velocity=80 time=0
note_off channel=1 note=50 velocity=64 time=240
note_off channel=1 note=45 velocity=64 time=0
note_off channel=1 note=38 velocity=64 time=0
note_on channel=1 note=50 velocity=80 time=240
note_on channel=1 note=45 velocity=80 time=0
note_on channel=1 note=38 velocity=80 time=0
note_off channel=1 note=50 velocity=64 time=240
note_off channel=1 note=45 velocity=64 time=0
note_off channel=1 note=38 velocity=64 time=0
note_on channel=1 note=50 velocity=80 time=0
note_on channel=1 note=45 velocity=80 time=0
note_on channel=1 note=38 velocity=80 time=0
note_off channel=1 note=50 velocity=64 time=240
note_off channel=1 note=45 velocity=64 time=0
note_off channel=1 note=38 velocity=64 time=0
note_on channel=1 note=52 velocity=80 time=240
note_on channel=1 note=47 velocity=80 time=0
note_on channel=1 note=40 velocity=80 time=0
note_off channel=1 note=52 velocity=64 time=240
note_off channel=1 note=47 velocity=64 time=0
note_off channel=1 note=40 velocity=64 time=0
note_on channel=1 note=40 velocity=80 time=0
note_off channel=1 note=40 velocity=64 time=120
note_on channel=1 note=40 velocity=80 time=0
note_off channel=1 note=40 velocity=64 time=120
note_on channel=1 note=52 velocity=80 time=0
note_on channel=1 note=47 velocity=80 time=0
note_on channel=1 note=40 velocity=80 time=0
note_off channel=1 note=52 velocity=64 time=240
note_off channel=1 note=47 velocity=64 time=0
note_off channel=1 note=40 velocity=64 time=0
note_on channel=1 note=52 velocity=80 time=0
note_on channel=1 note=47 velocity=80 time=0
note_on channel=1 note=40 velocity=80 time=0
note_off channel=1 note=52 velocity=64 time=240
note_off channel=1 note=47 velocity=64 time=0
note_off channel=1 note=40 velocity=64 time=0
note_on channel=1 note=42 velocity=80 time=0
note_off channel=1 note=42 velocity=64 time=120
note_on channel=1 note=42 velocity=80 time=0
note_off channel=1 note=42 velocity=64 time=120
note_on channel=1 note=42 velocity=80 time=0
note_off channel=1 note=42 velocity=64 time=120
note_on channel=1 note=42 velocity=80 time=0
note_off channel=1 note=42 velocity=64 time=120
note_on channel=1 note=54 velocity=80 time=0
note_on channel=1 note=49 velocity=80 time=0
note_on channel=1 note=42 velocity=80 time=0
note_off channel=1 note=54 velocity=64 time=240
note_off channel=1 note=49 velocity=64 time=0
note_off channel=1 note=42 velocity=64 time=0
note_on channel=1 note=54 velocity=80 time=0
note_on channel=1 note=49 velocity=80 time=0
note_on channel=1 note=42 velocity=80 time=0
note_off channel=1 note=54 velocity=64 time=240
note_off channel=1 note=49 velocity=64 time=0
note_off channel=1 note=42 velocity=64 time=0
note_on channel=1 note=42 velocity=80 time=960
note_off channel=1 note=42 velocity=64 time=120
note_on channel=1 note=42 velocity=80 time=0
note_off channel=1 note=42 velocity=64 time=120
note_on channel=1 note=42 velocity=80 time=0
note_off channel=1 note=42 velocity=64 time=120
note_on channel=1 note=42 velocity=80 time=0
note_off channel=1 note=42 velocity=64 time=120
note_on channel=1 note=54 velocity=80 time=0
note_on channel=1 note=49 velocity=80 time=0
note_on channel=1 note=42 velocity=80 time=0
note_off channel=1 note=54 velocity=64 time=240
note_off channel=1 note=49 velocity=64 time=0
note_off channel=1 note=42 velocity=64 time=0
note_on channel=1 note=54 velocity=80 time=0
note_on channel=1 note=49 velocity=80 time=0
note_on channel=1 note=42 velocity=80 time=0
note_off channel=1 note=54 velocity=64 time=240
note_off channel=1 note=49 velocity=64 time=0
note_off channel=1 note=42 velocity=64 time=0
note_on channel=1 note=50 velocity=80 time=960
note_on channel=1 note=45 velocity=80 time=0
note_on channel=1 note=38 velocity=80 time=0
note_off channel=1 note=50 velocity=64 time=240
note_off channel=1 note=45 velocity=64 time=0
note_off channel=1 note=38 velocity=64 time=0
note_on channel=1 note=50 velocity=80 time=0
note_on channel=1 note=45 velocity=80 time=0
note_on channel=1 note=38 velocity=80 time=0
note_off channel=1 note=50 velocity=64 time=240
note_off channel=1 note=45 velocity=64 time=0
note_off channel=1 note=38 velocity=64 time=0
note_on channel=1 note=50 velocity=80 time=240
note_on channel=1 note=45 velocity=80 time=0
note_on channel=1 note=38 velocity=80 time=0
note_off channel=1 note=50 velocity=64 time=240
note_off channel=1 note=45 velocity=64 time=0
note_off channel=1 note=38 velocity=64 time=0
note_on channel=1 note=52 velocity=80 time=0
note_on channel=1 note=47 velocity=80 time=0
note_on channel=1 note=40 velocity=80 time=0
note_off channel=1 note=52 velocity=64 time=240
note_off channel=1 note=47 velocity=64 time=0
note_off channel=1 note=40 velocity=64 time=0
note_on channel=1 note=52 velocity=80 time=240
note_on channel=1 note=47 velocity=80 time=0
note_on channel=1 note=40 velocity=80 time=0
note_off channel=1 note=52 velocity=64 time=240
note_off channel=1 note=47 velocity=64 time=0
note_off channel=1 note=40 velocity=64 time=0
note_on channel=1 note=52 velocity=80 time=0
note_on channel=1 note=47 velocity=80 time=0
note_on channel=1 note=40 velocity=80 time=0
note_off channel=1 note=52 velocity=64 time=240
note_off channel=1 note=47 velocity=64 time=0
note_off channel=1 note=40 velocity=64 time=0
note_on channel=1 note=57 velocity=80 time=0
note_on channel=1 note=52 velocity=80 time=0
note_on channel=1 note=45 velocity=80 time=0
note_off channel=1 note=57 velocity=64 time=240
note_off channel=1 note=52 velocity=64 time=0
note_off channel=1 note=45 velocity=64 time=0
note_on channel=1 note=57 velocity=80 time=0
note_on channel=1 note=52 velocity=80 time=0
note_on channel=1 note=45 velocity=80 time=0
note_off channel=1 note=57 velocity=64 time=240
note_off channel=1 note=52 velocity=64 time=0
note_off channel=1 note=45 velocity=64 time=0
note_on channel=1 note=57 velocity=80 time=0
note_on channel=1 note=52 velocity=80 time=0
note_on channel=1 note=45 velocity=80 time=0
note_off channel=1 note=57 velocity=64 time=240
note_off channel=1 note=52 velocity=64 time=0
note_off channel=1 note=45 velocity=64 time=0
note_on channel=1 note=57 velocity=80 time=0
note_on channel=1 note=52 velocity=80 time=0
note_on channel=1 note=45 velocity=80 time=0
note_off channel=1 note=57 velocity=64 time=240
note_off channel=1 note=52 velocity=64 time=0
note_off channel=1 note=45 velocity=64 time=0
note_on channel=1 note=52 velocity=80 time=0
note_on channel=1 note=47 velocity=80 time=0
note_on channel=1 note=40 velocity=80 time=0
note_off channel=1 note=52 velocity=64 time=240
note_off channel=1 note=47 velocity=64 time=0
note_off channel=1 note=40 velocity=64 time=0
note_on channel=1 note=52 velocity=80 time=0
note_on channel=1 note=47 velocity=80 time=0
note_on channel=1 note=40 velocity=80 time=0
note_off channel=1 note=52 velocity=64 time=240
note_off channel=1 note=47 velocity=64 time=0
note_off channel=1 note=40 velocity=64 time=0
note_on channel=1 note=52 velocity=80 time=0
note_on channel=1 note=47 velocity=80 time=0
note_on channel=1 note=40 velocity=80 time=0
note_off channel=1 note=52 velocity=64 time=240
note_off channel=1 note=47 velocity=64 time=0
note_off channel=1 note=40 velocity=64 time=0
note_on channel=1 note=52 velocity=80 time=0
note_on channel=1 note=47 velocity=80 time=0
note_on channel=1 note=40 velocity=80 time=0
note_off channel=1 note=52 velocity=64 time=240
note_off channel=1 note=47 velocity=64 time=0
note_off channel=1 note=40 velocity=64 time=0
note_on channel=1 note=42 velocity=80 time=0
note_off channel=1 note=42 velocity=64 time=120
note_on channel=1 note=42 velocity=80 time=0
note_off channel=1 note=42 velocity=64 time=120
note_on channel=1 note=42 velocity=80 time=0
note_off channel=1 note=42 velocity=64 time=120
note_on channel=1 note=42 velocity=80 time=0
note_off channel=1 note=42 velocity=64 time=120
note_on channel=1 note=54 velocity=80 time=0
note_on channel=1 note=49 velocity=80 time=0
note_on channel=1 note=42 velocity=80 time=0
note_off channel=1 note=54 velocity=64 time=240
note_off channel=1 note=49 velocity=64 time=0
note_off channel=1 note=42 velocity=64 time=0
note_on channel=1 note=54 velocity=80 time=0
note_on channel=1 note=49 velocity=80 time=0
note_on channel=1 note=42 velocity=80 time=0
note_off channel=1 note=54 velocity=64 time=240
note_off channel=1 note=49 velocity=64 time=0
note_off channel=1 note=42 velocity=64 time=0
note_on channel=1 note=42 velocity=80 time=960
note_off channel=1 note=42 velocity=64 time=120
note_on channel=1 note=42 velocity=80 time=0
note_off channel=1 note=42 velocity=64 time=120
note_on channel=1 note=42 velocity=80 time=0
note_off channel=1 note=42 velocity=64 time=120
note_on channel=1 note=42 velocity=80 time=0
note_off channel=1 note=42 velocity=64 time=120
note_on channel=1 note=54 velocity=80 time=0
note_on channel=1 note=49 velocity=80 time=0
note_on channel=1 note=42 velocity=80 time=0
note_off channel=1 note=54 velocity=64 time=240
note_off channel=1 note=49 velocity=64 time=0
note_off channel=1 note=42 velocity=64 time=0
note_on channel=1 note=54 velocity=80 time=0
note_on channel=1 note=49 velocity=80 time=0
note_on channel=1 note=42 velocity=80 time=0
note_off channel=1 note=54 velocity=64 time=240
note_off channel=1 note=49 velocity=64 time=0
note_off channel=1 note=42 velocity=64 time=0
note_on channel=1 note=50 velocity=80 time=960
note_on channel=1 note=45 velocity=80 time=0
note_on channel=1 note=38 velocity=80 time=0
note_off channel=1 note=50 velocity=64 time=240
note_off channel=1 note=45 velocity=64 time=0
note_off channel=1 note=38 velocity=64 time=0
note_on channel=1 note=50 velocity=80 time=0
note_on channel=1 note=45 velocity=80 time=0
note_on channel=1 note=38 velocity=80 time=0
note_off channel=1 note=50 velocity=64 time=240
note_off channel=1 note=45 velocity=64 time=0
note_off channel=1 note=38 velocity=64 time=0
note_on channel=1 note=50 velocity=80 time=240
note_on channel=1 note=45 velocity=80 time=0
note_on channel=1 note=38 velocity=80 time=0
note_off channel=1 note=50 velocity=64 time=240
note_off channel=1 note=45 velocity=64 time=0
note_off channel=1 note=38 velocity=64 time=0
note_on channel=1 note=52 velocity=80 time=0
note_on channel=1 note=47 velocity=80 time=0
note_on channel=1 note=40 velocity=80 time=0
note_off channel=1 note=52 velocity=64 time=240
note_off channel=1 note=47 velocity=64 time=0
note_off channel=1 note=40 velocity=64 time=0
note_on channel=1 note=52 velocity=80 time=240
note_on channel=1 note=47 velocity=80 time=0
note_on channel=1 note=40 velocity=80 time=0
note_off channel=1 note=52 velocity=64 time=240
note_off channel=1 note=47 velocity=64 time=0
note_off channel=1 note=40 velocity=64 time=0
note_on channel=1 note=52 velocity=80 time=0
note_on channel=1 note=47 velocity=80 time=0
note_on channel=1 note=40 velocity=80 time=0
note_off channel=1 note=52 velocity=64 time=240
note_off channel=1 note=47 velocity=64 time=0
note_off channel=1 note=40 velocity=64 time=0
note_on channel=1 note=57 velocity=80 time=0
note_on channel=1 note=52 velocity=80 time=0
note_on channel=1 note=45 velocity=80 time=0
note_off channel=1 note=57 velocity=64 time=240
note_off channel=1 note=52 velocity=64 time=0
note_off channel=1 note=45 velocity=64 time=0
note_on channel=1 note=57 velocity=80 time=0
note_on channel=1 note=52 velocity=80 time=0
note_on channel=1 note=45 velocity=80 time=0
note_off channel=1 note=57 velocity=64 time=240
note_off channel=1 note=52 velocity=64 time=0
note_off channel=1 note=45 velocity=64 time=0
note_on channel=1 note=57 velocity=80 time=0
note_on channel=1 note=52 velocity=80 time=0
note_on channel=1 note=45 velocity=80 time=0
note_off channel=1 note=57 velocity=64 time=240
note_off channel=1 note=52 velocity=64 time=0
note_off channel=1 note=45 velocity=64 time=0
note_on channel=1 note=57 velocity=80 time=0
note_on channel=1 note=52 velocity=80 time=0
note_on channel=1 note=45 velocity=80 time=0
note_off channel=1 note=57 velocity=64 time=240
note_off channel=1 note=52 velocity=64 time=0
note_off channel=1 note=45 velocity=64 time=0
note_on channel=1 note=52 velocity=80 time=0
note_on channel=1 note=47 velocity=80 time=0
note_on channel=1 note=40 velocity=80 time=0
note_off channel=1 note=52 velocity=64 time=240
note_off channel=1 note=47 velocity=64 time=0
note_off channel=1 note=40 velocity=64 time=0
note_on channel=1 note=52 velocity=80 time=0
note_on channel=1 note=47 velocity=80 time=0
note_on channel=1 note=40 velocity=80 time=0
note_off channel=1 note=52 velocity=64 time=240
note_off channel=1 note=47 velocity=64 time=0
note_off channel=1 note=40 velocity=64 time=0
note_on channel=1 note=52 velocity=80 time=0
note_on channel=1 note=47 velocity=80 time=0
note_on channel=1 note=40 velocity=80 time=0
note_off channel=1 note=52 velocity=64 time=240
note_off channel=1 note=47 velocity=64 time=0
note_off channel=1 note=40 velocity=64 time=0
note_on channel=1 note=52 velocity=80 time=0
note_on channel=1 note=47 velocity=80 time=0
note_on channel=1 note=40 velocity=80 time=0
note_off channel=1 note=52 velocity=64 time=240
note_off channel=1 note=47 velocity=64 time=0
note_off channel=1 note=40 velocity=64 time=0
note_on channel=1 note=54 velocity=80 time=0
note_on channel=1 note=49 velocity=80 time=0
note_on channel=1 note=42 velocity=80 time=0
note_off channel=1 note=54 velocity=64 time=240
note_off channel=1 note=49 velocity=64 time=0
note_off channel=1 note=42 velocity=64 time=0
note_on channel=1 note=54 velocity=80 time=0
note_on channel=1 note=49 velocity=80 time=0
note_on channel=1 note=42 velocity=80 time=0
note_off channel=1 note=54 velocity=64 time=240
note_off channel=1 note=49 velocity=64 time=0
note_off channel=1 note=42 velocity=64 time=0
note_on channel=1 note=49 velocity=80 time=0
note_on channel=1 note=42 velocity=80 time=0
note_off channel=1 note=49 velocity=64 time=240
note_off channel=1 note=42 velocity=64 time=0
note_on channel=1 note=49 velocity=80 time=0
note_on channel=1 note=42 velocity=80 time=0
note_off channel=1 note=49 velocity=64 time=240
note_off channel=1 note=42 velocity=64 time=0
note_on channel=1 note=49 velocity=80 time=0
note_on channel=1 note=42 velocity=80 time=0
note_off channel=1 note=49 velocity=64 time=240
note_off channel=1 note=42 velocity=64 time=0
note_on channel=1 note=49 velocity=80 time=0
note_on channel=1 note=42 velocity=80 time=0
note_off channel=1 note=49 velocity=64 time=240
note_off channel=1 note=42 velocity=64 time=0
note_on channel=1 note=49 velocity=80 time=0
note_on channel=1 note=42 velocity=80 time=0
note_off channel=1 note=49 velocity=64 time=240
note_off channel=1 note=42 velocity=64 time=0
note_on channel=1 note=49 velocity=80 time=0
note_on channel=1 note=42 velocity=80 time=0
note_off channel=1 note=49 velocity=64 time=240
note_off channel=1 note=42 velocity=64 time=0
note_on channel=1 note=54 velocity=80 time=0
note_on channel=1 note=49 velocity=80 time=0
note_on channel=1 note=42 velocity=80 time=0
note_off channel=1 note=54 velocity=64 time=240
note_off channel=1 note=49 velocity=64 time=0
note_off channel=1 note=42 velocity=64 time=0
note_on channel=1 note=54 velocity=80 time=0
note_on channel=1 note=49 velocity=80 time=0
note_on channel=1 note=42 velocity=80 time=0
note_off channel=1 note=54 velocity=64 time=240
note_off channel=1 note=49 velocity=64 time=0
note_off channel=1 note=42 velocity=64 time=0
note_on channel=1 note=49 velocity=80 time=0
note_on channel=1 note=42 velocity=80 time=0
note_off channel=1 note=49 velocity=64 time=240
note_off channel=1 note=42 velocity=64 time=0
note_on channel=1 note=49 velocity=80 time=0
note_on channel=1 note=42 velocity=80 time=0
note_off channel=1 note=49 velocity=64 time=240
note_off channel=1 note=42 velocity=64 time=0
note_on channel=1 note=49 velocity=80 time=0
note_on channel=1 note=42 velocity=80 time=0
note_off channel=1 note=49 velocity=64 time=240
note_off channel=1 note=42 velocity=64 time=0
note_on channel=1 note=49 velocity=80 time=0
note_on channel=1 note=42 velocity=80 time=0
note_off channel=1 note=49 velocity=64 time=240
note_off channel=1 note=42 velocity=64 time=0
note_on channel=1 note=49 velocity=80 time=0
note_on channel=1 note=42 velocity=80 time=0
note_off channel=1 note=49 velocity=64 time=240
note_off channel=1 note=42 velocity=64 time=0
note_on channel=1 note=49 velocity=80 time=0
note_on channel=1 note=42 velocity=80 time=0
note_off channel=1 note=49 velocity=64 time=240
note_off channel=1 note=42 velocity=64 time=0
note_on channel=1 note=50 velocity=80 time=0
note_on channel=1 note=45 velocity=80 time=0
note_on channel=1 note=38 velocity=80 time=0
note_off channel=1 note=50 velocity=64 time=240
note_off channel=1 note=45 velocity=64 time=0
note_off channel=1 note=38 velocity=64 time=0
note_on channel=1 note=38 velocity=80 time=0
note_off channel=1 note=38 velocity=64 time=120
note_on channel=1 note=38 velocity=80 time=0
note_off channel=1 note=38 velocity=64 time=120
note_on channel=1 note=50 velocity=80 time=0
note_on channel=1 note=45 velocity=80 time=0
note_on channel=1 note=38 velocity=80 time=0
note_off channel=1 note=50 velocity=64 time=240
note_off channel=1 note=45 velocity=64 time=0
note_off channel=1 note=38 velocity=64 time=0
note_on channel=1 note=52 velocity=80 time=240
note_on channel=1 note=47 velocity=80 time=0
note_on channel=1 note=40 velocity=80 time=0
note_off channel=1 note=52 velocity=64 time=240
note_off channel=1 note=47 velocity=64 time=0
note_off channel=1 note=40 velocity=64 time=0
note_on channel=1 note=52 velocity=80 time=240
note_on channel=1 note=47 velocity=80 time=0
note_on channel=1 note=40 velocity=80 time=0
note_off channel=1 note=52 velocity=64 time=240
note_off channel=1 note=47 velocity=64 time=0
note_off channel=1 note=40 velocity=64 time=0
note_on channel=1 note=52 velocity=80 time=0
note_on channel=1 note=47 velocity=80 time=0
note_on channel=1 note=40 velocity=80 time=0
note_off channel=1 note=52 velocity=64 time=240
note_off channel=1 note=47 velocity=64 time=0
note_off channel=1 note=40 velocity=64 time=0
note_on channel=1 note=57 velocity=80 time=0
note_on channel=1 note=52 velocity=80 time=0
note_on channel=1 note=45 velocity=80 time=0
note_off channel=1 note=57 velocity=64 time=240
note_off channel=1 note=52 velocity=64 time=0
note_off channel=1 note=45 velocity=64 time=0
note_on channel=1 note=57 velocity=80 time=0
note_on channel=1 note=52 velocity=80 time=0
note_on channel=1 note=45 velocity=80 time=0
note_off channel=1 note=57 velocity=64 time=240
note_off channel=1 note=52 velocity=64 time=0
note_off channel=1 note=45 velocity=64 time=0
note_on channel=1 note=57 velocity=80 time=0
note_on channel=1 note=52 velocity=80 time=0
note_on channel=1 note=45 velocity=80 time=0
note_off channel=1 note=57 velocity=64 time=240
note_off channel=1 note=52 velocity=64 time=0
note_off channel=1 note=45 velocity=64 time=0
note_on channel=1 note=57 velocity=80 time=0
note_on channel=1 note=52 velocity=80 time=0
note_on channel=1 note=45 velocity=80 time=0
note_off channel=1 note=57 velocity=64 time=240
note_off channel=1 note=52 velocity=64 time=0
note_off channel=1 note=45 velocity=64 time=0
note_on channel=1 note=52 velocity=80 time=0
note_on channel=1 note=47 velocity=80 time=0
note_on channel=1 note=40 velocity=80 time=0
note_off channel=1 note=52 velocity=64 time=240
note_off channel=1 note=47 velocity=64 time=0
note_off channel=1 note=40 velocity=64 time=0
note_on channel=1 note=52 velocity=80 time=0
note_on channel=1 note=47 velocity=80 time=0
note_on channel=1 note=40 velocity=80 time=0
note_off channel=1 note=52 velocity=64 time=240
note_off channel=1 note=47 velocity=64 time=0
note_off channel=1 note=40 velocity=64 time=0
note_on channel=1 note=52 velocity=80 time=0
note_on channel=1 note=47 velocity=80 time=0
note_on channel=1 note=40 velocity=80 time=0
note_off channel=1 note=52 velocity=64 time=240
note_off channel=1 note=47 velocity=64 time=0
note_off channel=1 note=40 velocity=64 time=0
note_on channel=1 note=52 velocity=80 time=0
note_on channel=1 note=47 velocity=80 time=0
note_on channel=1 note=40 velocity=80 time=0
note_off channel=1 note=52 velocity=64 time=240
note_off channel=1 note=47 velocity=64 time=0
note_off channel=1 note=40 velocity=64 time=0
note_on channel=1 note=54 velocity=80 time=0
note_on channel=1 note=49 velocity=80 time=0
note_on channel=1 note=42 velocity=80 time=0
note_off channel=1 note=54 velocity=64 time=240
note_off channel=1 note=49 velocity=64 time=0
note_off channel=1 note=42 velocity=64 time=0
note_on channel=1 note=54 velocity=80 time=0
note_on channel=1 note=49 velocity=80 time=0
note_on channel=1 note=42 velocity=80 time=0
note_off channel=1 note=54 velocity=64 time=240
note_off channel=1 note=49 velocity=64 time=0
note_off channel=1 note=42 velocity=64 time=0
note_on channel=1 note=49 velocity=80 time=0
note_on channel=1 note=42 velocity=80 time=0
note_off channel=1 note=49 velocity=64 time=240
note_off channel=1 note=42 velocity=64 time=0
note_on channel=1 note=49 velocity=80 time=0
note_on channel=1 note=42 velocity=80 time=0
note_off channel=1 note=49 velocity=64 time=240
note_off channel=1 note=42 velocity=64 time=0
note_on channel=1 note=49 velocity=80 time=0
note_on channel=1 note=42 velocity=80 time=0
note_off channel=1 note=49 velocity=64 time=240
note_off channel=1 note=42 velocity=64 time=0
note_on channel=1 note=49 velocity=80 time=0
note_on channel=1 note=42 velocity=80 time=0
note_off channel=1 note=49 velocity=64 time=240
note_off channel=1 note=42 velocity=64 time=0
note_on channel=1 note=49 velocity=80 time=0
note_on channel=1 note=42 velocity=80 time=0
note_off channel=1 note=49 velocity=64 time=240
note_off channel=1 note=42 velocity=64 time=0
note_on channel=1 note=49 velocity=80 time=0
note_on channel=1 note=42 velocity=80 time=0
note_off channel=1 note=49 velocity=64 time=240
note_off channel=1 note=42 velocity=64 time=0
note_on channel=1 note=54 velocity=80 time=0
note_on channel=1 note=49 velocity=80 time=0
note_on channel=1 note=42 velocity=80 time=0
note_off channel=1 note=54 velocity=64 time=240
note_off channel=1 note=49 velocity=64 time=0
note_off channel=1 note=42 velocity=64 time=0
note_on channel=1 note=54 velocity=80 time=0
note_on channel=1 note=49 velocity=80 time=0
note_on channel=1 note=42 velocity=80 time=0
note_off channel=1 note=54 velocity=64 time=240
note_off channel=1 note=49 velocity=64 time=0
note_off channel=1 note=42 velocity=64 time=0
note_on channel=1 note=49 velocity=80 time=0
note_on channel=1 note=42 velocity=80 time=0
note_off channel=1 note=49 velocity=64 time=240
note_off channel=1 note=42 velocity=64 time=0
note_on channel=1 note=49 velocity=80 time=0
note_on channel=1 note=42 velocity=80 time=0
note_off channel=1 note=49 velocity=64 time=240
note_off channel=1 note=42 velocity=64 time=0
note_on channel=1 note=49 velocity=80 time=0
note_on channel=1 note=42 velocity=80 time=0
note_off channel=1 note=49 velocity=64 time=240
note_off channel=1 note=42 velocity=64 time=0
note_on channel=1 note=49 velocity=80 time=0
note_on channel=1 note=42 velocity=80 time=0
note_off channel=1 note=49 velocity=64 time=240
note_off channel=1 note=42 velocity=64 time=0
note_on channel=1 note=49 velocity=80 time=0
note_on channel=1 note=42 velocity=80 time=0
note_off channel=1 note=49 velocity=64 time=240
note_off channel=1 note=42 velocity=64 time=0
note_on channel=1 note=49 velocity=80 time=0
note_on channel=1 note=42 velocity=80 time=0
note_off channel=1 note=49 velocity=64 time=240
note_off channel=1 note=42 velocity=64 time=0
note_on channel=1 note=50 velocity=80 time=0
note_on channel=1 note=45 velocity=80 time=0
note_on channel=1 note=38 velocity=80 time=0
note_off channel=1 note=50 velocity=64 time=240
note_off channel=1 note=45 velocity=64 time=0
note_off channel=1 note=38 velocity=64 time=0
note_on channel=1 note=38 velocity=80 time=0
note_off channel=1 note=38 velocity=64 time=120
note_on channel=1 note=38 velocity=80 time=0
note_off channel=1 note=38 velocity=64 time=120
note_on channel=1 note=50 velocity=80 time=0
note_on channel=1 note=45 velocity=80 time=0
note_on channel=1 note=38 velocity=80 time=0
note_off channel=1 note=50 velocity=64 time=240
note_off channel=1 note=45 velocity=64 time=0
note_off channel=1 note=38 velocity=64 time=0
note_on channel=1 note=52 velocity=80 time=240
note_on channel=1 note=47 velocity=80 time=0
note_on channel=1 note=40 velocity=80 time=0
note_off channel=1 note=52 velocity=64 time=240
note_off channel=1 note=47 velocity=64 time=0
note_off channel=1 note=40 velocity=64 time=0
note_on channel=1 note=52 velocity=80 time=240
note_on channel=1 note=47 velocity=80 time=0
note_on channel=1 note=40 velocity=80 time=0
note_off channel=1 note=52 velocity=64 time=240
note_off channel=1 note=47 velocity=64 time=0
note_off channel=1 note=40 velocity=64 time=0
note_on channel=1 note=52 velocity=80 time=0
note_on channel=1 note=47 velocity=80 time=0
note_on channel=1 note=40 velocity=80 time=0
note_off channel=1 note=52 velocity=64 time=240
note_off channel=1 note=47 velocity=64 time=0
note_off channel=1 note=40 velocity=64 time=0
note_on channel=1 note=57 velocity=80 time=0
note_on channel=1 note=52 velocity=80 time=0
note_on channel=1 note=45 velocity=80 time=0
note_off channel=1 note=57 velocity=64 time=240
note_off channel=1 note=52 velocity=64 time=0
note_off channel=1 note=45 velocity=64 time=0
note_on channel=1 note=57 velocity=80 time=0
note_on channel=1 note=52 velocity=80 time=0
note_on channel=1 note=45 velocity=80 time=0
note_off channel=1 note=57 velocity=64 time=240
note_off channel=1 note=52 velocity=64 time=0
note_off channel=1 note=45 velocity=64 time=0
note_on channel=1 note=57 velocity=80 time=0
note_on channel=1 note=52 velocity=80 time=0
note_on channel=1 note=45 velocity=80 time=0
note_off channel=1 note=57 velocity=64 time=240
note_off channel=1 note=52 velocity=64 time=0
note_off channel=1 note=45 velocity=64 time=0
note_on channel=1 note=57 velocity=80 time=0
note_on channel=1 note=52 velocity=80 time=0
note_on channel=1 note=45 velocity=80 time=0
note_off channel=1 note=57 velocity=64 time=240
note_off channel=1 note=52 velocity=64 time=0
note_off channel=1 note=45 velocity=64 time=0
note_on channel=1 note=52 velocity=80 time=0
note_on channel=1 note=47 velocity=80 time=0
note_on channel=1 note=40 velocity=80 time=0
note_off channel=1 note=52 velocity=64 time=240
note_off channel=1 note=47 velocity=64 time=0
note_off channel=1 note=40 velocity=64 time=0
note_on channel=1 note=52 velocity=80 time=0
note_on channel=1 note=47 velocity=80 time=0
note_on channel=1 note=40 velocity=80 time=0
note_off channel=1 note=52 velocity=64 time=240
note_off channel=1 note=47 velocity=64 time=0
note_off channel=1 note=40 velocity=64 time=0
note_on channel=1 note=52 velocity=80 time=0
note_on channel=1 note=47 velocity=80 time=0
note_on channel=1 note=40 velocity=80 time=0
note_off channel=1 note=52 velocity=64 time=240
note_off channel=1 note=47 velocity=64 time=0
note_off channel=1 note=40 velocity=64 time=0
note_on channel=1 note=52 velocity=80 time=0
note_on channel=1 note=47 velocity=80 time=0
note_on channel=1 note=40 velocity=80 time=0
note_off channel=1 note=52 velocity=64 time=240
note_off channel=1 note=47 velocity=64 time=0
note_off channel=1 note=40 velocity=64 time=0
note_on channel=1 note=42 velocity=80 time=0
note_off channel=1 note=42 velocity=64 time=120
note_on channel=1 note=42 velocity=80 time=0
note_off channel=1 note=42 velocity=64 time=120
note_on channel=1 note=42 velocity=80 time=0
note_off channel=1 note=42 velocity=64 time=120
note_on channel=1 note=42 velocity=80 time=0
note_off channel=1 note=42 velocity=64 time=120
note_on channel=1 note=54 velocity=80 time=0
note_on channel=1 note=49 velocity=80 time=0
note_on channel=1 note=42 velocity=80 time=0
note_off channel=1 note=54 velocity=64 time=240
note_off channel=1 note=49 velocity=64 time=0
note_off channel=1 note=42 velocity=64 time=0
note_on channel=1 note=54 velocity=80 time=0
note_on channel=1 note=49 velocity=80 time=0
note_on channel=1 note=42 velocity=80 time=0
note_off channel=1 note=54 velocity=64 time=240
note_off channel=1 note=49 velocity=64 time=0
note_off channel=1 note=42 velocity=64 time=0
note_on channel=1 note=52 velocity=80 time=0
note_on channel=1 note=47 velocity=80 time=0
note_on channel=1 note=40 velocity=80 time=0
note_off channel=1 note=52 velocity=64 time=240
note_off channel=1 note=47 velocity=64 time=0
note_off channel=1 note=40 velocity=64 time=0
note_on channel=1 note=40 velocity=80 time=0
note_off channel=1 note=40 velocity=64 time=120
note_on channel=1 note=40 velocity=80 time=0
note_off channel=1 note=40 velocity=64 time=120
note_on channel=1 note=52 velocity=80 time=0
note_on channel=1 note=47 velocity=80 time=0
note_on channel=1 note=40 velocity=80 time=0
note_off channel=1 note=52 velocity=64 time=240
note_off channel=1 note=47 velocity=64 time=0
note_off channel=1 note=40 velocity=64 time=0
note_on channel=1 note=52 velocity=80 time=0
note_on channel=1 note=47 velocity=80 time=0
note_on channel=1 note=40 velocity=80 time=0
note_off channel=1 note=52 velocity=64 time=240
note_off channel=1 note=47 velocity=64 time=0
note_off channel=1 note=40 velocity=64 time=0
note_on channel=1 note=57 velocity=80 time=0
note_on channel=1 note=52 velocity=80 time=0
note_on channel=1 note=45 velocity=80 time=0
note_off channel=1 note=57 velocity=64 time=240
note_off channel=1 note=52 velocity=64 time=0
note_off channel=1 note=45 velocity=64 time=0
note_on channel=1 note=45 velocity=80 time=0
note_off channel=1 note=45 velocity=64 time=120
note_on channel=1 note=45 velocity=80 time=0
note_off channel=1 note=45 velocity=64 time=120
note_on channel=1 note=57 velocity=80 time=0
note_on channel=1 note=52 velocity=80 time=0
note_on channel=1 note=45 velocity=80 time=0
note_off channel=1 note=57 velocity=64 time=240
note_off channel=1 note=52 velocity=64 time=0
note_off channel=1 note=45 velocity=64 time=0
note_on channel=1 note=57 velocity=80 time=0
note_on channel=1 note=52 velocity=80 time=0
note_on channel=1 note=45 velocity=80 time=0
note_off channel=1 note=57 velocity=64 time=240
note_off channel=1 note=52 velocity=64 time=0
note_off channel=1 note=45 velocity=64 time=0
note_on channel=1 note=52 velocity=80 time=0
note_on channel=1 note=47 velocity=80 time=0
note_on channel=1 note=40 velocity=80 time=0
note_off channel=1 note=52 velocity=64 time=240
note_off channel=1 note=47 velocity=64 time=0
note_off channel=1 note=40 velocity=64 time=0
note_on channel=1 note=40 velocity=80 time=0
note_off channel=1 note=40 velocity=64 time=120
note_on channel=1 note=40 velocity=80 time=0
note_off channel=1 note=40 velocity=64 time=120
note_on channel=1 note=52 velocity=80 time=0
note_on channel=1 note=47 velocity=80 time=0
note_on channel=1 note=40 velocity=80 time=0
note_off channel=1 note=52 velocity=64 time=240
note_off channel=1 note=47 velocity=64 time=0
note_off channel=1 note=40 velocity=64 time=0
note_on channel=1 note=52 velocity=80 time=0
note_on channel=1 note=47 velocity=80 time=0
note_on channel=1 note=40 velocity=80 time=0
note_off channel=1 note=52 velocity=64 time=240
note_off channel=1 note=47 velocity=64 time=0
note_off channel=1 note=40 velocity=64 time=0
note_on channel=1 note=54 velocity=80 time=0
note_on channel=1 note=49 velocity=80 time=0
note_on channel=1 note=42 velocity=80 time=0
note_off channel=1 note=54 velocity=64 time=240
note_off channel=1 note=49 velocity=64 time=0
note_off channel=1 note=42 velocity=64 time=0
note_on channel=1 note=42 velocity=80 time=0
note_off channel=1 note=42 velocity=64 time=120
note_on channel=1 note=42 velocity=80 time=0
note_off channel=1 note=42 velocity=64 time=120
note_on channel=1 note=54 velocity=80 time=0
note_on channel=1 note=49 velocity=80 time=0
note_on channel=1 note=42 velocity=80 time=0
note_off channel=1 note=54 velocity=64 time=240
note_off channel=1 note=49 velocity=64 time=0
note_off channel=1 note=42 velocity=64 time=0
note_on channel=1 note=42 velocity=80 time=0
note_off channel=1 note=42 velocity=64 time=120
note_on channel=1 note=42 velocity=80 time=0
note_off channel=1 note=42 velocity=64 time=120
note_on channel=1 note=52 velocity=80 time=0
note_on channel=1 note=47 velocity=80 time=0
note_on channel=1 note=40 velocity=80 time=0
note_off channel=1 note=52 velocity=64 time=240
note_off channel=1 note=47 velocity=64 time=0
note_off channel=1 note=40 velocity=64 time=0
note_on channel=1 note=40 velocity=80 time=0
note_off channel=1 note=40 velocity=64 time=120
note_on channel=1 note=40 velocity=80 time=0
note_off channel=1 note=40 velocity=64 time=120
note_on channel=1 note=52 velocity=80 time=0
note_on channel=1 note=47 velocity=80 time=0
note_on channel=1 note=40 velocity=80 time=0
note_off channel=1 note=52 velocity=64 time=240
note_off channel=1 note=47 velocity=64 time=0
note_off channel=1 note=40 velocity=64 time=0
note_on channel=1 note=40 velocity=80 time=0
note_off channel=1 note=40 velocity=64 time=120
note_on channel=1 note=40 velocity=80 time=0
note_off channel=1 note=40 velocity=64 time=120
note_on channel=1 note=50 velocity=80 time=0
note_on channel=1 note=45 velocity=80 time=0
note_on channel=1 note=38 velocity=80 time=0
note_off channel=1 note=50 velocity=64 time=240
note_off channel=1 note=45 velocity=64 time=0
note_off channel=1 note=38 velocity=64 time=0
note_on channel=1 note=38 velocity=80 time=0
note_off channel=1 note=38 velocity=64 time=120
note_on channel=1 note=38 velocity=80 time=0
note_off channel=1 note=38 velocity=64 time=120
note_on channel=1 note=50 velocity=80 time=0
note_on channel=1 note=45 velocity=80 time=0
note_on channel=1 note=38 velocity=80 time=0
note_off channel=1 note=50 velocity=64 time=240
note_off channel=1 note=45 velocity=64 time=0
note_off channel=1 note=38 velocity=64 time=0
note_on channel=1 note=50 velocity=80 time=0
note_on channel=1 note=45 velocity=80 time=0
note_on channel=1 note=38 velocity=80 time=0
note_off channel=1 note=50 velocity=64 time=240
note_off channel=1 note=45 velocity=64 time=0
note_off channel=1 note=38 velocity=64 time=0
note_on channel=1 note=52 velocity=80 time=0
note_on channel=1 note=47 velocity=80 time=0
note_on channel=1 note=40 velocity=80 time=0
note_off channel=1 note=52 velocity=64 time=240
note_off channel=1 note=47 velocity=64 time=0
note_off channel=1 note=40 velocity=64 time=0
note_on channel=1 note=52 velocity=80 time=0
note_on channel=1 note=47 velocity=80 time=0
note_on channel=1 note=40 velocity=80 time=0
note_off channel=1 note=52 velocity=64 time=240
note_off channel=1 note=47 velocity=64 time=0
note_off channel=1 note=40 velocity=64 time=0
note_on channel=1 note=52 velocity=80 time=0
note_on channel=1 note=47 velocity=80 time=0
note_on channel=1 note=40 velocity=80 time=0
note_off channel=1 note=52 velocity=64 time=240
note_off channel=1 note=47 velocity=64 time=0
note_off channel=1 note=40 velocity=64 time=0
note_on channel=1 note=52 velocity=80 time=0
note_on channel=1 note=47 velocity=80 time=0
note_on channel=1 note=40 velocity=80 time=0
note_off channel=1 note=52 velocity=64 time=240
note_off channel=1 note=47 velocity=64 time=0
note_off channel=1 note=40 velocity=64 time=0
note_on channel=1 note=42 velocity=80 time=0
note_off channel=1 note=42 velocity=64 time=120
note_on channel=1 note=42 velocity=80 time=0
note_off channel=1 note=42 velocity=64 time=120
note_on channel=1 note=42 velocity=80 time=0
note_off channel=1 note=42 velocity=64 time=120
note_on channel=1 note=42 velocity=80 time=0
note_off channel=1 note=42 velocity=64 time=120
note_on channel=1 note=54 velocity=80 time=0
note_on channel=1 note=49 velocity=80 time=0
note_on channel=1 note=42 velocity=80 time=0
note_off channel=1 note=54 velocity=64 time=240
note_off channel=1 note=49 velocity=64 time=0
note_off channel=1 note=42 velocity=64 time=0
note_on channel=1 note=54 velocity=80 time=0
note_on channel=1 note=49 velocity=80 time=0
note_on channel=1 note=42 velocity=80 time=0
note_off channel=1 note=54 velocity=64 time=240
note_off channel=1 note=49 velocity=64 time=0
note_off channel=1 note=42 velocity=64 time=0
note_on channel=1 note=52 velocity=80 time=0
note_on channel=1 note=47 velocity=80 time=0
note_on channel=1 note=40 velocity=80 time=0
note_off channel=1 note=52 velocity=64 time=240
note_off channel=1 note=47 velocity=64 time=0
note_off channel=1 note=40 velocity=64 time=0
note_on channel=1 note=40 velocity=80 time=0
note_off channel=1 note=40 velocity=64 time=120
note_on channel=1 note=40 velocity=80 time=0
note_off channel=1 note=40 velocity=64 time=120
note_on channel=1 note=52 velocity=80 time=0
note_on channel=1 note=47 velocity=80 time=0
note_on channel=1 note=40 velocity=80 time=0
note_off channel=1 note=52 velocity=64 time=240
note_off channel=1 note=47 velocity=64 time=0
note_off channel=1 note=40 velocity=64 time=0
note_on channel=1 note=52 velocity=80 time=0
note_on channel=1 note=47 velocity=80 time=0
note_on channel=1 note=40 velocity=80 time=0
note_off channel=1 note=52 velocity=64 time=240
note_off channel=1 note=47 velocity=64 time=0
note_off channel=1 note=40 velocity=64 time=0
note_on channel=1 note=57 velocity=80 time=0
note_on channel=1 note=52 velocity=80 time=0
note_on channel=1 note=45 velocity=80 time=0
note_off channel=1 note=57 velocity=64 time=240
note_off channel=1 note=52 velocity=64 time=0
note_off channel=1 note=45 velocity=64 time=0
note_on channel=1 note=45 velocity=80 time=0
note_off channel=1 note=45 velocity=64 time=120
note_on channel=1 note=45 velocity=80 time=0
note_off channel=1 note=45 velocity=64 time=120
note_on channel=1 note=57 velocity=80 time=0
note_on channel=1 note=52 velocity=80 time=0
note_on channel=1 note=45 velocity=80 time=0
note_off channel=1 note=57 velocity=64 time=240
note_off channel=1 note=52 velocity=64 time=0
note_off channel=1 note=45 velocity=64 time=0
note_on channel=1 note=57 velocity=80 time=0
note_on channel=1 note=52 velocity=80 time=0
note_on channel=1 note=45 velocity=80 time=0
note_off channel=1 note=57 velocity=64 time=240
note_off channel=1 note=52 velocity=64 time=0
note_off channel=1 note=45 velocity=64 time=0
note_on channel=1 note=52 velocity=80 time=0
note_on channel=1 note=47 velocity=80 time=0
note_on channel=1 note=40 velocity=80 time=0
note_off channel=1 note=52 velocity=64 time=240
note_off channel=1 note=47 velocity=64 time=0
note_off channel=1 note=40 velocity=64 time=0
note_on channel=1 note=40 velocity=80 time=0
note_off channel=1 note=40 velocity=64 time=120
note_on channel=1 note=40 velocity=80 time=0
note_off channel=1 note=40 velocity=64 time=120
note_on channel=1 note=52 velocity=80 time=0
note_on channel=1 note=47 velocity=80 time=0
note_on channel=1 note=40 velocity=80 time=0
note_off channel=1 note=52 velocity=64 time=240
note_off channel=1 note=47 velocity=64 time=0
note_off channel=1 note=40 velocity=64 time=0
note_on channel=1 note=52 velocity=80 time=0
note_on channel=1 note=47 velocity=80 time=0
note_on channel=1 note=40 velocity=80 time=0
note_off channel=1 note=52 velocity=64 time=240
note_off channel=1 note=47 velocity=64 time=0
note_off channel=1 note=40 velocity=64 time=0
note_on channel=1 note=54 velocity=80 time=0
note_on channel=1 note=49 velocity=80 time=0
note_on channel=1 note=42 velocity=80 time=0
note_off channel=1 note=54 velocity=64 time=240
note_off channel=1 note=49 velocity=64 time=0
note_off channel=1 note=42 velocity=64 time=0
note_on channel=1 note=42 velocity=80 time=0
note_off channel=1 note=42 velocity=64 time=120
note_on channel=1 note=42 velocity=80 time=0
note_off channel=1 note=42 velocity=64 time=120
note_on channel=1 note=54 velocity=80 time=0
note_on channel=1 note=49 velocity=80 time=0
note_on channel=1 note=42 velocity=80 time=0
note_off channel=1 note=54 velocity=64 time=240
note_off channel=1 note=49 velocity=64 time=0
note_off channel=1 note=42 velocity=64 time=0
note_on channel=1 note=42 velocity=80 time=0
note_off channel=1 note=42 velocity=64 time=120
note_on channel=1 note=42 velocity=80 time=0
note_off channel=1 note=42 velocity=64 time=120
note_on channel=1 note=52 velocity=80 time=0
note_on channel=1 note=47 velocity=80 time=0
note_on channel=1 note=40 velocity=80 time=0
note_off channel=1 note=52 velocity=64 time=240
note_off channel=1 note=47 velocity=64 time=0
note_off channel=1 note=40 velocity=64 time=0
note_on channel=1 note=40 velocity=80 time=0
note_off channel=1 note=40 velocity=64 time=120
note_on channel=1 note=40 velocity=80 time=0
note_off channel=1 note=40 velocity=64 time=120
note_on channel=1 note=52 velocity=80 time=0
note_on channel=1 note=47 velocity=80 time=0
note_on channel=1 note=40 velocity=80 time=0
note_off channel=1 note=52 velocity=64 time=240
note_off channel=1 note=47 velocity=64 time=0
note_off channel=1 note=40 velocity=64 time=0
note_on channel=1 note=40 velocity=80 time=0
note_off channel=1 note=40 velocity=64 time=120
note_on channel=1 note=40 velocity=80 time=0
note_off channel=1 note=40 velocity=64 time=120
note_on channel=1 note=50 velocity=80 time=0
note_on channel=1 note=45 velocity=80 time=0
note_on channel=1 note=38 velocity=80 time=0
note_off channel=1 note=50 velocity=64 time=240
note_off channel=1 note=45 velocity=64 time=0
note_off channel=1 note=38 velocity=64 time=0
note_on channel=1 note=38 velocity=80 time=0
note_off channel=1 note=38 velocity=64 time=120
note_on channel=1 note=38 velocity=80 time=0
note_off channel=1 note=38 velocity=64 time=120
note_on channel=1 note=50 velocity=80 time=0
note_on channel=1 note=45 velocity=80 time=0
note_on channel=1 note=38 velocity=80 time=0
note_off channel=1 note=50 velocity=64 time=240
note_off channel=1 note=45 velocity=64 time=0
note_off channel=1 note=38 velocity=64 time=0
note_on channel=1 note=50 velocity=80 time=0
note_on channel=1 note=45 velocity=80 time=0
note_on channel=1 note=38 velocity=80 time=0
note_off channel=1 note=50 velocity=64 time=240
note_off channel=1 note=45 velocity=64 time=0
note_off channel=1 note=38 velocity=64 time=0
note_on channel=1 note=52 velocity=80 time=0
note_on channel=1 note=47 velocity=80 time=0
note_on channel=1 note=40 velocity=80 time=0
note_off channel=1 note=52 velocity=64 time=240
note_off channel=1 note=47 velocity=64 time=0
note_off channel=1 note=40 velocity=64 time=0
note_on channel=1 note=52 velocity=80 time=0
note_on channel=1 note=47 velocity=80 time=0
note_on channel=1 note=40 velocity=80 time=0
note_off channel=1 note=52 velocity=64 time=240
note_off channel=1 note=47 velocity=64 time=0
note_off channel=1 note=40 velocity=64 time=0
note_on channel=1 note=52 velocity=80 time=0
note_on channel=1 note=47 velocity=80 time=0
note_on channel=1 note=40 velocity=80 time=0
note_off channel=1 note=52 velocity=64 time=240
note_off channel=1 note=47 velocity=64 time=0
note_off channel=1 note=40 velocity=64 time=0
note_on channel=1 note=52 velocity=80 time=0
note_on channel=1 note=47 velocity=80 time=0
note_on channel=1 note=40 velocity=80 time=0
note_off channel=1 note=52 velocity=64 time=240
note_off channel=1 note=47 velocity=64 time=0
note_off channel=1 note=40 velocity=64 time=0
note_on channel=1 note=54 velocity=80 time=0
note_on channel=1 note=49 velocity=80 time=0
note_on channel=1 note=42 velocity=80 time=0
note_off channel=1 note=54 velocity=64 time=240
note_off channel=1 note=49 velocity=64 time=0
note_off channel=1 note=42 velocity=64 time=0
note_on channel=1 note=42 velocity=80 time=0
note_off channel=1 note=42 velocity=64 time=120
note_on channel=1 note=42 velocity=80 time=0
note_off channel=1 note=42 velocity=64 time=120
note_on channel=1 note=54 velocity=80 time=0
note_on channel=1 note=49 velocity=80 time=0
note_on channel=1 note=42 velocity=80 time=0
note_off channel=1 note=54 velocity=64 time=240
note_off channel=1 note=49 velocity=64 time=0
note_off channel=1 note=42 velocity=64 time=0
note_on channel=1 note=42 velocity=80 time=0
note_off channel=1 note=42 velocity=64 time=120
note_on channel=1 note=42 velocity=80 time=0
note_off channel=1 note=42 velocity=64 time=120
note_on channel=1 note=52 velocity=80 time=0
note_on channel=1 note=47 velocity=80 time=0
note_on channel=1 note=40 velocity=80 time=0
note_off channel=1 note=52 velocity=64 time=240
note_off channel=1 note=47 velocity=64 time=0
note_off channel=1 note=40 velocity=64 time=0
note_on channel=1 note=40 velocity=80 time=0
note_off channel=1 note=40 velocity=64 time=120
note_on channel=1 note=40 velocity=80 time=0
note_off channel=1 note=40 velocity=64 time=120
note_on channel=1 note=52 velocity=80 time=0
note_on channel=1 note=47 velocity=80 time=0
note_on channel=1 note=40 velocity=80 time=0
note_off channel=1 note=52 velocity=64 time=240
note_off channel=1 note=47 velocity=64 time=0
note_off channel=1 note=40 velocity=64 time=0
note_on channel=1 note=52 velocity=80 time=0
note_on channel=1 note=47 velocity=80 time=0
note_on channel=1 note=40 velocity=80 time=0
note_off channel=1 note=52 velocity=64 time=240
note_off channel=1 note=47 velocity=64 time=0
note_off channel=1 note=40 velocity=64 time=0
note_on channel=1 note=50 velocity=80 time=0
note_on channel=1 note=45 velocity=80 time=0
note_on channel=1 note=38 velocity=80 time=0
note_off channel=1 note=50 velocity=64 time=240
note_off channel=1 note=45 velocity=64 time=0
note_off channel=1 note=38 velocity=64 time=0
note_on channel=1 note=38 velocity=80 time=0
note_off channel=1 note=38 velocity=64 time=120
note_on channel=1 note=38 velocity=80 time=0
note_off channel=1 note=38 velocity=64 time=120
note_on channel=1 note=50 velocity=80 time=0
note_on channel=1 note=45 velocity=80 time=0
note_on channel=1 note=38 velocity=80 time=0
note_off channel=1 note=50 velocity=64 time=240
note_off channel=1 note=45 velocity=64 time=0
note_off channel=1 note=38 velocity=64 time=0
note_on channel=1 note=38 velocity=80 time=0
note_off channel=1 note=38 velocity=64 time=120
note_on channel=1 note=38 velocity=80 time=0
note_off channel=1 note=38 velocity=64 time=120
note_on channel=1 note=52 velocity=80 time=0
note_on channel=1 note=47 velocity=80 time=0
note_on channel=1 note=40 velocity=80 time=0
note_off channel=1 note=52 velocity=64 time=240
note_off channel=1 note=47 velocity=64 time=0
note_off channel=1 note=40 velocity=64 time=0
note_on channel=1 note=52 velocity=80 time=0
note_on channel=1 note=47 velocity=80 time=0
note_on channel=1 note=40 velocity=80 time=0
note_off channel=1 note=52 velocity=64 time=240
note_off channel=1 note=47 velocity=64 time=0
note_off channel=1 note=40 velocity=64 time=0
note_on channel=1 note=52 velocity=80 time=0
note_on channel=1 note=47 velocity=80 time=0
note_on channel=1 note=40 velocity=80 time=0
note_off channel=1 note=52 velocity=64 time=240
note_off channel=1 note=47 velocity=64 time=0
note_off channel=1 note=40 velocity=64 time=0
note_on channel=1 note=52 velocity=80 time=0
note_on channel=1 note=47 velocity=80 time=0
note_on channel=1 note=40 velocity=80 time=0
note_off channel=1 note=52 velocity=64 time=240
note_off channel=1 note=47 velocity=64 time=0
note_off channel=1 note=40 velocity=64 time=0
note_on channel=1 note=54 velocity=80 time=0
note_on channel=1 note=49 velocity=80 time=0
note_on channel=1 note=42 velocity=80 time=0
note_off channel=1 note=54 velocity=64 time=240
note_off channel=1 note=49 velocity=64 time=0
note_off channel=1 note=42 velocity=64 time=0
note_on channel=1 note=42 velocity=80 time=0
note_off channel=1 note=42 velocity=64 time=120
note_on channel=1 note=42 velocity=80 time=0
note_off channel=1 note=42 velocity=64 time=120
note_on channel=1 note=54 velocity=80 time=0
note_on channel=1 note=49 velocity=80 time=0
note_on channel=1 note=42 velocity=80 time=0
note_off channel=1 note=54 velocity=64 time=240
note_off channel=1 note=49 velocity=64 time=0
note_off channel=1 note=42 velocity=64 time=0
note_on channel=1 note=42 velocity=80 time=0
note_off channel=1 note=42 velocity=64 time=120
note_on channel=1 note=42 velocity=80 time=0
note_off channel=1 note=42 velocity=64 time=120
note_on channel=1 note=52 velocity=80 time=0
note_on channel=1 note=47 velocity=80 time=0
note_on channel=1 note=40 velocity=80 time=0
note_off channel=1 note=52 velocity=64 time=240
note_off channel=1 note=47 velocity=64 time=0
note_off channel=1 note=40 velocity=64 time=0
note_on channel=1 note=40 velocity=80 time=0
note_off channel=1 note=40 velocity=64 time=120
note_on channel=1 note=40 velocity=80 time=0
note_off channel=1 note=40 velocity=64 time=120
note_on channel=1 note=52 velocity=80 time=0
note_on channel=1 note=47 velocity=80 time=0
note_on channel=1 note=40 velocity=80 time=0
note_off channel=1 note=52 velocity=64 time=240
note_off channel=1 note=47 velocity=64 time=0
note_off channel=1 note=40 velocity=64 time=0
note_on channel=1 note=52 velocity=80 time=0
note_on channel=1 note=47 velocity=80 time=0
note_on channel=1 note=40 velocity=80 time=0
note_off channel=1 note=52 velocity=64 time=240
note_off channel=1 note=47 velocity=64 time=0
note_off channel=1 note=40 velocity=64 time=0
note_on channel=1 note=50 velocity=80 time=0
note_on channel=1 note=45 velocity=80 time=0
note_on channel=1 note=38 velocity=80 time=0
note_off channel=1 note=50 velocity=64 time=240
note_off channel=1 note=45 velocity=64 time=0
note_off channel=1 note=38 velocity=64 time=0
note_on channel=1 note=38 velocity=80 time=0
note_off channel=1 note=38 velocity=64 time=120
note_on channel=1 note=38 velocity=80 time=0
note_off channel=1 note=38 velocity=64 time=120
note_on channel=1 note=50 velocity=80 time=0
note_on channel=1 note=45 velocity=80 time=0
note_on channel=1 note=38 velocity=80 time=0
note_off channel=1 note=50 velocity=64 time=240
note_off channel=1 note=45 velocity=64 time=0
note_off channel=1 note=38 velocity=64 time=0
note_on channel=1 note=38 velocity=80 time=0
note_off channel=1 note=38 velocity=64 time=120
note_on channel=1 note=38 velocity=80 time=0
note_off channel=1 note=38 velocity=64 time=120
note_on channel=1 note=52 velocity=80 time=0
note_on channel=1 note=47 velocity=80 time=0
note_on channel=1 note=40 velocity=80 time=0
note_off channel=1 note=52 velocity=64 time=240
note_off channel=1 note=47 velocity=64 time=0
note_off channel=1 note=40 velocity=64 time=0
note_on channel=1 note=52 velocity=80 time=0
note_on channel=1 note=47 velocity=80 time=0
note_on channel=1 note=40 velocity=80 time=0
note_off channel=1 note=52 velocity=64 time=240
note_off channel=1 note=47 velocity=64 time=0
note_off channel=1 note=40 velocity=64 time=0
note_on channel=1 note=52 velocity=80 time=0
note_on channel=1 note=47 velocity=80 time=0
note_on channel=1 note=40 velocity=80 time=0
note_off channel=1 note=52 velocity=64 time=240
note_off channel=1 note=47 velocity=64 time=0
note_off channel=1 note=40 velocity=64 time=0
note_on channel=1 note=52 velocity=80 time=0
note_on channel=1 note=47 velocity=80 time=0
note_on channel=1 note=40 velocity=80 time=0
note_off channel=1 note=52 velocity=64 time=240
note_off channel=1 note=47 velocity=64 time=0
note_off channel=1 note=40 velocity=64 time=0
note_on channel=1 note=42 velocity=80 time=0
note_off channel=1 note=42 velocity=64 time=120
note_on channel=1 note=42 velocity=80 time=0
note_off channel=1 note=42 velocity=64 time=120
note_on channel=1 note=42 velocity=80 time=0
note_off channel=1 note=42 velocity=64 time=120
note_on channel=1 note=42 velocity=80 time=0
note_off channel=1 note=42 velocity=64 time=120
note_on channel=1 note=54 velocity=80 time=0
note_on channel=1 note=49 velocity=80 time=0
note_on channel=1 note=42 velocity=80 time=0
note_off channel=1 note=54 velocity=64 time=240
note_off channel=1 note=49 velocity=64 time=0
note_off channel=1 note=42 velocity=64 time=0
note_on channel=1 note=54 velocity=80 time=0
note_on channel=1 note=49 velocity=80 time=0
note_on channel=1 note=42 velocity=80 time=0
note_off channel=1 note=54 velocity=64 time=240
note_off channel=1 note=49 velocity=64 time=0
note_off channel=1 note=42 velocity=64 time=0
note_on channel=1 note=52 velocity=80 time=0
note_on channel=1 note=47 velocity=80 time=0
note_on channel=1 note=40 velocity=80 time=0
note_off channel=1 note=52 velocity=64 time=240
note_off channel=1 note=47 velocity=64 time=0
note_off channel=1 note=40 velocity=64 time=0
note_on channel=1 note=40 velocity=80 time=0
note_off channel=1 note=40 velocity=64 time=120
note_on channel=1 note=40 velocity=80 time=0
note_off channel=1 note=40 velocity=64 time=120
note_on channel=1 note=52 velocity=80 time=0
note_on channel=1 note=47 velocity=80 time=0
note_on channel=1 note=40 velocity=80 time=0
note_off channel=1 note=52 velocity=64 time=240
note_off channel=1 note=47 velocity=64 time=0
note_off channel=1 note=40 velocity=64 time=0
note_on channel=1 note=52 velocity=80 time=0
note_on channel=1 note=47 velocity=80 time=0
note_on channel=1 note=40 velocity=80 time=0
note_off channel=1 note=52 velocity=64 time=240
note_off channel=1 note=47 velocity=64 time=0
note_off channel=1 note=40 velocity=64 time=0
note_on channel=1 note=50 velocity=80 time=0
note_on channel=1 note=45 velocity=80 time=0
note_on channel=1 note=38 velocity=80 time=0
note_off channel=1 note=50 velocity=64 time=240
note_off channel=1 note=45 velocity=64 time=0
note_off channel=1 note=38 velocity=64 time=0
note_on channel=1 note=38 velocity=80 time=0
note_off channel=1 note=38 velocity=64 time=120
note_on channel=1 note=38 velocity=80 time=0
note_off channel=1 note=38 velocity=64 time=120
note_on channel=1 note=50 velocity=80 time=0
note_on channel=1 note=45 velocity=80 time=0
note_on channel=1 note=38 velocity=80 time=0
note_off channel=1 note=50 velocity=64 time=240
note_off channel=1 note=45 velocity=64 time=0
note_off channel=1 note=38 velocity=64 time=0
note_on channel=1 note=38 velocity=80 time=0
note_off channel=1 note=38 velocity=64 time=120
note_on channel=1 note=38 velocity=80 time=0
note_off channel=1 note=38 velocity=64 time=120
note_on channel=1 note=52 velocity=80 time=0
note_on channel=1 note=47 velocity=80 time=0
note_on channel=1 note=40 velocity=80 time=0
note_off channel=1 note=52 velocity=64 time=240
note_off channel=1 note=47 velocity=64 time=0
note_off channel=1 note=40 velocity=64 time=0
note_on channel=1 note=52 velocity=80 time=0
note_on channel=1 note=47 velocity=80 time=0
note_on channel=1 note=40 velocity=80 time=0
note_off channel=1 note=52 velocity=64 time=240
note_off channel=1 note=47 velocity=64 time=0
note_off channel=1 note=40 velocity=64 time=0
note_on channel=1 note=52 velocity=80 time=0
note_on channel=1 note=47 velocity=80 time=0
note_on channel=1 note=40 velocity=80 time=0
note_off channel=1 note=52 velocity=64 time=240
note_off channel=1 note=47 velocity=64 time=0
note_off channel=1 note=40 velocity=64 time=0
note_on channel=1 note=52 velocity=80 time=0
note_on channel=1 note=47 velocity=80 time=0
note_on channel=1 note=40 velocity=80 time=0
note_off channel=1 note=52 velocity=64 time=240
note_off channel=1 note=47 velocity=64 time=0
note_off channel=1 note=40 velocity=64 time=0
note_on channel=1 note=54 velocity=80 time=0
note_on channel=1 note=49 velocity=80 time=0
note_on channel=1 note=42 velocity=80 time=0
note_off channel=1 note=54 velocity=64 time=240
note_off channel=1 note=49 velocity=64 time=0
note_off channel=1 note=42 velocity=64 time=0
note_on channel=1 note=42 velocity=80 time=0
note_off channel=1 note=42 velocity=64 time=120
note_on channel=1 note=42 velocity=80 time=0
note_off channel=1 note=42 velocity=64 time=120
note_on channel=1 note=54 velocity=80 time=0
note_on channel=1 note=49 velocity=80 time=0
note_on channel=1 note=42 velocity=80 time=0
note_off channel=1 note=54 velocity=64 time=240
note_off channel=1 note=49 velocity=64 time=0
note_off channel=1 note=42 velocity=64 time=0
note_on channel=1 note=42 velocity=80 time=0
note_off channel=1 note=42 velocity=64 time=120
note_on channel=1 note=42 velocity=80 time=0
note_off channel=1 note=42 velocity=64 time=120
note_on channel=1 note=52 velocity=80 time=0
note_on channel=1 note=47 velocity=80 time=0
note_on channel=1 note=40 velocity=80 time=0
note_off channel=1 note=52 velocity=64 time=240
note_off channel=1 note=47 velocity=64 time=0
note_off channel=1 note=40 velocity=64 time=0
note_on channel=1 note=40 velocity=80 time=0
note_off channel=1 note=40 velocity=64 time=120
note_on channel=1 note=40 velocity=80 time=0
note_off channel=1 note=40 velocity=64 time=120
note_on channel=1 note=52 velocity=80 time=0
note_on channel=1 note=47 velocity=80 time=0
note_on channel=1 note=40 velocity=80 time=0
note_off channel=1 note=52 velocity=64 time=240
note_off channel=1 note=47 velocity=64 time=0
note_off channel=1 note=40 velocity=64 time=0
note_on channel=1 note=40 velocity=80 time=0
note_off channel=1 note=40 velocity=64 time=120
note_on channel=1 note=40 velocity=80 time=0
note_off channel=1 note=40 velocity=64 time=120
note_on channel=1 note=50 velocity=80 time=0
note_on channel=1 note=45 velocity=80 time=0
note_on channel=1 note=38 velocity=80 time=0
note_off channel=1 note=50 velocity=64 time=240
note_off channel=1 note=45 velocity=64 time=0
note_off channel=1 note=38 velocity=64 time=0
note_on channel=1 note=38 velocity=80 time=0
note_off channel=1 note=38 velocity=64 time=120
note_on channel=1 note=38 velocity=80 time=0
note_off channel=1 note=38 velocity=64 time=120
note_on channel=1 note=50 velocity=80 time=0
note_on channel=1 note=45 velocity=80 time=0
note_on channel=1 note=38 velocity=80 time=0
note_off channel=1 note=50 velocity=64 time=240
note_off channel=1 note=45 velocity=64 time=0
note_off channel=1 note=38 velocity=64 time=0
note_on channel=1 note=50 velocity=80 time=0
note_on channel=1 note=45 velocity=80 time=0
note_on channel=1 note=38 velocity=80 time=0
note_off channel=1 note=50 velocity=64 time=240
note_off channel=1 note=45 velocity=64 time=0
note_off channel=1 note=38 velocity=64 time=0
note_on channel=1 note=52 velocity=80 time=0
note_on channel=1 note=47 velocity=80 time=0
note_on channel=1 note=40 velocity=80 time=0
note_off channel=1 note=52 velocity=64 time=240
note_off channel=1 note=47 velocity=64 time=0
note_off channel=1 note=40 velocity=64 time=0
note_on channel=1 note=52 velocity=80 time=0
note_on channel=1 note=47 velocity=80 time=0
note_on channel=1 note=40 velocity=80 time=0
note_off channel=1 note=52 velocity=64 time=240
note_off channel=1 note=47 velocity=64 time=0
note_off channel=1 note=40 velocity=64 time=0
note_on channel=1 note=52 velocity=80 time=0
note_on channel=1 note=47 velocity=80 time=0
note_on channel=1 note=40 velocity=80 time=0
note_off channel=1 note=52 velocity=64 time=240
note_off channel=1 note=47 velocity=64 time=0
note_off channel=1 note=40 velocity=64 time=0
note_on channel=1 note=52 velocity=80 time=0
note_on channel=1 note=47 velocity=80 time=0
note_on channel=1 note=40 velocity=80 time=0
note_off channel=1 note=52 velocity=64 time=240
note_off channel=1 note=47 velocity=64 time=0
note_off channel=1 note=40 velocity=64 time=0
note_on channel=1 note=54 velocity=80 time=0
note_on channel=1 note=49 velocity=80 time=0
note_on channel=1 note=42 velocity=80 time=0
note_off channel=1 note=54 velocity=64 time=240
note_off channel=1 note=49 velocity=64 time=0
note_off channel=1 note=42 velocity=64 time=0
note_on channel=1 note=54 velocity=80 time=0
note_on channel=1 note=49 velocity=80 time=0
note_on channel=1 note=42 velocity=80 time=0
note_off channel=1 note=54 velocity=64 time=240
note_off channel=1 note=49 velocity=64 time=0
note_off channel=1 note=42 velocity=64 time=0
note_on channel=1 note=54 velocity=80 time=1440
note_on channel=1 note=49 velocity=80 time=0
note_on channel=1 note=42 velocity=80 time=0
note_off channel=1 note=54 velocity=64 time=240
note_off channel=1 note=49 velocity=64 time=0
note_off channel=1 note=42 velocity=64 time=0
note_on channel=1 note=54 velocity=80 time=0
note_on channel=1 note=49 velocity=80 time=0
note_on channel=1 note=42 velocity=80 time=0
note_off channel=1 note=54 velocity=64 time=240
note_off channel=1 note=49 velocity=64 time=0
note_off channel=1 note=42 velocity=64 time=0
note_on channel=1 note=50 velocity=80 time=1440
note_on channel=1 note=45 velocity=80 time=0
note_on channel=1 note=38 velocity=80 time=0
note_off channel=1 note=50 velocity=64 time=240
note_off channel=1 note=45 velocity=64 time=0
note_off channel=1 note=38 velocity=64 time=0
note_on channel=1 note=38 velocity=80 time=0
note_off channel=1 note=38 velocity=64 time=120
note_on channel=1 note=38 velocity=80 time=0
note_off channel=1 note=38 velocity=64 time=120
note_on channel=1 note=50 velocity=80 time=0
note_on channel=1 note=45 velocity=80 time=0
note_on channel=1 note=38 velocity=80 time=0
note_off channel=1 note=50 velocity=64 time=240
note_off channel=1 note=45 velocity=64 time=0
note_off channel=1 note=38 velocity=64 time=0
note_on channel=1 note=45 velocity=80 time=720
note_off channel=1 note=45 velocity=64 time=240
note_on channel=1 note=47 velocity=80 time=0
note_off channel=1 note=47 velocity=64 time=240
note_on channel=1 note=57 velocity=80 time=0
note_on channel=1 note=52 velocity=80 time=0
note_on channel=1 note=45 velocity=80 time=0
note_off channel=1 note=57 velocity=64 time=240
note_off channel=1 note=52 velocity=64 time=0
note_off channel=1 note=45 velocity=64 time=0
note_on channel=1 note=57 velocity=80 time=240
note_on channel=1 note=52 velocity=80 time=0
note_on channel=1 note=45 velocity=80 time=0
note_off channel=1 note=57 velocity=64 time=240
note_off channel=1 note=52 velocity=64 time=0
note_off channel=1 note=45 velocity=64 time=0
note_on channel=1 note=52 velocity=80 time=240
note_on channel=1 note=47 velocity=80 time=0
note_on channel=1 note=40 velocity=80 time=0
note_off channel=1 note=52 velocity=64 time=240
note_off channel=1 note=47 velocity=64 time=0
note_off channel=1 note=40 velocity=64 time=0
note_on channel=1 note=52 velocity=80 time=240
note_on channel=1 note=47 velocity=80 time=0
note_on channel=1 note=40 velocity=80 time=0
note_off channel=1 note=52 velocity=64 time=240
note_off channel=1 note=47 velocity=64 time=0
note_off channel=1 note=40 velocity=64 time=0
note_on channel=1 note=54 velocity=80 time=240
note_on channel=1 note=49 velocity=80 time=0
note_on channel=1 note=42 velocity=80 time=0
note_off channel=1 note=54 velocity=64 time=240
note_off channel=1 note=49 velocity=64 time=0
note_off channel=1 note=42 velocity=64 time=0
note_on channel=1 note=54 velocity=80 time=0
note_on channel=1 note=49 velocity=80 time=0
note_on channel=1 note=42 velocity=80 time=0
note_off channel=1 note=54 velocity=64 time=240
note_off channel=1 note=49 velocity=64 time=0
note_off channel=1 note=42 velocity=64 time=0
note_on channel=1 note=54 velocity=80 time=1440
note_on channel=1 note=49 velocity=80 time=0
note_on channel=1 note=42 velocity=80 time=0
note_off channel=1 note=54 velocity=64 time=240
note_off channel=1 note=49 velocity=64 time=0
note_off channel=1 note=42 velocity=64 time=0
note_on channel=1 note=54 velocity=80 time=0
note_on channel=1 note=49 velocity=80 time=0
note_on channel=1 note=42 velocity=80 time=0
note_off channel=1 note=54 velocity=64 time=240
note_off channel=1 note=49 velocity=64 time=0
note_off channel=1 note=42 velocity=64 time=0
note_on channel=1 note=50 velocity=80 time=1440
note_on channel=1 note=45 velocity=80 time=0
note_on channel=1 note=38 velocity=80 time=0
note_off channel=1 note=50 velocity=64 time=240
note_off channel=1 note=45 velocity=64 time=0
note_off channel=1 note=38 velocity=64 time=0
note_on channel=1 note=38 velocity=80 time=0
note_off channel=1 note=38 velocity=64 time=120
note_on channel=1 note=38 velocity=80 time=0
note_off channel=1 note=38 velocity=64 time=120
note_on channel=1 note=50 velocity=80 time=0
note_on channel=1 note=45 velocity=80 time=0
note_on channel=1 note=38 velocity=80 time=0
note_off channel=1 note=50 velocity=64 time=240
note_off channel=1 note=45 velocity=64 time=0
note_off channel=1 note=38 velocity=64 time=0
note_on channel=1 note=45 velocity=80 time=720
note_off channel=1 note=45 velocity=64 time=240
note_on channel=1 note=47 velocity=80 time=0
note_off channel=1 note=47 velocity=64 time=240
note_on channel=1 note=57 velocity=80 time=0
note_on channel=1 note=52 velocity=80 time=0
note_on channel=1 note=45 velocity=80 time=0
note_off channel=1 note=57 velocity=64 time=480
note_off channel=1 note=52 velocity=64 time=0
note_off channel=1 note=45 velocity=64 time=0
note_on channel=1 note=57 velocity=80 time=0
note_on channel=1 note=52 velocity=80 time=0
note_on channel=1 note=45 velocity=80 time=0
note_off channel=1 note=57 velocity=64 time=480
note_off channel=1 note=52 velocity=64 time=0
note_off channel=1 note=45 velocity=64 time=0
note_on channel=1 note=52 velocity=80 time=0
note_on channel=1 note=47 velocity=80 time=0
note_on channel=1 note=40 velocity=80 time=0
note_off channel=1 note=52 velocity=64 time=480
note_off channel=1 note=47 velocity=64 time=0
note_off channel=1 note=40 velocity=64 time=0
note_on channel=1 note=52 velocity=80 time=0
note_on channel=1 note=47 velocity=80 time=0
note_on channel=1 note=40 velocity=80 time=0
note_off channel=1 note=52 velocity=64 time=480
note_off channel=1 note=47 velocity=64 time=0
note_off channel=1 note=40 velocity=64 time=0
note_on channel=1 note=42 velocity=80 time=0
note_off channel=1 note=42 velocity=64 time=120
note_on channel=1 note=42 velocity=80 time=0
note_off channel=1 note=42 velocity=64 time=120
note_on channel=1 note=42 velocity=80 time=0
note_off channel=1 note=42 velocity=64 time=120
note_on channel=1 note=42 velocity=80 time=0
note_off channel=1 note=42 velocity=64 time=120
note_on channel=1 note=54 velocity=80 time=0
note_on channel=1 note=49 velocity=80 time=0
note_on channel=1 note=42 velocity=80 time=0
note_off channel=1 note=54 velocity=64 time=240
note_off channel=1 note=49 velocity=64 time=0
note_off channel=1 note=42 velocity=64 time=0
note_on channel=1 note=54 velocity=80 time=0
note_on channel=1 note=49 velocity=80 time=0
note_on channel=1 note=42 velocity=80 time=0
note_off channel=1 note=54 velocity=64 time=240
note_off channel=1 note=49 velocity=64 time=0
note_off channel=1 note=42 velocity=64 time=0
note_on channel=1 note=42 velocity=80 time=960
note_off channel=1 note=42 velocity=64 time=120
note_on channel=1 note=42 velocity=80 time=0
note_off channel=1 note=42 velocity=64 time=120
note_on channel=1 note=42 velocity=80 time=0
note_off channel=1 note=42 velocity=64 time=120
note_on channel=1 note=42 velocity=80 time=0
note_off channel=1 note=42 velocity=64 time=120
note_on channel=1 note=54 velocity=80 time=0
note_on channel=1 note=49 velocity=80 time=0
note_on channel=1 note=42 velocity=80 time=0
note_off channel=1 note=54 velocity=64 time=240
note_off channel=1 note=49 velocity=64 time=0
note_off channel=1 note=42 velocity=64 time=0
note_on channel=1 note=54 velocity=80 time=0
note_on channel=1 note=49 velocity=80 time=0
note_on channel=1 note=42 velocity=80 time=0
note_off channel=1 note=54 velocity=64 time=240
note_off channel=1 note=49 velocity=64 time=0
note_off channel=1 note=42 velocity=64 time=0
note_on channel=1 note=50 velocity=80 time=960
note_on channel=1 note=45 velocity=80 time=0
note_on channel=1 note=38 velocity=80 time=0
note_off channel=1 note=50 velocity=64 time=240
note_off channel=1 note=45 velocity=64 time=0
note_off channel=1 note=38 velocity=64 time=0
note_on channel=1 note=50 velocity=80 time=0
note_on channel=1 note=45 velocity=80 time=0
note_on channel=1 note=38 velocity=80 time=0
note_off channel=1 note=50 velocity=64 time=240
note_off channel=1 note=45 velocity=64 time=0
note_off channel=1 note=38 velocity=64 time=0
note_on channel=1 note=50 velocity=80 time=240
note_on channel=1 note=45 velocity=80 time=0
note_on channel=1 note=38 velocity=80 time=0
note_off channel=1 note=50 velocity=64 time=240
note_off channel=1 note=45 velocity=64 time=0
note_off channel=1 note=38 velocity=64 time=0
note_on channel=1 note=52 velocity=80 time=0
note_on channel=1 note=47 velocity=80 time=0
note_on channel=1 note=40 velocity=80 time=0
note_off channel=1 note=52 velocity=64 time=240
note_off channel=1 note=47 velocity=64 time=0
note_off channel=1 note=40 velocity=64 time=0
note_on channel=1 note=52 velocity=80 time=240
note_on channel=1 note=47 velocity=80 time=0
note_on channel=1 note=40 velocity=80 time=0
note_off channel=1 note=52 velocity=64 time=240
note_off channel=1 note=47 velocity=64 time=0
note_off channel=1 note=40 velocity=64 time=0
note_on channel=1 note=52 velocity=80 time=0
note_on channel=1 note=47 velocity=80 time=0
note_on channel=1 note=40 velocity=80 time=0
note_off channel=1 note=52 velocity=64 time=240
note_off channel=1 note=47 velocity=64 time=0
note_off channel=1 note=40 velocity=64 time=0
note_on channel=1 note=57 velocity=80 time=0
note_on channel=1 note=52 velocity=80 time=0
note_on channel=1 note=45 velocity=80 time=0
note_off channel=1 note=57 velocity=64 time=240
note_off channel=1 note=52 velocity=64 time=0
note_off channel=1 note=45 velocity=64 time=0
note_on channel=1 note=57 velocity=80 time=0
note_on channel=1 note=52 velocity=80 time=0
note_on channel=1 note=45 velocity=80 time=0
note_off channel=1 note=57 velocity=64 time=240
note_off channel=1 note=52 velocity=64 time=0
note_off channel=1 note=45 velocity=64 time=0
note_on channel=1 note=57 velocity=80 time=0
note_on channel=1 note=52 velocity=80 time=0
note_on channel=1 note=45 velocity=80 time=0
note_off channel=1 note=57 velocity=64 time=240
note_off channel=1 note=52 velocity=64 time=0
note_off channel=1 note=45 velocity=64 time=0
note_on channel=1 note=57 velocity=80 time=0
note_on channel=1 note=52 velocity=80 time=0
note_on channel=1 note=45 velocity=80 time=0
note_off channel=1 note=57 velocity=64 time=240
note_off channel=1 note=52 velocity=64 time=0
note_off channel=1 note=45 velocity=64 time=0
note_on channel=1 note=52 velocity=80 time=0
note_on channel=1 note=47 velocity=80 time=0
note_on channel=1 note=40 velocity=80 time=0
note_off channel=1 note=52 velocity=64 time=240
note_off channel=1 note=47 velocity=64 time=0
note_off channel=1 note=40 velocity=64 time=0
note_on channel=1 note=52 velocity=80 time=0
note_on channel=1 note=47 velocity=80 time=0
note_on channel=1 note=40 velocity=80 time=0
note_off channel=1 note=52 velocity=64 time=240
note_off channel=1 note=47 velocity=64 time=0
note_off channel=1 note=40 velocity=64 time=0
note_on channel=1 note=52 velocity=80 time=0
note_on channel=1 note=47 velocity=80 time=0
note_on channel=1 note=40 velocity=80 time=0
note_off channel=1 note=52 velocity=64 time=240
note_off channel=1 note=47 velocity=64 time=0
note_off channel=1 note=40 velocity=64 time=0
note_on channel=1 note=52 velocity=80 time=0
note_on channel=1 note=47 velocity=80 time=0
note_on channel=1 note=40 velocity=80 time=0
note_off channel=1 note=52 velocity=64 time=240
note_off channel=1 note=47 velocity=64 time=0
note_off channel=1 note=40 velocity=64 time=0
note_on channel=1 note=42 velocity=80 time=0
note_off channel=1 note=42 velocity=64 time=120
note_on channel=1 note=42 velocity=80 time=0
note_off channel=1 note=42 velocity=64 time=120
note_on channel=1 note=42 velocity=80 time=0
note_off channel=1 note=42 velocity=64 time=120
note_on channel=1 note=42 velocity=80 time=0
note_off channel=1 note=42 velocity=64 time=120
note_on channel=1 note=54 velocity=80 time=0
note_on channel=1 note=49 velocity=80 time=0
note_on channel=1 note=42 velocity=80 time=0
note_off channel=1 note=54 velocity=64 time=240
note_off channel=1 note=49 velocity=64 time=0
note_off channel=1 note=42 velocity=64 time=0
note_on channel=1 note=54 velocity=80 time=0
note_on channel=1 note=49 velocity=80 time=0
note_on channel=1 note=42 velocity=80 time=0
note_off channel=1 note=54 velocity=64 time=240
note_off channel=1 note=49 velocity=64 time=0
note_off channel=1 note=42 velocity=64 time=0
note_on channel=1 note=42 velocity=80 time=960
note_off channel=1 note=42 velocity=64 time=120
note_on channel=1 note=42 velocity=80 time=0
note_off channel=1 note=42 velocity=64 time=120
note_on channel=1 note=42 velocity=80 time=0
note_off channel=1 note=42 velocity=64 time=120
note_on channel=1 note=42 velocity=80 time=0
note_off channel=1 note=42 velocity=64 time=120
note_on channel=1 note=54 velocity=80 time=0
note_on channel=1 note=49 velocity=80 time=0
note_on channel=1 note=42 velocity=80 time=0
note_off channel=1 note=54 velocity=64 time=240
note_off channel=1 note=49 velocity=64 time=0
note_off channel=1 note=42 velocity=64 time=0
note_on channel=1 note=54 velocity=80 time=0
note_on channel=1 note=49 velocity=80 time=0
note_on channel=1 note=42 velocity=80 time=0
note_off channel=1 note=54 velocity=64 time=240
note_off channel=1 note=49 velocity=64 time=0
note_off channel=1 note=42 velocity=64 time=0
note_on channel=1 note=50 velocity=80 time=960
note_on channel=1 note=45 velocity=80 time=0
note_on channel=1 note=38 velocity=80 time=0
note_off channel=1 note=50 velocity=64 time=240
note_off channel=1 note=45 velocity=64 time=0
note_off channel=1 note=38 velocity=64 time=0
note_on channel=1 note=50 velocity=80 time=0
note_on channel=1 note=45 velocity=80 time=0
note_on channel=1 note=38 velocity=80 time=0
note_off channel=1 note=50 velocity=64 time=240
note_off channel=1 note=45 velocity=64 time=0
note_off channel=1 note=38 velocity=64 time=0
note_on channel=1 note=50 velocity=80 time=240
note_on channel=1 note=45 velocity=80 time=0
note_on channel=1 note=38 velocity=80 time=0
note_off channel=1 note=50 velocity=64 time=240
note_off channel=1 note=45 velocity=64 time=0
note_off channel=1 note=38 velocity=64 time=0
note_on channel=1 note=52 velocity=80 time=0
note_on channel=1 note=47 velocity=80 time=0
note_on channel=1 note=40 velocity=80 time=0
note_off channel=1 note=52 velocity=64 time=240
note_off channel=1 note=47 velocity=64 time=0
note_off channel=1 note=40 velocity=64 time=0
note_on channel=1 note=52 velocity=80 time=240
note_on channel=1 note=47 velocity=80 time=0
note_on channel=1 note=40 velocity=80 time=0
note_off channel=1 note=52 velocity=64 time=240
note_off channel=1 note=47 velocity=64 time=0
note_off channel=1 note=40 velocity=64 time=0
note_on channel=1 note=52 velocity=80 time=0
note_on channel=1 note=47 velocity=80 time=0
note_on channel=1 note=40 velocity=80 time=0
note_off channel=1 note=52 velocity=64 time=240
note_off channel=1 note=47 velocity=64 time=0
note_off channel=1 note=40 velocity=64 time=0
note_on channel=1 note=57 velocity=80 time=0
note_on channel=1 note=52 velocity=80 time=0
note_on channel=1 note=45 velocity=80 time=0
note_off channel=1 note=57 velocity=64 time=240
note_off channel=1 note=52 velocity=64 time=0
note_off channel=1 note=45 velocity=64 time=0
note_on channel=1 note=57 velocity=80 time=0
note_on channel=1 note=52 velocity=80 time=0
note_on channel=1 note=45 velocity=80 time=0
note_off channel=1 note=57 velocity=64 time=240
note_off channel=1 note=52 velocity=64 time=0
note_off channel=1 note=45 velocity=64 time=0
note_on channel=1 note=57 velocity=80 time=0
note_on channel=1 note=52 velocity=80 time=0
note_on channel=1 note=45 velocity=80 time=0
note_off channel=1 note=57 velocity=64 time=240
note_off channel=1 note=52 velocity=64 time=0
note_off channel=1 note=45 velocity=64 time=0
note_on channel=1 note=57 velocity=80 time=0
note_on channel=1 note=52 velocity=80 time=0
note_on channel=1 note=45 velocity=80 time=0
note_off channel=1 note=57 velocity=64 time=240
note_off channel=1 note=52 velocity=64 time=0
note_off channel=1 note=45 velocity=64 time=0
note_on channel=1 note=52 velocity=80 time=0
note_on channel=1 note=47 velocity=80 time=0
note_on channel=1 note=40 velocity=80 time=0
note_off channel=1 note=52 velocity=64 time=240
note_off channel=1 note=47 velocity=64 time=0
note_off channel=1 note=40 velocity=64 time=0
note_on channel=1 note=52 velocity=80 time=0
note_on channel=1 note=47 velocity=80 time=0
note_on channel=1 note=40 velocity=80 time=0
note_off channel=1 note=52 velocity=64 time=240
note_off channel=1 note=47 velocity=64 time=0
note_off channel=1 note=40 velocity=64 time=0
note_on channel=1 note=52 velocity=80 time=0
note_on channel=1 note=47 velocity=80 time=0
note_on channel=1 note=40 velocity=80 time=0
note_off channel=1 note=52 velocity=64 time=240
note_off channel=1 note=47 velocity=64 time=0
note_off channel=1 note=40 velocity=64 time=0
note_on channel=1 note=52 velocity=80 time=0
note_on channel=1 note=47 velocity=80 time=0
note_on channel=1 note=40 velocity=80 time=0
note_off channel=1 note=52 velocity=64 time=240
note_off channel=1 note=47 velocity=64 time=0
note_off channel=1 note=40 velocity=64 time=0
note_on channel=1 note=54 velocity=80 time=0
note_on channel=1 note=49 velocity=80 time=0
note_on channel=1 note=42 velocity=80 time=0
note_off channel=1 note=54 velocity=64 time=240
note_off channel=1 note=49 velocity=64 time=0
note_off channel=1 note=42 velocity=64 time=0
note_on channel=1 note=49 velocity=80 time=0
note_on channel=1 note=42 velocity=80 time=0
note_off channel=1 note=49 velocity=64 time=240
note_off channel=1 note=42 velocity=64 time=0
note_on channel=1 note=49 velocity=80 time=0
note_on channel=1 note=42 velocity=80 time=0
note_off channel=1 note=49 velocity=64 time=240
note_off channel=1 note=42 velocity=64 time=0
note_on channel=1 note=49 velocity=80 time=0
note_on channel=1 note=42 velocity=80 time=0
note_off channel=1 note=49 velocity=64 time=240
note_off channel=1 note=42 velocity=64 time=0
note_on channel=1 note=49 velocity=80 time=0
note_on channel=1 note=42 velocity=80 time=0
note_off channel=1 note=49 velocity=64 time=240
note_off channel=1 note=42 velocity=64 time=0
note_on channel=1 note=49 velocity=80 time=0
note_on channel=1 note=42 velocity=80 time=0
note_off channel=1 note=49 velocity=64 time=240
note_off channel=1 note=42 velocity=64 time=0
note_on channel=1 note=49 velocity=80 time=0
note_on channel=1 note=42 velocity=80 time=0
note_off channel=1 note=49 velocity=64 time=240
note_off channel=1 note=42 velocity=64 time=0
note_on channel=1 note=49 velocity=80 time=0
note_on channel=1 note=42 velocity=80 time=0
note_off channel=1 note=49 velocity=64 time=240
note_off channel=1 note=42 velocity=64 time=0
note_on channel=1 note=57 velocity=80 time=0
note_on channel=1 note=52 velocity=80 time=0
note_on channel=1 note=45 velocity=80 time=0
note_off channel=1 note=57 velocity=64 time=240
note_off channel=1 note=52 velocity=64 time=0
note_off channel=1 note=45 velocity=64 time=0
note_on channel=1 note=52 velocity=80 time=0
note_on channel=1 note=45 velocity=80 time=0
note_off channel=1 note=52 velocity=64 time=240
note_off channel=1 note=45 velocity=64 time=0
note_on channel=1 note=52 velocity=80 time=0
note_on channel=1 note=45 velocity=80 time=0
note_off channel=1 note=52 velocity=64 time=240
note_off channel=1 note=45 velocity=64 time=0
note_on channel=1 note=52 velocity=80 time=0
note_on channel=1 note=45 velocity=80 time=0
note_off channel=1 note=52 velocity=64 time=240
note_off channel=1 note=45 velocity=64 time=0
note_on channel=1 note=52 velocity=80 time=0
note_on channel=1 note=45 velocity=80 time=0
note_off channel=1 note=52 velocity=64 time=240
note_off channel=1 note=45 velocity=64 time=0
note_on channel=1 note=52 velocity=80 time=0
note_on channel=1 note=45 velocity=80 time=0
note_off channel=1 note=52 velocity=64 time=240
note_off channel=1 note=45 velocity=64 time=0
note_on channel=1 note=52 velocity=80 time=0
note_on channel=1 note=45 velocity=80 time=0
note_off channel=1 note=52 velocity=64 time=240
note_off channel=1 note=45 velocity=64 time=0
note_on channel=1 note=52 velocity=80 time=0
note_on channel=1 note=45 velocity=80 time=0
note_off channel=1 note=52 velocity=64 time=240
note_off channel=1 note=45 velocity=64 time=0
note_on channel=1 note=50 velocity=80 time=0
note_on channel=1 note=45 velocity=80 time=0
note_on channel=1 note=38 velocity=80 time=0
note_off channel=1 note=50 velocity=64 time=240
note_off channel=1 note=45 velocity=64 time=0
note_off channel=1 note=38 velocity=64 time=0
note_on channel=1 note=45 velocity=80 time=0
note_on channel=1 note=38 velocity=80 time=0
note_off channel=1 note=45 velocity=64 time=240
note_off channel=1 note=38 velocity=64 time=0
note_on channel=1 note=45 velocity=80 time=0
note_on channel=1 note=38 velocity=80 time=0
note_off channel=1 note=45 velocity=64 time=240
note_off channel=1 note=38 velocity=64 time=0
note_on channel=1 note=45 velocity=80 time=0
note_on channel=1 note=38 velocity=80 time=0
note_off channel=1 note=45 velocity=64 time=240
note_off channel=1 note=38 velocity=64 time=0
note_on channel=1 note=45 velocity=80 time=0
note_on channel=1 note=38 velocity=80 time=0
note_off channel=1 note=45 velocity=64 time=240
note_off channel=1 note=38 velocity=64 time=0
note_on channel=1 note=45 velocity=80 time=0
note_on channel=1 note=38 velocity=80 time=0
note_off channel=1 note=45 velocity=64 time=240
note_off channel=1 note=38 velocity=64 time=0
note_on channel=1 note=45 velocity=80 time=0
note_on channel=1 note=38 velocity=80 time=0
note_off channel=1 note=45 velocity=64 time=240
note_off channel=1 note=38 velocity=64 time=0
note_on channel=1 note=45 velocity=80 time=0
note_on channel=1 note=38 velocity=80 time=0
note_off channel=1 note=45 velocity=64 time=240
note_off channel=1 note=38 velocity=64 time=0
note_on channel=1 note=52 velocity=80 time=0
note_on channel=1 note=47 velocity=80 time=0
note_on channel=1 note=40 velocity=80 time=0
note_off channel=1 note=52 velocity=64 time=240
note_off channel=1 note=47 velocity=64 time=0
note_off channel=1 note=40 velocity=64 time=0
note_on channel=1 note=47 velocity=80 time=0
note_on channel=1 note=40 velocity=80 time=0
note_off channel=1 note=47 velocity=64 time=240
note_off channel=1 note=40 velocity=64 time=0
note_on channel=1 note=47 velocity=80 time=0
note_on channel=1 note=40 velocity=80 time=0
note_off channel=1 note=47 velocity=64 time=240
note_off channel=1 note=40 velocity=64 time=0
note_on channel=1 note=47 velocity=80 time=0
note_on channel=1 note=40 velocity=80 time=0
note_off channel=1 note=47 velocity=64 time=240
note_off channel=1 note=40 velocity=64 time=0
note_on channel=1 note=47 velocity=80 time=0
note_on channel=1 note=40 velocity=80 time=0
note_off channel=1 note=47 velocity=64 time=240
note_off channel=1 note=40 velocity=64 time=0
note_on channel=1 note=47 velocity=80 time=0
note_on channel=1 note=40 velocity=80 time=0
note_off channel=1 note=47 velocity=64 time=240
note_off channel=1 note=40 velocity=64 time=0
note_on channel=1 note=47 velocity=80 time=0
note_on channel=1 note=40 velocity=80 time=0
note_off channel=1 note=47 velocity=64 time=240
note_off channel=1 note=40 velocity=64 time=0
note_on channel=1 note=47 velocity=80 time=0
note_on channel=1 note=40 velocity=80 time=0
note_off channel=1 note=47 velocity=64 time=240
note_off channel=1 note=40 velocity=64 time=0
note_on channel=1 note=54 velocity=80 time=0
note_on channel=1 note=49 velocity=80 time=0
note_on channel=1 note=42 velocity=80 time=0
note_off channel=1 note=54 velocity=64 time=240
note_off channel=1 note=49 velocity=64 time=0
note_off channel=1 note=42 velocity=64 time=0
note_on channel=1 note=49 velocity=80 time=0
note_on channel=1 note=42 velocity=80 time=0
note_off channel=1 note=49 velocity=64 time=240
note_off channel=1 note=42 velocity=64 time=0
note_on channel=1 note=49 velocity=80 time=0
note_on channel=1 note=42 velocity=80 time=0
note_off channel=1 note=49 velocity=64 time=240
note_off channel=1 note=42 velocity=64 time=0
note_on channel=1 note=49 velocity=80 time=0
note_on channel=1 note=42 velocity=80 time=0
note_off channel=1 note=49 velocity=64 time=240
note_off channel=1 note=42 velocity=64 time=0
note_on channel=1 note=49 velocity=80 time=0
note_on channel=1 note=42 velocity=80 time=0
note_off channel=1 note=49 velocity=64 time=240
note_off channel=1 note=42 velocity=64 time=0
note_on channel=1 note=49 velocity=80 time=0
note_on channel=1 note=42 velocity=80 time=0
note_off channel=1 note=49 velocity=64 time=240
note_off channel=1 note=42 velocity=64 time=0
note_on channel=1 note=49 velocity=80 time=0
note_on channel=1 note=42 velocity=80 time=0
note_off channel=1 note=49 velocity=64 time=240
note_off channel=1 note=42 velocity=64 time=0
note_on channel=1 note=49 velocity=80 time=0
note_on channel=1 note=42 velocity=80 time=0
note_off channel=1 note=49 velocity=64 time=240
note_off channel=1 note=42 velocity=64 time=0
note_on channel=1 note=57 velocity=80 time=0
note_on channel=1 note=52 velocity=80 time=0
note_on channel=1 note=45 velocity=80 time=0
note_off channel=1 note=57 velocity=64 time=240
note_off channel=1 note=52 velocity=64 time=0
note_off channel=1 note=45 velocity=64 time=0
note_on channel=1 note=52 velocity=80 time=0
note_on channel=1 note=45 velocity=80 time=0
note_off channel=1 note=52 velocity=64 time=240
note_off channel=1 note=45 velocity=64 time=0
note_on channel=1 note=52 velocity=80 time=0
note_on channel=1 note=45 velocity=80 time=0
note_off channel=1 note=52 velocity=64 time=240
note_off channel=1 note=45 velocity=64 time=0
note_on channel=1 note=52 velocity=80 time=0
note_on channel=1 note=45 velocity=80 time=0
note_off channel=1 note=52 velocity=64 time=240
note_off channel=1 note=45 velocity=64 time=0
note_on channel=1 note=52 velocity=80 time=0
note_on channel=1 note=45 velocity=80 time=0
note_off channel=1 note=52 velocity=64 time=240
note_off channel=1 note=45 velocity=64 time=0
note_on channel=1 note=52 velocity=80 time=0
note_on channel=1 note=45 velocity=80 time=0
note_off channel=1 note=52 velocity=64 time=240
note_off channel=1 note=45 velocity=64 time=0
note_on channel=1 note=52 velocity=80 time=0
note_on channel=1 note=45 velocity=80 time=0
note_off channel=1 note=52 velocity=64 time=240
note_off channel=1 note=45 velocity=64 time=0
note_on channel=1 note=52 velocity=80 time=0
note_on channel=1 note=45 velocity=80 time=0
note_off channel=1 note=52 velocity=64 time=240
note_off channel=1 note=45 velocity=64 time=0
note_on channel=1 note=50 velocity=80 time=0
note_on channel=1 note=45 velocity=80 time=0
note_on channel=1 note=38 velocity=80 time=0
note_off channel=1 note=50 velocity=64 time=240
note_off channel=1 note=45 velocity=64 time=0
note_off channel=1 note=38 velocity=64 time=0
note_on channel=1 note=45 velocity=80 time=0
note_on channel=1 note=38 velocity=80 time=0
note_off channel=1 note=45 velocity=64 time=240
note_off channel=1 note=38 velocity=64 time=0
note_on channel=1 note=45 velocity=80 time=0
note_on channel=1 note=38 velocity=80 time=0
note_off channel=1 note=45 velocity=64 time=240
note_off channel=1 note=38 velocity=64 time=0
note_on channel=1 note=45 velocity=80 time=0
note_on channel=1 note=38 velocity=80 time=0
note_off channel=1 note=45 velocity=64 time=240
note_off channel=1 note=38 velocity=64 time=0
note_on channel=1 note=45 velocity=80 time=0
note_on channel=1 note=38 velocity=80 time=0
note_off channel=1 note=45 velocity=64 time=240
note_off channel=1 note=38 velocity=64 time=0
note_on channel=1 note=45 velocity=80 time=0
note_on channel=1 note=38 velocity=80 time=0
note_off channel=1 note=45 velocity=64 time=240
note_off channel=1 note=38 velocity=64 time=0
note_on channel=1 note=45 velocity=80 time=0
note_on channel=1 note=38 velocity=80 time=0
note_off channel=1 note=45 velocity=64 time=240
note_off channel=1 note=38 velocity=64 time=0
note_on channel=1 note=45 velocity=80 time=0
note_on channel=1 note=38 velocity=80 time=0
note_off channel=1 note=45 velocity=64 time=240
note_off channel=1 note=38 velocity=64 time=0
note_on channel=1 note=52 velocity=80 time=0
note_on channel=1 note=47 velocity=80 time=0
note_on channel=1 note=40 velocity=80 time=0
note_off channel=1 note=52 velocity=64 time=240
note_off channel=1 note=47 velocity=64 time=0
note_off channel=1 note=40 velocity=64 time=0
note_on channel=1 note=47 velocity=80 time=0
note_on channel=1 note=40 velocity=80 time=0
note_off channel=1 note=47 velocity=64 time=240
note_off channel=1 note=40 velocity=64 time=0
note_on channel=1 note=47 velocity=80 time=0
note_on channel=1 note=40 velocity=80 time=0
note_off channel=1 note=47 velocity=64 time=240
note_off channel=1 note=40 velocity=64 time=0
note_on channel=1 note=47 velocity=80 time=0
note_on channel=1 note=40 velocity=80 time=0
note_off channel=1 note=47 velocity=64 time=240
note_off channel=1 note=40 velocity=64 time=0
note_on channel=1 note=47 velocity=80 time=0
note_on channel=1 note=40 velocity=80 time=0
note_off channel=1 note=47 velocity=64 time=240
note_off channel=1 note=40 velocity=64 time=0
note_on channel=1 note=47 velocity=80 time=0
note_on channel=1 note=40 velocity=80 time=0
note_off channel=1 note=47 velocity=64 time=240
note_off channel=1 note=40 velocity=64 time=0
note_on channel=1 note=47 velocity=80 time=0
note_on channel=1 note=40 velocity=80 time=0
note_off channel=1 note=47 velocity=64 time=240
note_off channel=1 note=40 velocity=64 time=0
note_on channel=1 note=47 velocity=80 time=0
note_on channel=1 note=40 velocity=80 time=0
note_off channel=1 note=47 velocity=64 time=240
note_off channel=1 note=40 velocity=64 time=0
note_on channel=1 note=54 velocity=80 time=0
note_on channel=1 note=49 velocity=80 time=0
note_on channel=1 note=42 velocity=80 time=0
note_off channel=1 note=54 velocity=64 time=240
note_off channel=1 note=49 velocity=64 time=0
note_off channel=1 note=42 velocity=64 time=0
note_on channel=1 note=49 velocity=80 time=0
note_on channel=1 note=42 velocity=80 time=0
note_off channel=1 note=49 velocity=64 time=240
note_off channel=1 note=42 velocity=64 time=0
note_on channel=1 note=49 velocity=80 time=0
note_on channel=1 note=42 velocity=80 time=0
note_off channel=1 note=49 velocity=64 time=240
note_off channel=1 note=42 velocity=64 time=0
note_on channel=1 note=49 velocity=80 time=0
note_on channel=1 note=42 velocity=80 time=0
note_off channel=1 note=49 velocity=64 time=240
note_off channel=1 note=42 velocity=64 time=0
note_on channel=1 note=49 velocity=80 time=0
note_on channel=1 note=42 velocity=80 time=0
note_off channel=1 note=49 velocity=64 time=240
note_off channel=1 note=42 velocity=64 time=0
note_on channel=1 note=49 velocity=80 time=0
note_on channel=1 note=42 velocity=80 time=0
note_off channel=1 note=49 velocity=64 time=240
note_off channel=1 note=42 velocity=64 time=0
note_on channel=1 note=49 velocity=80 time=0
note_on channel=1 note=42 velocity=80 time=0
note_off channel=1 note=49 velocity=64 time=240
note_off channel=1 note=42 velocity=64 time=0
note_on channel=1 note=49 velocity=80 time=0
note_on channel=1 note=42 velocity=80 time=0
note_off channel=1 note=49 velocity=64 time=240
note_off channel=1 note=42 velocity=64 time=0
note_on channel=1 note=57 velocity=80 time=0
note_on channel=1 note=52 velocity=80 time=0
note_on channel=1 note=45 velocity=80 time=0
note_off channel=1 note=57 velocity=64 time=240
note_off channel=1 note=52 velocity=64 time=0
note_off channel=1 note=45 velocity=64 time=0
note_on channel=1 note=52 velocity=80 time=0
note_on channel=1 note=45 velocity=80 time=0
note_off channel=1 note=52 velocity=64 time=240
note_off channel=1 note=45 velocity=64 time=0
note_on channel=1 note=52 velocity=80 time=0
note_on channel=1 note=45 velocity=80 time=0
note_off channel=1 note=52 velocity=64 time=240
note_off channel=1 note=45 velocity=64 time=0
note_on channel=1 note=52 velocity=80 time=0
note_on channel=1 note=45 velocity=80 time=0
note_off channel=1 note=52 velocity=64 time=240
note_off channel=1 note=45 velocity=64 time=0
note_on channel=1 note=52 velocity=80 time=0
note_on channel=1 note=45 velocity=80 time=0
note_off channel=1 note=52 velocity=64 time=240
note_off channel=1 note=45 velocity=64 time=0
note_on channel=1 note=52 velocity=80 time=0
note_on channel=1 note=45 velocity=80 time=0
note_off channel=1 note=52 velocity=64 time=240
note_off channel=1 note=45 velocity=64 time=0
note_on channel=1 note=52 velocity=80 time=0
note_on channel=1 note=45 velocity=80 time=0
note_off channel=1 note=52 velocity=64 time=240
note_off channel=1 note=45 velocity=64 time=0
note_on channel=1 note=52 velocity=80 time=0
note_on channel=1 note=45 velocity=80 time=0
note_off channel=1 note=52 velocity=64 time=240
note_off channel=1 note=45 velocity=64 time=0
note_on channel=1 note=50 velocity=80 time=0
note_on channel=1 note=45 velocity=80 time=0
note_on channel=1 note=38 velocity=80 time=0
note_off channel=1 note=50 velocity=64 time=240
note_off channel=1 note=45 velocity=64 time=0
note_off channel=1 note=38 velocity=64 time=0
note_on channel=1 note=45 velocity=80 time=0
note_on channel=1 note=38 velocity=80 time=0
note_off channel=1 note=45 velocity=64 time=240
note_off channel=1 note=38 velocity=64 time=0
note_on channel=1 note=45 velocity=80 time=0
note_on channel=1 note=38 velocity=80 time=0
note_off channel=1 note=45 velocity=64 time=240
note_off channel=1 note=38 velocity=64 time=0
note_on channel=1 note=45 velocity=80 time=0
note_on channel=1 note=38 velocity=80 time=0
note_off channel=1 note=45 velocity=64 time=240
note_off channel=1 note=38 velocity=64 time=0
note_on channel=1 note=45 velocity=80 time=0
note_on channel=1 note=38 velocity=80 time=0
note_off channel=1 note=45 velocity=64 time=240
note_off channel=1 note=38 velocity=64 time=0
note_on channel=1 note=45 velocity=80 time=0
note_on channel=1 note=38 velocity=80 time=0
note_off channel=1 note=45 velocity=64 time=240
note_off channel=1 note=38 velocity=64 time=0
note_on channel=1 note=45 velocity=80 time=0
note_on channel=1 note=38 velocity=80 time=0
note_off channel=1 note=45 velocity=64 time=240
note_off channel=1 note=38 velocity=64 time=0
note_on channel=1 note=45 velocity=80 time=0
note_on channel=1 note=38 velocity=80 time=0
note_off channel=1 note=45 velocity=64 time=240
note_off channel=1 note=38 velocity=64 time=0
note_on channel=1 note=52 velocity=80 time=0
note_on channel=1 note=47 velocity=80 time=0
note_on channel=1 note=40 velocity=80 time=0
note_off channel=1 note=52 velocity=64 time=240
note_off channel=1 note=47 velocity=64 time=0
note_off channel=1 note=40 velocity=64 time=0
note_on channel=1 note=47 velocity=80 time=0
note_on channel=1 note=40 velocity=80 time=0
note_off channel=1 note=47 velocity=64 time=240
note_off channel=1 note=40 velocity=64 time=0
note_on channel=1 note=47 velocity=80 time=0
note_on channel=1 note=40 velocity=80 time=0
note_off channel=1 note=47 velocity=64 time=240
note_off channel=1 note=40 velocity=64 time=0
note_on channel=1 note=47 velocity=80 time=0
note_on channel=1 note=40 velocity=80 time=0
note_off channel=1 note=47 velocity=64 time=240
note_off channel=1 note=40 velocity=64 time=0
note_on channel=1 note=47 velocity=80 time=0
note_on channel=1 note=40 velocity=80 time=0
note_off channel=1 note=47 velocity=64 time=240
note_off channel=1 note=40 velocity=64 time=0
note_on channel=1 note=47 velocity=80 time=0
note_on channel=1 note=40 velocity=80 time=0
note_off channel=1 note=47 velocity=64 time=240
note_off channel=1 note=40 velocity=64 time=0
note_on channel=1 note=47 velocity=80 time=0
note_on channel=1 note=40 velocity=80 time=0
note_off channel=1 note=47 velocity=64 time=240
note_off channel=1 note=40 velocity=64 time=0
note_on channel=1 note=47 velocity=80 time=0
note_on channel=1 note=40 velocity=80 time=0
note_off channel=1 note=47 velocity=64 time=240
note_off channel=1 note=40 velocity=64 time=0
note_on channel=1 note=54 velocity=80 time=0
note_on channel=1 note=49 velocity=80 time=0
note_on channel=1 note=42 velocity=80 time=0
note_off channel=1 note=54 velocity=64 time=240
note_off channel=1 note=49 velocity=64 time=0
note_off channel=1 note=42 velocity=64 time=0
note_on channel=1 note=49 velocity=80 time=0
note_on channel=1 note=42 velocity=80 time=0
note_off channel=1 note=49 velocity=64 time=240
note_off channel=1 note=42 velocity=64 time=0
note_on channel=1 note=49 velocity=80 time=0
note_on channel=1 note=42 velocity=80 time=0
note_off channel=1 note=49 velocity=64 time=240
note_off channel=1 note=42 velocity=64 time=0
note_on channel=1 note=49 velocity=80 time=0
note_on channel=1 note=42 velocity=80 time=0
note_off channel=1 note=49 velocity=64 time=240
note_off channel=1 note=42 velocity=64 time=0
note_on channel=1 note=49 velocity=80 time=0
note_on channel=1 note=42 velocity=80 time=0
note_off channel=1 note=49 velocity=64 time=240
note_off channel=1 note=42 velocity=64 time=0
note_on channel=1 note=49 velocity=80 time=0
note_on channel=1 note=42 velocity=80 time=0
note_off channel=1 note=49 velocity=64 time=240
note_off channel=1 note=42 velocity=64 time=0
note_on channel=1 note=49 velocity=80 time=0
note_on channel=1 note=42 velocity=80 time=0
note_off channel=1 note=49 velocity=64 time=240
note_off channel=1 note=42 velocity=64 time=0
note_on channel=1 note=49 velocity=80 time=0
note_on channel=1 note=42 velocity=80 time=0
note_off channel=1 note=49 velocity=64 time=240
note_off channel=1 note=42 velocity=64 time=0
note_on channel=1 note=57 velocity=80 time=0
note_on channel=1 note=52 velocity=80 time=0
note_on channel=1 note=45 velocity=80 time=0
note_off channel=1 note=57 velocity=64 time=240
note_off channel=1 note=52 velocity=64 time=0
note_off channel=1 note=45 velocity=64 time=0
note_on channel=1 note=52 velocity=80 time=0
note_on channel=1 note=45 velocity=80 time=0
note_off channel=1 note=52 velocity=64 time=240
note_off channel=1 note=45 velocity=64 time=0
note_on channel=1 note=52 velocity=80 time=0
note_on channel=1 note=45 velocity=80 time=0
note_off channel=1 note=52 velocity=64 time=240
note_off channel=1 note=45 velocity=64 time=0
note_on channel=1 note=52 velocity=80 time=0
note_on channel=1 note=45 velocity=80 time=0
note_off channel=1 note=52 velocity=64 time=240
note_off channel=1 note=45 velocity=64 time=0
note_on channel=1 note=52 velocity=80 time=0
note_on channel=1 note=45 velocity=80 time=0
note_off channel=1 note=52 velocity=64 time=240
note_off channel=1 note=45 velocity=64 time=0
note_on channel=1 note=52 velocity=80 time=0
note_on channel=1 note=45 velocity=80 time=0
note_off channel=1 note=52 velocity=64 time=240
note_off channel=1 note=45 velocity=64 time=0
note_on channel=1 note=52 velocity=80 time=0
note_on channel=1 note=45 velocity=80 time=0
note_off channel=1 note=52 velocity=64 time=240
note_off channel=1 note=45 velocity=64 time=0
note_on channel=1 note=52 velocity=80 time=0
note_on channel=1 note=45 velocity=80 time=0
note_off channel=1 note=52 velocity=64 time=240
note_off channel=1 note=45 velocity=64 time=0
note_on channel=1 note=50 velocity=80 time=0
note_on channel=1 note=45 velocity=80 time=0
note_on channel=1 note=38 velocity=80 time=0
note_off channel=1 note=50 velocity=64 time=240
note_off channel=1 note=45 velocity=64 time=0
note_off channel=1 note=38 velocity=64 time=0
note_on channel=1 note=45 velocity=80 time=0
note_on channel=1 note=38 velocity=80 time=0
note_off channel=1 note=45 velocity=64 time=240
note_off channel=1 note=38 velocity=64 time=0
note_on channel=1 note=45 velocity=80 time=0
note_on channel=1 note=38 velocity=80 time=0
note_off channel=1 note=45 velocity=64 time=240
note_off channel=1 note=38 velocity=64 time=0
note_on channel=1 note=45 velocity=80 time=0
note_on channel=1 note=38 velocity=80 time=0
note_off channel=1 note=45 velocity=64 time=240
note_off channel=1 note=38 velocity=64 time=0
note_on channel=1 note=45 velocity=80 time=0
note_on channel=1 note=38 velocity=80 time=0
note_off channel=1 note=45 velocity=64 time=240
note_off channel=1 note=38 velocity=64 time=0
note_on channel=1 note=45 velocity=80 time=0
note_on channel=1 note=38 velocity=80 time=0
note_off channel=1 note=45 velocity=64 time=240
note_off channel=1 note=38 velocity=64 time=0
note_on channel=1 note=45 velocity=80 time=0
note_on channel=1 note=38 velocity=80 time=0
note_off channel=1 note=45 velocity=64 time=240
note_off channel=1 note=38 velocity=64 time=0
note_on channel=1 note=45 velocity=80 time=0
note_on channel=1 note=38 velocity=80 time=0
note_off channel=1 note=45 velocity=64 time=240
note_off channel=1 note=38 velocity=64 time=0
note_on channel=1 note=52 velocity=80 time=0
note_on channel=1 note=47 velocity=80 time=0
note_on channel=1 note=40 velocity=80 time=0
note_off channel=1 note=52 velocity=64 time=240
note_off channel=1 note=47 velocity=64 time=0
note_off channel=1 note=40 velocity=64 time=0
note_on channel=1 note=47 velocity=80 time=0
note_on channel=1 note=40 velocity=80 time=0
note_off channel=1 note=47 velocity=64 time=240
note_off channel=1 note=40 velocity=64 time=0
note_on channel=1 note=47 velocity=80 time=0
note_on channel=1 note=40 velocity=80 time=0
note_off channel=1 note=47 velocity=64 time=240
note_off channel=1 note=40 velocity=64 time=0
note_on channel=1 note=47 velocity=80 time=0
note_on channel=1 note=40 velocity=80 time=0
note_off channel=1 note=47 velocity=64 time=240
note_off channel=1 note=40 velocity=64 time=0
note_on channel=1 note=47 velocity=80 time=0
note_on channel=1 note=40 velocity=80 time=0
note_off channel=1 note=47 velocity=64 time=240
note_off channel=1 note=40 velocity=64 time=0
note_on channel=1 note=47 velocity=80 time=0
note_on channel=1 note=40 velocity=80 time=0
note_off channel=1 note=47 velocity=64 time=240
note_off channel=1 note=40 velocity=64 time=0
note_on channel=1 note=47 velocity=80 time=0
note_on channel=1 note=40 velocity=80 time=0
note_off channel=1 note=47 velocity=64 time=240
note_off channel=1 note=40 velocity=64 time=0
note_on channel=1 note=47 velocity=80 time=0
note_on channel=1 note=40 velocity=80 time=0
note_off channel=1 note=47 velocity=64 time=240
note_off channel=1 note=40 velocity=64 time=0
note_on channel=1 note=42 velocity=80 time=0
note_off channel=1 note=42 velocity=64 time=120
note_on channel=1 note=42 velocity=80 time=0
note_off channel=1 note=42 velocity=64 time=120
note_on channel=1 note=42 velocity=80 time=0
note_off channel=1 note=42 velocity=64 time=120
note_on channel=1 note=42 velocity=80 time=0
note_off channel=1 note=42 velocity=64 time=120
note_on channel=1 note=54 velocity=80 time=0
note_on channel=1 note=49 velocity=80 time=0
note_on channel=1 note=42 velocity=80 time=0
note_off channel=1 note=54 velocity=64 time=240
note_off channel=1 note=49 velocity=64 time=0
note_off channel=1 note=42 velocity=64 time=0
note_on channel=1 note=54 velocity=80 time=0
note_on channel=1 note=49 velocity=80 time=0
note_on channel=1 note=42 velocity=80 time=0
note_off channel=1 note=54 velocity=64 time=240
note_off channel=1 note=49 velocity=64 time=0
note_off channel=1 note=42 velocity=64 time=0
note_on channel=1 note=52 velocity=80 time=0
note_on channel=1 note=47 velocity=80 time=0
note_on channel=1 note=40 velocity=80 time=0
note_off channel=1 note=52 velocity=64 time=240
note_off channel=1 note=47 velocity=64 time=0
note_off channel=1 note=40 velocity=64 time=0
note_on channel=1 note=40 velocity=80 time=0
note_off channel=1 note=40 velocity=64 time=120
note_on channel=1 note=40 velocity=80 time=0
note_off channel=1 note=40 velocity=64 time=120
note_on channel=1 note=52 velocity=80 time=0
note_on channel=1 note=47 velocity=80 time=0
note_on channel=1 note=40 velocity=80 time=0
note_off channel=1 note=52 velocity=64 time=240
note_off channel=1 note=47 velocity=64 time=0
note_off channel=1 note=40 velocity=64 time=0
note_on channel=1 note=52 velocity=80 time=0
note_on channel=1 note=47 velocity=80 time=0
note_on channel=1 note=40 velocity=80 time=0
note_off channel=1 note=52 velocity=64 time=240
note_off channel=1 note=47 velocity=64 time=0
note_off channel=1 note=40 velocity=64 time=0
note_on channel=1 note=57 velocity=80 time=0
note_on channel=1 note=52 velocity=80 time=0
note_on channel=1 note=45 velocity=80 time=0
note_off channel=1 note=57 velocity=64 time=240
note_off channel=1 note=52 velocity=64 time=0
note_off channel=1 note=45 velocity=64 time=0
note_on channel=1 note=45 velocity=80 time=0
note_off channel=1 note=45 velocity=64 time=120
note_on channel=1 note=45 velocity=80 time=0
note_off channel=1 note=45 velocity=64 time=120
note_on channel=1 note=57 velocity=80 time=0
note_on channel=1 note=52 velocity=80 time=0
note_on channel=1 note=45 velocity=80 time=0
note_off channel=1 note=57 velocity=64 time=240
note_off channel=1 note=52 velocity=64 time=0
note_off channel=1 note=45 velocity=64 time=0
note_on channel=1 note=57 velocity=80 time=0
note_on channel=1 note=52 velocity=80 time=0
note_on channel=1 note=45 velocity=80 time=0
note_off channel=1 note=57 velocity=64 time=240
note_off channel=1 note=52 velocity=64 time=0
note_off channel=1 note=45 velocity=64 time=0
note_on channel=1 note=52 velocity=80 time=0
note_on channel=1 note=47 velocity=80 time=0
note_on channel=1 note=40 velocity=80 time=0
note_off channel=1 note=52 velocity=64 time=240
note_off channel=1 note=47 velocity=64 time=0
note_off channel=1 note=40 velocity=64 time=0
note_on channel=1 note=40 velocity=80 time=0
note_off channel=1 note=40 velocity=64 time=120
note_on channel=1 note=40 velocity=80 time=0
note_off channel=1 note=40 velocity=64 time=120
note_on channel=1 note=52 velocity=80 time=0
note_on channel=1 note=47 velocity=80 time=0
note_on channel=1 note=40 velocity=80 time=0
note_off channel=1 note=52 velocity=64 time=240
note_off channel=1 note=47 velocity=64 time=0
note_off channel=1 note=40 velocity=64 time=0
note_on channel=1 note=52 velocity=80 time=0
note_on channel=1 note=47 velocity=80 time=0
note_on channel=1 note=40 velocity=80 time=0
note_off channel=1 note=52 velocity=64 time=240
note_off channel=1 note=47 velocity=64 time=0
note_off channel=1 note=40 velocity=64 time=0
note_on channel=1 note=54 velocity=80 time=0
note_on channel=1 note=49 velocity=80 time=0
note_on channel=1 note=42 velocity=80 time=0
note_off channel=1 note=54 velocity=64 time=240
note_off channel=1 note=49 velocity=64 time=0
note_off channel=1 note=42 velocity=64 time=0
note_on channel=1 note=42 velocity=80 time=0
note_off channel=1 note=42 velocity=64 time=120
note_on channel=1 note=42 velocity=80 time=0
note_off channel=1 note=42 velocity=64 time=120
note_on channel=1 note=54 velocity=80 time=0
note_on channel=1 note=49 velocity=80 time=0
note_on channel=1 note=42 velocity=80 time=0
note_off channel=1 note=54 velocity=64 time=240
note_off channel=1 note=49 velocity=64 time=0
note_off channel=1 note=42 velocity=64 time=0
note_on channel=1 note=42 velocity=80 time=0
note_off channel=1 note=42 velocity=64 time=120
note_on channel=1 note=42 velocity=80 time=0
note_off channel=1 note=42 velocity=64 time=120
note_on channel=1 note=52 velocity=80 time=0
note_on channel=1 note=47 velocity=80 time=0
note_on channel=1 note=40 velocity=80 time=0
note_off channel=1 note=52 velocity=64 time=240
note_off channel=1 note=47 velocity=64 time=0
note_off channel=1 note=40 velocity=64 time=0
note_on channel=1 note=40 velocity=80 time=0
note_off channel=1 note=40 velocity=64 time=120
note_on channel=1 note=40 velocity=80 time=0
note_off channel=1 note=40 velocity=64 time=120
note_on channel=1 note=52 velocity=80 time=0
note_on channel=1 note=47 velocity=80 time=0
note_on channel=1 note=40 velocity=80 time=0
note_off channel=1 note=52 velocity=64 time=240
note_off channel=1 note=47 velocity=64 time=0
note_off channel=1 note=40 velocity=64 time=0
note_on channel=1 note=40 velocity=80 time=0
note_off channel=1 note=40 velocity=64 time=120
note_on channel=1 note=40 velocity=80 time=0
note_off channel=1 note=40 velocity=64 time=120
note_on channel=1 note=50 velocity=80 time=0
note_on channel=1 note=45 velocity=80 time=0
note_on channel=1 note=38 velocity=80 time=0
note_off channel=1 note=50 velocity=64 time=240
note_off channel=1 note=45 velocity=64 time=0
note_off channel=1 note=38 velocity=64 time=0
note_on channel=1 note=38 velocity=80 time=0
note_off channel=1 note=38 velocity=64 time=120
note_on channel=1 note=38 velocity=80 time=0
note_off channel=1 note=38 velocity=64 time=120
note_on channel=1 note=50 velocity=80 time=0
note_on channel=1 note=45 velocity=80 time=0
note_on channel=1 note=38 velocity=80 time=0
note_off channel=1 note=50 velocity=64 time=240
note_off channel=1 note=45 velocity=64 time=0
note_off channel=1 note=38 velocity=64 time=0
note_on channel=1 note=50 velocity=80 time=0
note_on channel=1 note=45 velocity=80 time=0
note_on channel=1 note=38 velocity=80 time=0
note_off channel=1 note=50 velocity=64 time=240
note_off channel=1 note=45 velocity=64 time=0
note_off channel=1 note=38 velocity=64 time=0
note_on channel=1 note=52 velocity=80 time=0
note_on channel=1 note=47 velocity=80 time=0
note_on channel=1 note=40 velocity=80 time=0
note_off channel=1 note=52 velocity=64 time=240
note_off channel=1 note=47 velocity=64 time=0
note_off channel=1 note=40 velocity=64 time=0
note_on channel=1 note=52 velocity=80 time=0
note_on channel=1 note=47 velocity=80 time=0
note_on channel=1 note=40 velocity=80 time=0
note_off channel=1 note=52 velocity=64 time=240
note_off channel=1 note=47 velocity=64 time=0
note_off channel=1 note=40 velocity=64 time=0
note_on channel=1 note=52 velocity=80 time=0
note_on channel=1 note=47 velocity=80 time=0
note_on channel=1 note=40 velocity=80 time=0
note_off channel=1 note=52 velocity=64 time=240
note_off channel=1 note=47 velocity=64 time=0
note_off channel=1 note=40 velocity=64 time=0
note_on channel=1 note=52 velocity=80 time=0
note_on channel=1 note=47 velocity=80 time=0
note_on channel=1 note=40 velocity=80 time=0
note_off channel=1 note=52 velocity=64 time=240
note_off channel=1 note=47 velocity=64 time=0
note_off channel=1 note=40 velocity=64 time=0
note_on channel=1 note=42 velocity=80 time=0
note_off channel=1 note=42 velocity=64 time=120
note_on channel=1 note=42 velocity=80 time=0
note_off channel=1 note=42 velocity=64 time=120
note_on channel=1 note=42 velocity=80 time=0
note_off channel=1 note=42 velocity=64 time=120
note_on channel=1 note=42 velocity=80 time=0
note_off channel=1 note=42 velocity=64 time=120
note_on channel=1 note=54 velocity=80 time=0
note_on channel=1 note=49 velocity=80 time=0
note_on channel=1 note=42 velocity=80 time=0
note_off channel=1 note=54 velocity=64 time=240
note_off channel=1 note=49 velocity=64 time=0
note_off channel=1 note=42 velocity=64 time=0
note_on channel=1 note=54 velocity=80 time=0
note_on channel=1 note=49 velocity=80 time=0
note_on channel=1 note=42 velocity=80 time=0
note_off channel=1 note=54 velocity=64 time=240
note_off channel=1 note=49 velocity=64 time=0
note_off channel=1 note=42 velocity=64 time=0
note_on channel=1 note=52 velocity=80 time=0
note_on channel=1 note=47 velocity=80 time=0
note_on channel=1 note=40 velocity=80 time=0
note_off channel=1 note=52 velocity=64 time=240
note_off channel=1 note=47 velocity=64 time=0
note_off channel=1 note=40 velocity=64 time=0
note_on channel=1 note=40 velocity=80 time=0
note_off channel=1 note=40 velocity=64 time=120
note_on channel=1 note=40 velocity=80 time=0
note_off channel=1 note=40 velocity=64 time=120
note_on channel=1 note=52 velocity=80 time=0
note_on channel=1 note=47 velocity=80 time=0
note_on channel=1 note=40 velocity=80 time=0
note_off channel=1 note=52 velocity=64 time=240
note_off channel=1 note=47 velocity=64 time=0
note_off channel=1 note=40 velocity=64 time=0
note_on channel=1 note=52 velocity=80 time=0
note_on channel=1 note=47 velocity=80 time=0
note_on channel=1 note=40 velocity=80 time=0
note_off channel=1 note=52 velocity=64 time=240
note_off channel=1 note=47 velocity=64 time=0
note_off channel=1 note=40 velocity=64 time=0
note_on channel=1 note=57 velocity=80 time=0
note_on channel=1 note=52 velocity=80 time=0
note_on channel=1 note=45 velocity=80 time=0
note_off channel=1 note=57 velocity=64 time=240
note_off channel=1 note=52 velocity=64 time=0
note_off channel=1 note=45 velocity=64 time=0
note_on channel=1 note=45 velocity=80 time=0
note_off channel=1 note=45 velocity=64 time=120
note_on channel=1 note=45 velocity=80 time=0
note_off channel=1 note=45 velocity=64 time=120
note_on channel=1 note=57 velocity=80 time=0
note_on channel=1 note=52 velocity=80 time=0
note_on channel=1 note=45 velocity=80 time=0
note_off channel=1 note=57 velocity=64 time=240
note_off channel=1 note=52 velocity=64 time=0
note_off channel=1 note=45 velocity=64 time=0
note_on channel=1 note=57 velocity=80 time=0
note_on channel=1 note=52 velocity=80 time=0
note_on channel=1 note=45 velocity=80 time=0
note_off channel=1 note=57 velocity=64 time=240
note_off channel=1 note=52 velocity=64 time=0
note_off channel=1 note=45 velocity=64 time=0
note_on channel=1 note=52 velocity=80 time=0
note_on channel=1 note=47 velocity=80 time=0
note_on channel=1 note=40 velocity=80 time=0
note_off channel=1 note=52 velocity=64 time=240
note_off channel=1 note=47 velocity=64 time=0
note_off channel=1 note=40 velocity=64 time=0
note_on channel=1 note=40 velocity=80 time=0
note_off channel=1 note=40 velocity=64 time=120
note_on channel=1 note=40 velocity=80 time=0
note_off channel=1 note=40 velocity=64 time=120
note_on channel=1 note=52 velocity=80 time=0
note_on channel=1 note=47 velocity=80 time=0
note_on channel=1 note=40 velocity=80 time=0
note_off channel=1 note=52 velocity=64 time=240
note_off channel=1 note=47 velocity=64 time=0
note_off channel=1 note=40 velocity=64 time=0
note_on channel=1 note=52 velocity=80 time=0
note_on channel=1 note=47 velocity=80 time=0
note_on channel=1 note=40 velocity=80 time=0
note_off channel=1 note=52 velocity=64 time=240
note_off channel=1 note=47 velocity=64 time=0
note_off channel=1 note=40 velocity=64 time=0
note_on channel=1 note=54 velocity=80 time=0
note_on channel=1 note=49 velocity=80 time=0
note_on channel=1 note=42 velocity=80 time=0
note_off channel=1 note=54 velocity=64 time=240
note_off channel=1 note=49 velocity=64 time=0
note_off channel=1 note=42 velocity=64 time=0
note_on channel=1 note=42 velocity=80 time=0
note_off channel=1 note=42 velocity=64 time=120
note_on channel=1 note=42 velocity=80 time=0
note_off channel=1 note=42 velocity=64 time=120
note_on channel=1 note=54 velocity=80 time=0
note_on channel=1 note=49 velocity=80 time=0
note_on channel=1 note=42 velocity=80 time=0
note_off channel=1 note=54 velocity=64 time=240
note_off channel=1 note=49 velocity=64 time=0
note_off channel=1 note=42 velocity=64 time=0
note_on channel=1 note=42 velocity=80 time=0
note_off channel=1 note=42 velocity=64 time=120
note_on channel=1 note=42 velocity=80 time=0
note_off channel=1 note=42 velocity=64 time=120
note_on channel=1 note=52 velocity=80 time=0
note_on channel=1 note=47 velocity=80 time=0
note_on channel=1 note=40 velocity=80 time=0
note_off channel=1 note=52 velocity=64 time=240
note_off channel=1 note=47 velocity=64 time=0
note_off channel=1 note=40 velocity=64 time=0
note_on channel=1 note=40 velocity=80 time=0
note_off channel=1 note=40 velocity=64 time=120
note_on channel=1 note=40 velocity=80 time=0
note_off channel=1 note=40 velocity=64 time=120
note_on channel=1 note=52 velocity=80 time=0
note_on channel=1 note=47 velocity=80 time=0
note_on channel=1 note=40 velocity=80 time=0
note_off channel=1 note=52 velocity=64 time=240
note_off channel=1 note=47 velocity=64 time=0
note_off channel=1 note=40 velocity=64 time=0
note_on channel=1 note=40 velocity=80 time=0
note_off channel=1 note=40 velocity=64 time=120
note_on channel=1 note=40 velocity=80 time=0
note_off channel=1 note=40 velocity=64 time=120
note_on channel=1 note=50 velocity=80 time=0
note_on channel=1 note=45 velocity=80 time=0
note_on channel=1 note=38 velocity=80 time=0
note_off channel=1 note=50 velocity=64 time=240
note_off channel=1 note=45 velocity=64 time=0
note_off channel=1 note=38 velocity=64 time=0
note_on channel=1 note=38 velocity=80 time=0
note_off channel=1 note=38 velocity=64 time=120
note_on channel=1 note=38 velocity=80 time=0
note_off channel=1 note=38 velocity=64 time=120
note_on channel=1 note=50 velocity=80 time=0
note_on channel=1 note=45 velocity=80 time=0
note_on channel=1 note=38 velocity=80 time=0
note_off channel=1 note=50 velocity=64 time=240
note_off channel=1 note=45 velocity=64 time=0
note_off channel=1 note=38 velocity=64 time=0
note_on channel=1 note=50 velocity=80 time=0
note_on channel=1 note=45 velocity=80 time=0
note_on channel=1 note=38 velocity=80 time=0
note_off channel=1 note=50 velocity=64 time=240
note_off channel=1 note=45 velocity=64 time=0
note_off channel=1 note=38 velocity=64 time=0
note_on channel=1 note=52 velocity=80 time=0
note_on channel=1 note=47 velocity=80 time=0
note_on channel=1 note=40 velocity=80 time=0
note_off channel=1 note=52 velocity=64 time=240
note_off channel=1 note=47 velocity=64 time=0
note_off channel=1 note=40 velocity=64 time=0
note_on channel=1 note=52 velocity=80 time=0
note_on channel=1 note=47 velocity=80 time=0
note_on channel=1 note=40 velocity=80 time=0
note_off channel=1 note=52 velocity=64 time=240
note_off channel=1 note=47 velocity=64 time=0
note_off channel=1 note=40 velocity=64 time=0
note_on channel=1 note=52 velocity=80 time=0
note_on channel=1 note=47 velocity=80 time=0
note_on channel=1 note=40 velocity=80 time=0
note_off channel=1 note=52 velocity=64 time=240
note_off channel=1 note=47 velocity=64 time=0
note_off channel=1 note=40 velocity=64 time=0
note_on channel=1 note=52 velocity=80 time=0
note_on channel=1 note=47 velocity=80 time=0
note_on channel=1 note=40 velocity=80 time=0
note_off channel=1 note=52 velocity=64 time=240
note_off channel=1 note=47 velocity=64 time=0
note_off channel=1 note=40 velocity=64 time=0
note_on channel=1 note=54 velocity=80 time=0
note_on channel=1 note=49 velocity=80 time=0
note_on channel=1 note=42 velocity=80 time=0
note_off channel=1 note=54 velocity=64 time=240
note_off channel=1 note=49 velocity=64 time=0
note_off channel=1 note=42 velocity=64 time=0
note_on channel=1 note=42 velocity=80 time=0
note_off channel=1 note=42 velocity=64 time=120
note_on channel=1 note=42 velocity=80 time=0
note_off channel=1 note=42 velocity=64 time=120
note_on channel=1 note=54 velocity=80 time=0
note_on channel=1 note=49 velocity=80 time=0
note_on channel=1 note=42 velocity=80 time=0
note_off channel=1 note=54 velocity=64 time=240
note_off channel=1 note=49 velocity=64 time=0
note_off channel=1 note=42 velocity=64 time=0
note_on channel=1 note=42 velocity=80 time=0
note_off channel=1 note=42 velocity=64 time=120
note_on channel=1 note=42 velocity=80 time=0
note_off channel=1 note=42 velocity=64 time=120
note_on channel=1 note=52 velocity=80 time=0
note_on channel=1 note=47 velocity=80 time=0
note_on channel=1 note=40 velocity=80 time=0
note_off channel=1 note=52 velocity=64 time=240
note_off channel=1 note=47 velocity=64 time=0
note_off channel=1 note=40 velocity=64 time=0
note_on channel=1 note=40 velocity=80 time=0
note_off channel=1 note=40 velocity=64 time=120
note_on channel=1 note=40 velocity=80 time=0
note_off channel=1 note=40 velocity=64 time=120
note_on channel=1 note=52 velocity=80 time=0
note_on channel=1 note=47 velocity=80 time=0
note_on channel=1 note=40 velocity=80 time=0
note_off channel=1 note=52 velocity=64 time=240
note_off channel=1 note=47 velocity=64 time=0
note_off channel=1 note=40 velocity=64 time=0
note_on channel=1 note=52 velocity=80 time=0
note_on channel=1 note=47 velocity=80 time=0
note_on channel=1 note=40 velocity=80 time=0
note_off channel=1 note=52 velocity=64 time=240
note_off channel=1 note=47 velocity=64 time=0
note_off channel=1 note=40 velocity=64 time=0
note_on channel=1 note=50 velocity=80 time=0
note_on channel=1 note=45 velocity=80 time=0
note_on channel=1 note=38 velocity=80 time=0
note_off channel=1 note=50 velocity=64 time=240
note_off channel=1 note=45 velocity=64 time=0
note_off channel=1 note=38 velocity=64 time=0
note_on channel=1 note=38 velocity=80 time=0
note_off channel=1 note=38 velocity=64 time=120
note_on channel=1 note=38 velocity=80 time=0
note_off channel=1 note=38 velocity=64 time=120
note_on channel=1 note=50 velocity=80 time=0
note_on channel=1 note=45 velocity=80 time=0
note_on channel=1 note=38 velocity=80 time=0
note_off channel=1 note=50 velocity=64 time=240
note_off channel=1 note=45 velocity=64 time=0
note_off channel=1 note=38 velocity=64 time=0
note_on channel=1 note=38 velocity=80 time=0
note_off channel=1 note=38 velocity=64 time=120
note_on channel=1 note=38 velocity=80 time=0
note_off channel=1 note=38 velocity=64 time=120
note_on channel=1 note=52 velocity=80 time=0
note_on channel=1 note=47 velocity=80 time=0
note_on channel=1 note=40 velocity=80 time=0
note_off channel=1 note=52 velocity=64 time=240
note_off channel=1 note=47 velocity=64 time=0
note_off channel=1 note=40 velocity=64 time=0
note_on channel=1 note=52 velocity=80 time=0
note_on channel=1 note=47 velocity=80 time=0
note_on channel=1 note=40 velocity=80 time=0
note_off channel=1 note=52 velocity=64 time=240
note_off channel=1 note=47 velocity=64 time=0
note_off channel=1 note=40 velocity=64 time=0
note_on channel=1 note=52 velocity=80 time=0
note_on channel=1 note=47 velocity=80 time=0
note_on channel=1 note=40 velocity=80 time=0
note_off channel=1 note=52 velocity=64 time=240
note_off channel=1 note=47 velocity=64 time=0
note_off channel=1 note=40 velocity=64 time=0
note_on channel=1 note=52 velocity=80 time=0
note_on channel=1 note=47 velocity=80 time=0
note_on channel=1 note=40 velocity=80 time=0
note_off channel=1 note=52 velocity=64 time=240
note_off channel=1 note=47 velocity=64 time=0
note_off channel=1 note=40 velocity=64 time=0
note_on channel=1 note=54 velocity=80 time=0
note_on channel=1 note=49 velocity=80 time=0
note_on channel=1 note=42 velocity=80 time=0
note_off channel=1 note=54 velocity=64 time=240
note_off channel=1 note=49 velocity=64 time=0
note_off channel=1 note=42 velocity=64 time=0
note_on channel=1 note=42 velocity=80 time=0
note_off channel=1 note=42 velocity=64 time=120
note_on channel=1 note=42 velocity=80 time=0
note_off channel=1 note=42 velocity=64 time=120
note_on channel=1 note=54 velocity=80 time=0
note_on channel=1 note=49 velocity=80 time=0
note_on channel=1 note=42 velocity=80 time=0
note_off channel=1 note=54 velocity=64 time=240
note_off channel=1 note=49 velocity=64 time=0
note_off channel=1 note=42 velocity=64 time=0
note_on channel=1 note=42 velocity=80 time=0
note_off channel=1 note=42 velocity=64 time=120
note_on channel=1 note=42 velocity=80 time=0
note_off channel=1 note=42 velocity=64 time=120
note_on channel=1 note=52 velocity=80 time=0
note_on channel=1 note=47 velocity=80 time=0
note_on channel=1 note=40 velocity=80 time=0
note_off channel=1 note=52 velocity=64 time=240
note_off channel=1 note=47 velocity=64 time=0
note_off channel=1 note=40 velocity=64 time=0
note_on channel=1 note=40 velocity=80 time=0
note_off channel=1 note=40 velocity=64 time=120
note_on channel=1 note=40 velocity=80 time=0
note_off channel=1 note=40 velocity=64 time=120
note_on channel=1 note=52 velocity=80 time=0
note_on channel=1 note=47 velocity=80 time=0
note_on channel=1 note=40 velocity=80 time=0
note_off channel=1 note=52 velocity=64 time=240
note_off channel=1 note=47 velocity=64 time=0
note_off channel=1 note=40 velocity=64 time=0
note_on channel=1 note=52 velocity=80 time=0
note_on channel=1 note=47 velocity=80 time=0
note_on channel=1 note=40 velocity=80 time=0
note_off channel=1 note=52 velocity=64 time=240
note_off channel=1 note=47 velocity=64 time=0
note_off channel=1 note=40 velocity=64 time=0
note_on channel=1 note=50 velocity=80 time=0
note_on channel=1 note=45 velocity=80 time=0
note_on channel=1 note=38 velocity=80 time=0
note_off channel=1 note=50 velocity=64 time=240
note_off channel=1 note=45 velocity=64 time=0
note_off channel=1 note=38 velocity=64 time=0
note_on channel=1 note=38 velocity=80 time=0
note_off channel=1 note=38 velocity=64 time=120
note_on channel=1 note=38 velocity=80 time=0
note_off channel=1 note=38 velocity=64 time=120
note_on channel=1 note=50 velocity=80 time=0
note_on channel=1 note=45 velocity=80 time=0
note_on channel=1 note=38 velocity=80 time=0
note_off channel=1 note=50 velocity=64 time=240
note_off channel=1 note=45 velocity=64 time=0
note_off channel=1 note=38 velocity=64 time=0
note_on channel=1 note=38 velocity=80 time=0
note_off channel=1 note=38 velocity=64 time=120
note_on channel=1 note=38 velocity=80 time=0
note_off channel=1 note=38 velocity=64 time=120
note_on channel=1 note=52 velocity=80 time=0
note_on channel=1 note=47 velocity=80 time=0
note_on channel=1 note=40 velocity=80 time=0
note_off channel=1 note=52 velocity=64 time=240
note_off channel=1 note=47 velocity=64 time=0
note_off channel=1 note=40 velocity=64 time=0
note_on channel=1 note=52 velocity=80 time=0
note_on channel=1 note=47 velocity=80 time=0
note_on channel=1 note=40 velocity=80 time=0
note_off channel=1 note=52 velocity=64 time=240
note_off channel=1 note=47 velocity=64 time=0
note_off channel=1 note=40 velocity=64 time=0
note_on channel=1 note=52 velocity=80 time=0
note_on channel=1 note=47 velocity=80 time=0
note_on channel=1 note=40 velocity=80 time=0
note_off channel=1 note=52 velocity=64 time=240
note_off channel=1 note=47 velocity=64 time=0
note_off channel=1 note=40 velocity=64 time=0
note_on channel=1 note=52 velocity=80 time=0
note_on channel=1 note=47 velocity=80 time=0
note_on channel=1 note=40 velocity=80 time=0
note_off channel=1 note=52 velocity=64 time=240
note_off channel=1 note=47 velocity=64 time=0
note_off channel=1 note=40 velocity=64 time=0
note_on channel=1 note=42 velocity=80 time=0
note_off channel=1 note=42 velocity=64 time=120
note_on channel=1 note=42 velocity=80 time=0
note_off channel=1 note=42 velocity=64 time=120
note_on channel=1 note=42 velocity=80 time=0
note_off channel=1 note=42 velocity=64 time=120
note_on channel=1 note=42 velocity=80 time=0
note_off channel=1 note=42 velocity=64 time=120
note_on channel=1 note=54 velocity=80 time=0
note_on channel=1 note=49 velocity=80 time=0
note_on channel=1 note=42 velocity=80 time=0
note_off channel=1 note=54 velocity=64 time=240
note_off channel=1 note=49 velocity=64 time=0
note_off channel=1 note=42 velocity=64 time=0
note_on channel=1 note=54 velocity=80 time=0
note_on channel=1 note=49 velocity=80 time=0
note_on channel=1 note=42 velocity=80 time=0
note_off channel=1 note=54 velocity=64 time=240
note_off channel=1 note=49 velocity=64 time=0
note_off channel=1 note=42 velocity=64 time=0
note_on channel=1 note=52 velocity=80 time=0
note_on channel=1 note=47 velocity=80 time=0
note_on channel=1 note=40 velocity=80 time=0
note_off channel=1 note=52 velocity=64 time=240
note_off channel=1 note=47 velocity=64 time=0
note_off channel=1 note=40 velocity=64 time=0
note_on channel=1 note=40 velocity=80 time=0
note_off channel=1 note=40 velocity=64 time=120
note_on channel=1 note=40 velocity=80 time=0
note_off channel=1 note=40 velocity=64 time=120
note_on channel=1 note=52 velocity=80 time=0
note_on channel=1 note=47 velocity=80 time=0
note_on channel=1 note=40 velocity=80 time=0
note_off channel=1 note=52 velocity=64 time=240
note_off channel=1 note=47 velocity=64 time=0
note_off channel=1 note=40 velocity=64 time=0
note_on channel=1 note=52 velocity=80 time=0
note_on channel=1 note=47 velocity=80 time=0
note_on channel=1 note=40 velocity=80 time=0
note_off channel=1 note=52 velocity=64 time=240
note_off channel=1 note=47 velocity=64 time=0
note_off channel=1 note=40 velocity=64 time=0
note_on channel=1 note=50 velocity=80 time=0
note_on channel=1 note=45 velocity=80 time=0
note_on channel=1 note=38 velocity=80 time=0
note_off channel=1 note=50 velocity=64 time=240
note_off channel=1 note=45 velocity=64 time=0
note_off channel=1 note=38 velocity=64 time=0
note_on channel=1 note=38 velocity=80 time=0
note_off channel=1 note=38 velocity=64 time=120
note_on channel=1 note=38 velocity=80 time=0
note_off channel=1 note=38 velocity=64 time=120
note_on channel=1 note=50 velocity=80 time=0
note_on channel=1 note=45 velocity=80 time=0
note_on channel=1 note=38 velocity=80 time=0
note_off channel=1 note=50 velocity=64 time=240
note_off channel=1 note=45 velocity=64 time=0
note_off channel=1 note=38 velocity=64 time=0
note_on channel=1 note=38 velocity=80 time=0
note_off channel=1 note=38 velocity=64 time=120
note_on channel=1 note=38 velocity=80 time=0
note_off channel=1 note=38 velocity=64 time=120
note_on channel=1 note=52 velocity=80 time=0
note_on channel=1 note=47 velocity=80 time=0
note_on channel=1 note=40 velocity=80 time=0
note_off channel=1 note=52 velocity=64 time=240
note_off channel=1 note=47 velocity=64 time=0
note_off channel=1 note=40 velocity=64 time=0
note_on channel=1 note=52 velocity=80 time=0
note_on channel=1 note=47 velocity=80 time=0
note_on channel=1 note=40 velocity=80 time=0
note_off channel=1 note=52 velocity=64 time=240
note_off channel=1 note=47 velocity=64 time=0
note_off channel=1 note=40 velocity=64 time=0
note_on channel=1 note=52 velocity=80 time=0
note_on channel=1 note=47 velocity=80 time=0
note_on channel=1 note=40 velocity=80 time=0
note_off channel=1 note=52 velocity=64 time=240
note_off channel=1 note=47 velocity=64 time=0
note_off channel=1 note=40 velocity=64 time=0
note_on channel=1 note=52 velocity=80 time=0
note_on channel=1 note=47 velocity=80 time=0
note_on channel=1 note=40 velocity=80 time=0
note_off channel=1 note=52 velocity=64 time=240
note_off channel=1 note=47 velocity=64 time=0
note_off channel=1 note=40 velocity=64 time=0
note_on channel=1 note=54 velocity=80 time=0
note_on channel=1 note=49 velocity=80 time=0
note_on channel=1 note=42 velocity=80 time=0
note_off channel=1 note=54 velocity=64 time=240
note_off channel=1 note=49 velocity=64 time=0
note_off channel=1 note=42 velocity=64 time=0
note_on channel=1 note=42 velocity=80 time=0
note_off channel=1 note=42 velocity=64 time=120
note_on channel=1 note=42 velocity=80 time=0
note_off channel=1 note=42 velocity=64 time=120
note_on channel=1 note=54 velocity=80 time=0
note_on channel=1 note=49 velocity=80 time=0
note_on channel=1 note=42 velocity=80 time=0
note_off channel=1 note=54 velocity=64 time=240
note_off channel=1 note=49 velocity=64 time=0
note_off channel=1 note=42 velocity=64 time=0
note_on channel=1 note=42 velocity=80 time=0
note_off channel=1 note=42 velocity=64 time=120
note_on channel=1 note=42 velocity=80 time=0
note_off channel=1 note=42 velocity=64 time=120
note_on channel=1 note=52 velocity=80 time=0
note_on channel=1 note=47 velocity=80 time=0
note_on channel=1 note=40 velocity=80 time=0
note_off channel=1 note=52 velocity=64 time=240
note_off channel=1 note=47 velocity=64 time=0
note_off channel=1 note=40 velocity=64 time=0
note_on channel=1 note=40 velocity=80 time=0
note_off channel=1 note=40 velocity=64 time=120
note_on channel=1 note=40 velocity=80 time=0
note_off channel=1 note=40 velocity=64 time=120
note_on channel=1 note=52 velocity=80 time=0
note_on channel=1 note=47 velocity=80 time=0
note_on channel=1 note=40 velocity=80 time=0
note_off channel=1 note=52 velocity=64 time=240
note_off channel=1 note=47 velocity=64 time=0
note_off channel=1 note=40 velocity=64 time=0
note_on channel=1 note=40 velocity=80 time=0
note_off channel=1 note=40 velocity=64 time=120
note_on channel=1 note=40 velocity=80 time=0
note_off channel=1 note=40 velocity=64 time=120
note_on channel=1 note=50 velocity=80 time=0
note_on channel=1 note=45 velocity=80 time=0
note_on channel=1 note=38 velocity=80 time=0
note_off channel=1 note=50 velocity=64 time=240
note_off channel=1 note=45 velocity=64 time=0
note_off channel=1 note=38 velocity=64 time=0
note_on channel=1 note=38 velocity=80 time=0
note_off channel=1 note=38 velocity=64 time=120
note_on channel=1 note=38 velocity=80 time=0
note_off channel=1 note=38 velocity=64 time=120
note_on channel=1 note=50 velocity=80 time=0
note_on channel=1 note=45 velocity=80 time=0
note_on channel=1 note=38 velocity=80 time=0
note_off channel=1 note=50 velocity=64 time=240
note_off channel=1 note=45 velocity=64 time=0
note_off channel=1 note=38 velocity=64 time=0
note_on channel=1 note=50 velocity=80 time=0
note_on channel=1 note=45 velocity=80 time=0
note_on channel=1 note=38 velocity=80 time=0
note_off channel=1 note=50 velocity=64 time=240
note_off channel=1 note=45 velocity=64 time=0
note_off channel=1 note=38 velocity=64 time=0
note_on channel=1 note=52 velocity=80 time=0
note_on channel=1 note=47 velocity=80 time=0
note_on channel=1 note=40 velocity=80 time=0
note_off channel=1 note=52 velocity=64 time=240
note_off channel=1 note=47 velocity=64 time=0
note_off channel=1 note=40 velocity=64 time=0
note_on channel=1 note=52 velocity=80 time=0
note_on channel=1 note=47 velocity=80 time=0
note_on channel=1 note=40 velocity=80 time=0
note_off channel=1 note=52 velocity=64 time=240
note_off channel=1 note=47 velocity=64 time=0
note_off channel=1 note=40 velocity=64 time=0
note_on channel=1 note=52 velocity=80 time=0
note_on channel=1 note=47 velocity=80 time=0
note_on channel=1 note=40 velocity=80 time=0
note_off channel=1 note=52 velocity=64 time=240
note_off channel=1 note=47 velocity=64 time=0
note_off channel=1 note=40 velocity=64 time=0
note_on channel=1 note=52 velocity=80 time=0
note_on channel=1 note=47 velocity=80 time=0
note_on channel=1 note=40 velocity=80 time=0
note_off channel=1 note=52 velocity=64 time=240
note_off channel=1 note=47 velocity=64 time=0
note_off channel=1 note=40 velocity=64 time=0
note_on channel=1 note=54 velocity=80 time=0
note_on channel=1 note=49 velocity=80 time=0
note_on channel=1 note=42 velocity=80 time=0
note_off channel=1 note=54 velocity=64 time=1920
note_off channel=1 note=49 velocity=64 time=0
note_off channel=1 note=42 velocity=64 time=0
MetaMessage('end_of_track', time=0)
MetaMessage('track_name', name='A\x83A3A¤A°A®A\xad', time=0)
program_change channel=11 program=33 time=0
note_on channel=11 note=30 velocity=80 time=0
note_off channel=11 note=30 velocity=64 time=240
note_on channel=11 note=30 velocity=80 time=0
note_off channel=11 note=30 velocity=64 time=240
note_on channel=11 note=30 velocity=80 time=240
note_off channel=11 note=30 velocity=64 time=240
note_on channel=11 note=30 velocity=80 time=0
note_off channel=11 note=30 velocity=64 time=240
note_on channel=11 note=30 velocity=80 time=240
note_off channel=11 note=30 velocity=64 time=240
note_on channel=11 note=26 velocity=80 time=0
note_off channel=11 note=26 velocity=64 time=240
note_on channel=11 note=26 velocity=80 time=240
note_off channel=11 note=26 velocity=64 time=240
note_on channel=11 note=26 velocity=80 time=0
note_off channel=11 note=26 velocity=64 time=240
note_on channel=11 note=28 velocity=80 time=240
note_off channel=11 note=28 velocity=64 time=240
note_on channel=11 note=28 velocity=80 time=0
note_off channel=11 note=28 velocity=64 time=120
note_on channel=11 note=28 velocity=80 time=0
note_off channel=11 note=28 velocity=64 time=120
note_on channel=11 note=28 velocity=80 time=0
note_off channel=11 note=28 velocity=64 time=240
note_on channel=11 note=28 velocity=80 time=0
note_off channel=11 note=28 velocity=64 time=240
note_on channel=11 note=30 velocity=80 time=0
note_off channel=11 note=30 velocity=64 time=240
note_on channel=11 note=30 velocity=80 time=0
note_off channel=11 note=30 velocity=64 time=240
note_on channel=11 note=30 velocity=80 time=240
note_off channel=11 note=30 velocity=64 time=240
note_on channel=11 note=30 velocity=80 time=0
note_off channel=11 note=30 velocity=64 time=240
note_on channel=11 note=30 velocity=80 time=240
note_off channel=11 note=30 velocity=64 time=240
note_on channel=11 note=26 velocity=80 time=0
note_off channel=11 note=26 velocity=64 time=240
note_on channel=11 note=26 velocity=80 time=240
note_off channel=11 note=26 velocity=64 time=240
note_on channel=11 note=26 velocity=80 time=0
note_off channel=11 note=26 velocity=64 time=240
note_on channel=11 note=28 velocity=80 time=240
note_off channel=11 note=28 velocity=64 time=240
note_on channel=11 note=28 velocity=80 time=0
note_off channel=11 note=28 velocity=64 time=120
note_on channel=11 note=28 velocity=80 time=0
note_off channel=11 note=28 velocity=64 time=120
note_on channel=11 note=28 velocity=80 time=0
note_off channel=11 note=28 velocity=64 time=240
note_on channel=11 note=28 velocity=80 time=0
note_off channel=11 note=28 velocity=64 time=240
note_on channel=11 note=30 velocity=80 time=0
note_off channel=11 note=30 velocity=64 time=240
note_on channel=11 note=30 velocity=80 time=0
note_off channel=11 note=30 velocity=64 time=240
note_on channel=11 note=30 velocity=80 time=240
note_off channel=11 note=30 velocity=64 time=240
note_on channel=11 note=30 velocity=80 time=0
note_off channel=11 note=30 velocity=64 time=240
note_on channel=11 note=30 velocity=80 time=240
note_off channel=11 note=30 velocity=64 time=240
note_on channel=11 note=26 velocity=80 time=0
note_off channel=11 note=26 velocity=64 time=240
note_on channel=11 note=26 velocity=80 time=240
note_off channel=11 note=26 velocity=64 time=240
note_on channel=11 note=26 velocity=80 time=0
note_off channel=11 note=26 velocity=64 time=240
note_on channel=11 note=28 velocity=80 time=240
note_off channel=11 note=28 velocity=64 time=240
note_on channel=11 note=28 velocity=80 time=0
note_off channel=11 note=28 velocity=64 time=120
note_on channel=11 note=28 velocity=80 time=0
note_off channel=11 note=28 velocity=64 time=120
note_on channel=11 note=28 velocity=80 time=0
note_off channel=11 note=28 velocity=64 time=240
note_on channel=11 note=28 velocity=80 time=0
note_off channel=11 note=28 velocity=64 time=240
note_on channel=11 note=30 velocity=80 time=0
note_off channel=11 note=30 velocity=64 time=240
note_on channel=11 note=30 velocity=80 time=0
note_off channel=11 note=30 velocity=64 time=240
note_on channel=11 note=30 velocity=80 time=240
note_off channel=11 note=30 velocity=64 time=240
note_on channel=11 note=30 velocity=80 time=0
note_off channel=11 note=30 velocity=64 time=240
note_on channel=11 note=30 velocity=80 time=240
note_off channel=11 note=30 velocity=64 time=240
note_on channel=11 note=26 velocity=80 time=0
note_off channel=11 note=26 velocity=64 time=240
note_on channel=11 note=26 velocity=80 time=240
note_off channel=11 note=26 velocity=64 time=240
note_on channel=11 note=26 velocity=80 time=0
note_off channel=11 note=26 velocity=64 time=240
note_on channel=11 note=28 velocity=80 time=240
note_off channel=11 note=28 velocity=64 time=240
note_on channel=11 note=28 velocity=80 time=0
note_off channel=11 note=28 velocity=64 time=120
note_on channel=11 note=28 velocity=80 time=0
note_off channel=11 note=28 velocity=64 time=120
note_on channel=11 note=28 velocity=80 time=0
note_off channel=11 note=28 velocity=64 time=240
note_on channel=11 note=28 velocity=80 time=0
note_off channel=11 note=28 velocity=64 time=240
note_on channel=11 note=30 velocity=80 time=0
note_off channel=11 note=30 velocity=64 time=120
note_on channel=11 note=30 velocity=80 time=0
note_off channel=11 note=30 velocity=64 time=120
note_on channel=11 note=30 velocity=80 time=0
note_off channel=11 note=30 velocity=64 time=120
note_on channel=11 note=30 velocity=80 time=0
note_off channel=11 note=30 velocity=64 time=120
note_on channel=11 note=30 velocity=80 time=0
note_off channel=11 note=30 velocity=64 time=240
note_on channel=11 note=30 velocity=80 time=0
note_off channel=11 note=30 velocity=64 time=240
note_on channel=11 note=33 velocity=80 time=0
note_off channel=11 note=33 velocity=64 time=240
note_on channel=11 note=32 velocity=80 time=0
note_off channel=11 note=32 velocity=64 time=240
note_on channel=11 note=33 velocity=80 time=0
note_off channel=11 note=33 velocity=64 time=240
note_on channel=11 note=32 velocity=80 time=0
note_off channel=11 note=32 velocity=64 time=240
note_on channel=11 note=30 velocity=80 time=0
note_off channel=11 note=30 velocity=64 time=120
note_on channel=11 note=30 velocity=80 time=0
note_off channel=11 note=30 velocity=64 time=120
note_on channel=11 note=30 velocity=80 time=0
note_off channel=11 note=30 velocity=64 time=120
note_on channel=11 note=30 velocity=80 time=0
note_off channel=11 note=30 velocity=64 time=120
note_on channel=11 note=30 velocity=80 time=0
note_off channel=11 note=30 velocity=64 time=240
note_on channel=11 note=30 velocity=80 time=0
note_off channel=11 note=30 velocity=64 time=240
note_on channel=11 note=33 velocity=80 time=0
note_off channel=11 note=33 velocity=64 time=240
note_on channel=11 note=32 velocity=80 time=0
note_off channel=11 note=32 velocity=64 time=240
note_on channel=11 note=33 velocity=80 time=0
note_off channel=11 note=33 velocity=64 time=240
note_on channel=11 note=32 velocity=80 time=0
note_off channel=11 note=32 velocity=64 time=240
note_on channel=11 note=26 velocity=80 time=0
note_off channel=11 note=26 velocity=64 time=240
note_on channel=11 note=26 velocity=80 time=0
note_off channel=11 note=26 velocity=64 time=240
note_on channel=11 note=26 velocity=80 time=240
note_off channel=11 note=26 velocity=64 time=240
note_on channel=11 note=28 velocity=80 time=0
note_off channel=11 note=28 velocity=64 time=240
note_on channel=11 note=28 velocity=80 time=240
note_off channel=11 note=28 velocity=64 time=240
note_on channel=11 note=28 velocity=80 time=0
note_off channel=11 note=28 velocity=64 time=240
note_on channel=11 note=33 velocity=80 time=0
note_off channel=11 note=33 velocity=64 time=240
note_on channel=11 note=33 velocity=80 time=0
note_off channel=11 note=33 velocity=64 time=240
note_on channel=11 note=33 velocity=80 time=0
note_off channel=11 note=33 velocity=64 time=240
note_on channel=11 note=33 velocity=80 time=0
note_off channel=11 note=33 velocity=64 time=240
note_on channel=11 note=28 velocity=80 time=0
note_off channel=11 note=28 velocity=64 time=240
note_on channel=11 note=28 velocity=80 time=0
note_off channel=11 note=28 velocity=64 time=240
note_on channel=11 note=28 velocity=80 time=0
note_off channel=11 note=28 velocity=64 time=240
note_on channel=11 note=28 velocity=80 time=0
note_off channel=11 note=28 velocity=64 time=240
note_on channel=11 note=30 velocity=80 time=0
note_off channel=11 note=30 velocity=64 time=120
note_on channel=11 note=30 velocity=80 time=0
note_off channel=11 note=30 velocity=64 time=120
note_on channel=11 note=30 velocity=80 time=0
note_off channel=11 note=30 velocity=64 time=120
note_on channel=11 note=30 velocity=80 time=0
note_off channel=11 note=30 velocity=64 time=120
note_on channel=11 note=30 velocity=80 time=0
note_off channel=11 note=30 velocity=64 time=240
note_on channel=11 note=30 velocity=80 time=0
note_off channel=11 note=30 velocity=64 time=240
note_on channel=11 note=33 velocity=80 time=0
note_off channel=11 note=33 velocity=64 time=240
note_on channel=11 note=32 velocity=80 time=0
note_off channel=11 note=32 velocity=64 time=240
note_on channel=11 note=33 velocity=80 time=0
note_off channel=11 note=33 velocity=64 time=240
note_on channel=11 note=32 velocity=80 time=0
note_off channel=11 note=32 velocity=64 time=240
note_on channel=11 note=30 velocity=80 time=0
note_off channel=11 note=30 velocity=64 time=120
note_on channel=11 note=30 velocity=80 time=0
note_off channel=11 note=30 velocity=64 time=120
note_on channel=11 note=30 velocity=80 time=0
note_off channel=11 note=30 velocity=64 time=120
note_on channel=11 note=30 velocity=80 time=0
note_off channel=11 note=30 velocity=64 time=120
note_on channel=11 note=30 velocity=80 time=0
note_off channel=11 note=30 velocity=64 time=240
note_on channel=11 note=30 velocity=80 time=0
note_off channel=11 note=30 velocity=64 time=240
note_on channel=11 note=33 velocity=80 time=0
note_off channel=11 note=33 velocity=64 time=240
note_on channel=11 note=32 velocity=80 time=0
note_off channel=11 note=32 velocity=64 time=240
note_on channel=11 note=33 velocity=80 time=0
note_off channel=11 note=33 velocity=64 time=240
note_on channel=11 note=32 velocity=80 time=0
note_off channel=11 note=32 velocity=64 time=240
note_on channel=11 note=26 velocity=80 time=0
note_off channel=11 note=26 velocity=64 time=240
note_on channel=11 note=26 velocity=80 time=0
note_off channel=11 note=26 velocity=64 time=240
note_on channel=11 note=26 velocity=80 time=240
note_off channel=11 note=26 velocity=64 time=240
note_on channel=11 note=28 velocity=80 time=0
note_off channel=11 note=28 velocity=64 time=240
note_on channel=11 note=28 velocity=80 time=240
note_off channel=11 note=28 velocity=64 time=240
note_on channel=11 note=28 velocity=80 time=0
note_off channel=11 note=28 velocity=64 time=240
note_on channel=11 note=33 velocity=80 time=0
note_off channel=11 note=33 velocity=64 time=240
note_on channel=11 note=33 velocity=80 time=0
note_off channel=11 note=33 velocity=64 time=240
note_on channel=11 note=33 velocity=80 time=0
note_off channel=11 note=33 velocity=64 time=240
note_on channel=11 note=33 velocity=80 time=0
note_off channel=11 note=33 velocity=64 time=240
note_on channel=11 note=28 velocity=80 time=0
note_off channel=11 note=28 velocity=64 time=240
note_on channel=11 note=28 velocity=80 time=0
note_off channel=11 note=28 velocity=64 time=240
note_on channel=11 note=28 velocity=80 time=0
note_off channel=11 note=28 velocity=64 time=240
note_on channel=11 note=28 velocity=80 time=0
note_off channel=11 note=28 velocity=64 time=240
note_on channel=11 note=30 velocity=80 time=0
note_off channel=11 note=30 velocity=64 time=240
note_on channel=11 note=30 velocity=80 time=0
note_off channel=11 note=30 velocity=64 time=240
note_on channel=11 note=30 velocity=80 time=0
note_off channel=11 note=30 velocity=64 time=240
note_on channel=11 note=30 velocity=80 time=0
note_off channel=11 note=30 velocity=64 time=240
note_on channel=11 note=30 velocity=80 time=0
note_off channel=11 note=30 velocity=64 time=240
note_on channel=11 note=30 velocity=80 time=0
note_off channel=11 note=30 velocity=64 time=240
note_on channel=11 note=30 velocity=80 time=0
note_off channel=11 note=30 velocity=64 time=240
note_on channel=11 note=30 velocity=80 time=0
note_off channel=11 note=30 velocity=64 time=240
note_on channel=11 note=30 velocity=80 time=0
note_off channel=11 note=30 velocity=64 time=240
note_on channel=11 note=30 velocity=80 time=0
note_off channel=11 note=30 velocity=64 time=240
note_on channel=11 note=30 velocity=80 time=0
note_off channel=11 note=30 velocity=64 time=240
note_on channel=11 note=30 velocity=80 time=0
note_off channel=11 note=30 velocity=64 time=240
note_on channel=11 note=30 velocity=80 time=0
note_off channel=11 note=30 velocity=64 time=240
note_on channel=11 note=30 velocity=80 time=0
note_off channel=11 note=30 velocity=64 time=240
note_on channel=11 note=30 velocity=80 time=0
note_off channel=11 note=30 velocity=64 time=240
note_on channel=11 note=30 velocity=80 time=0
note_off channel=11 note=30 velocity=64 time=240
note_on channel=11 note=26 velocity=80 time=0
note_off channel=11 note=26 velocity=64 time=240
note_on channel=11 note=26 velocity=80 time=0
note_off channel=11 note=26 velocity=64 time=120
note_on channel=11 note=26 velocity=80 time=0
note_off channel=11 note=26 velocity=64 time=120
note_on channel=11 note=26 velocity=80 time=0
note_off channel=11 note=26 velocity=64 time=240
note_on channel=11 note=28 velocity=80 time=240
note_off channel=11 note=28 velocity=64 time=240
note_on channel=11 note=28 velocity=80 time=240
note_off channel=11 note=28 velocity=64 time=240
note_on channel=11 note=28 velocity=80 time=0
note_off channel=11 note=28 velocity=64 time=240
note_on channel=11 note=33 velocity=80 time=0
note_off channel=11 note=33 velocity=64 time=240
note_on channel=11 note=33 velocity=80 time=0
note_off channel=11 note=33 velocity=64 time=240
note_on channel=11 note=33 velocity=80 time=0
note_off channel=11 note=33 velocity=64 time=240
note_on channel=11 note=33 velocity=80 time=0
note_off channel=11 note=33 velocity=64 time=240
note_on channel=11 note=28 velocity=80 time=0
note_off channel=11 note=28 velocity=64 time=240
note_on channel=11 note=28 velocity=80 time=0
note_off channel=11 note=28 velocity=64 time=240
note_on channel=11 note=28 velocity=80 time=0
note_off channel=11 note=28 velocity=64 time=240
note_on channel=11 note=28 velocity=80 time=0
note_off channel=11 note=28 velocity=64 time=240
note_on channel=11 note=30 velocity=80 time=0
note_off channel=11 note=30 velocity=64 time=240
note_on channel=11 note=30 velocity=80 time=0
note_off channel=11 note=30 velocity=64 time=240
note_on channel=11 note=30 velocity=80 time=0
note_off channel=11 note=30 velocity=64 time=240
note_on channel=11 note=30 velocity=80 time=0
note_off channel=11 note=30 velocity=64 time=240
note_on channel=11 note=30 velocity=80 time=0
note_off channel=11 note=30 velocity=64 time=240
note_on channel=11 note=30 velocity=80 time=0
note_off channel=11 note=30 velocity=64 time=240
note_on channel=11 note=30 velocity=80 time=0
note_off channel=11 note=30 velocity=64 time=240
note_on channel=11 note=30 velocity=80 time=0
note_off channel=11 note=30 velocity=64 time=240
note_on channel=11 note=30 velocity=80 time=0
note_off channel=11 note=30 velocity=64 time=240
note_on channel=11 note=30 velocity=80 time=0
note_off channel=11 note=30 velocity=64 time=240
note_on channel=11 note=30 velocity=80 time=0
note_off channel=11 note=30 velocity=64 time=240
note_on channel=11 note=30 velocity=80 time=0
note_off channel=11 note=30 velocity=64 time=240
note_on channel=11 note=30 velocity=80 time=0
note_off channel=11 note=30 velocity=64 time=240
note_on channel=11 note=30 velocity=80 time=0
note_off channel=11 note=30 velocity=64 time=240
note_on channel=11 note=30 velocity=80 time=0
note_off channel=11 note=30 velocity=64 time=240
note_on channel=11 note=30 velocity=80 time=0
note_off channel=11 note=30 velocity=64 time=240
note_on channel=11 note=26 velocity=80 time=0
note_off channel=11 note=26 velocity=64 time=240
note_on channel=11 note=26 velocity=80 time=0
note_off channel=11 note=26 velocity=64 time=120
note_on channel=11 note=26 velocity=80 time=0
note_off channel=11 note=26 velocity=64 time=120
note_on channel=11 note=26 velocity=80 time=0
note_off channel=11 note=26 velocity=64 time=240
note_on channel=11 note=28 velocity=80 time=240
note_off channel=11 note=28 velocity=64 time=240
note_on channel=11 note=28 velocity=80 time=240
note_off channel=11 note=28 velocity=64 time=240
note_on channel=11 note=28 velocity=80 time=0
note_off channel=11 note=28 velocity=64 time=240
note_on channel=11 note=33 velocity=80 time=0
note_off channel=11 note=33 velocity=64 time=240
note_on channel=11 note=33 velocity=80 time=0
note_off channel=11 note=33 velocity=64 time=240
note_on channel=11 note=33 velocity=80 time=0
note_off channel=11 note=33 velocity=64 time=240
note_on channel=11 note=33 velocity=80 time=0
note_off channel=11 note=33 velocity=64 time=240
note_on channel=11 note=28 velocity=80 time=0
note_off channel=11 note=28 velocity=64 time=240
note_on channel=11 note=28 velocity=80 time=0
note_off channel=11 note=28 velocity=64 time=240
note_on channel=11 note=28 velocity=80 time=0
note_off channel=11 note=28 velocity=64 time=240
note_on channel=11 note=28 velocity=80 time=0
note_off channel=11 note=28 velocity=64 time=240
note_on channel=11 note=30 velocity=80 time=0
note_off channel=11 note=30 velocity=64 time=120
note_on channel=11 note=30 velocity=80 time=0
note_off channel=11 note=30 velocity=64 time=120
note_on channel=11 note=30 velocity=80 time=0
note_off channel=11 note=30 velocity=64 time=120
note_on channel=11 note=30 velocity=80 time=0
note_off channel=11 note=30 velocity=64 time=120
note_on channel=11 note=30 velocity=80 time=0
note_off channel=11 note=30 velocity=64 time=240
note_on channel=11 note=30 velocity=80 time=0
note_off channel=11 note=30 velocity=64 time=240
note_on channel=11 note=28 velocity=80 time=0
note_off channel=11 note=28 velocity=64 time=240
note_on channel=11 note=28 velocity=80 time=0
note_off channel=11 note=28 velocity=64 time=120
note_on channel=11 note=28 velocity=80 time=0
note_off channel=11 note=28 velocity=64 time=120
note_on channel=11 note=28 velocity=80 time=0
note_off channel=11 note=28 velocity=64 time=240
note_on channel=11 note=28 velocity=80 time=0
note_off channel=11 note=28 velocity=64 time=240
note_on channel=11 note=33 velocity=80 time=0
note_off channel=11 note=33 velocity=64 time=240
note_on channel=11 note=33 velocity=80 time=0
note_off channel=11 note=33 velocity=64 time=120
note_on channel=11 note=33 velocity=80 time=0
note_off channel=11 note=33 velocity=64 time=120
note_on channel=11 note=33 velocity=80 time=0
note_off channel=11 note=33 velocity=64 time=240
note_on channel=11 note=33 velocity=80 time=0
note_off channel=11 note=33 velocity=64 time=240
note_on channel=11 note=28 velocity=80 time=0
note_off channel=11 note=28 velocity=64 time=240
note_on channel=11 note=28 velocity=80 time=0
note_off channel=11 note=28 velocity=64 time=120
note_on channel=11 note=28 velocity=80 time=0
note_off channel=11 note=28 velocity=64 time=120
note_on channel=11 note=28 velocity=80 time=0
note_off channel=11 note=28 velocity=64 time=240
note_on channel=11 note=28 velocity=80 time=0
note_off channel=11 note=28 velocity=64 time=240
note_on channel=11 note=30 velocity=80 time=0
note_off channel=11 note=30 velocity=64 time=240
note_on channel=11 note=30 velocity=80 time=0
note_off channel=11 note=30 velocity=64 time=120
note_on channel=11 note=30 velocity=80 time=0
note_off channel=11 note=30 velocity=64 time=120
note_on channel=11 note=30 velocity=80 time=0
note_off channel=11 note=30 velocity=64 time=240
note_on channel=11 note=30 velocity=80 time=0
note_off channel=11 note=30 velocity=64 time=120
note_on channel=11 note=30 velocity=80 time=0
note_off channel=11 note=30 velocity=64 time=120
note_on channel=11 note=28 velocity=80 time=0
note_off channel=11 note=28 velocity=64 time=240
note_on channel=11 note=28 velocity=80 time=0
note_off channel=11 note=28 velocity=64 time=120
note_on channel=11 note=28 velocity=80 time=0
note_off channel=11 note=28 velocity=64 time=120
note_on channel=11 note=28 velocity=80 time=0
note_off channel=11 note=28 velocity=64 time=240
note_on channel=11 note=28 velocity=80 time=0
note_off channel=11 note=28 velocity=64 time=120
note_on channel=11 note=28 velocity=80 time=0
note_off channel=11 note=28 velocity=64 time=120
note_on channel=11 note=26 velocity=80 time=0
note_off channel=11 note=26 velocity=64 time=240
note_on channel=11 note=26 velocity=80 time=0
note_off channel=11 note=26 velocity=64 time=120
note_on channel=11 note=26 velocity=80 time=0
note_off channel=11 note=26 velocity=64 time=120
note_on channel=11 note=26 velocity=80 time=0
note_off channel=11 note=26 velocity=64 time=240
note_on channel=11 note=26 velocity=80 time=0
note_off channel=11 note=26 velocity=64 time=240
note_on channel=11 note=28 velocity=80 time=0
note_off channel=11 note=28 velocity=64 time=240
note_on channel=11 note=28 velocity=80 time=0
note_off channel=11 note=28 velocity=64 time=240
note_on channel=11 note=28 velocity=80 time=0
note_off channel=11 note=28 velocity=64 time=240
note_on channel=11 note=28 velocity=80 time=0
note_off channel=11 note=28 velocity=64 time=240
note_on channel=11 note=30 velocity=80 time=0
note_off channel=11 note=30 velocity=64 time=120
note_on channel=11 note=30 velocity=80 time=0
note_off channel=11 note=30 velocity=64 time=120
note_on channel=11 note=30 velocity=80 time=0
note_off channel=11 note=30 velocity=64 time=120
note_on channel=11 note=30 velocity=80 time=0
note_off channel=11 note=30 velocity=64 time=120
note_on channel=11 note=30 velocity=80 time=0
note_off channel=11 note=30 velocity=64 time=240
note_on channel=11 note=30 velocity=80 time=0
note_off channel=11 note=30 velocity=64 time=240
note_on channel=11 note=28 velocity=80 time=0
note_off channel=11 note=28 velocity=64 time=240
note_on channel=11 note=28 velocity=80 time=0
note_off channel=11 note=28 velocity=64 time=120
note_on channel=11 note=28 velocity=80 time=0
note_off channel=11 note=28 velocity=64 time=120
note_on channel=11 note=28 velocity=80 time=0
note_off channel=11 note=28 velocity=64 time=240
note_on channel=11 note=28 velocity=80 time=0
note_off channel=11 note=28 velocity=64 time=240
note_on channel=11 note=33 velocity=80 time=0
note_off channel=11 note=33 velocity=64 time=240
note_on channel=11 note=33 velocity=80 time=0
note_off channel=11 note=33 velocity=64 time=120
note_on channel=11 note=33 velocity=80 time=0
note_off channel=11 note=33 velocity=64 time=120
note_on channel=11 note=33 velocity=80 time=0
note_off channel=11 note=33 velocity=64 time=240
note_on channel=11 note=33 velocity=80 time=0
note_off channel=11 note=33 velocity=64 time=240
note_on channel=11 note=28 velocity=80 time=0
note_off channel=11 note=28 velocity=64 time=240
note_on channel=11 note=28 velocity=80 time=0
note_off channel=11 note=28 velocity=64 time=120
note_on channel=11 note=28 velocity=80 time=0
note_off channel=11 note=28 velocity=64 time=120
note_on channel=11 note=28 velocity=80 time=0
note_off channel=11 note=28 velocity=64 time=240
note_on channel=11 note=28 velocity=80 time=0
note_off channel=11 note=28 velocity=64 time=240
note_on channel=11 note=30 velocity=80 time=0
note_off channel=11 note=30 velocity=64 time=240
note_on channel=11 note=30 velocity=80 time=0
note_off channel=11 note=30 velocity=64 time=120
note_on channel=11 note=30 velocity=80 time=0
note_off channel=11 note=30 velocity=64 time=120
note_on channel=11 note=30 velocity=80 time=0
note_off channel=11 note=30 velocity=64 time=240
note_on channel=11 note=30 velocity=80 time=0
note_off channel=11 note=30 velocity=64 time=120
note_on channel=11 note=30 velocity=80 time=0
note_off channel=11 note=30 velocity=64 time=120
note_on channel=11 note=28 velocity=80 time=0
note_off channel=11 note=28 velocity=64 time=240
note_on channel=11 note=28 velocity=80 time=0
note_off channel=11 note=28 velocity=64 time=120
note_on channel=11 note=28 velocity=80 time=0
note_off channel=11 note=28 velocity=64 time=120
note_on channel=11 note=28 velocity=80 time=0
note_off channel=11 note=28 velocity=64 time=240
note_on channel=11 note=28 velocity=80 time=0
note_off channel=11 note=28 velocity=64 time=120
note_on channel=11 note=28 velocity=80 time=0
note_off channel=11 note=28 velocity=64 time=120
note_on channel=11 note=26 velocity=80 time=0
note_off channel=11 note=26 velocity=64 time=240
note_on channel=11 note=26 velocity=80 time=0
note_off channel=11 note=26 velocity=64 time=120
note_on channel=11 note=26 velocity=80 time=0
note_off channel=11 note=26 velocity=64 time=120
note_on channel=11 note=26 velocity=80 time=0
note_off channel=11 note=26 velocity=64 time=240
note_on channel=11 note=26 velocity=80 time=0
note_off channel=11 note=26 velocity=64 time=240
note_on channel=11 note=28 velocity=80 time=0
note_off channel=11 note=28 velocity=64 time=240
note_on channel=11 note=28 velocity=80 time=0
note_off channel=11 note=28 velocity=64 time=240
note_on channel=11 note=28 velocity=80 time=0
note_off channel=11 note=28 velocity=64 time=240
note_on channel=11 note=28 velocity=80 time=0
note_off channel=11 note=28 velocity=64 time=240
note_on channel=11 note=30 velocity=80 time=0
note_off channel=11 note=30 velocity=64 time=240
note_on channel=11 note=30 velocity=80 time=0
note_off channel=11 note=30 velocity=64 time=120
note_on channel=11 note=30 velocity=80 time=0
note_off channel=11 note=30 velocity=64 time=120
note_on channel=11 note=30 velocity=80 time=0
note_off channel=11 note=30 velocity=64 time=240
note_on channel=11 note=30 velocity=80 time=0
note_off channel=11 note=30 velocity=64 time=120
note_on channel=11 note=30 velocity=80 time=0
note_off channel=11 note=30 velocity=64 time=120
note_on channel=11 note=28 velocity=80 time=0
note_off channel=11 note=28 velocity=64 time=240
note_on channel=11 note=28 velocity=80 time=0
note_off channel=11 note=28 velocity=64 time=120
note_on channel=11 note=28 velocity=80 time=0
note_off channel=11 note=28 velocity=64 time=120
note_on channel=11 note=28 velocity=80 time=0
note_off channel=11 note=28 velocity=64 time=240
note_on channel=11 note=28 velocity=80 time=0
note_off channel=11 note=28 velocity=64 time=120
note_on channel=11 note=28 velocity=80 time=0
note_off channel=11 note=28 velocity=64 time=120
note_on channel=11 note=26 velocity=80 time=0
note_off channel=11 note=26 velocity=64 time=240
note_on channel=11 note=26 velocity=80 time=0
note_off channel=11 note=26 velocity=64 time=120
note_on channel=11 note=26 velocity=80 time=0
note_off channel=11 note=26 velocity=64 time=120
note_on channel=11 note=26 velocity=80 time=0
note_off channel=11 note=26 velocity=64 time=240
note_on channel=11 note=26 velocity=80 time=0
note_off channel=11 note=26 velocity=64 time=120
note_on channel=11 note=26 velocity=80 time=0
note_off channel=11 note=26 velocity=64 time=120
note_on channel=11 note=28 velocity=80 time=0
note_off channel=11 note=28 velocity=64 time=240
note_on channel=11 note=28 velocity=80 time=0
note_off channel=11 note=28 velocity=64 time=120
note_on channel=11 note=28 velocity=80 time=0
note_off channel=11 note=28 velocity=64 time=120
note_on channel=11 note=28 velocity=80 time=0
note_off channel=11 note=28 velocity=64 time=240
note_on channel=11 note=28 velocity=80 time=0
note_off channel=11 note=28 velocity=64 time=120
note_on channel=11 note=28 velocity=80 time=0
note_off channel=11 note=28 velocity=64 time=120
note_on channel=11 note=30 velocity=80 time=0
note_off channel=11 note=30 velocity=64 time=240
note_on channel=11 note=30 velocity=80 time=0
note_off channel=11 note=30 velocity=64 time=120
note_on channel=11 note=30 velocity=80 time=0
note_off channel=11 note=30 velocity=64 time=120
note_on channel=11 note=30 velocity=80 time=0
note_off channel=11 note=30 velocity=64 time=240
note_on channel=11 note=30 velocity=80 time=0
note_off channel=11 note=30 velocity=64 time=120
note_on channel=11 note=30 velocity=80 time=0
note_off channel=11 note=30 velocity=64 time=120
note_on channel=11 note=28 velocity=80 time=0
note_off channel=11 note=28 velocity=64 time=240
note_on channel=11 note=28 velocity=80 time=0
note_off channel=11 note=28 velocity=64 time=120
note_on channel=11 note=28 velocity=80 time=0
note_off channel=11 note=28 velocity=64 time=120
note_on channel=11 note=28 velocity=80 time=0
note_off channel=11 note=28 velocity=64 time=240
note_on channel=11 note=28 velocity=80 time=0
note_off channel=11 note=28 velocity=64 time=120
note_on channel=11 note=28 velocity=80 time=0
note_off channel=11 note=28 velocity=64 time=120
note_on channel=11 note=26 velocity=80 time=0
note_off channel=11 note=26 velocity=64 time=240
note_on channel=11 note=26 velocity=80 time=0
note_off channel=11 note=26 velocity=64 time=120
note_on channel=11 note=26 velocity=80 time=0
note_off channel=11 note=26 velocity=64 time=120
note_on channel=11 note=26 velocity=80 time=0
note_off channel=11 note=26 velocity=64 time=240
note_on channel=11 note=26 velocity=80 time=0
note_off channel=11 note=26 velocity=64 time=120
note_on channel=11 note=26 velocity=80 time=0
note_off channel=11 note=26 velocity=64 time=120
note_on channel=11 note=28 velocity=80 time=0
note_off channel=11 note=28 velocity=64 time=240
note_on channel=11 note=28 velocity=80 time=0
note_off channel=11 note=28 velocity=64 time=120
note_on channel=11 note=28 velocity=80 time=0
note_off channel=11 note=28 velocity=64 time=120
note_on channel=11 note=28 velocity=80 time=0
note_off channel=11 note=28 velocity=64 time=240
note_on channel=11 note=28 velocity=80 time=0
note_off channel=11 note=28 velocity=64 time=120
note_on channel=11 note=28 velocity=80 time=0
note_off channel=11 note=28 velocity=64 time=120
note_on channel=11 note=30 velocity=80 time=0
note_off channel=11 note=30 velocity=64 time=240
note_on channel=11 note=30 velocity=80 time=0
note_off channel=11 note=30 velocity=64 time=120
note_on channel=11 note=30 velocity=80 time=0
note_off channel=11 note=30 velocity=64 time=120
note_on channel=11 note=30 velocity=80 time=0
note_off channel=11 note=30 velocity=64 time=240
note_on channel=11 note=30 velocity=80 time=0
note_off channel=11 note=30 velocity=64 time=120
note_on channel=11 note=30 velocity=80 time=0
note_off channel=11 note=30 velocity=64 time=120
note_on channel=11 note=28 velocity=80 time=0
note_off channel=11 note=28 velocity=64 time=240
note_on channel=11 note=28 velocity=80 time=0
note_off channel=11 note=28 velocity=64 time=120
note_on channel=11 note=28 velocity=80 time=0
note_off channel=11 note=28 velocity=64 time=120
note_on channel=11 note=28 velocity=80 time=0
note_off channel=11 note=28 velocity=64 time=240
note_on channel=11 note=28 velocity=80 time=0
note_off channel=11 note=28 velocity=64 time=120
note_on channel=11 note=28 velocity=80 time=0
note_off channel=11 note=28 velocity=64 time=120
note_on channel=11 note=26 velocity=80 time=0
note_off channel=11 note=26 velocity=64 time=240
note_on channel=11 note=26 velocity=80 time=0
note_off channel=11 note=26 velocity=64 time=120
note_on channel=11 note=26 velocity=80 time=0
note_off channel=11 note=26 velocity=64 time=120
note_on channel=11 note=26 velocity=80 time=0
note_off channel=11 note=26 velocity=64 time=240
note_on channel=11 note=26 velocity=80 time=0
note_off channel=11 note=26 velocity=64 time=120
note_on channel=11 note=26 velocity=80 time=0
note_off channel=11 note=26 velocity=64 time=120
note_on channel=11 note=28 velocity=80 time=0
note_off channel=11 note=28 velocity=64 time=240
note_on channel=11 note=28 velocity=80 time=0
note_off channel=11 note=28 velocity=64 time=120
note_on channel=11 note=28 velocity=80 time=0
note_off channel=11 note=28 velocity=64 time=120
note_on channel=11 note=28 velocity=80 time=0
note_off channel=11 note=28 velocity=64 time=240
note_on channel=11 note=28 velocity=80 time=0
note_off channel=11 note=28 velocity=64 time=120
note_on channel=11 note=28 velocity=80 time=0
note_off channel=11 note=28 velocity=64 time=120
note_on channel=11 note=30 velocity=80 time=0
note_off channel=11 note=30 velocity=64 time=240
note_on channel=11 note=30 velocity=80 time=0
note_off channel=11 note=30 velocity=64 time=120
note_on channel=11 note=30 velocity=80 time=0
note_off channel=11 note=30 velocity=64 time=120
note_on channel=11 note=30 velocity=80 time=0
note_off channel=11 note=30 velocity=64 time=240
note_on channel=11 note=30 velocity=80 time=0
note_off channel=11 note=30 velocity=64 time=120
note_on channel=11 note=30 velocity=80 time=0
note_off channel=11 note=30 velocity=64 time=120
note_on channel=11 note=28 velocity=80 time=0
note_off channel=11 note=28 velocity=64 time=240
note_on channel=11 note=28 velocity=80 time=0
note_off channel=11 note=28 velocity=64 time=120
note_on channel=11 note=28 velocity=80 time=0
note_off channel=11 note=28 velocity=64 time=120
note_on channel=11 note=28 velocity=80 time=0
note_off channel=11 note=28 velocity=64 time=240
note_on channel=11 note=28 velocity=80 time=0
note_off channel=11 note=28 velocity=64 time=120
note_on channel=11 note=28 velocity=80 time=0
note_off channel=11 note=28 velocity=64 time=120
note_on channel=11 note=26 velocity=80 time=0
note_off channel=11 note=26 velocity=64 time=240
note_on channel=11 note=26 velocity=80 time=0
note_off channel=11 note=26 velocity=64 time=120
note_on channel=11 note=26 velocity=80 time=0
note_off channel=11 note=26 velocity=64 time=120
note_on channel=11 note=26 velocity=80 time=0
note_off channel=11 note=26 velocity=64 time=240
note_on channel=11 note=26 velocity=80 time=0
note_off channel=11 note=26 velocity=64 time=120
note_on channel=11 note=26 velocity=80 time=0
note_off channel=11 note=26 velocity=64 time=120
note_on channel=11 note=28 velocity=80 time=0
note_off channel=11 note=28 velocity=64 time=240
note_on channel=11 note=28 velocity=80 time=0
note_off channel=11 note=28 velocity=64 time=120
note_on channel=11 note=28 velocity=80 time=0
note_off channel=11 note=28 velocity=64 time=120
note_on channel=11 note=28 velocity=80 time=0
note_off channel=11 note=28 velocity=64 time=240
note_on channel=11 note=28 velocity=80 time=0
note_off channel=11 note=28 velocity=64 time=120
note_on channel=11 note=28 velocity=80 time=0
note_off channel=11 note=28 velocity=64 time=120
note_on channel=11 note=30 velocity=80 time=0
note_off channel=11 note=30 velocity=64 time=240
note_on channel=11 note=30 velocity=80 time=0
note_off channel=11 note=30 velocity=64 time=240
note_on channel=11 note=30 velocity=80 time=1440
note_off channel=11 note=30 velocity=64 time=240
note_on channel=11 note=30 velocity=80 time=0
note_off channel=11 note=30 velocity=64 time=240
note_on channel=11 note=26 velocity=80 time=1440
note_off channel=11 note=26 velocity=64 time=240
note_on channel=11 note=26 velocity=80 time=0
note_off channel=11 note=26 velocity=64 time=120
note_on channel=11 note=26 velocity=80 time=0
note_off channel=11 note=26 velocity=64 time=120
note_on channel=11 note=26 velocity=80 time=0
note_off channel=11 note=26 velocity=64 time=240
note_on channel=11 note=33 velocity=80 time=720
note_off channel=11 note=33 velocity=64 time=240
note_on channel=11 note=35 velocity=80 time=0
note_off channel=11 note=35 velocity=64 time=240
note_on channel=11 note=33 velocity=80 time=0
note_off channel=11 note=33 velocity=64 time=240
note_on channel=11 note=33 velocity=80 time=240
note_off channel=11 note=33 velocity=64 time=240
note_on channel=11 note=28 velocity=80 time=240
note_off channel=11 note=28 velocity=64 time=240
note_on channel=11 note=28 velocity=80 time=240
note_off channel=11 note=28 velocity=64 time=240
note_on channel=11 note=30 velocity=80 time=240
note_off channel=11 note=30 velocity=64 time=240
note_on channel=11 note=30 velocity=80 time=0
note_off channel=11 note=30 velocity=64 time=240
note_on channel=11 note=30 velocity=80 time=1440
note_off channel=11 note=30 velocity=64 time=240
note_on channel=11 note=30 velocity=80 time=0
note_off channel=11 note=30 velocity=64 time=240
note_on channel=11 note=26 velocity=80 time=1440
note_off channel=11 note=26 velocity=64 time=240
note_on channel=11 note=26 velocity=80 time=0
note_off channel=11 note=26 velocity=64 time=120
note_on channel=11 note=26 velocity=80 time=0
note_off channel=11 note=26 velocity=64 time=120
note_on channel=11 note=26 velocity=80 time=0
note_off channel=11 note=26 velocity=64 time=240
note_on channel=11 note=33 velocity=80 time=720
note_off channel=11 note=33 velocity=64 time=240
note_on channel=11 note=35 velocity=80 time=0
note_off channel=11 note=35 velocity=64 time=240
note_on channel=11 note=33 velocity=80 time=0
note_off channel=11 note=33 velocity=64 time=480
note_on channel=11 note=33 velocity=80 time=0
note_off channel=11 note=33 velocity=64 time=480
note_on channel=11 note=28 velocity=80 time=0
note_off channel=11 note=28 velocity=64 time=480
note_on channel=11 note=28 velocity=80 time=0
note_off channel=11 note=28 velocity=64 time=480
note_on channel=11 note=30 velocity=80 time=0
note_off channel=11 note=30 velocity=64 time=120
note_on channel=11 note=30 velocity=80 time=0
note_off channel=11 note=30 velocity=64 time=120
note_on channel=11 note=30 velocity=80 time=0
note_off channel=11 note=30 velocity=64 time=120
note_on channel=11 note=30 velocity=80 time=0
note_off channel=11 note=30 velocity=64 time=120
note_on channel=11 note=30 velocity=80 time=0
note_off channel=11 note=30 velocity=64 time=240
note_on channel=11 note=30 velocity=80 time=0
note_off channel=11 note=30 velocity=64 time=240
note_on channel=11 note=33 velocity=80 time=0
note_off channel=11 note=33 velocity=64 time=240
note_on channel=11 note=32 velocity=80 time=0
note_off channel=11 note=32 velocity=64 time=240
note_on channel=11 note=33 velocity=80 time=0
note_off channel=11 note=33 velocity=64 time=240
note_on channel=11 note=32 velocity=80 time=0
note_off channel=11 note=32 velocity=64 time=240
note_on channel=11 note=30 velocity=80 time=0
note_off channel=11 note=30 velocity=64 time=120
note_on channel=11 note=30 velocity=80 time=0
note_off channel=11 note=30 velocity=64 time=120
note_on channel=11 note=30 velocity=80 time=0
note_off channel=11 note=30 velocity=64 time=120
note_on channel=11 note=30 velocity=80 time=0
note_off channel=11 note=30 velocity=64 time=120
note_on channel=11 note=30 velocity=80 time=0
note_off channel=11 note=30 velocity=64 time=240
note_on channel=11 note=30 velocity=80 time=0
note_off channel=11 note=30 velocity=64 time=240
note_on channel=11 note=33 velocity=80 time=0
note_off channel=11 note=33 velocity=64 time=240
note_on channel=11 note=32 velocity=80 time=0
note_off channel=11 note=32 velocity=64 time=240
note_on channel=11 note=33 velocity=80 time=0
note_off channel=11 note=33 velocity=64 time=240
note_on channel=11 note=32 velocity=80 time=0
note_off channel=11 note=32 velocity=64 time=240
note_on channel=11 note=26 velocity=80 time=0
note_off channel=11 note=26 velocity=64 time=240
note_on channel=11 note=26 velocity=80 time=0
note_off channel=11 note=26 velocity=64 time=240
note_on channel=11 note=26 velocity=80 time=240
note_off channel=11 note=26 velocity=64 time=240
note_on channel=11 note=28 velocity=80 time=0
note_off channel=11 note=28 velocity=64 time=240
note_on channel=11 note=28 velocity=80 time=240
note_off channel=11 note=28 velocity=64 time=240
note_on channel=11 note=28 velocity=80 time=0
note_off channel=11 note=28 velocity=64 time=240
note_on channel=11 note=33 velocity=80 time=0
note_off channel=11 note=33 velocity=64 time=240
note_on channel=11 note=33 velocity=80 time=0
note_off channel=11 note=33 velocity=64 time=240
note_on channel=11 note=33 velocity=80 time=0
note_off channel=11 note=33 velocity=64 time=240
note_on channel=11 note=33 velocity=80 time=0
note_off channel=11 note=33 velocity=64 time=240
note_on channel=11 note=28 velocity=80 time=0
note_off channel=11 note=28 velocity=64 time=240
note_on channel=11 note=28 velocity=80 time=0
note_off channel=11 note=28 velocity=64 time=240
note_on channel=11 note=28 velocity=80 time=0
note_off channel=11 note=28 velocity=64 time=240
note_on channel=11 note=28 velocity=80 time=0
note_off channel=11 note=28 velocity=64 time=240
note_on channel=11 note=30 velocity=80 time=0
note_off channel=11 note=30 velocity=64 time=120
note_on channel=11 note=30 velocity=80 time=0
note_off channel=11 note=30 velocity=64 time=120
note_on channel=11 note=30 velocity=80 time=0
note_off channel=11 note=30 velocity=64 time=120
note_on channel=11 note=30 velocity=80 time=0
note_off channel=11 note=30 velocity=64 time=120
note_on channel=11 note=30 velocity=80 time=0
note_off channel=11 note=30 velocity=64 time=240
note_on channel=11 note=30 velocity=80 time=0
note_off channel=11 note=30 velocity=64 time=240
note_on channel=11 note=33 velocity=80 time=0
note_off channel=11 note=33 velocity=64 time=240
note_on channel=11 note=32 velocity=80 time=0
note_off channel=11 note=32 velocity=64 time=240
note_on channel=11 note=33 velocity=80 time=0
note_off channel=11 note=33 velocity=64 time=240
note_on channel=11 note=32 velocity=80 time=0
note_off channel=11 note=32 velocity=64 time=240
note_on channel=11 note=30 velocity=80 time=0
note_off channel=11 note=30 velocity=64 time=120
note_on channel=11 note=30 velocity=80 time=0
note_off channel=11 note=30 velocity=64 time=120
note_on channel=11 note=30 velocity=80 time=0
note_off channel=11 note=30 velocity=64 time=120
note_on channel=11 note=30 velocity=80 time=0
note_off channel=11 note=30 velocity=64 time=120
note_on channel=11 note=30 velocity=80 time=0
note_off channel=11 note=30 velocity=64 time=240
note_on channel=11 note=30 velocity=80 time=0
note_off channel=11 note=30 velocity=64 time=240
note_on channel=11 note=33 velocity=80 time=0
note_off channel=11 note=33 velocity=64 time=240
note_on channel=11 note=32 velocity=80 time=0
note_off channel=11 note=32 velocity=64 time=240
note_on channel=11 note=33 velocity=80 time=0
note_off channel=11 note=33 velocity=64 time=240
note_on channel=11 note=32 velocity=80 time=0
note_off channel=11 note=32 velocity=64 time=240
note_on channel=11 note=26 velocity=80 time=0
note_off channel=11 note=26 velocity=64 time=240
note_on channel=11 note=26 velocity=80 time=0
note_off channel=11 note=26 velocity=64 time=240
note_on channel=11 note=26 velocity=80 time=240
note_off channel=11 note=26 velocity=64 time=240
note_on channel=11 note=28 velocity=80 time=0
note_off channel=11 note=28 velocity=64 time=240
note_on channel=11 note=28 velocity=80 time=240
note_off channel=11 note=28 velocity=64 time=240
note_on channel=11 note=28 velocity=80 time=0
note_off channel=11 note=28 velocity=64 time=240
note_on channel=11 note=33 velocity=80 time=0
note_off channel=11 note=33 velocity=64 time=240
note_on channel=11 note=33 velocity=80 time=0
note_off channel=11 note=33 velocity=64 time=240
note_on channel=11 note=33 velocity=80 time=0
note_off channel=11 note=33 velocity=64 time=240
note_on channel=11 note=33 velocity=80 time=0
note_off channel=11 note=33 velocity=64 time=240
note_on channel=11 note=28 velocity=80 time=0
note_off channel=11 note=28 velocity=64 time=240
note_on channel=11 note=28 velocity=80 time=0
note_off channel=11 note=28 velocity=64 time=240
note_on channel=11 note=28 velocity=80 time=0
note_off channel=11 note=28 velocity=64 time=240
note_on channel=11 note=28 velocity=80 time=0
note_off channel=11 note=28 velocity=64 time=240
note_on channel=11 note=30 velocity=80 time=0
note_off channel=11 note=30 velocity=64 time=240
note_on channel=11 note=30 velocity=80 time=0
note_off channel=11 note=30 velocity=64 time=240
note_on channel=11 note=30 velocity=80 time=0
note_off channel=11 note=30 velocity=64 time=240
note_on channel=11 note=30 velocity=80 time=0
note_off channel=11 note=30 velocity=64 time=240
note_on channel=11 note=30 velocity=80 time=0
note_off channel=11 note=30 velocity=64 time=240
note_on channel=11 note=30 velocity=80 time=0
note_off channel=11 note=30 velocity=64 time=240
note_on channel=11 note=30 velocity=80 time=0
note_off channel=11 note=30 velocity=64 time=240
note_on channel=11 note=30 velocity=80 time=0
note_off channel=11 note=30 velocity=64 time=240
note_on channel=11 note=33 velocity=80 time=0
note_off channel=11 note=33 velocity=64 time=240
note_on channel=11 note=33 velocity=80 time=0
note_off channel=11 note=33 velocity=64 time=240
note_on channel=11 note=33 velocity=80 time=0
note_off channel=11 note=33 velocity=64 time=240
note_on channel=11 note=33 velocity=80 time=0
note_off channel=11 note=33 velocity=64 time=240
note_on channel=11 note=33 velocity=80 time=0
note_off channel=11 note=33 velocity=64 time=240
note_on channel=11 note=33 velocity=80 time=0
note_off channel=11 note=33 velocity=64 time=240
note_on channel=11 note=33 velocity=80 time=0
note_off channel=11 note=33 velocity=64 time=240
note_on channel=11 note=33 velocity=80 time=0
note_off channel=11 note=33 velocity=64 time=240
note_on channel=11 note=26 velocity=80 time=0
note_off channel=11 note=26 velocity=64 time=240
note_on channel=11 note=26 velocity=80 time=0
note_off channel=11 note=26 velocity=64 time=240
note_on channel=11 note=26 velocity=80 time=0
note_off channel=11 note=26 velocity=64 time=240
note_on channel=11 note=26 velocity=80 time=0
note_off channel=11 note=26 velocity=64 time=240
note_on channel=11 note=26 velocity=80 time=0
note_off channel=11 note=26 velocity=64 time=240
note_on channel=11 note=26 velocity=80 time=0
note_off channel=11 note=26 velocity=64 time=240
note_on channel=11 note=26 velocity=80 time=0
note_off channel=11 note=26 velocity=64 time=240
note_on channel=11 note=26 velocity=80 time=0
note_off channel=11 note=26 velocity=64 time=240
note_on channel=11 note=28 velocity=80 time=0
note_off channel=11 note=28 velocity=64 time=240
note_on channel=11 note=28 velocity=80 time=0
note_off channel=11 note=28 velocity=64 time=240
note_on channel=11 note=28 velocity=80 time=0
note_off channel=11 note=28 velocity=64 time=240
note_on channel=11 note=28 velocity=80 time=0
note_off channel=11 note=28 velocity=64 time=240
note_on channel=11 note=28 velocity=80 time=0
note_off channel=11 note=28 velocity=64 time=240
note_on channel=11 note=28 velocity=80 time=0
note_off channel=11 note=28 velocity=64 time=240
note_on channel=11 note=28 velocity=80 time=0
note_off channel=11 note=28 velocity=64 time=240
note_on channel=11 note=28 velocity=80 time=0
note_off channel=11 note=28 velocity=64 time=240
note_on channel=11 note=30 velocity=80 time=0
note_off channel=11 note=30 velocity=64 time=240
note_on channel=11 note=30 velocity=80 time=0
note_off channel=11 note=30 velocity=64 time=240
note_on channel=11 note=30 velocity=80 time=0
note_off channel=11 note=30 velocity=64 time=240
note_on channel=11 note=30 velocity=80 time=0
note_off channel=11 note=30 velocity=64 time=240
note_on channel=11 note=30 velocity=80 time=0
note_off channel=11 note=30 velocity=64 time=240
note_on channel=11 note=30 velocity=80 time=0
note_off channel=11 note=30 velocity=64 time=240
note_on channel=11 note=30 velocity=80 time=0
note_off channel=11 note=30 velocity=64 time=240
note_on channel=11 note=30 velocity=80 time=0
note_off channel=11 note=30 velocity=64 time=240
note_on channel=11 note=33 velocity=80 time=0
note_off channel=11 note=33 velocity=64 time=240
note_on channel=11 note=33 velocity=80 time=0
note_off channel=11 note=33 velocity=64 time=240
note_on channel=11 note=33 velocity=80 time=0
note_off channel=11 note=33 velocity=64 time=240
note_on channel=11 note=33 velocity=80 time=0
note_off channel=11 note=33 velocity=64 time=240
note_on channel=11 note=33 velocity=80 time=0
note_off channel=11 note=33 velocity=64 time=240
note_on channel=11 note=33 velocity=80 time=0
note_off channel=11 note=33 velocity=64 time=240
note_on channel=11 note=33 velocity=80 time=0
note_off channel=11 note=33 velocity=64 time=240
note_on channel=11 note=33 velocity=80 time=0
note_off channel=11 note=33 velocity=64 time=240
note_on channel=11 note=26 velocity=80 time=0
note_off channel=11 note=26 velocity=64 time=240
note_on channel=11 note=26 velocity=80 time=0
note_off channel=11 note=26 velocity=64 time=240
note_on channel=11 note=26 velocity=80 time=0
note_off channel=11 note=26 velocity=64 time=240
note_on channel=11 note=26 velocity=80 time=0
note_off channel=11 note=26 velocity=64 time=240
note_on channel=11 note=26 velocity=80 time=0
note_off channel=11 note=26 velocity=64 time=240
note_on channel=11 note=26 velocity=80 time=0
note_off channel=11 note=26 velocity=64 time=240
note_on channel=11 note=26 velocity=80 time=0
note_off channel=11 note=26 velocity=64 time=240
note_on channel=11 note=26 velocity=80 time=0
note_off channel=11 note=26 velocity=64 time=240
note_on channel=11 note=28 velocity=80 time=0
note_off channel=11 note=28 velocity=64 time=240
note_on channel=11 note=28 velocity=80 time=0
note_off channel=11 note=28 velocity=64 time=240
note_on channel=11 note=28 velocity=80 time=0
note_off channel=11 note=28 velocity=64 time=240
note_on channel=11 note=28 velocity=80 time=0
note_off channel=11 note=28 velocity=64 time=240
note_on channel=11 note=28 velocity=80 time=0
note_off channel=11 note=28 velocity=64 time=240
note_on channel=11 note=28 velocity=80 time=0
note_off channel=11 note=28 velocity=64 time=240
note_on channel=11 note=28 velocity=80 time=0
note_off channel=11 note=28 velocity=64 time=240
note_on channel=11 note=28 velocity=80 time=0
note_off channel=11 note=28 velocity=64 time=240
note_on channel=11 note=30 velocity=80 time=0
note_off channel=11 note=30 velocity=64 time=240
note_on channel=11 note=30 velocity=80 time=0
note_off channel=11 note=30 velocity=64 time=240
note_on channel=11 note=30 velocity=80 time=0
note_off channel=11 note=30 velocity=64 time=240
note_on channel=11 note=30 velocity=80 time=0
note_off channel=11 note=30 velocity=64 time=240
note_on channel=11 note=30 velocity=80 time=0
note_off channel=11 note=30 velocity=64 time=240
note_on channel=11 note=30 velocity=80 time=0
note_off channel=11 note=30 velocity=64 time=240
note_on channel=11 note=30 velocity=80 time=0
note_off channel=11 note=30 velocity=64 time=240
note_on channel=11 note=30 velocity=80 time=0
note_off channel=11 note=30 velocity=64 time=240
note_on channel=11 note=33 velocity=80 time=0
note_off channel=11 note=33 velocity=64 time=240
note_on channel=11 note=33 velocity=80 time=0
note_off channel=11 note=33 velocity=64 time=240
note_on channel=11 note=33 velocity=80 time=0
note_off channel=11 note=33 velocity=64 time=240
note_on channel=11 note=33 velocity=80 time=0
note_off channel=11 note=33 velocity=64 time=240
note_on channel=11 note=33 velocity=80 time=0
note_off channel=11 note=33 velocity=64 time=240
note_on channel=11 note=33 velocity=80 time=0
note_off channel=11 note=33 velocity=64 time=240
note_on channel=11 note=33 velocity=80 time=0
note_off channel=11 note=33 velocity=64 time=240
note_on channel=11 note=33 velocity=80 time=0
note_off channel=11 note=33 velocity=64 time=240
note_on channel=11 note=26 velocity=80 time=0
note_off channel=11 note=26 velocity=64 time=240
note_on channel=11 note=26 velocity=80 time=0
note_off channel=11 note=26 velocity=64 time=240
note_on channel=11 note=26 velocity=80 time=0
note_off channel=11 note=26 velocity=64 time=240
note_on channel=11 note=26 velocity=80 time=0
note_off channel=11 note=26 velocity=64 time=240
note_on channel=11 note=26 velocity=80 time=0
note_off channel=11 note=26 velocity=64 time=240
note_on channel=11 note=26 velocity=80 time=0
note_off channel=11 note=26 velocity=64 time=240
note_on channel=11 note=26 velocity=80 time=0
note_off channel=11 note=26 velocity=64 time=240
note_on channel=11 note=26 velocity=80 time=0
note_off channel=11 note=26 velocity=64 time=240
note_on channel=11 note=28 velocity=80 time=0
note_off channel=11 note=28 velocity=64 time=240
note_on channel=11 note=28 velocity=80 time=0
note_off channel=11 note=28 velocity=64 time=240
note_on channel=11 note=28 velocity=80 time=0
note_off channel=11 note=28 velocity=64 time=240
note_on channel=11 note=28 velocity=80 time=0
note_off channel=11 note=28 velocity=64 time=240
note_on channel=11 note=28 velocity=80 time=0
note_off channel=11 note=28 velocity=64 time=240
note_on channel=11 note=28 velocity=80 time=0
note_off channel=11 note=28 velocity=64 time=240
note_on channel=11 note=28 velocity=80 time=0
note_off channel=11 note=28 velocity=64 time=240
note_on channel=11 note=28 velocity=80 time=0
note_off channel=11 note=28 velocity=64 time=240
note_on channel=11 note=30 velocity=80 time=0
note_off channel=11 note=30 velocity=64 time=240
note_on channel=11 note=30 velocity=80 time=0
note_off channel=11 note=30 velocity=64 time=240
note_on channel=11 note=30 velocity=80 time=0
note_off channel=11 note=30 velocity=64 time=240
note_on channel=11 note=30 velocity=80 time=0
note_off channel=11 note=30 velocity=64 time=240
note_on channel=11 note=30 velocity=80 time=0
note_off channel=11 note=30 velocity=64 time=240
note_on channel=11 note=30 velocity=80 time=0
note_off channel=11 note=30 velocity=64 time=240
note_on channel=11 note=30 velocity=80 time=0
note_off channel=11 note=30 velocity=64 time=240
note_on channel=11 note=30 velocity=80 time=0
note_off channel=11 note=30 velocity=64 time=240
note_on channel=11 note=33 velocity=80 time=0
note_off channel=11 note=33 velocity=64 time=240
note_on channel=11 note=33 velocity=80 time=0
note_off channel=11 note=33 velocity=64 time=240
note_on channel=11 note=33 velocity=80 time=0
note_off channel=11 note=33 velocity=64 time=240
note_on channel=11 note=33 velocity=80 time=0
note_off channel=11 note=33 velocity=64 time=240
note_on channel=11 note=33 velocity=80 time=0
note_off channel=11 note=33 velocity=64 time=240
note_on channel=11 note=33 velocity=80 time=0
note_off channel=11 note=33 velocity=64 time=240
note_on channel=11 note=33 velocity=80 time=0
note_off channel=11 note=33 velocity=64 time=240
note_on channel=11 note=33 velocity=80 time=0
note_off channel=11 note=33 velocity=64 time=240
note_on channel=11 note=26 velocity=80 time=0
note_off channel=11 note=26 velocity=64 time=240
note_on channel=11 note=26 velocity=80 time=0
note_off channel=11 note=26 velocity=64 time=240
note_on channel=11 note=26 velocity=80 time=0
note_off channel=11 note=26 velocity=64 time=240
note_on channel=11 note=26 velocity=80 time=0
note_off channel=11 note=26 velocity=64 time=240
note_on channel=11 note=26 velocity=80 time=0
note_off channel=11 note=26 velocity=64 time=240
note_on channel=11 note=26 velocity=80 time=0
note_off channel=11 note=26 velocity=64 time=240
note_on channel=11 note=26 velocity=80 time=0
note_off channel=11 note=26 velocity=64 time=240
note_on channel=11 note=26 velocity=80 time=0
note_off channel=11 note=26 velocity=64 time=240
note_on channel=11 note=28 velocity=80 time=0
note_off channel=11 note=28 velocity=64 time=240
note_on channel=11 note=28 velocity=80 time=0
note_off channel=11 note=28 velocity=64 time=240
note_on channel=11 note=28 velocity=80 time=0
note_off channel=11 note=28 velocity=64 time=240
note_on channel=11 note=28 velocity=80 time=0
note_off channel=11 note=28 velocity=64 time=240
note_on channel=11 note=28 velocity=80 time=0
note_off channel=11 note=28 velocity=64 time=240
note_on channel=11 note=28 velocity=80 time=0
note_off channel=11 note=28 velocity=64 time=240
note_on channel=11 note=28 velocity=80 time=0
note_off channel=11 note=28 velocity=64 time=240
note_on channel=11 note=28 velocity=80 time=0
note_off channel=11 note=28 velocity=64 time=240
note_on channel=11 note=30 velocity=80 time=0
note_off channel=11 note=30 velocity=64 time=120
note_on channel=11 note=30 velocity=80 time=0
note_off channel=11 note=30 velocity=64 time=120
note_on channel=11 note=30 velocity=80 time=0
note_off channel=11 note=30 velocity=64 time=120
note_on channel=11 note=30 velocity=80 time=0
note_off channel=11 note=30 velocity=64 time=120
note_on channel=11 note=30 velocity=80 time=0
note_off channel=11 note=30 velocity=64 time=240
note_on channel=11 note=30 velocity=80 time=0
note_off channel=11 note=30 velocity=64 time=240
note_on channel=11 note=28 velocity=80 time=0
note_off channel=11 note=28 velocity=64 time=240
note_on channel=11 note=28 velocity=80 time=0
note_off channel=11 note=28 velocity=64 time=120
note_on channel=11 note=28 velocity=80 time=0
note_off channel=11 note=28 velocity=64 time=120
note_on channel=11 note=28 velocity=80 time=0
note_off channel=11 note=28 velocity=64 time=240
note_on channel=11 note=28 velocity=80 time=0
note_off channel=11 note=28 velocity=64 time=240
note_on channel=11 note=33 velocity=80 time=0
note_off channel=11 note=33 velocity=64 time=240
note_on channel=11 note=33 velocity=80 time=0
note_off channel=11 note=33 velocity=64 time=120
note_on channel=11 note=33 velocity=80 time=0
note_off channel=11 note=33 velocity=64 time=120
note_on channel=11 note=33 velocity=80 time=0
note_off channel=11 note=33 velocity=64 time=240
note_on channel=11 note=33 velocity=80 time=0
note_off channel=11 note=33 velocity=64 time=240
note_on channel=11 note=28 velocity=80 time=0
note_off channel=11 note=28 velocity=64 time=240
note_on channel=11 note=28 velocity=80 time=0
note_off channel=11 note=28 velocity=64 time=120
note_on channel=11 note=28 velocity=80 time=0
note_off channel=11 note=28 velocity=64 time=120
note_on channel=11 note=28 velocity=80 time=0
note_off channel=11 note=28 velocity=64 time=240
note_on channel=11 note=28 velocity=80 time=0
note_off channel=11 note=28 velocity=64 time=240
note_on channel=11 note=30 velocity=80 time=0
note_off channel=11 note=30 velocity=64 time=240
note_on channel=11 note=30 velocity=80 time=0
note_off channel=11 note=30 velocity=64 time=120
note_on channel=11 note=30 velocity=80 time=0
note_off channel=11 note=30 velocity=64 time=120
note_on channel=11 note=30 velocity=80 time=0
note_off channel=11 note=30 velocity=64 time=240
note_on channel=11 note=30 velocity=80 time=0
note_off channel=11 note=30 velocity=64 time=120
note_on channel=11 note=30 velocity=80 time=0
note_off channel=11 note=30 velocity=64 time=120
note_on channel=11 note=28 velocity=80 time=0
note_off channel=11 note=28 velocity=64 time=240
note_on channel=11 note=28 velocity=80 time=0
note_off channel=11 note=28 velocity=64 time=120
note_on channel=11 note=28 velocity=80 time=0
note_off channel=11 note=28 velocity=64 time=120
note_on channel=11 note=28 velocity=80 time=0
note_off channel=11 note=28 velocity=64 time=240
note_on channel=11 note=28 velocity=80 time=0
note_off channel=11 note=28 velocity=64 time=120
note_on channel=11 note=28 velocity=80 time=0
note_off channel=11 note=28 velocity=64 time=120
note_on channel=11 note=26 velocity=80 time=0
note_off channel=11 note=26 velocity=64 time=240
note_on channel=11 note=26 velocity=80 time=0
note_off channel=11 note=26 velocity=64 time=120
note_on channel=11 note=26 velocity=80 time=0
note_off channel=11 note=26 velocity=64 time=120
note_on channel=11 note=26 velocity=80 time=0
note_off channel=11 note=26 velocity=64 time=240
note_on channel=11 note=26 velocity=80 time=0
note_off channel=11 note=26 velocity=64 time=240
note_on channel=11 note=28 velocity=80 time=0
note_off channel=11 note=28 velocity=64 time=240
note_on channel=11 note=28 velocity=80 time=0
note_off channel=11 note=28 velocity=64 time=240
note_on channel=11 note=28 velocity=80 time=0
note_off channel=11 note=28 velocity=64 time=240
note_on channel=11 note=28 velocity=80 time=0
note_off channel=11 note=28 velocity=64 time=240
note_on channel=11 note=30 velocity=80 time=0
note_off channel=11 note=30 velocity=64 time=120
note_on channel=11 note=30 velocity=80 time=0
note_off channel=11 note=30 velocity=64 time=120
note_on channel=11 note=30 velocity=80 time=0
note_off channel=11 note=30 velocity=64 time=120
note_on channel=11 note=30 velocity=80 time=0
note_off channel=11 note=30 velocity=64 time=120
note_on channel=11 note=30 velocity=80 time=0
note_off channel=11 note=30 velocity=64 time=240
note_on channel=11 note=30 velocity=80 time=0
note_off channel=11 note=30 velocity=64 time=240
note_on channel=11 note=28 velocity=80 time=0
note_off channel=11 note=28 velocity=64 time=240
note_on channel=11 note=28 velocity=80 time=0
note_off channel=11 note=28 velocity=64 time=120
note_on channel=11 note=28 velocity=80 time=0
note_off channel=11 note=28 velocity=64 time=120
note_on channel=11 note=28 velocity=80 time=0
note_off channel=11 note=28 velocity=64 time=240
note_on channel=11 note=28 velocity=80 time=0
note_off channel=11 note=28 velocity=64 time=240
note_on channel=11 note=33 velocity=80 time=0
note_off channel=11 note=33 velocity=64 time=240
note_on channel=11 note=33 velocity=80 time=0
note_off channel=11 note=33 velocity=64 time=120
note_on channel=11 note=33 velocity=80 time=0
note_off channel=11 note=33 velocity=64 time=120
note_on channel=11 note=33 velocity=80 time=0
note_off channel=11 note=33 velocity=64 time=240
note_on channel=11 note=33 velocity=80 time=0
note_off channel=11 note=33 velocity=64 time=240
note_on channel=11 note=28 velocity=80 time=0
note_off channel=11 note=28 velocity=64 time=240
note_on channel=11 note=28 velocity=80 time=0
note_off channel=11 note=28 velocity=64 time=120
note_on channel=11 note=28 velocity=80 time=0
note_off channel=11 note=28 velocity=64 time=120
note_on channel=11 note=28 velocity=80 time=0
note_off channel=11 note=28 velocity=64 time=240
note_on channel=11 note=28 velocity=80 time=0
note_off channel=11 note=28 velocity=64 time=240
note_on channel=11 note=30 velocity=80 time=0
note_off channel=11 note=30 velocity=64 time=240
note_on channel=11 note=30 velocity=80 time=0
note_off channel=11 note=30 velocity=64 time=120
note_on channel=11 note=30 velocity=80 time=0
note_off channel=11 note=30 velocity=64 time=120
note_on channel=11 note=30 velocity=80 time=0
note_off channel=11 note=30 velocity=64 time=240
note_on channel=11 note=30 velocity=80 time=0
note_off channel=11 note=30 velocity=64 time=120
note_on channel=11 note=30 velocity=80 time=0
note_off channel=11 note=30 velocity=64 time=120
note_on channel=11 note=28 velocity=80 time=0
note_off channel=11 note=28 velocity=64 time=240
note_on channel=11 note=28 velocity=80 time=0
note_off channel=11 note=28 velocity=64 time=120
note_on channel=11 note=28 velocity=80 time=0
note_off channel=11 note=28 velocity=64 time=120
note_on channel=11 note=28 velocity=80 time=0
note_off channel=11 note=28 velocity=64 time=240
note_on channel=11 note=28 velocity=80 time=0
note_off channel=11 note=28 velocity=64 time=120
note_on channel=11 note=28 velocity=80 time=0
note_off channel=11 note=28 velocity=64 time=120
note_on channel=11 note=26 velocity=80 time=0
note_off channel=11 note=26 velocity=64 time=240
note_on channel=11 note=26 velocity=80 time=0
note_off channel=11 note=26 velocity=64 time=120
note_on channel=11 note=26 velocity=80 time=0
note_off channel=11 note=26 velocity=64 time=120
note_on channel=11 note=26 velocity=80 time=0
note_off channel=11 note=26 velocity=64 time=240
note_on channel=11 note=26 velocity=80 time=0
note_off channel=11 note=26 velocity=64 time=240
note_on channel=11 note=28 velocity=80 time=0
note_off channel=11 note=28 velocity=64 time=240
note_on channel=11 note=28 velocity=80 time=0
note_off channel=11 note=28 velocity=64 time=240
note_on channel=11 note=28 velocity=80 time=0
note_off channel=11 note=28 velocity=64 time=240
note_on channel=11 note=28 velocity=80 time=0
note_off channel=11 note=28 velocity=64 time=240
note_on channel=11 note=30 velocity=80 time=0
note_off channel=11 note=30 velocity=64 time=240
note_on channel=11 note=30 velocity=80 time=0
note_off channel=11 note=30 velocity=64 time=120
note_on channel=11 note=30 velocity=80 time=0
note_off channel=11 note=30 velocity=64 time=120
note_on channel=11 note=30 velocity=80 time=0
note_off channel=11 note=30 velocity=64 time=240
note_on channel=11 note=30 velocity=80 time=0
note_off channel=11 note=30 velocity=64 time=120
note_on channel=11 note=30 velocity=80 time=0
note_off channel=11 note=30 velocity=64 time=120
note_on channel=11 note=28 velocity=80 time=0
note_off channel=11 note=28 velocity=64 time=240
note_on channel=11 note=28 velocity=80 time=0
note_off channel=11 note=28 velocity=64 time=120
note_on channel=11 note=28 velocity=80 time=0
note_off channel=11 note=28 velocity=64 time=120
note_on channel=11 note=28 velocity=80 time=0
note_off channel=11 note=28 velocity=64 time=240
note_on channel=11 note=28 velocity=80 time=0
note_off channel=11 note=28 velocity=64 time=120
note_on channel=11 note=28 velocity=80 time=0
note_off channel=11 note=28 velocity=64 time=120
note_on channel=11 note=26 velocity=80 time=0
note_off channel=11 note=26 velocity=64 time=240
note_on channel=11 note=26 velocity=80 time=0
note_off channel=11 note=26 velocity=64 time=120
note_on channel=11 note=26 velocity=80 time=0
note_off channel=11 note=26 velocity=64 time=120
note_on channel=11 note=26 velocity=80 time=0
note_off channel=11 note=26 velocity=64 time=240
note_on channel=11 note=26 velocity=80 time=0
note_off channel=11 note=26 velocity=64 time=120
note_on channel=11 note=26 velocity=80 time=0
note_off channel=11 note=26 velocity=64 time=120
note_on channel=11 note=28 velocity=80 time=0
note_off channel=11 note=28 velocity=64 time=240
note_on channel=11 note=28 velocity=80 time=0
note_off channel=11 note=28 velocity=64 time=120
note_on channel=11 note=28 velocity=80 time=0
note_off channel=11 note=28 velocity=64 time=120
note_on channel=11 note=28 velocity=80 time=0
note_off channel=11 note=28 velocity=64 time=240
note_on channel=11 note=28 velocity=80 time=0
note_off channel=11 note=28 velocity=64 time=120
note_on channel=11 note=28 velocity=80 time=0
note_off channel=11 note=28 velocity=64 time=120
note_on channel=11 note=30 velocity=80 time=0
note_off channel=11 note=30 velocity=64 time=240
note_on channel=11 note=30 velocity=80 time=0
note_off channel=11 note=30 velocity=64 time=120
note_on channel=11 note=30 velocity=80 time=0
note_off channel=11 note=30 velocity=64 time=120
note_on channel=11 note=30 velocity=80 time=0
note_off channel=11 note=30 velocity=64 time=240
note_on channel=11 note=30 velocity=80 time=0
note_off channel=11 note=30 velocity=64 time=120
note_on channel=11 note=30 velocity=80 time=0
note_off channel=11 note=30 velocity=64 time=120
note_on channel=11 note=28 velocity=80 time=0
note_off channel=11 note=28 velocity=64 time=240
note_on channel=11 note=28 velocity=80 time=0
note_off channel=11 note=28 velocity=64 time=120
note_on channel=11 note=28 velocity=80 time=0
note_off channel=11 note=28 velocity=64 time=120
note_on channel=11 note=28 velocity=80 time=0
note_off channel=11 note=28 velocity=64 time=240
note_on channel=11 note=28 velocity=80 time=0
note_off channel=11 note=28 velocity=64 time=120
note_on channel=11 note=28 velocity=80 time=0
note_off channel=11 note=28 velocity=64 time=120
note_on channel=11 note=26 velocity=80 time=0
note_off channel=11 note=26 velocity=64 time=240
note_on channel=11 note=26 velocity=80 time=0
note_off channel=11 note=26 velocity=64 time=120
note_on channel=11 note=26 velocity=80 time=0
note_off channel=11 note=26 velocity=64 time=120
note_on channel=11 note=26 velocity=80 time=0
note_off channel=11 note=26 velocity=64 time=240
note_on channel=11 note=26 velocity=80 time=0
note_off channel=11 note=26 velocity=64 time=120
note_on channel=11 note=26 velocity=80 time=0
note_off channel=11 note=26 velocity=64 time=120
note_on channel=11 note=28 velocity=80 time=0
note_off channel=11 note=28 velocity=64 time=240
note_on channel=11 note=28 velocity=80 time=0
note_off channel=11 note=28 velocity=64 time=120
note_on channel=11 note=28 velocity=80 time=0
note_off channel=11 note=28 velocity=64 time=120
note_on channel=11 note=28 velocity=80 time=0
note_off channel=11 note=28 velocity=64 time=240
note_on channel=11 note=28 velocity=80 time=0
note_off channel=11 note=28 velocity=64 time=120
note_on channel=11 note=28 velocity=80 time=0
note_off channel=11 note=28 velocity=64 time=120
note_on channel=11 note=30 velocity=80 time=0
note_off channel=11 note=30 velocity=64 time=240
note_on channel=11 note=30 velocity=80 time=0
note_off channel=11 note=30 velocity=64 time=120
note_on channel=11 note=30 velocity=80 time=0
note_off channel=11 note=30 velocity=64 time=120
note_on channel=11 note=30 velocity=80 time=0
note_off channel=11 note=30 velocity=64 time=240
note_on channel=11 note=30 velocity=80 time=0
note_off channel=11 note=30 velocity=64 time=120
note_on channel=11 note=30 velocity=80 time=0
note_off channel=11 note=30 velocity=64 time=120
note_on channel=11 note=28 velocity=80 time=0
note_off channel=11 note=28 velocity=64 time=240
note_on channel=11 note=28 velocity=80 time=0
note_off channel=11 note=28 velocity=64 time=120
note_on channel=11 note=28 velocity=80 time=0
note_off channel=11 note=28 velocity=64 time=120
note_on channel=11 note=28 velocity=80 time=0
note_off channel=11 note=28 velocity=64 time=240
note_on channel=11 note=28 velocity=80 time=0
note_off channel=11 note=28 velocity=64 time=120
note_on channel=11 note=28 velocity=80 time=0
note_off channel=11 note=28 velocity=64 time=120
note_on channel=11 note=26 velocity=80 time=0
note_off channel=11 note=26 velocity=64 time=240
note_on channel=11 note=26 velocity=80 time=0
note_off channel=11 note=26 velocity=64 time=120
note_on channel=11 note=26 velocity=80 time=0
note_off channel=11 note=26 velocity=64 time=120
note_on channel=11 note=26 velocity=80 time=0
note_off channel=11 note=26 velocity=64 time=240
note_on channel=11 note=26 velocity=80 time=0
note_off channel=11 note=26 velocity=64 time=120
note_on channel=11 note=26 velocity=80 time=0
note_off channel=11 note=26 velocity=64 time=120
note_on channel=11 note=28 velocity=80 time=0
note_off channel=11 note=28 velocity=64 time=240
note_on channel=11 note=28 velocity=80 time=0
note_off channel=11 note=28 velocity=64 time=120
note_on channel=11 note=28 velocity=80 time=0
note_off channel=11 note=28 velocity=64 time=120
note_on channel=11 note=28 velocity=80 time=0
note_off channel=11 note=28 velocity=64 time=240
note_on channel=11 note=28 velocity=80 time=0
note_off channel=11 note=28 velocity=64 time=120
note_on channel=11 note=28 velocity=80 time=0
note_off channel=11 note=28 velocity=64 time=120
note_on channel=11 note=30 velocity=80 time=0
note_off channel=11 note=30 velocity=64 time=240
note_on channel=11 note=30 velocity=80 time=0
note_off channel=11 note=30 velocity=64 time=120
note_on channel=11 note=30 velocity=80 time=0
note_off channel=11 note=30 velocity=64 time=120
note_on channel=11 note=30 velocity=80 time=0
note_off channel=11 note=30 velocity=64 time=240
note_on channel=11 note=30 velocity=80 time=0
note_off channel=11 note=30 velocity=64 time=120
note_on channel=11 note=30 velocity=80 time=0
note_off channel=11 note=30 velocity=64 time=120
note_on channel=11 note=28 velocity=80 time=0
note_off channel=11 note=28 velocity=64 time=240
note_on channel=11 note=28 velocity=80 time=0
note_off channel=11 note=28 velocity=64 time=120
note_on channel=11 note=28 velocity=80 time=0
note_off channel=11 note=28 velocity=64 time=120
note_on channel=11 note=28 velocity=80 time=0
note_off channel=11 note=28 velocity=64 time=240
note_on channel=11 note=28 velocity=80 time=0
note_off channel=11 note=28 velocity=64 time=120
note_on channel=11 note=28 velocity=80 time=0
note_off channel=11 note=28 velocity=64 time=120
note_on channel=11 note=26 velocity=80 time=0
note_off channel=11 note=26 velocity=64 time=240
note_on channel=11 note=26 velocity=80 time=0
note_off channel=11 note=26 velocity=64 time=120
note_on channel=11 note=26 velocity=80 time=0
note_off channel=11 note=26 velocity=64 time=120
note_on channel=11 note=26 velocity=80 time=0
note_off channel=11 note=26 velocity=64 time=240
note_on channel=11 note=26 velocity=80 time=0
note_off channel=11 note=26 velocity=64 time=120
note_on channel=11 note=26 velocity=80 time=0
note_off channel=11 note=26 velocity=64 time=120
note_on channel=11 note=28 velocity=80 time=0
note_off channel=11 note=28 velocity=64 time=240
note_on channel=11 note=28 velocity=80 time=0
note_off channel=11 note=28 velocity=64 time=120
note_on channel=11 note=28 velocity=80 time=0
note_off channel=11 note=28 velocity=64 time=120
note_on channel=11 note=28 velocity=80 time=0
note_off channel=11 note=28 velocity=64 time=240
note_on channel=11 note=28 velocity=80 time=0
note_off channel=11 note=28 velocity=64 time=120
note_on channel=11 note=28 velocity=80 time=0
note_off channel=11 note=28 velocity=64 time=120
note_on channel=11 note=30 velocity=80 time=0
note_off channel=11 note=30 velocity=64 time=1920
MetaMessage('end_of_track', time=0)
MetaMessage('track_name', name='Drumkit', time=0)
program_change channel=9 program=0 time=0
note_on channel=9 note=49 velocity=80 time=0
note_on channel=9 note=38 velocity=80 time=0
note_on channel=9 note=35 velocity=80 time=0
note_off channel=9 note=49 velocity=64 time=240
note_off channel=9 note=38 velocity=64 time=0
note_off channel=9 note=35 velocity=64 time=0
note_on channel=9 note=49 velocity=80 time=0
note_on channel=9 note=38 velocity=80 time=0
note_on channel=9 note=35 velocity=80 time=0
note_off channel=9 note=49 velocity=64 time=240
note_off channel=9 note=38 velocity=64 time=0
note_off channel=9 note=35 velocity=64 time=0
note_on channel=9 note=49 velocity=80 time=240
note_on channel=9 note=38 velocity=80 time=0
note_on channel=9 note=35 velocity=80 time=0
note_off channel=9 note=49 velocity=64 time=240
note_off channel=9 note=38 velocity=64 time=0
note_off channel=9 note=35 velocity=64 time=0
note_on channel=9 note=49 velocity=80 time=0
note_on channel=9 note=38 velocity=80 time=0
note_on channel=9 note=35 velocity=80 time=0
note_off channel=9 note=49 velocity=64 time=240
note_off channel=9 note=38 velocity=64 time=0
note_off channel=9 note=35 velocity=64 time=0
note_on channel=9 note=49 velocity=80 time=240
note_on channel=9 note=38 velocity=80 time=0
note_on channel=9 note=35 velocity=80 time=0
note_off channel=9 note=49 velocity=64 time=240
note_off channel=9 note=38 velocity=64 time=0
note_off channel=9 note=35 velocity=64 time=0
note_on channel=9 note=49 velocity=80 time=0
note_on channel=9 note=38 velocity=80 time=0
note_on channel=9 note=35 velocity=80 time=0
note_off channel=9 note=49 velocity=64 time=240
note_off channel=9 note=38 velocity=64 time=0
note_off channel=9 note=35 velocity=64 time=0
note_on channel=9 note=49 velocity=80 time=240
note_on channel=9 note=38 velocity=80 time=0
note_on channel=9 note=35 velocity=80 time=0
note_off channel=9 note=49 velocity=64 time=240
note_off channel=9 note=38 velocity=64 time=0
note_off channel=9 note=35 velocity=64 time=0
note_on channel=9 note=49 velocity=80 time=0
note_on channel=9 note=38 velocity=80 time=0
note_on channel=9 note=35 velocity=80 time=0
note_off channel=9 note=49 velocity=64 time=240
note_off channel=9 note=38 velocity=64 time=0
note_off channel=9 note=35 velocity=64 time=0
note_on channel=9 note=46 velocity=80 time=240
note_on channel=9 note=38 velocity=80 time=0
note_on channel=9 note=35 velocity=80 time=0
note_off channel=9 note=46 velocity=64 time=240
note_off channel=9 note=38 velocity=64 time=0
note_off channel=9 note=35 velocity=64 time=0
note_on channel=9 note=35 velocity=80 time=0
note_off channel=9 note=35 velocity=64 time=120
note_on channel=9 note=35 velocity=80 time=0
note_off channel=9 note=35 velocity=64 time=120
note_on channel=9 note=53 velocity=80 time=0
note_on channel=9 note=38 velocity=80 time=0
note_on channel=9 note=35 velocity=80 time=0
note_off channel=9 note=53 velocity=64 time=240
note_off channel=9 note=38 velocity=64 time=0
note_off channel=9 note=35 velocity=64 time=0
note_on channel=9 note=53 velocity=80 time=0
note_on channel=9 note=38 velocity=80 time=0
note_on channel=9 note=35 velocity=80 time=0
note_off channel=9 note=53 velocity=64 time=240
note_off channel=9 note=38 velocity=64 time=0
note_off channel=9 note=35 velocity=64 time=0
note_on channel=9 note=49 velocity=80 time=0
note_on channel=9 note=38 velocity=80 time=0
note_on channel=9 note=35 velocity=80 time=0
note_off channel=9 note=49 velocity=64 time=240
note_off channel=9 note=38 velocity=64 time=0
note_off channel=9 note=35 velocity=64 time=0
note_on channel=9 note=49 velocity=80 time=0
note_on channel=9 note=38 velocity=80 time=0
note_on channel=9 note=35 velocity=80 time=0
note_off channel=9 note=49 velocity=64 time=240
note_off channel=9 note=38 velocity=64 time=0
note_off channel=9 note=35 velocity=64 time=0
note_on channel=9 note=49 velocity=80 time=240
note_on channel=9 note=38 velocity=80 time=0
note_on channel=9 note=35 velocity=80 time=0
note_off channel=9 note=49 velocity=64 time=240
note_off channel=9 note=38 velocity=64 time=0
note_off channel=9 note=35 velocity=64 time=0
note_on channel=9 note=49 velocity=80 time=0
note_on channel=9 note=38 velocity=80 time=0
note_on channel=9 note=35 velocity=80 time=0
note_off channel=9 note=49 velocity=64 time=240
note_off channel=9 note=38 velocity=64 time=0
note_off channel=9 note=35 velocity=64 time=0
note_on channel=9 note=49 velocity=80 time=240
note_on channel=9 note=38 velocity=80 time=0
note_on channel=9 note=35 velocity=80 time=0
note_off channel=9 note=49 velocity=64 time=240
note_off channel=9 note=38 velocity=64 time=0
note_off channel=9 note=35 velocity=64 time=0
note_on channel=9 note=49 velocity=80 time=0
note_on channel=9 note=38 velocity=80 time=0
note_on channel=9 note=35 velocity=80 time=0
note_off channel=9 note=49 velocity=64 time=240
note_off channel=9 note=38 velocity=64 time=0
note_off channel=9 note=35 velocity=64 time=0
note_on channel=9 note=49 velocity=80 time=240
note_on channel=9 note=38 velocity=80 time=0
note_on channel=9 note=35 velocity=80 time=0
note_off channel=9 note=49 velocity=64 time=240
note_off channel=9 note=38 velocity=64 time=0
note_off channel=9 note=35 velocity=64 time=0
note_on channel=9 note=49 velocity=80 time=0
note_on channel=9 note=38 velocity=80 time=0
note_on channel=9 note=35 velocity=80 time=0
note_off channel=9 note=49 velocity=64 time=240
note_off channel=9 note=38 velocity=64 time=0
note_off channel=9 note=35 velocity=64 time=0
note_on channel=9 note=46 velocity=80 time=240
note_on channel=9 note=38 velocity=80 time=0
note_on channel=9 note=35 velocity=80 time=0
note_off channel=9 note=46 velocity=64 time=240
note_off channel=9 note=38 velocity=64 time=0
note_off channel=9 note=35 velocity=64 time=0
note_on channel=9 note=35 velocity=80 time=0
note_off channel=9 note=35 velocity=64 time=120
note_on channel=9 note=35 velocity=80 time=0
note_off channel=9 note=35 velocity=64 time=120
note_on channel=9 note=53 velocity=80 time=0
note_on channel=9 note=38 velocity=80 time=0
note_on channel=9 note=35 velocity=80 time=0
note_off channel=9 note=53 velocity=64 time=240
note_off channel=9 note=38 velocity=64 time=0
note_off channel=9 note=35 velocity=64 time=0
note_on channel=9 note=53 velocity=80 time=0
note_on channel=9 note=38 velocity=80 time=0
note_on channel=9 note=35 velocity=80 time=0
note_off channel=9 note=53 velocity=64 time=240
note_off channel=9 note=38 velocity=64 time=0
note_off channel=9 note=35 velocity=64 time=0
note_on channel=9 note=49 velocity=80 time=0
note_on channel=9 note=38 velocity=80 time=0
note_on channel=9 note=35 velocity=80 time=0
note_off channel=9 note=49 velocity=64 time=240
note_off channel=9 note=38 velocity=64 time=0
note_off channel=9 note=35 velocity=64 time=0
note_on channel=9 note=49 velocity=80 time=0
note_on channel=9 note=38 velocity=80 time=0
note_on channel=9 note=35 velocity=80 time=0
note_off channel=9 note=49 velocity=64 time=240
note_off channel=9 note=38 velocity=64 time=0
note_off channel=9 note=35 velocity=64 time=0
note_on channel=9 note=49 velocity=80 time=240
note_on channel=9 note=38 velocity=80 time=0
note_on channel=9 note=35 velocity=80 time=0
note_off channel=9 note=49 velocity=64 time=240
note_off channel=9 note=38 velocity=64 time=0
note_off channel=9 note=35 velocity=64 time=0
note_on channel=9 note=49 velocity=80 time=0
note_on channel=9 note=38 velocity=80 time=0
note_on channel=9 note=35 velocity=80 time=0
note_off channel=9 note=49 velocity=64 time=240
note_off channel=9 note=38 velocity=64 time=0
note_off channel=9 note=35 velocity=64 time=0
note_on channel=9 note=49 velocity=80 time=240
note_on channel=9 note=38 velocity=80 time=0
note_on channel=9 note=35 velocity=80 time=0
note_off channel=9 note=49 velocity=64 time=240
note_off channel=9 note=38 velocity=64 time=0
note_off channel=9 note=35 velocity=64 time=0
note_on channel=9 note=49 velocity=80 time=0
note_on channel=9 note=38 velocity=80 time=0
note_on channel=9 note=35 velocity=80 time=0
note_off channel=9 note=49 velocity=64 time=240
note_off channel=9 note=38 velocity=64 time=0
note_off channel=9 note=35 velocity=64 time=0
note_on channel=9 note=49 velocity=80 time=240
note_on channel=9 note=38 velocity=80 time=0
note_on channel=9 note=35 velocity=80 time=0
note_off channel=9 note=49 velocity=64 time=240
note_off channel=9 note=38 velocity=64 time=0
note_off channel=9 note=35 velocity=64 time=0
note_on channel=9 note=49 velocity=80 time=0
note_on channel=9 note=38 velocity=80 time=0
note_on channel=9 note=35 velocity=80 time=0
note_off channel=9 note=49 velocity=64 time=240
note_off channel=9 note=38 velocity=64 time=0
note_off channel=9 note=35 velocity=64 time=0
note_on channel=9 note=46 velocity=80 time=240
note_on channel=9 note=38 velocity=80 time=0
note_on channel=9 note=35 velocity=80 time=0
note_off channel=9 note=46 velocity=64 time=240
note_off channel=9 note=38 velocity=64 time=0
note_off channel=9 note=35 velocity=64 time=0
note_on channel=9 note=35 velocity=80 time=0
note_off channel=9 note=35 velocity=64 time=120
note_on channel=9 note=35 velocity=80 time=0
note_off channel=9 note=35 velocity=64 time=120
note_on channel=9 note=53 velocity=80 time=0
note_on channel=9 note=38 velocity=80 time=0
note_on channel=9 note=35 velocity=80 time=0
note_off channel=9 note=53 velocity=64 time=240
note_off channel=9 note=38 velocity=64 time=0
note_off channel=9 note=35 velocity=64 time=0
note_on channel=9 note=53 velocity=80 time=0
note_on channel=9 note=38 velocity=80 time=0
note_on channel=9 note=35 velocity=80 time=0
note_off channel=9 note=53 velocity=64 time=240
note_off channel=9 note=38 velocity=64 time=0
note_off channel=9 note=35 velocity=64 time=0
note_on channel=9 note=49 velocity=80 time=0
note_on channel=9 note=38 velocity=80 time=0
note_on channel=9 note=35 velocity=80 time=0
note_off channel=9 note=49 velocity=64 time=240
note_off channel=9 note=38 velocity=64 time=0
note_off channel=9 note=35 velocity=64 time=0
note_on channel=9 note=49 velocity=80 time=0
note_on channel=9 note=38 velocity=80 time=0
note_on channel=9 note=35 velocity=80 time=0
note_off channel=9 note=49 velocity=64 time=240
note_off channel=9 note=38 velocity=64 time=0
note_off channel=9 note=35 velocity=64 time=0
note_on channel=9 note=49 velocity=80 time=240
note_on channel=9 note=38 velocity=80 time=0
note_on channel=9 note=35 velocity=80 time=0
note_off channel=9 note=49 velocity=64 time=240
note_off channel=9 note=38 velocity=64 time=0
note_off channel=9 note=35 velocity=64 time=0
note_on channel=9 note=49 velocity=80 time=0
note_on channel=9 note=38 velocity=80 time=0
note_on channel=9 note=35 velocity=80 time=0
note_off channel=9 note=49 velocity=64 time=240
note_off channel=9 note=38 velocity=64 time=0
note_off channel=9 note=35 velocity=64 time=0
note_on channel=9 note=49 velocity=80 time=240
note_on channel=9 note=38 velocity=80 time=0
note_on channel=9 note=35 velocity=80 time=0
note_off channel=9 note=49 velocity=64 time=240
note_off channel=9 note=38 velocity=64 time=0
note_off channel=9 note=35 velocity=64 time=0
note_on channel=9 note=49 velocity=80 time=0
note_on channel=9 note=38 velocity=80 time=0
note_on channel=9 note=35 velocity=80 time=0
note_off channel=9 note=49 velocity=64 time=240
note_off channel=9 note=38 velocity=64 time=0
note_off channel=9 note=35 velocity=64 time=0
note_on channel=9 note=49 velocity=80 time=240
note_on channel=9 note=38 velocity=80 time=0
note_on channel=9 note=35 velocity=80 time=0
note_off channel=9 note=49 velocity=64 time=240
note_off channel=9 note=38 velocity=64 time=0
note_off channel=9 note=35 velocity=64 time=0
note_on channel=9 note=49 velocity=80 time=0
note_on channel=9 note=38 velocity=80 time=0
note_on channel=9 note=35 velocity=80 time=0
note_off channel=9 note=49 velocity=64 time=240
note_off channel=9 note=38 velocity=64 time=0
note_off channel=9 note=35 velocity=64 time=0
note_on channel=9 note=46 velocity=80 time=240
note_on channel=9 note=38 velocity=80 time=0
note_on channel=9 note=35 velocity=80 time=0
note_off channel=9 note=46 velocity=64 time=240
note_off channel=9 note=38 velocity=64 time=0
note_off channel=9 note=35 velocity=64 time=0
note_on channel=9 note=38 velocity=80 time=0
note_off channel=9 note=38 velocity=64 time=240
note_on channel=9 note=38 velocity=80 time=0
note_off channel=9 note=38 velocity=64 time=240
note_on channel=9 note=38 velocity=80 time=0
note_off channel=9 note=38 velocity=64 time=240
note_on channel=9 note=49 velocity=80 time=0
note_on channel=9 note=35 velocity=80 time=0
note_off channel=9 note=49 velocity=64 time=120
note_off channel=9 note=35 velocity=64 time=0
note_on channel=9 note=35 velocity=80 time=0
note_off channel=9 note=35 velocity=64 time=120
note_on channel=9 note=35 velocity=80 time=0
note_off channel=9 note=35 velocity=64 time=120
note_on channel=9 note=35 velocity=80 time=0
note_off channel=9 note=35 velocity=64 time=120
note_on channel=9 note=46 velocity=80 time=0
note_on channel=9 note=38 velocity=80 time=0
note_on channel=9 note=35 velocity=80 time=0
note_off channel=9 note=46 velocity=64 time=240
note_off channel=9 note=38 velocity=64 time=0
note_off channel=9 note=35 velocity=64 time=0
note_on channel=9 note=35 velocity=80 time=0
note_off channel=9 note=35 velocity=64 time=240
note_on channel=9 note=46 velocity=80 time=0
note_on channel=9 note=35 velocity=80 time=0
note_off channel=9 note=46 velocity=64 time=240
note_off channel=9 note=35 velocity=64 time=0
note_on channel=9 note=35 velocity=80 time=120
note_off channel=9 note=35 velocity=64 time=120
note_on channel=9 note=46 velocity=80 time=0
note_on channel=9 note=38 velocity=80 time=0
note_on channel=9 note=35 velocity=80 time=0
note_off channel=9 note=46 velocity=64 time=240
note_off channel=9 note=38 velocity=64 time=0
note_off channel=9 note=35 velocity=64 time=0
note_on channel=9 note=35 velocity=80 time=0
note_off channel=9 note=35 velocity=64 time=240
note_on channel=9 note=49 velocity=80 time=0
note_on channel=9 note=35 velocity=80 time=0
note_off channel=9 note=49 velocity=64 time=120
note_off channel=9 note=35 velocity=64 time=0
note_on channel=9 note=35 velocity=80 time=0
note_off channel=9 note=35 velocity=64 time=120
note_on channel=9 note=35 velocity=80 time=0
note_off channel=9 note=35 velocity=64 time=120
note_on channel=9 note=35 velocity=80 time=0
note_off channel=9 note=35 velocity=64 time=120
note_on channel=9 note=46 velocity=80 time=0
note_on channel=9 note=38 velocity=80 time=0
note_on channel=9 note=35 velocity=80 time=0
note_off channel=9 note=46 velocity=64 time=240
note_off channel=9 note=38 velocity=64 time=0
note_off channel=9 note=35 velocity=64 time=0
note_on channel=9 note=35 velocity=80 time=0
note_off channel=9 note=35 velocity=64 time=240
note_on channel=9 note=46 velocity=80 time=0
note_on channel=9 note=35 velocity=80 time=0
note_off channel=9 note=46 velocity=64 time=240
note_off channel=9 note=35 velocity=64 time=0
note_on channel=9 note=35 velocity=80 time=120
note_off channel=9 note=35 velocity=64 time=120
note_on channel=9 note=46 velocity=80 time=0
note_on channel=9 note=38 velocity=80 time=0
note_off channel=9 note=46 velocity=64 time=240
note_off channel=9 note=38 velocity=64 time=0
note_on channel=9 note=35 velocity=80 time=0
note_off channel=9 note=35 velocity=64 time=240
note_on channel=9 note=49 velocity=80 time=0
note_on channel=9 note=38 velocity=80 time=0
note_on channel=9 note=35 velocity=80 time=0
note_off channel=9 note=49 velocity=64 time=120
note_off channel=9 note=38 velocity=64 time=0
note_off channel=9 note=35 velocity=64 time=0
note_on channel=9 note=49 velocity=80 time=120
note_on channel=9 note=38 velocity=80 time=0
note_on channel=9 note=35 velocity=80 time=0
note_off channel=9 note=49 velocity=64 time=120
note_off channel=9 note=38 velocity=64 time=0
note_off channel=9 note=35 velocity=64 time=0
note_on channel=9 note=35 velocity=80 time=120
note_off channel=9 note=35 velocity=64 time=120
note_on channel=9 note=35 velocity=80 time=0
note_off channel=9 note=35 velocity=64 time=120
note_on channel=9 note=49 velocity=80 time=0
note_on channel=9 note=38 velocity=80 time=0
note_on channel=9 note=35 velocity=80 time=0
note_off channel=9 note=49 velocity=64 time=120
note_off channel=9 note=38 velocity=64 time=0
note_off channel=9 note=35 velocity=64 time=0
note_on channel=9 note=49 velocity=80 time=120
note_on channel=9 note=38 velocity=80 time=0
note_on channel=9 note=35 velocity=80 time=0
note_off channel=9 note=49 velocity=64 time=120
note_off channel=9 note=38 velocity=64 time=0
note_off channel=9 note=35 velocity=64 time=0
note_on channel=9 note=35 velocity=80 time=120
note_off channel=9 note=35 velocity=64 time=120
note_on channel=9 note=35 velocity=80 time=0
note_off channel=9 note=35 velocity=64 time=120
note_on channel=9 note=49 velocity=80 time=0
note_on channel=9 note=38 velocity=80 time=0
note_on channel=9 note=35 velocity=80 time=0
note_off channel=9 note=49 velocity=64 time=120
note_off channel=9 note=38 velocity=64 time=0
note_off channel=9 note=35 velocity=64 time=0
note_on channel=9 note=49 velocity=80 time=120
note_on channel=9 note=38 velocity=80 time=0
note_on channel=9 note=35 velocity=80 time=0
note_off channel=9 note=49 velocity=64 time=120
note_off channel=9 note=38 velocity=64 time=0
note_off channel=9 note=35 velocity=64 time=0
note_on channel=9 note=35 velocity=80 time=0
note_off channel=9 note=35 velocity=64 time=120
note_on channel=9 note=49 velocity=80 time=0
note_on channel=9 note=35 velocity=80 time=0
note_off channel=9 note=49 velocity=64 time=120
note_off channel=9 note=35 velocity=64 time=0
note_on channel=9 note=35 velocity=80 time=0
note_off channel=9 note=35 velocity=64 time=120
note_on channel=9 note=46 velocity=80 time=0
note_on channel=9 note=38 velocity=80 time=0
note_on channel=9 note=35 velocity=80 time=0
note_off channel=9 note=46 velocity=64 time=120
note_off channel=9 note=38 velocity=64 time=0
note_off channel=9 note=35 velocity=64 time=0
note_on channel=9 note=35 velocity=80 time=0
note_off channel=9 note=35 velocity=64 time=120
note_on channel=9 note=46 velocity=80 time=0
note_on channel=9 note=35 velocity=80 time=0
note_off channel=9 note=46 velocity=64 time=120
note_off channel=9 note=35 velocity=64 time=0
note_on channel=9 note=35 velocity=80 time=0
note_off channel=9 note=35 velocity=64 time=120
note_on channel=9 note=46 velocity=80 time=0
note_on channel=9 note=38 velocity=80 time=0
note_on channel=9 note=35 velocity=80 time=0
note_off channel=9 note=46 velocity=64 time=120
note_off channel=9 note=38 velocity=64 time=0
note_off channel=9 note=35 velocity=64 time=0
note_on channel=9 note=35 velocity=80 time=0
note_off channel=9 note=35 velocity=64 time=120
note_on channel=9 note=46 velocity=80 time=0
note_on channel=9 note=35 velocity=80 time=0
note_off channel=9 note=46 velocity=64 time=120
note_off channel=9 note=35 velocity=64 time=0
note_on channel=9 note=35 velocity=80 time=0
note_off channel=9 note=35 velocity=64 time=120
note_on channel=9 note=46 velocity=80 time=0
note_on channel=9 note=38 velocity=80 time=0
note_on channel=9 note=35 velocity=80 time=0
note_off channel=9 note=46 velocity=64 time=120
note_off channel=9 note=38 velocity=64 time=0
note_off channel=9 note=35 velocity=64 time=0
note_on channel=9 note=35 velocity=80 time=0
note_off channel=9 note=35 velocity=64 time=120
note_on channel=9 note=46 velocity=80 time=0
note_on channel=9 note=35 velocity=80 time=0
note_off channel=9 note=46 velocity=64 time=120
note_off channel=9 note=35 velocity=64 time=0
note_on channel=9 note=35 velocity=80 time=0
note_off channel=9 note=35 velocity=64 time=120
note_on channel=9 note=46 velocity=80 time=0
note_on channel=9 note=38 velocity=80 time=0
note_on channel=9 note=35 velocity=80 time=0
note_off channel=9 note=46 velocity=64 time=120
note_off channel=9 note=38 velocity=64 time=0
note_off channel=9 note=35 velocity=64 time=0
note_on channel=9 note=35 velocity=80 time=0
note_off channel=9 note=35 velocity=64 time=120
note_on channel=9 note=49 velocity=80 time=0
note_on channel=9 note=35 velocity=80 time=0
note_off channel=9 note=49 velocity=64 time=120
note_off channel=9 note=35 velocity=64 time=0
note_on channel=9 note=35 velocity=80 time=0
note_off channel=9 note=35 velocity=64 time=120
note_on channel=9 note=35 velocity=80 time=0
note_off channel=9 note=35 velocity=64 time=120
note_on channel=9 note=35 velocity=80 time=0
note_off channel=9 note=35 velocity=64 time=120
note_on channel=9 note=46 velocity=80 time=0
note_on channel=9 note=38 velocity=80 time=0
note_on channel=9 note=35 velocity=80 time=0
note_off channel=9 note=46 velocity=64 time=240
note_off channel=9 note=38 velocity=64 time=0
note_off channel=9 note=35 velocity=64 time=0
note_on channel=9 note=35 velocity=80 time=0
note_off channel=9 note=35 velocity=64 time=240
note_on channel=9 note=46 velocity=80 time=0
note_on channel=9 note=35 velocity=80 time=0
note_off channel=9 note=46 velocity=64 time=240
note_off channel=9 note=35 velocity=64 time=0
note_on channel=9 note=35 velocity=80 time=120
note_off channel=9 note=35 velocity=64 time=120
note_on channel=9 note=46 velocity=80 time=0
note_on channel=9 note=38 velocity=80 time=0
note_on channel=9 note=35 velocity=80 time=0
note_off channel=9 note=46 velocity=64 time=240
note_off channel=9 note=38 velocity=64 time=0
note_off channel=9 note=35 velocity=64 time=0
note_on channel=9 note=35 velocity=80 time=0
note_off channel=9 note=35 velocity=64 time=240
note_on channel=9 note=49 velocity=80 time=0
note_on channel=9 note=35 velocity=80 time=0
note_off channel=9 note=49 velocity=64 time=120
note_off channel=9 note=35 velocity=64 time=0
note_on channel=9 note=35 velocity=80 time=0
note_off channel=9 note=35 velocity=64 time=120
note_on channel=9 note=35 velocity=80 time=0
note_off channel=9 note=35 velocity=64 time=120
note_on channel=9 note=35 velocity=80 time=0
note_off channel=9 note=35 velocity=64 time=120
note_on channel=9 note=46 velocity=80 time=0
note_on channel=9 note=38 velocity=80 time=0
note_on channel=9 note=35 velocity=80 time=0
note_off channel=9 note=46 velocity=64 time=240
note_off channel=9 note=38 velocity=64 time=0
note_off channel=9 note=35 velocity=64 time=0
note_on channel=9 note=35 velocity=80 time=0
note_off channel=9 note=35 velocity=64 time=240
note_on channel=9 note=46 velocity=80 time=0
note_on channel=9 note=35 velocity=80 time=0
note_off channel=9 note=46 velocity=64 time=240
note_off channel=9 note=35 velocity=64 time=0
note_on channel=9 note=35 velocity=80 time=120
note_off channel=9 note=35 velocity=64 time=120
note_on channel=9 note=46 velocity=80 time=0
note_on channel=9 note=38 velocity=80 time=0
note_off channel=9 note=46 velocity=64 time=240
note_off channel=9 note=38 velocity=64 time=0
note_on channel=9 note=35 velocity=80 time=0
note_off channel=9 note=35 velocity=64 time=240
note_on channel=9 note=49 velocity=80 time=0
note_on channel=9 note=38 velocity=80 time=0
note_on channel=9 note=35 velocity=80 time=0
note_off channel=9 note=49 velocity=64 time=120
note_off channel=9 note=38 velocity=64 time=0
note_off channel=9 note=35 velocity=64 time=0
note_on channel=9 note=49 velocity=80 time=120
note_on channel=9 note=38 velocity=80 time=0
note_on channel=9 note=35 velocity=80 time=0
note_off channel=9 note=49 velocity=64 time=120
note_off channel=9 note=38 velocity=64 time=0
note_off channel=9 note=35 velocity=64 time=0
note_on channel=9 note=35 velocity=80 time=120
note_off channel=9 note=35 velocity=64 time=120
note_on channel=9 note=35 velocity=80 time=0
note_off channel=9 note=35 velocity=64 time=120
note_on channel=9 note=49 velocity=80 time=0
note_on channel=9 note=38 velocity=80 time=0
note_on channel=9 note=35 velocity=80 time=0
note_off channel=9 note=49 velocity=64 time=120
note_off channel=9 note=38 velocity=64 time=0
note_off channel=9 note=35 velocity=64 time=0
note_on channel=9 note=49 velocity=80 time=120
note_on channel=9 note=38 velocity=80 time=0
note_on channel=9 note=35 velocity=80 time=0
note_off channel=9 note=49 velocity=64 time=120
note_off channel=9 note=38 velocity=64 time=0
note_off channel=9 note=35 velocity=64 time=0
note_on channel=9 note=35 velocity=80 time=120
note_off channel=9 note=35 velocity=64 time=120
note_on channel=9 note=35 velocity=80 time=0
note_off channel=9 note=35 velocity=64 time=120
note_on channel=9 note=49 velocity=80 time=0
note_on channel=9 note=38 velocity=80 time=0
note_on channel=9 note=35 velocity=80 time=0
note_off channel=9 note=49 velocity=64 time=120
note_off channel=9 note=38 velocity=64 time=0
note_off channel=9 note=35 velocity=64 time=0
note_on channel=9 note=49 velocity=80 time=120
note_on channel=9 note=38 velocity=80 time=0
note_on channel=9 note=35 velocity=80 time=0
note_off channel=9 note=49 velocity=64 time=120
note_off channel=9 note=38 velocity=64 time=0
note_off channel=9 note=35 velocity=64 time=0
note_on channel=9 note=35 velocity=80 time=0
note_off channel=9 note=35 velocity=64 time=120
note_on channel=9 note=49 velocity=80 time=0
note_on channel=9 note=35 velocity=80 time=0
note_off channel=9 note=49 velocity=64 time=120
note_off channel=9 note=35 velocity=64 time=0
note_on channel=9 note=35 velocity=80 time=0
note_off channel=9 note=35 velocity=64 time=120
note_on channel=9 note=46 velocity=80 time=0
note_on channel=9 note=38 velocity=80 time=0
note_on channel=9 note=35 velocity=80 time=0
note_off channel=9 note=46 velocity=64 time=120
note_off channel=9 note=38 velocity=64 time=0
note_off channel=9 note=35 velocity=64 time=0
note_on channel=9 note=35 velocity=80 time=0
note_off channel=9 note=35 velocity=64 time=120
note_on channel=9 note=46 velocity=80 time=0
note_on channel=9 note=35 velocity=80 time=0
note_off channel=9 note=46 velocity=64 time=120
note_off channel=9 note=35 velocity=64 time=0
note_on channel=9 note=35 velocity=80 time=0
note_off channel=9 note=35 velocity=64 time=120
note_on channel=9 note=46 velocity=80 time=0
note_on channel=9 note=38 velocity=80 time=0
note_on channel=9 note=35 velocity=80 time=0
note_off channel=9 note=46 velocity=64 time=120
note_off channel=9 note=38 velocity=64 time=0
note_off channel=9 note=35 velocity=64 time=0
note_on channel=9 note=35 velocity=80 time=0
note_off channel=9 note=35 velocity=64 time=120
note_on channel=9 note=46 velocity=80 time=0
note_on channel=9 note=35 velocity=80 time=0
note_off channel=9 note=46 velocity=64 time=120
note_off channel=9 note=35 velocity=64 time=0
note_on channel=9 note=35 velocity=80 time=0
note_off channel=9 note=35 velocity=64 time=120
note_on channel=9 note=46 velocity=80 time=0
note_on channel=9 note=38 velocity=80 time=0
note_on channel=9 note=35 velocity=80 time=0
note_off channel=9 note=46 velocity=64 time=120
note_off channel=9 note=38 velocity=64 time=0
note_off channel=9 note=35 velocity=64 time=0
note_on channel=9 note=35 velocity=80 time=0
note_off channel=9 note=35 velocity=64 time=120
note_on channel=9 note=46 velocity=80 time=0
note_on channel=9 note=35 velocity=80 time=0
note_off channel=9 note=46 velocity=64 time=120
note_off channel=9 note=35 velocity=64 time=0
note_on channel=9 note=35 velocity=80 time=0
note_off channel=9 note=35 velocity=64 time=120
note_on channel=9 note=46 velocity=80 time=0
note_on channel=9 note=38 velocity=80 time=0
note_on channel=9 note=35 velocity=80 time=0
note_off channel=9 note=46 velocity=64 time=120
note_off channel=9 note=38 velocity=64 time=0
note_off channel=9 note=35 velocity=64 time=0
note_on channel=9 note=35 velocity=80 time=0
note_off channel=9 note=35 velocity=64 time=120
note_on channel=9 note=49 velocity=80 time=0
note_on channel=9 note=38 velocity=80 time=0
note_on channel=9 note=35 velocity=80 time=0
note_off channel=9 note=49 velocity=64 time=240
note_off channel=9 note=38 velocity=64 time=0
note_off channel=9 note=35 velocity=64 time=0
note_on channel=9 note=49 velocity=80 time=0
note_on channel=9 note=38 velocity=80 time=0
note_on channel=9 note=35 velocity=80 time=0
note_off channel=9 note=49 velocity=64 time=240
note_off channel=9 note=38 velocity=64 time=0
note_off channel=9 note=35 velocity=64 time=0
note_on channel=9 note=46 velocity=80 time=0
note_off channel=9 note=46 velocity=64 time=240
note_on channel=9 note=35 velocity=80 time=0
note_off channel=9 note=35 velocity=64 time=240
note_on channel=9 note=46 velocity=80 time=0
note_on channel=9 note=35 velocity=80 time=0
note_off channel=9 note=46 velocity=64 time=240
note_off channel=9 note=35 velocity=64 time=0
note_on channel=9 note=46 velocity=80 time=240
note_on channel=9 note=38 velocity=80 time=0
note_on channel=9 note=35 velocity=80 time=0
note_off channel=9 note=46 velocity=64 time=240
note_off channel=9 note=38 velocity=64 time=0
note_off channel=9 note=35 velocity=64 time=0
note_on channel=9 note=35 velocity=80 time=0
note_off channel=9 note=35 velocity=64 time=240
note_on channel=9 note=49 velocity=80 time=0
note_on channel=9 note=38 velocity=80 time=0
note_on channel=9 note=35 velocity=80 time=0
note_off channel=9 note=49 velocity=64 time=240
note_off channel=9 note=38 velocity=64 time=0
note_off channel=9 note=35 velocity=64 time=0
note_on channel=9 note=49 velocity=80 time=0
note_on channel=9 note=38 velocity=80 time=0
note_on channel=9 note=35 velocity=80 time=0
note_off channel=9 note=49 velocity=64 time=240
note_off channel=9 note=38 velocity=64 time=0
note_off channel=9 note=35 velocity=64 time=0
note_on channel=9 note=46 velocity=80 time=0
note_off channel=9 note=46 velocity=64 time=240
note_on channel=9 note=35 velocity=80 time=0
note_off channel=9 note=35 velocity=64 time=240
note_on channel=9 note=46 velocity=80 time=0
note_on channel=9 note=35 velocity=80 time=0
note_off channel=9 note=46 velocity=64 time=240
note_off channel=9 note=35 velocity=64 time=0
note_on channel=9 note=46 velocity=80 time=240
note_on channel=9 note=38 velocity=80 time=0
note_on channel=9 note=35 velocity=80 time=0
note_off channel=9 note=46 velocity=64 time=240
note_off channel=9 note=38 velocity=64 time=0
note_off channel=9 note=35 velocity=64 time=0
note_on channel=9 note=35 velocity=80 time=0
note_off channel=9 note=35 velocity=64 time=240
note_on channel=9 note=49 velocity=80 time=0
note_on channel=9 note=38 velocity=80 time=0
note_on channel=9 note=35 velocity=80 time=0
note_off channel=9 note=49 velocity=64 time=240
note_off channel=9 note=38 velocity=64 time=0
note_off channel=9 note=35 velocity=64 time=0
note_on channel=9 note=35 velocity=80 time=0
note_off channel=9 note=35 velocity=64 time=120
note_on channel=9 note=35 velocity=80 time=0
note_off channel=9 note=35 velocity=64 time=120
note_on channel=9 note=49 velocity=80 time=0
note_on channel=9 note=38 velocity=80 time=0
note_on channel=9 note=35 velocity=80 time=0
note_off channel=9 note=49 velocity=64 time=240
note_off channel=9 note=38 velocity=64 time=0
note_off channel=9 note=35 velocity=64 time=0
note_on channel=9 note=49 velocity=80 time=240
note_on channel=9 note=35 velocity=80 time=0
note_off channel=9 note=49 velocity=64 time=240
note_off channel=9 note=35 velocity=64 time=0
note_on channel=9 note=35 velocity=80 time=0
note_off channel=9 note=35 velocity=64 time=240
note_on channel=9 note=49 velocity=80 time=0
note_on channel=9 note=38 velocity=80 time=0
note_on channel=9 note=35 velocity=80 time=0
note_off channel=9 note=49 velocity=64 time=120
note_off channel=9 note=38 velocity=64 time=0
note_off channel=9 note=35 velocity=64 time=0
note_on channel=9 note=35 velocity=80 time=0
note_off channel=9 note=35 velocity=64 time=120
note_on channel=9 note=35 velocity=80 time=0
note_off channel=9 note=35 velocity=64 time=120
note_on channel=9 note=35 velocity=80 time=0
note_off channel=9 note=35 velocity=64 time=120
note_on channel=9 note=46 velocity=80 time=0
note_on channel=9 note=38 velocity=80 time=0
note_off channel=9 note=46 velocity=64 time=240
note_off channel=9 note=38 velocity=64 time=0
note_on channel=9 note=35 velocity=80 time=0
note_off channel=9 note=35 velocity=64 time=120
note_on channel=9 note=35 velocity=80 time=0
note_off channel=9 note=35 velocity=64 time=120
note_on channel=9 note=46 velocity=80 time=0
note_on channel=9 note=38 velocity=80 time=0
note_off channel=9 note=46 velocity=64 time=240
note_off channel=9 note=38 velocity=64 time=0
note_on channel=9 note=35 velocity=80 time=0
note_off channel=9 note=35 velocity=64 time=240
note_on channel=9 note=46 velocity=80 time=0
note_on channel=9 note=38 velocity=80 time=0
note_off channel=9 note=46 velocity=64 time=240
note_off channel=9 note=38 velocity=64 time=0
note_on channel=9 note=51 velocity=80 time=0
note_on channel=9 note=35 velocity=80 time=0
note_off channel=9 note=51 velocity=64 time=120
note_off channel=9 note=35 velocity=64 time=0
note_on channel=9 note=35 velocity=80 time=0
note_off channel=9 note=35 velocity=64 time=120
note_on channel=9 note=53 velocity=80 time=0
note_on channel=9 note=38 velocity=80 time=0
note_off channel=9 note=53 velocity=64 time=240
note_off channel=9 note=38 velocity=64 time=0
note_on channel=9 note=51 velocity=80 time=0
note_on channel=9 note=35 velocity=80 time=0
note_off channel=9 note=51 velocity=64 time=120
note_off channel=9 note=35 velocity=64 time=0
note_on channel=9 note=35 velocity=80 time=0
note_off channel=9 note=35 velocity=64 time=120
note_on channel=9 note=49 velocity=80 time=0
note_on channel=9 note=38 velocity=80 time=0
note_on channel=9 note=35 velocity=80 time=0
note_off channel=9 note=49 velocity=64 time=240
note_off channel=9 note=38 velocity=64 time=0
note_off channel=9 note=35 velocity=64 time=0
note_on channel=9 note=49 velocity=80 time=0
note_on channel=9 note=38 velocity=80 time=0
note_on channel=9 note=35 velocity=80 time=0
note_off channel=9 note=49 velocity=64 time=240
note_off channel=9 note=38 velocity=64 time=0
note_off channel=9 note=35 velocity=64 time=0
note_on channel=9 note=46 velocity=80 time=0
note_off channel=9 note=46 velocity=64 time=240
note_on channel=9 note=35 velocity=80 time=0
note_off channel=9 note=35 velocity=64 time=240
note_on channel=9 note=46 velocity=80 time=0
note_on channel=9 note=35 velocity=80 time=0
note_off channel=9 note=46 velocity=64 time=240
note_off channel=9 note=35 velocity=64 time=0
note_on channel=9 note=46 velocity=80 time=240
note_on channel=9 note=38 velocity=80 time=0
note_on channel=9 note=35 velocity=80 time=0
note_off channel=9 note=46 velocity=64 time=240
note_off channel=9 note=38 velocity=64 time=0
note_off channel=9 note=35 velocity=64 time=0
note_on channel=9 note=35 velocity=80 time=0
note_off channel=9 note=35 velocity=64 time=240
note_on channel=9 note=49 velocity=80 time=0
note_on channel=9 note=38 velocity=80 time=0
note_on channel=9 note=35 velocity=80 time=0
note_off channel=9 note=49 velocity=64 time=240
note_off channel=9 note=38 velocity=64 time=0
note_off channel=9 note=35 velocity=64 time=0
note_on channel=9 note=49 velocity=80 time=0
note_on channel=9 note=38 velocity=80 time=0
note_on channel=9 note=35 velocity=80 time=0
note_off channel=9 note=49 velocity=64 time=240
note_off channel=9 note=38 velocity=64 time=0
note_off channel=9 note=35 velocity=64 time=0
note_on channel=9 note=46 velocity=80 time=0
note_off channel=9 note=46 velocity=64 time=240
note_on channel=9 note=35 velocity=80 time=0
note_off channel=9 note=35 velocity=64 time=240
note_on channel=9 note=46 velocity=80 time=0
note_on channel=9 note=35 velocity=80 time=0
note_off channel=9 note=46 velocity=64 time=240
note_off channel=9 note=35 velocity=64 time=0
note_on channel=9 note=46 velocity=80 time=240
note_on channel=9 note=38 velocity=80 time=0
note_on channel=9 note=35 velocity=80 time=0
note_off channel=9 note=46 velocity=64 time=240
note_off channel=9 note=38 velocity=64 time=0
note_off channel=9 note=35 velocity=64 time=0
note_on channel=9 note=35 velocity=80 time=0
note_off channel=9 note=35 velocity=64 time=240
note_on channel=9 note=49 velocity=80 time=0
note_on channel=9 note=38 velocity=80 time=0
note_on channel=9 note=35 velocity=80 time=0
note_off channel=9 note=49 velocity=64 time=240
note_off channel=9 note=38 velocity=64 time=0
note_off channel=9 note=35 velocity=64 time=0
note_on channel=9 note=35 velocity=80 time=0
note_off channel=9 note=35 velocity=64 time=120
note_on channel=9 note=35 velocity=80 time=0
note_off channel=9 note=35 velocity=64 time=120
note_on channel=9 note=49 velocity=80 time=0
note_on channel=9 note=38 velocity=80 time=0
note_on channel=9 note=35 velocity=80 time=0
note_off channel=9 note=49 velocity=64 time=240
note_off channel=9 note=38 velocity=64 time=0
note_off channel=9 note=35 velocity=64 time=0
note_on channel=9 note=49 velocity=80 time=240
note_on channel=9 note=35 velocity=80 time=0
note_off channel=9 note=49 velocity=64 time=240
note_off channel=9 note=35 velocity=64 time=0
note_on channel=9 note=35 velocity=80 time=0
note_off channel=9 note=35 velocity=64 time=240
note_on channel=9 note=49 velocity=80 time=0
note_on channel=9 note=38 velocity=80 time=0
note_on channel=9 note=35 velocity=80 time=0
note_off channel=9 note=49 velocity=64 time=120
note_off channel=9 note=38 velocity=64 time=0
note_off channel=9 note=35 velocity=64 time=0
note_on channel=9 note=35 velocity=80 time=0
note_off channel=9 note=35 velocity=64 time=120
note_on channel=9 note=35 velocity=80 time=0
note_off channel=9 note=35 velocity=64 time=120
note_on channel=9 note=35 velocity=80 time=0
note_off channel=9 note=35 velocity=64 time=120
note_on channel=9 note=46 velocity=80 time=0
note_on channel=9 note=38 velocity=80 time=0
note_off channel=9 note=46 velocity=64 time=240
note_off channel=9 note=38 velocity=64 time=0
note_on channel=9 note=35 velocity=80 time=0
note_off channel=9 note=35 velocity=64 time=120
note_on channel=9 note=35 velocity=80 time=0
note_off channel=9 note=35 velocity=64 time=120
note_on channel=9 note=46 velocity=80 time=0
note_on channel=9 note=38 velocity=80 time=0
note_off channel=9 note=46 velocity=64 time=240
note_off channel=9 note=38 velocity=64 time=0
note_on channel=9 note=35 velocity=80 time=0
note_off channel=9 note=35 velocity=64 time=240
note_on channel=9 note=46 velocity=80 time=0
note_on channel=9 note=38 velocity=80 time=0
note_off channel=9 note=46 velocity=64 time=180
note_off channel=9 note=38 velocity=64 time=0
note_on channel=9 note=48 velocity=72 time=0
note_off channel=9 note=48 velocity=64 time=60
note_on channel=9 note=48 velocity=80 time=0
note_on channel=9 note=35 velocity=80 time=0
note_off channel=9 note=48 velocity=64 time=240
note_off channel=9 note=35 velocity=64 time=0
note_on channel=9 note=47 velocity=80 time=0
note_on channel=9 note=38 velocity=80 time=0
note_on channel=9 note=35 velocity=80 time=0
note_off channel=9 note=47 velocity=64 time=240
note_off channel=9 note=38 velocity=64 time=0
note_off channel=9 note=35 velocity=64 time=0
note_on channel=9 note=45 velocity=80 time=0
note_on channel=9 note=35 velocity=80 time=0
note_off channel=9 note=45 velocity=64 time=240
note_off channel=9 note=35 velocity=64 time=0
note_on channel=9 note=49 velocity=80 time=0
note_on channel=9 note=35 velocity=80 time=0
note_off channel=9 note=49 velocity=64 time=120
note_off channel=9 note=35 velocity=64 time=0
note_on channel=9 note=35 velocity=80 time=0
note_off channel=9 note=35 velocity=64 time=120
note_on channel=9 note=35 velocity=80 time=0
note_off channel=9 note=35 velocity=64 time=120
note_on channel=9 note=35 velocity=80 time=0
note_off channel=9 note=35 velocity=64 time=120
note_on channel=9 note=46 velocity=80 time=0
note_on channel=9 note=38 velocity=80 time=0
note_on channel=9 note=35 velocity=80 time=0
note_off channel=9 note=46 velocity=64 time=240
note_off channel=9 note=38 velocity=64 time=0
note_off channel=9 note=35 velocity=64 time=0
note_on channel=9 note=35 velocity=80 time=0
note_off channel=9 note=35 velocity=64 time=240
note_on channel=9 note=46 velocity=80 time=0
note_on channel=9 note=35 velocity=80 time=0
note_off channel=9 note=46 velocity=64 time=240
note_off channel=9 note=35 velocity=64 time=0
note_on channel=9 note=35 velocity=80 time=0
note_off channel=9 note=35 velocity=64 time=120
note_on channel=9 note=35 velocity=80 time=0
note_off channel=9 note=35 velocity=64 time=120
note_on channel=9 note=46 velocity=80 time=0
note_on channel=9 note=38 velocity=80 time=0
note_on channel=9 note=35 velocity=80 time=0
note_off channel=9 note=46 velocity=64 time=240
note_off channel=9 note=38 velocity=64 time=0
note_off channel=9 note=35 velocity=64 time=0
note_on channel=9 note=35 velocity=80 time=0
note_off channel=9 note=35 velocity=64 time=240
note_on channel=9 note=46 velocity=80 time=0
note_on channel=9 note=35 velocity=80 time=0
note_off channel=9 note=46 velocity=64 time=240
note_off channel=9 note=35 velocity=64 time=0
note_on channel=9 note=35 velocity=80 time=0
note_off channel=9 note=35 velocity=64 time=120
note_on channel=9 note=35 velocity=80 time=0
note_off channel=9 note=35 velocity=64 time=120
note_on channel=9 note=46 velocity=80 time=0
note_on channel=9 note=38 velocity=80 time=0
note_on channel=9 note=35 velocity=80 time=0
note_off channel=9 note=46 velocity=64 time=240
note_off channel=9 note=38 velocity=64 time=0
note_off channel=9 note=35 velocity=64 time=0
note_on channel=9 note=35 velocity=80 time=0
note_off channel=9 note=35 velocity=64 time=240
note_on channel=9 note=46 velocity=80 time=0
note_on channel=9 note=35 velocity=80 time=0
note_off channel=9 note=46 velocity=64 time=240
note_off channel=9 note=35 velocity=64 time=0
note_on channel=9 note=35 velocity=80 time=0
note_off channel=9 note=35 velocity=64 time=120
note_on channel=9 note=35 velocity=80 time=0
note_off channel=9 note=35 velocity=64 time=120
note_on channel=9 note=46 velocity=80 time=0
note_on channel=9 note=38 velocity=80 time=0
note_on channel=9 note=35 velocity=80 time=0
note_off channel=9 note=46 velocity=64 time=240
note_off channel=9 note=38 velocity=64 time=0
note_off channel=9 note=35 velocity=64 time=0
note_on channel=9 note=35 velocity=80 time=0
note_off channel=9 note=35 velocity=64 time=240
note_on channel=9 note=49 velocity=80 time=0
note_on channel=9 note=38 velocity=80 time=0
note_on channel=9 note=35 velocity=80 time=0
note_off channel=9 note=49 velocity=64 time=240
note_off channel=9 note=38 velocity=64 time=0
note_off channel=9 note=35 velocity=64 time=0
note_on channel=9 note=35 velocity=80 time=0
note_off channel=9 note=35 velocity=64 time=120
note_on channel=9 note=35 velocity=80 time=0
note_off channel=9 note=35 velocity=64 time=120
note_on channel=9 note=46 velocity=80 time=0
note_on channel=9 note=38 velocity=80 time=0
note_on channel=9 note=35 velocity=80 time=0
note_off channel=9 note=46 velocity=64 time=240
note_off channel=9 note=38 velocity=64 time=0
note_off channel=9 note=35 velocity=64 time=0
note_on channel=9 note=35 velocity=80 time=0
note_off channel=9 note=35 velocity=64 time=120
note_on channel=9 note=35 velocity=80 time=0
note_off channel=9 note=35 velocity=64 time=120
note_on channel=9 note=46 velocity=80 time=0
note_on channel=9 note=38 velocity=80 time=0
note_on channel=9 note=35 velocity=80 time=0
note_off channel=9 note=46 velocity=64 time=240
note_off channel=9 note=38 velocity=64 time=0
note_off channel=9 note=35 velocity=64 time=0
note_on channel=9 note=35 velocity=80 time=0
note_off channel=9 note=35 velocity=64 time=120
note_on channel=9 note=35 velocity=80 time=0
note_off channel=9 note=35 velocity=64 time=120
note_on channel=9 note=46 velocity=80 time=0
note_on channel=9 note=38 velocity=80 time=0
note_on channel=9 note=35 velocity=80 time=0
note_off channel=9 note=46 velocity=64 time=240
note_off channel=9 note=38 velocity=64 time=0
note_off channel=9 note=35 velocity=64 time=0
note_on channel=9 note=35 velocity=80 time=0
note_off channel=9 note=35 velocity=64 time=120
note_on channel=9 note=35 velocity=80 time=0
note_off channel=9 note=35 velocity=64 time=120
note_on channel=9 note=49 velocity=80 time=0
note_on channel=9 note=38 velocity=80 time=0
note_on channel=9 note=35 velocity=80 time=0
note_off channel=9 note=49 velocity=64 time=240
note_off channel=9 note=38 velocity=64 time=0
note_off channel=9 note=35 velocity=64 time=0
note_on channel=9 note=35 velocity=80 time=0
note_off channel=9 note=35 velocity=64 time=120
note_on channel=9 note=35 velocity=80 time=0
note_off channel=9 note=35 velocity=64 time=120
note_on channel=9 note=46 velocity=80 time=0
note_on channel=9 note=38 velocity=80 time=0
note_on channel=9 note=35 velocity=80 time=0
note_off channel=9 note=46 velocity=64 time=240
note_off channel=9 note=38 velocity=64 time=0
note_off channel=9 note=35 velocity=64 time=0
note_on channel=9 note=35 velocity=80 time=0
note_off channel=9 note=35 velocity=64 time=120
note_on channel=9 note=35 velocity=80 time=0
note_off channel=9 note=35 velocity=64 time=120
note_on channel=9 note=46 velocity=80 time=0
note_on channel=9 note=38 velocity=80 time=0
note_on channel=9 note=35 velocity=80 time=0
note_off channel=9 note=46 velocity=64 time=240
note_off channel=9 note=38 velocity=64 time=0
note_off channel=9 note=35 velocity=64 time=0
note_on channel=9 note=35 velocity=80 time=0
note_off channel=9 note=35 velocity=64 time=120
note_on channel=9 note=35 velocity=80 time=0
note_off channel=9 note=35 velocity=64 time=120
note_on channel=9 note=46 velocity=80 time=0
note_on channel=9 note=38 velocity=80 time=0
note_on channel=9 note=35 velocity=80 time=0
note_off channel=9 note=46 velocity=64 time=240
note_off channel=9 note=38 velocity=64 time=0
note_off channel=9 note=35 velocity=64 time=0
note_on channel=9 note=35 velocity=80 time=0
note_off channel=9 note=35 velocity=64 time=120
note_on channel=9 note=35 velocity=80 time=0
note_off channel=9 note=35 velocity=64 time=120
note_on channel=9 note=49 velocity=80 time=0
note_on channel=9 note=35 velocity=80 time=0
note_off channel=9 note=49 velocity=64 time=120
note_off channel=9 note=35 velocity=64 time=0
note_on channel=9 note=35 velocity=80 time=0
note_off channel=9 note=35 velocity=64 time=120
note_on channel=9 note=35 velocity=80 time=0
note_off channel=9 note=35 velocity=64 time=120
note_on channel=9 note=35 velocity=80 time=0
note_off channel=9 note=35 velocity=64 time=120
note_on channel=9 note=46 velocity=80 time=0
note_on channel=9 note=38 velocity=80 time=0
note_on channel=9 note=35 velocity=80 time=0
note_off channel=9 note=46 velocity=64 time=240
note_off channel=9 note=38 velocity=64 time=0
note_off channel=9 note=35 velocity=64 time=0
note_on channel=9 note=35 velocity=80 time=0
note_off channel=9 note=35 velocity=64 time=240
note_on channel=9 note=46 velocity=80 time=0
note_on channel=9 note=35 velocity=80 time=0
note_off channel=9 note=46 velocity=64 time=240
note_off channel=9 note=35 velocity=64 time=0
note_on channel=9 note=35 velocity=80 time=0
note_off channel=9 note=35 velocity=64 time=120
note_on channel=9 note=35 velocity=80 time=0
note_off channel=9 note=35 velocity=64 time=120
note_on channel=9 note=46 velocity=80 time=0
note_on channel=9 note=38 velocity=80 time=0
note_on channel=9 note=35 velocity=80 time=0
note_off channel=9 note=46 velocity=64 time=240
note_off channel=9 note=38 velocity=64 time=0
note_off channel=9 note=35 velocity=64 time=0
note_on channel=9 note=35 velocity=80 time=0
note_off channel=9 note=35 velocity=64 time=240
note_on channel=9 note=46 velocity=80 time=0
note_on channel=9 note=35 velocity=80 time=0
note_off channel=9 note=46 velocity=64 time=240
note_off channel=9 note=35 velocity=64 time=0
note_on channel=9 note=35 velocity=80 time=0
note_off channel=9 note=35 velocity=64 time=120
note_on channel=9 note=35 velocity=80 time=0
note_off channel=9 note=35 velocity=64 time=120
note_on channel=9 note=46 velocity=80 time=0
note_on channel=9 note=38 velocity=80 time=0
note_on channel=9 note=35 velocity=80 time=0
note_off channel=9 note=46 velocity=64 time=240
note_off channel=9 note=38 velocity=64 time=0
note_off channel=9 note=35 velocity=64 time=0
note_on channel=9 note=35 velocity=80 time=0
note_off channel=9 note=35 velocity=64 time=240
note_on channel=9 note=46 velocity=80 time=0
note_on channel=9 note=35 velocity=80 time=0
note_off channel=9 note=46 velocity=64 time=240
note_off channel=9 note=35 velocity=64 time=0
note_on channel=9 note=35 velocity=80 time=0
note_off channel=9 note=35 velocity=64 time=120
note_on channel=9 note=35 velocity=80 time=0
note_off channel=9 note=35 velocity=64 time=120
note_on channel=9 note=46 velocity=80 time=0
note_on channel=9 note=38 velocity=80 time=0
note_on channel=9 note=35 velocity=80 time=0
note_off channel=9 note=46 velocity=64 time=240
note_off channel=9 note=38 velocity=64 time=0
note_off channel=9 note=35 velocity=64 time=0
note_on channel=9 note=35 velocity=80 time=0
note_off channel=9 note=35 velocity=64 time=240
note_on channel=9 note=49 velocity=80 time=0
note_on channel=9 note=38 velocity=80 time=0
note_on channel=9 note=35 velocity=80 time=0
note_off channel=9 note=49 velocity=64 time=240
note_off channel=9 note=38 velocity=64 time=0
note_off channel=9 note=35 velocity=64 time=0
note_on channel=9 note=35 velocity=80 time=0
note_off channel=9 note=35 velocity=64 time=120
note_on channel=9 note=35 velocity=80 time=0
note_off channel=9 note=35 velocity=64 time=120
note_on channel=9 note=46 velocity=80 time=0
note_on channel=9 note=38 velocity=80 time=0
note_on channel=9 note=35 velocity=80 time=0
note_off channel=9 note=46 velocity=64 time=240
note_off channel=9 note=38 velocity=64 time=0
note_off channel=9 note=35 velocity=64 time=0
note_on channel=9 note=35 velocity=80 time=0
note_off channel=9 note=35 velocity=64 time=120
note_on channel=9 note=35 velocity=80 time=0
note_off channel=9 note=35 velocity=64 time=120
note_on channel=9 note=46 velocity=80 time=0
note_on channel=9 note=38 velocity=80 time=0
note_on channel=9 note=35 velocity=80 time=0
note_off channel=9 note=46 velocity=64 time=240
note_off channel=9 note=38 velocity=64 time=0
note_off channel=9 note=35 velocity=64 time=0
note_on channel=9 note=35 velocity=80 time=0
note_off channel=9 note=35 velocity=64 time=120
note_on channel=9 note=35 velocity=80 time=0
note_off channel=9 note=35 velocity=64 time=120
note_on channel=9 note=46 velocity=80 time=0
note_on channel=9 note=38 velocity=80 time=0
note_on channel=9 note=35 velocity=80 time=0
note_off channel=9 note=46 velocity=64 time=240
note_off channel=9 note=38 velocity=64 time=0
note_off channel=9 note=35 velocity=64 time=0
note_on channel=9 note=35 velocity=80 time=0
note_off channel=9 note=35 velocity=64 time=120
note_on channel=9 note=35 velocity=80 time=0
note_off channel=9 note=35 velocity=64 time=120
note_on channel=9 note=49 velocity=80 time=0
note_on channel=9 note=38 velocity=80 time=0
note_on channel=9 note=35 velocity=80 time=0
note_off channel=9 note=49 velocity=64 time=240
note_off channel=9 note=38 velocity=64 time=0
note_off channel=9 note=35 velocity=64 time=0
note_on channel=9 note=35 velocity=80 time=0
note_off channel=9 note=35 velocity=64 time=120
note_on channel=9 note=35 velocity=80 time=0
note_off channel=9 note=35 velocity=64 time=120
note_on channel=9 note=46 velocity=80 time=0
note_on channel=9 note=38 velocity=80 time=0
note_on channel=9 note=35 velocity=80 time=0
note_off channel=9 note=46 velocity=64 time=240
note_off channel=9 note=38 velocity=64 time=0
note_off channel=9 note=35 velocity=64 time=0
note_on channel=9 note=35 velocity=80 time=0
note_off channel=9 note=35 velocity=64 time=120
note_on channel=9 note=35 velocity=80 time=0
note_off channel=9 note=35 velocity=64 time=120
note_on channel=9 note=46 velocity=80 time=0
note_on channel=9 note=38 velocity=80 time=0
note_on channel=9 note=35 velocity=80 time=0
note_off channel=9 note=46 velocity=64 time=240
note_off channel=9 note=38 velocity=64 time=0
note_off channel=9 note=35 velocity=64 time=0
note_on channel=9 note=35 velocity=80 time=0
note_off channel=9 note=35 velocity=64 time=120
note_on channel=9 note=35 velocity=80 time=0
note_off channel=9 note=35 velocity=64 time=120
note_on channel=9 note=46 velocity=80 time=0
note_on channel=9 note=38 velocity=80 time=0
note_on channel=9 note=35 velocity=80 time=0
note_off channel=9 note=46 velocity=64 time=240
note_off channel=9 note=38 velocity=64 time=0
note_off channel=9 note=35 velocity=64 time=0
note_on channel=9 note=35 velocity=80 time=0
note_off channel=9 note=35 velocity=64 time=120
note_on channel=9 note=35 velocity=80 time=0
note_off channel=9 note=35 velocity=64 time=120
note_on channel=9 note=49 velocity=80 time=0
note_on channel=9 note=35 velocity=80 time=0
note_off channel=9 note=49 velocity=64 time=240
note_off channel=9 note=35 velocity=64 time=0
note_on channel=9 note=35 velocity=80 time=0
note_off channel=9 note=35 velocity=64 time=120
note_on channel=9 note=35 velocity=80 time=0
note_off channel=9 note=35 velocity=64 time=120
note_on channel=9 note=53 velocity=80 time=0
note_on channel=9 note=38 velocity=80 time=0
note_off channel=9 note=53 velocity=64 time=240
note_off channel=9 note=38 velocity=64 time=0
note_on channel=9 note=35 velocity=80 time=0
note_off channel=9 note=35 velocity=64 time=120
note_on channel=9 note=35 velocity=80 time=0
note_off channel=9 note=35 velocity=64 time=120
note_on channel=9 note=53 velocity=80 time=0
note_on channel=9 note=35 velocity=80 time=0
note_off channel=9 note=53 velocity=64 time=240
note_off channel=9 note=35 velocity=64 time=0
note_on channel=9 note=35 velocity=80 time=0
note_off channel=9 note=35 velocity=64 time=240
note_on channel=9 note=53 velocity=80 time=0
note_on channel=9 note=38 velocity=80 time=0
note_off channel=9 note=53 velocity=64 time=240
note_off channel=9 note=38 velocity=64 time=0
note_on channel=9 note=35 velocity=80 time=0
note_off channel=9 note=35 velocity=64 time=240
note_on channel=9 note=53 velocity=80 time=0
note_on channel=9 note=35 velocity=80 time=0
note_off channel=9 note=53 velocity=64 time=240
note_off channel=9 note=35 velocity=64 time=0
note_on channel=9 note=35 velocity=80 time=0
note_off channel=9 note=35 velocity=64 time=120
note_on channel=9 note=35 velocity=80 time=0
note_off channel=9 note=35 velocity=64 time=120
note_on channel=9 note=53 velocity=80 time=0
note_on channel=9 note=38 velocity=80 time=0
note_off channel=9 note=53 velocity=64 time=240
note_off channel=9 note=38 velocity=64 time=0
note_on channel=9 note=35 velocity=80 time=0
note_off channel=9 note=35 velocity=64 time=120
note_on channel=9 note=35 velocity=80 time=0
note_off channel=9 note=35 velocity=64 time=120
note_on channel=9 note=53 velocity=80 time=0
note_on channel=9 note=35 velocity=80 time=0
note_off channel=9 note=53 velocity=64 time=240
note_off channel=9 note=35 velocity=64 time=0
note_on channel=9 note=35 velocity=80 time=0
note_off channel=9 note=35 velocity=64 time=240
note_on channel=9 note=53 velocity=80 time=0
note_on channel=9 note=38 velocity=80 time=0
note_off channel=9 note=53 velocity=64 time=240
note_off channel=9 note=38 velocity=64 time=0
note_on channel=9 note=35 velocity=80 time=0
note_off channel=9 note=35 velocity=64 time=240
note_on channel=9 note=49 velocity=80 time=0
note_on channel=9 note=35 velocity=80 time=0
note_off channel=9 note=49 velocity=64 time=240
note_off channel=9 note=35 velocity=64 time=0
note_on channel=9 note=35 velocity=80 time=0
note_off channel=9 note=35 velocity=64 time=120
note_on channel=9 note=35 velocity=80 time=0
note_off channel=9 note=35 velocity=64 time=120
note_on channel=9 note=53 velocity=80 time=0
note_on channel=9 note=38 velocity=80 time=0
note_off channel=9 note=53 velocity=64 time=240
note_off channel=9 note=38 velocity=64 time=0
note_on channel=9 note=35 velocity=80 time=0
note_off channel=9 note=35 velocity=64 time=120
note_on channel=9 note=35 velocity=80 time=0
note_off channel=9 note=35 velocity=64 time=120
note_on channel=9 note=53 velocity=80 time=0
note_on channel=9 note=35 velocity=80 time=0
note_off channel=9 note=53 velocity=64 time=240
note_off channel=9 note=35 velocity=64 time=0
note_on channel=9 note=35 velocity=80 time=0
note_off channel=9 note=35 velocity=64 time=240
note_on channel=9 note=53 velocity=80 time=0
note_on channel=9 note=38 velocity=80 time=0
note_off channel=9 note=53 velocity=64 time=240
note_off channel=9 note=38 velocity=64 time=0
note_on channel=9 note=35 velocity=80 time=0
note_off channel=9 note=35 velocity=64 time=120
note_on channel=9 note=35 velocity=80 time=0
note_off channel=9 note=35 velocity=64 time=120
note_on channel=9 note=53 velocity=80 time=0
note_on channel=9 note=35 velocity=80 time=0
note_off channel=9 note=53 velocity=64 time=240
note_off channel=9 note=35 velocity=64 time=0
note_on channel=9 note=35 velocity=80 time=0
note_off channel=9 note=35 velocity=64 time=120
note_on channel=9 note=35 velocity=80 time=0
note_off channel=9 note=35 velocity=64 time=120
note_on channel=9 note=53 velocity=80 time=0
note_on channel=9 note=38 velocity=80 time=0
note_off channel=9 note=53 velocity=64 time=240
note_off channel=9 note=38 velocity=64 time=0
note_on channel=9 note=35 velocity=80 time=0
note_off channel=9 note=35 velocity=64 time=120
note_on channel=9 note=35 velocity=80 time=0
note_off channel=9 note=35 velocity=64 time=120
note_on channel=9 note=53 velocity=80 time=0
note_on channel=9 note=35 velocity=80 time=0
note_off channel=9 note=53 velocity=64 time=240
note_off channel=9 note=35 velocity=64 time=0
note_on channel=9 note=35 velocity=80 time=0
note_off channel=9 note=35 velocity=64 time=240
note_on channel=9 note=53 velocity=80 time=0
note_on channel=9 note=38 velocity=80 time=0
note_off channel=9 note=53 velocity=64 time=240
note_off channel=9 note=38 velocity=64 time=0
note_on channel=9 note=35 velocity=80 time=0
note_off channel=9 note=35 velocity=64 time=240
note_on channel=9 note=49 velocity=80 time=0
note_on channel=9 note=35 velocity=80 time=0
note_off channel=9 note=49 velocity=64 time=240
note_off channel=9 note=35 velocity=64 time=0
note_on channel=9 note=35 velocity=80 time=0
note_off channel=9 note=35 velocity=64 time=120
note_on channel=9 note=35 velocity=80 time=0
note_off channel=9 note=35 velocity=64 time=120
note_on channel=9 note=46 velocity=80 time=0
note_on channel=9 note=38 velocity=80 time=0
note_off channel=9 note=46 velocity=64 time=240
note_off channel=9 note=38 velocity=64 time=0
note_on channel=9 note=35 velocity=80 time=0
note_off channel=9 note=35 velocity=64 time=120
note_on channel=9 note=35 velocity=80 time=0
note_off channel=9 note=35 velocity=64 time=120
note_on channel=9 note=46 velocity=80 time=0
note_on channel=9 note=35 velocity=80 time=0
note_off channel=9 note=46 velocity=64 time=240
note_off channel=9 note=35 velocity=64 time=0
note_on channel=9 note=35 velocity=80 time=0
note_off channel=9 note=35 velocity=64 time=240
note_on channel=9 note=46 velocity=80 time=0
note_on channel=9 note=38 velocity=80 time=0
note_off channel=9 note=46 velocity=64 time=240
note_off channel=9 note=38 velocity=64 time=0
note_on channel=9 note=35 velocity=80 time=0
note_off channel=9 note=35 velocity=64 time=240
note_on channel=9 note=46 velocity=80 time=0
note_on channel=9 note=35 velocity=80 time=0
note_off channel=9 note=46 velocity=64 time=240
note_off channel=9 note=35 velocity=64 time=0
note_on channel=9 note=35 velocity=80 time=0
note_off channel=9 note=35 velocity=64 time=120
note_on channel=9 note=35 velocity=80 time=0
note_off channel=9 note=35 velocity=64 time=120
note_on channel=9 note=46 velocity=80 time=0
note_on channel=9 note=38 velocity=80 time=0
note_off channel=9 note=46 velocity=64 time=240
note_off channel=9 note=38 velocity=64 time=0
note_on channel=9 note=35 velocity=80 time=0
note_off channel=9 note=35 velocity=64 time=120
note_on channel=9 note=35 velocity=80 time=0
note_off channel=9 note=35 velocity=64 time=120
note_on channel=9 note=46 velocity=80 time=0
note_on channel=9 note=35 velocity=80 time=0
note_off channel=9 note=46 velocity=64 time=240
note_off channel=9 note=35 velocity=64 time=0
note_on channel=9 note=35 velocity=80 time=0
note_off channel=9 note=35 velocity=64 time=240
note_on channel=9 note=46 velocity=80 time=0
note_on channel=9 note=38 velocity=80 time=0
note_off channel=9 note=46 velocity=64 time=240
note_off channel=9 note=38 velocity=64 time=0
note_on channel=9 note=35 velocity=80 time=0
note_off channel=9 note=35 velocity=64 time=240
note_on channel=9 note=49 velocity=80 time=0
note_on channel=9 note=35 velocity=80 time=0
note_off channel=9 note=49 velocity=64 time=240
note_off channel=9 note=35 velocity=64 time=0
note_on channel=9 note=35 velocity=80 time=0
note_off channel=9 note=35 velocity=64 time=120
note_on channel=9 note=35 velocity=80 time=0
note_off channel=9 note=35 velocity=64 time=120
note_on channel=9 note=46 velocity=80 time=0
note_on channel=9 note=38 velocity=80 time=0
note_off channel=9 note=46 velocity=64 time=240
note_off channel=9 note=38 velocity=64 time=0
note_on channel=9 note=35 velocity=80 time=0
note_off channel=9 note=35 velocity=64 time=120
note_on channel=9 note=35 velocity=80 time=0
note_off channel=9 note=35 velocity=64 time=120
note_on channel=9 note=46 velocity=80 time=0
note_on channel=9 note=35 velocity=80 time=0
note_off channel=9 note=46 velocity=64 time=240
note_off channel=9 note=35 velocity=64 time=0
note_on channel=9 note=35 velocity=80 time=0
note_off channel=9 note=35 velocity=64 time=240
note_on channel=9 note=46 velocity=80 time=0
note_on channel=9 note=38 velocity=80 time=0
note_off channel=9 note=46 velocity=64 time=240
note_off channel=9 note=38 velocity=64 time=0
note_on channel=9 note=35 velocity=80 time=0
note_off channel=9 note=35 velocity=64 time=120
note_on channel=9 note=35 velocity=80 time=0
note_off channel=9 note=35 velocity=64 time=120
note_on channel=9 note=46 velocity=80 time=0
note_on channel=9 note=35 velocity=80 time=0
note_off channel=9 note=46 velocity=64 time=240
note_off channel=9 note=35 velocity=64 time=0
note_on channel=9 note=35 velocity=80 time=0
note_off channel=9 note=35 velocity=64 time=120
note_on channel=9 note=35 velocity=80 time=0
note_off channel=9 note=35 velocity=64 time=120
note_on channel=9 note=46 velocity=80 time=0
note_on channel=9 note=38 velocity=80 time=0
note_off channel=9 note=46 velocity=64 time=240
note_off channel=9 note=38 velocity=64 time=0
note_on channel=9 note=35 velocity=80 time=0
note_off channel=9 note=35 velocity=64 time=120
note_on channel=9 note=35 velocity=80 time=0
note_off channel=9 note=35 velocity=64 time=120
note_on channel=9 note=46 velocity=80 time=0
note_on channel=9 note=35 velocity=80 time=0
note_off channel=9 note=46 velocity=64 time=240
note_off channel=9 note=35 velocity=64 time=0
note_on channel=9 note=35 velocity=80 time=0
note_off channel=9 note=35 velocity=64 time=240
note_on channel=9 note=46 velocity=80 time=0
note_on channel=9 note=38 velocity=80 time=0
note_off channel=9 note=46 velocity=64 time=240
note_off channel=9 note=38 velocity=64 time=0
note_on channel=9 note=35 velocity=80 time=0
note_off channel=9 note=35 velocity=64 time=240
note_on channel=9 note=49 velocity=80 time=0
note_on channel=9 note=38 velocity=80 time=0
note_on channel=9 note=35 velocity=80 time=0
note_off channel=9 note=49 velocity=64 time=240
note_off channel=9 note=38 velocity=64 time=0
note_off channel=9 note=35 velocity=64 time=0
note_on channel=9 note=49 velocity=80 time=0
note_on channel=9 note=38 velocity=80 time=0
note_on channel=9 note=35 velocity=80 time=0
note_off channel=9 note=49 velocity=64 time=240
note_off channel=9 note=38 velocity=64 time=0
note_off channel=9 note=35 velocity=64 time=0
note_on channel=9 note=46 velocity=80 time=0
note_off channel=9 note=46 velocity=64 time=240
note_on channel=9 note=35 velocity=80 time=0
note_off channel=9 note=35 velocity=64 time=240
note_on channel=9 note=46 velocity=80 time=0
note_on channel=9 note=35 velocity=80 time=0
note_off channel=9 note=46 velocity=64 time=240
note_off channel=9 note=35 velocity=64 time=0
note_on channel=9 note=46 velocity=80 time=240
note_on channel=9 note=38 velocity=80 time=0
note_on channel=9 note=35 velocity=80 time=0
note_off channel=9 note=46 velocity=64 time=240
note_off channel=9 note=38 velocity=64 time=0
note_off channel=9 note=35 velocity=64 time=0
note_on channel=9 note=35 velocity=80 time=0
note_off channel=9 note=35 velocity=64 time=240
note_on channel=9 note=49 velocity=80 time=0
note_on channel=9 note=38 velocity=80 time=0
note_on channel=9 note=35 velocity=80 time=0
note_off channel=9 note=49 velocity=64 time=240
note_off channel=9 note=38 velocity=64 time=0
note_off channel=9 note=35 velocity=64 time=0
note_on channel=9 note=49 velocity=80 time=0
note_on channel=9 note=38 velocity=80 time=0
note_on channel=9 note=35 velocity=80 time=0
note_off channel=9 note=49 velocity=64 time=240
note_off channel=9 note=38 velocity=64 time=0
note_off channel=9 note=35 velocity=64 time=0
note_on channel=9 note=46 velocity=80 time=0
note_off channel=9 note=46 velocity=64 time=240
note_on channel=9 note=35 velocity=80 time=0
note_off channel=9 note=35 velocity=64 time=240
note_on channel=9 note=46 velocity=80 time=0
note_on channel=9 note=35 velocity=80 time=0
note_off channel=9 note=46 velocity=64 time=240
note_off channel=9 note=35 velocity=64 time=0
note_on channel=9 note=46 velocity=80 time=240
note_on channel=9 note=38 velocity=80 time=0
note_on channel=9 note=35 velocity=80 time=0
note_off channel=9 note=46 velocity=64 time=240
note_off channel=9 note=38 velocity=64 time=0
note_off channel=9 note=35 velocity=64 time=0
note_on channel=9 note=35 velocity=80 time=0
note_off channel=9 note=35 velocity=64 time=240
note_on channel=9 note=49 velocity=80 time=0
note_on channel=9 note=38 velocity=80 time=0
note_on channel=9 note=35 velocity=80 time=0
note_off channel=9 note=49 velocity=64 time=240
note_off channel=9 note=38 velocity=64 time=0
note_off channel=9 note=35 velocity=64 time=0
note_on channel=9 note=35 velocity=80 time=0
note_off channel=9 note=35 velocity=64 time=120
note_on channel=9 note=35 velocity=80 time=0
note_off channel=9 note=35 velocity=64 time=120
note_on channel=9 note=49 velocity=80 time=0
note_on channel=9 note=38 velocity=80 time=0
note_on channel=9 note=35 velocity=80 time=0
note_off channel=9 note=49 velocity=64 time=240
note_off channel=9 note=38 velocity=64 time=0
note_off channel=9 note=35 velocity=64 time=0
note_on channel=9 note=49 velocity=80 time=240
note_on channel=9 note=35 velocity=80 time=0
note_off channel=9 note=49 velocity=64 time=240
note_off channel=9 note=35 velocity=64 time=0
note_on channel=9 note=35 velocity=80 time=0
note_off channel=9 note=35 velocity=64 time=240
note_on channel=9 note=49 velocity=80 time=0
note_on channel=9 note=38 velocity=80 time=0
note_on channel=9 note=35 velocity=80 time=0
note_off channel=9 note=49 velocity=64 time=120
note_off channel=9 note=38 velocity=64 time=0
note_off channel=9 note=35 velocity=64 time=0
note_on channel=9 note=35 velocity=80 time=0
note_off channel=9 note=35 velocity=64 time=120
note_on channel=9 note=35 velocity=80 time=0
note_off channel=9 note=35 velocity=64 time=120
note_on channel=9 note=35 velocity=80 time=0
note_off channel=9 note=35 velocity=64 time=120
note_on channel=9 note=46 velocity=80 time=0
note_on channel=9 note=38 velocity=80 time=0
note_off channel=9 note=46 velocity=64 time=240
note_off channel=9 note=38 velocity=64 time=0
note_on channel=9 note=35 velocity=80 time=0
note_off channel=9 note=35 velocity=64 time=120
note_on channel=9 note=35 velocity=80 time=0
note_off channel=9 note=35 velocity=64 time=120
note_on channel=9 note=46 velocity=80 time=0
note_on channel=9 note=38 velocity=80 time=0
note_off channel=9 note=46 velocity=64 time=240
note_off channel=9 note=38 velocity=64 time=0
note_on channel=9 note=35 velocity=80 time=0
note_off channel=9 note=35 velocity=64 time=240
note_on channel=9 note=46 velocity=80 time=0
note_on channel=9 note=38 velocity=80 time=0
note_off channel=9 note=46 velocity=64 time=240
note_off channel=9 note=38 velocity=64 time=0
note_on channel=9 note=51 velocity=80 time=0
note_on channel=9 note=35 velocity=80 time=0
note_off channel=9 note=51 velocity=64 time=120
note_off channel=9 note=35 velocity=64 time=0
note_on channel=9 note=35 velocity=80 time=0
note_off channel=9 note=35 velocity=64 time=120
note_on channel=9 note=53 velocity=80 time=0
note_on channel=9 note=38 velocity=80 time=0
note_off channel=9 note=53 velocity=64 time=240
note_off channel=9 note=38 velocity=64 time=0
note_on channel=9 note=51 velocity=80 time=0
note_on channel=9 note=35 velocity=80 time=0
note_off channel=9 note=51 velocity=64 time=120
note_off channel=9 note=35 velocity=64 time=0
note_on channel=9 note=35 velocity=80 time=0
note_off channel=9 note=35 velocity=64 time=120
note_on channel=9 note=49 velocity=80 time=0
note_on channel=9 note=38 velocity=80 time=0
note_on channel=9 note=35 velocity=80 time=0
note_off channel=9 note=49 velocity=64 time=240
note_off channel=9 note=38 velocity=64 time=0
note_off channel=9 note=35 velocity=64 time=0
note_on channel=9 note=49 velocity=80 time=0
note_on channel=9 note=38 velocity=80 time=0
note_on channel=9 note=35 velocity=80 time=0
note_off channel=9 note=49 velocity=64 time=240
note_off channel=9 note=38 velocity=64 time=0
note_off channel=9 note=35 velocity=64 time=0
note_on channel=9 note=46 velocity=80 time=0
note_off channel=9 note=46 velocity=64 time=240
note_on channel=9 note=35 velocity=80 time=0
note_off channel=9 note=35 velocity=64 time=240
note_on channel=9 note=46 velocity=80 time=0
note_on channel=9 note=35 velocity=80 time=0
note_off channel=9 note=46 velocity=64 time=240
note_off channel=9 note=35 velocity=64 time=0
note_on channel=9 note=46 velocity=80 time=240
note_on channel=9 note=38 velocity=80 time=0
note_on channel=9 note=35 velocity=80 time=0
note_off channel=9 note=46 velocity=64 time=240
note_off channel=9 note=38 velocity=64 time=0
note_off channel=9 note=35 velocity=64 time=0
note_on channel=9 note=35 velocity=80 time=0
note_off channel=9 note=35 velocity=64 time=240
note_on channel=9 note=49 velocity=80 time=0
note_on channel=9 note=38 velocity=80 time=0
note_on channel=9 note=35 velocity=80 time=0
note_off channel=9 note=49 velocity=64 time=240
note_off channel=9 note=38 velocity=64 time=0
note_off channel=9 note=35 velocity=64 time=0
note_on channel=9 note=49 velocity=80 time=0
note_on channel=9 note=38 velocity=80 time=0
note_on channel=9 note=35 velocity=80 time=0
note_off channel=9 note=49 velocity=64 time=240
note_off channel=9 note=38 velocity=64 time=0
note_off channel=9 note=35 velocity=64 time=0
note_on channel=9 note=46 velocity=80 time=0
note_off channel=9 note=46 velocity=64 time=240
note_on channel=9 note=35 velocity=80 time=0
note_off channel=9 note=35 velocity=64 time=240
note_on channel=9 note=46 velocity=80 time=0
note_on channel=9 note=35 velocity=80 time=0
note_off channel=9 note=46 velocity=64 time=240
note_off channel=9 note=35 velocity=64 time=0
note_on channel=9 note=46 velocity=80 time=240
note_on channel=9 note=38 velocity=80 time=0
note_on channel=9 note=35 velocity=80 time=0
note_off channel=9 note=46 velocity=64 time=240
note_off channel=9 note=38 velocity=64 time=0
note_off channel=9 note=35 velocity=64 time=0
note_on channel=9 note=35 velocity=80 time=0
note_off channel=9 note=35 velocity=64 time=240
note_on channel=9 note=49 velocity=80 time=0
note_on channel=9 note=38 velocity=80 time=0
note_on channel=9 note=35 velocity=80 time=0
note_off channel=9 note=49 velocity=64 time=240
note_off channel=9 note=38 velocity=64 time=0
note_off channel=9 note=35 velocity=64 time=0
note_on channel=9 note=35 velocity=80 time=0
note_off channel=9 note=35 velocity=64 time=120
note_on channel=9 note=35 velocity=80 time=0
note_off channel=9 note=35 velocity=64 time=120
note_on channel=9 note=49 velocity=80 time=0
note_on channel=9 note=38 velocity=80 time=0
note_on channel=9 note=35 velocity=80 time=0
note_off channel=9 note=49 velocity=64 time=240
note_off channel=9 note=38 velocity=64 time=0
note_off channel=9 note=35 velocity=64 time=0
note_on channel=9 note=49 velocity=80 time=240
note_on channel=9 note=35 velocity=80 time=0
note_off channel=9 note=49 velocity=64 time=240
note_off channel=9 note=35 velocity=64 time=0
note_on channel=9 note=35 velocity=80 time=0
note_off channel=9 note=35 velocity=64 time=240
note_on channel=9 note=49 velocity=80 time=0
note_on channel=9 note=38 velocity=80 time=0
note_on channel=9 note=35 velocity=80 time=0
note_off channel=9 note=49 velocity=64 time=120
note_off channel=9 note=38 velocity=64 time=0
note_off channel=9 note=35 velocity=64 time=0
note_on channel=9 note=35 velocity=80 time=0
note_off channel=9 note=35 velocity=64 time=120
note_on channel=9 note=35 velocity=80 time=0
note_off channel=9 note=35 velocity=64 time=120
note_on channel=9 note=35 velocity=80 time=0
note_off channel=9 note=35 velocity=64 time=120
note_on channel=9 note=46 velocity=80 time=0
note_on channel=9 note=38 velocity=80 time=0
note_off channel=9 note=46 velocity=64 time=240
note_off channel=9 note=38 velocity=64 time=0
note_on channel=9 note=35 velocity=80 time=0
note_off channel=9 note=35 velocity=64 time=120
note_on channel=9 note=35 velocity=80 time=0
note_off channel=9 note=35 velocity=64 time=120
note_on channel=9 note=46 velocity=80 time=0
note_on channel=9 note=38 velocity=80 time=0
note_off channel=9 note=46 velocity=64 time=240
note_off channel=9 note=38 velocity=64 time=0
note_on channel=9 note=35 velocity=80 time=0
note_off channel=9 note=35 velocity=64 time=240
note_on channel=9 note=46 velocity=80 time=0
note_on channel=9 note=38 velocity=80 time=0
note_off channel=9 note=46 velocity=64 time=180
note_off channel=9 note=38 velocity=64 time=0
note_on channel=9 note=48 velocity=72 time=0
note_off channel=9 note=48 velocity=64 time=60
note_on channel=9 note=48 velocity=80 time=0
note_on channel=9 note=35 velocity=80 time=0
note_off channel=9 note=48 velocity=64 time=240
note_off channel=9 note=35 velocity=64 time=0
note_on channel=9 note=47 velocity=80 time=0
note_on channel=9 note=38 velocity=80 time=0
note_on channel=9 note=35 velocity=80 time=0
note_off channel=9 note=47 velocity=64 time=240
note_off channel=9 note=38 velocity=64 time=0
note_off channel=9 note=35 velocity=64 time=0
note_on channel=9 note=45 velocity=80 time=0
note_on channel=9 note=35 velocity=80 time=0
note_off channel=9 note=45 velocity=64 time=240
note_off channel=9 note=35 velocity=64 time=0
note_on channel=9 note=49 velocity=80 time=0
note_on channel=9 note=35 velocity=80 time=0
note_off channel=9 note=49 velocity=64 time=120
note_off channel=9 note=35 velocity=64 time=0
note_on channel=9 note=35 velocity=80 time=0
note_off channel=9 note=35 velocity=64 time=120
note_on channel=9 note=35 velocity=80 time=0
note_off channel=9 note=35 velocity=64 time=120
note_on channel=9 note=35 velocity=80 time=0
note_off channel=9 note=35 velocity=64 time=120
note_on channel=9 note=46 velocity=80 time=0
note_on channel=9 note=38 velocity=80 time=0
note_on channel=9 note=35 velocity=80 time=0
note_off channel=9 note=46 velocity=64 time=240
note_off channel=9 note=38 velocity=64 time=0
note_off channel=9 note=35 velocity=64 time=0
note_on channel=9 note=35 velocity=80 time=0
note_off channel=9 note=35 velocity=64 time=240
note_on channel=9 note=46 velocity=80 time=0
note_on channel=9 note=35 velocity=80 time=0
note_off channel=9 note=46 velocity=64 time=240
note_off channel=9 note=35 velocity=64 time=0
note_on channel=9 note=35 velocity=80 time=120
note_off channel=9 note=35 velocity=64 time=120
note_on channel=9 note=46 velocity=80 time=0
note_on channel=9 note=38 velocity=80 time=0
note_on channel=9 note=35 velocity=80 time=0
note_off channel=9 note=46 velocity=64 time=240
note_off channel=9 note=38 velocity=64 time=0
note_off channel=9 note=35 velocity=64 time=0
note_on channel=9 note=35 velocity=80 time=0
note_off channel=9 note=35 velocity=64 time=240
note_on channel=9 note=49 velocity=80 time=0
note_on channel=9 note=35 velocity=80 time=0
note_off channel=9 note=49 velocity=64 time=120
note_off channel=9 note=35 velocity=64 time=0
note_on channel=9 note=35 velocity=80 time=0
note_off channel=9 note=35 velocity=64 time=120
note_on channel=9 note=35 velocity=80 time=0
note_off channel=9 note=35 velocity=64 time=120
note_on channel=9 note=35 velocity=80 time=0
note_off channel=9 note=35 velocity=64 time=120
note_on channel=9 note=46 velocity=80 time=0
note_on channel=9 note=38 velocity=80 time=0
note_on channel=9 note=35 velocity=80 time=0
note_off channel=9 note=46 velocity=64 time=240
note_off channel=9 note=38 velocity=64 time=0
note_off channel=9 note=35 velocity=64 time=0
note_on channel=9 note=35 velocity=80 time=0
note_off channel=9 note=35 velocity=64 time=240
note_on channel=9 note=46 velocity=80 time=0
note_on channel=9 note=35 velocity=80 time=0
note_off channel=9 note=46 velocity=64 time=240
note_off channel=9 note=35 velocity=64 time=0
note_on channel=9 note=35 velocity=80 time=120
note_off channel=9 note=35 velocity=64 time=120
note_on channel=9 note=46 velocity=80 time=0
note_on channel=9 note=38 velocity=80 time=0
note_off channel=9 note=46 velocity=64 time=240
note_off channel=9 note=38 velocity=64 time=0
note_on channel=9 note=35 velocity=80 time=0
note_off channel=9 note=35 velocity=64 time=240
note_on channel=9 note=49 velocity=80 time=0
note_on channel=9 note=38 velocity=80 time=0
note_on channel=9 note=35 velocity=80 time=0
note_off channel=9 note=49 velocity=64 time=120
note_off channel=9 note=38 velocity=64 time=0
note_off channel=9 note=35 velocity=64 time=0
note_on channel=9 note=49 velocity=80 time=120
note_on channel=9 note=38 velocity=80 time=0
note_on channel=9 note=35 velocity=80 time=0
note_off channel=9 note=49 velocity=64 time=120
note_off channel=9 note=38 velocity=64 time=0
note_off channel=9 note=35 velocity=64 time=0
note_on channel=9 note=35 velocity=80 time=120
note_off channel=9 note=35 velocity=64 time=120
note_on channel=9 note=35 velocity=80 time=0
note_off channel=9 note=35 velocity=64 time=120
note_on channel=9 note=49 velocity=80 time=0
note_on channel=9 note=38 velocity=80 time=0
note_on channel=9 note=35 velocity=80 time=0
note_off channel=9 note=49 velocity=64 time=120
note_off channel=9 note=38 velocity=64 time=0
note_off channel=9 note=35 velocity=64 time=0
note_on channel=9 note=49 velocity=80 time=120
note_on channel=9 note=38 velocity=80 time=0
note_on channel=9 note=35 velocity=80 time=0
note_off channel=9 note=49 velocity=64 time=120
note_off channel=9 note=38 velocity=64 time=0
note_off channel=9 note=35 velocity=64 time=0
note_on channel=9 note=35 velocity=80 time=120
note_off channel=9 note=35 velocity=64 time=120
note_on channel=9 note=35 velocity=80 time=0
note_off channel=9 note=35 velocity=64 time=120
note_on channel=9 note=49 velocity=80 time=0
note_on channel=9 note=38 velocity=80 time=0
note_on channel=9 note=35 velocity=80 time=0
note_off channel=9 note=49 velocity=64 time=120
note_off channel=9 note=38 velocity=64 time=0
note_off channel=9 note=35 velocity=64 time=0
note_on channel=9 note=49 velocity=80 time=120
note_on channel=9 note=38 velocity=80 time=0
note_on channel=9 note=35 velocity=80 time=0
note_off channel=9 note=49 velocity=64 time=120
note_off channel=9 note=38 velocity=64 time=0
note_off channel=9 note=35 velocity=64 time=0
note_on channel=9 note=35 velocity=80 time=0
note_off channel=9 note=35 velocity=64 time=120
note_on channel=9 note=49 velocity=80 time=0
note_on channel=9 note=35 velocity=80 time=0
note_off channel=9 note=49 velocity=64 time=120
note_off channel=9 note=35 velocity=64 time=0
note_on channel=9 note=35 velocity=80 time=0
note_off channel=9 note=35 velocity=64 time=120
note_on channel=9 note=46 velocity=80 time=0
note_on channel=9 note=38 velocity=80 time=0
note_on channel=9 note=35 velocity=80 time=0
note_off channel=9 note=46 velocity=64 time=120
note_off channel=9 note=38 velocity=64 time=0
note_off channel=9 note=35 velocity=64 time=0
note_on channel=9 note=35 velocity=80 time=0
note_off channel=9 note=35 velocity=64 time=120
note_on channel=9 note=46 velocity=80 time=0
note_on channel=9 note=35 velocity=80 time=0
note_off channel=9 note=46 velocity=64 time=120
note_off channel=9 note=35 velocity=64 time=0
note_on channel=9 note=35 velocity=80 time=0
note_off channel=9 note=35 velocity=64 time=120
note_on channel=9 note=46 velocity=80 time=0
note_on channel=9 note=38 velocity=80 time=0
note_on channel=9 note=35 velocity=80 time=0
note_off channel=9 note=46 velocity=64 time=120
note_off channel=9 note=38 velocity=64 time=0
note_off channel=9 note=35 velocity=64 time=0
note_on channel=9 note=35 velocity=80 time=0
note_off channel=9 note=35 velocity=64 time=120
note_on channel=9 note=46 velocity=80 time=0
note_on channel=9 note=35 velocity=80 time=0
note_off channel=9 note=46 velocity=64 time=120
note_off channel=9 note=35 velocity=64 time=0
note_on channel=9 note=35 velocity=80 time=0
note_off channel=9 note=35 velocity=64 time=120
note_on channel=9 note=46 velocity=80 time=0
note_on channel=9 note=38 velocity=80 time=0
note_on channel=9 note=35 velocity=80 time=0
note_off channel=9 note=46 velocity=64 time=120
note_off channel=9 note=38 velocity=64 time=0
note_off channel=9 note=35 velocity=64 time=0
note_on channel=9 note=35 velocity=80 time=0
note_off channel=9 note=35 velocity=64 time=120
note_on channel=9 note=46 velocity=80 time=0
note_on channel=9 note=35 velocity=80 time=0
note_off channel=9 note=46 velocity=64 time=120
note_off channel=9 note=35 velocity=64 time=0
note_on channel=9 note=35 velocity=80 time=0
note_off channel=9 note=35 velocity=64 time=120
note_on channel=9 note=46 velocity=80 time=0
note_on channel=9 note=38 velocity=80 time=0
note_on channel=9 note=35 velocity=80 time=0
note_off channel=9 note=46 velocity=64 time=120
note_off channel=9 note=38 velocity=64 time=0
note_off channel=9 note=35 velocity=64 time=0
note_on channel=9 note=35 velocity=80 time=0
note_off channel=9 note=35 velocity=64 time=120
note_on channel=9 note=49 velocity=80 time=0
note_on channel=9 note=35 velocity=80 time=0
note_off channel=9 note=49 velocity=64 time=120
note_off channel=9 note=35 velocity=64 time=0
note_on channel=9 note=35 velocity=80 time=0
note_off channel=9 note=35 velocity=64 time=120
note_on channel=9 note=35 velocity=80 time=0
note_off channel=9 note=35 velocity=64 time=120
note_on channel=9 note=35 velocity=80 time=0
note_off channel=9 note=35 velocity=64 time=120
note_on channel=9 note=46 velocity=80 time=0
note_on channel=9 note=38 velocity=80 time=0
note_on channel=9 note=35 velocity=80 time=0
note_off channel=9 note=46 velocity=64 time=240
note_off channel=9 note=38 velocity=64 time=0
note_off channel=9 note=35 velocity=64 time=0
note_on channel=9 note=35 velocity=80 time=0
note_off channel=9 note=35 velocity=64 time=240
note_on channel=9 note=46 velocity=80 time=0
note_on channel=9 note=35 velocity=80 time=0
note_off channel=9 note=46 velocity=64 time=240
note_off channel=9 note=35 velocity=64 time=0
note_on channel=9 note=35 velocity=80 time=120
note_off channel=9 note=35 velocity=64 time=120
note_on channel=9 note=46 velocity=80 time=0
note_on channel=9 note=38 velocity=80 time=0
note_on channel=9 note=35 velocity=80 time=0
note_off channel=9 note=46 velocity=64 time=240
note_off channel=9 note=38 velocity=64 time=0
note_off channel=9 note=35 velocity=64 time=0
note_on channel=9 note=35 velocity=80 time=0
note_off channel=9 note=35 velocity=64 time=240
note_on channel=9 note=49 velocity=80 time=0
note_on channel=9 note=35 velocity=80 time=0
note_off channel=9 note=49 velocity=64 time=120
note_off channel=9 note=35 velocity=64 time=0
note_on channel=9 note=35 velocity=80 time=0
note_off channel=9 note=35 velocity=64 time=120
note_on channel=9 note=35 velocity=80 time=0
note_off channel=9 note=35 velocity=64 time=120
note_on channel=9 note=35 velocity=80 time=0
note_off channel=9 note=35 velocity=64 time=120
note_on channel=9 note=46 velocity=80 time=0
note_on channel=9 note=38 velocity=80 time=0
note_on channel=9 note=35 velocity=80 time=0
note_off channel=9 note=46 velocity=64 time=240
note_off channel=9 note=38 velocity=64 time=0
note_off channel=9 note=35 velocity=64 time=0
note_on channel=9 note=35 velocity=80 time=0
note_off channel=9 note=35 velocity=64 time=240
note_on channel=9 note=46 velocity=80 time=0
note_on channel=9 note=35 velocity=80 time=0
note_off channel=9 note=46 velocity=64 time=240
note_off channel=9 note=35 velocity=64 time=0
note_on channel=9 note=35 velocity=80 time=120
note_off channel=9 note=35 velocity=64 time=120
note_on channel=9 note=46 velocity=80 time=0
note_on channel=9 note=38 velocity=80 time=0
note_off channel=9 note=46 velocity=64 time=240
note_off channel=9 note=38 velocity=64 time=0
note_on channel=9 note=35 velocity=80 time=0
note_off channel=9 note=35 velocity=64 time=240
note_on channel=9 note=49 velocity=80 time=0
note_on channel=9 note=38 velocity=80 time=0
note_on channel=9 note=35 velocity=80 time=0
note_off channel=9 note=49 velocity=64 time=120
note_off channel=9 note=38 velocity=64 time=0
note_off channel=9 note=35 velocity=64 time=0
note_on channel=9 note=49 velocity=80 time=120
note_on channel=9 note=38 velocity=80 time=0
note_on channel=9 note=35 velocity=80 time=0
note_off channel=9 note=49 velocity=64 time=120
note_off channel=9 note=38 velocity=64 time=0
note_off channel=9 note=35 velocity=64 time=0
note_on channel=9 note=35 velocity=80 time=120
note_off channel=9 note=35 velocity=64 time=120
note_on channel=9 note=35 velocity=80 time=0
note_off channel=9 note=35 velocity=64 time=120
note_on channel=9 note=49 velocity=80 time=0
note_on channel=9 note=38 velocity=80 time=0
note_on channel=9 note=35 velocity=80 time=0
note_off channel=9 note=49 velocity=64 time=120
note_off channel=9 note=38 velocity=64 time=0
note_off channel=9 note=35 velocity=64 time=0
note_on channel=9 note=49 velocity=80 time=120
note_on channel=9 note=38 velocity=80 time=0
note_on channel=9 note=35 velocity=80 time=0
note_off channel=9 note=49 velocity=64 time=120
note_off channel=9 note=38 velocity=64 time=0
note_off channel=9 note=35 velocity=64 time=0
note_on channel=9 note=35 velocity=80 time=120
note_off channel=9 note=35 velocity=64 time=120
note_on channel=9 note=35 velocity=80 time=0
note_off channel=9 note=35 velocity=64 time=120
note_on channel=9 note=49 velocity=80 time=0
note_on channel=9 note=38 velocity=80 time=0
note_on channel=9 note=35 velocity=80 time=0
note_off channel=9 note=49 velocity=64 time=120
note_off channel=9 note=38 velocity=64 time=0
note_off channel=9 note=35 velocity=64 time=0
note_on channel=9 note=49 velocity=80 time=120
note_on channel=9 note=38 velocity=80 time=0
note_on channel=9 note=35 velocity=80 time=0
note_off channel=9 note=49 velocity=64 time=120
note_off channel=9 note=38 velocity=64 time=0
note_off channel=9 note=35 velocity=64 time=0
note_on channel=9 note=35 velocity=80 time=0
note_off channel=9 note=35 velocity=64 time=120
note_on channel=9 note=49 velocity=80 time=0
note_on channel=9 note=35 velocity=80 time=0
note_off channel=9 note=49 velocity=64 time=120
note_off channel=9 note=35 velocity=64 time=0
note_on channel=9 note=35 velocity=80 time=0
note_off channel=9 note=35 velocity=64 time=120
note_on channel=9 note=46 velocity=80 time=0
note_on channel=9 note=38 velocity=80 time=0
note_on channel=9 note=35 velocity=80 time=0
note_off channel=9 note=46 velocity=64 time=120
note_off channel=9 note=38 velocity=64 time=0
note_off channel=9 note=35 velocity=64 time=0
note_on channel=9 note=35 velocity=80 time=0
note_off channel=9 note=35 velocity=64 time=120
note_on channel=9 note=46 velocity=80 time=0
note_on channel=9 note=35 velocity=80 time=0
note_off channel=9 note=46 velocity=64 time=120
note_off channel=9 note=35 velocity=64 time=0
note_on channel=9 note=35 velocity=80 time=0
note_off channel=9 note=35 velocity=64 time=120
note_on channel=9 note=46 velocity=80 time=0
note_on channel=9 note=38 velocity=80 time=0
note_on channel=9 note=35 velocity=80 time=0
note_off channel=9 note=46 velocity=64 time=120
note_off channel=9 note=38 velocity=64 time=0
note_off channel=9 note=35 velocity=64 time=0
note_on channel=9 note=35 velocity=80 time=0
note_off channel=9 note=35 velocity=64 time=120
note_on channel=9 note=46 velocity=80 time=0
note_on channel=9 note=35 velocity=80 time=0
note_off channel=9 note=46 velocity=64 time=120
note_off channel=9 note=35 velocity=64 time=0
note_on channel=9 note=35 velocity=80 time=0
note_off channel=9 note=35 velocity=64 time=120
note_on channel=9 note=46 velocity=80 time=0
note_on channel=9 note=38 velocity=80 time=0
note_on channel=9 note=35 velocity=80 time=0
note_off channel=9 note=46 velocity=64 time=120
note_off channel=9 note=38 velocity=64 time=0
note_off channel=9 note=35 velocity=64 time=0
note_on channel=9 note=35 velocity=80 time=0
note_off channel=9 note=35 velocity=64 time=120
note_on channel=9 note=46 velocity=80 time=0
note_on channel=9 note=35 velocity=80 time=0
note_off channel=9 note=46 velocity=64 time=120
note_off channel=9 note=35 velocity=64 time=0
note_on channel=9 note=35 velocity=80 time=0
note_off channel=9 note=35 velocity=64 time=120
note_on channel=9 note=46 velocity=80 time=0
note_on channel=9 note=38 velocity=80 time=0
note_on channel=9 note=35 velocity=80 time=0
note_off channel=9 note=46 velocity=64 time=120
note_off channel=9 note=38 velocity=64 time=0
note_off channel=9 note=35 velocity=64 time=0
note_on channel=9 note=35 velocity=80 time=0
note_off channel=9 note=35 velocity=64 time=120
note_on channel=9 note=49 velocity=80 time=0
note_on channel=9 note=35 velocity=80 time=0
note_off channel=9 note=49 velocity=64 time=240
note_off channel=9 note=35 velocity=64 time=0
note_on channel=9 note=35 velocity=80 time=0
note_off channel=9 note=35 velocity=64 time=240
note_on channel=9 note=51 velocity=80 time=0
note_off channel=9 note=51 velocity=64 time=240
note_on channel=9 note=35 velocity=80 time=0
note_off channel=9 note=35 velocity=64 time=240
note_on channel=9 note=51 velocity=80 time=0
note_on channel=9 note=38 velocity=80 time=0
note_off channel=9 note=51 velocity=64 time=240
note_off channel=9 note=38 velocity=64 time=0
note_on channel=9 note=51 velocity=80 time=240
note_on channel=9 note=35 velocity=80 time=0
note_off channel=9 note=51 velocity=64 time=240
note_off channel=9 note=35 velocity=64 time=0
note_on channel=9 note=35 velocity=80 time=0
note_off channel=9 note=35 velocity=64 time=240
note_on channel=9 note=51 velocity=80 time=0
note_on channel=9 note=35 velocity=80 time=0
note_off channel=9 note=51 velocity=64 time=240
note_off channel=9 note=35 velocity=64 time=0
note_on channel=9 note=35 velocity=80 time=0
note_off channel=9 note=35 velocity=64 time=240
note_on channel=9 note=51 velocity=80 time=0
note_off channel=9 note=51 velocity=64 time=240
note_on channel=9 note=35 velocity=80 time=0
note_off channel=9 note=35 velocity=64 time=240
note_on channel=9 note=51 velocity=80 time=0
note_on channel=9 note=38 velocity=80 time=0
note_off channel=9 note=51 velocity=64 time=240
note_off channel=9 note=38 velocity=64 time=0
note_on channel=9 note=53 velocity=80 time=240
note_on channel=9 note=35 velocity=80 time=0
note_off channel=9 note=53 velocity=64 time=240
note_off channel=9 note=35 velocity=64 time=0
note_on channel=9 note=35 velocity=80 time=0
note_off channel=9 note=35 velocity=64 time=240
note_on channel=9 note=49 velocity=80 time=0
note_on channel=9 note=35 velocity=80 time=0
note_off channel=9 note=49 velocity=64 time=240
note_off channel=9 note=35 velocity=64 time=0
note_on channel=9 note=35 velocity=80 time=0
note_off channel=9 note=35 velocity=64 time=240
note_on channel=9 note=51 velocity=80 time=0
note_off channel=9 note=51 velocity=64 time=240
note_on channel=9 note=35 velocity=80 time=0
note_off channel=9 note=35 velocity=64 time=240
note_on channel=9 note=51 velocity=80 time=0
note_on channel=9 note=38 velocity=80 time=0
note_off channel=9 note=51 velocity=64 time=240
note_off channel=9 note=38 velocity=64 time=0
note_on channel=9 note=51 velocity=80 time=240
note_on channel=9 note=35 velocity=80 time=0
note_off channel=9 note=51 velocity=64 time=240
note_off channel=9 note=35 velocity=64 time=0
note_on channel=9 note=35 velocity=80 time=0
note_off channel=9 note=35 velocity=64 time=240
note_on channel=9 note=51 velocity=80 time=0
note_on channel=9 note=35 velocity=80 time=0
note_off channel=9 note=51 velocity=64 time=120
note_off channel=9 note=35 velocity=64 time=0
note_on channel=9 note=35 velocity=80 time=0
note_off channel=9 note=35 velocity=64 time=120
note_on channel=9 note=35 velocity=80 time=0
note_off channel=9 note=35 velocity=64 time=240
note_on channel=9 note=51 velocity=80 time=0
note_off channel=9 note=51 velocity=64 time=240
note_on channel=9 note=35 velocity=80 time=0
note_off channel=9 note=35 velocity=64 time=240
note_on channel=9 note=51 velocity=80 time=0
note_on channel=9 note=38 velocity=80 time=0
note_off channel=9 note=51 velocity=64 time=240
note_off channel=9 note=38 velocity=64 time=0
note_on channel=9 note=53 velocity=80 time=240
note_on channel=9 note=35 velocity=80 time=0
note_off channel=9 note=53 velocity=64 time=240
note_off channel=9 note=35 velocity=64 time=0
note_on channel=9 note=53 velocity=80 time=0
note_on channel=9 note=35 velocity=80 time=0
note_off channel=9 note=53 velocity=64 time=240
note_off channel=9 note=35 velocity=64 time=0
note_on channel=9 note=49 velocity=80 time=0
note_on channel=9 note=35 velocity=80 time=0
note_off channel=9 note=49 velocity=64 time=240
note_off channel=9 note=35 velocity=64 time=0
note_on channel=9 note=35 velocity=80 time=0
note_off channel=9 note=35 velocity=64 time=240
note_on channel=9 note=46 velocity=80 time=0
note_off channel=9 note=46 velocity=64 time=240
note_on channel=9 note=35 velocity=80 time=0
note_off channel=9 note=35 velocity=64 time=240
note_on channel=9 note=46 velocity=80 time=0
note_on channel=9 note=38 velocity=80 time=0
note_off channel=9 note=46 velocity=64 time=240
note_off channel=9 note=38 velocity=64 time=0
note_on channel=9 note=46 velocity=80 time=240
note_on channel=9 note=35 velocity=80 time=0
note_off channel=9 note=46 velocity=64 time=240
note_off channel=9 note=35 velocity=64 time=0
note_on channel=9 note=35 velocity=80 time=0
note_off channel=9 note=35 velocity=64 time=240
note_on channel=9 note=46 velocity=80 time=0
note_on channel=9 note=35 velocity=80 time=0
note_off channel=9 note=46 velocity=64 time=240
note_off channel=9 note=35 velocity=64 time=0
note_on channel=9 note=35 velocity=80 time=0
note_off channel=9 note=35 velocity=64 time=240
note_on channel=9 note=46 velocity=80 time=0
note_off channel=9 note=46 velocity=64 time=240
note_on channel=9 note=35 velocity=80 time=0
note_off channel=9 note=35 velocity=64 time=240
note_on channel=9 note=46 velocity=80 time=0
note_on channel=9 note=38 velocity=80 time=0
note_off channel=9 note=46 velocity=64 time=240
note_off channel=9 note=38 velocity=64 time=0
note_on channel=9 note=46 velocity=80 time=240
note_on channel=9 note=35 velocity=80 time=0
note_off channel=9 note=46 velocity=64 time=240
note_off channel=9 note=35 velocity=64 time=0
note_on channel=9 note=35 velocity=80 time=0
note_off channel=9 note=35 velocity=64 time=240
note_on channel=9 note=49 velocity=80 time=0
note_on channel=9 note=35 velocity=80 time=0
note_off channel=9 note=49 velocity=64 time=240
note_off channel=9 note=35 velocity=64 time=0
note_on channel=9 note=35 velocity=80 time=0
note_off channel=9 note=35 velocity=64 time=240
note_on channel=9 note=46 velocity=80 time=0
note_off channel=9 note=46 velocity=64 time=240
note_on channel=9 note=35 velocity=80 time=0
note_off channel=9 note=35 velocity=64 time=240
note_on channel=9 note=46 velocity=80 time=0
note_on channel=9 note=38 velocity=80 time=0
note_off channel=9 note=46 velocity=64 time=240
note_off channel=9 note=38 velocity=64 time=0
note_on channel=9 note=46 velocity=80 time=240
note_on channel=9 note=35 velocity=80 time=0
note_off channel=9 note=46 velocity=64 time=240
note_off channel=9 note=35 velocity=64 time=0
note_on channel=9 note=35 velocity=80 time=0
note_off channel=9 note=35 velocity=64 time=240
note_on channel=9 note=46 velocity=80 time=0
note_on channel=9 note=35 velocity=80 time=0
note_off channel=9 note=46 velocity=64 time=120
note_off channel=9 note=35 velocity=64 time=0
note_on channel=9 note=35 velocity=80 time=0
note_off channel=9 note=35 velocity=64 time=120
note_on channel=9 note=35 velocity=80 time=0
note_off channel=9 note=35 velocity=64 time=240
note_on channel=9 note=46 velocity=80 time=0
note_off channel=9 note=46 velocity=64 time=240
note_on channel=9 note=35 velocity=80 time=0
note_off channel=9 note=35 velocity=64 time=240
note_on channel=9 note=46 velocity=80 time=0
note_on channel=9 note=38 velocity=80 time=0
note_off channel=9 note=46 velocity=64 time=240
note_off channel=9 note=38 velocity=64 time=0
note_on channel=9 note=46 velocity=80 time=240
note_on channel=9 note=35 velocity=80 time=0
note_off channel=9 note=46 velocity=64 time=240
note_off channel=9 note=35 velocity=64 time=0
note_on channel=9 note=35 velocity=80 time=0
note_off channel=9 note=35 velocity=64 time=240
note_on channel=9 note=49 velocity=80 time=0
note_on channel=9 note=35 velocity=80 time=0
note_off channel=9 note=49 velocity=64 time=240
note_off channel=9 note=35 velocity=64 time=0
note_on channel=9 note=35 velocity=80 time=0
note_off channel=9 note=35 velocity=64 time=240
note_on channel=9 note=51 velocity=80 time=0
note_off channel=9 note=51 velocity=64 time=240
note_on channel=9 note=35 velocity=80 time=0
note_off channel=9 note=35 velocity=64 time=240
note_on channel=9 note=51 velocity=80 time=0
note_on channel=9 note=38 velocity=80 time=0
note_off channel=9 note=51 velocity=64 time=240
note_off channel=9 note=38 velocity=64 time=0
note_on channel=9 note=51 velocity=80 time=240
note_on channel=9 note=35 velocity=80 time=0
note_off channel=9 note=51 velocity=64 time=240
note_off channel=9 note=35 velocity=64 time=0
note_on channel=9 note=35 velocity=80 time=0
note_off channel=9 note=35 velocity=64 time=240
note_on channel=9 note=51 velocity=80 time=0
note_on channel=9 note=35 velocity=80 time=0
note_off channel=9 note=51 velocity=64 time=240
note_off channel=9 note=35 velocity=64 time=0
note_on channel=9 note=35 velocity=80 time=0
note_off channel=9 note=35 velocity=64 time=240
note_on channel=9 note=51 velocity=80 time=0
note_off channel=9 note=51 velocity=64 time=240
note_on channel=9 note=35 velocity=80 time=0
note_off channel=9 note=35 velocity=64 time=240
note_on channel=9 note=51 velocity=80 time=0
note_on channel=9 note=38 velocity=80 time=0
note_off channel=9 note=51 velocity=64 time=240
note_off channel=9 note=38 velocity=64 time=0
note_on channel=9 note=53 velocity=80 time=240
note_on channel=9 note=35 velocity=80 time=0
note_off channel=9 note=53 velocity=64 time=240
note_off channel=9 note=35 velocity=64 time=0
note_on channel=9 note=35 velocity=80 time=0
note_off channel=9 note=35 velocity=64 time=240
note_on channel=9 note=49 velocity=80 time=0
note_on channel=9 note=35 velocity=80 time=0
note_off channel=9 note=49 velocity=64 time=240
note_off channel=9 note=35 velocity=64 time=0
note_on channel=9 note=35 velocity=80 time=0
note_off channel=9 note=35 velocity=64 time=240
note_on channel=9 note=51 velocity=80 time=0
note_off channel=9 note=51 velocity=64 time=240
note_on channel=9 note=35 velocity=80 time=0
note_off channel=9 note=35 velocity=64 time=240
note_on channel=9 note=51 velocity=80 time=0
note_on channel=9 note=38 velocity=80 time=0
note_off channel=9 note=51 velocity=64 time=240
note_off channel=9 note=38 velocity=64 time=0
note_on channel=9 note=51 velocity=80 time=240
note_on channel=9 note=35 velocity=80 time=0
note_off channel=9 note=51 velocity=64 time=240
note_off channel=9 note=35 velocity=64 time=0
note_on channel=9 note=35 velocity=80 time=0
note_off channel=9 note=35 velocity=64 time=240
note_on channel=9 note=51 velocity=80 time=0
note_on channel=9 note=35 velocity=80 time=0
note_off channel=9 note=51 velocity=64 time=120
note_off channel=9 note=35 velocity=64 time=0
note_on channel=9 note=35 velocity=80 time=0
note_off channel=9 note=35 velocity=64 time=120
note_on channel=9 note=35 velocity=80 time=0
note_off channel=9 note=35 velocity=64 time=240
note_on channel=9 note=51 velocity=80 time=0
note_off channel=9 note=51 velocity=64 time=240
note_on channel=9 note=35 velocity=80 time=0
note_off channel=9 note=35 velocity=64 time=240
note_on channel=9 note=51 velocity=80 time=0
note_on channel=9 note=38 velocity=80 time=0
note_off channel=9 note=51 velocity=64 time=240
note_off channel=9 note=38 velocity=64 time=0
note_on channel=9 note=53 velocity=80 time=240
note_on channel=9 note=35 velocity=80 time=0
note_off channel=9 note=53 velocity=64 time=240
note_off channel=9 note=35 velocity=64 time=0
note_on channel=9 note=53 velocity=80 time=0
note_on channel=9 note=35 velocity=80 time=0
note_off channel=9 note=53 velocity=64 time=240
note_off channel=9 note=35 velocity=64 time=0
note_on channel=9 note=49 velocity=80 time=0
note_on channel=9 note=35 velocity=80 time=0
note_off channel=9 note=49 velocity=64 time=240
note_off channel=9 note=35 velocity=64 time=0
note_on channel=9 note=35 velocity=80 time=0
note_off channel=9 note=35 velocity=64 time=240
note_on channel=9 note=46 velocity=80 time=0
note_off channel=9 note=46 velocity=64 time=240
note_on channel=9 note=35 velocity=80 time=0
note_off channel=9 note=35 velocity=64 time=240
note_on channel=9 note=46 velocity=80 time=0
note_on channel=9 note=38 velocity=80 time=0
note_off channel=9 note=46 velocity=64 time=240
note_off channel=9 note=38 velocity=64 time=0
note_on channel=9 note=46 velocity=80 time=240
note_on channel=9 note=35 velocity=80 time=0
note_off channel=9 note=46 velocity=64 time=240
note_off channel=9 note=35 velocity=64 time=0
note_on channel=9 note=35 velocity=80 time=0
note_off channel=9 note=35 velocity=64 time=240
note_on channel=9 note=46 velocity=80 time=0
note_on channel=9 note=35 velocity=80 time=0
note_off channel=9 note=46 velocity=64 time=240
note_off channel=9 note=35 velocity=64 time=0
note_on channel=9 note=35 velocity=80 time=0
note_off channel=9 note=35 velocity=64 time=240
note_on channel=9 note=46 velocity=80 time=0
note_off channel=9 note=46 velocity=64 time=240
note_on channel=9 note=35 velocity=80 time=0
note_off channel=9 note=35 velocity=64 time=240
note_on channel=9 note=46 velocity=80 time=0
note_on channel=9 note=38 velocity=80 time=0
note_off channel=9 note=46 velocity=64 time=240
note_off channel=9 note=38 velocity=64 time=0
note_on channel=9 note=46 velocity=80 time=240
note_on channel=9 note=35 velocity=80 time=0
note_off channel=9 note=46 velocity=64 time=240
note_off channel=9 note=35 velocity=64 time=0
note_on channel=9 note=35 velocity=80 time=0
note_off channel=9 note=35 velocity=64 time=240
note_on channel=9 note=49 velocity=80 time=0
note_on channel=9 note=35 velocity=80 time=0
note_off channel=9 note=49 velocity=64 time=240
note_off channel=9 note=35 velocity=64 time=0
note_on channel=9 note=35 velocity=80 time=0
note_off channel=9 note=35 velocity=64 time=240
note_on channel=9 note=46 velocity=80 time=0
note_off channel=9 note=46 velocity=64 time=240
note_on channel=9 note=35 velocity=80 time=0
note_off channel=9 note=35 velocity=64 time=240
note_on channel=9 note=46 velocity=80 time=0
note_on channel=9 note=38 velocity=80 time=0
note_off channel=9 note=46 velocity=64 time=240
note_off channel=9 note=38 velocity=64 time=0
note_on channel=9 note=46 velocity=80 time=240
note_on channel=9 note=35 velocity=80 time=0
note_off channel=9 note=46 velocity=64 time=240
note_off channel=9 note=35 velocity=64 time=0
note_on channel=9 note=35 velocity=80 time=0
note_off channel=9 note=35 velocity=64 time=240
note_on channel=9 note=46 velocity=80 time=0
note_on channel=9 note=35 velocity=80 time=0
note_off channel=9 note=46 velocity=64 time=120
note_off channel=9 note=35 velocity=64 time=0
note_on channel=9 note=35 velocity=80 time=0
note_off channel=9 note=35 velocity=64 time=120
note_on channel=9 note=35 velocity=80 time=0
note_off channel=9 note=35 velocity=64 time=240
note_on channel=9 note=46 velocity=80 time=0
note_off channel=9 note=46 velocity=64 time=240
note_on channel=9 note=35 velocity=80 time=0
note_off channel=9 note=35 velocity=64 time=240
note_on channel=9 note=46 velocity=80 time=0
note_on channel=9 note=38 velocity=80 time=0
note_off channel=9 note=46 velocity=64 time=240
note_off channel=9 note=38 velocity=64 time=0
note_on channel=9 note=46 velocity=80 time=240
note_on channel=9 note=35 velocity=80 time=0
note_off channel=9 note=46 velocity=64 time=240
note_off channel=9 note=35 velocity=64 time=0
note_on channel=9 note=35 velocity=80 time=0
note_off channel=9 note=35 velocity=64 time=240
note_on channel=9 note=49 velocity=80 time=0
note_on channel=9 note=35 velocity=80 time=0
note_off channel=9 note=49 velocity=64 time=120
note_off channel=9 note=35 velocity=64 time=0
note_on channel=9 note=35 velocity=80 time=0
note_off channel=9 note=35 velocity=64 time=120
note_on channel=9 note=35 velocity=80 time=0
note_off channel=9 note=35 velocity=64 time=120
note_on channel=9 note=35 velocity=80 time=0
note_off channel=9 note=35 velocity=64 time=120
note_on channel=9 note=46 velocity=80 time=0
note_on channel=9 note=38 velocity=80 time=0
note_on channel=9 note=35 velocity=80 time=0
note_off channel=9 note=46 velocity=64 time=240
note_off channel=9 note=38 velocity=64 time=0
note_off channel=9 note=35 velocity=64 time=0
note_on channel=9 note=35 velocity=80 time=0
note_off channel=9 note=35 velocity=64 time=240
note_on channel=9 note=46 velocity=80 time=0
note_on channel=9 note=35 velocity=80 time=0
note_off channel=9 note=46 velocity=64 time=240
note_off channel=9 note=35 velocity=64 time=0
note_on channel=9 note=35 velocity=80 time=0
note_off channel=9 note=35 velocity=64 time=120
note_on channel=9 note=35 velocity=80 time=0
note_off channel=9 note=35 velocity=64 time=120
note_on channel=9 note=46 velocity=80 time=0
note_on channel=9 note=38 velocity=80 time=0
note_on channel=9 note=35 velocity=80 time=0
note_off channel=9 note=46 velocity=64 time=240
note_off channel=9 note=38 velocity=64 time=0
note_off channel=9 note=35 velocity=64 time=0
note_on channel=9 note=35 velocity=80 time=0
note_off channel=9 note=35 velocity=64 time=240
note_on channel=9 note=46 velocity=80 time=0
note_on channel=9 note=35 velocity=80 time=0
note_off channel=9 note=46 velocity=64 time=240
note_off channel=9 note=35 velocity=64 time=0
note_on channel=9 note=35 velocity=80 time=0
note_off channel=9 note=35 velocity=64 time=120
note_on channel=9 note=35 velocity=80 time=0
note_off channel=9 note=35 velocity=64 time=120
note_on channel=9 note=46 velocity=80 time=0
note_on channel=9 note=38 velocity=80 time=0
note_on channel=9 note=35 velocity=80 time=0
note_off channel=9 note=46 velocity=64 time=240
note_off channel=9 note=38 velocity=64 time=0
note_off channel=9 note=35 velocity=64 time=0
note_on channel=9 note=35 velocity=80 time=0
note_off channel=9 note=35 velocity=64 time=240
note_on channel=9 note=46 velocity=80 time=0
note_on channel=9 note=35 velocity=80 time=0
note_off channel=9 note=46 velocity=64 time=240
note_off channel=9 note=35 velocity=64 time=0
note_on channel=9 note=35 velocity=80 time=0
note_off channel=9 note=35 velocity=64 time=120
note_on channel=9 note=35 velocity=80 time=0
note_off channel=9 note=35 velocity=64 time=120
note_on channel=9 note=46 velocity=80 time=0
note_on channel=9 note=38 velocity=80 time=0
note_on channel=9 note=35 velocity=80 time=0
note_off channel=9 note=46 velocity=64 time=240
note_off channel=9 note=38 velocity=64 time=0
note_off channel=9 note=35 velocity=64 time=0
note_on channel=9 note=35 velocity=80 time=0
note_off channel=9 note=35 velocity=64 time=240
note_on channel=9 note=49 velocity=80 time=0
note_on channel=9 note=38 velocity=80 time=0
note_on channel=9 note=35 velocity=80 time=0
note_off channel=9 note=49 velocity=64 time=240
note_off channel=9 note=38 velocity=64 time=0
note_off channel=9 note=35 velocity=64 time=0
note_on channel=9 note=35 velocity=80 time=0
note_off channel=9 note=35 velocity=64 time=120
note_on channel=9 note=35 velocity=80 time=0
note_off channel=9 note=35 velocity=64 time=120
note_on channel=9 note=46 velocity=80 time=0
note_on channel=9 note=38 velocity=80 time=0
note_on channel=9 note=35 velocity=80 time=0
note_off channel=9 note=46 velocity=64 time=240
note_off channel=9 note=38 velocity=64 time=0
note_off channel=9 note=35 velocity=64 time=0
note_on channel=9 note=35 velocity=80 time=0
note_off channel=9 note=35 velocity=64 time=120
note_on channel=9 note=35 velocity=80 time=0
note_off channel=9 note=35 velocity=64 time=120
note_on channel=9 note=46 velocity=80 time=0
note_on channel=9 note=38 velocity=80 time=0
note_on channel=9 note=35 velocity=80 time=0
note_off channel=9 note=46 velocity=64 time=240
note_off channel=9 note=38 velocity=64 time=0
note_off channel=9 note=35 velocity=64 time=0
note_on channel=9 note=35 velocity=80 time=0
note_off channel=9 note=35 velocity=64 time=120
note_on channel=9 note=35 velocity=80 time=0
note_off channel=9 note=35 velocity=64 time=120
note_on channel=9 note=46 velocity=80 time=0
note_on channel=9 note=38 velocity=80 time=0
note_on channel=9 note=35 velocity=80 time=0
note_off channel=9 note=46 velocity=64 time=240
note_off channel=9 note=38 velocity=64 time=0
note_off channel=9 note=35 velocity=64 time=0
note_on channel=9 note=35 velocity=80 time=0
note_off channel=9 note=35 velocity=64 time=120
note_on channel=9 note=35 velocity=80 time=0
note_off channel=9 note=35 velocity=64 time=120
note_on channel=9 note=49 velocity=80 time=0
note_on channel=9 note=38 velocity=80 time=0
note_on channel=9 note=35 velocity=80 time=0
note_off channel=9 note=49 velocity=64 time=240
note_off channel=9 note=38 velocity=64 time=0
note_off channel=9 note=35 velocity=64 time=0
note_on channel=9 note=35 velocity=80 time=0
note_off channel=9 note=35 velocity=64 time=120
note_on channel=9 note=35 velocity=80 time=0
note_off channel=9 note=35 velocity=64 time=120
note_on channel=9 note=46 velocity=80 time=0
note_on channel=9 note=38 velocity=80 time=0
note_on channel=9 note=35 velocity=80 time=0
note_off channel=9 note=46 velocity=64 time=240
note_off channel=9 note=38 velocity=64 time=0
note_off channel=9 note=35 velocity=64 time=0
note_on channel=9 note=35 velocity=80 time=0
note_off channel=9 note=35 velocity=64 time=120
note_on channel=9 note=35 velocity=80 time=0
note_off channel=9 note=35 velocity=64 time=120
note_on channel=9 note=46 velocity=80 time=0
note_on channel=9 note=38 velocity=80 time=0
note_on channel=9 note=35 velocity=80 time=0
note_off channel=9 note=46 velocity=64 time=240
note_off channel=9 note=38 velocity=64 time=0
note_off channel=9 note=35 velocity=64 time=0
note_on channel=9 note=35 velocity=80 time=0
note_off channel=9 note=35 velocity=64 time=120
note_on channel=9 note=35 velocity=80 time=0
note_off channel=9 note=35 velocity=64 time=120
note_on channel=9 note=46 velocity=80 time=0
note_on channel=9 note=38 velocity=80 time=0
note_on channel=9 note=35 velocity=80 time=0
note_off channel=9 note=46 velocity=64 time=240
note_off channel=9 note=38 velocity=64 time=0
note_off channel=9 note=35 velocity=64 time=0
note_on channel=9 note=35 velocity=80 time=0
note_off channel=9 note=35 velocity=64 time=120
note_on channel=9 note=35 velocity=80 time=0
note_off channel=9 note=35 velocity=64 time=120
note_on channel=9 note=49 velocity=80 time=0
note_on channel=9 note=35 velocity=80 time=0
note_off channel=9 note=49 velocity=64 time=120
note_off channel=9 note=35 velocity=64 time=0
note_on channel=9 note=35 velocity=80 time=0
note_off channel=9 note=35 velocity=64 time=120
note_on channel=9 note=35 velocity=80 time=0
note_off channel=9 note=35 velocity=64 time=120
note_on channel=9 note=35 velocity=80 time=0
note_off channel=9 note=35 velocity=64 time=120
note_on channel=9 note=46 velocity=80 time=0
note_on channel=9 note=38 velocity=80 time=0
note_on channel=9 note=35 velocity=80 time=0
note_off channel=9 note=46 velocity=64 time=240
note_off channel=9 note=38 velocity=64 time=0
note_off channel=9 note=35 velocity=64 time=0
note_on channel=9 note=35 velocity=80 time=0
note_off channel=9 note=35 velocity=64 time=240
note_on channel=9 note=46 velocity=80 time=0
note_on channel=9 note=35 velocity=80 time=0
note_off channel=9 note=46 velocity=64 time=240
note_off channel=9 note=35 velocity=64 time=0
note_on channel=9 note=35 velocity=80 time=0
note_off channel=9 note=35 velocity=64 time=120
note_on channel=9 note=35 velocity=80 time=0
note_off channel=9 note=35 velocity=64 time=120
note_on channel=9 note=46 velocity=80 time=0
note_on channel=9 note=38 velocity=80 time=0
note_on channel=9 note=35 velocity=80 time=0
note_off channel=9 note=46 velocity=64 time=240
note_off channel=9 note=38 velocity=64 time=0
note_off channel=9 note=35 velocity=64 time=0
note_on channel=9 note=35 velocity=80 time=0
note_off channel=9 note=35 velocity=64 time=240
note_on channel=9 note=46 velocity=80 time=0
note_on channel=9 note=35 velocity=80 time=0
note_off channel=9 note=46 velocity=64 time=240
note_off channel=9 note=35 velocity=64 time=0
note_on channel=9 note=35 velocity=80 time=0
note_off channel=9 note=35 velocity=64 time=120
note_on channel=9 note=35 velocity=80 time=0
note_off channel=9 note=35 velocity=64 time=120
note_on channel=9 note=46 velocity=80 time=0
note_on channel=9 note=38 velocity=80 time=0
note_on channel=9 note=35 velocity=80 time=0
note_off channel=9 note=46 velocity=64 time=240
note_off channel=9 note=38 velocity=64 time=0
note_off channel=9 note=35 velocity=64 time=0
note_on channel=9 note=35 velocity=80 time=0
note_off channel=9 note=35 velocity=64 time=240
note_on channel=9 note=46 velocity=80 time=0
note_on channel=9 note=35 velocity=80 time=0
note_off channel=9 note=46 velocity=64 time=240
note_off channel=9 note=35 velocity=64 time=0
note_on channel=9 note=35 velocity=80 time=0
note_off channel=9 note=35 velocity=64 time=120
note_on channel=9 note=35 velocity=80 time=0
note_off channel=9 note=35 velocity=64 time=120
note_on channel=9 note=46 velocity=80 time=0
note_on channel=9 note=38 velocity=80 time=0
note_on channel=9 note=35 velocity=80 time=0
note_off channel=9 note=46 velocity=64 time=240
note_off channel=9 note=38 velocity=64 time=0
note_off channel=9 note=35 velocity=64 time=0
note_on channel=9 note=35 velocity=80 time=0
note_off channel=9 note=35 velocity=64 time=240
note_on channel=9 note=49 velocity=80 time=0
note_on channel=9 note=38 velocity=80 time=0
note_on channel=9 note=35 velocity=80 time=0
note_off channel=9 note=49 velocity=64 time=240
note_off channel=9 note=38 velocity=64 time=0
note_off channel=9 note=35 velocity=64 time=0
note_on channel=9 note=35 velocity=80 time=0
note_off channel=9 note=35 velocity=64 time=120
note_on channel=9 note=35 velocity=80 time=0
note_off channel=9 note=35 velocity=64 time=120
note_on channel=9 note=46 velocity=80 time=0
note_on channel=9 note=38 velocity=80 time=0
note_on channel=9 note=35 velocity=80 time=0
note_off channel=9 note=46 velocity=64 time=240
note_off channel=9 note=38 velocity=64 time=0
note_off channel=9 note=35 velocity=64 time=0
note_on channel=9 note=35 velocity=80 time=0
note_off channel=9 note=35 velocity=64 time=120
note_on channel=9 note=35 velocity=80 time=0
note_off channel=9 note=35 velocity=64 time=120
note_on channel=9 note=46 velocity=80 time=0
note_on channel=9 note=38 velocity=80 time=0
note_on channel=9 note=35 velocity=80 time=0
note_off channel=9 note=46 velocity=64 time=240
note_off channel=9 note=38 velocity=64 time=0
note_off channel=9 note=35 velocity=64 time=0
note_on channel=9 note=35 velocity=80 time=0
note_off channel=9 note=35 velocity=64 time=120
note_on channel=9 note=35 velocity=80 time=0
note_off channel=9 note=35 velocity=64 time=120
note_on channel=9 note=46 velocity=80 time=0
note_on channel=9 note=38 velocity=80 time=0
note_on channel=9 note=35 velocity=80 time=0
note_off channel=9 note=46 velocity=64 time=240
note_off channel=9 note=38 velocity=64 time=0
note_off channel=9 note=35 velocity=64 time=0
note_on channel=9 note=35 velocity=80 time=0
note_off channel=9 note=35 velocity=64 time=120
note_on channel=9 note=35 velocity=80 time=0
note_off channel=9 note=35 velocity=64 time=120
note_on channel=9 note=49 velocity=80 time=0
note_on channel=9 note=38 velocity=80 time=0
note_on channel=9 note=35 velocity=80 time=0
note_off channel=9 note=49 velocity=64 time=240
note_off channel=9 note=38 velocity=64 time=0
note_off channel=9 note=35 velocity=64 time=0
note_on channel=9 note=35 velocity=80 time=0
note_off channel=9 note=35 velocity=64 time=120
note_on channel=9 note=35 velocity=80 time=0
note_off channel=9 note=35 velocity=64 time=120
note_on channel=9 note=46 velocity=80 time=0
note_on channel=9 note=38 velocity=80 time=0
note_on channel=9 note=35 velocity=80 time=0
note_off channel=9 note=46 velocity=64 time=240
note_off channel=9 note=38 velocity=64 time=0
note_off channel=9 note=35 velocity=64 time=0
note_on channel=9 note=35 velocity=80 time=0
note_off channel=9 note=35 velocity=64 time=120
note_on channel=9 note=35 velocity=80 time=0
note_off channel=9 note=35 velocity=64 time=120
note_on channel=9 note=46 velocity=80 time=0
note_on channel=9 note=38 velocity=80 time=0
note_on channel=9 note=35 velocity=80 time=0
note_off channel=9 note=46 velocity=64 time=240
note_off channel=9 note=38 velocity=64 time=0
note_off channel=9 note=35 velocity=64 time=0
note_on channel=9 note=35 velocity=80 time=0
note_off channel=9 note=35 velocity=64 time=120
note_on channel=9 note=35 velocity=80 time=0
note_off channel=9 note=35 velocity=64 time=120
note_on channel=9 note=46 velocity=80 time=0
note_on channel=9 note=38 velocity=80 time=0
note_on channel=9 note=35 velocity=80 time=0
note_off channel=9 note=46 velocity=64 time=240
note_off channel=9 note=38 velocity=64 time=0
note_off channel=9 note=35 velocity=64 time=0
note_on channel=9 note=35 velocity=80 time=0
note_off channel=9 note=35 velocity=64 time=120
note_on channel=9 note=35 velocity=80 time=0
note_off channel=9 note=35 velocity=64 time=120
note_on channel=9 note=49 velocity=80 time=0
note_on channel=9 note=35 velocity=80 time=0
note_off channel=9 note=49 velocity=64 time=240
note_off channel=9 note=35 velocity=64 time=0
note_on channel=9 note=35 velocity=80 time=0
note_off channel=9 note=35 velocity=64 time=120
note_on channel=9 note=35 velocity=80 time=0
note_off channel=9 note=35 velocity=64 time=120
note_on channel=9 note=53 velocity=80 time=0
note_on channel=9 note=38 velocity=80 time=0
note_off channel=9 note=53 velocity=64 time=240
note_off channel=9 note=38 velocity=64 time=0
note_on channel=9 note=35 velocity=80 time=0
note_off channel=9 note=35 velocity=64 time=120
note_on channel=9 note=35 velocity=80 time=0
note_off channel=9 note=35 velocity=64 time=120
note_on channel=9 note=53 velocity=80 time=0
note_on channel=9 note=35 velocity=80 time=0
note_off channel=9 note=53 velocity=64 time=240
note_off channel=9 note=35 velocity=64 time=0
note_on channel=9 note=35 velocity=80 time=0
note_off channel=9 note=35 velocity=64 time=240
note_on channel=9 note=53 velocity=80 time=0
note_on channel=9 note=38 velocity=80 time=0
note_off channel=9 note=53 velocity=64 time=240
note_off channel=9 note=38 velocity=64 time=0
note_on channel=9 note=35 velocity=80 time=0
note_off channel=9 note=35 velocity=64 time=240
note_on channel=9 note=53 velocity=80 time=0
note_on channel=9 note=35 velocity=80 time=0
note_off channel=9 note=53 velocity=64 time=240
note_off channel=9 note=35 velocity=64 time=0
note_on channel=9 note=35 velocity=80 time=0
note_off channel=9 note=35 velocity=64 time=120
note_on channel=9 note=35 velocity=80 time=0
note_off channel=9 note=35 velocity=64 time=120
note_on channel=9 note=53 velocity=80 time=0
note_on channel=9 note=38 velocity=80 time=0
note_off channel=9 note=53 velocity=64 time=240
note_off channel=9 note=38 velocity=64 time=0
note_on channel=9 note=35 velocity=80 time=0
note_off channel=9 note=35 velocity=64 time=120
note_on channel=9 note=35 velocity=80 time=0
note_off channel=9 note=35 velocity=64 time=120
note_on channel=9 note=53 velocity=80 time=0
note_on channel=9 note=35 velocity=80 time=0
note_off channel=9 note=53 velocity=64 time=240
note_off channel=9 note=35 velocity=64 time=0
note_on channel=9 note=35 velocity=80 time=0
note_off channel=9 note=35 velocity=64 time=240
note_on channel=9 note=53 velocity=80 time=0
note_on channel=9 note=38 velocity=80 time=0
note_off channel=9 note=53 velocity=64 time=240
note_off channel=9 note=38 velocity=64 time=0
note_on channel=9 note=35 velocity=80 time=0
note_off channel=9 note=35 velocity=64 time=240
note_on channel=9 note=49 velocity=80 time=0
note_on channel=9 note=35 velocity=80 time=0
note_off channel=9 note=49 velocity=64 time=240
note_off channel=9 note=35 velocity=64 time=0
note_on channel=9 note=35 velocity=80 time=0
note_off channel=9 note=35 velocity=64 time=120
note_on channel=9 note=35 velocity=80 time=0
note_off channel=9 note=35 velocity=64 time=120
note_on channel=9 note=53 velocity=80 time=0
note_on channel=9 note=38 velocity=80 time=0
note_off channel=9 note=53 velocity=64 time=240
note_off channel=9 note=38 velocity=64 time=0
note_on channel=9 note=35 velocity=80 time=0
note_off channel=9 note=35 velocity=64 time=120
note_on channel=9 note=35 velocity=80 time=0
note_off channel=9 note=35 velocity=64 time=120
note_on channel=9 note=53 velocity=80 time=0
note_on channel=9 note=35 velocity=80 time=0
note_off channel=9 note=53 velocity=64 time=240
note_off channel=9 note=35 velocity=64 time=0
note_on channel=9 note=35 velocity=80 time=0
note_off channel=9 note=35 velocity=64 time=240
note_on channel=9 note=53 velocity=80 time=0
note_on channel=9 note=38 velocity=80 time=0
note_off channel=9 note=53 velocity=64 time=240
note_off channel=9 note=38 velocity=64 time=0
note_on channel=9 note=35 velocity=80 time=0
note_off channel=9 note=35 velocity=64 time=120
note_on channel=9 note=35 velocity=80 time=0
note_off channel=9 note=35 velocity=64 time=120
note_on channel=9 note=53 velocity=80 time=0
note_on channel=9 note=35 velocity=80 time=0
note_off channel=9 note=53 velocity=64 time=240
note_off channel=9 note=35 velocity=64 time=0
note_on channel=9 note=35 velocity=80 time=0
note_off channel=9 note=35 velocity=64 time=120
note_on channel=9 note=35 velocity=80 time=0
note_off channel=9 note=35 velocity=64 time=120
note_on channel=9 note=53 velocity=80 time=0
note_on channel=9 note=38 velocity=80 time=0
note_off channel=9 note=53 velocity=64 time=240
note_off channel=9 note=38 velocity=64 time=0
note_on channel=9 note=35 velocity=80 time=0
note_off channel=9 note=35 velocity=64 time=120
note_on channel=9 note=35 velocity=80 time=0
note_off channel=9 note=35 velocity=64 time=120
note_on channel=9 note=53 velocity=80 time=0
note_on channel=9 note=35 velocity=80 time=0
note_off channel=9 note=53 velocity=64 time=240
note_off channel=9 note=35 velocity=64 time=0
note_on channel=9 note=35 velocity=80 time=0
note_off channel=9 note=35 velocity=64 time=240
note_on channel=9 note=53 velocity=80 time=0
note_on channel=9 note=38 velocity=80 time=0
note_off channel=9 note=53 velocity=64 time=240
note_off channel=9 note=38 velocity=64 time=0
note_on channel=9 note=35 velocity=80 time=0
note_off channel=9 note=35 velocity=64 time=240
note_on channel=9 note=49 velocity=80 time=0
note_on channel=9 note=35 velocity=80 time=0
note_off channel=9 note=49 velocity=64 time=240
note_off channel=9 note=35 velocity=64 time=0
note_on channel=9 note=35 velocity=80 time=0
note_off channel=9 note=35 velocity=64 time=120
note_on channel=9 note=35 velocity=80 time=0
note_off channel=9 note=35 velocity=64 time=120
note_on channel=9 note=46 velocity=80 time=0
note_on channel=9 note=38 velocity=80 time=0
note_off channel=9 note=46 velocity=64 time=240
note_off channel=9 note=38 velocity=64 time=0
note_on channel=9 note=35 velocity=80 time=0
note_off channel=9 note=35 velocity=64 time=120
note_on channel=9 note=35 velocity=80 time=0
note_off channel=9 note=35 velocity=64 time=120
note_on channel=9 note=46 velocity=80 time=0
note_on channel=9 note=35 velocity=80 time=0
note_off channel=9 note=46 velocity=64 time=240
note_off channel=9 note=35 velocity=64 time=0
note_on channel=9 note=35 velocity=80 time=0
note_off channel=9 note=35 velocity=64 time=240
note_on channel=9 note=46 velocity=80 time=0
note_on channel=9 note=38 velocity=80 time=0
note_off channel=9 note=46 velocity=64 time=240
note_off channel=9 note=38 velocity=64 time=0
note_on channel=9 note=35 velocity=80 time=0
note_off channel=9 note=35 velocity=64 time=240
note_on channel=9 note=46 velocity=80 time=0
note_on channel=9 note=35 velocity=80 time=0
note_off channel=9 note=46 velocity=64 time=240
note_off channel=9 note=35 velocity=64 time=0
note_on channel=9 note=35 velocity=80 time=0
note_off channel=9 note=35 velocity=64 time=120
note_on channel=9 note=35 velocity=80 time=0
note_off channel=9 note=35 velocity=64 time=120
note_on channel=9 note=46 velocity=80 time=0
note_on channel=9 note=38 velocity=80 time=0
note_off channel=9 note=46 velocity=64 time=240
note_off channel=9 note=38 velocity=64 time=0
note_on channel=9 note=35 velocity=80 time=0
note_off channel=9 note=35 velocity=64 time=120
note_on channel=9 note=35 velocity=80 time=0
note_off channel=9 note=35 velocity=64 time=120
note_on channel=9 note=46 velocity=80 time=0
note_on channel=9 note=35 velocity=80 time=0
note_off channel=9 note=46 velocity=64 time=240
note_off channel=9 note=35 velocity=64 time=0
note_on channel=9 note=35 velocity=80 time=0
note_off channel=9 note=35 velocity=64 time=240
note_on channel=9 note=46 velocity=80 time=0
note_on channel=9 note=38 velocity=80 time=0
note_off channel=9 note=46 velocity=64 time=240
note_off channel=9 note=38 velocity=64 time=0
note_on channel=9 note=35 velocity=80 time=0
note_off channel=9 note=35 velocity=64 time=240
note_on channel=9 note=49 velocity=80 time=0
note_on channel=9 note=35 velocity=80 time=0
note_off channel=9 note=49 velocity=64 time=240
note_off channel=9 note=35 velocity=64 time=0
note_on channel=9 note=35 velocity=80 time=0
note_off channel=9 note=35 velocity=64 time=120
note_on channel=9 note=35 velocity=80 time=0
note_off channel=9 note=35 velocity=64 time=120
note_on channel=9 note=46 velocity=80 time=0
note_on channel=9 note=38 velocity=80 time=0
note_off channel=9 note=46 velocity=64 time=240
note_off channel=9 note=38 velocity=64 time=0
note_on channel=9 note=35 velocity=80 time=0
note_off channel=9 note=35 velocity=64 time=120
note_on channel=9 note=35 velocity=80 time=0
note_off channel=9 note=35 velocity=64 time=120
note_on channel=9 note=46 velocity=80 time=0
note_on channel=9 note=35 velocity=80 time=0
note_off channel=9 note=46 velocity=64 time=240
note_off channel=9 note=35 velocity=64 time=0
note_on channel=9 note=35 velocity=80 time=0
note_off channel=9 note=35 velocity=64 time=240
note_on channel=9 note=46 velocity=80 time=0
note_on channel=9 note=38 velocity=80 time=0
note_off channel=9 note=46 velocity=64 time=240
note_off channel=9 note=38 velocity=64 time=0
note_on channel=9 note=35 velocity=80 time=0
note_off channel=9 note=35 velocity=64 time=120
note_on channel=9 note=35 velocity=80 time=0
note_off channel=9 note=35 velocity=64 time=120
note_on channel=9 note=46 velocity=80 time=0
note_on channel=9 note=35 velocity=80 time=0
note_off channel=9 note=46 velocity=64 time=240
note_off channel=9 note=35 velocity=64 time=0
note_on channel=9 note=35 velocity=80 time=0
note_off channel=9 note=35 velocity=64 time=120
note_on channel=9 note=35 velocity=80 time=0
note_off channel=9 note=35 velocity=64 time=120
note_on channel=9 note=46 velocity=80 time=0
note_on channel=9 note=38 velocity=80 time=0
note_off channel=9 note=46 velocity=64 time=240
note_off channel=9 note=38 velocity=64 time=0
note_on channel=9 note=35 velocity=80 time=0
note_off channel=9 note=35 velocity=64 time=120
note_on channel=9 note=35 velocity=80 time=0
note_off channel=9 note=35 velocity=64 time=120
note_on channel=9 note=46 velocity=80 time=0
note_on channel=9 note=35 velocity=80 time=0
note_off channel=9 note=46 velocity=64 time=240
note_off channel=9 note=35 velocity=64 time=0
note_on channel=9 note=35 velocity=80 time=0
note_off channel=9 note=35 velocity=64 time=240
note_on channel=9 note=46 velocity=80 time=0
note_on channel=9 note=38 velocity=80 time=0
note_off channel=9 note=46 velocity=64 time=240
note_off channel=9 note=38 velocity=64 time=0
note_on channel=9 note=35 velocity=80 time=0
note_off channel=9 note=35 velocity=64 time=240
note_on channel=9 note=49 velocity=80 time=0
note_on channel=9 note=38 velocity=80 time=0
note_on channel=9 note=35 velocity=80 time=0
note_off channel=9 note=49 velocity=64 time=1920
note_off channel=9 note=38 velocity=64 time=0
note_off channel=9 note=35 velocity=64 time=0
MetaMessage('end_of_track', time=0)
