E:\PyCharm\P\Fortari2600\venv\Scripts\python.exe E:/PyCharm/P/Fortari2600/main.py
MetaMessage('time_signature', numerator=4, denominator=4, clocks_per_click=24, notated_32nd_notes_per_beat=8, time=0)
MetaMessage('set_tempo', tempo=500000, time=0)
MetaMessage('key_signature', key='C', time=0)
MetaMessage('end_of_track', time=0)
MetaMessage('midi_port', port=1, time=0)
MetaMessage('track_name', name='   THE SECRET OF    ', time=0)
program_change channel=1 program=75 time=1330
control_change channel=1 control=7 value=127 time=0
control_change channel=1 control=10 value=50 time=0
note_on channel=1 note=40 velocity=68 time=8
note_on channel=1 note=43 velocity=60 time=3890
note_off channel=1 note=40 velocity=64 time=28
note_on channel=1 note=45 velocity=52 time=1018
note_off channel=1 note=43 velocity=64 time=10
note_off channel=1 note=45 velocity=64 time=1020
note_on channel=1 note=43 velocity=60 time=10
note_on channel=1 note=42 velocity=56 time=1044
note_off channel=1 note=43 velocity=64 time=36
note_on channel=1 note=38 velocity=76 time=492
note_off channel=1 note=42 velocity=64 time=16
note_off channel=1 note=38 velocity=64 time=480
program_change channel=1 program=75 time=1754
control_change channel=1 control=7 value=127 time=24
note_on channel=1 note=76 velocity=100 time=98
note_off channel=1 note=76 velocity=64 time=92
note_on channel=1 note=76 velocity=96 time=38
note_on channel=1 note=79 velocity=92 time=66
note_off channel=1 note=76 velocity=64 time=2
note_on channel=1 note=78 velocity=104 time=66
note_off channel=1 note=79 velocity=64 time=16
note_on channel=1 note=76 velocity=100 time=48
note_off channel=1 note=78 velocity=64 time=12
note_on channel=1 note=74 velocity=96 time=54
note_off channel=1 note=76 velocity=64 time=8
note_off channel=1 note=74 velocity=64 time=72
note_on channel=1 note=76 velocity=88 time=54
note_off channel=1 note=76 velocity=64 time=246
note_on channel=1 note=74 velocity=92 time=148
note_off channel=1 note=74 velocity=64 time=72
note_on channel=1 note=74 velocity=96 time=60
note_on channel=1 note=72 velocity=92 time=66
note_off channel=1 note=74 velocity=64 time=18
note_off channel=1 note=72 velocity=64 time=46
note_on channel=1 note=71 velocity=92 time=2
note_on channel=1 note=74 velocity=92 time=66
note_off channel=1 note=71 velocity=64 time=2
note_on channel=1 note=72 velocity=96 time=62
note_off channel=1 note=74 velocity=64 time=16
note_off channel=1 note=72 velocity=64 time=66
note_on channel=1 note=72 velocity=100 time=50
note_off channel=1 note=72 velocity=64 time=78
note_on channel=1 note=71 velocity=100 time=56
note_off channel=1 note=71 velocity=64 time=242
note_on channel=1 note=76 velocity=96 time=152
note_off channel=1 note=76 velocity=64 time=74
note_on channel=1 note=76 velocity=100 time=58
note_off channel=1 note=76 velocity=64 time=172
note_on channel=1 note=79 velocity=88 time=24
note_on channel=1 note=78 velocity=104 time=66
note_off channel=1 note=79 velocity=64 time=16
note_on channel=1 note=76 velocity=96 time=50
note_off channel=1 note=78 velocity=64 time=2
note_on channel=1 note=74 velocity=100 time=62
note_off channel=1 note=76 velocity=64 time=12
note_off channel=1 note=74 velocity=64 time=60
note_on channel=1 note=76 velocity=96 time=62
note_off channel=1 note=76 velocity=64 time=372
note_on channel=1 note=78 velocity=104 time=88
note_off channel=1 note=78 velocity=64 time=60
note_on channel=1 note=79 velocity=96 time=8
note_off channel=1 note=79 velocity=64 time=56
note_on channel=1 note=79 velocity=100 time=76
note_off channel=1 note=79 velocity=64 time=58
note_on channel=1 note=81 velocity=100 time=74
note_off channel=1 note=81 velocity=64 time=150
note_on channel=1 note=78 velocity=100 time=112
note_off channel=1 note=78 velocity=64 time=166
note_on channel=1 note=79 velocity=88 time=32
note_on channel=1 note=78 velocity=100 time=66
note_off channel=1 note=79 velocity=64 time=12
note_on channel=1 note=76 velocity=96 time=54
note_off channel=1 note=78 velocity=64 time=6
note_off channel=1 note=76 velocity=64 time=52
note_on channel=1 note=74 velocity=92 time=8
note_on channel=1 note=78 velocity=96 time=66
note_off channel=1 note=74 velocity=64 time=2
note_on channel=1 note=79 velocity=100 time=64
note_off channel=1 note=78 velocity=64 time=10
note_off channel=1 note=79 velocity=64 time=66
note_on channel=1 note=79 velocity=100 time=54
note_off channel=1 note=79 velocity=64 time=76
note_on channel=1 note=78 velocity=100 time=58
note_off channel=1 note=78 velocity=64 time=214
note_on channel=1 note=76 velocity=92 time=54
note_off channel=1 note=76 velocity=64 time=164
note_on channel=1 note=79 velocity=100 time=36
note_on channel=1 note=78 velocity=84 time=66
note_off channel=1 note=79 velocity=64 time=8
note_on channel=1 note=76 velocity=92 time=56
note_off channel=1 note=78 velocity=64 time=10
note_on channel=1 note=74 velocity=96 time=56
note_off channel=1 note=76 velocity=64 time=2
note_off channel=1 note=74 velocity=64 time=60
note_on channel=1 note=78 velocity=100 time=2
note_on channel=1 note=79 velocity=96 time=68
note_off channel=1 note=78 velocity=64 time=10
note_off channel=1 note=79 velocity=64 time=50
note_on channel=1 note=79 velocity=100 time=72
note_off channel=1 note=79 velocity=64 time=70
note_on channel=1 note=78 velocity=104 time=62
note_off channel=1 note=78 velocity=64 time=194
note_on channel=1 note=76 velocity=92 time=66
note_off channel=1 note=76 velocity=64 time=160
note_on channel=1 note=79 velocity=100 time=40
note_on channel=1 note=78 velocity=88 time=64
note_off channel=1 note=79 velocity=64 time=18
note_on channel=1 note=76 velocity=96 time=50
note_off channel=1 note=78 velocity=64 time=16
note_on channel=1 note=74 velocity=92 time=52
note_off channel=1 note=76 velocity=64 time=12
note_on channel=1 note=76 velocity=100 time=118
note_off channel=1 note=74 velocity=64 time=28
note_off channel=1 note=76 velocity=64 time=48
note_on channel=1 note=76 velocity=92 time=54
note_off channel=1 note=76 velocity=64 time=80
note_on channel=1 note=76 velocity=92 time=52
note_off channel=1 note=76 velocity=64 time=274
note_on channel=1 note=76 velocity=92 time=120
note_off channel=1 note=76 velocity=64 time=100
note_on channel=1 note=74 velocity=92 time=30
note_off channel=1 note=74 velocity=64 time=68
note_on channel=1 note=72 velocity=88 time=0
note_on channel=1 note=71 velocity=88 time=64
note_off channel=1 note=72 velocity=64 time=14
note_off channel=1 note=71 velocity=64 time=52
note_on channel=1 note=74 velocity=92 time=0
note_on channel=1 note=72 velocity=100 time=68
note_off channel=1 note=74 velocity=64 time=8
note_off channel=1 note=72 velocity=64 time=66
note_on channel=1 note=72 velocity=92 time=56
note_off channel=1 note=72 velocity=64 time=70
note_on channel=1 note=71 velocity=84 time=66
note_off channel=1 note=71 velocity=64 time=148
note_on channel=1 note=71 velocity=64 time=1162
note_on channel=1 note=74 velocity=68 time=130
note_off channel=1 note=71 velocity=64 time=6
note_on channel=1 note=84 velocity=68 time=124
note_on channel=1 note=76 velocity=64 time=0
note_off channel=1 note=74 velocity=64 time=18
note_on channel=1 note=79 velocity=60 time=114
note_off channel=1 note=84 velocity=64 time=6
note_off channel=1 note=79 velocity=64 time=48
note_on channel=1 note=79 velocity=72 time=76
note_off channel=1 note=79 velocity=64 time=190
note_off channel=1 note=76 velocity=64 time=10
note_on channel=1 note=84 velocity=72 time=64
note_on channel=1 note=72 velocity=72 time=0
note_off channel=1 note=84 velocity=64 time=58
note_on channel=1 note=83 velocity=60 time=8
note_on channel=1 note=81 velocity=68 time=68
note_off channel=1 note=83 velocity=64 time=12
note_off channel=1 note=81 velocity=64 time=44
note_on channel=1 note=84 velocity=68 time=10
note_off channel=1 note=72 velocity=64 time=52
note_off channel=1 note=84 velocity=64 time=10
note_on channel=1 note=83 velocity=68 time=4
note_on channel=1 note=74 velocity=56 time=0
note_off channel=1 note=83 velocity=64 time=132
note_on channel=1 note=79 velocity=56 time=0
note_off channel=1 note=79 velocity=64 time=64
note_on channel=1 note=79 velocity=72 time=68
note_off channel=1 note=74 velocity=64 time=210
note_off channel=1 note=79 velocity=64 time=46
note_on channel=1 note=71 velocity=68 time=6
note_on channel=1 note=79 velocity=68 time=130
note_off channel=1 note=71 velocity=64 time=76
note_on channel=1 note=81 velocity=52 time=54
note_on channel=1 note=72 velocity=64 time=0
note_off channel=1 note=79 velocity=64 time=14
note_off channel=1 note=81 velocity=64 time=100
note_on channel=1 note=74 velocity=60 time=16
note_off channel=1 note=74 velocity=64 time=62
note_on channel=1 note=74 velocity=60 time=74
note_off channel=1 note=74 velocity=64 time=148
note_off channel=1 note=72 velocity=64 time=48
note_on channel=1 note=81 velocity=72 time=2
note_off channel=1 note=81 velocity=64 time=70
note_on channel=1 note=83 velocity=68 time=0
note_on channel=1 note=74 velocity=60 time=0
note_on channel=1 note=81 velocity=60 time=64
note_off channel=1 note=83 velocity=64 time=2
note_on channel=1 note=79 velocity=60 time=64
note_off channel=1 note=81 velocity=64 time=10
note_off channel=1 note=74 velocity=64 time=28
note_on channel=1 note=81 velocity=68 time=30
note_off channel=1 note=79 velocity=64 time=8
note_on channel=1 note=83 velocity=64 time=58
note_on channel=1 note=79 velocity=64 time=0
note_off channel=1 note=81 velocity=64 time=4
note_off channel=1 note=83 velocity=64 time=124
note_off channel=1 note=79 velocity=64 time=2
note_on channel=1 note=79 velocity=52 time=2
note_on channel=1 note=78 velocity=68 time=0
note_off channel=1 note=79 velocity=64 time=56
note_off channel=1 note=78 velocity=64 time=10
note_on channel=1 note=79 velocity=68 time=70
note_on channel=1 note=76 velocity=60 time=0
note_off channel=1 note=76 velocity=64 time=132
note_on channel=1 note=76 velocity=51 time=2
note_on channel=1 note=71 velocity=60 time=0
note_off channel=1 note=79 velocity=64 time=24
note_off channel=1 note=76 velocity=64 time=34
note_off channel=1 note=71 velocity=64 time=2
note_on channel=1 note=76 velocity=68 time=74
note_on channel=1 note=71 velocity=60 time=0
note_off channel=1 note=71 velocity=64 time=172
note_on channel=1 note=66 velocity=72 time=88
note_off channel=1 note=76 velocity=64 time=22
note_on channel=1 note=67 velocity=72 time=110
note_off channel=1 note=66 velocity=64 time=6
note_on channel=1 note=69 velocity=80 time=124
note_off channel=1 note=67 velocity=64 time=6
note_on channel=1 note=67 velocity=80 time=1054
note_off channel=1 note=69 velocity=64 time=10
note_on channel=1 note=66 velocity=64 time=906
note_off channel=1 note=67 velocity=64 time=36
note_on channel=1 note=67 velocity=72 time=98
note_off channel=1 note=66 velocity=64 time=12
note_on channel=1 note=72 velocity=76 time=516
note_off channel=1 note=67 velocity=64 time=4
note_off channel=1 note=72 velocity=64 time=516
note_on channel=1 note=74 velocity=60 time=6
note_off channel=1 note=74 velocity=64 time=972
note_on channel=1 note=76 velocity=102 time=94
note_off channel=1 note=76 velocity=64 time=56
note_on channel=1 note=76 velocity=102 time=76
note_off channel=1 note=76 velocity=64 time=60
note_on channel=1 note=79 velocity=80 time=6
note_on channel=1 note=78 velocity=93 time=66
note_off channel=1 note=79 velocity=64 time=6
note_on channel=1 note=76 velocity=84 time=58
note_off channel=1 note=78 velocity=64 time=4
note_off channel=1 note=76 velocity=64 time=56
note_on channel=1 note=74 velocity=76 time=6
note_off channel=1 note=74 velocity=64 time=72
note_on channel=1 note=76 velocity=93 time=64
note_off channel=1 note=76 velocity=64 time=272
note_on channel=1 note=74 velocity=93 time=120
note_off channel=1 note=74 velocity=64 time=62
note_on channel=1 note=74 velocity=93 time=74
note_on channel=1 note=72 velocity=84 time=64
note_off channel=1 note=74 velocity=64 time=14
note_off channel=1 note=72 velocity=64 time=46
note_on channel=1 note=71 velocity=84 time=6
note_on channel=1 note=74 velocity=102 time=62
note_off channel=1 note=71 velocity=64 time=6
note_off channel=1 note=74 velocity=64 time=50
note_on channel=1 note=72 velocity=93 time=12
note_off channel=1 note=72 velocity=64 time=64
note_on channel=1 note=72 velocity=93 time=68
note_off channel=1 note=72 velocity=64 time=60
note_on channel=1 note=71 velocity=93 time=76
note_off channel=1 note=71 velocity=64 time=264
note_on channel=1 note=76 velocity=107 time=136
note_off channel=1 note=76 velocity=64 time=42
note_on channel=1 note=76 velocity=102 time=88
note_off channel=1 note=76 velocity=64 time=160
note_on channel=1 note=79 velocity=93 time=38
note_on channel=1 note=78 velocity=72 time=68
note_off channel=1 note=79 velocity=64 time=2
note_on channel=1 note=76 velocity=84 time=64
note_off channel=1 note=78 velocity=64 time=6
note_off channel=1 note=76 velocity=64 time=52
note_on channel=1 note=74 velocity=84 time=8
note_off channel=1 note=74 velocity=64 time=68
note_on channel=1 note=76 velocity=102 time=60
note_off channel=1 note=76 velocity=64 time=380
note_on channel=1 note=78 velocity=107 time=78
note_off channel=1 note=78 velocity=64 time=54
note_on channel=1 note=79 velocity=84 time=14
note_on channel=1 note=77 velocity=76 time=0
note_off channel=1 note=77 velocity=64 time=8
note_off channel=1 note=79 velocity=64 time=36
note_on channel=1 note=79 velocity=107 time=84
note_off channel=1 note=79 velocity=64 time=62
note_on channel=1 note=81 velocity=93 time=72
note_off channel=1 note=81 velocity=64 time=170
note_on channel=1 note=78 velocity=107 time=94
note_off channel=1 note=78 velocity=64 time=152
note_on channel=1 note=79 velocity=93 time=48
note_on channel=1 note=78 velocity=84 time=66
note_off channel=1 note=79 velocity=64 time=12
note_on channel=1 note=76 velocity=72 time=54
note_off channel=1 note=78 velocity=64 time=4
note_on channel=1 note=74 velocity=84 time=60
note_off channel=1 note=76 velocity=64 time=10
note_on channel=1 note=78 velocity=80 time=54
note_off channel=1 note=74 velocity=64 time=14
note_on channel=1 note=79 velocity=93 time=52
note_off channel=1 note=78 velocity=64 time=18
note_off channel=1 note=79 velocity=64 time=52
note_on channel=1 note=79 velocity=93 time=66
note_off channel=1 note=79 velocity=64 time=72
note_on channel=1 note=78 velocity=102 time=60
note_off channel=1 note=78 velocity=64 time=200
note_on channel=1 note=76 velocity=102 time=60
note_off channel=1 note=76 velocity=64 time=146
note_on channel=1 note=79 velocity=84 time=54
note_on channel=1 note=78 velocity=93 time=66
note_off channel=1 note=79 velocity=64 time=14
note_on channel=1 note=76 velocity=76 time=52
note_off channel=1 note=78 velocity=64 time=12
note_off channel=1 note=76 velocity=64 time=52
note_on channel=1 note=74 velocity=93 time=0
note_on channel=1 note=78 velocity=93 time=66
note_off channel=1 note=74 velocity=64 time=12
note_on channel=1 note=79 velocity=84 time=54
note_off channel=1 note=78 velocity=64 time=18
note_off channel=1 note=79 velocity=64 time=42
note_on channel=1 note=79 velocity=93 time=72
note_off channel=1 note=79 velocity=64 time=70
note_on channel=1 note=78 velocity=93 time=64
note_off channel=1 note=78 velocity=64 time=182
note_on channel=1 note=76 velocity=93 time=84
note_off channel=1 note=76 velocity=64 time=132
note_on channel=1 note=79 velocity=84 time=60
note_on channel=1 note=78 velocity=93 time=64
note_off channel=1 note=79 velocity=64 time=20
note_on channel=1 note=76 velocity=76 time=46
note_off channel=1 note=78 velocity=64 time=16
note_on channel=1 note=74 velocity=84 time=50
note_off channel=1 note=76 velocity=64 time=8
note_off channel=1 note=74 velocity=64 time=62
note_on channel=1 note=76 velocity=93 time=62
note_off channel=1 note=76 velocity=64 time=62
note_on channel=1 note=76 velocity=93 time=74
note_off channel=1 note=76 velocity=64 time=54
note_on channel=1 note=76 velocity=93 time=80
note_off channel=1 note=76 velocity=64 time=226
note_on channel=1 note=74 velocity=102 time=168
note_off channel=1 note=74 velocity=64 time=78
note_on channel=1 note=72 velocity=93 time=54
note_on channel=1 note=71 velocity=84 time=66
note_off channel=1 note=72 velocity=64 time=2
note_on channel=1 note=72 velocity=84 time=66
note_off channel=1 note=71 velocity=64 time=2
note_on channel=1 note=71 velocity=93 time=130
note_off channel=1 note=72 velocity=64 time=12
note_off channel=1 note=71 velocity=64 time=122
note_on channel=1 note=76 velocity=93 time=264
note_off channel=1 note=76 velocity=64 time=86
note_on channel=1 note=76 velocity=93 time=44
note_on channel=1 note=79 velocity=72 time=200
note_off channel=1 note=76 velocity=64 time=8
note_on channel=1 note=78 velocity=84 time=58
note_off channel=1 note=79 velocity=64 time=24
note_on channel=1 note=76 velocity=72 time=40
note_off channel=1 note=78 velocity=64 time=18
note_off channel=1 note=76 velocity=64 time=46
note_on channel=1 note=74 velocity=80 time=0
note_on channel=1 note=76 velocity=102 time=136
note_off channel=1 note=74 velocity=64 time=12
note_off channel=1 note=76 velocity=64 time=68
note_on channel=1 note=76 velocity=84 time=52
note_off channel=1 note=76 velocity=64 time=288
note_on channel=1 note=79 velocity=93 time=38
note_off channel=1 note=79 velocity=64 time=64
note_on channel=1 note=81 velocity=84 time=2
note_on channel=1 note=79 velocity=93 time=66
note_off channel=1 note=81 velocity=64 time=4
note_on channel=1 note=78 velocity=84 time=62
note_off channel=1 note=79 velocity=64 time=4
note_off channel=1 note=78 velocity=64 time=54
note_on channel=1 note=81 velocity=84 time=8
note_on channel=1 note=79 velocity=93 time=68
note_off channel=1 note=81 velocity=64 time=10
note_off channel=1 note=79 velocity=64 time=52
note_on channel=1 note=76 velocity=93 time=4
note_on channel=1 note=78 velocity=93 time=66
note_off channel=1 note=76 velocity=64 time=16
note_off channel=1 note=78 velocity=64 time=50
note_on channel=1 note=76 velocity=102 time=72
note_off channel=1 note=76 velocity=64 time=146
program_change channel=1 program=16 time=556
control_change channel=1 control=7 value=90 time=0
control_change channel=1 control=10 value=80 time=0
note_on channel=1 note=52 velocity=80 time=110
note_off channel=1 note=52 velocity=64 time=10
note_on channel=1 note=72 velocity=80 time=60
note_on channel=1 note=67 velocity=80 time=4
note_on channel=1 note=64 velocity=80 time=2
note_off channel=1 note=64 velocity=64 time=38
note_off channel=1 note=67 velocity=64 time=14
note_on channel=1 note=65 velocity=64 time=40
note_on channel=1 note=69 velocity=56 time=10
note_on channel=1 note=74 velocity=36 time=10
note_off channel=1 note=74 velocity=64 time=1
note_off channel=1 note=65 velocity=64 time=17
note_off channel=1 note=72 velocity=64 time=14
note_off channel=1 note=69 velocity=64 time=2
note_on channel=1 note=57 velocity=64 time=138
note_off channel=1 note=57 velocity=64 time=10
note_on channel=1 note=72 velocity=72 time=60
note_on channel=1 note=65 velocity=68 time=4
note_on channel=1 note=69 velocity=80 time=2
note_off channel=1 note=65 velocity=64 time=52
note_off channel=1 note=69 velocity=64 time=16
note_off channel=1 note=72 velocity=64 time=12
note_on channel=1 note=60 velocity=56 time=26
note_off channel=1 note=60 velocity=64 time=30
note_on channel=1 note=74 velocity=76 time=226
note_on channel=1 note=71 velocity=80 time=2
note_on channel=1 note=67 velocity=84 time=2
note_off channel=1 note=67 velocity=64 time=60
note_off channel=1 note=74 velocity=64 time=16
note_off channel=1 note=71 velocity=64 time=10
note_on channel=1 note=59 velocity=68 time=16
note_off channel=1 note=59 velocity=64 time=18
note_on channel=1 note=55 velocity=80 time=162
note_off channel=1 note=55 velocity=64 time=10
note_on channel=1 note=72 velocity=68 time=58
note_on channel=1 note=64 velocity=68 time=2
note_on channel=1 note=67 velocity=80 time=4
note_off channel=1 note=64 velocity=64 time=86
note_on channel=1 note=52 velocity=80 time=20
note_on channel=1 note=60 velocity=64 time=4
note_off channel=1 note=72 velocity=64 time=8
note_off channel=1 note=52 velocity=64 time=8
note_off channel=1 note=60 velocity=64 time=0
note_off channel=1 note=67 velocity=64 time=4
note_on channel=1 note=48 velocity=72 time=162
note_off channel=1 note=48 velocity=64 time=24
note_on channel=1 note=72 velocity=80 time=54
note_on channel=1 note=64 velocity=80 time=2
note_on channel=1 note=67 velocity=93 time=2
note_off channel=1 note=64 velocity=64 time=54
note_on channel=1 note=65 velocity=64 time=54
note_on channel=1 note=69 velocity=84 time=2
note_off channel=1 note=67 velocity=64 time=12
note_off channel=1 note=65 velocity=64 time=26
note_off channel=1 note=72 velocity=64 time=10
note_off channel=1 note=69 velocity=64 time=2
note_on channel=1 note=72 velocity=80 time=200
note_on channel=1 note=65 velocity=76 time=2
note_on channel=1 note=69 velocity=80 time=0
note_off channel=1 note=65 velocity=64 time=94
note_on channel=1 note=57 velocity=64 time=12
note_on channel=1 note=60 velocity=72 time=0
note_off channel=1 note=72 velocity=64 time=4
note_off channel=1 note=69 velocity=64 time=2
note_off channel=1 note=57 velocity=64 time=4
note_off channel=1 note=60 velocity=64 time=16
note_on channel=1 note=55 velocity=80 time=160
note_off channel=1 note=55 velocity=64 time=20
note_on channel=1 note=71 velocity=72 time=50
note_on channel=1 note=74 velocity=68 time=2
note_on channel=1 note=67 velocity=80 time=2
note_off channel=1 note=67 velocity=64 time=74
note_on channel=1 note=59 velocity=76 time=32
note_off channel=1 note=59 velocity=64 time=22
note_off channel=1 note=71 velocity=64 time=10
note_off channel=1 note=74 velocity=64 time=26
note_on channel=1 note=64 velocity=56 time=16
note_off channel=1 note=64 velocity=64 time=14
note_on channel=1 note=60 velocity=60 time=94
note_off channel=1 note=60 velocity=64 time=12
note_on channel=1 note=72 velocity=72 time=62
note_on channel=1 note=67 velocity=80 time=2
note_on channel=1 note=64 velocity=80 time=0
note_off channel=1 note=64 velocity=64 time=36
note_off channel=1 note=67 velocity=64 time=20
note_off channel=1 note=72 velocity=64 time=2
note_on channel=1 note=55 velocity=72 time=54
note_off channel=1 note=55 velocity=64 time=14
note_on channel=1 note=48 velocity=80 time=56
note_off channel=1 note=48 velocity=64 time=30
note_on channel=1 note=60 velocity=36 time=98
note_off channel=1 note=60 velocity=64 time=1
note_on channel=1 note=72 velocity=84 time=61
note_on channel=1 note=67 velocity=93 time=2
note_on channel=1 note=64 velocity=80 time=2
note_off channel=1 note=64 velocity=64 time=66
note_on channel=1 note=69 velocity=68 time=42
note_on channel=1 note=65 velocity=76 time=2
note_off channel=1 note=67 velocity=64 time=12
note_off channel=1 note=65 velocity=64 time=24
note_off channel=1 note=69 velocity=64 time=8
note_off channel=1 note=72 velocity=64 time=12
note_on channel=1 note=65 velocity=76 time=194
note_on channel=1 note=69 velocity=84 time=2
note_on channel=1 note=72 velocity=76 time=2
note_off channel=1 note=65 velocity=64 time=62
note_off channel=1 note=69 velocity=64 time=10
note_off channel=1 note=72 velocity=64 time=12
note_on channel=1 note=60 velocity=52 time=20
note_off channel=1 note=60 velocity=64 time=40
note_on channel=1 note=55 velocity=72 time=38
note_off channel=1 note=55 velocity=64 time=36
note_on channel=1 note=71 velocity=84 time=142
note_on channel=1 note=74 velocity=84 time=2
note_on channel=1 note=67 velocity=84 time=0
note_off channel=1 note=67 velocity=64 time=56
note_off channel=1 note=74 velocity=64 time=26
note_off channel=1 note=71 velocity=64 time=6
note_on channel=1 note=62 velocity=52 time=16
note_off channel=1 note=62 velocity=64 time=28
note_on channel=1 note=57 velocity=68 time=50
note_off channel=1 note=57 velocity=64 time=28
note_on channel=1 note=72 velocity=80 time=148
note_on channel=1 note=69 velocity=76 time=2
note_on channel=1 note=76 velocity=84 time=4
note_off channel=1 note=69 velocity=64 time=92
note_on channel=1 note=64 velocity=51 time=10
note_off channel=1 note=64 velocity=64 time=28
note_off channel=1 note=72 velocity=64 time=2
note_off channel=1 note=76 velocity=64 time=12
note_on channel=1 note=62 velocity=64 time=132
note_off channel=1 note=62 velocity=64 time=20
note_on channel=1 note=66 velocity=76 time=50
note_on channel=1 note=69 velocity=80 time=2
note_on channel=1 note=74 velocity=93 time=0
note_off channel=1 note=66 velocity=64 time=76
note_off channel=1 note=74 velocity=64 time=24
note_on channel=1 note=74 velocity=56 time=6
note_on channel=1 note=66 velocity=68 time=2
note_off channel=1 note=74 velocity=64 time=62
note_off channel=1 note=66 velocity=64 time=14
note_off channel=1 note=69 velocity=64 time=6
note_on channel=1 note=50 velocity=60 time=106
note_off channel=1 note=50 velocity=64 time=26
note_on channel=1 note=66 velocity=76 time=38
note_on channel=1 note=69 velocity=84 time=0
note_on channel=1 note=74 velocity=80 time=6
note_off channel=1 note=66 velocity=64 time=98
note_on channel=1 note=54 velocity=68 time=0
note_off channel=1 note=69 velocity=64 time=12
note_off channel=1 note=74 velocity=64 time=28
note_off channel=1 note=54 velocity=64 time=26
note_on channel=1 note=58 velocity=68 time=14
note_off channel=1 note=58 velocity=64 time=66
note_on channel=1 note=62 velocity=47 time=36
note_off channel=1 note=62 velocity=64 time=12
note_on channel=1 note=65 velocity=80 time=66
note_on channel=1 note=70 velocity=84 time=2
note_on channel=1 note=74 velocity=84 time=2
note_off channel=1 note=70 velocity=64 time=90
note_off channel=1 note=74 velocity=64 time=2
note_off channel=1 note=65 velocity=64 time=8
note_on channel=1 note=50 velocity=60 time=2
note_off channel=1 note=50 velocity=64 time=12
note_on channel=1 note=53 velocity=72 time=64
note_off channel=1 note=53 velocity=64 time=56
note_on channel=1 note=65 velocity=72 time=50
note_on channel=1 note=72 velocity=68 time=4
note_on channel=1 note=69 velocity=68 time=2
note_on channel=1 note=60 velocity=52 time=0
note_on channel=1 note=57 velocity=68 time=64
note_off channel=1 note=60 velocity=64 time=30
note_off channel=1 note=57 velocity=64 time=30
note_off channel=1 note=65 velocity=64 time=64
note_off channel=1 note=72 velocity=64 time=2
note_off channel=1 note=69 velocity=64 time=2
note_on channel=1 note=55 velocity=80 time=66
note_off channel=1 note=55 velocity=64 time=26
note_on channel=1 note=71 velocity=80 time=166
note_on channel=1 note=74 velocity=80 time=4
note_on channel=1 note=67 velocity=80 time=0
note_on channel=1 note=59 velocity=72 time=96
note_on channel=1 note=62 velocity=38 time=14
note_off channel=1 note=67 velocity=64 time=4
note_off channel=1 note=71 velocity=64 time=10
note_off channel=1 note=74 velocity=64 time=8
note_off channel=1 note=62 velocity=64 time=0
note_off channel=1 note=59 velocity=64 time=2
note_on channel=1 note=55 velocity=68 time=154
note_off channel=1 note=55 velocity=64 time=10
note_on channel=1 note=67 velocity=80 time=58
note_on channel=1 note=71 velocity=80 time=2
note_on channel=1 note=74 velocity=76 time=2
note_on channel=1 note=59 velocity=42 time=100
note_on channel=1 note=62 velocity=64 time=4
note_off channel=1 note=67 velocity=64 time=6
note_off channel=1 note=74 velocity=64 time=2
note_off channel=1 note=59 velocity=64 time=0
note_off channel=1 note=71 velocity=64 time=4
note_off channel=1 note=62 velocity=64 time=12
note_on channel=1 note=55 velocity=84 time=160
note_off channel=1 note=55 velocity=64 time=20
note_on channel=1 note=71 velocity=80 time=48
note_on channel=1 note=74 velocity=80 time=2
note_on channel=1 note=67 velocity=80 time=2
note_on channel=1 note=59 velocity=64 time=98
note_on channel=1 note=62 velocity=80 time=2
note_off channel=1 note=67 velocity=64 time=28
note_off channel=1 note=59 velocity=64 time=38
note_off channel=1 note=62 velocity=64 time=18
note_off channel=1 note=71 velocity=64 time=6
note_off channel=1 note=74 velocity=64 time=4
note_on channel=1 note=53 velocity=36 time=98
note_off channel=1 note=53 velocity=64 time=2
note_on channel=1 note=65 velocity=76 time=60
note_on channel=1 note=72 velocity=72 time=2
note_on channel=1 note=69 velocity=80 time=2
note_on channel=1 note=57 velocity=72 time=96
note_on channel=1 note=60 velocity=76 time=6
note_off channel=1 note=65 velocity=64 time=18
note_off channel=1 note=69 velocity=64 time=48
note_off channel=1 note=57 velocity=64 time=2
note_off channel=1 note=72 velocity=64 time=4
note_off channel=1 note=60 velocity=64 time=0
note_on channel=1 note=55 velocity=45 time=0
note_off channel=1 note=55 velocity=64 time=8
note_on channel=1 note=71 velocity=56 time=176
note_on channel=1 note=67 velocity=64 time=0
note_on channel=1 note=74 velocity=60 time=4
note_on channel=1 note=62 velocity=72 time=108
note_on channel=1 note=59 velocity=76 time=2
note_off channel=1 note=67 velocity=64 time=16
note_off channel=1 note=59 velocity=64 time=0
note_off channel=1 note=71 velocity=64 time=6
note_off channel=1 note=74 velocity=64 time=2
note_off channel=1 note=62 velocity=64 time=6
note_on channel=1 note=55 velocity=36 time=174
note_off channel=1 note=55 velocity=64 time=2
note_on channel=1 note=67 velocity=80 time=56
note_on channel=1 note=71 velocity=80 time=2
note_on channel=1 note=74 velocity=84 time=2
note_on channel=1 note=62 velocity=76 time=112
note_on channel=1 note=59 velocity=72 time=2
note_off channel=1 note=67 velocity=64 time=14
note_off channel=1 note=74 velocity=64 time=0
note_off channel=1 note=71 velocity=64 time=6
note_off channel=1 note=62 velocity=64 time=20
note_off channel=1 note=59 velocity=64 time=0
note_on channel=1 note=74 velocity=80 time=210
note_on channel=1 note=71 velocity=76 time=2
note_on channel=1 note=67 velocity=72 time=0
note_on channel=1 note=62 velocity=80 time=110
note_on channel=1 note=59 velocity=60 time=2
note_off channel=1 note=67 velocity=64 time=48
note_off channel=1 note=74 velocity=64 time=10
note_off channel=1 note=62 velocity=64 time=0
note_off channel=1 note=59 velocity=64 time=2
note_off channel=1 note=71 velocity=64 time=2
note_on channel=1 note=71 velocity=80 time=178
note_on channel=1 note=74 velocity=80 time=2
note_on channel=1 note=67 velocity=68 time=4
note_on channel=1 note=59 velocity=72 time=104
note_off channel=1 note=67 velocity=64 time=18
note_off channel=1 note=59 velocity=64 time=0
note_off channel=1 note=71 velocity=64 time=4
note_off channel=1 note=74 velocity=64 time=2
program_change channel=1 program=16 time=52
control_change channel=1 control=7 value=90 time=0
control_change channel=1 control=10 value=80 time=0
note_on channel=1 note=52 velocity=80 time=114
note_off channel=1 note=52 velocity=64 time=8
note_on channel=1 note=72 velocity=80 time=62
note_on channel=1 note=67 velocity=80 time=2
note_on channel=1 note=64 velocity=80 time=4
note_off channel=1 note=64 velocity=64 time=36
note_off channel=1 note=67 velocity=64 time=16
note_on channel=1 note=65 velocity=64 time=38
note_on channel=1 note=69 velocity=56 time=12
note_on channel=1 note=74 velocity=36 time=8
note_off channel=1 note=74 velocity=64 time=2
note_off channel=1 note=65 velocity=64 time=18
note_off channel=1 note=72 velocity=64 time=12
note_off channel=1 note=69 velocity=64 time=2
note_on channel=1 note=57 velocity=64 time=138
note_off channel=1 note=57 velocity=64 time=10
note_on channel=1 note=72 velocity=72 time=62
note_on channel=1 note=65 velocity=68 time=2
note_on channel=1 note=69 velocity=80 time=2
note_off channel=1 note=65 velocity=64 time=52
note_off channel=1 note=69 velocity=64 time=16
note_off channel=1 note=72 velocity=64 time=12
note_on channel=1 note=60 velocity=56 time=26
note_off channel=1 note=60 velocity=64 time=30
note_on channel=1 note=74 velocity=76 time=226
note_on channel=1 note=71 velocity=80 time=2
note_on channel=1 note=67 velocity=84 time=2
note_off channel=1 note=67 velocity=64 time=62
note_off channel=1 note=74 velocity=64 time=14
note_off channel=1 note=71 velocity=64 time=12
note_on channel=1 note=59 velocity=68 time=16
note_off channel=1 note=59 velocity=64 time=18
note_on channel=1 note=55 velocity=80 time=162
note_off channel=1 note=55 velocity=64 time=10
note_on channel=1 note=72 velocity=68 time=56
note_on channel=1 note=64 velocity=68 time=4
note_on channel=1 note=67 velocity=80 time=2
note_off channel=1 note=64 velocity=64 time=88
note_on channel=1 note=52 velocity=80 time=18
note_on channel=1 note=60 velocity=64 time=6
note_off channel=1 note=72 velocity=64 time=8
note_off channel=1 note=52 velocity=64 time=6
note_off channel=1 note=60 velocity=64 time=2
note_off channel=1 note=67 velocity=64 time=4
note_on channel=1 note=48 velocity=72 time=162
note_off channel=1 note=48 velocity=64 time=22
note_on channel=1 note=72 velocity=80 time=56
note_on channel=1 note=64 velocity=80 time=2
note_on channel=1 note=67 velocity=93 time=0
note_off channel=1 note=64 velocity=64 time=56
note_on channel=1 note=65 velocity=64 time=54
note_on channel=1 note=69 velocity=84 time=2
note_off channel=1 note=67 velocity=64 time=10
note_off channel=1 note=65 velocity=64 time=28
note_off channel=1 note=72 velocity=64 time=10
note_off channel=1 note=69 velocity=64 time=0
note_on channel=1 note=72 velocity=80 time=202
note_on channel=1 note=65 velocity=76 time=0
note_on channel=1 note=69 velocity=80 time=2
note_off channel=1 note=65 velocity=64 time=92
note_on channel=1 note=57 velocity=64 time=12
note_on channel=1 note=60 velocity=72 time=2
note_off channel=1 note=72 velocity=64 time=2
note_off channel=1 note=69 velocity=64 time=2
note_off channel=1 note=57 velocity=64 time=6
note_off channel=1 note=60 velocity=64 time=16
note_on channel=1 note=55 velocity=80 time=158
note_off channel=1 note=55 velocity=64 time=20
note_on channel=1 note=71 velocity=72 time=50
note_on channel=1 note=74 velocity=68 time=2
note_on channel=1 note=67 velocity=80 time=4
note_off channel=1 note=67 velocity=64 time=72
note_on channel=1 note=59 velocity=76 time=34
note_off channel=1 note=59 velocity=64 time=20
note_off channel=1 note=71 velocity=64 time=10
note_off channel=1 note=74 velocity=64 time=28
note_on channel=1 note=64 velocity=56 time=16
note_off channel=1 note=64 velocity=64 time=14
note_on channel=1 note=60 velocity=60 time=94
note_off channel=1 note=60 velocity=64 time=10
note_on channel=1 note=72 velocity=72 time=64
note_on channel=1 note=67 velocity=80 time=0
note_on channel=1 note=64 velocity=80 time=2
note_off channel=1 note=64 velocity=64 time=36
note_off channel=1 note=67 velocity=64 time=18
note_off channel=1 note=72 velocity=64 time=4
note_on channel=1 note=55 velocity=72 time=52
note_off channel=1 note=55 velocity=64 time=14
note_on channel=1 note=48 velocity=80 time=58
note_off channel=1 note=48 velocity=64 time=28
note_on channel=1 note=60 velocity=36 time=98
note_off channel=1 note=60 velocity=64 time=2
note_on channel=1 note=72 velocity=84 time=62
note_on channel=1 note=67 velocity=93 time=0
note_on channel=1 note=64 velocity=80 time=2
note_off channel=1 note=64 velocity=64 time=68
note_on channel=1 note=69 velocity=68 time=42
note_on channel=1 note=65 velocity=76 time=0
note_off channel=1 note=67 velocity=64 time=12
note_off channel=1 note=65 velocity=64 time=24
note_off channel=1 note=69 velocity=64 time=8
note_off channel=1 note=72 velocity=64 time=12
note_on channel=1 note=65 velocity=76 time=194
note_on channel=1 note=69 velocity=84 time=4
note_on channel=1 note=72 velocity=76 time=0
note_off channel=1 note=65 velocity=64 time=62
note_off channel=1 note=69 velocity=64 time=12
note_off channel=1 note=72 velocity=64 time=10
note_on channel=1 note=60 velocity=52 time=22
note_off channel=1 note=60 velocity=64 time=38
note_on channel=1 note=55 velocity=72 time=40
note_off channel=1 note=55 velocity=64 time=34
note_on channel=1 note=71 velocity=84 time=144
note_on channel=1 note=74 velocity=84 time=0
note_on channel=1 note=67 velocity=84 time=2
note_off channel=1 note=67 velocity=64 time=56
note_off channel=1 note=74 velocity=64 time=26
note_off channel=1 note=71 velocity=64 time=4
note_on channel=1 note=62 velocity=52 time=16
note_off channel=1 note=62 velocity=64 time=28
note_on channel=1 note=57 velocity=68 time=50
note_off channel=1 note=57 velocity=64 time=28
note_on channel=1 note=72 velocity=80 time=150
note_on channel=1 note=69 velocity=76 time=0
note_on channel=1 note=76 velocity=84 time=4
note_off channel=1 note=69 velocity=64 time=92
note_on channel=1 note=64 velocity=51 time=10
note_off channel=1 note=64 velocity=64 time=30
note_off channel=1 note=72 velocity=64 time=2
note_off channel=1 note=76 velocity=64 time=10
note_on channel=1 note=62 velocity=64 time=134
note_off channel=1 note=62 velocity=64 time=20
note_on channel=1 note=66 velocity=76 time=50
note_on channel=1 note=69 velocity=80 time=2
note_on channel=1 note=74 velocity=93 time=0
note_off channel=1 note=66 velocity=64 time=74
note_off channel=1 note=74 velocity=64 time=24
note_on channel=1 note=74 velocity=56 time=6
note_on channel=1 note=66 velocity=68 time=2
note_off channel=1 note=74 velocity=64 time=62
note_off channel=1 note=66 velocity=64 time=14
note_off channel=1 note=69 velocity=64 time=8
note_on channel=1 note=50 velocity=60 time=104
note_off channel=1 note=50 velocity=64 time=26
note_on channel=1 note=66 velocity=76 time=38
note_on channel=1 note=69 velocity=84 time=2
note_on channel=1 note=74 velocity=80 time=4
note_off channel=1 note=66 velocity=64 time=98
note_on channel=1 note=54 velocity=68 time=2
note_off channel=1 note=69 velocity=64 time=12
note_off channel=1 note=74 velocity=64 time=26
note_off channel=1 note=54 velocity=64 time=26
note_on channel=1 note=58 velocity=68 time=16
note_off channel=1 note=58 velocity=64 time=66
note_on channel=1 note=62 velocity=47 time=36
note_off channel=1 note=62 velocity=64 time=10
note_on channel=1 note=65 velocity=80 time=68
note_on channel=1 note=70 velocity=84 time=2
note_on channel=1 note=74 velocity=84 time=2
note_off channel=1 note=70 velocity=64 time=90
note_off channel=1 note=74 velocity=64 time=2
note_off channel=1 note=65 velocity=64 time=6
note_on channel=1 note=50 velocity=60 time=4
note_off channel=1 note=50 velocity=64 time=10
note_on channel=1 note=53 velocity=72 time=66
note_off channel=1 note=53 velocity=64 time=54
note_on channel=1 note=65 velocity=72 time=50
note_on channel=1 note=72 velocity=68 time=4
note_on channel=1 note=69 velocity=68 time=2
note_on channel=1 note=60 velocity=52 time=0
note_on channel=1 note=57 velocity=68 time=64
note_off channel=1 note=60 velocity=64 time=30
note_off channel=1 note=57 velocity=64 time=30
note_off channel=1 note=65 velocity=64 time=64
note_off channel=1 note=72 velocity=64 time=4
note_off channel=1 note=69 velocity=64 time=0
note_on channel=1 note=55 velocity=80 time=68
note_off channel=1 note=55 velocity=64 time=26
note_on channel=1 note=71 velocity=80 time=166
note_on channel=1 note=74 velocity=80 time=2
note_on channel=1 note=67 velocity=80 time=0
note_on channel=1 note=59 velocity=72 time=98
note_on channel=1 note=62 velocity=38 time=14
note_off channel=1 note=67 velocity=64 time=4
note_off channel=1 note=71 velocity=64 time=8
note_off channel=1 note=74 velocity=64 time=8
note_off channel=1 note=59 velocity=64 time=2
note_off channel=1 note=62 velocity=64 time=0
note_on channel=1 note=55 velocity=68 time=154
note_off channel=1 note=55 velocity=64 time=12
note_on channel=1 note=67 velocity=80 time=56
note_on channel=1 note=71 velocity=80 time=2
note_on channel=1 note=74 velocity=76 time=4
note_on channel=1 note=59 velocity=42 time=100
note_on channel=1 note=62 velocity=64 time=4
note_off channel=1 note=67 velocity=64 time=4
note_off channel=1 note=74 velocity=64 time=4
note_off channel=1 note=59 velocity=64 time=0
note_off channel=1 note=71 velocity=64 time=2
note_off channel=1 note=62 velocity=64 time=14
note_on channel=1 note=55 velocity=84 time=158
note_off channel=1 note=55 velocity=64 time=22
note_on channel=1 note=71 velocity=80 time=46
note_on channel=1 note=74 velocity=80 time=2
note_on channel=1 note=67 velocity=80 time=4
note_on channel=1 note=59 velocity=64 time=96
note_on channel=1 note=62 velocity=80 time=2
note_off channel=1 note=67 velocity=64 time=28
note_off channel=1 note=59 velocity=64 time=40
note_off channel=1 note=62 velocity=64 time=18
note_off channel=1 note=71 velocity=64 time=6
note_off channel=1 note=74 velocity=64 time=2
note_on channel=1 note=53 velocity=36 time=100
note_off channel=1 note=53 velocity=64 time=2
note_on channel=1 note=65 velocity=76 time=60
note_on channel=1 note=72 velocity=72 time=2
note_on channel=1 note=69 velocity=80 time=0
note_on channel=1 note=57 velocity=72 time=96
note_on channel=1 note=60 velocity=76 time=6
note_off channel=1 note=65 velocity=64 time=20
note_off channel=1 note=69 velocity=64 time=48
note_off channel=1 note=57 velocity=64 time=2
note_off channel=1 note=72 velocity=64 time=2
note_on channel=1 note=55 velocity=45 time=0
note_off channel=1 note=60 velocity=64 time=2
note_off channel=1 note=55 velocity=64 time=6
note_on channel=1 note=71 velocity=56 time=176
note_on channel=1 note=67 velocity=64 time=2
note_on channel=1 note=74 velocity=60 time=2
note_on channel=1 note=62 velocity=72 time=110
note_on channel=1 note=59 velocity=76 time=2
note_off channel=1 note=67 velocity=64 time=16
note_off channel=1 note=59 velocity=64 time=0
note_off channel=1 note=71 velocity=64 time=4
note_off channel=1 note=74 velocity=64 time=4
note_off channel=1 note=62 velocity=64 time=4
note_on channel=1 note=55 velocity=36 time=174
note_off channel=1 note=55 velocity=64 time=2
note_on channel=1 note=67 velocity=80 time=58
note_on channel=1 note=71 velocity=80 time=0
note_on channel=1 note=74 velocity=84 time=2
note_on channel=1 note=62 velocity=76 time=114
note_on channel=1 note=59 velocity=72 time=2
note_off channel=1 note=74 velocity=64 time=12
note_off channel=1 note=67 velocity=64 time=2
note_off channel=1 note=71 velocity=64 time=4
note_off channel=1 note=62 velocity=64 time=20
note_off channel=1 note=59 velocity=64 time=2
note_on channel=1 note=74 velocity=80 time=210
note_on channel=1 note=71 velocity=76 time=0
note_on channel=1 note=67 velocity=72 time=2
note_on channel=1 note=62 velocity=80 time=110
note_on channel=1 note=59 velocity=60 time=2
note_off channel=1 note=67 velocity=64 time=48
note_off channel=1 note=62 velocity=64 time=8
note_off channel=1 note=74 velocity=64 time=2
note_off channel=1 note=71 velocity=64 time=2
note_off channel=1 note=59 velocity=64 time=0
note_on channel=1 note=71 velocity=80 time=180
note_on channel=1 note=74 velocity=80 time=0
note_on channel=1 note=67 velocity=68 time=4
note_on channel=1 note=59 velocity=72 time=104
note_off channel=1 note=67 velocity=64 time=18
note_off channel=1 note=59 velocity=64 time=2
note_off channel=1 note=71 velocity=64 time=4
note_off channel=1 note=74 velocity=64 time=0
program_change channel=1 program=16 time=52
control_change channel=1 control=7 value=90 time=2
control_change channel=1 control=10 value=80 time=0
note_on channel=1 note=52 velocity=80 time=112
note_off channel=1 note=52 velocity=64 time=10
note_on channel=1 note=72 velocity=80 time=60
note_on channel=1 note=67 velocity=80 time=4
note_on channel=1 note=64 velocity=80 time=2
note_off channel=1 note=64 velocity=64 time=38
note_off channel=1 note=67 velocity=64 time=14
note_on channel=1 note=65 velocity=64 time=40
note_on channel=1 note=69 velocity=56 time=10
note_on channel=1 note=74 velocity=36 time=8
note_off channel=1 note=74 velocity=64 time=2
note_off channel=1 note=65 velocity=64 time=18
note_off channel=1 note=72 velocity=64 time=14
note_off channel=1 note=69 velocity=64 time=2
note_on channel=1 note=57 velocity=64 time=138
note_off channel=1 note=57 velocity=64 time=8
note_on channel=1 note=72 velocity=72 time=62
note_on channel=1 note=65 velocity=68 time=4
note_on channel=1 note=69 velocity=80 time=2
note_off channel=1 note=65 velocity=64 time=52
note_off channel=1 note=69 velocity=64 time=16
note_off channel=1 note=72 velocity=64 time=10
note_on channel=1 note=60 velocity=56 time=26
note_off channel=1 note=60 velocity=64 time=32
note_on channel=1 note=74 velocity=76 time=226
note_on channel=1 note=71 velocity=80 time=2
note_on channel=1 note=67 velocity=84 time=2
note_off channel=1 note=67 velocity=64 time=60
note_off channel=1 note=74 velocity=64 time=14
note_off channel=1 note=71 velocity=64 time=12
note_on channel=1 note=59 velocity=68 time=16
note_off channel=1 note=59 velocity=64 time=18
note_on channel=1 note=55 velocity=80 time=164
note_off channel=1 note=55 velocity=64 time=8
note_on channel=1 note=72 velocity=68 time=58
note_on channel=1 note=64 velocity=68 time=2
note_on channel=1 note=67 velocity=80 time=4
note_off channel=1 note=64 velocity=64 time=86
note_on channel=1 note=52 velocity=80 time=20
note_on channel=1 note=60 velocity=64 time=4
note_off channel=1 note=72 velocity=64 time=8
note_off channel=1 note=52 velocity=64 time=8
note_off channel=1 note=60 velocity=64 time=0
note_off channel=1 note=67 velocity=64 time=4
note_on channel=1 note=48 velocity=72 time=162
note_off channel=1 note=48 velocity=64 time=22
note_on channel=1 note=72 velocity=80 time=56
note_on channel=1 note=64 velocity=80 time=2
note_on channel=1 note=67 velocity=93 time=2
note_off channel=1 note=64 velocity=64 time=54
note_on channel=1 note=65 velocity=64 time=54
note_on channel=1 note=69 velocity=84 time=2
note_off channel=1 note=67 velocity=64 time=12
note_off channel=1 note=65 velocity=64 time=28
note_off channel=1 note=72 velocity=64 time=8
note_off channel=1 note=69 velocity=64 time=2
note_on channel=1 note=72 velocity=80 time=200
note_on channel=1 note=65 velocity=76 time=2
note_on channel=1 note=69 velocity=80 time=0
note_off channel=1 note=65 velocity=64 time=94
note_on channel=1 note=57 velocity=64 time=12
note_on channel=1 note=60 velocity=72 time=0
note_off channel=1 note=72 velocity=64 time=4
note_off channel=1 note=69 velocity=64 time=2
note_off channel=1 note=57 velocity=64 time=4
note_off channel=1 note=60 velocity=64 time=16
note_on channel=1 note=55 velocity=80 time=160
note_off channel=1 note=55 velocity=64 time=20
note_on channel=1 note=71 velocity=72 time=50
note_on channel=1 note=74 velocity=68 time=2
note_on channel=1 note=67 velocity=80 time=2
note_off channel=1 note=67 velocity=64 time=74
note_on channel=1 note=59 velocity=76 time=32
note_off channel=1 note=59 velocity=64 time=22
note_off channel=1 note=71 velocity=64 time=8
note_off channel=1 note=74 velocity=64 time=28
note_on channel=1 note=64 velocity=56 time=18
note_off channel=1 note=64 velocity=64 time=12
note_on channel=1 note=60 velocity=60 time=94
note_off channel=1 note=60 velocity=64 time=12
note_on channel=1 note=72 velocity=72 time=62
note_on channel=1 note=67 velocity=80 time=2
note_on channel=1 note=64 velocity=80 time=0
note_off channel=1 note=64 velocity=64 time=36
note_off channel=1 note=67 velocity=64 time=20
note_off channel=1 note=72 velocity=64 time=2
note_on channel=1 note=55 velocity=72 time=52
note_off channel=1 note=55 velocity=64 time=16
note_on channel=1 note=48 velocity=80 time=56
note_off channel=1 note=48 velocity=64 time=30
note_on channel=1 note=60 velocity=36 time=96
note_off channel=1 note=60 velocity=64 time=2
note_on channel=1 note=72 velocity=84 time=62
note_on channel=1 note=67 velocity=93 time=2
note_on channel=1 note=64 velocity=80 time=2
note_off channel=1 note=64 velocity=64 time=66
note_on channel=1 note=69 velocity=68 time=42
note_on channel=1 note=65 velocity=76 time=2
note_off channel=1 note=67 velocity=64 time=12
note_off channel=1 note=65 velocity=64 time=24
note_off channel=1 note=69 velocity=64 time=8
note_off channel=1 note=72 velocity=64 time=12
note_on channel=1 note=65 velocity=76 time=194
note_on channel=1 note=69 velocity=84 time=2
note_on channel=1 note=72 velocity=76 time=2
note_off channel=1 note=65 velocity=64 time=60
note_off channel=1 note=69 velocity=64 time=12
note_off channel=1 note=72 velocity=64 time=12
note_on channel=1 note=60 velocity=52 time=20
note_off channel=1 note=60 velocity=64 time=40
note_on channel=1 note=55 velocity=72 time=38
note_off channel=1 note=55 velocity=64 time=34
note_on channel=1 note=71 velocity=84 time=144
note_on channel=1 note=74 velocity=84 time=2
note_on channel=1 note=67 velocity=84 time=2
note_off channel=1 note=67 velocity=64 time=54
note_off channel=1 note=74 velocity=64 time=26
note_off channel=1 note=71 velocity=64 time=6
note_on channel=1 note=62 velocity=52 time=16
note_off channel=1 note=62 velocity=64 time=26
note_on channel=1 note=57 velocity=68 time=52
note_off channel=1 note=57 velocity=64 time=26
note_on channel=1 note=72 velocity=80 time=150
note_on channel=1 note=69 velocity=76 time=2
note_on channel=1 note=76 velocity=84 time=4
note_off channel=1 note=69 velocity=64 time=92
note_on channel=1 note=64 velocity=51 time=10
note_off channel=1 note=64 velocity=64 time=28
note_off channel=1 note=72 velocity=64 time=2
note_off channel=1 note=76 velocity=64 time=12
note_on channel=1 note=62 velocity=64 time=132
note_off channel=1 note=62 velocity=64 time=20
note_on channel=1 note=66 velocity=76 time=50
note_on channel=1 note=69 velocity=80 time=2
note_on channel=1 note=74 velocity=93 time=2
note_off channel=1 note=66 velocity=64 time=72
note_off channel=1 note=74 velocity=64 time=26
note_on channel=1 note=74 velocity=56 time=6
note_on channel=1 note=66 velocity=68 time=2
note_off channel=1 note=74 velocity=64 time=60
note_off channel=1 note=66 velocity=64 time=16
note_off channel=1 note=69 velocity=64 time=6
note_on channel=1 note=50 velocity=60 time=106
note_off channel=1 note=50 velocity=64 time=26
note_on channel=1 note=66 velocity=76 time=38
note_on channel=1 note=69 velocity=84 time=0
note_on channel=1 note=74 velocity=80 time=6
note_off channel=1 note=66 velocity=64 time=98
note_on channel=1 note=54 velocity=68 time=0
note_off channel=1 note=69 velocity=64 time=12
note_off channel=1 note=74 velocity=64 time=28
note_off channel=1 note=54 velocity=64 time=26
note_on channel=1 note=58 velocity=68 time=14
note_off channel=1 note=58 velocity=64 time=66
note_on channel=1 note=62 velocity=47 time=38
note_off channel=1 note=62 velocity=64 time=10
note_on channel=1 note=65 velocity=80 time=66
note_on channel=1 note=70 velocity=84 time=2
note_on channel=1 note=74 velocity=84 time=2
note_off channel=1 note=70 velocity=64 time=90
note_off channel=1 note=74 velocity=64 time=2
note_off channel=1 note=65 velocity=64 time=6
note_on channel=1 note=50 velocity=60 time=4
note_off channel=1 note=50 velocity=64 time=12
note_on channel=1 note=53 velocity=72 time=64
note_off channel=1 note=53 velocity=64 time=56
note_on channel=1 note=65 velocity=72 time=50
note_on channel=1 note=72 velocity=68 time=4
note_on channel=1 note=69 velocity=68 time=0
note_on channel=1 note=60 velocity=52 time=2
note_on channel=1 note=57 velocity=68 time=64
note_off channel=1 note=60 velocity=64 time=28
note_off channel=1 note=57 velocity=64 time=32
note_off channel=1 note=65 velocity=64 time=64
note_off channel=1 note=72 velocity=64 time=2
note_off channel=1 note=69 velocity=64 time=2
note_on channel=1 note=55 velocity=80 time=66
note_off channel=1 note=55 velocity=64 time=26
note_on channel=1 note=71 velocity=80 time=166
note_on channel=1 note=74 velocity=80 time=4
note_on channel=1 note=67 velocity=80 time=0
note_on channel=1 note=59 velocity=72 time=98
note_on channel=1 note=62 velocity=38 time=12
note_off channel=1 note=67 velocity=64 time=4
note_off channel=1 note=71 velocity=64 time=8
note_off channel=1 note=74 velocity=64 time=8
note_off channel=1 note=59 velocity=64 time=2
note_off channel=1 note=62 velocity=64 time=0
note_on channel=1 note=55 velocity=68 time=154
note_off channel=1 note=55 velocity=64 time=12
note_on channel=1 note=67 velocity=80 time=58
note_on channel=1 note=71 velocity=80 time=2
note_on channel=1 note=74 velocity=76 time=2
note_on channel=1 note=59 velocity=42 time=100
note_on channel=1 note=62 velocity=64 time=4
note_off channel=1 note=67 velocity=64 time=4
note_off channel=1 note=74 velocity=64 time=4
note_off channel=1 note=59 velocity=64 time=0
note_off channel=1 note=71 velocity=64 time=4
note_off channel=1 note=62 velocity=64 time=12
program_change channel=1 program=75 time=148
control_change channel=1 control=7 value=127 time=0
control_change channel=1 control=10 value=50 time=2
program_change channel=1 program=75 time=674
control_change channel=1 control=7 value=115 time=48
note_on channel=1 note=78 velocity=72 time=124
note_off channel=1 note=78 velocity=64 time=90
note_on channel=1 note=78 velocity=72 time=74
note_off channel=1 note=78 velocity=64 time=236
note_on channel=1 note=74 velocity=59 time=16
note_on channel=1 note=78 velocity=77 time=84
note_off channel=1 note=74 velocity=64 time=30
note_on channel=1 note=79 velocity=82 time=52
note_off channel=1 note=78 velocity=64 time=10
note_off channel=1 note=79 velocity=64 time=74
note_on channel=1 note=81 velocity=60 time=2
note_off channel=1 note=81 velocity=64 time=92
note_on channel=1 note=79 velocity=82 time=70
note_on channel=1 note=78 velocity=59 time=80
note_off channel=1 note=79 velocity=64 time=24
note_on channel=1 note=76 velocity=62 time=64
note_off channel=1 note=78 velocity=64 time=2
note_off channel=1 note=76 velocity=64 time=76
note_on channel=1 note=77 velocity=67 time=98
note_off channel=1 note=77 velocity=64 time=78
note_on channel=1 note=77 velocity=88 time=80
note_off channel=1 note=77 velocity=64 time=80
note_on channel=1 note=76 velocity=72 time=2
note_off channel=1 note=76 velocity=64 time=78
note_on channel=1 note=77 velocity=82 time=2
note_on channel=1 note=76 velocity=82 time=82
note_off channel=1 note=77 velocity=64 time=12
note_off channel=1 note=76 velocity=64 time=74
note_on channel=1 note=74 velocity=77 time=6
note_off channel=1 note=74 velocity=64 time=72
note_on channel=1 note=74 velocity=82 time=100
note_off channel=1 note=74 velocity=64 time=420
MetaMessage('end_of_track', time=0)
MetaMessage('midi_port', port=1, time=0)
MetaMessage('track_name', name='   MONKEY ISLAND    ', time=0)
program_change channel=2 program=13 time=1330
control_change channel=2 control=7 value=105 time=0
control_change channel=2 control=10 value=98 time=0
note_on channel=2 note=76 velocity=60 time=9928
note_off channel=2 note=76 velocity=64 time=92
note_on channel=2 note=76 velocity=56 time=38
note_on channel=2 note=79 velocity=52 time=66
note_off channel=2 note=76 velocity=64 time=2
note_on channel=2 note=78 velocity=64 time=66
note_off channel=2 note=79 velocity=64 time=16
note_on channel=2 note=76 velocity=60 time=50
note_off channel=2 note=78 velocity=64 time=10
note_on channel=2 note=74 velocity=56 time=54
note_off channel=2 note=76 velocity=64 time=8
note_off channel=2 note=74 velocity=64 time=72
note_on channel=2 note=76 velocity=48 time=54
note_off channel=2 note=76 velocity=64 time=246
note_on channel=2 note=74 velocity=52 time=148
note_off channel=2 note=74 velocity=64 time=74
note_on channel=2 note=74 velocity=56 time=58
note_on channel=2 note=72 velocity=52 time=66
note_off channel=2 note=74 velocity=64 time=18
note_off channel=2 note=72 velocity=64 time=48
note_on channel=2 note=71 velocity=52 time=0
note_on channel=2 note=74 velocity=52 time=66
note_off channel=2 note=71 velocity=64 time=2
note_on channel=2 note=72 velocity=56 time=62
note_off channel=2 note=74 velocity=64 time=16
note_off channel=2 note=72 velocity=64 time=66
note_on channel=2 note=72 velocity=60 time=50
note_off channel=2 note=72 velocity=64 time=78
note_on channel=2 note=71 velocity=60 time=56
note_off channel=2 note=71 velocity=64 time=242
note_on channel=2 note=76 velocity=56 time=152
note_off channel=2 note=76 velocity=64 time=74
note_on channel=2 note=76 velocity=60 time=60
note_off channel=2 note=76 velocity=64 time=172
note_on channel=2 note=79 velocity=48 time=24
note_on channel=2 note=78 velocity=64 time=64
note_off channel=2 note=79 velocity=64 time=16
note_on channel=2 note=76 velocity=56 time=50
note_off channel=2 note=78 velocity=64 time=2
note_on channel=2 note=74 velocity=60 time=62
note_off channel=2 note=76 velocity=64 time=12
note_off channel=2 note=74 velocity=64 time=62
note_on channel=2 note=76 velocity=56 time=60
note_off channel=2 note=76 velocity=64 time=372
note_on channel=2 note=78 velocity=64 time=88
note_off channel=2 note=78 velocity=64 time=60
note_on channel=2 note=79 velocity=56 time=8
note_off channel=2 note=79 velocity=64 time=56
note_on channel=2 note=79 velocity=60 time=76
note_off channel=2 note=79 velocity=64 time=58
note_on channel=2 note=81 velocity=60 time=74
note_off channel=2 note=81 velocity=64 time=150
note_on channel=2 note=78 velocity=60 time=112
note_off channel=2 note=78 velocity=64 time=166
note_on channel=2 note=79 velocity=48 time=32
note_on channel=2 note=78 velocity=60 time=66
note_off channel=2 note=79 velocity=64 time=12
note_on channel=2 note=76 velocity=56 time=54
note_off channel=2 note=78 velocity=64 time=6
note_off channel=2 note=76 velocity=64 time=54
note_on channel=2 note=74 velocity=52 time=6
note_on channel=2 note=78 velocity=56 time=66
note_off channel=2 note=74 velocity=64 time=4
note_on channel=2 note=79 velocity=60 time=62
note_off channel=2 note=78 velocity=64 time=10
note_off channel=2 note=79 velocity=64 time=66
note_on channel=2 note=79 velocity=60 time=54
note_off channel=2 note=79 velocity=64 time=76
note_on channel=2 note=78 velocity=60 time=58
note_off channel=2 note=78 velocity=64 time=214
note_on channel=2 note=76 velocity=52 time=54
note_off channel=2 note=76 velocity=64 time=166
note_on channel=2 note=79 velocity=60 time=34
note_on channel=2 note=78 velocity=44 time=66
note_off channel=2 note=79 velocity=64 time=8
note_on channel=2 note=76 velocity=52 time=58
note_off channel=2 note=78 velocity=64 time=8
note_on channel=2 note=74 velocity=56 time=56
note_off channel=2 note=76 velocity=64 time=2
note_off channel=2 note=74 velocity=64 time=60
note_on channel=2 note=78 velocity=60 time=2
note_on channel=2 note=79 velocity=56 time=70
note_off channel=2 note=78 velocity=64 time=8
note_off channel=2 note=79 velocity=64 time=52
note_on channel=2 note=79 velocity=60 time=70
note_off channel=2 note=79 velocity=64 time=70
note_on channel=2 note=78 velocity=64 time=62
note_off channel=2 note=78 velocity=64 time=194
note_on channel=2 note=76 velocity=52 time=66
note_off channel=2 note=76 velocity=64 time=160
note_on channel=2 note=79 velocity=60 time=40
note_on channel=2 note=78 velocity=48 time=64
note_off channel=2 note=79 velocity=64 time=18
note_on channel=2 note=76 velocity=56 time=50
note_off channel=2 note=78 velocity=64 time=18
note_on channel=2 note=74 velocity=52 time=52
note_off channel=2 note=76 velocity=64 time=10
note_on channel=2 note=76 velocity=60 time=120
note_off channel=2 note=74 velocity=64 time=26
note_off channel=2 note=76 velocity=64 time=48
note_on channel=2 note=76 velocity=52 time=54
note_off channel=2 note=76 velocity=64 time=80
note_on channel=2 note=76 velocity=52 time=52
note_off channel=2 note=76 velocity=64 time=274
note_on channel=2 note=76 velocity=52 time=120
note_off channel=2 note=76 velocity=64 time=100
note_on channel=2 note=74 velocity=52 time=32
note_off channel=2 note=74 velocity=64 time=42
note_on channel=2 note=72 velocity=48 time=24
note_off channel=2 note=72 velocity=64 time=50
note_on channel=2 note=71 velocity=48 time=14
note_off channel=2 note=71 velocity=64 time=40
note_on channel=2 note=74 velocity=52 time=26
note_off channel=2 note=74 velocity=64 time=48
note_on channel=2 note=72 velocity=60 time=20
note_off channel=2 note=72 velocity=64 time=46
note_on channel=2 note=72 velocity=52 time=84
note_off channel=2 note=72 velocity=64 time=42
note_on channel=2 note=71 velocity=44 time=94
note_off channel=2 note=71 velocity=64 time=148
note_on channel=2 note=76 velocity=82 time=768
note_off channel=2 note=76 velocity=64 time=38
note_on channel=2 note=76 velocity=73 time=26
note_off channel=2 note=76 velocity=64 time=62
note_on channel=2 note=84 velocity=64 time=528
note_off channel=2 note=84 velocity=64 time=48
note_on channel=2 note=79 velocity=60 time=84
note_off channel=2 note=79 velocity=64 time=46
note_on channel=2 note=79 velocity=56 time=86
note_off channel=2 note=79 velocity=64 time=108
note_on channel=2 note=84 velocity=56 time=154
note_off channel=2 note=84 velocity=64 time=66
note_on channel=2 note=83 velocity=44 time=2
note_off channel=2 note=83 velocity=64 time=58
note_on channel=2 note=81 velocity=64 time=8
note_off channel=2 note=81 velocity=64 time=48
note_on channel=2 note=84 velocity=48 time=18
note_off channel=2 note=84 velocity=64 time=60
note_on channel=2 note=83 velocity=64 time=8
note_off channel=2 note=83 velocity=64 time=48
note_on channel=2 note=79 velocity=60 time=82
note_off channel=2 note=79 velocity=64 time=46
note_on channel=2 note=79 velocity=56 time=86
note_off channel=2 note=79 velocity=64 time=114
note_on channel=2 note=79 velocity=73 time=278
note_off channel=2 note=79 velocity=64 time=42
note_on channel=2 note=81 velocity=64 time=88
note_off channel=2 note=81 velocity=64 time=42
note_on channel=2 note=74 velocity=56 time=88
note_off channel=2 note=74 velocity=64 time=50
note_on channel=2 note=74 velocity=48 time=86
note_off channel=2 note=74 velocity=64 time=66
note_on channel=2 note=81 velocity=60 time=134
note_off channel=2 note=81 velocity=64 time=56
note_on channel=2 note=83 velocity=40 time=12
note_off channel=2 note=83 velocity=64 time=48
note_on channel=2 note=81 velocity=52 time=16
note_off channel=2 note=81 velocity=64 time=46
note_on channel=2 note=79 velocity=52 time=20
note_on channel=2 note=81 velocity=48 time=70
note_off channel=2 note=79 velocity=64 time=2
note_on channel=2 note=83 velocity=60 time=62
note_off channel=2 note=81 velocity=64 time=2
note_off channel=2 note=83 velocity=64 time=52
note_on channel=2 note=79 velocity=60 time=78
note_off channel=2 note=79 velocity=64 time=44
note_on channel=2 note=79 velocity=48 time=92
note_off channel=2 note=79 velocity=64 time=50
note_on channel=2 note=76 velocity=64 time=84
note_off channel=2 note=76 velocity=64 time=44
note_on channel=2 note=76 velocity=56 time=90
note_off channel=2 note=76 velocity=64 time=86
note_on channel=2 note=66 velocity=64 time=174
note_off channel=2 note=66 velocity=64 time=42
note_on channel=2 note=67 velocity=64 time=90
note_off channel=2 note=67 velocity=64 time=48
note_on channel=2 note=69 velocity=91 time=82
note_off channel=2 note=69 velocity=64 time=50
note_on channel=2 note=65 velocity=56 time=16
note_on channel=2 note=77 velocity=73 time=66
note_off channel=2 note=65 velocity=64 time=4
note_off channel=2 note=77 velocity=64 time=40
note_on channel=2 note=72 velocity=73 time=22
note_on channel=2 note=84 velocity=73 time=66
note_off channel=2 note=72 velocity=64 time=24
note_off channel=2 note=84 velocity=64 time=18
note_on channel=2 note=69 velocity=91 time=24
note_off channel=2 note=69 velocity=64 time=62
note_on channel=2 note=77 velocity=91 time=6
note_off channel=2 note=77 velocity=64 time=50
note_on channel=2 note=81 velocity=91 time=16
note_off channel=2 note=81 velocity=64 time=34
note_on channel=2 note=65 velocity=56 time=30
note_on channel=2 note=72 velocity=82 time=66
note_off channel=2 note=65 velocity=64 time=6
note_on channel=2 note=77 velocity=82 time=58
note_off channel=2 note=72 velocity=64 time=12
note_off channel=2 note=77 velocity=64 time=36
note_on channel=2 note=69 velocity=73 time=18
note_off channel=2 note=69 velocity=64 time=58
note_on channel=2 note=84 velocity=82 time=10
note_off channel=2 note=84 velocity=64 time=44
note_on channel=2 note=72 velocity=56 time=22
note_on channel=2 note=81 velocity=82 time=68
note_off channel=2 note=72 velocity=64 time=4
note_off channel=2 note=81 velocity=64 time=44
note_on channel=2 note=89 velocity=109 time=18
note_off channel=2 note=89 velocity=64 time=34
note_on channel=2 note=71 velocity=56 time=34
note_on channel=2 note=79 velocity=73 time=0
note_off channel=2 note=79 velocity=64 time=52
note_off channel=2 note=71 velocity=64 time=14
note_on channel=2 note=83 velocity=73 time=68
note_on channel=2 note=67 velocity=73 time=0
note_off channel=2 note=83 velocity=64 time=46
note_off channel=2 note=67 velocity=64 time=8
note_on channel=2 note=83 velocity=64 time=74
note_on channel=2 note=67 velocity=73 time=0
note_off channel=2 note=83 velocity=64 time=54
note_off channel=2 note=67 velocity=64 time=18
note_on channel=2 note=83 velocity=73 time=124
note_on channel=2 note=67 velocity=64 time=0
note_off channel=2 note=83 velocity=64 time=54
note_on channel=2 note=66 velocity=64 time=10
note_on channel=2 note=81 velocity=64 time=0
note_off channel=2 note=67 velocity=64 time=8
note_off channel=2 note=81 velocity=64 time=52
note_off channel=2 note=66 velocity=64 time=6
note_on channel=2 note=83 velocity=64 time=68
note_on channel=2 note=67 velocity=73 time=0
note_off channel=2 note=83 velocity=64 time=52
note_off channel=2 note=67 velocity=64 time=4
note_on channel=2 note=66 velocity=64 time=72
note_on channel=2 note=81 velocity=73 time=2
note_off channel=2 note=81 velocity=64 time=46
note_off channel=2 note=66 velocity=64 time=4
note_on channel=2 note=67 velocity=60 time=14
note_on channel=2 note=83 velocity=60 time=0
note_off channel=2 note=83 velocity=64 time=48
note_off channel=2 note=67 velocity=64 time=18
note_on channel=2 note=64 velocity=73 time=2
note_on channel=2 note=79 velocity=60 time=0
note_off channel=2 note=79 velocity=64 time=56
note_off channel=2 note=64 velocity=64 time=2
note_on channel=2 note=83 velocity=64 time=8
note_on channel=2 note=67 velocity=64 time=0
note_off channel=2 note=67 velocity=64 time=34
note_off channel=2 note=83 velocity=64 time=6
note_on channel=2 note=60 velocity=56 time=90
note_on channel=2 note=72 velocity=73 time=68
note_off channel=2 note=60 velocity=64 time=6
note_off channel=2 note=72 velocity=64 time=38
note_on channel=2 note=67 velocity=73 time=24
note_on channel=2 note=79 velocity=73 time=64
note_off channel=2 note=67 velocity=64 time=24
note_off channel=2 note=79 velocity=64 time=18
note_on channel=2 note=63 velocity=91 time=24
note_off channel=2 note=63 velocity=64 time=62
note_on channel=2 note=72 velocity=91 time=6
note_off channel=2 note=72 velocity=64 time=50
note_on channel=2 note=75 velocity=91 time=14
note_off channel=2 note=75 velocity=64 time=34
note_on channel=2 note=60 velocity=56 time=32
note_on channel=2 note=67 velocity=82 time=64
note_off channel=2 note=60 velocity=64 time=8
note_on channel=2 note=72 velocity=82 time=60
note_off channel=2 note=67 velocity=64 time=12
note_off channel=2 note=72 velocity=64 time=34
note_on channel=2 note=63 velocity=73 time=20
note_off channel=2 note=63 velocity=64 time=56
note_on channel=2 note=79 velocity=82 time=8
note_off channel=2 note=79 velocity=64 time=44
note_on channel=2 note=67 velocity=56 time=20
note_on channel=2 note=75 velocity=82 time=64
note_off channel=2 note=67 velocity=64 time=4
note_off channel=2 note=75 velocity=64 time=46
note_on channel=2 note=84 velocity=109 time=20
note_off channel=2 note=84 velocity=64 time=34
note_on channel=2 note=69 velocity=64 time=32
note_on channel=2 note=78 velocity=73 time=0
note_off channel=2 note=78 velocity=64 time=58
note_off channel=2 note=69 velocity=64 time=18
note_on channel=2 note=81 velocity=64 time=56
note_on channel=2 note=66 velocity=64 time=2
note_off channel=2 note=81 velocity=64 time=54
note_off channel=2 note=66 velocity=64 time=2
note_on channel=2 note=81 velocity=73 time=78
note_on channel=2 note=66 velocity=64 time=0
note_off channel=2 note=81 velocity=64 time=66
note_off channel=2 note=66 velocity=64 time=22
note_on channel=2 note=81 velocity=73 time=108
note_on channel=2 note=66 velocity=73 time=0
note_off channel=2 note=66 velocity=64 time=56
note_on channel=2 note=64 velocity=73 time=10
note_on channel=2 note=79 velocity=64 time=2
note_off channel=2 note=81 velocity=64 time=2
note_off channel=2 note=79 velocity=64 time=64
note_off channel=2 note=64 velocity=64 time=12
note_on channel=2 note=81 velocity=73 time=52
note_on channel=2 note=66 velocity=82 time=0
note_off channel=2 note=66 velocity=64 time=66
note_off channel=2 note=81 velocity=64 time=8
note_on channel=2 note=64 velocity=64 time=62
note_on channel=2 note=79 velocity=73 time=0
note_off channel=2 note=79 velocity=64 time=60
note_off channel=2 note=64 velocity=64 time=2
note_on channel=2 note=81 velocity=64 time=4
note_on channel=2 note=66 velocity=64 time=0
note_off channel=2 note=81 velocity=64 time=54
note_off channel=2 note=66 velocity=64 time=8
note_on channel=2 note=62 velocity=73 time=6
note_on channel=2 note=78 velocity=91 time=0
note_off channel=2 note=78 velocity=64 time=62
note_off channel=2 note=62 velocity=64 time=12
note_on channel=2 note=76 velocity=82 time=60
note_off channel=2 note=76 velocity=64 time=64
note_on channel=2 note=76 velocity=82 time=68
note_off channel=2 note=76 velocity=64 time=54
note_on channel=2 note=79 velocity=64 time=12
note_on channel=2 note=78 velocity=91 time=66
note_off channel=2 note=79 velocity=64 time=16
note_off channel=2 note=78 velocity=64 time=38
note_on channel=2 note=76 velocity=73 time=10
note_on channel=2 note=74 velocity=64 time=66
note_off channel=2 note=76 velocity=64 time=4
note_off channel=2 note=74 velocity=64 time=58
note_on channel=2 note=76 velocity=73 time=74
note_off channel=2 note=76 velocity=64 time=160
note_on channel=2 note=74 velocity=91 time=234
note_off channel=2 note=74 velocity=64 time=42
note_on channel=2 note=74 velocity=82 time=92
note_off channel=2 note=74 velocity=64 time=54
note_on channel=2 note=72 velocity=64 time=12
note_on channel=2 note=71 velocity=82 time=64
note_off channel=2 note=72 velocity=64 time=2
note_off channel=2 note=71 velocity=64 time=52
note_on channel=2 note=74 velocity=64 time=10
note_on channel=2 note=72 velocity=91 time=66
note_off channel=2 note=74 velocity=64 time=2
note_off channel=2 note=72 velocity=64 time=44
note_on channel=2 note=72 velocity=73 time=86
note_off channel=2 note=72 velocity=64 time=42
note_on channel=2 note=71 velocity=73 time=94
note_off channel=2 note=71 velocity=64 time=140
note_on channel=2 note=76 velocity=91 time=260
note_off channel=2 note=76 velocity=64 time=24
note_on channel=2 note=76 velocity=82 time=106
note_off channel=2 note=76 velocity=64 time=42
note_on channel=2 note=79 velocity=73 time=158
note_off channel=2 note=79 velocity=64 time=66
note_on channel=2 note=78 velocity=82 time=0
note_off channel=2 note=78 velocity=64 time=60
note_on channel=2 note=76 velocity=60 time=6
note_off channel=2 note=76 velocity=64 time=46
note_on channel=2 note=74 velocity=64 time=20
note_off channel=2 note=74 velocity=64 time=46
note_on channel=2 note=76 velocity=82 time=82
note_off channel=2 note=76 velocity=64 time=148
note_on channel=2 note=78 velocity=100 time=312
note_off channel=2 note=78 velocity=64 time=46
note_on channel=2 note=79 velocity=73 time=20
note_off channel=2 note=79 velocity=64 time=42
note_on channel=2 note=79 velocity=82 time=88
note_off channel=2 note=79 velocity=64 time=46
note_on channel=2 note=81 velocity=91 time=86
note_off channel=2 note=81 velocity=64 time=126
note_on channel=2 note=78 velocity=91 time=140
note_off channel=2 note=78 velocity=64 time=120
note_on channel=2 note=79 velocity=91 time=78
note_on channel=2 note=78 velocity=91 time=66
note_off channel=2 note=79 velocity=64 time=4
note_off channel=2 note=78 velocity=64 time=50
note_on channel=2 note=76 velocity=64 time=12
note_off channel=2 note=76 velocity=64 time=40
note_on channel=2 note=74 velocity=56 time=24
note_on channel=2 note=78 velocity=82 time=64
note_off channel=2 note=74 velocity=64 time=4
note_off channel=2 note=78 velocity=64 time=52
note_on channel=2 note=79 velocity=73 time=12
note_off channel=2 note=79 velocity=64 time=50
note_on channel=2 note=79 velocity=91 time=84
note_off channel=2 note=79 velocity=64 time=48
note_on channel=2 note=78 velocity=91 time=86
note_off channel=2 note=78 velocity=64 time=136
note_on channel=2 note=76 velocity=91 time=124
note_off channel=2 note=76 velocity=64 time=126
note_on channel=2 note=79 velocity=82 time=74
note_on channel=2 note=78 velocity=91 time=64
note_off channel=2 note=79 velocity=64 time=12
note_off channel=2 note=78 velocity=64 time=48
note_on channel=2 note=76 velocity=56 time=6
note_off channel=2 note=76 velocity=64 time=50
note_on channel=2 note=74 velocity=64 time=16
note_on channel=2 note=78 velocity=91 time=64
note_off channel=2 note=74 velocity=64 time=4
note_off channel=2 note=78 velocity=64 time=56
note_on channel=2 note=79 velocity=64 time=8
note_off channel=2 note=79 velocity=64 time=52
note_on channel=2 note=79 velocity=82 time=78
note_off channel=2 note=79 velocity=64 time=56
note_on channel=2 note=78 velocity=91 time=78
note_off channel=2 note=78 velocity=64 time=140
note_on channel=2 note=76 velocity=91 time=126
note_off channel=2 note=76 velocity=64 time=138
note_on channel=2 note=79 velocity=82 time=54
note_on channel=2 note=78 velocity=82 time=64
note_off channel=2 note=79 velocity=64 time=36
note_on channel=2 note=76 velocity=64 time=32
note_off channel=2 note=78 velocity=64 time=4
note_off channel=2 note=76 velocity=64 time=52
note_on channel=2 note=74 velocity=64 time=8
note_off channel=2 note=74 velocity=64 time=60
note_on channel=2 note=76 velocity=82 time=74
note_off channel=2 note=76 velocity=64 time=50
note_on channel=2 note=76 velocity=91 time=84
note_off channel=2 note=76 velocity=64 time=46
note_on channel=2 note=76 velocity=91 time=88
note_off channel=2 note=76 velocity=64 time=256
note_on channel=2 note=74 velocity=64 time=138
note_off channel=2 note=74 velocity=64 time=62
note_on channel=2 note=72 velocity=73 time=70
note_on channel=2 note=71 velocity=64 time=66
note_off channel=2 note=72 velocity=64 time=14
note_on channel=2 note=72 velocity=64 time=54
note_off channel=2 note=71 velocity=64 time=10
note_on channel=2 note=71 velocity=73 time=122
note_off channel=2 note=72 velocity=64 time=2
note_off channel=2 note=71 velocity=64 time=98
note_on channel=2 note=76 velocity=73 time=298
note_off channel=2 note=76 velocity=64 time=62
note_on channel=2 note=76 velocity=64 time=70
note_off channel=2 note=76 velocity=64 time=140
note_on channel=2 note=79 velocity=60 time=58
note_on channel=2 note=78 velocity=73 time=66
note_off channel=2 note=79 velocity=64 time=8
note_off channel=2 note=78 velocity=64 time=50
note_on channel=2 note=76 velocity=60 time=6
note_off channel=2 note=76 velocity=64 time=48
note_on channel=2 note=74 velocity=64 time=16
note_off channel=2 note=74 velocity=64 time=64
note_on channel=2 note=76 velocity=64 time=72
note_off channel=2 note=76 velocity=64 time=56
note_on channel=2 note=76 velocity=73 time=76
note_off channel=2 note=76 velocity=64 time=94
note_on channel=2 note=79 velocity=73 time=232
note_on channel=2 note=67 velocity=64 time=0
note_off channel=2 note=67 velocity=64 time=58
note_off channel=2 note=79 velocity=64 time=6
note_on channel=2 note=81 velocity=48 time=2
note_on channel=2 note=69 velocity=36 time=2
note_off channel=2 note=69 velocity=64 time=52
note_on channel=2 note=79 velocity=73 time=12
note_on channel=2 note=67 velocity=52 time=0
note_off channel=2 note=81 velocity=64 time=10
note_off channel=2 note=67 velocity=64 time=44
note_on channel=2 note=78 velocity=64 time=12
note_on channel=2 note=66 velocity=56 time=0
note_off channel=2 note=79 velocity=64 time=12
note_off channel=2 note=66 velocity=64 time=46
note_off channel=2 note=78 velocity=64 time=6
note_on channel=2 note=81 velocity=56 time=2
note_on channel=2 note=69 velocity=48 time=0
note_on channel=2 note=79 velocity=64 time=68
note_on channel=2 note=67 velocity=56 time=0
note_off channel=2 note=69 velocity=64 time=4
note_off channel=2 note=81 velocity=64 time=14
note_off channel=2 note=67 velocity=64 time=38
note_off channel=2 note=79 velocity=64 time=6
note_on channel=2 note=76 velocity=56 time=4
note_on channel=2 note=64 velocity=60 time=0
note_on channel=2 note=78 velocity=82 time=66
note_on channel=2 note=66 velocity=64 time=2
note_off channel=2 note=64 velocity=64 time=2
note_off channel=2 note=76 velocity=64 time=16
note_off channel=2 note=66 velocity=64 time=30
note_off channel=2 note=78 velocity=64 time=6
note_on channel=2 note=76 velocity=91 time=82
note_on channel=2 note=64 velocity=91 time=0
note_off channel=2 note=64 velocity=64 time=102
note_off channel=2 note=76 velocity=64 time=62
program_change channel=2 program=12 time=538
control_change channel=2 control=7 value=105 time=2
control_change channel=2 control=10 value=55 time=0
note_on channel=2 note=48 velocity=27 time=2
note_on channel=2 note=64 velocity=48 time=0
note_off channel=2 note=64 velocity=64 time=92
note_off channel=2 note=48 velocity=64 time=24
note_on channel=2 note=67 velocity=48 time=72
note_off channel=2 note=67 velocity=64 time=36
note_on channel=2 note=65 velocity=29 time=54
note_on channel=2 note=53 velocity=44 time=80
note_off channel=2 note=65 velocity=64 time=26
note_off channel=2 note=53 velocity=64 time=62
note_on channel=2 note=69 velocity=31 time=92
note_off channel=2 note=69 velocity=64 time=80
note_on channel=2 note=57 velocity=24 time=22
note_on channel=2 note=67 velocity=44 time=88
note_off channel=2 note=57 velocity=64 time=6
note_off channel=2 note=67 velocity=64 time=78
note_on channel=2 note=55 velocity=32 time=16
note_off channel=2 note=55 velocity=64 time=78
note_on channel=2 note=59 velocity=44 time=0
note_on channel=2 note=62 velocity=32 time=104
note_off channel=2 note=59 velocity=64 time=22
note_off channel=2 note=62 velocity=64 time=50
note_on channel=2 note=64 velocity=52 time=12
note_off channel=2 note=64 velocity=64 time=96
note_on channel=2 note=60 velocity=40 time=2
note_on channel=2 note=48 velocity=36 time=80
note_off channel=2 note=60 velocity=64 time=14
note_off channel=2 note=48 velocity=64 time=62
note_on channel=2 note=64 velocity=56 time=104
note_off channel=2 note=64 velocity=64 time=96
note_on channel=2 note=67 velocity=52 time=90
note_on channel=2 note=65 velocity=56 time=98
note_off channel=2 note=67 velocity=64 time=8
note_on channel=2 note=53 velocity=32 time=70
note_off channel=2 note=65 velocity=64 time=14
note_off channel=2 note=53 velocity=64 time=114
note_on channel=2 note=69 velocity=31 time=56
note_on channel=2 note=57 velocity=26 time=98
note_off channel=2 note=57 velocity=64 time=78
note_off channel=2 note=69 velocity=64 time=10
note_on channel=2 note=67 velocity=30 time=0
note_off channel=2 note=67 velocity=64 time=58
note_on channel=2 note=55 velocity=31 time=38
note_on channel=2 note=62 velocity=48 time=88
note_off channel=2 note=55 velocity=64 time=32
note_on channel=2 note=64 velocity=56 time=68
note_off channel=2 note=62 velocity=64 time=12
note_on channel=2 note=48 velocity=44 time=68
note_off channel=2 note=64 velocity=64 time=44
note_off channel=2 note=48 velocity=64 time=112
note_on channel=2 note=55 velocity=16 time=128
note_off channel=2 note=55 velocity=64 time=18
note_on channel=2 note=64 velocity=60 time=66
note_off channel=2 note=64 velocity=64 time=124
note_on channel=2 note=67 velocity=56 time=60
note_on channel=2 note=65 velocity=32 time=98
note_off channel=2 note=67 velocity=64 time=6
note_on channel=2 note=53 velocity=16 time=80
note_off channel=2 note=65 velocity=64 time=118
note_on channel=2 note=57 velocity=24 time=66
note_off channel=2 note=53 velocity=64 time=12
note_off channel=2 note=57 velocity=64 time=18
note_on channel=2 note=69 velocity=32 time=62
note_off channel=2 note=69 velocity=64 time=74
note_on channel=2 note=67 velocity=52 time=10
note_on channel=2 note=55 velocity=26 time=100
note_off channel=2 note=67 velocity=64 time=4
note_on channel=2 note=67 velocity=32 time=80
note_off channel=2 note=55 velocity=64 time=42
note_on channel=2 note=59 velocity=16 time=62
note_off channel=2 note=67 velocity=64 time=12
note_off channel=2 note=59 velocity=64 time=50
note_on channel=2 note=64 velocity=27 time=18
note_on channel=2 note=60 velocity=52 time=98
note_off channel=2 note=64 velocity=64 time=6
note_off channel=2 note=60 velocity=64 time=226
note_on channel=2 note=62 velocity=44 time=32
note_off channel=2 note=62 velocity=64 time=88
note_on channel=2 note=54 velocity=48 time=4
note_on channel=2 note=50 velocity=32 time=84
note_off channel=2 note=54 velocity=64 time=10
note_off channel=2 note=50 velocity=64 time=80
note_on channel=2 note=62 velocity=36 time=12
note_off channel=2 note=62 velocity=64 time=150
note_on channel=2 note=57 velocity=40 time=120
note_off channel=2 note=57 velocity=64 time=86
note_on channel=2 note=62 velocity=48 time=86
note_on channel=2 note=60 velocity=31 time=96
note_off channel=2 note=62 velocity=64 time=10
note_off channel=2 note=60 velocity=64 time=76
note_on channel=2 note=58 velocity=28 time=4
note_off channel=2 note=58 velocity=64 time=48
note_on channel=2 note=60 velocity=40 time=128
note_off channel=2 note=60 velocity=64 time=88
note_on channel=2 note=53 velocity=32 time=92
note_off channel=2 note=53 velocity=64 time=90
note_on channel=2 note=62 velocity=48 time=8
note_off channel=2 note=62 velocity=64 time=370
note_on channel=2 note=62 velocity=44 time=192
note_off channel=2 note=62 velocity=64 time=100
note_on channel=2 note=55 velocity=16 time=80
note_on channel=2 note=59 velocity=16 time=2
note_off channel=2 note=55 velocity=64 time=8
note_off channel=2 note=59 velocity=64 time=2
note_on channel=2 note=67 velocity=44 time=72
note_off channel=2 note=67 velocity=64 time=100
note_on channel=2 note=65 velocity=29 time=4
note_off channel=2 note=65 velocity=64 time=68
note_on channel=2 note=65 velocity=40 time=190
note_off channel=2 note=65 velocity=64 time=110
note_on channel=2 note=69 velocity=48 time=72
note_on channel=2 note=67 velocity=52 time=94
note_off channel=2 note=69 velocity=64 time=10
note_off channel=2 note=67 velocity=64 time=252
note_on channel=2 note=59 velocity=32 time=96
note_off channel=2 note=59 velocity=64 time=112
note_on channel=2 note=60 velocity=27 time=78
note_off channel=2 note=60 velocity=64 time=74
note_on channel=2 note=62 velocity=36 time=8
note_off channel=2 note=62 velocity=64 time=72
note_on channel=2 note=55 velocity=16 time=28
note_off channel=2 note=55 velocity=64 time=58
note_on channel=2 note=67 velocity=48 time=24
note_off channel=2 note=67 velocity=64 time=74
note_on channel=2 note=67 velocity=28 time=114
note_off channel=2 note=67 velocity=64 time=112
note_on channel=2 note=69 velocity=27 time=68
note_off channel=2 note=69 velocity=64 time=82
note_on channel=2 note=67 velocity=32 time=18
note_off channel=2 note=67 velocity=64 time=60
note_on channel=2 note=60 velocity=23 time=26
note_off channel=2 note=60 velocity=64 time=98
program_change channel=2 program=12 time=74
control_change channel=2 control=7 value=82 time=2
control_change channel=2 control=10 value=55 time=0
note_on channel=2 note=48 velocity=27 time=2
note_on channel=2 note=64 velocity=48 time=0
note_off channel=2 note=64 velocity=64 time=94
note_off channel=2 note=48 velocity=64 time=26
note_on channel=2 note=67 velocity=48 time=70
note_off channel=2 note=67 velocity=64 time=36
note_on channel=2 note=65 velocity=29 time=56
note_on channel=2 note=53 velocity=44 time=80
note_off channel=2 note=65 velocity=64 time=26
note_off channel=2 note=53 velocity=64 time=60
note_on channel=2 note=69 velocity=31 time=94
note_off channel=2 note=69 velocity=64 time=78
note_on channel=2 note=57 velocity=24 time=22
note_on channel=2 note=67 velocity=44 time=90
note_off channel=2 note=57 velocity=64 time=4
note_off channel=2 note=67 velocity=64 time=80
note_on channel=2 note=55 velocity=32 time=14
note_off channel=2 note=55 velocity=64 time=78
note_on channel=2 note=59 velocity=44 time=2
note_on channel=2 note=62 velocity=32 time=102
note_off channel=2 note=59 velocity=64 time=22
note_off channel=2 note=62 velocity=64 time=52
note_on channel=2 note=64 velocity=52 time=10
note_off channel=2 note=64 velocity=64 time=96
note_on channel=2 note=60 velocity=40 time=2
note_on channel=2 note=48 velocity=36 time=82
note_off channel=2 note=60 velocity=64 time=12
note_off channel=2 note=48 velocity=64 time=64
note_on channel=2 note=64 velocity=56 time=104
note_off channel=2 note=64 velocity=64 time=96
note_on channel=2 note=67 velocity=52 time=88
note_on channel=2 note=65 velocity=56 time=98
note_off channel=2 note=67 velocity=64 time=8
note_on channel=2 note=53 velocity=32 time=70
note_off channel=2 note=65 velocity=64 time=14
note_off channel=2 note=53 velocity=64 time=114
note_on channel=2 note=69 velocity=31 time=58
note_on channel=2 note=57 velocity=26 time=96
note_off channel=2 note=57 velocity=64 time=78
note_off channel=2 note=69 velocity=64 time=10
note_on channel=2 note=67 velocity=30 time=0
note_off channel=2 note=67 velocity=64 time=58
note_on channel=2 note=55 velocity=31 time=40
note_on channel=2 note=62 velocity=48 time=88
note_off channel=2 note=55 velocity=64 time=30
note_on channel=2 note=64 velocity=56 time=68
note_off channel=2 note=62 velocity=64 time=14
note_on channel=2 note=48 velocity=44 time=68
note_off channel=2 note=64 velocity=64 time=44
note_off channel=2 note=48 velocity=64 time=112
note_on channel=2 note=55 velocity=16 time=128
note_off channel=2 note=55 velocity=64 time=16
note_on channel=2 note=64 velocity=60 time=66
note_off channel=2 note=64 velocity=64 time=124
note_on channel=2 note=67 velocity=56 time=60
note_on channel=2 note=65 velocity=32 time=100
note_off channel=2 note=67 velocity=64 time=4
note_on channel=2 note=53 velocity=16 time=82
note_off channel=2 note=65 velocity=64 time=116
note_on channel=2 note=57 velocity=24 time=66
note_off channel=2 note=53 velocity=64 time=12
note_off channel=2 note=57 velocity=64 time=20
note_on channel=2 note=69 velocity=32 time=62
note_off channel=2 note=69 velocity=64 time=74
note_on channel=2 note=67 velocity=52 time=10
note_on channel=2 note=55 velocity=26 time=98
note_off channel=2 note=67 velocity=64 time=6
note_on channel=2 note=67 velocity=32 time=80
note_off channel=2 note=55 velocity=64 time=42
note_on channel=2 note=59 velocity=16 time=62
note_off channel=2 note=67 velocity=64 time=10
note_off channel=2 note=59 velocity=64 time=50
note_on channel=2 note=64 velocity=27 time=18
note_on channel=2 note=60 velocity=52 time=98
note_off channel=2 note=64 velocity=64 time=6
note_off channel=2 note=60 velocity=64 time=228
note_on channel=2 note=62 velocity=44 time=30
note_off channel=2 note=62 velocity=64 time=88
note_on channel=2 note=54 velocity=48 time=6
note_on channel=2 note=50 velocity=32 time=84
note_off channel=2 note=54 velocity=64 time=10
note_off channel=2 note=50 velocity=64 time=80
note_on channel=2 note=62 velocity=36 time=10
note_off channel=2 note=62 velocity=64 time=152
note_on channel=2 note=57 velocity=40 time=118
note_off channel=2 note=57 velocity=64 time=86
note_on channel=2 note=62 velocity=48 time=88
note_on channel=2 note=60 velocity=31 time=96
note_off channel=2 note=62 velocity=64 time=10
note_off channel=2 note=60 velocity=64 time=76
note_on channel=2 note=58 velocity=28 time=4
note_off channel=2 note=58 velocity=64 time=48
note_on channel=2 note=60 velocity=40 time=126
note_off channel=2 note=60 velocity=64 time=88
note_on channel=2 note=53 velocity=32 time=92
note_off channel=2 note=53 velocity=64 time=90
note_on channel=2 note=62 velocity=48 time=8
note_off channel=2 note=62 velocity=64 time=370
note_on channel=2 note=62 velocity=44 time=194
note_off channel=2 note=62 velocity=64 time=98
note_on channel=2 note=55 velocity=16 time=80
note_on channel=2 note=59 velocity=16 time=4
note_off channel=2 note=55 velocity=64 time=6
note_off channel=2 note=59 velocity=64 time=4
note_on channel=2 note=67 velocity=44 time=70
note_off channel=2 note=67 velocity=64 time=102
note_on channel=2 note=65 velocity=29 time=2
note_off channel=2 note=65 velocity=64 time=70
note_on channel=2 note=65 velocity=40 time=188
note_off channel=2 note=65 velocity=64 time=110
note_on channel=2 note=69 velocity=48 time=72
note_on channel=2 note=67 velocity=52 time=94
note_off channel=2 note=69 velocity=64 time=10
note_off channel=2 note=67 velocity=64 time=254
note_on channel=2 note=59 velocity=32 time=96
note_off channel=2 note=59 velocity=64 time=110
note_on channel=2 note=60 velocity=27 time=78
note_off channel=2 note=60 velocity=64 time=74
note_on channel=2 note=62 velocity=36 time=8
note_off channel=2 note=62 velocity=64 time=72
note_on channel=2 note=55 velocity=16 time=30
note_off channel=2 note=55 velocity=64 time=56
note_on channel=2 note=67 velocity=48 time=24
note_off channel=2 note=67 velocity=64 time=76
note_on channel=2 note=67 velocity=28 time=114
note_off channel=2 note=67 velocity=64 time=112
note_on channel=2 note=69 velocity=27 time=66
note_off channel=2 note=69 velocity=64 time=82
note_on channel=2 note=67 velocity=32 time=18
note_off channel=2 note=67 velocity=64 time=60
note_on channel=2 note=60 velocity=23 time=28
note_off channel=2 note=60 velocity=64 time=98
program_change channel=2 program=12 time=74
control_change channel=2 control=7 value=82 time=0
control_change channel=2 control=10 value=55 time=0
note_on channel=2 note=48 velocity=27 time=2
note_on channel=2 note=64 velocity=48 time=2
note_off channel=2 note=64 velocity=64 time=94
note_off channel=2 note=48 velocity=64 time=24
note_on channel=2 note=67 velocity=48 time=72
note_off channel=2 note=67 velocity=64 time=34
note_on channel=2 note=65 velocity=29 time=56
note_on channel=2 note=53 velocity=44 time=80
note_off channel=2 note=65 velocity=64 time=26
note_off channel=2 note=53 velocity=64 time=62
note_on channel=2 note=69 velocity=31 time=92
note_off channel=2 note=69 velocity=64 time=80
note_on channel=2 note=57 velocity=24 time=20
note_on channel=2 note=67 velocity=44 time=90
note_off channel=2 note=57 velocity=64 time=4
note_off channel=2 note=67 velocity=64 time=80
note_on channel=2 note=55 velocity=32 time=16
note_off channel=2 note=55 velocity=64 time=76
note_on channel=2 note=59 velocity=44 time=2
note_on channel=2 note=62 velocity=32 time=104
note_off channel=2 note=59 velocity=64 time=22
note_off channel=2 note=62 velocity=64 time=50
note_on channel=2 note=64 velocity=52 time=12
note_off channel=2 note=64 velocity=64 time=96
note_on channel=2 note=60 velocity=40 time=2
note_on channel=2 note=48 velocity=36 time=80
note_off channel=2 note=60 velocity=64 time=14
note_off channel=2 note=48 velocity=64 time=62
note_on channel=2 note=64 velocity=56 time=104
note_off channel=2 note=64 velocity=64 time=96
note_on channel=2 note=67 velocity=52 time=90
note_on channel=2 note=65 velocity=56 time=96
note_off channel=2 note=67 velocity=64 time=8
note_on channel=2 note=53 velocity=32 time=70
note_off channel=2 note=65 velocity=64 time=16
note_off channel=2 note=53 velocity=64 time=114
note_on channel=2 note=69 velocity=31 time=56
note_on channel=2 note=57 velocity=26 time=98
note_off channel=2 note=57 velocity=64 time=78
note_off channel=2 note=69 velocity=64 time=10
note_on channel=2 note=67 velocity=30 time=0
note_off channel=2 note=67 velocity=64 time=58
note_on channel=2 note=55 velocity=31 time=38
note_on channel=2 note=62 velocity=48 time=88
note_off channel=2 note=55 velocity=64 time=32
note_on channel=2 note=64 velocity=56 time=68
note_off channel=2 note=62 velocity=64 time=12
note_on channel=2 note=48 velocity=44 time=68
note_off channel=2 note=64 velocity=64 time=44
note_off channel=2 note=48 velocity=64 time=112
note_on channel=2 note=55 velocity=16 time=128
note_off channel=2 note=55 velocity=64 time=16
note_on channel=2 note=64 velocity=60 time=68
note_off channel=2 note=64 velocity=64 time=124
note_on channel=2 note=67 velocity=56 time=58
note_on channel=2 note=65 velocity=32 time=100
note_off channel=2 note=67 velocity=64 time=4
note_on channel=2 note=53 velocity=16 time=82
note_off channel=2 note=65 velocity=64 time=118
note_on channel=2 note=57 velocity=24 time=66
note_off channel=2 note=53 velocity=64 time=12
note_off channel=2 note=57 velocity=64 time=18
note_on channel=2 note=69 velocity=32 time=62
note_off channel=2 note=69 velocity=64 time=76
note_on channel=2 note=67 velocity=52 time=8
note_on channel=2 note=55 velocity=26 time=100
note_off channel=2 note=67 velocity=64 time=4
note_on channel=2 note=67 velocity=32 time=80
note_off channel=2 note=55 velocity=64 time=42
note_on channel=2 note=59 velocity=16 time=62
note_off channel=2 note=67 velocity=64 time=12
note_off channel=2 note=59 velocity=64 time=50
note_on channel=2 note=64 velocity=27 time=18
note_on channel=2 note=60 velocity=52 time=96
note_off channel=2 note=64 velocity=64 time=8
note_off channel=2 note=60 velocity=64 time=226
note_on channel=2 note=62 velocity=44 time=32
note_off channel=2 note=62 velocity=64 time=88
note_on channel=2 note=54 velocity=48 time=4
note_on channel=2 note=50 velocity=32 time=84
note_off channel=2 note=54 velocity=64 time=10
note_off channel=2 note=50 velocity=64 time=80
note_on channel=2 note=62 velocity=36 time=12
note_off channel=2 note=62 velocity=64 time=150
note_on channel=2 note=57 velocity=40 time=120
note_off channel=2 note=57 velocity=64 time=86
note_on channel=2 note=62 velocity=48 time=86
note_on channel=2 note=60 velocity=31 time=96
note_off channel=2 note=62 velocity=64 time=10
note_off channel=2 note=60 velocity=64 time=76
note_on channel=2 note=58 velocity=28 time=4
note_off channel=2 note=58 velocity=64 time=48
note_on channel=2 note=60 velocity=40 time=128
note_off channel=2 note=60 velocity=64 time=86
note_on channel=2 note=53 velocity=32 time=94
note_off channel=2 note=53 velocity=64 time=88
note_on channel=2 note=62 velocity=48 time=8
note_off channel=2 note=62 velocity=64 time=372
note_on channel=2 note=62 velocity=44 time=192
note_off channel=2 note=62 velocity=64 time=100
note_on channel=2 note=55 velocity=16 time=78
note_on channel=2 note=59 velocity=16 time=4
note_off channel=2 note=55 velocity=64 time=8
note_off channel=2 note=59 velocity=64 time=2
note_on channel=2 note=67 velocity=44 time=72
note_off channel=2 note=67 velocity=65 time=4430
MetaMessage('end_of_track', time=0)
MetaMessage('midi_port', port=1, time=0)
MetaMessage('track_name', name='                    ', time=0)
program_change channel=3 program=16 time=1332
control_change channel=3 control=7 value=99 time=0
control_change channel=3 control=10 value=80 time=0
note_on channel=3 note=52 velocity=36 time=4
note_on channel=3 note=59 velocity=32 time=34
note_on channel=3 note=64 velocity=27 time=44
note_on channel=3 note=66 velocity=30 time=42
note_on channel=3 note=67 velocity=16 time=5858
note_on channel=3 note=71 velocity=16 time=784
note_on channel=3 note=74 velocity=16 time=788
note_off channel=3 note=52 velocity=64 time=484
note_off channel=3 note=64 velocity=64 time=2
note_off channel=3 note=59 velocity=64 time=0
note_off channel=3 note=71 velocity=64 time=4
note_off channel=3 note=67 velocity=64 time=4
note_off channel=3 note=66 velocity=64 time=0
note_off channel=3 note=74 velocity=64 time=12
control_change channel=3 control=7 value=85 time=88
note_on channel=3 note=67 velocity=91 time=60
note_on channel=3 note=59 velocity=100 time=0
note_on channel=3 note=64 velocity=91 time=0
note_off channel=3 note=64 velocity=64 time=20
note_off channel=3 note=59 velocity=64 time=6
note_off channel=3 note=67 velocity=64 time=8
note_on channel=3 note=67 velocity=64 time=30
note_on channel=3 note=64 velocity=64 time=0
note_on channel=3 note=59 velocity=48 time=0
note_off channel=3 note=64 velocity=64 time=74
note_off channel=3 note=67 velocity=64 time=2
note_off channel=3 note=59 velocity=64 time=0
note_on channel=3 note=67 velocity=91 time=122
note_on channel=3 note=59 velocity=100 time=0
note_on channel=3 note=64 velocity=91 time=0
note_off channel=3 note=64 velocity=64 time=24
note_off channel=3 note=59 velocity=64 time=6
note_off channel=3 note=67 velocity=64 time=2
note_on channel=3 note=67 velocity=73 time=34
note_on channel=3 note=59 velocity=64 time=0
note_on channel=3 note=64 velocity=73 time=0
note_off channel=3 note=67 velocity=64 time=46
note_off channel=3 note=59 velocity=64 time=4
note_off channel=3 note=64 velocity=64 time=0
note_on channel=3 note=57 velocity=82 time=148
note_on channel=3 note=62 velocity=82 time=0
note_on channel=3 note=66 velocity=109 time=0
note_off channel=3 note=57 velocity=64 time=32
note_off channel=3 note=62 velocity=64 time=4
note_off channel=3 note=66 velocity=64 time=2
note_on channel=3 note=62 velocity=60 time=30
note_on channel=3 note=66 velocity=73 time=0
note_on channel=3 note=57 velocity=56 time=0
note_off channel=3 note=62 velocity=64 time=70
note_off channel=3 note=66 velocity=64 time=4
note_off channel=3 note=57 velocity=64 time=0
note_on channel=3 note=67 velocity=100 time=124
note_on channel=3 note=64 velocity=91 time=0
note_on channel=3 note=59 velocity=91 time=0
note_off channel=3 note=64 velocity=64 time=28
note_off channel=3 note=59 velocity=64 time=0
note_off channel=3 note=67 velocity=64 time=10
note_on channel=3 note=67 velocity=82 time=28
note_on channel=3 note=59 velocity=73 time=0
note_on channel=3 note=64 velocity=73 time=0
note_off channel=3 note=59 velocity=64 time=50
note_off channel=3 note=64 velocity=64 time=2
note_off channel=3 note=67 velocity=64 time=8
note_on channel=3 note=67 velocity=100 time=140
note_on channel=3 note=64 velocity=100 time=0
note_on channel=3 note=59 velocity=100 time=0
note_off channel=3 note=64 velocity=64 time=30
note_off channel=3 note=59 velocity=64 time=0
note_off channel=3 note=67 velocity=64 time=4
note_on channel=3 note=64 velocity=73 time=30
note_on channel=3 note=59 velocity=60 time=0
note_on channel=3 note=67 velocity=82 time=0
note_off channel=3 note=67 velocity=64 time=52
note_off channel=3 note=64 velocity=64 time=4
note_off channel=3 note=59 velocity=64 time=2
note_on channel=3 note=62 velocity=91 time=140
note_on channel=3 note=57 velocity=82 time=0
note_on channel=3 note=66 velocity=109 time=0
note_off channel=3 note=57 velocity=64 time=30
note_off channel=3 note=62 velocity=64 time=6
note_off channel=3 note=66 velocity=64 time=0
note_on channel=3 note=57 velocity=56 time=30
note_on channel=3 note=62 velocity=73 time=0
note_on channel=3 note=66 velocity=64 time=0
note_off channel=3 note=57 velocity=64 time=50
note_off channel=3 note=62 velocity=64 time=0
note_off channel=3 note=66 velocity=64 time=2
note_on channel=3 note=59 velocity=91 time=144
note_on channel=3 note=64 velocity=91 time=0
note_on channel=3 note=67 velocity=100 time=2
note_off channel=3 note=64 velocity=64 time=34
note_off channel=3 note=67 velocity=64 time=4
note_off channel=3 note=59 velocity=64 time=2
note_on channel=3 note=59 velocity=56 time=24
note_on channel=3 note=64 velocity=64 time=2
note_on channel=3 note=67 velocity=64 time=0
note_off channel=3 note=64 velocity=64 time=50
note_off channel=3 note=67 velocity=64 time=2
note_off channel=3 note=59 velocity=64 time=4
note_on channel=3 note=59 velocity=100 time=144
note_on channel=3 note=64 velocity=91 time=0
note_on channel=3 note=67 velocity=82 time=0
note_off channel=3 note=59 velocity=64 time=32
note_off channel=3 note=64 velocity=64 time=2
note_off channel=3 note=67 velocity=64 time=6
note_on channel=3 note=59 velocity=52 time=24
note_on channel=3 note=67 velocity=52 time=0
note_on channel=3 note=64 velocity=64 time=2
note_off channel=3 note=64 velocity=64 time=50
note_off channel=3 note=67 velocity=64 time=4
note_off channel=3 note=59 velocity=64 time=4
note_on channel=3 note=57 velocity=91 time=138
note_on channel=3 note=62 velocity=91 time=0
note_on channel=3 note=66 velocity=91 time=2
note_off channel=3 note=62 velocity=64 time=32
note_off channel=3 note=57 velocity=64 time=2
note_off channel=3 note=66 velocity=64 time=8
note_on channel=3 note=62 velocity=56 time=24
note_on channel=3 note=66 velocity=56 time=0
note_on channel=3 note=57 velocity=56 time=0
note_off channel=3 note=57 velocity=64 time=52
note_off channel=3 note=62 velocity=64 time=2
note_off channel=3 note=66 velocity=64 time=10
note_on channel=3 note=64 velocity=100 time=132
note_on channel=3 note=60 velocity=100 time=2
note_on channel=3 note=55 velocity=82 time=0
note_off channel=3 note=55 velocity=64 time=32
note_off channel=3 note=60 velocity=64 time=2
note_off channel=3 note=64 velocity=64 time=10
note_on channel=3 note=64 velocity=64 time=20
note_on channel=3 note=60 velocity=64 time=0
note_on channel=3 note=55 velocity=60 time=0
note_off channel=3 note=55 velocity=64 time=48
note_off channel=3 note=60 velocity=64 time=2
note_off channel=3 note=64 velocity=64 time=8
note_on channel=3 note=55 velocity=52 time=10
note_on channel=3 note=71 velocity=64 time=0
note_on channel=3 note=62 velocity=31 time=64
note_on channel=3 note=67 velocity=60 time=66
note_on channel=3 note=59 velocity=52 time=0
note_off channel=3 note=71 velocity=64 time=14
note_off channel=3 note=62 velocity=64 time=8
note_off channel=3 note=55 velocity=64 time=8
note_off channel=3 note=67 velocity=64 time=20
note_off channel=3 note=59 velocity=64 time=12
note_on channel=3 note=62 velocity=32 time=2
note_off channel=3 note=62 velocity=64 time=68
note_on channel=3 note=59 velocity=64 time=0
note_on channel=3 note=67 velocity=64 time=0
note_on channel=3 note=62 velocity=31 time=66
note_off channel=3 note=67 velocity=64 time=10
note_on channel=3 note=67 velocity=40 time=56
note_on channel=3 note=71 velocity=52 time=66
note_off channel=3 note=67 velocity=64 time=10
note_off channel=3 note=62 velocity=64 time=16
note_on channel=3 note=57 velocity=60 time=38
note_on channel=3 note=69 velocity=73 time=2
note_off channel=3 note=71 velocity=64 time=12
note_off channel=3 note=59 velocity=64 time=16
note_off channel=3 note=69 velocity=64 time=26
note_on channel=3 note=60 velocity=44 time=10
note_off channel=3 note=57 velocity=64 time=4
note_off channel=3 note=60 velocity=64 time=48
note_on channel=3 note=69 velocity=64 time=14
note_on channel=3 note=57 velocity=64 time=0
note_on channel=3 note=64 velocity=60 time=2
note_off channel=3 note=64 velocity=64 time=62
note_on channel=3 note=60 velocity=56 time=2
note_off channel=3 note=69 velocity=64 time=8
note_off channel=3 note=57 velocity=64 time=8
note_off channel=3 note=60 velocity=64 time=24
note_on channel=3 note=67 velocity=56 time=30
note_on channel=3 note=52 velocity=60 time=0
note_on channel=3 note=59 velocity=29 time=62
note_on channel=3 note=64 velocity=60 time=64
note_off channel=3 note=59 velocity=64 time=28
note_off channel=3 note=67 velocity=64 time=20
note_on channel=3 note=59 velocity=64 time=18
note_off channel=3 note=64 velocity=64 time=16
note_off channel=3 note=52 velocity=64 time=10
note_off channel=3 note=59 velocity=64 time=12
note_on channel=3 note=59 velocity=100 time=162
note_on channel=3 note=67 velocity=100 time=0
note_on channel=3 note=64 velocity=100 time=0
note_off channel=3 note=64 velocity=64 time=38
note_off channel=3 note=59 velocity=64 time=8
note_off channel=3 note=67 velocity=64 time=8
note_on channel=3 note=67 velocity=32 time=14
note_on channel=3 note=64 velocity=64 time=0
note_on channel=3 note=59 velocity=60 time=0
note_off channel=3 note=59 velocity=64 time=46
note_off channel=3 note=64 velocity=64 time=4
note_off channel=3 note=67 velocity=64 time=4
note_on channel=3 note=59 velocity=100 time=140
note_on channel=3 note=64 velocity=91 time=0
note_on channel=3 note=67 velocity=91 time=2
note_off channel=3 note=64 velocity=64 time=32
note_off channel=3 note=59 velocity=64 time=4
note_off channel=3 note=67 velocity=64 time=4
note_on channel=3 note=59 velocity=64 time=26
note_on channel=3 note=64 velocity=82 time=0
note_on channel=3 note=67 velocity=73 time=0
note_off channel=3 note=64 velocity=64 time=44
note_off channel=3 note=67 velocity=64 time=2
note_off channel=3 note=59 velocity=64 time=6
note_on channel=3 note=57 velocity=91 time=142
note_on channel=3 note=62 velocity=91 time=2
note_on channel=3 note=66 velocity=100 time=0
note_off channel=3 note=57 velocity=64 time=38
note_off channel=3 note=62 velocity=64 time=2
note_off channel=3 note=66 velocity=64 time=4
note_on channel=3 note=57 velocity=64 time=20
note_on channel=3 note=66 velocity=64 time=2
note_on channel=3 note=62 velocity=64 time=0
note_off channel=3 note=62 velocity=64 time=48
note_off channel=3 note=57 velocity=64 time=10
note_off channel=3 note=66 velocity=64 time=2
note_on channel=3 note=64 velocity=109 time=136
note_on channel=3 note=55 velocity=100 time=2
note_on channel=3 note=60 velocity=91 time=0
note_off channel=3 note=60 velocity=64 time=28
note_off channel=3 note=55 velocity=64 time=2
note_off channel=3 note=64 velocity=64 time=12
note_on channel=3 note=64 velocity=56 time=24
note_on channel=3 note=55 velocity=44 time=0
note_on channel=3 note=60 velocity=60 time=0
note_off channel=3 note=60 velocity=64 time=48
note_off channel=3 note=55 velocity=64 time=4
note_off channel=3 note=64 velocity=64 time=4
note_on channel=3 note=60 velocity=56 time=8
note_on channel=3 note=72 velocity=73 time=0
note_on channel=3 note=64 velocity=48 time=66
note_off channel=3 note=60 velocity=64 time=56
note_off channel=3 note=64 velocity=64 time=4
note_on channel=3 note=67 velocity=73 time=6
note_on channel=3 note=55 velocity=73 time=0
note_off channel=3 note=72 velocity=64 time=10
note_off channel=3 note=55 velocity=64 time=28
note_off channel=3 note=67 velocity=64 time=16
note_on channel=3 note=64 velocity=60 time=12
note_off channel=3 note=64 velocity=64 time=16
note_on channel=3 note=67 velocity=73 time=54
note_on channel=3 note=55 velocity=56 time=0
note_on channel=3 note=59 velocity=44 time=64
note_on channel=3 note=62 velocity=60 time=66
note_off channel=3 note=59 velocity=64 time=14
note_off channel=3 note=67 velocity=64 time=2
note_off channel=3 note=55 velocity=64 time=14
note_off channel=3 note=62 velocity=64 time=26
note_on channel=3 note=71 velocity=60 time=10
note_on channel=3 note=69 velocity=64 time=66
note_on channel=3 note=57 velocity=73 time=0
note_off channel=3 note=71 velocity=64 time=12
note_off channel=3 note=57 velocity=64 time=28
note_off channel=3 note=69 velocity=64 time=6
note_on channel=3 note=60 velocity=36 time=18
note_off channel=3 note=60 velocity=64 time=16
note_on channel=3 note=64 velocity=73 time=50
note_on channel=3 note=69 velocity=64 time=0
note_on channel=3 note=57 velocity=64 time=0
note_off channel=3 note=64 velocity=64 time=60
note_off channel=3 note=57 velocity=64 time=2
note_on channel=3 note=60 velocity=56 time=4
note_off channel=3 note=69 velocity=64 time=6
note_off channel=3 note=60 velocity=64 time=16
note_on channel=3 note=62 velocity=64 time=46
note_on channel=3 note=66 velocity=64 time=0
note_on channel=3 note=57 velocity=91 time=128
note_off channel=3 note=62 velocity=64 time=6
note_off channel=3 note=66 velocity=64 time=0
note_off channel=3 note=57 velocity=64 time=34
note_on channel=3 note=57 velocity=52 time=28
note_on channel=3 note=66 velocity=64 time=0
note_on channel=3 note=62 velocity=73 time=0
note_off channel=3 note=62 velocity=64 time=50
note_off channel=3 note=57 velocity=64 time=4
note_off channel=3 note=66 velocity=64 time=2
note_on channel=3 note=66 velocity=100 time=142
note_on channel=3 note=57 velocity=82 time=0
note_on channel=3 note=62 velocity=82 time=0
note_off channel=3 note=62 velocity=64 time=36
note_off channel=3 note=57 velocity=64 time=4
note_off channel=3 note=66 velocity=64 time=6
note_on channel=3 note=57 velocity=56 time=20
note_on channel=3 note=66 velocity=56 time=0
note_on channel=3 note=62 velocity=64 time=2
note_off channel=3 note=62 velocity=64 time=32
note_off channel=3 note=57 velocity=64 time=6
note_off channel=3 note=66 velocity=64 time=6
note_on channel=3 note=67 velocity=91 time=152
note_on channel=3 note=59 velocity=100 time=0
note_on channel=3 note=62 velocity=91 time=0
note_on channel=3 note=66 velocity=82 time=0
note_off channel=3 note=66 velocity=64 time=14
note_off channel=3 note=62 velocity=64 time=16
note_off channel=3 note=59 velocity=64 time=4
note_off channel=3 note=67 velocity=64 time=14
note_on channel=3 note=67 velocity=56 time=16
note_on channel=3 note=59 velocity=56 time=0
note_on channel=3 note=62 velocity=73 time=0
note_off channel=3 note=62 velocity=64 time=44
note_off channel=3 note=59 velocity=64 time=6
note_off channel=3 note=67 velocity=64 time=10
note_on channel=3 note=63 velocity=91 time=140
note_on channel=3 note=59 velocity=82 time=0
note_on channel=3 note=66 velocity=109 time=2
note_off channel=3 note=66 velocity=64 time=38
note_off channel=3 note=59 velocity=64 time=2
note_off channel=3 note=63 velocity=64 time=4
note_on channel=3 note=63 velocity=60 time=22
note_on channel=3 note=59 velocity=60 time=2
note_on channel=3 note=66 velocity=73 time=0
note_off channel=3 note=59 velocity=64 time=64
note_off channel=3 note=63 velocity=64 time=4
note_off channel=3 note=66 velocity=64 time=6
note_on channel=3 note=59 velocity=100 time=122
note_on channel=3 note=64 velocity=100 time=0
note_on channel=3 note=67 velocity=91 time=0
note_off channel=3 note=64 velocity=64 time=38
note_off channel=3 note=67 velocity=64 time=4
note_off channel=3 note=59 velocity=64 time=10
note_on channel=3 note=64 velocity=73 time=18
note_on channel=3 note=67 velocity=64 time=0
note_on channel=3 note=59 velocity=52 time=0
note_off channel=3 note=64 velocity=64 time=56
note_off channel=3 note=59 velocity=64 time=0
note_off channel=3 note=67 velocity=64 time=2
note_on channel=3 note=57 velocity=91 time=138
note_on channel=3 note=62 velocity=100 time=0
note_on channel=3 note=66 velocity=109 time=2
note_off channel=3 note=66 velocity=64 time=36
note_off channel=3 note=57 velocity=64 time=4
note_off channel=3 note=62 velocity=64 time=0
note_on channel=3 note=62 velocity=64 time=24
note_on channel=3 note=57 velocity=60 time=0
note_on channel=3 note=66 velocity=73 time=0
note_off channel=3 note=57 velocity=64 time=40
note_off channel=3 note=62 velocity=64 time=2
note_off channel=3 note=66 velocity=64 time=6
note_on channel=3 note=67 velocity=91 time=152
note_on channel=3 note=59 velocity=91 time=0
note_on channel=3 note=62 velocity=100 time=0
note_off channel=3 note=62 velocity=64 time=28
note_off channel=3 note=59 velocity=64 time=2
note_off channel=3 note=67 velocity=64 time=12
note_on channel=3 note=59 velocity=64 time=20
note_on channel=3 note=67 velocity=82 time=0
note_on channel=3 note=62 velocity=64 time=0
note_off channel=3 note=62 velocity=64 time=46
note_off channel=3 note=67 velocity=64 time=6
note_off channel=3 note=59 velocity=64 time=6
note_on channel=3 note=63 velocity=100 time=142
note_on channel=3 note=59 velocity=100 time=0
note_on channel=3 note=66 velocity=82 time=0
note_off channel=3 note=63 velocity=64 time=34
note_off channel=3 note=59 velocity=64 time=0
note_off channel=3 note=66 velocity=64 time=0
note_on channel=3 note=63 velocity=73 time=30
note_on channel=3 note=59 velocity=73 time=0
note_on channel=3 note=66 velocity=82 time=0
note_off channel=3 note=66 velocity=64 time=42
note_off channel=3 note=59 velocity=64 time=12
note_off channel=3 note=63 velocity=64 time=2
note_on channel=3 note=59 velocity=100 time=142
note_on channel=3 note=67 velocity=100 time=0
note_on channel=3 note=64 velocity=91 time=2
note_off channel=3 note=64 velocity=64 time=32
note_off channel=3 note=59 velocity=64 time=6
note_off channel=3 note=67 velocity=64 time=2
note_on channel=3 note=59 velocity=48 time=24
note_on channel=3 note=64 velocity=73 time=0
note_on channel=3 note=67 velocity=60 time=2
note_off channel=3 note=67 velocity=64 time=56
note_off channel=3 note=64 velocity=64 time=10
note_off channel=3 note=59 velocity=64 time=6
note_on channel=3 note=62 velocity=91 time=128
note_on channel=3 note=57 velocity=82 time=0
note_on channel=3 note=66 velocity=109 time=0
note_off channel=3 note=57 velocity=64 time=34
note_off channel=3 note=66 velocity=64 time=2
note_off channel=3 note=62 velocity=64 time=2
note_on channel=3 note=62 velocity=64 time=26
note_on channel=3 note=57 velocity=40 time=0
note_on channel=3 note=66 velocity=60 time=0
note_off channel=3 note=62 velocity=64 time=54
note_off channel=3 note=57 velocity=64 time=0
note_off channel=3 note=66 velocity=64 time=6
note_on channel=3 note=64 velocity=91 time=136
note_on channel=3 note=55 velocity=91 time=0
note_on channel=3 note=60 velocity=91 time=0
note_off channel=3 note=60 velocity=64 time=32
note_off channel=3 note=55 velocity=64 time=4
note_off channel=3 note=64 velocity=64 time=6
note_on channel=3 note=55 velocity=48 time=24
note_on channel=3 note=64 velocity=60 time=2
note_on channel=3 note=60 velocity=60 time=0
note_off channel=3 note=60 velocity=64 time=50
note_off channel=3 note=55 velocity=64 time=4
note_off channel=3 note=64 velocity=64 time=0
note_on channel=3 note=55 velocity=100 time=138
note_on channel=3 note=60 velocity=91 time=0
note_on channel=3 note=64 velocity=91 time=0
note_off channel=3 note=60 velocity=64 time=40
note_off channel=3 note=55 velocity=64 time=2
note_off channel=3 note=64 velocity=64 time=8
note_on channel=3 note=55 velocity=64 time=14
note_on channel=3 note=60 velocity=64 time=2
note_on channel=3 note=64 velocity=64 time=0
note_off channel=3 note=60 velocity=64 time=58
note_off channel=3 note=55 velocity=64 time=2
note_off channel=3 note=64 velocity=64 time=2
note_on channel=3 note=72 velocity=73 time=4
note_on channel=3 note=60 velocity=64 time=0
note_on channel=3 note=64 velocity=64 time=66
note_on channel=3 note=67 velocity=73 time=66
note_on channel=3 note=55 velocity=64 time=0
note_off channel=3 note=72 velocity=64 time=4
note_off channel=3 note=60 velocity=64 time=20
note_off channel=3 note=64 velocity=64 time=4
note_on channel=3 note=64 velocity=73 time=38
note_off channel=3 note=67 velocity=64 time=18
note_off channel=3 note=55 velocity=64 time=6
note_off channel=3 note=64 velocity=64 time=10
note_on channel=3 note=55 velocity=73 time=32
note_on channel=3 note=67 velocity=82 time=0
note_on channel=3 note=59 velocity=52 time=66
note_on channel=3 note=62 velocity=64 time=64
note_off channel=3 note=59 velocity=64 time=10
note_off channel=3 note=67 velocity=64 time=10
note_off channel=3 note=55 velocity=64 time=26
note_off channel=3 note=62 velocity=64 time=12
note_on channel=3 note=71 velocity=64 time=8
note_on channel=3 note=69 velocity=91 time=68
note_on channel=3 note=57 velocity=73 time=0
note_off channel=3 note=71 velocity=64 time=32
note_off channel=3 note=69 velocity=64 time=30
note_on channel=3 note=60 velocity=60 time=2
note_off channel=3 note=57 velocity=64 time=2
note_off channel=3 note=60 velocity=64 time=32
note_on channel=3 note=69 velocity=56 time=32
note_on channel=3 note=57 velocity=73 time=0
note_on channel=3 note=64 velocity=64 time=0
note_off channel=3 note=64 velocity=64 time=66
note_on channel=3 note=60 velocity=64 time=0
note_off channel=3 note=69 velocity=64 time=44
note_off channel=3 note=57 velocity=64 time=2
note_on channel=3 note=67 velocity=73 time=24
note_on channel=3 note=52 velocity=64 time=0
note_off channel=3 note=60 velocity=64 time=2
note_off channel=3 note=52 velocity=64 time=78
note_off channel=3 note=67 velocity=64 time=2
note_on channel=3 note=67 velocity=91 time=48
note_on channel=3 note=64 velocity=91 time=0
note_on channel=3 note=59 velocity=100 time=0
note_off channel=3 note=64 velocity=64 time=16
note_off channel=3 note=59 velocity=64 time=4
note_off channel=3 note=67 velocity=64 time=6
note_on channel=3 note=59 velocity=48 time=38
note_on channel=3 note=67 velocity=64 time=0
note_on channel=3 note=64 velocity=64 time=0
note_off channel=3 note=64 velocity=64 time=58
note_off channel=3 note=59 velocity=64 time=2
note_off channel=3 note=67 velocity=64 time=0
note_on channel=3 note=67 velocity=91 time=134
note_on channel=3 note=59 velocity=100 time=0
note_on channel=3 note=64 velocity=91 time=0
note_off channel=3 note=64 velocity=64 time=20
note_off channel=3 note=59 velocity=64 time=4
note_off channel=3 note=67 velocity=64 time=2
note_on channel=3 note=67 velocity=73 time=40
note_on channel=3 note=59 velocity=64 time=0
note_on channel=3 note=64 velocity=73 time=0
note_off channel=3 note=67 velocity=64 time=38
note_off channel=3 note=59 velocity=64 time=2
note_off channel=3 note=64 velocity=64 time=0
note_on channel=3 note=57 velocity=82 time=156
note_on channel=3 note=62 velocity=82 time=2
note_on channel=3 note=66 velocity=109 time=0
note_off channel=3 note=57 velocity=64 time=32
note_off channel=3 note=62 velocity=64 time=2
note_off channel=3 note=66 velocity=64 time=2
note_on channel=3 note=62 velocity=60 time=28
note_on channel=3 note=66 velocity=73 time=0
note_on channel=3 note=57 velocity=56 time=0
note_off channel=3 note=62 velocity=64 time=70
note_off channel=3 note=57 velocity=64 time=4
note_off channel=3 note=66 velocity=64 time=2
note_on channel=3 note=67 velocity=100 time=124
note_on channel=3 note=64 velocity=91 time=0
note_on channel=3 note=59 velocity=91 time=0
note_off channel=3 note=64 velocity=64 time=28
note_off channel=3 note=59 velocity=64 time=2
note_off channel=3 note=67 velocity=64 time=8
note_on channel=3 note=67 velocity=82 time=26
note_on channel=3 note=59 velocity=73 time=2
note_on channel=3 note=64 velocity=73 time=0
note_off channel=3 note=59 velocity=64 time=48
note_off channel=3 note=64 velocity=64 time=0
note_off channel=3 note=67 velocity=64 time=10
control_change channel=3 control=7 value=110 time=70
note_on channel=3 note=67 velocity=100 time=70
note_on channel=3 note=64 velocity=100 time=0
note_on channel=3 note=59 velocity=100 time=0
note_off channel=3 note=64 velocity=64 time=30
note_off channel=3 note=59 velocity=64 time=0
note_off channel=3 note=67 velocity=64 time=4
note_on channel=3 note=64 velocity=73 time=30
note_on channel=3 note=59 velocity=60 time=0
note_on channel=3 note=67 velocity=82 time=0
note_off channel=3 note=67 velocity=64 time=52
note_off channel=3 note=64 velocity=64 time=4
note_off channel=3 note=59 velocity=64 time=2
note_on channel=3 note=62 velocity=91 time=138
note_on channel=3 note=57 velocity=82 time=0
note_on channel=3 note=66 velocity=109 time=2
note_off channel=3 note=57 velocity=64 time=28
note_off channel=3 note=62 velocity=64 time=6
note_off channel=3 note=66 velocity=64 time=0
note_on channel=3 note=57 velocity=56 time=28
note_on channel=3 note=62 velocity=73 time=2
note_on channel=3 note=66 velocity=64 time=0
note_off channel=3 note=57 velocity=64 time=50
note_off channel=3 note=62 velocity=64 time=0
note_off channel=3 note=66 velocity=64 time=2
note_on channel=3 note=48 velocity=60 time=14
note_on channel=3 note=72 velocity=56 time=0
note_on channel=3 note=64 velocity=44 time=64
note_off channel=3 note=48 velocity=64 time=32
note_off channel=3 note=64 velocity=64 time=32
note_on channel=3 note=67 velocity=60 time=2
note_on channel=3 note=60 velocity=64 time=0
note_off channel=3 note=72 velocity=64 time=44
note_off channel=3 note=60 velocity=64 time=20
note_on channel=3 note=64 velocity=60 time=2
note_off channel=3 note=67 velocity=64 time=2
note_off channel=3 note=64 velocity=64 time=26
note_on channel=3 note=64 velocity=56 time=38
note_on channel=3 note=79 velocity=64 time=0
note_on channel=3 note=72 velocity=52 time=64
note_on channel=3 note=76 velocity=64 time=66
note_off channel=3 note=64 velocity=64 time=2
note_off channel=3 note=72 velocity=64 time=14
note_off channel=3 note=79 velocity=64 time=2
note_off channel=3 note=76 velocity=64 time=42
note_on channel=3 note=72 velocity=52 time=6
note_off channel=3 note=72 velocity=64 time=56
note_on channel=3 note=67 velocity=73 time=12
note_on channel=3 note=79 velocity=64 time=0
note_on channel=3 note=72 velocity=52 time=66
note_off channel=3 note=79 velocity=64 time=38
note_on channel=3 note=76 velocity=64 time=28
note_off channel=3 note=72 velocity=64 time=14
note_off channel=3 note=67 velocity=64 time=28
note_on channel=3 note=72 velocity=64 time=24
note_off channel=3 note=76 velocity=64 time=2
note_off channel=3 note=72 velocity=64 time=26
note_on channel=3 note=55 velocity=60 time=40
note_on channel=3 note=83 velocity=56 time=0
note_on channel=3 note=71 velocity=44 time=64
note_off channel=3 note=55 velocity=64 time=62
note_on channel=3 note=74 velocity=56 time=4
note_on channel=3 note=67 velocity=48 time=2
note_off channel=3 note=71 velocity=64 time=2
note_off channel=3 note=83 velocity=64 time=16
note_on channel=3 note=71 velocity=30 time=46
note_off channel=3 note=74 velocity=64 time=8
note_off channel=3 note=67 velocity=64 time=0
note_off channel=3 note=71 velocity=64 time=54
note_on channel=3 note=59 velocity=48 time=4
note_on channel=3 note=79 velocity=52 time=0
note_on channel=3 note=71 velocity=32 time=66
note_off channel=3 note=79 velocity=64 time=62
note_on channel=3 note=74 velocity=44 time=4
note_off channel=3 note=71 velocity=64 time=2
note_on channel=3 note=71 velocity=40 time=64
note_off channel=3 note=74 velocity=64 time=20
note_off channel=3 note=59 velocity=64 time=14
note_on channel=3 note=79 velocity=52 time=30
note_on channel=3 note=62 velocity=40 time=2
note_off channel=3 note=71 velocity=64 time=12
note_on channel=3 note=71 velocity=52 time=52
note_off channel=3 note=79 velocity=64 time=56
note_on channel=3 note=74 velocity=64 time=10
note_off channel=3 note=71 velocity=64 time=24
note_on channel=3 note=71 velocity=44 time=36
note_off channel=3 note=62 velocity=64 time=10
note_off channel=3 note=74 velocity=64 time=4
note_off channel=3 note=71 velocity=64 time=34
note_on channel=3 note=62 velocity=56 time=22
note_on channel=3 note=81 velocity=56 time=0
note_on channel=3 note=74 velocity=31 time=64
note_off channel=3 note=74 velocity=64 time=66
note_on channel=3 note=78 velocity=36 time=0
note_on channel=3 note=72 velocity=48 time=0
note_off channel=3 note=62 velocity=64 time=30
note_off channel=3 note=81 velocity=64 time=16
note_off channel=3 note=72 velocity=64 time=16
note_on channel=3 note=74 velocity=32 time=4
note_off channel=3 note=78 velocity=64 time=4
note_off channel=3 note=74 velocity=64 time=18
note_on channel=3 note=78 velocity=60 time=46
note_on channel=3 note=66 velocity=56 time=0
note_on channel=3 note=74 velocity=48 time=66
note_on channel=3 note=72 velocity=48 time=66
note_off channel=3 note=78 velocity=64 time=20
note_off channel=3 note=74 velocity=64 time=2
note_on channel=3 note=78 velocity=60 time=46
note_off channel=3 note=66 velocity=64 time=16
note_off channel=3 note=72 velocity=64 time=18
note_on channel=3 note=69 velocity=64 time=34
note_on channel=3 note=79 velocity=64 time=0
note_off channel=3 note=78 velocity=64 time=20
note_on channel=3 note=78 velocity=56 time=44
note_off channel=3 note=79 velocity=64 time=28
note_on channel=3 note=76 velocity=60 time=40
note_off channel=3 note=78 velocity=64 time=16
note_on channel=3 note=78 velocity=73 time=52
note_off channel=3 note=76 velocity=64 time=16
note_off channel=3 note=69 velocity=64 time=26
note_off channel=3 note=78 velocity=64 time=12
note_on channel=3 note=64 velocity=60 time=10
note_on channel=3 note=79 velocity=64 time=2
note_on channel=3 note=71 velocity=56 time=64
note_off channel=3 note=79 velocity=64 time=38
note_on channel=3 note=76 velocity=60 time=28
note_on channel=3 note=67 velocity=52 time=0
note_off channel=3 note=71 velocity=64 time=10
note_off channel=3 note=64 velocity=64 time=2
note_on channel=3 note=71 velocity=44 time=56
note_off channel=3 note=76 velocity=64 time=6
note_off channel=3 note=67 velocity=64 time=20
note_on channel=3 note=76 velocity=48 time=42
note_on channel=3 note=67 velocity=52 time=0
note_off channel=3 note=71 velocity=64 time=12
note_on channel=3 note=71 velocity=44 time=54
note_off channel=3 note=76 velocity=64 time=6
note_off channel=3 note=67 velocity=64 time=2
note_on channel=3 note=76 velocity=56 time=62
note_on channel=3 note=67 velocity=52 time=0
note_off channel=3 note=71 velocity=64 time=6
note_off channel=3 note=76 velocity=64 time=60
note_on channel=3 note=71 velocity=44 time=0
note_off channel=3 note=67 velocity=64 time=28
note_on channel=3 note=76 velocity=56 time=38
note_on channel=3 note=66 velocity=48 time=0
note_off channel=3 note=71 velocity=64 time=2
note_on channel=3 note=71 velocity=48 time=60
note_off channel=3 note=76 velocity=64 time=4
note_off channel=3 note=66 velocity=64 time=32
note_on channel=3 note=64 velocity=48 time=30
note_on channel=3 note=76 velocity=56 time=0
note_off channel=3 note=71 velocity=64 time=12
note_on channel=3 note=71 velocity=48 time=52
note_off channel=3 note=76 velocity=64 time=2
note_off channel=3 note=64 velocity=64 time=62
note_on channel=3 note=76 velocity=60 time=4
note_on channel=3 note=66 velocity=60 time=0
note_off channel=3 note=71 velocity=64 time=4
note_on channel=3 note=71 velocity=48 time=62
note_off channel=3 note=76 velocity=64 time=4
note_off channel=3 note=66 velocity=64 time=16
note_on channel=3 note=76 velocity=60 time=48
note_on channel=3 note=67 velocity=52 time=0
note_off channel=3 note=71 velocity=64 time=14
note_on channel=3 note=71 velocity=48 time=50
note_off channel=3 note=76 velocity=64 time=32
note_off channel=3 note=71 velocity=64 time=10
note_off channel=3 note=67 velocity=64 time=24
note_on channel=3 note=69 velocity=73 time=0
note_on channel=3 note=77 velocity=82 time=0
note_on channel=3 note=72 velocity=73 time=0
note_off channel=3 note=77 velocity=64 time=76
note_off channel=3 note=72 velocity=64 time=4
note_off channel=3 note=69 velocity=64 time=2
note_on channel=3 note=77 velocity=73 time=48
note_on channel=3 note=72 velocity=64 time=0
note_on channel=3 note=81 velocity=64 time=0
note_off channel=3 note=77 velocity=64 time=34
note_off channel=3 note=72 velocity=64 time=0
note_off channel=3 note=81 velocity=64 time=4
note_on channel=3 note=72 velocity=64 time=30
note_on channel=3 note=81 velocity=73 time=0
note_on channel=3 note=77 velocity=82 time=0
note_off channel=3 note=81 velocity=64 time=136
note_off channel=3 note=77 velocity=64 time=14
note_off channel=3 note=72 velocity=64 time=6
note_on channel=3 note=77 velocity=82 time=42
note_on channel=3 note=72 velocity=64 time=2
note_on channel=3 note=69 velocity=73 time=0
note_off channel=3 note=77 velocity=64 time=34
note_off channel=3 note=72 velocity=64 time=0
note_off channel=3 note=69 velocity=64 time=0
note_on channel=3 note=69 velocity=64 time=30
note_on channel=3 note=72 velocity=64 time=0
note_on channel=3 note=77 velocity=82 time=0
note_off channel=3 note=69 velocity=64 time=140
note_off channel=3 note=72 velocity=64 time=0
note_off channel=3 note=77 velocity=64 time=2
note_on channel=3 note=72 velocity=64 time=52
note_on channel=3 note=81 velocity=82 time=0
note_on channel=3 note=77 velocity=82 time=2
note_off channel=3 note=77 velocity=64 time=32
note_off channel=3 note=72 velocity=64 time=6
note_off channel=3 note=81 velocity=64 time=4
note_on channel=3 note=72 velocity=64 time=24
note_on channel=3 note=77 velocity=82 time=0
note_on channel=3 note=81 velocity=64 time=0
note_off channel=3 note=81 velocity=64 time=128
note_off channel=3 note=72 velocity=64 time=16
note_off channel=3 note=77 velocity=64 time=2
note_on channel=3 note=77 velocity=91 time=54
note_on channel=3 note=69 velocity=82 time=0
note_on channel=3 note=72 velocity=82 time=2
note_off channel=3 note=69 velocity=64 time=28
note_off channel=3 note=77 velocity=64 time=10
note_off channel=3 note=72 velocity=64 time=0
note_on channel=3 note=69 velocity=91 time=26
note_on channel=3 note=72 velocity=73 time=2
note_on channel=3 note=77 velocity=91 time=0
note_off channel=3 note=77 velocity=64 time=46
note_off channel=3 note=72 velocity=64 time=2
note_off channel=3 note=69 velocity=64 time=4
note_on channel=3 note=79 velocity=64 time=14
note_on channel=3 note=95 velocity=64 time=0
note_off channel=3 note=79 velocity=64 time=78
note_off channel=3 note=95 velocity=64 time=0
note_on channel=3 note=83 velocity=82 time=56
note_on channel=3 note=91 velocity=64 time=0
note_off channel=3 note=83 velocity=64 time=66
note_off channel=3 note=91 velocity=64 time=4
note_on channel=3 note=91 velocity=73 time=60
note_on channel=3 note=83 velocity=82 time=0
note_off channel=3 note=83 velocity=64 time=104
note_off channel=3 note=91 velocity=64 time=4
note_on channel=3 note=83 velocity=73 time=86
note_on channel=3 note=91 velocity=73 time=0
note_on channel=3 note=81 velocity=56 time=64
note_on channel=3 note=90 velocity=73 time=2
note_off channel=3 note=91 velocity=64 time=6
note_off channel=3 note=83 velocity=64 time=6
note_off channel=3 note=90 velocity=64 time=60
note_off channel=3 note=81 velocity=64 time=8
note_on channel=3 note=91 velocity=73 time=52
note_on channel=3 note=83 velocity=64 time=0
note_off channel=3 note=91 velocity=64 time=76
note_off channel=3 note=83 velocity=64 time=6
note_on channel=3 note=81 velocity=64 time=48
note_on channel=3 note=90 velocity=82 time=0
note_on channel=3 note=83 velocity=64 time=66
note_on channel=3 note=91 velocity=60 time=0
note_off channel=3 note=81 velocity=64 time=10
note_off channel=3 note=90 velocity=64 time=2
note_off channel=3 note=91 velocity=64 time=42
note_on channel=3 note=79 velocity=60 time=12
note_on channel=3 note=88 velocity=64 time=0
note_off channel=3 note=83 velocity=64 time=18
note_off channel=3 note=79 velocity=64 time=46
note_on channel=3 note=91 velocity=64 time=2
note_on channel=3 note=83 velocity=60 time=0
note_off channel=3 note=88 velocity=64 time=2
note_off channel=3 note=91 velocity=64 time=44
note_off channel=3 note=83 velocity=64 time=18
note_on channel=3 note=87 velocity=64 time=2
note_on channel=3 note=79 velocity=60 time=0
note_off channel=3 note=79 velocity=64 time=84
note_off channel=3 note=87 velocity=64 time=2
note_on channel=3 note=75 velocity=73 time=46
note_on channel=3 note=79 velocity=73 time=0
note_on channel=3 note=84 velocity=64 time=0
note_off channel=3 note=79 velocity=64 time=30
note_off channel=3 note=84 velocity=64 time=2
note_off channel=3 note=75 velocity=64 time=6
note_on channel=3 note=79 velocity=56 time=30
note_on channel=3 note=84 velocity=73 time=0
note_on channel=3 note=75 velocity=73 time=0
note_off channel=3 note=84 velocity=64 time=70
note_off channel=3 note=79 velocity=64 time=8
note_off channel=3 note=75 velocity=64 time=0
note_on channel=3 note=75 velocity=64 time=120
note_on channel=3 note=72 velocity=64 time=0
note_on channel=3 note=79 velocity=73 time=0
note_off channel=3 note=75 velocity=64 time=32
note_off channel=3 note=79 velocity=64 time=2
note_off channel=3 note=72 velocity=64 time=6
note_on channel=3 note=72 velocity=48 time=26
note_on channel=3 note=75 velocity=73 time=0
note_on channel=3 note=79 velocity=73 time=0
note_off channel=3 note=79 velocity=64 time=72
note_off channel=3 note=75 velocity=64 time=4
note_off channel=3 note=72 velocity=64 time=12
note_on channel=3 note=75 velocity=73 time=108
note_on channel=3 note=79 velocity=73 time=0
note_on channel=3 note=84 velocity=82 time=0
note_off channel=3 note=79 velocity=64 time=28
note_off channel=3 note=84 velocity=64 time=2
note_off channel=3 note=75 velocity=64 time=2
note_on channel=3 note=75 velocity=64 time=34
note_on channel=3 note=84 velocity=73 time=0
note_on channel=3 note=79 velocity=64 time=0
note_off channel=3 note=84 velocity=64 time=72
note_off channel=3 note=79 velocity=64 time=2
note_off channel=3 note=75 velocity=64 time=4
note_on channel=3 note=79 velocity=73 time=116
note_on channel=3 note=75 velocity=73 time=0
note_on channel=3 note=72 velocity=64 time=0
note_off channel=3 note=75 velocity=64 time=36
note_off channel=3 note=79 velocity=64 time=4
note_on channel=3 note=75 velocity=82 time=28
note_on channel=3 note=79 velocity=73 time=0
note_off channel=3 note=72 velocity=64 time=32
note_off channel=3 note=79 velocity=64 time=6
note_off channel=3 note=75 velocity=64 time=2
note_on channel=3 note=78 velocity=52 time=26
note_on channel=3 note=93 velocity=48 time=2
note_off channel=3 note=93 velocity=64 time=78
note_off channel=3 note=78 velocity=64 time=6
note_on channel=3 note=90 velocity=56 time=48
note_on channel=3 note=81 velocity=48 time=0
note_off channel=3 note=81 velocity=64 time=74
note_off channel=3 note=90 velocity=64 time=2
note_on channel=3 note=90 velocity=64 time=58
note_on channel=3 note=81 velocity=48 time=0
note_off channel=3 note=81 velocity=64 time=110
note_off channel=3 note=90 velocity=64 time=8
note_on channel=3 note=81 velocity=60 time=78
note_on channel=3 note=90 velocity=56 time=2
note_on channel=3 note=79 velocity=30 time=66
note_on channel=3 note=88 velocity=52 time=0
note_off channel=3 note=90 velocity=64 time=2
note_off channel=3 note=81 velocity=64 time=30
note_off channel=3 note=88 velocity=64 time=52
note_off channel=3 note=79 velocity=64 time=2
note_on channel=3 note=81 velocity=48 time=44
note_on channel=3 note=90 velocity=64 time=2
note_off channel=3 note=90 velocity=64 time=90
note_off channel=3 note=81 velocity=64 time=10
note_on channel=3 note=79 velocity=56 time=36
note_on channel=3 note=88 velocity=52 time=0
note_off channel=3 note=88 velocity=64 time=58
note_on channel=3 note=81 velocity=40 time=6
note_on channel=3 note=90 velocity=56 time=0
note_off channel=3 note=79 velocity=64 time=2
note_off channel=3 note=90 velocity=64 time=56
note_on channel=3 note=78 velocity=56 time=10
note_on channel=3 note=86 velocity=64 time=0
note_off channel=3 note=81 velocity=64 time=4
note_off channel=3 note=86 velocity=64 time=88
note_off channel=3 note=78 velocity=64 time=6
note_on channel=3 note=71 velocity=100 time=170
note_on channel=3 note=76 velocity=91 time=0
note_on channel=3 note=79 velocity=82 time=0
note_off channel=3 note=71 velocity=64 time=30
note_off channel=3 note=76 velocity=64 time=2
note_off channel=3 note=79 velocity=64 time=8
note_on channel=3 note=71 velocity=52 time=24
note_on channel=3 note=79 velocity=52 time=0
note_on channel=3 note=76 velocity=64 time=0
note_off channel=3 note=76 velocity=64 time=50
note_off channel=3 note=79 velocity=64 time=4
note_off channel=3 note=71 velocity=64 time=4
note_on channel=3 note=69 velocity=91 time=138
note_on channel=3 note=74 velocity=91 time=0
note_on channel=3 note=78 velocity=91 time=0
note_off channel=3 note=74 velocity=64 time=34
note_off channel=3 note=69 velocity=64 time=2
note_off channel=3 note=78 velocity=64 time=8
note_on channel=3 note=74 velocity=56 time=24
note_on channel=3 note=78 velocity=56 time=0
note_on channel=3 note=69 velocity=56 time=0
note_off channel=3 note=74 velocity=64 time=56
note_off channel=3 note=69 velocity=64 time=0
note_off channel=3 note=78 velocity=64 time=8
note_on channel=3 note=76 velocity=100 time=136
note_on channel=3 note=72 velocity=100 time=0
note_on channel=3 note=67 velocity=82 time=0
note_off channel=3 note=67 velocity=64 time=32
note_off channel=3 note=72 velocity=64 time=4
note_off channel=3 note=76 velocity=64 time=10
note_on channel=3 note=76 velocity=64 time=18
note_on channel=3 note=72 velocity=64 time=0
note_on channel=3 note=67 velocity=60 time=2
note_off channel=3 note=67 velocity=64 time=46
note_off channel=3 note=72 velocity=64 time=2
note_off channel=3 note=76 velocity=64 time=8
note_on channel=3 note=67 velocity=52 time=8
note_on channel=3 note=83 velocity=64 time=0
note_on channel=3 note=74 velocity=31 time=66
note_on channel=3 note=79 velocity=60 time=66
note_on channel=3 note=71 velocity=52 time=0
note_off channel=3 note=83 velocity=64 time=14
note_off channel=3 note=74 velocity=64 time=8
note_off channel=3 note=67 velocity=64 time=10
note_off channel=3 note=79 velocity=64 time=18
note_off channel=3 note=71 velocity=64 time=14
note_on channel=3 note=74 velocity=32 time=4
note_on channel=3 note=71 velocity=64 time=66
note_on channel=3 note=79 velocity=64 time=0
note_off channel=3 note=74 velocity=64 time=2
note_on channel=3 note=74 velocity=31 time=64
note_off channel=3 note=79 velocity=64 time=10
note_on channel=3 note=79 velocity=40 time=54
note_on channel=3 note=83 velocity=52 time=64
note_off channel=3 note=79 velocity=64 time=12
note_off channel=3 note=74 velocity=64 time=16
note_on channel=3 note=69 velocity=60 time=38
note_on channel=3 note=81 velocity=73 time=0
note_off channel=3 note=83 velocity=64 time=14
note_off channel=3 note=71 velocity=64 time=14
note_off channel=3 note=81 velocity=64 time=26
note_on channel=3 note=72 velocity=44 time=12
note_off channel=3 note=69 velocity=64 time=2
note_off channel=3 note=72 velocity=64 time=48
note_on channel=3 note=81 velocity=64 time=16
note_on channel=3 note=69 velocity=64 time=0
note_on channel=3 note=76 velocity=60 time=0
note_off channel=3 note=76 velocity=64 time=66
note_on channel=3 note=72 velocity=56 time=2
note_off channel=3 note=81 velocity=64 time=8
note_off channel=3 note=69 velocity=64 time=8
note_off channel=3 note=72 velocity=64 time=24
note_on channel=3 note=79 velocity=56 time=28
note_on channel=3 note=64 velocity=60 time=0
note_on channel=3 note=71 velocity=29 time=64
note_on channel=3 note=76 velocity=60 time=66
note_off channel=3 note=71 velocity=64 time=28
note_off channel=3 note=79 velocity=64 time=18
note_on channel=3 note=71 velocity=64 time=20
note_off channel=3 note=76 velocity=64 time=16
note_off channel=3 note=64 velocity=64 time=12
note_off channel=3 note=71 velocity=64 time=10
note_on channel=3 note=71 velocity=100 time=166
note_on channel=3 note=79 velocity=100 time=0
note_on channel=3 note=76 velocity=100 time=0
note_off channel=3 note=76 velocity=64 time=38
note_off channel=3 note=71 velocity=64 time=8
note_off channel=3 note=79 velocity=64 time=8
note_on channel=3 note=79 velocity=32 time=12
note_on channel=3 note=76 velocity=64 time=0
note_on channel=3 note=71 velocity=60 time=0
note_off channel=3 note=71 velocity=64 time=46
note_off channel=3 note=76 velocity=64 time=4
note_off channel=3 note=79 velocity=64 time=4
note_on channel=3 note=71 velocity=100 time=142
note_on channel=3 note=76 velocity=91 time=0
note_on channel=3 note=79 velocity=91 time=0
note_off channel=3 note=76 velocity=64 time=34
note_off channel=3 note=71 velocity=64 time=4
note_off channel=3 note=79 velocity=64 time=2
note_on channel=3 note=71 velocity=64 time=28
note_on channel=3 note=76 velocity=82 time=0
note_on channel=3 note=79 velocity=73 time=0
note_off channel=3 note=76 velocity=64 time=44
note_off channel=3 note=79 velocity=64 time=2
note_off channel=3 note=71 velocity=64 time=4
note_on channel=3 note=69 velocity=73 time=150
note_on channel=3 note=78 velocity=100 time=0
note_on channel=3 note=74 velocity=82 time=0
note_off channel=3 note=74 velocity=64 time=22
note_off channel=3 note=69 velocity=64 time=10
note_off channel=3 note=78 velocity=64 time=4
note_on channel=3 note=69 velocity=52 time=28
note_on channel=3 note=78 velocity=82 time=0
note_on channel=3 note=74 velocity=60 time=0
note_off channel=3 note=74 velocity=64 time=38
note_off channel=3 note=69 velocity=64 time=16
note_off channel=3 note=78 velocity=64 time=8
note_on channel=3 note=76 velocity=91 time=132
note_on channel=3 note=67 velocity=91 time=2
note_on channel=3 note=72 velocity=91 time=0
note_off channel=3 note=72 velocity=64 time=22
note_off channel=3 note=67 velocity=64 time=4
note_off channel=3 note=76 velocity=64 time=12
note_on channel=3 note=67 velocity=73 time=26
note_on channel=3 note=72 velocity=82 time=0
note_on channel=3 note=76 velocity=82 time=0
note_off channel=3 note=72 velocity=64 time=40
note_off channel=3 note=67 velocity=64 time=4
note_off channel=3 note=76 velocity=64 time=2
note_on channel=3 note=84 velocity=73 time=20
note_on channel=3 note=72 velocity=36 time=0
note_on channel=3 note=79 velocity=48 time=64
note_off channel=3 note=84 velocity=64 time=14
note_on channel=3 note=84 velocity=52 time=52
note_on channel=3 note=76 velocity=56 time=0
note_off channel=3 note=72 velocity=64 time=8
note_off channel=3 note=84 velocity=64 time=54
note_on channel=3 note=86 velocity=52 time=4
note_on channel=3 note=71 velocity=52 time=66
note_on channel=3 note=83 velocity=60 time=0
note_off channel=3 note=76 velocity=64 time=2
note_off channel=3 note=79 velocity=64 time=10
note_off channel=3 note=86 velocity=64 time=4
note_on channel=3 note=79 velocity=44 time=48
note_off channel=3 note=83 velocity=64 time=6
note_off channel=3 note=71 velocity=64 time=46
note_on channel=3 note=83 velocity=56 time=14
note_on channel=3 note=74 velocity=48 time=0
note_off channel=3 note=79 velocity=64 time=12
note_on channel=3 note=79 velocity=44 time=56
note_off channel=3 note=74 velocity=64 time=22
note_off channel=3 note=83 velocity=64 time=2
note_on channel=3 note=84 velocity=56 time=42
note_on channel=3 note=72 velocity=44 time=0
note_off channel=3 note=79 velocity=64 time=14
note_on channel=3 note=81 velocity=40 time=52
note_off channel=3 note=84 velocity=64 time=8
note_off channel=3 note=72 velocity=64 time=30
note_on channel=3 note=84 velocity=60 time=28
note_on channel=3 note=76 velocity=56 time=0
note_off channel=3 note=81 velocity=64 time=4
note_on channel=3 note=81 velocity=56 time=62
note_off channel=3 note=84 velocity=64 time=4
note_off channel=3 note=76 velocity=64 time=10
note_off channel=3 note=81 velocity=64 time=48
note_on channel=3 note=86 velocity=56 time=4
note_on channel=3 note=74 velocity=52 time=0
note_on channel=3 note=78 velocity=52 time=66
note_on channel=3 note=81 velocity=52 time=66
note_off channel=3 note=78 velocity=64 time=22
note_off channel=3 note=74 velocity=64 time=42
note_off channel=3 note=81 velocity=64 time=12
note_off channel=3 note=86 velocity=64 time=6
note_on channel=3 note=74 velocity=82 time=180
note_on channel=3 note=69 velocity=82 time=0
note_on channel=3 note=78 velocity=100 time=2
note_off channel=3 note=78 velocity=64 time=22
note_off channel=3 note=69 velocity=64 time=6
note_off channel=3 note=74 velocity=64 time=0
note_on channel=3 note=69 velocity=52 time=36
note_on channel=3 note=74 velocity=64 time=0
note_on channel=3 note=78 velocity=82 time=0
note_off channel=3 note=69 velocity=64 time=42
note_off channel=3 note=74 velocity=64 time=4
note_off channel=3 note=78 velocity=64 time=2
note_on channel=3 note=71 velocity=82 time=152
note_on channel=3 note=74 velocity=91 time=0
note_on channel=3 note=79 velocity=73 time=2
note_off channel=3 note=74 velocity=64 time=24
note_off channel=3 note=71 velocity=64 time=8
note_off channel=3 note=79 velocity=64 time=4
note_on channel=3 note=79 velocity=73 time=28
note_on channel=3 note=71 velocity=56 time=0
note_on channel=3 note=74 velocity=64 time=2
note_off channel=3 note=74 velocity=64 time=36
note_off channel=3 note=71 velocity=64 time=6
note_off channel=3 note=79 velocity=64 time=12
note_on channel=3 note=75 velocity=82 time=142
note_on channel=3 note=78 velocity=91 time=0
note_on channel=3 note=71 velocity=73 time=2
note_off channel=3 note=78 velocity=64 time=24
note_off channel=3 note=71 velocity=64 time=2
note_off channel=3 note=75 velocity=64 time=6
note_on channel=3 note=75 velocity=60 time=32
note_on channel=3 note=71 velocity=56 time=0
note_on channel=3 note=78 velocity=82 time=0
note_off channel=3 note=71 velocity=64 time=38
note_off channel=3 note=75 velocity=64 time=6
note_off channel=3 note=78 velocity=64 time=2
note_on channel=3 note=79 velocity=91 time=152
note_on channel=3 note=71 velocity=82 time=0
note_on channel=3 note=76 velocity=82 time=0
note_off channel=3 note=76 velocity=64 time=22
note_off channel=3 note=71 velocity=64 time=6
note_off channel=3 note=79 velocity=64 time=12
note_on channel=3 note=79 velocity=73 time=26
note_on channel=3 note=71 velocity=56 time=0
note_on channel=3 note=76 velocity=64 time=0
note_off channel=3 note=76 velocity=64 time=34
note_off channel=3 note=71 velocity=64 time=2
note_off channel=3 note=79 velocity=64 time=22
note_on channel=3 note=74 velocity=73 time=138
note_on channel=3 note=81 velocity=82 time=0
note_on channel=3 note=78 velocity=82 time=0
note_off channel=3 note=78 velocity=64 time=24
note_off channel=3 note=74 velocity=64 time=10
note_off channel=3 note=81 velocity=64 time=4
note_on channel=3 note=81 velocity=64 time=26
note_on channel=3 note=74 velocity=60 time=0
note_on channel=3 note=78 velocity=73 time=2
note_off channel=3 note=78 velocity=64 time=28
note_off channel=3 note=74 velocity=64 time=12
note_off channel=3 note=81 velocity=64 time=6
note_on channel=3 note=74 velocity=73 time=150
note_on channel=3 note=79 velocity=82 time=2
note_on channel=3 note=83 velocity=73 time=0
note_off channel=3 note=79 velocity=64 time=28
note_off channel=3 note=83 velocity=64 time=2
note_off channel=3 note=74 velocity=64 time=8
note_on channel=3 note=83 velocity=73 time=26
note_on channel=3 note=74 velocity=64 time=2
note_on channel=3 note=79 velocity=73 time=0
note_off channel=3 note=79 velocity=64 time=28
note_off channel=3 note=74 velocity=64 time=8
note_off channel=3 note=83 velocity=64 time=6
note_on channel=3 note=75 velocity=73 time=156
note_on channel=3 note=78 velocity=73 time=0
note_on channel=3 note=83 velocity=73 time=2
note_off channel=3 note=78 velocity=64 time=26
note_off channel=3 note=83 velocity=64 time=6
note_off channel=3 note=75 velocity=64 time=2
note_on channel=3 note=75 velocity=64 time=30
note_on channel=3 note=83 velocity=64 time=0
note_on channel=3 note=78 velocity=64 time=0
note_off channel=3 note=78 velocity=64 time=34
note_off channel=3 note=75 velocity=64 time=12
note_off channel=3 note=83 velocity=64 time=4
note_on channel=3 note=79 velocity=56 time=146
note_on channel=3 note=83 velocity=56 time=0
note_on channel=3 note=76 velocity=56 time=0
note_off channel=3 note=79 velocity=64 time=28
note_off channel=3 note=76 velocity=64 time=2
note_off channel=3 note=83 velocity=64 time=2
note_on channel=3 note=83 velocity=60 time=32
note_on channel=3 note=79 velocity=52 time=0
note_on channel=3 note=76 velocity=52 time=0
note_off channel=3 note=79 velocity=64 time=28
note_off channel=3 note=76 velocity=64 time=0
note_off channel=3 note=83 velocity=64 time=8
note_on channel=3 note=81 velocity=60 time=160
note_on channel=3 note=78 velocity=52 time=0
note_on channel=3 note=86 velocity=60 time=2
note_off channel=3 note=78 velocity=64 time=34
note_off channel=3 note=81 velocity=64 time=2
note_off channel=3 note=86 velocity=64 time=2
note_on channel=3 note=81 velocity=56 time=26
note_on channel=3 note=78 velocity=52 time=0
note_on channel=3 note=86 velocity=60 time=2
note_off channel=3 note=81 velocity=64 time=44
note_off channel=3 note=78 velocity=64 time=2
note_off channel=3 note=86 velocity=64 time=6
note_on channel=3 note=84 velocity=64 time=148
note_on channel=3 note=79 velocity=64 time=0
note_on channel=3 note=76 velocity=64 time=2
note_off channel=3 note=76 velocity=64 time=26
note_off channel=3 note=79 velocity=64 time=6
note_off channel=3 note=84 velocity=64 time=14
note_on channel=3 note=84 velocity=56 time=18
note_on channel=3 note=79 velocity=73 time=0
note_on channel=3 note=76 velocity=56 time=0
note_off channel=3 note=76 velocity=64 time=32
note_off channel=3 note=79 velocity=64 time=4
note_off channel=3 note=84 velocity=64 time=2
note_on channel=3 note=72 velocity=36 time=32
note_on channel=3 note=88 velocity=60 time=0
note_on channel=3 note=79 velocity=52 time=66
note_on channel=3 note=86 velocity=64 time=64
note_on channel=3 note=76 velocity=44 time=0
note_off channel=3 note=72 velocity=64 time=20
note_off channel=3 note=88 velocity=64 time=36
note_on channel=3 note=84 velocity=73 time=10
note_off channel=3 note=86 velocity=64 time=16
note_off channel=3 note=76 velocity=64 time=28
note_on channel=3 note=67 velocity=40 time=22
note_on channel=3 note=83 velocity=73 time=0
note_off channel=3 note=79 velocity=64 time=12
note_off channel=3 note=84 velocity=64 time=2
note_on channel=3 note=74 velocity=64 time=50
note_on channel=3 note=79 velocity=73 time=66
note_on channel=3 note=71 velocity=52 time=0
note_off channel=3 note=83 velocity=64 time=10
note_off channel=3 note=67 velocity=64 time=6
note_off channel=3 note=74 velocity=64 time=8
note_on channel=3 note=74 velocity=64 time=42
note_off channel=3 note=79 velocity=64 time=36
note_on channel=3 note=81 velocity=64 time=30
note_on channel=3 note=69 velocity=64 time=0
note_off channel=3 note=74 velocity=64 time=10
note_off channel=3 note=71 velocity=64 time=12
note_on channel=3 note=76 velocity=82 time=44
note_off channel=3 note=81 velocity=64 time=10
note_off channel=3 note=69 velocity=64 time=56
note_on channel=3 note=81 velocity=91 time=2
note_on channel=3 note=72 velocity=52 time=0
note_off channel=3 note=76 velocity=64 time=94
note_off channel=3 note=72 velocity=64 time=6
note_off channel=3 note=81 velocity=64 time=2
note_on channel=3 note=79 velocity=64 time=30
note_on channel=3 note=71 velocity=60 time=0
note_on channel=3 note=83 velocity=64 time=0
note_off channel=3 note=83 velocity=64 time=98
note_off channel=3 note=71 velocity=64 time=6
note_off channel=3 note=79 velocity=64 time=2
note_on channel=3 note=79 velocity=82 time=24
note_on channel=3 note=71 velocity=82 time=2
note_on channel=3 note=76 velocity=91 time=0
note_off channel=3 note=76 velocity=64 time=24
note_off channel=3 note=71 velocity=64 time=8
note_off channel=3 note=79 velocity=64 time=6
note_on channel=3 note=71 velocity=56 time=28
note_on channel=3 note=79 velocity=73 time=0
note_on channel=3 note=76 velocity=60 time=0
note_off channel=3 note=76 velocity=64 time=44
note_off channel=3 note=71 velocity=64 time=6
note_off channel=3 note=79 velocity=64 time=8
note_on channel=3 note=79 velocity=73 time=142
note_on channel=3 note=76 velocity=91 time=0
note_on channel=3 note=71 velocity=82 time=0
note_off channel=3 note=76 velocity=64 time=24
note_off channel=3 note=71 velocity=64 time=2
note_off channel=3 note=79 velocity=64 time=8
note_on channel=3 note=71 velocity=60 time=32
note_on channel=3 note=79 velocity=73 time=0
note_on channel=3 note=76 velocity=82 time=0
note_off channel=3 note=76 velocity=64 time=44
note_off channel=3 note=71 velocity=64 time=8
note_off channel=3 note=79 velocity=64 time=6
note_on channel=3 note=79 velocity=91 time=140
note_on channel=3 note=76 velocity=91 time=0
note_on channel=3 note=71 velocity=82 time=0
note_off channel=3 note=76 velocity=64 time=20
note_off channel=3 note=71 velocity=64 time=8
note_off channel=3 note=79 velocity=64 time=6
note_on channel=3 note=71 velocity=64 time=34
note_on channel=3 note=79 velocity=73 time=0
note_on channel=3 note=76 velocity=73 time=0
note_off channel=3 note=76 velocity=64 time=48
note_off channel=3 note=71 velocity=64 time=4
note_off channel=3 note=79 velocity=64 time=4
note_on channel=3 note=74 velocity=82 time=136
note_on channel=3 note=78 velocity=91 time=2
note_on channel=3 note=69 velocity=82 time=0
note_off channel=3 note=69 velocity=64 time=26
note_off channel=3 note=74 velocity=64 time=8
note_off channel=3 note=78 velocity=64 time=4
note_on channel=3 note=78 velocity=91 time=28
note_on channel=3 note=74 velocity=73 time=0
note_on channel=3 note=69 velocity=64 time=0
note_off channel=3 note=69 velocity=64 time=44
note_off channel=3 note=74 velocity=64 time=2
note_off channel=3 note=78 velocity=64 time=18
note_on channel=3 note=79 velocity=91 time=136
note_on channel=3 note=72 velocity=91 time=0
note_on channel=3 note=76 velocity=91 time=2
note_off channel=3 note=76 velocity=64 time=18
note_off channel=3 note=72 velocity=64 time=8
note_off channel=3 note=79 velocity=64 time=10
note_on channel=3 note=79 velocity=73 time=26
note_on channel=3 note=72 velocity=73 time=0
note_on channel=3 note=76 velocity=82 time=2
note_off channel=3 note=72 velocity=64 time=42
note_off channel=3 note=76 velocity=64 time=0
note_off channel=3 note=79 velocity=64 time=14
note_on channel=3 note=72 velocity=52 time=8
note_on channel=3 note=79 velocity=73 time=2
note_on channel=3 note=76 velocity=56 time=64
note_off channel=3 note=79 velocity=64 time=40
note_off channel=3 note=72 velocity=64 time=2
note_on channel=3 note=84 velocity=64 time=24
note_on channel=3 note=79 velocity=60 time=66
note_off channel=3 note=79 velocity=64 time=28
note_off channel=3 note=76 velocity=64 time=2
note_off channel=3 note=84 velocity=64 time=0
note_on channel=3 note=86 velocity=40 time=36
note_on channel=3 note=66 velocity=36 time=0
note_on channel=3 note=81 velocity=52 time=64
note_on channel=3 note=74 velocity=32 time=66
note_on channel=3 note=69 velocity=30 time=2
note_off channel=3 note=86 velocity=64 time=6
note_off channel=3 note=66 velocity=64 time=2
note_off channel=3 note=81 velocity=64 time=34
note_on channel=3 note=78 velocity=30 time=22
note_off channel=3 note=74 velocity=64 time=32
note_on channel=3 note=76 velocity=48 time=36
note_on channel=3 note=72 velocity=36 time=0
note_off channel=3 note=78 velocity=64 time=26
note_off channel=3 note=69 velocity=64 time=2
note_on channel=3 note=79 velocity=36 time=40
note_off channel=3 note=76 velocity=64 time=26
note_off channel=3 note=72 velocity=64 time=26
note_on channel=3 note=62 velocity=56 time=14
note_on channel=3 note=78 velocity=73 time=0
note_on channel=3 note=74 velocity=64 time=0
note_off channel=3 note=79 velocity=64 time=24
note_off channel=3 note=74 velocity=64 time=30
note_off channel=3 note=78 velocity=64 time=18
note_off channel=3 note=62 velocity=64 time=22
note_on channel=3 note=52 velocity=73 time=46
note_on channel=3 note=64 velocity=82 time=2
note_on channel=3 note=59 velocity=56 time=2
note_off channel=3 note=64 velocity=64 time=154
note_off channel=3 note=59 velocity=64 time=2
note_off channel=3 note=52 velocity=64 time=2
program_change channel=3 program=32 time=538
control_change channel=3 control=7 value=120 time=0
control_change channel=3 control=10 value=64 time=0
note_on channel=3 note=36 velocity=36 time=2
note_off channel=3 note=36 velocity=64 time=44
note_on channel=3 note=36 velocity=40 time=70
note_off channel=3 note=36 velocity=64 time=60
note_on channel=3 note=40 velocity=48 time=6
note_off channel=3 note=40 velocity=64 time=72
note_on channel=3 note=41 velocity=36 time=36
note_off channel=3 note=41 velocity=64 time=254
note_on channel=3 note=41 velocity=26 time=100
note_on channel=3 note=31 velocity=44 time=76
note_off channel=3 note=41 velocity=64 time=12
note_off channel=3 note=31 velocity=64 time=30
note_on channel=3 note=31 velocity=27 time=70
note_off channel=3 note=31 velocity=64 time=50
note_on channel=3 note=35 velocity=32 time=14
note_off channel=3 note=35 velocity=64 time=114
note_on channel=3 note=36 velocity=27 time=86
note_off channel=3 note=36 velocity=64 time=184
note_on channel=3 note=36 velocity=48 time=164
note_off channel=3 note=36 velocity=64 time=38
note_on channel=3 note=36 velocity=60 time=76
note_on channel=3 note=40 velocity=40 time=66
note_off channel=3 note=36 velocity=64 time=8
note_on channel=3 note=41 velocity=32 time=108
note_off channel=3 note=40 velocity=64 time=10
note_off channel=3 note=41 velocity=64 time=252
note_on channel=3 note=41 velocity=29 time=106
note_on channel=3 note=31 velocity=48 time=72
note_off channel=3 note=41 velocity=64 time=14
note_off channel=3 note=31 velocity=64 time=34
note_on channel=3 note=31 velocity=48 time=68
note_off channel=3 note=31 velocity=64 time=84
note_on channel=3 note=31 velocity=31 time=100
note_off channel=3 note=31 velocity=64 time=68
note_on channel=3 note=36 velocity=48 time=2
note_off channel=3 note=36 velocity=64 time=214
note_on channel=3 note=36 velocity=48 time=156
note_off channel=3 note=36 velocity=64 time=44
note_on channel=3 note=36 velocity=40 time=68
note_off channel=3 note=36 velocity=64 time=56
note_on channel=3 note=40 velocity=52 time=8
note_off channel=3 note=40 velocity=64 time=110
note_on channel=3 note=41 velocity=40 time=4
note_off channel=3 note=41 velocity=64 time=230
note_on channel=3 note=41 velocity=44 time=134
note_on channel=3 note=43 velocity=32 time=72
note_off channel=3 note=41 velocity=64 time=2
note_off channel=3 note=43 velocity=64 time=66
note_on channel=3 note=31 velocity=48 time=48
note_off channel=3 note=31 velocity=64 time=52
note_on channel=3 note=31 velocity=36 time=136
note_off channel=3 note=31 velocity=64 time=66
note_on channel=3 note=33 velocity=36 time=2
note_off channel=3 note=33 velocity=64 time=190
note_on channel=3 note=36 velocity=48 time=98
note_on channel=3 note=38 velocity=40 time=60
note_off channel=3 note=36 velocity=64 time=6
note_off channel=3 note=38 velocity=64 time=50
note_on channel=3 note=38 velocity=44 time=62
note_off channel=3 note=38 velocity=64 time=74
note_on channel=3 note=38 velocity=40 time=98
note_off channel=3 note=38 velocity=64 time=354
note_on channel=3 note=34 velocity=44 time=74
note_off channel=3 note=34 velocity=64 time=52
note_on channel=3 note=34 velocity=60 time=58
note_off channel=3 note=34 velocity=64 time=102
note_on channel=3 note=34 velocity=48 time=80
note_off channel=3 note=34 velocity=64 time=64
note_on channel=3 note=29 velocity=56 time=10
note_off channel=3 note=29 velocity=64 time=130
note_on channel=3 note=29 velocity=48 time=52
note_off channel=3 note=29 velocity=64 time=110
note_on channel=3 note=31 velocity=48 time=78
note_off channel=3 note=31 velocity=64 time=200
note_on channel=3 note=31 velocity=44 time=104
note_off channel=3 note=31 velocity=64 time=436
note_on channel=3 note=35 velocity=44 time=108
note_off channel=3 note=35 velocity=64 time=70
note_on channel=3 note=38 velocity=32 time=112
note_on channel=3 note=41 velocity=30 time=54
note_off channel=3 note=38 velocity=64 time=10
note_off channel=3 note=41 velocity=64 time=86
note_on channel=3 note=41 velocity=40 time=98
note_off channel=3 note=41 velocity=64 time=100
note_on channel=3 note=43 velocity=32 time=72
note_off channel=3 note=43 velocity=64 time=192
note_on channel=3 note=31 velocity=30 time=110
note_off channel=3 note=31 velocity=64 time=524
note_on channel=3 note=35 velocity=44 time=108
note_off channel=3 note=35 velocity=64 time=44
note_on channel=3 note=38 velocity=29 time=76
note_off channel=3 note=38 velocity=64 time=50
note_on channel=3 note=43 velocity=32 time=4
note_off channel=3 note=43 velocity=64 time=70
note_on channel=3 note=43 velocity=40 time=122
note_off channel=3 note=43 velocity=64 time=74
program_change channel=3 program=32 time=96
control_change channel=3 control=7 value=120 time=0
control_change channel=3 control=10 value=64 time=0
note_on channel=3 note=36 velocity=36 time=2
note_off channel=3 note=36 velocity=64 time=46
note_on channel=3 note=36 velocity=40 time=72
note_off channel=3 note=36 velocity=64 time=60
note_on channel=3 note=40 velocity=48 time=4
note_off channel=3 note=40 velocity=64 time=74
note_on channel=3 note=41 velocity=36 time=36
note_off channel=3 note=41 velocity=64 time=252
note_on channel=3 note=41 velocity=26 time=102
note_on channel=3 note=31 velocity=44 time=76
note_off channel=3 note=41 velocity=64 time=10
note_off channel=3 note=31 velocity=64 time=32
note_on channel=3 note=31 velocity=27 time=68
note_off channel=3 note=31 velocity=64 time=50
note_on channel=3 note=35 velocity=32 time=14
note_off channel=3 note=35 velocity=64 time=114
note_on channel=3 note=36 velocity=27 time=88
note_off channel=3 note=36 velocity=64 time=182
note_on channel=3 note=36 velocity=48 time=164
note_off channel=3 note=36 velocity=64 time=40
note_on channel=3 note=36 velocity=60 time=74
note_on channel=3 note=40 velocity=40 time=68
note_off channel=3 note=36 velocity=64 time=8
note_on channel=3 note=41 velocity=32 time=108
note_off channel=3 note=40 velocity=64 time=10
note_off channel=3 note=41 velocity=64 time=252
note_on channel=3 note=41 velocity=29 time=104
note_on channel=3 note=31 velocity=48 time=74
note_off channel=3 note=41 velocity=64 time=12
note_off channel=3 note=31 velocity=64 time=34
note_on channel=3 note=31 velocity=48 time=68
note_off channel=3 note=31 velocity=64 time=86
note_on channel=3 note=31 velocity=31 time=98
note_off channel=3 note=31 velocity=64 time=68
note_on channel=3 note=36 velocity=48 time=2
note_off channel=3 note=36 velocity=64 time=214
note_on channel=3 note=36 velocity=48 time=156
note_off channel=3 note=36 velocity=64 time=44
note_on channel=3 note=36 velocity=40 time=68
note_off channel=3 note=36 velocity=64 time=58
note_on channel=3 note=40 velocity=52 time=8
note_off channel=3 note=40 velocity=64 time=110
note_on channel=3 note=41 velocity=40 time=2
note_off channel=3 note=41 velocity=64 time=232
note_on channel=3 note=41 velocity=44 time=132
note_on channel=3 note=43 velocity=32 time=72
note_off channel=3 note=41 velocity=64 time=2
note_off channel=3 note=43 velocity=64 time=68
note_on channel=3 note=31 velocity=48 time=48
note_off channel=3 note=31 velocity=64 time=52
note_on channel=3 note=31 velocity=36 time=136
note_off channel=3 note=31 velocity=64 time=64
note_on channel=3 note=33 velocity=36 time=2
note_off channel=3 note=33 velocity=64 time=192
note_on channel=3 note=36 velocity=48 time=96
note_on channel=3 note=38 velocity=40 time=62
note_off channel=3 note=36 velocity=64 time=4
note_off channel=3 note=38 velocity=64 time=50
note_on channel=3 note=38 velocity=44 time=62
note_off channel=3 note=38 velocity=64 time=74
note_on channel=3 note=38 velocity=40 time=98
note_off channel=3 note=38 velocity=64 time=354
note_on channel=3 note=34 velocity=44 time=74
note_off channel=3 note=34 velocity=64 time=52
note_on channel=3 note=34 velocity=60 time=60
note_off channel=3 note=34 velocity=64 time=100
note_on channel=3 note=34 velocity=48 time=82
note_off channel=3 note=34 velocity=64 time=62
note_on channel=3 note=29 velocity=56 time=12
note_off channel=3 note=29 velocity=64 time=128
note_on channel=3 note=29 velocity=48 time=52
note_off channel=3 note=29 velocity=64 time=110
note_on channel=3 note=31 velocity=48 time=78
note_off channel=3 note=31 velocity=64 time=202
note_on channel=3 note=31 velocity=44 time=102
note_off channel=3 note=31 velocity=64 time=438
note_on channel=3 note=35 velocity=44 time=108
note_off channel=3 note=35 velocity=64 time=70
note_on channel=3 note=38 velocity=32 time=110
note_on channel=3 note=41 velocity=30 time=56
note_off channel=3 note=38 velocity=64 time=8
note_off channel=3 note=41 velocity=64 time=86
note_on channel=3 note=41 velocity=40 time=98
note_off channel=3 note=41 velocity=64 time=102
note_on channel=3 note=43 velocity=32 time=72
note_off channel=3 note=43 velocity=64 time=190
note_on channel=3 note=31 velocity=30 time=110
note_off channel=3 note=31 velocity=64 time=526
note_on channel=3 note=35 velocity=44 time=108
note_off channel=3 note=35 velocity=64 time=42
note_on channel=3 note=38 velocity=29 time=76
note_off channel=3 note=38 velocity=64 time=52
note_on channel=3 note=43 velocity=32 time=4
note_off channel=3 note=43 velocity=64 time=68
note_on channel=3 note=43 velocity=40 time=124
note_off channel=3 note=43 velocity=64 time=74
program_change channel=3 program=32 time=94
control_change channel=3 control=7 value=120 time=2
control_change channel=3 control=10 value=64 time=0
note_on channel=3 note=36 velocity=36 time=2
note_off channel=3 note=36 velocity=64 time=44
note_on channel=3 note=36 velocity=40 time=72
note_off channel=3 note=36 velocity=64 time=60
note_on channel=3 note=40 velocity=48 time=6
note_off channel=3 note=40 velocity=64 time=72
note_on channel=3 note=41 velocity=36 time=36
note_off channel=3 note=41 velocity=64 time=254
note_on channel=3 note=41 velocity=26 time=100
note_on channel=3 note=31 velocity=44 time=76
note_off channel=3 note=41 velocity=64 time=12
note_off channel=3 note=31 velocity=64 time=30
note_on channel=3 note=31 velocity=27 time=70
note_off channel=3 note=31 velocity=64 time=50
note_on channel=3 note=35 velocity=32 time=14
note_off channel=3 note=35 velocity=64 time=114
note_on channel=3 note=36 velocity=27 time=86
note_off channel=3 note=36 velocity=64 time=184
note_on channel=3 note=36 velocity=48 time=164
note_off channel=3 note=36 velocity=64 time=38
note_on channel=3 note=36 velocity=60 time=76
note_on channel=3 note=40 velocity=40 time=68
note_off channel=3 note=36 velocity=64 time=8
note_on channel=3 note=41 velocity=32 time=106
note_off channel=3 note=40 velocity=64 time=10
note_off channel=3 note=41 velocity=64 time=252
note_on channel=3 note=41 velocity=29 time=106
note_on channel=3 note=31 velocity=48 time=72
note_off channel=3 note=41 velocity=64 time=14
note_off channel=3 note=31 velocity=64 time=34
note_on channel=3 note=31 velocity=48 time=68
note_off channel=3 note=31 velocity=64 time=84
note_on channel=3 note=31 velocity=31 time=100
note_off channel=3 note=31 velocity=64 time=68
note_on channel=3 note=36 velocity=48 time=2
note_off channel=3 note=36 velocity=64 time=214
note_on channel=3 note=36 velocity=48 time=156
note_off channel=3 note=36 velocity=64 time=44
note_on channel=3 note=36 velocity=40 time=68
note_off channel=3 note=36 velocity=64 time=56
note_on channel=3 note=40 velocity=52 time=8
note_off channel=3 note=40 velocity=64 time=110
note_on channel=3 note=41 velocity=40 time=4
note_off channel=3 note=41 velocity=64 time=230
note_on channel=3 note=41 velocity=44 time=134
note_off channel=3 note=41 velocity=64 time=72
note_on channel=3 note=43 velocity=32 time=0
note_off channel=3 note=43 velocity=64 time=68
note_on channel=3 note=31 velocity=48 time=48
note_off channel=3 note=31 velocity=64 time=52
note_on channel=3 note=31 velocity=36 time=136
note_off channel=3 note=31 velocity=64 time=66
note_on channel=3 note=33 velocity=36 time=0
note_off channel=3 note=33 velocity=64 time=192
note_on channel=3 note=36 velocity=48 time=98
note_on channel=3 note=38 velocity=40 time=60
note_off channel=3 note=36 velocity=64 time=4
note_off channel=3 note=38 velocity=64 time=52
note_on channel=3 note=38 velocity=44 time=62
note_off channel=3 note=38 velocity=64 time=74
note_on channel=3 note=38 velocity=40 time=98
note_off channel=3 note=38 velocity=64 time=354
note_on channel=3 note=34 velocity=44 time=74
note_off channel=3 note=34 velocity=64 time=52
note_on channel=3 note=34 velocity=60 time=58
note_off channel=3 note=34 velocity=64 time=100
note_on channel=3 note=34 velocity=48 time=82
note_off channel=3 note=34 velocity=64 time=64
note_on channel=3 note=29 velocity=56 time=10
note_off channel=3 note=29 velocity=64 time=130
note_on channel=3 note=29 velocity=48 time=50
note_off channel=3 note=29 velocity=64 time=112
note_on channel=3 note=31 velocity=48 time=78
note_off channel=3 note=31 velocity=64 time=200
note_on channel=3 note=31 velocity=44 time=104
note_off channel=3 note=31 velocity=64 time=436
program_change channel=3 program=16 time=96
control_change channel=3 control=7 value=77 time=0
control_change channel=3 control=10 value=80 time=0
note_on channel=3 note=62 velocity=23 time=72
note_on channel=3 note=54 velocity=29 time=6
note_on channel=3 note=57 velocity=26 time=2
note_off channel=3 note=62 velocity=64 time=8
note_off channel=3 note=54 velocity=64 time=8
note_off channel=3 note=57 velocity=64 time=2
note_on channel=3 note=69 velocity=60 time=54
note_on channel=3 note=66 velocity=52 time=4
note_on channel=3 note=74 velocity=73 time=2
note_off channel=3 note=66 velocity=64 time=70
note_on channel=3 note=57 velocity=52 time=14
note_on channel=3 note=62 velocity=40 time=2
note_on channel=3 note=54 velocity=48 time=0
note_off channel=3 note=74 velocity=64 time=2
note_off channel=3 note=69 velocity=64 time=6
note_off channel=3 note=62 velocity=64 time=14
note_off channel=3 note=54 velocity=64 time=4
note_off channel=3 note=57 velocity=64 time=4
note_on channel=3 note=54 velocity=16 time=146
note_off channel=3 note=54 velocity=64 time=4
note_on channel=3 note=69 velocity=60 time=68
note_on channel=3 note=66 velocity=60 time=2
note_on channel=3 note=74 velocity=64 time=0
note_on channel=3 note=62 velocity=32 time=90
note_on channel=3 note=57 velocity=48 time=2
note_on channel=3 note=54 velocity=44 time=4
note_off channel=3 note=74 velocity=64 time=2
note_off channel=3 note=66 velocity=64 time=6
note_off channel=3 note=69 velocity=64 time=6
note_off channel=3 note=57 velocity=64 time=14
note_off channel=3 note=62 velocity=64 time=2
note_off channel=3 note=54 velocity=64 time=2
note_on channel=3 note=54 velocity=44 time=132
note_off channel=3 note=54 velocity=64 time=10
note_on channel=3 note=69 velocity=60 time=74
note_on channel=3 note=66 velocity=73 time=2
note_on channel=3 note=74 velocity=73 time=2
note_on channel=3 note=62 velocity=27 time=80
note_on channel=3 note=54 velocity=36 time=4
note_off channel=3 note=74 velocity=64 time=4
note_off channel=3 note=69 velocity=64 time=4
note_off channel=3 note=66 velocity=64 time=0
note_on channel=3 note=57 velocity=20 time=2
note_off channel=3 note=54 velocity=64 time=6
note_off channel=3 note=57 velocity=64 time=8
note_off channel=3 note=62 velocity=64 time=6
note_on channel=3 note=54 velocity=32 time=134
note_off channel=3 note=54 velocity=64 time=18
note_on channel=3 note=69 velocity=64 time=66
note_on channel=3 note=66 velocity=73 time=2
note_on channel=3 note=74 velocity=73 time=2
note_on channel=3 note=54 velocity=52 time=76
note_on channel=3 note=57 velocity=32 time=10
note_off channel=3 note=69 velocity=64 time=2
note_on channel=3 note=62 velocity=16 time=6
note_off channel=3 note=74 velocity=64 time=2
note_off channel=3 note=66 velocity=64 time=2
note_off channel=3 note=62 velocity=64 time=2
note_off channel=3 note=57 velocity=64 time=2
note_off channel=3 note=54 velocity=64 time=2
note_on channel=3 note=54 velocity=36 time=132
note_off channel=3 note=54 velocity=64 time=8
note_on channel=3 note=69 velocity=64 time=86
note_on channel=3 note=74 velocity=64 time=2
note_on channel=3 note=66 velocity=16 time=12
note_off channel=3 note=66 velocity=64 time=4
note_on channel=3 note=62 velocity=52 time=60
note_off channel=3 note=74 velocity=64 time=62
note_off channel=3 note=69 velocity=64 time=30
note_off channel=3 note=62 velocity=64 time=0
note_on channel=3 note=55 velocity=16 time=82
note_off channel=3 note=55 velocity=64 time=22
note_on channel=3 note=67 velocity=64 time=60
note_on channel=3 note=72 velocity=64 time=4
note_on channel=3 note=64 velocity=73 time=4
note_off channel=3 note=64 velocity=64 time=66
note_on channel=3 note=60 velocity=60 time=4
note_off channel=3 note=60 velocity=64 time=74
note_off channel=3 note=67 velocity=64 time=28
note_off channel=3 note=72 velocity=64 time=4
note_on channel=3 note=64 velocity=16 time=0
note_off channel=3 note=64 velocity=64 time=2
note_on channel=3 note=58 velocity=40 time=64
note_off channel=3 note=58 velocity=64 time=10
note_on channel=3 note=62 velocity=60 time=76
note_on channel=3 note=65 velocity=64 time=0
note_on channel=3 note=70 velocity=56 time=4
note_on channel=3 note=58 velocity=40 time=72
note_off channel=3 note=58 velocity=64 time=92
note_off channel=3 note=62 velocity=64 time=4
note_off channel=3 note=65 velocity=64 time=2
note_off channel=3 note=70 velocity=64 time=0
note_on channel=3 note=53 velocity=52 time=76
note_off channel=3 note=53 velocity=64 time=22
note_on channel=3 note=69 velocity=60 time=66
note_on channel=3 note=60 velocity=73 time=2
note_on channel=3 note=65 velocity=73 time=2
note_on channel=3 note=57 velocity=52 time=80
note_off channel=3 note=60 velocity=64 time=24
note_on channel=3 note=60 velocity=44 time=54
note_off channel=3 note=69 velocity=64 time=4
note_off channel=3 note=65 velocity=64 time=4
note_off channel=3 note=60 velocity=64 time=4
note_off channel=3 note=57 velocity=64 time=2
note_on channel=3 note=59 velocity=60 time=160
note_on channel=3 note=62 velocity=64 time=0
note_on channel=3 note=67 velocity=64 time=4
note_on channel=3 note=46 velocity=16 time=48
note_off channel=3 note=46 velocity=64 time=14
note_on channel=3 note=55 velocity=52 time=20
note_on channel=3 note=47 velocity=31 time=0
note_on channel=3 note=50 velocity=52 time=2
note_off channel=3 note=59 velocity=64 time=8
note_off channel=3 note=62 velocity=64 time=12
note_off channel=3 note=67 velocity=64 time=8
note_off channel=3 note=55 velocity=64 time=12
note_off channel=3 note=50 velocity=64 time=28
note_off channel=3 note=47 velocity=64 time=8
note_on channel=3 note=59 velocity=64 time=174
note_on channel=3 note=67 velocity=64 time=2
note_on channel=3 note=62 velocity=73 time=2
note_on channel=3 note=50 velocity=44 time=82
note_on channel=3 note=55 velocity=52 time=0
note_on channel=3 note=47 velocity=32 time=2
note_off channel=3 note=59 velocity=64 time=14
note_off channel=3 note=62 velocity=64 time=72
note_off channel=3 note=55 velocity=64 time=2
note_off channel=3 note=50 velocity=64 time=2
note_off channel=3 note=67 velocity=64 time=2
note_off channel=3 note=47 velocity=64 time=0
MetaMessage('end_of_track', time=0)
MetaMessage('midi_port', port=1, time=0)
MetaMessage('track_name', name='                    ', time=0)
program_change channel=4 program=12 time=1332
control_change channel=4 control=7 value=99 time=0
control_change channel=4 control=10 value=55 time=0
note_on channel=4 note=88 velocity=52 time=1652
note_on channel=4 note=83 velocity=40 time=46
note_on channel=4 note=79 velocity=48 time=50
note_on channel=4 note=78 velocity=48 time=52
note_on channel=4 note=74 velocity=18 time=418
note_on channel=4 note=76 velocity=36 time=166
note_off channel=4 note=78 velocity=64 time=48
note_off channel=4 note=74 velocity=64 time=6
note_on channel=4 note=78 velocity=29 time=134
note_off channel=4 note=76 velocity=64 time=36
note_on channel=4 note=74 velocity=25 time=130
note_on channel=4 note=76 velocity=40 time=168
note_off channel=4 note=74 velocity=64 time=18
note_off channel=4 note=78 velocity=64 time=26
note_on channel=4 note=71 velocity=16 time=160
note_off channel=4 note=76 velocity=64 time=58
note_off channel=4 note=88 velocity=64 time=320
note_off channel=4 note=79 velocity=64 time=12
note_off channel=4 note=83 velocity=64 time=2
note_off channel=4 note=71 velocity=64 time=4
note_on channel=4 note=55 velocity=40 time=254
note_on channel=4 note=57 velocity=40 time=156
note_off channel=4 note=55 velocity=64 time=14
note_on channel=4 note=59 velocity=36 time=158
note_off channel=4 note=57 velocity=64 time=12
note_on channel=4 note=62 velocity=25 time=830
note_off channel=4 note=59 velocity=64 time=2
note_on channel=4 note=61 velocity=52 time=378
note_off channel=4 note=62 velocity=64 time=20
note_off channel=4 note=61 velocity=64 time=770
note_on channel=4 note=62 velocity=48 time=8
note_on channel=4 note=64 velocity=48 time=512
note_off channel=4 note=62 velocity=64 time=2
note_on channel=4 note=66 velocity=44 time=418
note_off channel=4 note=64 velocity=64 time=28
note_on channel=4 note=67 velocity=48 time=142
note_off channel=4 note=66 velocity=64 time=16
note_on channel=4 note=69 velocity=56 time=202
note_off channel=4 note=67 velocity=64 time=8
note_on channel=4 note=71 velocity=16 time=256
note_off channel=4 note=71 velocity=64 time=88
note_off channel=4 note=69 velocity=64 time=66
note_on channel=4 note=74 velocity=36 time=108
note_off channel=4 note=74 velocity=64 time=50
note_on channel=4 note=76 velocity=73 time=68
note_off channel=4 note=76 velocity=64 time=22
note_on channel=4 note=64 velocity=52 time=46
note_on channel=4 note=67 velocity=60 time=68
note_off channel=4 note=64 velocity=64 time=12
note_off channel=4 note=67 velocity=64 time=48
note_on channel=4 note=59 velocity=64 time=6
note_on channel=4 note=64 velocity=56 time=0
note_on channel=4 note=71 velocity=56 time=62
note_off channel=4 note=64 velocity=64 time=26
note_on channel=4 note=67 velocity=64 time=40
note_off channel=4 note=71 velocity=64 time=6
note_off channel=4 note=59 velocity=64 time=50
note_off channel=4 note=67 velocity=64 time=10
note_on channel=4 note=64 velocity=73 time=4
note_on channel=4 note=55 velocity=64 time=64
note_off channel=4 note=64 velocity=64 time=20
note_off channel=4 note=55 velocity=64 time=26
note_on channel=4 note=50 velocity=73 time=20
note_on channel=4 note=62 velocity=60 time=64
note_off channel=4 note=50 velocity=64 time=68
note_on channel=4 note=66 velocity=73 time=0
note_off channel=4 note=62 velocity=64 time=4
note_off channel=4 note=66 velocity=64 time=52
note_on channel=4 note=62 velocity=64 time=12
note_on channel=4 note=57 velocity=64 time=2
note_off channel=4 note=62 velocity=64 time=60
note_on channel=4 note=52 velocity=73 time=4
note_off channel=4 note=57 velocity=64 time=14
note_on channel=4 note=64 velocity=60 time=52
note_on channel=4 note=67 velocity=56 time=66
note_off channel=4 note=52 velocity=64 time=6
note_off channel=4 note=64 velocity=64 time=4
note_off channel=4 note=67 velocity=64 time=50
note_on channel=4 note=64 velocity=56 time=8
note_on channel=4 note=59 velocity=82 time=0
note_on channel=4 note=71 velocity=60 time=64
note_off channel=4 note=64 velocity=64 time=28
note_on channel=4 note=67 velocity=60 time=38
note_off channel=4 note=71 velocity=64 time=12
note_off channel=4 note=67 velocity=64 time=50
note_on channel=4 note=64 velocity=64 time=8
note_off channel=4 note=59 velocity=64 time=38
note_on channel=4 note=55 velocity=64 time=24
note_off channel=4 note=64 velocity=64 time=16
note_off channel=4 note=55 velocity=64 time=48
note_on channel=4 note=50 velocity=73 time=2
note_on channel=4 note=62 velocity=56 time=66
note_on channel=4 note=66 velocity=73 time=66
note_off channel=4 note=62 velocity=64 time=14
note_off channel=4 note=50 velocity=64 time=18
note_off channel=4 note=66 velocity=64 time=26
note_on channel=4 note=57 velocity=91 time=10
note_on channel=4 note=62 velocity=73 time=0
note_off channel=4 note=62 velocity=64 time=54
note_on channel=4 note=52 velocity=100 time=12
note_off channel=4 note=57 velocity=64 time=4
note_on channel=4 note=64 velocity=60 time=60
note_off channel=4 note=64 velocity=64 time=66
note_on channel=4 note=67 velocity=64 time=0
note_off channel=4 note=52 velocity=64 time=48
note_off channel=4 note=67 velocity=64 time=14
note_on channel=4 note=59 velocity=91 time=4
note_on channel=4 note=64 velocity=82 time=0
note_on channel=4 note=71 velocity=73 time=68
note_off channel=4 note=64 velocity=64 time=30
note_on channel=4 note=67 velocity=56 time=36
note_off channel=4 note=67 velocity=64 time=60
note_on channel=4 note=64 velocity=64 time=6
note_off channel=4 note=71 velocity=64 time=16
note_on channel=4 note=55 velocity=91 time=50
note_off channel=4 note=59 velocity=64 time=16
note_off channel=4 note=64 velocity=64 time=8
note_on channel=4 note=50 velocity=82 time=42
note_off channel=4 note=55 velocity=64 time=12
note_on channel=4 note=62 velocity=60 time=54
note_on channel=4 note=66 velocity=82 time=66
note_off channel=4 note=62 velocity=64 time=18
note_off channel=4 note=50 velocity=64 time=26
note_on channel=4 note=57 velocity=91 time=24
note_off channel=4 note=66 velocity=64 time=54
note_on channel=4 note=48 velocity=82 time=12
note_off channel=4 note=57 velocity=64 time=16
note_on channel=4 note=64 velocity=64 time=48
note_on channel=4 note=67 velocity=60 time=66
note_off channel=4 note=48 velocity=64 time=18
note_on channel=4 note=72 velocity=64 time=46
note_off channel=4 note=67 velocity=64 time=14
note_off channel=4 note=64 velocity=64 time=2
note_off channel=4 note=72 velocity=64 time=62
note_on channel=4 note=62 velocity=100 time=122
note_on channel=4 note=59 velocity=100 time=0
note_on channel=4 note=55 velocity=91 time=0
note_off channel=4 note=59 velocity=64 time=30
note_off channel=4 note=55 velocity=64 time=2
note_off channel=4 note=62 velocity=64 time=6
note_on channel=4 note=62 velocity=64 time=24
note_on channel=4 note=55 velocity=56 time=2
note_on channel=4 note=59 velocity=64 time=0
note_off channel=4 note=59 velocity=64 time=54
note_off channel=4 note=62 velocity=64 time=4
note_off channel=4 note=55 velocity=64 time=2
note_on channel=4 note=59 velocity=91 time=138
note_on channel=4 note=55 velocity=91 time=0
note_on channel=4 note=62 velocity=109 time=2
note_off channel=4 note=59 velocity=64 time=30
note_off channel=4 note=55 velocity=64 time=0
note_off channel=4 note=62 velocity=64 time=2
note_on channel=4 note=59 velocity=64 time=32
note_on channel=4 note=55 velocity=56 time=0
note_on channel=4 note=62 velocity=60 time=2
note_off channel=4 note=55 velocity=64 time=48
note_off channel=4 note=59 velocity=64 time=2
note_off channel=4 note=62 velocity=64 time=0
note_on channel=4 note=57 velocity=100 time=146
note_on channel=4 note=64 velocity=100 time=0
note_on channel=4 note=60 velocity=100 time=0
note_off channel=4 note=60 velocity=64 time=24
note_off channel=4 note=57 velocity=64 time=8
note_off channel=4 note=64 velocity=64 time=2
note_on channel=4 note=57 velocity=52 time=30
note_on channel=4 note=60 velocity=64 time=2
note_on channel=4 note=64 velocity=60 time=0
note_off channel=4 note=60 velocity=64 time=56
note_off channel=4 note=64 velocity=64 time=0
note_off channel=4 note=57 velocity=64 time=8
note_on channel=4 note=55 velocity=100 time=132
note_on channel=4 note=59 velocity=100 time=0
note_on channel=4 note=64 velocity=91 time=0
note_off channel=4 note=59 velocity=64 time=24
note_off channel=4 note=55 velocity=64 time=10
note_off channel=4 note=64 velocity=64 time=6
note_on channel=4 note=64 velocity=64 time=24
note_on channel=4 note=55 velocity=64 time=0
note_on channel=4 note=59 velocity=82 time=0
note_off channel=4 note=59 velocity=64 time=42
note_off channel=4 note=55 velocity=64 time=8
note_off channel=4 note=64 velocity=64 time=10
note_on channel=4 note=52 velocity=73 time=10
note_on channel=4 note=64 velocity=48 time=64
note_on channel=4 note=67 velocity=64 time=68
note_off channel=4 note=64 velocity=64 time=6
note_off channel=4 note=52 velocity=64 time=48
note_on channel=4 note=64 velocity=60 time=12
note_on channel=4 note=59 velocity=82 time=0
note_off channel=4 note=67 velocity=64 time=6
note_on channel=4 note=71 velocity=64 time=60
note_off channel=4 note=64 velocity=64 time=28
note_on channel=4 note=67 velocity=60 time=36
note_off channel=4 note=71 velocity=64 time=24
note_on channel=4 note=64 velocity=73 time=42
note_off channel=4 note=59 velocity=64 time=16
note_off channel=4 note=67 velocity=64 time=0
note_on channel=4 note=55 velocity=82 time=50
note_off channel=4 note=64 velocity=64 time=26
note_on channel=4 note=50 velocity=73 time=38
note_off channel=4 note=55 velocity=64 time=2
note_on channel=4 note=62 velocity=56 time=64
note_on channel=4 note=66 velocity=64 time=66
note_off channel=4 note=62 velocity=64 time=16
note_off channel=4 note=50 velocity=64 time=12
note_on channel=4 note=57 velocity=91 time=38
note_off channel=4 note=66 velocity=64 time=24
note_off channel=4 note=57 velocity=64 time=40
note_on channel=4 note=48 velocity=73 time=2
note_on channel=4 note=64 velocity=31 time=64
note_off channel=4 note=48 velocity=64 time=44
note_on channel=4 note=67 velocity=60 time=24
note_off channel=4 note=64 velocity=64 time=48
note_on channel=4 note=72 velocity=82 time=18
note_off channel=4 note=67 velocity=64 time=16
note_off channel=4 note=72 velocity=64 time=66
note_on channel=4 note=64 velocity=100 time=114
note_on channel=4 note=55 velocity=100 time=0
note_on channel=4 note=60 velocity=82 time=2
note_off channel=4 note=60 velocity=64 time=24
note_off channel=4 note=55 velocity=64 time=2
note_off channel=4 note=64 velocity=64 time=8
note_on channel=4 note=64 velocity=60 time=32
note_on channel=4 note=60 velocity=60 time=0
note_on channel=4 note=55 velocity=52 time=0
note_off channel=4 note=55 velocity=64 time=36
note_off channel=4 note=60 velocity=64 time=2
note_off channel=4 note=64 velocity=64 time=4
note_on channel=4 note=55 velocity=100 time=156
note_on channel=4 note=62 velocity=109 time=2
note_on channel=4 note=59 velocity=91 time=0
note_off channel=4 note=59 velocity=64 time=22
note_off channel=4 note=55 velocity=64 time=8
note_off channel=4 note=62 velocity=64 time=2
note_on channel=4 note=62 velocity=56 time=34
note_on channel=4 note=55 velocity=60 time=0
note_on channel=4 note=59 velocity=64 time=0
note_off channel=4 note=59 velocity=64 time=34
note_off channel=4 note=55 velocity=64 time=4
note_off channel=4 note=62 velocity=64 time=2
note_on channel=4 note=57 velocity=82 time=154
note_on channel=4 note=60 velocity=91 time=0
note_off channel=4 note=60 velocity=64 time=26
note_off channel=4 note=57 velocity=64 time=2
note_on channel=4 note=60 velocity=82 time=38
note_on channel=4 note=57 velocity=64 time=0
note_off channel=4 note=57 velocity=64 time=38
note_off channel=4 note=60 velocity=64 time=4
note_on channel=4 note=74 velocity=48 time=32
note_on channel=4 note=66 velocity=82 time=28
note_off channel=4 note=74 velocity=64 time=2
note_on channel=4 note=74 velocity=40 time=36
note_off channel=4 note=66 velocity=64 time=4
note_off channel=4 note=74 velocity=64 time=26
note_on channel=4 note=66 velocity=56 time=0
note_on channel=4 note=74 velocity=44 time=30
note_off channel=4 note=66 velocity=64 time=4
note_on channel=4 note=66 velocity=44 time=22
note_off channel=4 note=74 velocity=64 time=4
note_on channel=4 note=74 velocity=48 time=30
note_off channel=4 note=66 velocity=64 time=6
note_off channel=4 note=74 velocity=64 time=22
note_on channel=4 note=66 velocity=73 time=2
note_on channel=4 note=74 velocity=56 time=30
note_off channel=4 note=74 velocity=64 time=44
note_off channel=4 note=66 velocity=64 time=30
note_on channel=4 note=74 velocity=91 time=82
note_off channel=4 note=74 velocity=64 time=42
note_on channel=4 note=71 velocity=56 time=78
note_on channel=4 note=67 velocity=73 time=18
note_off channel=4 note=71 velocity=64 time=8
note_on channel=4 note=71 velocity=56 time=24
note_off channel=4 note=71 velocity=64 time=54
note_off channel=4 note=67 velocity=64 time=16
note_on channel=4 note=71 velocity=64 time=20
note_on channel=4 note=67 velocity=64 time=2
note_off channel=4 note=71 velocity=64 time=60
note_off channel=4 note=67 velocity=64 time=4
note_on channel=4 note=71 velocity=64 time=60
note_on channel=4 note=63 velocity=73 time=18
note_off channel=4 note=71 velocity=64 time=12
note_on channel=4 note=71 velocity=56 time=26
note_off channel=4 note=63 velocity=64 time=2
note_on channel=4 note=63 velocity=73 time=14
note_off channel=4 note=71 velocity=64 time=26
note_on channel=4 note=73 velocity=82 time=22
note_off channel=4 note=73 velocity=64 time=34
note_off channel=4 note=63 velocity=64 time=30
note_on channel=4 note=75 velocity=82 time=8
note_off channel=4 note=75 velocity=64 time=28
note_on channel=4 note=76 velocity=82 time=54
note_on channel=4 note=64 velocity=48 time=26
note_off channel=4 note=76 velocity=64 time=2
note_on channel=4 note=76 velocity=48 time=32
note_off channel=4 note=64 velocity=64 time=14
note_off channel=4 note=76 velocity=64 time=16
note_on channel=4 note=64 velocity=56 time=8
note_on channel=4 note=76 velocity=56 time=20
note_off channel=4 note=64 velocity=64 time=12
note_off channel=4 note=76 velocity=64 time=16
note_on channel=4 note=64 velocity=56 time=0
note_on channel=4 note=76 velocity=60 time=18
note_off channel=4 note=64 velocity=64 time=28
note_off channel=4 note=76 velocity=64 time=2
note_on channel=4 note=74 velocity=56 time=68
note_on channel=4 note=66 velocity=73 time=18
note_off channel=4 note=74 velocity=64 time=6
note_on channel=4 note=74 velocity=56 time=28
note_off channel=4 note=66 velocity=64 time=6
note_on channel=4 note=66 velocity=64 time=18
note_off channel=4 note=74 velocity=64 time=4
note_on channel=4 note=74 velocity=44 time=30
note_off channel=4 note=66 velocity=64 time=4
note_off channel=4 note=74 velocity=64 time=18
note_on channel=4 note=66 velocity=52 time=4
note_on channel=4 note=74 velocity=60 time=24
note_off channel=4 note=74 velocity=64 time=50
note_off channel=4 note=66 velocity=64 time=16
note_on channel=4 note=71 velocity=16 time=166
note_off channel=4 note=71 velocity=64 time=8
note_on channel=4 note=67 velocity=64 time=2
note_on channel=4 note=71 velocity=56 time=26
note_off channel=4 note=67 velocity=64 time=30
note_off channel=4 note=71 velocity=64 time=14
note_on channel=4 note=71 velocity=73 time=52
note_on channel=4 note=63 velocity=73 time=28
note_off channel=4 note=71 velocity=64 time=2
note_on channel=4 note=71 velocity=60 time=22
note_off channel=4 note=71 velocity=64 time=44
note_off channel=4 note=63 velocity=64 time=10
note_on channel=4 note=73 velocity=91 time=20
note_off channel=4 note=73 velocity=64 time=26
note_on channel=4 note=75 velocity=91 time=38
note_off channel=4 note=75 velocity=64 time=24
note_on channel=4 note=76 velocity=82 time=46
note_off channel=4 note=76 velocity=64 time=24
note_on channel=4 note=64 velocity=60 time=2
note_on channel=4 note=76 velocity=64 time=26
note_off channel=4 note=64 velocity=64 time=14
note_off channel=4 note=76 velocity=64 time=12
note_on channel=4 note=64 velocity=64 time=14
note_on channel=4 note=76 velocity=56 time=22
note_off channel=4 note=64 velocity=64 time=14
note_off channel=4 note=76 velocity=64 time=14
note_on channel=4 note=64 velocity=44 time=2
note_on channel=4 note=76 velocity=60 time=20
note_off channel=4 note=76 velocity=64 time=32
note_off channel=4 note=64 velocity=64 time=2
note_on channel=4 note=74 velocity=64 time=72
note_on channel=4 note=66 velocity=64 time=18
note_off channel=4 note=74 velocity=64 time=8
note_off channel=4 note=66 velocity=64 time=30
note_on channel=4 note=74 velocity=60 time=0
note_on channel=4 note=66 velocity=73 time=24
note_off channel=4 note=74 velocity=64 time=4
note_off channel=4 note=66 velocity=64 time=24
note_on channel=4 note=74 velocity=60 time=8
note_on channel=4 note=66 velocity=48 time=18
note_off channel=4 note=74 velocity=64 time=18
note_on channel=4 note=74 velocity=56 time=16
note_off channel=4 note=66 velocity=64 time=6
note_off channel=4 note=74 velocity=64 time=16
note_on channel=4 note=72 velocity=64 time=70
note_on channel=4 note=64 velocity=60 time=18
note_off channel=4 note=72 velocity=64 time=8
note_on channel=4 note=72 velocity=56 time=26
note_off channel=4 note=64 velocity=64 time=6
note_on channel=4 note=64 velocity=73 time=14
note_off channel=4 note=72 velocity=64 time=20
note_off channel=4 note=64 velocity=64 time=12
note_on channel=4 note=72 velocity=82 time=34
note_on channel=4 note=64 velocity=82 time=2
note_off channel=4 note=72 velocity=64 time=50
note_off channel=4 note=64 velocity=64 time=16
note_on channel=4 note=72 velocity=82 time=60
note_on channel=4 note=64 velocity=91 time=20
note_off channel=4 note=72 velocity=64 time=6
note_on channel=4 note=72 velocity=64 time=30
note_off channel=4 note=64 velocity=64 time=2
note_on channel=4 note=64 velocity=60 time=10
note_off channel=4 note=72 velocity=64 time=12
note_on channel=4 note=72 velocity=56 time=28
note_off channel=4 note=72 velocity=64 time=28
note_on channel=4 note=72 velocity=56 time=26
note_off channel=4 note=72 velocity=64 time=28
note_off channel=4 note=64 velocity=64 time=40
note_on channel=4 note=55 velocity=100 time=156
note_on channel=4 note=60 velocity=91 time=0
note_on channel=4 note=64 velocity=91 time=2
note_off channel=4 note=60 velocity=64 time=34
note_off channel=4 note=55 velocity=64 time=2
note_off channel=4 note=64 velocity=64 time=4
note_on channel=4 note=55 velocity=56 time=24
note_on channel=4 note=60 velocity=64 time=0
note_on channel=4 note=64 velocity=60 time=0
note_off channel=4 note=60 velocity=64 time=50
note_off channel=4 note=64 velocity=64 time=4
note_off channel=4 note=55 velocity=64 time=2
note_on channel=4 note=62 velocity=109 time=142
note_on channel=4 note=55 velocity=91 time=0
note_on channel=4 note=59 velocity=82 time=0
note_off channel=4 note=59 velocity=64 time=12
note_off channel=4 note=55 velocity=64 time=2
note_off channel=4 note=62 velocity=64 time=2
note_on channel=4 note=55 velocity=52 time=48
note_on channel=4 note=59 velocity=64 time=0
note_on channel=4 note=62 velocity=64 time=2
note_off channel=4 note=59 velocity=64 time=22
note_off channel=4 note=55 velocity=64 time=2
note_off channel=4 note=62 velocity=64 time=0
note_on channel=4 note=57 velocity=91 time=174
note_on channel=4 note=60 velocity=82 time=0
note_off channel=4 note=60 velocity=64 time=10
note_off channel=4 note=57 velocity=64 time=4
note_on channel=4 note=57 velocity=52 time=50
note_on channel=4 note=60 velocity=64 time=0
note_off channel=4 note=60 velocity=64 time=26
note_off channel=4 note=57 velocity=64 time=4
note_on channel=4 note=52 velocity=82 time=42
note_off channel=4 note=52 velocity=64 time=2
note_on channel=4 note=64 velocity=52 time=58
note_off channel=4 note=64 velocity=64 time=48
note_on channel=4 note=67 velocity=60 time=20
note_off channel=4 note=67 velocity=64 time=36
note_on channel=4 note=59 velocity=64 time=28
note_on channel=4 note=64 velocity=56 time=0
note_off channel=4 note=64 velocity=64 time=54
note_on channel=4 note=71 velocity=56 time=10
note_off channel=4 note=71 velocity=64 time=42
note_off channel=4 note=59 velocity=64 time=4
note_on channel=4 note=67 velocity=64 time=18
note_off channel=4 note=67 velocity=64 time=38
note_on channel=4 note=64 velocity=73 time=28
note_off channel=4 note=64 velocity=64 time=52
note_on channel=4 note=55 velocity=64 time=16
note_off channel=4 note=55 velocity=64 time=26
note_on channel=4 note=50 velocity=73 time=38
note_on channel=4 note=62 velocity=60 time=64
note_off channel=4 note=50 velocity=64 time=68
note_on channel=4 note=66 velocity=73 time=0
note_off channel=4 note=62 velocity=64 time=4
note_off channel=4 note=66 velocity=64 time=50
note_on channel=4 note=62 velocity=64 time=10
note_on channel=4 note=57 velocity=64 time=2
note_off channel=4 note=62 velocity=64 time=62
note_on channel=4 note=52 velocity=73 time=2
note_off channel=4 note=57 velocity=64 time=14
note_on channel=4 note=64 velocity=60 time=52
note_on channel=4 note=67 velocity=56 time=68
note_off channel=4 note=52 velocity=64 time=8
note_off channel=4 note=64 velocity=64 time=2
note_off channel=4 note=67 velocity=64 time=50
note_on channel=4 note=64 velocity=56 time=6
note_on channel=4 note=59 velocity=82 time=0
note_on channel=4 note=71 velocity=60 time=66
note_off channel=4 note=64 velocity=64 time=26
note_on channel=4 note=67 velocity=60 time=38
note_off channel=4 note=71 velocity=64 time=14
note_off channel=4 note=67 velocity=64 time=50
note_on channel=4 note=64 velocity=64 time=6
note_off channel=4 note=59 velocity=64 time=38
note_on channel=4 note=55 velocity=64 time=24
note_off channel=4 note=64 velocity=64 time=18
note_off channel=4 note=55 velocity=64 time=46
note_on channel=4 note=50 velocity=82 time=2
note_off channel=4 note=50 velocity=64 time=64
note_on channel=4 note=62 velocity=60 time=2
note_on channel=4 note=57 velocity=91 time=66
note_on channel=4 note=66 velocity=82 time=0
note_off channel=4 note=62 velocity=64 time=46
note_on channel=4 note=69 velocity=60 time=18
note_off channel=4 note=66 velocity=64 time=2
note_off channel=4 note=57 velocity=64 time=20
note_off channel=4 note=69 velocity=64 time=40
note_on channel=4 note=67 velocity=64 time=136
note_on channel=4 note=64 velocity=56 time=0
note_on channel=4 note=72 velocity=56 time=0
note_off channel=4 note=67 velocity=64 time=28
note_off channel=4 note=64 velocity=64 time=2
note_off channel=4 note=72 velocity=64 time=2
note_on channel=4 note=64 velocity=44 time=32
note_on channel=4 note=72 velocity=52 time=0
note_on channel=4 note=67 velocity=60 time=2
note_off channel=4 note=67 velocity=64 time=44
note_off channel=4 note=72 velocity=64 time=2
note_off channel=4 note=64 velocity=64 time=4
note_on channel=4 note=67 velocity=73 time=144
note_on channel=4 note=64 velocity=64 time=2
note_on channel=4 note=72 velocity=56 time=0
note_off channel=4 note=72 velocity=64 time=26
note_off channel=4 note=67 velocity=64 time=2
note_off channel=4 note=64 velocity=64 time=2
note_on channel=4 note=64 velocity=48 time=34
note_on channel=4 note=72 velocity=48 time=0
note_on channel=4 note=67 velocity=56 time=0
note_off channel=4 note=67 velocity=64 time=40
note_off channel=4 note=72 velocity=64 time=6
note_off channel=4 note=64 velocity=64 time=4
note_on channel=4 note=67 velocity=73 time=150
note_on channel=4 note=64 velocity=73 time=0
note_on channel=4 note=72 velocity=64 time=2
note_off channel=4 note=67 velocity=64 time=26
note_off channel=4 note=64 velocity=64 time=4
note_off channel=4 note=72 velocity=64 time=2
note_on channel=4 note=64 velocity=48 time=32
note_on channel=4 note=72 velocity=56 time=2
note_on channel=4 note=67 velocity=60 time=0
note_off channel=4 note=67 velocity=64 time=34
note_off channel=4 note=64 velocity=64 time=2
note_off channel=4 note=72 velocity=64 time=8
note_on channel=4 note=71 velocity=52 time=154
note_on channel=4 note=67 velocity=48 time=0
note_on channel=4 note=62 velocity=40 time=0
note_off channel=4 note=67 velocity=64 time=28
note_off channel=4 note=62 velocity=64 time=2
note_off channel=4 note=71 velocity=64 time=6
note_on channel=4 note=67 velocity=48 time=28
note_on channel=4 note=71 velocity=40 time=0
note_on channel=4 note=62 velocity=24 time=0
note_off channel=4 note=67 velocity=64 time=42
note_off channel=4 note=62 velocity=64 time=2
note_off channel=4 note=71 velocity=64 time=2
note_on channel=4 note=71 velocity=60 time=154
note_on channel=4 note=62 velocity=56 time=0
note_on channel=4 note=67 velocity=52 time=0
note_off channel=4 note=67 velocity=64 time=24
note_off channel=4 note=62 velocity=64 time=8
note_off channel=4 note=71 velocity=64 time=4
note_on channel=4 note=71 velocity=44 time=28
note_on channel=4 note=67 velocity=52 time=0
note_on channel=4 note=62 velocity=36 time=0
note_off channel=4 note=67 velocity=64 time=44
note_off channel=4 note=62 velocity=64 time=0
note_off channel=4 note=71 velocity=64 time=6
note_on channel=4 note=71 velocity=56 time=146
note_on channel=4 note=62 velocity=60 time=0
note_on channel=4 note=67 velocity=56 time=0
note_off channel=4 note=67 velocity=64 time=22
note_off channel=4 note=62 velocity=64 time=6
note_off channel=4 note=71 velocity=64 time=2
note_on channel=4 note=71 velocity=48 time=30
note_on channel=4 note=62 velocity=44 time=0
note_on channel=4 note=67 velocity=56 time=2
note_off channel=4 note=62 velocity=64 time=46
note_off channel=4 note=67 velocity=64 time=0
note_off channel=4 note=71 velocity=64 time=12
note_on channel=4 note=69 velocity=60 time=140
note_on channel=4 note=72 velocity=56 time=0
note_on channel=4 note=62 velocity=60 time=0
note_off channel=4 note=62 velocity=64 time=34
note_off channel=4 note=69 velocity=64 time=4
note_off channel=4 note=72 velocity=64 time=8
note_on channel=4 note=62 velocity=36 time=20
note_on channel=4 note=69 velocity=56 time=2
note_on channel=4 note=72 velocity=52 time=0
note_off channel=4 note=69 velocity=64 time=58
note_off channel=4 note=62 velocity=64 time=0
note_off channel=4 note=72 velocity=64 time=6
note_on channel=4 note=72 velocity=64 time=134
note_on channel=4 note=62 velocity=64 time=0
note_on channel=4 note=69 velocity=60 time=2
note_off channel=4 note=69 velocity=64 time=30
note_off channel=4 note=62 velocity=64 time=6
note_off channel=4 note=72 velocity=64 time=4
note_on channel=4 note=72 velocity=52 time=26
note_on channel=4 note=62 velocity=31 time=0
note_on channel=4 note=69 velocity=56 time=0
note_off channel=4 note=69 velocity=64 time=50
note_off channel=4 note=62 velocity=64 time=2
note_off channel=4 note=72 velocity=64 time=14
note_on channel=4 note=72 velocity=64 time=134
note_on channel=4 note=69 velocity=73 time=0
note_on channel=4 note=62 velocity=64 time=0
note_off channel=4 note=62 velocity=64 time=36
note_off channel=4 note=69 velocity=64 time=4
note_off channel=4 note=72 velocity=64 time=10
note_on channel=4 note=72 velocity=36 time=18
note_on channel=4 note=69 velocity=40 time=0
note_on channel=4 note=62 velocity=25 time=0
note_off channel=4 note=62 velocity=64 time=56
note_off channel=4 note=69 velocity=64 time=2
note_off channel=4 note=72 velocity=64 time=4
note_on channel=4 note=71 velocity=64 time=134
note_on channel=4 note=67 velocity=64 time=2
note_on channel=4 note=64 velocity=73 time=0
note_off channel=4 note=67 velocity=64 time=24
note_off channel=4 note=64 velocity=64 time=4
note_off channel=4 note=71 velocity=64 time=4
note_on channel=4 note=71 velocity=60 time=34
note_on channel=4 note=64 velocity=56 time=0
note_on channel=4 note=67 velocity=60 time=0
note_off channel=4 note=67 velocity=64 time=34
note_off channel=4 note=64 velocity=64 time=2
note_off channel=4 note=71 velocity=64 time=10
note_on channel=4 note=71 velocity=60 time=158
note_on channel=4 note=67 velocity=64 time=0
note_on channel=4 note=64 velocity=64 time=0
note_off channel=4 note=67 velocity=64 time=24
note_off channel=4 note=64 velocity=64 time=0
note_off channel=4 note=71 velocity=64 time=6
note_on channel=4 note=67 velocity=64 time=38
note_on channel=4 note=64 velocity=56 time=0
note_on channel=4 note=71 velocity=60 time=0
note_off channel=4 note=64 velocity=64 time=30
note_off channel=4 note=71 velocity=64 time=2
note_off channel=4 note=67 velocity=64 time=2
note_on channel=4 note=71 velocity=64 time=158
note_on channel=4 note=67 velocity=64 time=0
note_on channel=4 note=64 velocity=64 time=2
note_off channel=4 note=64 velocity=64 time=26
note_off channel=4 note=67 velocity=64 time=2
note_off channel=4 note=71 velocity=64 time=6
note_on channel=4 note=67 velocity=64 time=28
note_on channel=4 note=71 velocity=64 time=2
note_on channel=4 note=64 velocity=52 time=0
note_off channel=4 note=64 velocity=64 time=32
note_off channel=4 note=67 velocity=64 time=6
note_off channel=4 note=71 velocity=64 time=6
note_on channel=4 note=67 velocity=73 time=156
note_on channel=4 note=71 velocity=64 time=0
note_on channel=4 note=64 velocity=82 time=0
note_off channel=4 note=64 velocity=64 time=26
note_off channel=4 note=67 velocity=64 time=2
note_off channel=4 note=71 velocity=64 time=2
note_on channel=4 note=67 velocity=60 time=34
note_on channel=4 note=71 velocity=56 time=0
note_on channel=4 note=64 velocity=48 time=0
note_off channel=4 note=64 velocity=64 time=28
note_off channel=4 note=67 velocity=64 time=6
note_off channel=4 note=71 velocity=64 time=2
note_on channel=4 note=65 velocity=56 time=96
note_on channel=4 note=77 velocity=73 time=66
note_off channel=4 note=65 velocity=64 time=4
note_off channel=4 note=77 velocity=64 time=38
note_on channel=4 note=72 velocity=73 time=24
note_on channel=4 note=84 velocity=73 time=64
note_off channel=4 note=72 velocity=64 time=24
note_off channel=4 note=84 velocity=64 time=18
note_on channel=4 note=69 velocity=91 time=24
note_off channel=4 note=69 velocity=64 time=62
note_on channel=4 note=77 velocity=91 time=8
note_off channel=4 note=77 velocity=64 time=50
note_on channel=4 note=81 velocity=91 time=14
note_off channel=4 note=81 velocity=64 time=34
note_on channel=4 note=65 velocity=56 time=30
note_on channel=4 note=72 velocity=82 time=66
note_off channel=4 note=65 velocity=64 time=6
note_on channel=4 note=77 velocity=82 time=60
note_off channel=4 note=72 velocity=64 time=12
note_off channel=4 note=77 velocity=64 time=34
note_on channel=4 note=69 velocity=73 time=20
note_off channel=4 note=69 velocity=64 time=56
note_on channel=4 note=84 velocity=82 time=10
note_off channel=4 note=84 velocity=64 time=44
note_on channel=4 note=72 velocity=56 time=22
note_on channel=4 note=81 velocity=82 time=70
note_off channel=4 note=72 velocity=64 time=2
note_off channel=4 note=81 velocity=64 time=44
note_on channel=4 note=89 velocity=109 time=20
note_off channel=4 note=89 velocity=64 time=32
note_on channel=4 note=71 velocity=82 time=168
note_on channel=4 note=76 velocity=73 time=0
note_on channel=4 note=67 velocity=73 time=2
note_off channel=4 note=71 velocity=64 time=20
note_off channel=4 note=67 velocity=64 time=0
note_off channel=4 note=76 velocity=64 time=8
note_on channel=4 note=76 velocity=56 time=34
note_on channel=4 note=67 velocity=56 time=0
note_on channel=4 note=71 velocity=64 time=0
note_off channel=4 note=67 velocity=64 time=34
note_off channel=4 note=71 velocity=64 time=0
note_off channel=4 note=76 velocity=64 time=8
note_on channel=4 note=67 velocity=73 time=152
note_on channel=4 note=76 velocity=64 time=0
note_on channel=4 note=71 velocity=73 time=0
note_off channel=4 note=71 velocity=64 time=26
note_off channel=4 note=67 velocity=64 time=6
note_off channel=4 note=76 velocity=64 time=4
note_on channel=4 note=76 velocity=56 time=30
note_on channel=4 note=71 velocity=60 time=0
note_on channel=4 note=67 velocity=56 time=2
note_off channel=4 note=71 velocity=64 time=28
note_off channel=4 note=67 velocity=64 time=0
note_off channel=4 note=76 velocity=64 time=8
note_on channel=4 note=71 velocity=82 time=160
note_on channel=4 note=67 velocity=82 time=2
note_on channel=4 note=76 velocity=73 time=0
note_off channel=4 note=71 velocity=64 time=24
note_off channel=4 note=67 velocity=64 time=4
note_off channel=4 note=76 velocity=64 time=4
note_on channel=4 note=67 velocity=56 time=30
note_on channel=4 note=76 velocity=60 time=0
note_on channel=4 note=71 velocity=60 time=0
note_off channel=4 note=71 velocity=64 time=30
note_off channel=4 note=67 velocity=64 time=8
note_off channel=4 note=76 velocity=64 time=0
note_on channel=4 note=71 velocity=73 time=160
note_on channel=4 note=67 velocity=64 time=0
note_on channel=4 note=76 velocity=73 time=2
note_off channel=4 note=71 velocity=64 time=24
note_off channel=4 note=67 velocity=64 time=0
note_off channel=4 note=76 velocity=64 time=4
note_on channel=4 note=67 velocity=52 time=36
note_on channel=4 note=76 velocity=44 time=2
note_on channel=4 note=71 velocity=60 time=0
note_off channel=4 note=71 velocity=64 time=16
note_off channel=4 note=76 velocity=64 time=6
note_off channel=4 note=67 velocity=64 time=12
note_on channel=4 note=60 velocity=56 time=96
note_on channel=4 note=72 velocity=73 time=66
note_off channel=4 note=60 velocity=64 time=6
note_off channel=4 note=72 velocity=64 time=40
note_on channel=4 note=67 velocity=73 time=24
note_on channel=4 note=79 velocity=73 time=62
note_off channel=4 note=67 velocity=64 time=26
note_off channel=4 note=79 velocity=64 time=18
note_on channel=4 note=63 velocity=91 time=24
note_off channel=4 note=63 velocity=64 time=60
note_on channel=4 note=72 velocity=91 time=8
note_off channel=4 note=72 velocity=64 time=48
note_on channel=4 note=75 velocity=91 time=16
note_off channel=4 note=75 velocity=64 time=34
note_on channel=4 note=60 velocity=56 time=30
note_on channel=4 note=67 velocity=82 time=64
note_off channel=4 note=60 velocity=64 time=8
note_on channel=4 note=72 velocity=82 time=60
note_off channel=4 note=67 velocity=64 time=12
note_off channel=4 note=72 velocity=64 time=34
note_on channel=4 note=63 velocity=73 time=22
note_off channel=4 note=63 velocity=64 time=54
note_on channel=4 note=79 velocity=82 time=10
note_off channel=4 note=79 velocity=64 time=42
note_on channel=4 note=67 velocity=56 time=20
note_on channel=4 note=75 velocity=82 time=66
note_off channel=4 note=67 velocity=64 time=2
note_off channel=4 note=75 velocity=64 time=46
note_on channel=4 note=84 velocity=109 time=20
note_off channel=4 note=84 velocity=64 time=34
note_on channel=4 note=74 velocity=73 time=166
note_on channel=4 note=66 velocity=60 time=0
note_on channel=4 note=69 velocity=73 time=2
note_off channel=4 note=66 velocity=64 time=32
note_off channel=4 note=69 velocity=64 time=0
note_off channel=4 note=74 velocity=64 time=14
note_on channel=4 note=74 velocity=56 time=18
note_on channel=4 note=69 velocity=60 time=2
note_on channel=4 note=66 velocity=48 time=0
note_off channel=4 note=69 velocity=64 time=52
note_off channel=4 note=66 velocity=64 time=2
note_off channel=4 note=74 velocity=64 time=6
note_on channel=4 note=74 velocity=73 time=138
note_on channel=4 note=69 velocity=64 time=0
note_on channel=4 note=66 velocity=56 time=0
note_off channel=4 note=66 velocity=64 time=30
note_off channel=4 note=69 velocity=64 time=6
note_off channel=4 note=74 velocity=64 time=12
note_on channel=4 note=74 velocity=64 time=18
note_on channel=4 note=69 velocity=64 time=0
note_on channel=4 note=66 velocity=56 time=0
note_off channel=4 note=66 velocity=64 time=48
note_off channel=4 note=69 velocity=64 time=8
note_off channel=4 note=74 velocity=64 time=6
note_on channel=4 note=69 velocity=64 time=136
note_on channel=4 note=66 velocity=56 time=0
note_on channel=4 note=74 velocity=73 time=0
note_off channel=4 note=66 velocity=64 time=30
note_off channel=4 note=74 velocity=64 time=4
note_off channel=4 note=69 velocity=64 time=2
note_on channel=4 note=66 velocity=60 time=30
note_on channel=4 note=74 velocity=60 time=0
note_on channel=4 note=69 velocity=73 time=2
note_off channel=4 note=74 velocity=64 time=56
note_off channel=4 note=69 velocity=64 time=0
note_off channel=4 note=66 velocity=64 time=4
note_on channel=4 note=69 velocity=73 time=142
note_on channel=4 note=74 velocity=60 time=0
note_on channel=4 note=66 velocity=60 time=0
note_off channel=4 note=66 velocity=64 time=34
note_off channel=4 note=69 velocity=64 time=6
note_off channel=4 note=74 velocity=64 time=4
note_on channel=4 note=74 velocity=73 time=22
note_on channel=4 note=69 velocity=64 time=0
note_on channel=4 note=66 velocity=60 time=0
note_off channel=4 note=69 velocity=64 time=54
note_off channel=4 note=66 velocity=64 time=2
note_off channel=4 note=74 velocity=64 time=8
note_on channel=4 note=55 velocity=73 time=136
note_off channel=4 note=55 velocity=64 time=60
note_on channel=4 note=64 velocity=100 time=6
note_off channel=4 note=64 velocity=64 time=58
note_on channel=4 note=62 velocity=100 time=6
note_off channel=4 note=62 velocity=64 time=38
note_on channel=4 note=57 velocity=48 time=28
note_off channel=4 note=57 velocity=64 time=56
note_on channel=4 note=54 velocity=100 time=10
note_off channel=4 note=54 velocity=64 time=36
note_on channel=4 note=66 velocity=100 time=30
note_off channel=4 note=66 velocity=64 time=48
note_on channel=4 note=64 velocity=100 time=20
note_off channel=4 note=64 velocity=64 time=36
note_on channel=4 note=55 velocity=82 time=30
note_off channel=4 note=55 velocity=64 time=42
note_on channel=4 note=67 velocity=109 time=24
note_off channel=4 note=67 velocity=64 time=42
note_on channel=4 note=67 velocity=91 time=220
note_on channel=4 note=59 velocity=82 time=0
note_off channel=4 note=59 velocity=64 time=30
note_off channel=4 note=67 velocity=64 time=4
note_on channel=4 note=59 velocity=73 time=34
note_on channel=4 note=67 velocity=82 time=0
note_off channel=4 note=67 velocity=64 time=58
note_off channel=4 note=59 velocity=64 time=14
note_on channel=4 note=67 velocity=100 time=124
note_on channel=4 note=59 velocity=91 time=2
note_off channel=4 note=59 velocity=64 time=28
note_off channel=4 note=67 velocity=64 time=4
note_on channel=4 note=59 velocity=73 time=30
note_on channel=4 note=67 velocity=91 time=0
note_off channel=4 note=67 velocity=64 time=48
note_off channel=4 note=59 velocity=64 time=22
note_on channel=4 note=69 velocity=109 time=128
note_on channel=4 note=60 velocity=100 time=2
note_off channel=4 note=60 velocity=64 time=32
note_off channel=4 note=69 velocity=64 time=6
note_on channel=4 note=60 velocity=91 time=28
note_on channel=4 note=69 velocity=82 time=0
note_off channel=4 note=69 velocity=64 time=70
note_off channel=4 note=60 velocity=64 time=10
note_on channel=4 note=59 velocity=82 time=118
note_on channel=4 note=67 velocity=100 time=0
note_off channel=4 note=59 velocity=64 time=40
note_off channel=4 note=67 velocity=64 time=0
note_on channel=4 note=59 velocity=82 time=26
note_on channel=4 note=67 velocity=91 time=0
note_off channel=4 note=67 velocity=64 time=32
note_off channel=4 note=59 velocity=64 time=2
note_on channel=4 note=55 velocity=60 time=170
note_on channel=4 note=67 velocity=64 time=66
note_off channel=4 note=55 velocity=64 time=38
note_on channel=4 note=64 velocity=73 time=28
note_off channel=4 note=67 velocity=64 time=24
note_on channel=4 note=59 velocity=73 time=40
note_off channel=4 note=64 velocity=64 time=22
note_on channel=4 note=66 velocity=64 time=44
note_off channel=4 note=59 velocity=64 time=54
note_on channel=4 note=64 velocity=64 time=14
note_off channel=4 note=66 velocity=64 time=14
note_off channel=4 note=64 velocity=64 time=34
note_on channel=4 note=62 velocity=60 time=18
note_on channel=4 note=69 velocity=64 time=66
note_off channel=4 note=62 velocity=64 time=12
note_on channel=4 note=66 velocity=64 time=56
note_on channel=4 note=71 velocity=60 time=64
note_off channel=4 note=69 velocity=64 time=6
note_off channel=4 note=66 velocity=64 time=14
note_on channel=4 note=72 velocity=60 time=44
note_off channel=4 note=71 velocity=64 time=6
note_on channel=4 note=67 velocity=64 time=60
note_off channel=4 note=72 velocity=64 time=28
note_off channel=4 note=67 velocity=64 time=32
note_on channel=4 note=64 velocity=100 time=6
note_off channel=4 note=64 velocity=64 time=132
note_on channel=4 note=60 velocity=91 time=128
note_on channel=4 note=67 velocity=82 time=0
note_off channel=4 note=60 velocity=64 time=34
note_off channel=4 note=67 velocity=64 time=0
note_on channel=4 note=60 velocity=64 time=32
note_on channel=4 note=67 velocity=60 time=0
note_off channel=4 note=67 velocity=64 time=36
note_off channel=4 note=60 velocity=64 time=10
note_on channel=4 note=59 velocity=82 time=150
note_on channel=4 note=67 velocity=91 time=0
note_off channel=4 note=59 velocity=64 time=34
note_off channel=4 note=67 velocity=64 time=2
note_on channel=4 note=59 velocity=73 time=32
note_on channel=4 note=67 velocity=60 time=0
note_off channel=4 note=67 velocity=64 time=40
note_off channel=4 note=59 velocity=64 time=8
note_on channel=4 note=60 velocity=91 time=150
note_on channel=4 note=69 velocity=91 time=0
note_off channel=4 note=69 velocity=64 time=32
note_off channel=4 note=60 velocity=64 time=2
note_on channel=4 note=60 velocity=64 time=32
note_on channel=4 note=69 velocity=73 time=0
note_off channel=4 note=69 velocity=64 time=38
note_off channel=4 note=60 velocity=64 time=4
note_on channel=4 note=69 velocity=31 time=32
note_off channel=4 note=69 velocity=64 time=44
note_on channel=4 note=66 velocity=32 time=4
note_on channel=4 note=69 velocity=28 time=30
note_off channel=4 note=66 velocity=64 time=8
note_off channel=4 note=69 velocity=64 time=30
note_on channel=4 note=66 velocity=44 time=2
note_on channel=4 note=69 velocity=31 time=28
note_off channel=4 note=66 velocity=64 time=12
note_off channel=4 note=69 velocity=64 time=28
note_on channel=4 note=66 velocity=44 time=4
note_on channel=4 note=69 velocity=29 time=26
note_off channel=4 note=66 velocity=64 time=24
note_off channel=4 note=69 velocity=64 time=4
note_on channel=4 note=66 velocity=31 time=18
note_on channel=4 note=69 velocity=40 time=14
note_off channel=4 note=66 velocity=64 time=18
note_off channel=4 note=69 velocity=64 time=26
note_on channel=4 note=71 velocity=16 time=204
note_off channel=4 note=71 velocity=64 time=14
note_on channel=4 note=67 velocity=40 time=10
note_off channel=4 note=67 velocity=64 time=38
note_on channel=4 note=71 velocity=25 time=6
note_off channel=4 note=71 velocity=64 time=18
note_on channel=4 note=67 velocity=52 time=14
note_on channel=4 note=71 velocity=40 time=22
note_off channel=4 note=67 velocity=64 time=48
note_off channel=4 note=71 velocity=64 time=2
note_on channel=4 note=75 velocity=25 time=100
note_off channel=4 note=75 velocity=64 time=32
note_on channel=4 note=66 velocity=60 time=0
note_on channel=4 note=75 velocity=40 time=34
note_off channel=4 note=66 velocity=64 time=14
note_off channel=4 note=75 velocity=64 time=14
note_on channel=4 note=66 velocity=60 time=12
note_on channel=4 note=75 velocity=56 time=20
note_off channel=4 note=66 velocity=64 time=30
note_off channel=4 note=75 velocity=64 time=4
note_on channel=4 note=76 velocity=44 time=98
note_off channel=4 note=76 velocity=64 time=34
note_on channel=4 note=64 velocity=52 time=4
note_on channel=4 note=76 velocity=40 time=38
note_off channel=4 note=64 velocity=64 time=2
note_off channel=4 note=76 velocity=64 time=26
note_on channel=4 note=64 velocity=56 time=14
note_on channel=4 note=76 velocity=44 time=26
note_off channel=4 note=64 velocity=64 time=12
note_off channel=4 note=76 velocity=64 time=10
note_on channel=4 note=64 velocity=52 time=22
note_on channel=4 note=76 velocity=48 time=12
note_off channel=4 note=64 velocity=64 time=56
note_off channel=4 note=76 velocity=64 time=2
note_on channel=4 note=74 velocity=48 time=118
note_off channel=4 note=74 velocity=64 time=24
note_on channel=4 note=66 velocity=56 time=4
note_on channel=4 note=74 velocity=36 time=28
note_off channel=4 note=66 velocity=64 time=14
note_off channel=4 note=74 velocity=64 time=8
note_on channel=4 note=71 velocity=40 time=70
note_off channel=4 note=71 velocity=64 time=30
note_on channel=4 note=67 velocity=48 time=8
note_off channel=4 note=67 velocity=64 time=34
note_on channel=4 note=71 velocity=26 time=6
note_off channel=4 note=71 velocity=64 time=20
note_on channel=4 note=67 velocity=60 time=6
note_on channel=4 note=71 velocity=36 time=28
note_off channel=4 note=71 velocity=64 time=42
note_off channel=4 note=67 velocity=64 time=18
note_on channel=4 note=75 velocity=48 time=72
note_off channel=4 note=75 velocity=64 time=30
note_on channel=4 note=66 velocity=48 time=8
note_on channel=4 note=75 velocity=32 time=28
note_off channel=4 note=66 velocity=64 time=10
note_off channel=4 note=75 velocity=64 time=20
note_on channel=4 note=66 velocity=52 time=12
note_on channel=4 note=75 velocity=32 time=26
note_off channel=4 note=66 velocity=64 time=62
note_off channel=4 note=75 velocity=64 time=10
note_on channel=4 note=76 velocity=22 time=66
note_off channel=4 note=76 velocity=64 time=22
note_on channel=4 note=67 velocity=29 time=22
note_off channel=4 note=67 velocity=64 time=28
note_on channel=4 note=76 velocity=27 time=4
note_off channel=4 note=76 velocity=64 time=28
note_on channel=4 note=67 velocity=40 time=10
note_on channel=4 note=76 velocity=36 time=24
note_off channel=4 note=67 velocity=64 time=10
note_off channel=4 note=76 velocity=64 time=22
note_on channel=4 note=67 velocity=52 time=14
note_on channel=4 note=76 velocity=44 time=24
note_off channel=4 note=67 velocity=64 time=14
note_off channel=4 note=76 velocity=64 time=14
note_on channel=4 note=67 velocity=56 time=6
note_on channel=4 note=76 velocity=40 time=14
note_off channel=4 note=67 velocity=64 time=30
note_off channel=4 note=76 velocity=64 time=6
note_on channel=4 note=74 velocity=31 time=88
note_on channel=4 note=66 velocity=31 time=30
note_off channel=4 note=74 velocity=64 time=2
note_on channel=4 note=74 velocity=40 time=30
note_off channel=4 note=66 velocity=64 time=20
note_off channel=4 note=74 velocity=64 time=8
note_on channel=4 note=72 velocity=30 time=66
note_off channel=4 note=72 velocity=64 time=34
note_on channel=4 note=64 velocity=40 time=12
note_on channel=4 note=72 velocity=32 time=32
note_off channel=4 note=64 velocity=64 time=2
note_off channel=4 note=72 velocity=64 time=28
note_on channel=4 note=64 velocity=60 time=20
note_on channel=4 note=72 velocity=31 time=20
note_off channel=4 note=64 velocity=64 time=12
note_off channel=4 note=72 velocity=64 time=22
note_on channel=4 note=64 velocity=64 time=20
note_on channel=4 note=72 velocity=40 time=14
note_off channel=4 note=64 velocity=64 time=16
note_off channel=4 note=72 velocity=64 time=8
note_on channel=4 note=64 velocity=64 time=20
note_off channel=4 note=64 velocity=64 time=50
note_on channel=4 note=67 velocity=64 time=198
note_off channel=4 note=67 velocity=64 time=42
note_on channel=4 note=59 velocity=73 time=88
note_on channel=4 note=67 velocity=52 time=2
note_off channel=4 note=67 velocity=64 time=24
note_off channel=4 note=59 velocity=64 time=10
note_on channel=4 note=59 velocity=48 time=30
note_on channel=4 note=67 velocity=36 time=0
note_off channel=4 note=67 velocity=64 time=30
note_off channel=4 note=59 velocity=64 time=26
note_on channel=4 note=60 velocity=73 time=146
note_on channel=4 note=69 velocity=60 time=0
note_off channel=4 note=69 velocity=64 time=26
note_off channel=4 note=60 velocity=64 time=2
note_on channel=4 note=60 velocity=52 time=34
note_on channel=4 note=69 velocity=60 time=0
note_off channel=4 note=69 velocity=64 time=28
note_off channel=4 note=60 velocity=64 time=16
note_on channel=4 note=52 velocity=73 time=90
note_on channel=4 note=59 velocity=64 time=66
note_off channel=4 note=52 velocity=64 time=8
note_on channel=4 note=64 velocity=64 time=58
note_on channel=4 note=66 velocity=100 time=66
note_off channel=4 note=64 velocity=64 time=22
note_off channel=4 note=59 velocity=64 time=8
note_on channel=4 note=52 velocity=60 time=36
note_off channel=4 note=66 velocity=64 time=16
note_on channel=4 note=55 velocity=73 time=52
note_off channel=4 note=52 velocity=64 time=2
note_on channel=4 note=67 velocity=82 time=64
note_off channel=4 note=55 velocity=64 time=24
note_on channel=4 note=71 velocity=24 time=44
note_off channel=4 note=71 velocity=64 time=24
note_off channel=4 note=67 velocity=64 time=44
note_on channel=4 note=71 velocity=27 time=6
note_off channel=4 note=71 velocity=64 time=30
note_on channel=4 note=67 velocity=44 time=10
note_on channel=4 note=71 velocity=30 time=22
note_off channel=4 note=67 velocity=64 time=8
note_off channel=4 note=71 velocity=64 time=24
note_on channel=4 note=67 velocity=48 time=14
note_on channel=4 note=71 velocity=19 time=32
note_off channel=4 note=67 velocity=64 time=6
note_off channel=4 note=71 velocity=64 time=12
note_on channel=4 note=67 velocity=52 time=26
note_on channel=4 note=71 velocity=48 time=8
note_off channel=4 note=67 velocity=64 time=26
note_off channel=4 note=71 velocity=64 time=6
note_on channel=4 note=69 velocity=60 time=58
note_off channel=4 note=69 velocity=64 time=52
note_on channel=4 note=66 velocity=60 time=36
note_off channel=4 note=66 velocity=64 time=32
note_on channel=4 note=67 velocity=44 time=66
note_off channel=4 note=67 velocity=64 time=28
note_on channel=4 note=64 velocity=28 time=30
note_off channel=4 note=64 velocity=64 time=18
note_on channel=4 note=67 velocity=27 time=4
note_off channel=4 note=67 velocity=64 time=30
note_on channel=4 note=64 velocity=52 time=16
note_on channel=4 note=67 velocity=32 time=24
note_off channel=4 note=64 velocity=64 time=8
note_off channel=4 note=67 velocity=64 time=20
note_on channel=4 note=64 velocity=52 time=10
note_on channel=4 note=67 velocity=48 time=26
note_off channel=4 note=64 velocity=64 time=4
note_off channel=4 note=67 velocity=64 time=20
note_on channel=4 note=64 velocity=64 time=14
note_on channel=4 note=67 velocity=60 time=22
note_off channel=4 note=64 velocity=64 time=58
note_off channel=4 note=67 velocity=64 time=28
note_on channel=4 note=57 velocity=82 time=282
note_on channel=4 note=62 velocity=91 time=0
note_on channel=4 note=66 velocity=82 time=0
note_off channel=4 note=62 velocity=64 time=28
note_off channel=4 note=57 velocity=64 time=4
note_off channel=4 note=66 velocity=64 time=2
note_on channel=4 note=66 velocity=64 time=30
note_on channel=4 note=57 velocity=73 time=2
note_on channel=4 note=62 velocity=64 time=0
note_off channel=4 note=62 velocity=64 time=32
note_off channel=4 note=57 velocity=64 time=6
note_off channel=4 note=66 velocity=64 time=12
note_on channel=4 note=62 velocity=82 time=150
note_on channel=4 note=57 velocity=82 time=2
note_on channel=4 note=54 velocity=91 time=0
note_off channel=4 note=54 velocity=64 time=24
note_off channel=4 note=62 velocity=64 time=2
note_off channel=4 note=57 velocity=64 time=2
note_on channel=4 note=54 velocity=73 time=34
note_on channel=4 note=62 velocity=82 time=0
note_on channel=4 note=57 velocity=64 time=0
note_off channel=4 note=57 velocity=64 time=34
note_off channel=4 note=62 velocity=64 time=6
note_off channel=4 note=54 velocity=64 time=6
program_change channel=4 program=12 time=24872
control_change channel=4 control=7 value=82 time=0
control_change channel=4 control=10 value=55 time=0
note_on channel=4 note=50 velocity=31 time=322
note_on channel=4 note=57 velocity=24 time=88
note_off channel=4 note=50 velocity=64 time=10
note_on channel=4 note=62 velocity=44 time=88
note_off channel=4 note=57 velocity=64 time=10
note_on channel=4 note=66 velocity=44 time=72
note_off channel=4 note=62 velocity=64 time=26
note_off channel=4 note=66 velocity=64 time=70
note_on channel=4 note=50 velocity=16 time=656
note_on channel=4 note=57 velocity=25 time=86
note_off channel=4 note=50 velocity=64 time=12
note_on channel=4 note=62 velocity=44 time=74
note_off channel=4 note=57 velocity=64 time=10
note_off channel=4 note=62 velocity=64 time=64
note_on channel=4 note=66 velocity=56 time=2
note_on channel=4 note=64 velocity=52 time=94
note_off channel=4 note=66 velocity=64 time=6
note_off channel=4 note=64 velocity=64 time=46
note_on channel=4 note=60 velocity=52 time=112
note_off channel=4 note=60 velocity=64 time=64
note_on channel=4 note=62 velocity=56 time=102
note_off channel=4 note=62 velocity=64 time=58
note_on channel=4 note=58 velocity=40 time=20
note_off channel=4 note=58 velocity=64 time=74
note_on channel=4 note=60 velocity=40 time=342
note_off channel=4 note=60 velocity=64 time=74
note_on channel=4 note=53 velocity=32 time=10
note_off channel=4 note=53 velocity=64 time=68
note_on channel=4 note=59 velocity=56 time=26
note_off channel=4 note=59 velocity=64 time=36
note_on channel=4 note=55 velocity=32 time=382
note_on channel=4 note=59 velocity=44 time=88
note_off channel=4 note=55 velocity=64 time=8
note_on channel=4 note=62 velocity=48 time=72
note_off channel=4 note=59 velocity=64 time=42
note_on channel=4 note=67 velocity=52 time=52
note_off channel=4 note=62 velocity=64 time=4
note_off channel=4 note=67 velocity=64 time=62
MetaMessage('end_of_track', time=0)
MetaMessage('midi_port', port=1, time=0)
MetaMessage('track_name', name=' Main Title Theme   ', time=0)
program_change channel=5 program=32 time=1334
control_change channel=5 control=7 value=120 time=0
control_change channel=5 control=10 value=64 time=0
note_on channel=5 note=28 velocity=82 time=8076
note_off channel=5 note=28 velocity=64 time=58
note_on channel=5 note=28 velocity=73 time=74
note_off channel=5 note=28 velocity=64 time=32
note_on channel=5 note=28 velocity=60 time=34
note_off channel=5 note=28 velocity=64 time=58
note_on channel=5 note=38 velocity=73 time=408
note_off channel=5 note=38 velocity=64 time=26
note_on channel=5 note=38 velocity=64 time=36
note_off channel=5 note=38 velocity=64 time=54
note_on channel=5 note=40 velocity=73 time=12
note_off channel=5 note=40 velocity=64 time=68
note_on channel=5 note=40 velocity=73 time=64
note_off channel=5 note=40 velocity=64 time=34
note_on channel=5 note=40 velocity=73 time=34
note_off channel=5 note=40 velocity=64 time=68
note_on channel=5 note=38 velocity=91 time=258
note_off channel=5 note=38 velocity=64 time=58
note_on channel=5 note=38 velocity=73 time=82
note_off channel=5 note=38 velocity=64 time=36
note_on channel=5 note=38 velocity=73 time=26
note_off channel=5 note=38 velocity=64 time=52
note_on channel=5 note=28 velocity=73 time=10
note_off channel=5 note=28 velocity=64 time=42
note_on channel=5 note=28 velocity=82 time=22
note_off channel=5 note=28 velocity=64 time=72
note_on channel=5 note=38 velocity=91 time=522
note_off channel=5 note=38 velocity=64 time=34
note_on channel=5 note=38 velocity=73 time=38
note_off channel=5 note=38 velocity=64 time=58
note_on channel=5 note=36 velocity=73 time=8
note_off channel=5 note=36 velocity=64 time=66
note_on channel=5 note=36 velocity=82 time=70
note_off channel=5 note=36 velocity=64 time=32
note_on channel=5 note=36 velocity=73 time=28
note_off channel=5 note=36 velocity=64 time=58
note_on channel=5 note=31 velocity=73 time=6
note_off channel=5 note=31 velocity=64 time=64
note_on channel=5 note=31 velocity=91 time=68
note_off channel=5 note=31 velocity=64 time=38
note_on channel=5 note=31 velocity=82 time=28
note_off channel=5 note=31 velocity=64 time=82
note_on channel=5 note=33 velocity=91 time=382
note_off channel=5 note=33 velocity=64 time=30
note_on channel=5 note=33 velocity=73 time=34
note_off channel=5 note=33 velocity=64 time=50
note_on channel=5 note=28 velocity=82 time=12
note_off channel=5 note=28 velocity=64 time=64
note_on channel=5 note=28 velocity=73 time=74
note_off channel=5 note=28 velocity=64 time=30
note_on channel=5 note=28 velocity=82 time=38
note_off channel=5 note=28 velocity=64 time=90
note_on channel=5 note=38 velocity=91 time=500
note_off channel=5 note=38 velocity=64 time=58
note_on channel=5 note=38 velocity=91 time=72
note_off channel=5 note=38 velocity=64 time=34
note_on channel=5 note=38 velocity=64 time=28
note_off channel=5 note=38 velocity=64 time=56
note_on channel=5 note=36 velocity=91 time=8
note_off channel=5 note=36 velocity=64 time=62
note_on channel=5 note=36 velocity=91 time=76
note_off channel=5 note=36 velocity=64 time=30
note_on channel=5 note=36 velocity=73 time=32
note_off channel=5 note=36 velocity=64 time=98
note_on channel=5 note=31 velocity=100 time=246
note_off channel=5 note=31 velocity=64 time=40
note_on channel=5 note=31 velocity=73 time=22
note_off channel=5 note=31 velocity=64 time=60
note_on channel=5 note=31 velocity=100 time=72
note_off channel=5 note=31 velocity=64 time=52
note_on channel=5 note=33 velocity=73 time=12
note_off channel=5 note=33 velocity=64 time=56
note_on channel=5 note=33 velocity=91 time=66
note_off channel=5 note=33 velocity=64 time=34
note_on channel=5 note=33 velocity=73 time=30
note_off channel=5 note=33 velocity=64 time=48
note_on channel=5 note=26 velocity=91 time=14
note_off channel=5 note=26 velocity=64 time=46
note_on channel=5 note=26 velocity=73 time=26
note_off channel=5 note=26 velocity=64 time=64
note_on channel=5 note=43 velocity=91 time=400
note_off channel=5 note=43 velocity=64 time=40
note_on channel=5 note=43 velocity=82 time=28
note_off channel=5 note=43 velocity=64 time=58
note_on channel=5 note=43 velocity=82 time=78
note_off channel=5 note=43 velocity=64 time=62
note_on channel=5 note=39 velocity=91 time=8
note_off channel=5 note=39 velocity=64 time=66
note_on channel=5 note=39 velocity=91 time=64
note_off channel=5 note=39 velocity=64 time=32
note_on channel=5 note=39 velocity=82 time=32
note_off channel=5 note=39 velocity=64 time=56
note_on channel=5 note=40 velocity=91 time=12
note_off channel=5 note=40 velocity=64 time=38
note_on channel=5 note=40 velocity=73 time=22
note_off channel=5 note=40 velocity=64 time=62
note_on channel=5 note=31 velocity=100 time=414
note_off channel=5 note=31 velocity=64 time=36
note_on channel=5 note=31 velocity=64 time=22
note_off channel=5 note=31 velocity=64 time=64
note_on channel=5 note=31 velocity=82 time=64
note_off channel=5 note=31 velocity=64 time=66
note_on channel=5 note=35 velocity=91 time=2
note_off channel=5 note=35 velocity=64 time=56
note_on channel=5 note=35 velocity=100 time=68
note_off channel=5 note=35 velocity=64 time=34
note_on channel=5 note=35 velocity=91 time=34
note_off channel=5 note=35 velocity=64 time=46
note_on channel=5 note=40 velocity=100 time=22
note_off channel=5 note=40 velocity=64 time=36
note_on channel=5 note=40 velocity=73 time=24
note_off channel=5 note=40 velocity=64 time=62
note_on channel=5 note=36 velocity=91 time=404
note_off channel=5 note=36 velocity=64 time=44
note_on channel=5 note=36 velocity=73 time=26
note_off channel=5 note=36 velocity=64 time=60
note_on channel=5 note=36 velocity=82 time=74
note_off channel=5 note=36 velocity=64 time=32
note_on channel=5 note=36 velocity=73 time=34
note_off channel=5 note=36 velocity=64 time=194
note_on channel=5 note=31 velocity=100 time=330
note_off channel=5 note=31 velocity=64 time=38
note_on channel=5 note=31 velocity=64 time=26
note_off channel=5 note=31 velocity=64 time=60
note_on channel=5 note=31 velocity=91 time=74
note_off channel=5 note=31 velocity=64 time=60
note_on channel=5 note=33 velocity=91 time=12
note_off channel=5 note=33 velocity=64 time=64
note_on channel=5 note=33 velocity=91 time=60
note_off channel=5 note=33 velocity=64 time=36
note_on channel=5 note=33 velocity=64 time=30
note_off channel=5 note=33 velocity=64 time=50
note_on channel=5 note=28 velocity=82 time=18
note_off channel=5 note=28 velocity=64 time=64
note_on channel=5 note=28 velocity=91 time=66
note_off channel=5 note=28 velocity=64 time=32
note_on channel=5 note=28 velocity=91 time=32
note_off channel=5 note=28 velocity=64 time=102
note_on channel=5 note=38 velocity=100 time=350
note_off channel=5 note=38 velocity=64 time=36
note_on channel=5 note=38 velocity=82 time=30
note_off channel=5 note=38 velocity=64 time=62
note_on channel=5 note=40 velocity=91 time=8
note_off channel=5 note=40 velocity=64 time=58
note_on channel=5 note=40 velocity=82 time=68
note_off channel=5 note=40 velocity=64 time=34
note_on channel=5 note=40 velocity=91 time=34
note_off channel=5 note=40 velocity=64 time=74
note_on channel=5 note=38 velocity=100 time=262
note_off channel=5 note=38 velocity=64 time=62
note_on channel=5 note=38 velocity=100 time=68
note_off channel=5 note=38 velocity=64 time=36
note_on channel=5 note=38 velocity=73 time=22
note_off channel=5 note=38 velocity=64 time=44
note_on channel=5 note=36 velocity=91 time=24
note_off channel=5 note=36 velocity=64 time=66
note_on channel=5 note=36 velocity=91 time=70
note_off channel=5 note=36 velocity=64 time=32
note_on channel=5 note=36 velocity=82 time=36
note_off channel=5 note=36 velocity=64 time=68
note_on channel=5 note=31 velocity=91 time=656
note_off channel=5 note=31 velocity=64 time=32
note_on channel=5 note=31 velocity=82 time=24
note_on channel=5 note=35 velocity=73 time=64
note_off channel=5 note=31 velocity=64 time=6
note_off channel=5 note=35 velocity=64 time=132
note_on channel=5 note=38 velocity=91 time=2
note_off channel=5 note=38 velocity=64 time=106
note_on channel=5 note=26 velocity=100 time=418
note_off channel=5 note=26 velocity=64 time=26
note_on channel=5 note=26 velocity=91 time=40
note_off channel=5 note=26 velocity=64 time=62
note_on channel=5 note=30 velocity=91 time=6
note_off channel=5 note=30 velocity=64 time=126
note_on channel=5 note=33 velocity=91 time=0
note_off channel=5 note=33 velocity=64 time=66
note_on channel=5 note=38 velocity=100 time=66
note_off channel=5 note=38 velocity=64 time=130
note_on channel=5 note=40 velocity=91 time=146
note_off channel=5 note=40 velocity=64 time=32
note_on channel=5 note=40 velocity=82 time=34
note_off channel=5 note=40 velocity=64 time=32
note_on channel=5 note=40 velocity=82 time=28
note_off channel=5 note=40 velocity=64 time=80
note_on channel=5 note=35 velocity=73 time=60
note_off channel=5 note=35 velocity=64 time=86
note_on channel=5 note=31 velocity=91 time=44
note_off channel=5 note=31 velocity=64 time=86
note_on channel=5 note=28 velocity=91 time=52
note_off channel=5 note=28 velocity=64 time=134
note_on channel=5 note=28 velocity=100 time=258
note_off channel=5 note=28 velocity=64 time=32
note_on channel=5 note=28 velocity=91 time=34
note_off channel=5 note=28 velocity=64 time=36
note_on channel=5 note=29 velocity=100 time=34
note_off channel=5 note=29 velocity=64 time=60
note_on channel=5 note=33 velocity=91 time=72
note_off channel=5 note=33 velocity=64 time=60
note_on channel=5 note=36 velocity=100 time=66
note_off channel=5 note=36 velocity=64 time=78
note_on channel=5 note=41 velocity=100 time=590
note_off channel=5 note=41 velocity=64 time=34
note_on channel=5 note=41 velocity=82 time=30
note_off channel=5 note=41 velocity=64 time=42
note_on channel=5 note=40 velocity=100 time=24
note_off channel=5 note=40 velocity=64 time=72
note_on channel=5 note=35 velocity=100 time=56
note_off channel=5 note=35 velocity=64 time=54
note_on channel=5 note=31 velocity=100 time=82
note_off channel=5 note=31 velocity=64 time=112
note_on channel=5 note=31 velocity=91 time=552
note_off channel=5 note=31 velocity=64 time=34
note_on channel=5 note=31 velocity=73 time=26
note_off channel=5 note=31 velocity=64 time=46
note_on channel=5 note=36 velocity=100 time=26
note_off channel=5 note=36 velocity=64 time=70
note_on channel=5 note=39 velocity=109 time=60
note_off channel=5 note=39 velocity=64 time=70
note_on channel=5 note=43 velocity=100 time=60
note_off channel=5 note=43 velocity=64 time=104
note_on channel=5 note=43 velocity=109 time=548
note_off channel=5 note=43 velocity=64 time=38
note_on channel=5 note=43 velocity=100 time=32
note_off channel=5 note=43 velocity=64 time=52
note_on channel=5 note=42 velocity=100 time=10
note_off channel=5 note=42 velocity=64 time=90
note_on channel=5 note=38 velocity=100 time=52
note_off channel=5 note=38 velocity=64 time=76
note_on channel=5 note=33 velocity=100 time=60
note_off channel=5 note=33 velocity=64 time=100
note_on channel=5 note=38 velocity=100 time=556
note_off channel=5 note=38 velocity=64 time=32
note_on channel=5 note=38 velocity=91 time=34
note_off channel=5 note=38 velocity=64 time=72
note_on channel=5 note=40 velocity=91 time=2
note_off channel=5 note=40 velocity=64 time=56
note_on channel=5 note=40 velocity=91 time=74
note_off channel=5 note=40 velocity=64 time=36
note_on channel=5 note=40 velocity=82 time=24
note_off channel=5 note=40 velocity=64 time=66
note_on channel=5 note=38 velocity=100 time=128
note_off channel=5 note=38 velocity=64 time=38
note_on channel=5 note=38 velocity=91 time=34
note_off channel=5 note=38 velocity=64 time=60
note_on channel=5 note=36 velocity=91 time=6
note_off channel=5 note=36 velocity=64 time=32
note_on channel=5 note=36 velocity=82 time=28
note_off channel=5 note=36 velocity=64 time=54
note_on channel=5 note=36 velocity=91 time=86
note_off channel=5 note=36 velocity=64 time=52
note_on channel=5 note=31 velocity=82 time=12
note_off channel=5 note=31 velocity=64 time=58
note_on channel=5 note=31 velocity=91 time=64
note_off channel=5 note=31 velocity=64 time=30
note_on channel=5 note=31 velocity=73 time=42
note_off channel=5 note=31 velocity=64 time=96
note_on channel=5 note=33 velocity=100 time=230
note_off channel=5 note=33 velocity=64 time=38
note_on channel=5 note=33 velocity=82 time=26
note_off channel=5 note=33 velocity=64 time=60
note_on channel=5 note=33 velocity=100 time=90
note_off channel=5 note=33 velocity=64 time=52
note_on channel=5 note=28 velocity=91 time=12
note_off channel=5 note=28 velocity=64 time=58
note_on channel=5 note=28 velocity=100 time=72
note_off channel=5 note=28 velocity=64 time=32
note_on channel=5 note=28 velocity=91 time=30
note_off channel=5 note=28 velocity=64 time=124
note_on channel=5 note=40 velocity=100 time=338
note_off channel=5 note=40 velocity=64 time=38
note_on channel=5 note=40 velocity=73 time=30
note_off channel=5 note=40 velocity=64 time=58
note_on channel=5 note=38 velocity=91 time=8
note_off channel=5 note=38 velocity=64 time=46
note_on channel=5 note=38 velocity=73 time=20
note_off channel=5 note=38 velocity=64 time=62
note_on channel=5 note=38 velocity=91 time=76
note_off channel=5 note=38 velocity=64 time=48
note_on channel=5 note=36 velocity=82 time=14
note_off channel=5 note=36 velocity=64 time=48
note_on channel=5 note=36 velocity=100 time=76
note_off channel=5 note=36 velocity=64 time=32
note_on channel=5 note=36 velocity=73 time=38
note_off channel=5 note=36 velocity=64 time=144
note_on channel=5 note=31 velocity=100 time=172
note_off channel=5 note=31 velocity=64 time=46
note_on channel=5 note=31 velocity=91 time=26
note_off channel=5 note=31 velocity=64 time=58
note_on channel=5 note=31 velocity=100 time=82
note_off channel=5 note=31 velocity=64 time=54
note_on channel=5 note=33 velocity=91 time=14
note_off channel=5 note=33 velocity=64 time=56
note_on channel=5 note=33 velocity=100 time=72
note_off channel=5 note=33 velocity=64 time=38
note_on channel=5 note=33 velocity=73 time=26
note_off channel=5 note=33 velocity=64 time=48
note_on channel=5 note=26 velocity=82 time=20
note_off channel=5 note=26 velocity=64 time=44
note_on channel=5 note=26 velocity=82 time=20
note_off channel=5 note=26 velocity=64 time=74
note_on channel=5 note=31 velocity=100 time=394
note_off channel=5 note=31 velocity=64 time=40
note_on channel=5 note=31 velocity=82 time=26
note_off channel=5 note=31 velocity=64 time=60
note_on channel=5 note=31 velocity=100 time=74
note_on channel=5 note=35 velocity=91 time=62
note_off channel=5 note=31 velocity=64 time=4
note_off channel=5 note=35 velocity=64 time=52
note_on channel=5 note=35 velocity=100 time=72
note_off channel=5 note=35 velocity=64 time=36
note_on channel=5 note=35 velocity=82 time=30
note_off channel=5 note=35 velocity=64 time=46
note_on channel=5 note=40 velocity=91 time=24
note_off channel=5 note=40 velocity=64 time=38
note_on channel=5 note=40 velocity=91 time=22
note_off channel=5 note=40 velocity=64 time=66
note_on channel=5 note=43 velocity=100 time=402
note_off channel=5 note=43 velocity=64 time=44
note_on channel=5 note=43 velocity=91 time=24
note_off channel=5 note=43 velocity=64 time=56
note_on channel=5 note=43 velocity=91 time=72
note_off channel=5 note=43 velocity=64 time=60
note_on channel=5 note=35 velocity=82 time=8
note_off channel=5 note=35 velocity=64 time=54
note_on channel=5 note=35 velocity=100 time=72
note_off channel=5 note=35 velocity=64 time=36
note_on channel=5 note=35 velocity=82 time=30
note_off channel=5 note=35 velocity=64 time=56
note_on channel=5 note=40 velocity=100 time=16
note_off channel=5 note=40 velocity=64 time=38
note_on channel=5 note=40 velocity=82 time=22
note_off channel=5 note=40 velocity=64 time=60
note_on channel=5 note=36 velocity=100 time=396
note_off channel=5 note=36 velocity=64 time=38
note_on channel=5 note=36 velocity=82 time=34
note_off channel=5 note=36 velocity=64 time=56
note_on channel=5 note=36 velocity=100 time=78
note_off channel=5 note=36 velocity=64 time=32
note_on channel=5 note=36 velocity=82 time=34
note_off channel=5 note=36 velocity=64 time=134
note_on channel=5 note=31 velocity=100 time=130
note_off channel=5 note=31 velocity=64 time=42
note_on channel=5 note=31 velocity=73 time=26
note_off channel=5 note=31 velocity=64 time=68
note_on channel=5 note=31 velocity=100 time=68
note_off channel=5 note=31 velocity=64 time=56
note_on channel=5 note=33 velocity=91 time=8
note_off channel=5 note=33 velocity=64 time=82
note_on channel=5 note=33 velocity=100 time=54
note_off channel=5 note=33 velocity=64 time=34
note_on channel=5 note=33 velocity=73 time=26
note_off channel=5 note=33 velocity=64 time=54
note_on channel=5 note=28 velocity=100 time=16
note_off channel=5 note=28 velocity=64 time=78
note_on channel=5 note=28 velocity=91 time=56
note_off channel=5 note=28 velocity=64 time=32
note_on channel=5 note=28 velocity=82 time=26
note_off channel=5 note=28 velocity=64 time=122
note_on channel=5 note=38 velocity=91 time=606
note_off channel=5 note=38 velocity=64 time=38
note_on channel=5 note=38 velocity=73 time=34
note_off channel=5 note=38 velocity=64 time=48
note_on channel=5 note=36 velocity=82 time=8
note_off channel=5 note=36 velocity=64 time=46
note_on channel=5 note=36 velocity=73 time=20
note_off channel=5 note=36 velocity=64 time=56
note_on channel=5 note=36 velocity=91 time=72
note_off channel=5 note=36 velocity=64 time=30
note_on channel=5 note=36 velocity=82 time=38
note_off channel=5 note=36 velocity=64 time=128
note_on channel=5 note=38 velocity=91 time=130
note_off channel=5 note=38 velocity=64 time=36
note_on channel=5 note=38 velocity=82 time=32
note_off channel=5 note=38 velocity=64 time=64
note_on channel=5 note=38 velocity=91 time=78
note_off channel=5 note=38 velocity=64 time=42
note_on channel=5 note=36 velocity=82 time=18
note_off channel=5 note=36 velocity=64 time=88
note_on channel=5 note=38 velocity=82 time=52
note_off channel=5 note=38 velocity=64 time=32
note_on channel=5 note=38 velocity=91 time=30
note_off channel=5 note=38 velocity=64 time=48
note_on channel=5 note=28 velocity=82 time=28
note_off channel=5 note=28 velocity=64 time=136
program_change channel=5 program=32 time=24704
control_change channel=5 control=7 value=120 time=0
control_change channel=5 control=10 value=64 time=0
note_on channel=5 note=38 velocity=60 time=0
note_off channel=5 note=38 velocity=64 time=16
note_on channel=5 note=38 velocity=48 time=54
note_off channel=5 note=38 velocity=64 time=84
note_on channel=5 note=38 velocity=48 time=92
note_off channel=5 note=38 velocity=64 time=22
note_on channel=5 note=38 velocity=60 time=54
note_off channel=5 note=38 velocity=64 time=334
note_on channel=5 note=38 velocity=40 time=176
note_off channel=5 note=38 velocity=64 time=24
note_on channel=5 note=38 velocity=56 time=56
note_off channel=5 note=38 velocity=64 time=28
note_on channel=5 note=38 velocity=56 time=64
note_off channel=5 note=38 velocity=64 time=172
note_on channel=5 note=33 velocity=56 time=78
note_off channel=5 note=33 velocity=64 time=24
note_on channel=5 note=38 velocity=52 time=64
note_off channel=5 note=38 velocity=64 time=40
note_on channel=5 note=38 velocity=64 time=38
note_off channel=5 note=38 velocity=64 time=82
note_on channel=5 note=38 velocity=60 time=82
note_off channel=5 note=38 velocity=64 time=84
note_on channel=5 note=36 velocity=52 time=0
note_off channel=5 note=36 velocity=64 time=26
note_on channel=5 note=36 velocity=48 time=52
note_off channel=5 note=36 velocity=64 time=98
note_on channel=5 note=36 velocity=48 time=68
note_on channel=5 note=34 velocity=56 time=84
note_off channel=5 note=36 velocity=64 time=6
note_off channel=5 note=34 velocity=64 time=180
note_on channel=5 note=38 velocity=36 time=64
note_off channel=5 note=38 velocity=64 time=20
note_on channel=5 note=41 velocity=56 time=68
note_off channel=5 note=41 velocity=64 time=26
note_on channel=5 note=29 velocity=52 time=68
note_off channel=5 note=29 velocity=64 time=204
note_on channel=5 note=31 velocity=40 time=46
note_off channel=5 note=31 velocity=64 time=42
note_on channel=5 note=31 velocity=44 time=50
note_off channel=5 note=31 velocity=64 time=102
note_on channel=5 note=31 velocity=44 time=62
note_on channel=5 note=35 velocity=32 time=82
note_off channel=5 note=31 velocity=64 time=6
note_off channel=5 note=35 velocity=64 time=46
note_on channel=5 note=35 velocity=60 time=32
note_on channel=5 note=38 velocity=64 time=90
note_off channel=5 note=35 velocity=64 time=10
note_off channel=5 note=38 velocity=64 time=94
note_on channel=5 note=43 velocity=56 time=58
note_on channel=5 note=31 velocity=44 time=16
note_off channel=5 note=43 velocity=64 time=60
note_off channel=5 note=31 velocity=64 time=92
MetaMessage('end_of_track', time=0)
MetaMessage('midi_port', port=1, time=0)
MetaMessage('track_name', name='        by          ', time=0)
control_change channel=6 control=10 value=100 time=1334
program_change channel=6 program=38 time=0
control_change channel=6 control=7 value=95 time=0
note_on channel=6 note=71 velocity=48 time=10716
note_off channel=6 note=71 velocity=64 time=48
note_on channel=6 note=67 velocity=60 time=84
note_off channel=6 note=67 velocity=64 time=40
note_on channel=6 note=67 velocity=73 time=90
note_off channel=6 note=67 velocity=64 time=50
note_on channel=6 note=71 velocity=64 time=150
note_off channel=6 note=71 velocity=64 time=52
note_on channel=6 note=69 velocity=56 time=12
note_off channel=6 note=69 velocity=64 time=44
note_on channel=6 note=69 velocity=60 time=88
note_off channel=6 note=69 velocity=64 time=44
note_on channel=6 note=67 velocity=73 time=90
note_off channel=6 note=67 velocity=64 time=52
note_on channel=6 note=72 velocity=48 time=1260
note_off channel=6 note=72 velocity=64 time=40
note_on channel=6 note=67 velocity=56 time=94
note_off channel=6 note=67 velocity=64 time=34
note_on channel=6 note=67 velocity=56 time=100
note_off channel=6 note=67 velocity=64 time=52
note_on channel=6 note=71 velocity=36 time=146
note_off channel=6 note=71 velocity=64 time=46
note_on channel=6 note=69 velocity=48 time=20
note_off channel=6 note=69 velocity=64 time=30
note_on channel=6 note=69 velocity=64 time=100
note_off channel=6 note=69 velocity=64 time=34
note_on channel=6 note=66 velocity=56 time=98
note_off channel=6 note=66 velocity=64 time=34
note_on channel=6 note=72 velocity=56 time=3130
note_off channel=6 note=72 velocity=64 time=54
note_on channel=6 note=67 velocity=60 time=80
note_off channel=6 note=67 velocity=64 time=50
note_on channel=6 note=67 velocity=60 time=80
note_off channel=6 note=67 velocity=64 time=58
note_on channel=6 note=71 velocity=60 time=140
note_on channel=6 note=69 velocity=56 time=66
note_off channel=6 note=71 velocity=64 time=2
note_off channel=6 note=69 velocity=64 time=42
note_on channel=6 note=69 velocity=60 time=90
note_off channel=6 note=69 velocity=64 time=48
note_on channel=6 note=67 velocity=73 time=86
note_off channel=6 note=67 velocity=64 time=14
note_on channel=6 note=71 velocity=32 time=10012
note_off channel=6 note=71 velocity=64 time=50
note_on channel=6 note=67 velocity=56 time=82
note_off channel=6 note=67 velocity=64 time=34
note_on channel=6 note=67 velocity=52 time=100
note_off channel=6 note=67 velocity=64 time=44
note_on channel=6 note=71 velocity=48 time=150
note_off channel=6 note=71 velocity=64 time=38
note_on channel=6 note=69 velocity=44 time=28
note_off channel=6 note=69 velocity=64 time=36
note_on channel=6 note=69 velocity=60 time=96
note_off channel=6 note=69 velocity=64 time=40
note_on channel=6 note=67 velocity=52 time=96
note_off channel=6 note=67 velocity=64 time=40
note_on channel=6 note=72 velocity=40 time=1278
note_off channel=6 note=72 velocity=64 time=124
note_on channel=6 note=74 velocity=44 time=72
note_off channel=6 note=74 velocity=64 time=50
note_on channel=6 note=71 velocity=30 time=18
note_off channel=6 note=71 velocity=64 time=60
note_on channel=6 note=71 velocity=40 time=70
note_off channel=6 note=71 velocity=64 time=52
note_on channel=6 note=72 velocity=36 time=80
note_off channel=6 note=72 velocity=64 time=110
note_on channel=6 note=74 velocity=26 time=154
note_off channel=6 note=74 velocity=64 time=62
note_on channel=6 note=72 velocity=26 time=2842
note_on channel=6 note=67 velocity=30 time=130
note_off channel=6 note=72 velocity=64 time=56
note_off channel=6 note=67 velocity=64 time=8
note_on channel=6 note=67 velocity=36 time=68
note_off channel=6 note=67 velocity=64 time=208
note_on channel=6 note=69 velocity=21 time=54
note_off channel=6 note=69 velocity=64 time=194
note_on channel=6 note=71 velocity=36 time=74
note_off channel=6 note=71 velocity=64 time=180
note_on channel=6 note=67 velocity=48 time=1140
note_on channel=6 note=72 velocity=31 time=130
note_off channel=6 note=67 velocity=64 time=28
note_on channel=6 note=74 velocity=32 time=104
note_off channel=6 note=72 velocity=64 time=6
note_off channel=6 note=74 velocity=64 time=106
MetaMessage('end_of_track', time=0)
MetaMessage('midi_port', port=1, time=0)
MetaMessage('track_name', name='   Michael Land     ', time=0)
control_change channel=7 control=10 value=90 time=1336
program_change channel=7 program=76 time=0
control_change channel=7 control=7 value=52 time=0
note_on channel=7 note=83 velocity=64 time=8082
note_on channel=7 note=79 velocity=64 time=14
note_on channel=7 note=67 velocity=60 time=14
note_on channel=7 note=76 velocity=73 time=8
note_on channel=7 note=71 velocity=64 time=12
note_off channel=7 note=83 velocity=64 time=10
note_off channel=7 note=79 velocity=64 time=6
note_on channel=7 note=64 velocity=100 time=6
note_off channel=7 note=76 velocity=64 time=6
note_off channel=7 note=67 velocity=64 time=4
note_off channel=7 note=71 velocity=64 time=12
note_off channel=7 note=64 velocity=64 time=14
note_on channel=7 note=64 velocity=64 time=536
note_on channel=7 note=67 velocity=52 time=48
note_off channel=7 note=64 velocity=64 time=24
note_on channel=7 note=71 velocity=73 time=30
note_on channel=7 note=76 velocity=60 time=6
note_off channel=7 note=67 velocity=64 time=4
note_on channel=7 note=79 velocity=64 time=18
note_on channel=7 note=83 velocity=91 time=12
note_off channel=7 note=71 velocity=64 time=6
note_off channel=7 note=76 velocity=64 time=4
note_off channel=7 note=79 velocity=64 time=6
note_off channel=7 note=83 velocity=64 time=2
note_on channel=7 note=64 velocity=56 time=2736
note_on channel=7 note=67 velocity=52 time=54
note_off channel=7 note=64 velocity=64 time=14
note_on channel=7 note=71 velocity=73 time=38
note_on channel=7 note=76 velocity=60 time=6
note_off channel=7 note=67 velocity=64 time=6
note_on channel=7 note=79 velocity=64 time=20
note_on channel=7 note=83 velocity=91 time=12
note_off channel=7 note=71 velocity=64 time=4
note_off channel=7 note=76 velocity=64 time=4
note_off channel=7 note=79 velocity=64 time=6
note_off channel=7 note=83 velocity=64 time=2
note_on channel=7 note=64 velocity=56 time=6422
note_on channel=7 note=67 velocity=52 time=54
note_off channel=7 note=64 velocity=64 time=14
note_on channel=7 note=71 velocity=73 time=38
note_on channel=7 note=76 velocity=60 time=6
note_off channel=7 note=67 velocity=64 time=4
note_on channel=7 note=79 velocity=64 time=18
note_on channel=7 note=83 velocity=91 time=12
note_off channel=7 note=71 velocity=64 time=6
note_off channel=7 note=76 velocity=64 time=4
note_off channel=7 note=79 velocity=64 time=6
note_off channel=7 note=83 velocity=64 time=2
note_on channel=7 note=88 velocity=64 time=5258
note_on channel=7 note=83 velocity=64 time=30
note_on channel=7 note=71 velocity=60 time=18
note_on channel=7 note=79 velocity=91 time=10
note_on channel=7 note=67 velocity=73 time=26
note_off channel=7 note=88 velocity=64 time=4
note_off channel=7 note=83 velocity=64 time=2
note_on channel=7 note=76 velocity=60 time=8
note_off channel=7 note=79 velocity=64 time=10
note_on channel=7 note=64 velocity=91 time=8
note_off channel=7 note=76 velocity=64 time=2
note_off channel=7 note=67 velocity=64 time=14
note_off channel=7 note=71 velocity=64 time=4
note_off channel=7 note=64 velocity=64 time=54
note_on channel=7 note=86 velocity=64 time=1912
note_on channel=7 note=81 velocity=73 time=26
note_on channel=7 note=83 velocity=52 time=2
note_off channel=7 note=83 velocity=64 time=18
note_on channel=7 note=78 velocity=91 time=8
note_on channel=7 note=69 velocity=73 time=14
note_off channel=7 note=86 velocity=64 time=10
note_on channel=7 note=74 velocity=64 time=4
note_off channel=7 note=81 velocity=64 time=6
note_on channel=7 note=66 velocity=73 time=6
note_off channel=7 note=78 velocity=64 time=16
note_off channel=7 note=74 velocity=64 time=18
note_on channel=7 note=62 velocity=82 time=10
note_off channel=7 note=66 velocity=64 time=18
note_off channel=7 note=69 velocity=64 time=8
note_off channel=7 note=62 velocity=64 time=38
note_on channel=7 note=64 velocity=64 time=798
note_on channel=7 note=76 velocity=56 time=24
note_on channel=7 note=67 velocity=60 time=10
note_off channel=7 note=64 velocity=64 time=14
note_on channel=7 note=79 velocity=64 time=6
note_on channel=7 note=83 velocity=73 time=32
note_on channel=7 note=71 velocity=60 time=4
note_off channel=7 note=67 velocity=64 time=2
note_off channel=7 note=76 velocity=64 time=10
note_off channel=7 note=79 velocity=64 time=4
note_off channel=7 note=83 velocity=64 time=16
note_off channel=7 note=71 velocity=64 time=6
note_on channel=7 note=64 velocity=64 time=1654
note_on channel=7 note=67 velocity=52 time=48
note_off channel=7 note=64 velocity=64 time=22
note_on channel=7 note=71 velocity=73 time=32
note_on channel=7 note=76 velocity=60 time=6
note_off channel=7 note=67 velocity=64 time=6
note_on channel=7 note=79 velocity=64 time=18
note_on channel=7 note=83 velocity=91 time=12
note_off channel=7 note=71 velocity=64 time=8
note_off channel=7 note=76 velocity=64 time=2
note_off channel=7 note=79 velocity=64 time=8
note_off channel=7 note=83 velocity=64 time=2
MetaMessage('end_of_track', time=0)
MetaMessage('midi_port', port=1, time=0)
MetaMessage('track_name', name='                    ', time=0)
MetaMessage('end_of_track', time=0)
MetaMessage('midi_port', port=1, time=0)
MetaMessage('track_name', name='                    ', time=0)
control_change channel=9 control=7 value=120 time=1336
note_on channel=9 note=62 velocity=21 time=4086
note_off channel=9 note=62 velocity=64 time=64
note_on channel=9 note=62 velocity=32 time=90
note_off channel=9 note=62 velocity=64 time=48
note_on channel=9 note=62 velocity=64 time=28
note_off channel=9 note=62 velocity=64 time=44
note_on channel=9 note=37 velocity=44 time=52
note_on channel=9 note=62 velocity=100 time=4
note_off channel=9 note=62 velocity=64 time=48
note_off channel=9 note=37 velocity=64 time=46
note_on channel=9 note=62 velocity=82 time=14
note_off channel=9 note=62 velocity=64 time=58
note_on channel=9 note=37 velocity=48 time=18
note_off channel=9 note=37 velocity=64 time=60
note_on channel=9 note=63 velocity=48 time=8
note_off channel=9 note=63 velocity=64 time=42
note_on channel=9 note=37 velocity=44 time=68
note_on channel=9 note=63 velocity=52 time=4
note_off channel=9 note=63 velocity=64 time=40
note_on channel=9 note=63 velocity=52 time=38
note_off channel=9 note=37 velocity=64 time=2
note_off channel=9 note=63 velocity=64 time=36
note_on channel=9 note=37 velocity=48 time=42
note_on channel=9 note=63 velocity=73 time=4
note_off channel=9 note=63 velocity=64 time=82
note_off channel=9 note=37 velocity=64 time=84
note_on channel=9 note=63 velocity=64 time=8
note_off channel=9 note=63 velocity=64 time=100
note_on channel=9 note=75 velocity=16 time=284
note_off channel=9 note=75 velocity=64 time=52
note_on channel=9 note=62 velocity=20 time=432
note_off channel=9 note=62 velocity=64 time=56
note_on channel=9 note=62 velocity=48 time=30
note_off channel=9 note=62 velocity=64 time=42
note_on channel=9 note=62 velocity=73 time=34
note_off channel=9 note=62 velocity=64 time=52
note_on channel=9 note=62 velocity=100 time=26
note_on channel=9 note=37 velocity=29 time=26
note_off channel=9 note=62 velocity=64 time=42
note_on channel=9 note=62 velocity=91 time=28
note_off channel=9 note=37 velocity=64 time=18
note_off channel=9 note=62 velocity=64 time=34
note_on channel=9 note=62 velocity=91 time=28
note_off channel=9 note=62 velocity=64 time=62
note_on channel=9 note=62 velocity=91 time=46
note_off channel=9 note=62 velocity=64 time=60
note_on channel=9 note=37 velocity=44 time=60
note_on channel=9 note=63 velocity=60 time=20
note_off channel=9 note=37 velocity=64 time=44
note_off channel=9 note=63 velocity=64 time=16
note_on channel=9 note=63 velocity=48 time=138
note_on channel=9 note=37 velocity=32 time=44
note_off channel=9 note=63 velocity=64 time=24
note_off channel=9 note=37 velocity=64 time=42
note_on channel=9 note=62 velocity=44 time=68
note_on channel=9 note=37 velocity=48 time=2
note_off channel=9 note=62 velocity=64 time=48
note_on channel=9 note=62 velocity=32 time=26
note_off channel=9 note=37 velocity=64 time=14
note_off channel=9 note=62 velocity=64 time=16
note_on channel=9 note=62 velocity=73 time=54
note_on channel=9 note=37 velocity=48 time=26
note_off channel=9 note=62 velocity=64 time=24
note_on channel=9 note=75 velocity=16 time=18
note_on channel=9 note=62 velocity=82 time=2
note_on channel=9 note=61 velocity=16 time=16
note_off channel=9 note=61 velocity=64 time=4
note_off channel=9 note=37 velocity=64 time=30
note_off channel=9 note=62 velocity=64 time=0
note_on channel=9 note=62 velocity=100 time=28
note_off channel=9 note=62 velocity=64 time=62
note_on channel=9 note=63 velocity=73 time=60
note_off channel=9 note=75 velocity=64 time=22
note_off channel=9 note=63 velocity=64 time=54
note_on channel=9 note=37 velocity=73 time=30
note_on channel=9 note=63 velocity=73 time=100
note_off channel=9 note=37 velocity=64 time=4
note_off channel=9 note=63 velocity=64 time=46
note_on channel=9 note=63 velocity=82 time=48
note_on channel=9 note=75 velocity=23 time=0
note_on channel=9 note=37 velocity=31 time=12
note_off channel=9 note=37 velocity=64 time=14
note_off channel=9 note=63 velocity=64 time=18
note_off channel=9 note=75 velocity=64 time=18
note_on channel=9 note=37 velocity=64 time=10
note_on channel=9 note=62 velocity=82 time=8
note_off channel=9 note=62 velocity=64 time=38
note_off channel=9 note=37 velocity=64 time=8
note_on channel=9 note=62 velocity=82 time=22
note_off channel=9 note=62 velocity=64 time=42
note_on channel=9 note=37 velocity=109 time=2
note_on channel=9 note=62 velocity=109 time=10
note_on channel=9 note=75 velocity=40 time=2
note_off channel=9 note=62 velocity=64 time=54
note_off channel=9 note=75 velocity=64 time=14
note_off channel=9 note=37 velocity=64 time=36
note_on channel=9 note=36 velocity=100 time=2
note_off channel=9 note=36 velocity=64 time=54
note_on channel=9 note=62 velocity=73 time=14
note_off channel=9 note=62 velocity=64 time=14
note_on channel=9 note=36 velocity=82 time=52
note_on channel=9 note=63 velocity=100 time=2
note_off channel=9 note=63 velocity=64 time=28
note_off channel=9 note=36 velocity=64 time=6
note_on channel=9 note=37 velocity=91 time=30
note_on channel=9 note=36 velocity=91 time=0
note_on channel=9 note=63 velocity=100 time=0
note_off channel=9 note=63 velocity=64 time=36
note_off channel=9 note=36 velocity=64 time=36
note_off channel=9 note=37 velocity=64 time=12
note_on channel=9 note=37 velocity=91 time=114
note_off channel=9 note=37 velocity=64 time=58
note_on channel=9 note=37 velocity=82 time=72
note_on channel=9 note=61 velocity=82 time=66
note_off channel=9 note=37 velocity=64 time=2
note_off channel=9 note=61 velocity=64 time=6
note_on channel=9 note=37 velocity=60 time=60
note_on channel=9 note=36 velocity=100 time=0
note_on channel=9 note=63 velocity=100 time=0
note_off channel=9 note=37 velocity=64 time=8
note_off channel=9 note=63 velocity=64 time=18
note_off channel=9 note=36 velocity=64 time=16
note_on channel=9 note=37 velocity=91 time=26
note_on channel=9 note=36 velocity=82 time=0
note_on channel=9 note=61 velocity=91 time=0
note_off channel=9 note=61 velocity=64 time=32
note_off channel=9 note=36 velocity=64 time=10
note_off channel=9 note=37 velocity=64 time=18
note_on channel=9 note=36 velocity=100 time=4
note_on channel=9 note=62 velocity=32 time=0
note_off channel=9 note=62 velocity=64 time=6
note_on channel=9 note=60 velocity=64 time=60
note_off channel=9 note=36 velocity=64 time=2
note_off channel=9 note=60 velocity=64 time=18
note_on channel=9 note=37 velocity=64 time=46
note_on channel=9 note=36 velocity=100 time=2
note_on channel=9 note=62 velocity=100 time=0
note_off channel=9 note=37 velocity=64 time=6
note_off channel=9 note=62 velocity=64 time=12
note_off channel=9 note=36 velocity=64 time=24
note_on channel=9 note=37 velocity=91 time=24
note_on channel=9 note=36 velocity=73 time=0
note_on channel=9 note=60 velocity=100 time=0
note_off channel=9 note=60 velocity=64 time=34
note_off channel=9 note=36 velocity=64 time=18
note_off channel=9 note=37 velocity=64 time=14
note_on channel=9 note=63 velocity=100 time=0
note_off channel=9 note=63 velocity=64 time=30
note_on channel=9 note=61 velocity=91 time=34
note_off channel=9 note=61 velocity=64 time=30
note_on channel=9 note=37 velocity=52 time=40
note_on channel=9 note=62 velocity=100 time=0
note_off channel=9 note=37 velocity=64 time=8
note_off channel=9 note=62 velocity=64 time=20
note_on channel=9 note=37 velocity=100 time=34
note_on channel=9 note=60 velocity=82 time=2
note_off channel=9 note=60 velocity=64 time=56
note_on channel=9 note=36 velocity=82 time=8
note_on channel=9 note=63 velocity=100 time=0
note_off channel=9 note=37 velocity=64 time=12
note_off channel=9 note=63 velocity=64 time=16
note_off channel=9 note=36 velocity=64 time=26
note_on channel=9 note=37 velocity=82 time=78
note_on channel=9 note=36 velocity=100 time=2
note_on channel=9 note=63 velocity=109 time=0
note_off channel=9 note=36 velocity=64 time=32
note_off channel=9 note=63 velocity=64 time=0
note_on channel=9 note=36 velocity=91 time=34
note_on channel=9 note=61 velocity=91 time=0
note_off channel=9 note=37 velocity=64 time=6
note_off channel=9 note=36 velocity=64 time=26
note_off channel=9 note=61 velocity=64 time=14
note_on channel=9 note=36 velocity=100 time=20
note_off channel=9 note=36 velocity=64 time=34
note_on channel=9 note=36 velocity=80 time=30
note_off channel=9 note=36 velocity=64 time=52
note_on channel=9 note=63 velocity=64 time=14
note_off channel=9 note=63 velocity=64 time=12
note_on channel=9 note=37 velocity=82 time=54
note_on channel=9 note=63 velocity=73 time=2
note_off channel=9 note=63 velocity=64 time=36
note_on channel=9 note=63 velocity=100 time=30
note_off channel=9 note=37 velocity=64 time=8
note_off channel=9 note=63 velocity=64 time=24
note_on channel=9 note=62 velocity=64 time=34
note_off channel=9 note=62 velocity=64 time=46
note_on channel=9 note=62 velocity=100 time=20
note_off channel=9 note=62 velocity=64 time=56
note_on channel=9 note=37 velocity=91 time=10
note_off channel=9 note=37 velocity=64 time=68
note_on channel=9 note=75 velocity=48 time=64
note_on channel=9 note=37 velocity=73 time=66
note_on channel=9 note=36 velocity=100 time=0
note_on channel=9 note=63 velocity=91 time=0
note_off channel=9 note=75 velocity=64 time=2
note_off channel=9 note=37 velocity=64 time=34
note_off channel=9 note=63 velocity=64 time=0
note_off channel=9 note=36 velocity=64 time=4
note_on channel=9 note=37 velocity=48 time=28
note_on channel=9 note=36 velocity=82 time=0
note_on channel=9 note=75 velocity=32 time=0
note_off channel=9 note=37 velocity=64 time=30
note_off channel=9 note=36 velocity=64 time=10
note_off channel=9 note=75 velocity=64 time=26
note_on channel=9 note=36 velocity=91 time=0
note_off channel=9 note=36 velocity=64 time=60
note_on channel=9 note=75 velocity=31 time=4
note_on channel=9 note=37 velocity=73 time=66
note_on channel=9 note=36 velocity=109 time=0
note_on channel=9 note=61 velocity=91 time=0
note_off channel=9 note=75 velocity=64 time=4
note_off channel=9 note=37 velocity=64 time=22
note_off channel=9 note=61 velocity=64 time=4
note_off channel=9 note=36 velocity=64 time=4
note_on channel=9 note=37 velocity=48 time=32
note_on channel=9 note=36 velocity=91 time=0
note_on channel=9 note=61 velocity=73 time=0
note_on channel=9 note=75 velocity=36 time=0
note_off channel=9 note=61 velocity=64 time=30
note_off channel=9 note=36 velocity=64 time=4
note_off channel=9 note=75 velocity=64 time=26
note_on channel=9 note=36 velocity=100 time=6
note_off channel=9 note=37 velocity=64 time=2
note_on channel=9 note=60 velocity=64 time=0
note_off channel=9 note=60 velocity=64 time=36
note_off channel=9 note=36 velocity=64 time=14
note_on channel=9 note=36 velocity=109 time=80
note_on channel=9 note=60 velocity=91 time=2
note_off channel=9 note=36 velocity=64 time=32
note_on channel=9 note=37 velocity=91 time=30
note_on channel=9 note=36 velocity=91 time=0
note_off channel=9 note=60 velocity=64 time=14
note_off channel=9 note=36 velocity=64 time=48
note_off channel=9 note=37 velocity=64 time=8
note_on channel=9 note=37 velocity=64 time=62
note_off channel=9 note=37 velocity=64 time=12
note_on channel=9 note=37 velocity=91 time=56
note_on channel=9 note=61 velocity=91 time=0
note_off channel=9 note=61 velocity=64 time=30
note_off channel=9 note=37 velocity=64 time=28
note_on channel=9 note=61 velocity=64 time=8
note_off channel=9 note=61 velocity=64 time=32
note_on channel=9 note=60 velocity=82 time=32
note_off channel=9 note=60 velocity=64 time=42
note_on channel=9 note=37 velocity=91 time=22
note_on channel=9 note=75 velocity=36 time=2
note_off channel=9 note=37 velocity=64 time=32
note_off channel=9 note=75 velocity=64 time=28
note_on channel=9 note=36 velocity=100 time=6
note_on channel=9 note=60 velocity=91 time=2
note_off channel=9 note=36 velocity=64 time=34
note_off channel=9 note=60 velocity=64 time=20
note_on channel=9 note=37 velocity=73 time=10
note_on channel=9 note=36 velocity=82 time=0
note_on channel=9 note=75 velocity=36 time=0
note_off channel=9 note=37 velocity=64 time=34
note_off channel=9 note=36 velocity=64 time=4
note_on channel=9 note=36 velocity=82 time=30
note_on channel=9 note=63 velocity=82 time=0
note_off channel=9 note=75 velocity=64 time=4
note_off channel=9 note=63 velocity=64 time=12
note_on channel=9 note=37 velocity=64 time=46
note_on channel=9 note=63 velocity=82 time=0
note_off channel=9 note=36 velocity=64 time=12
note_off channel=9 note=37 velocity=64 time=0
note_off channel=9 note=63 velocity=64 time=10
note_on channel=9 note=37 velocity=73 time=44
note_on channel=9 note=36 velocity=100 time=0
note_on channel=9 note=63 velocity=100 time=0
note_off channel=9 note=63 velocity=64 time=30
note_off channel=9 note=36 velocity=64 time=14
note_on channel=9 note=36 velocity=91 time=22
note_on channel=9 note=62 velocity=82 time=0
note_off channel=9 note=37 velocity=64 time=10
note_off channel=9 note=62 velocity=64 time=32
note_on channel=9 note=62 velocity=52 time=26
note_off channel=9 note=36 velocity=64 time=2
note_off channel=9 note=62 velocity=64 time=20
note_on channel=9 note=62 velocity=73 time=42
note_off channel=9 note=62 velocity=64 time=16
note_on channel=9 note=62 velocity=100 time=52
note_off channel=9 note=62 velocity=64 time=46
note_on channel=9 note=37 velocity=82 time=22
note_off channel=9 note=37 velocity=64 time=64
note_on channel=9 note=37 velocity=73 time=64
note_on channel=9 note=75 velocity=40 time=0
note_off channel=9 note=37 velocity=64 time=16
note_on channel=9 note=37 velocity=82 time=50
note_off channel=9 note=75 velocity=64 time=6
note_off channel=9 note=37 velocity=64 time=50
note_on channel=9 note=75 velocity=52 time=12
note_off channel=9 note=75 velocity=64 time=60
note_on channel=9 note=36 velocity=91 time=2
note_off channel=9 note=36 velocity=64 time=58
note_on channel=9 note=63 velocity=73 time=8
note_on channel=9 note=75 velocity=32 time=0
note_off channel=9 note=63 velocity=64 time=8
note_on channel=9 note=37 velocity=91 time=58
note_on channel=9 note=36 velocity=100 time=0
note_on channel=9 note=63 velocity=109 time=0
note_off channel=9 note=75 velocity=64 time=4
note_off channel=9 note=36 velocity=64 time=28
note_off channel=9 note=63 velocity=64 time=0
note_on channel=9 note=36 velocity=91 time=34
note_on channel=9 note=63 velocity=100 time=0
note_off channel=9 note=37 velocity=64 time=2
note_on channel=9 note=75 velocity=48 time=0
note_off channel=9 note=36 velocity=64 time=34
note_off channel=9 note=63 velocity=64 time=2
note_on channel=9 note=36 velocity=91 time=28
note_on channel=9 note=62 velocity=91 time=0
note_off channel=9 note=75 velocity=64 time=2
note_off channel=9 note=62 velocity=64 time=18
note_on channel=9 note=37 velocity=91 time=44
note_off channel=9 note=36 velocity=64 time=4
note_off channel=9 note=37 velocity=64 time=18
note_on channel=9 note=37 velocity=91 time=46
note_on channel=9 note=36 velocity=100 time=0
note_on channel=9 note=62 velocity=100 time=0
note_off channel=9 note=62 velocity=64 time=32
note_off channel=9 note=36 velocity=64 time=8
note_off channel=9 note=37 velocity=64 time=24
note_on channel=9 note=36 velocity=100 time=2
note_on channel=9 note=62 velocity=82 time=0
note_off channel=9 note=62 velocity=64 time=36
note_on channel=9 note=63 velocity=82 time=30
note_off channel=9 note=36 velocity=64 time=10
note_off channel=9 note=63 velocity=64 time=10
note_on channel=9 note=63 velocity=91 time=112
note_off channel=9 note=63 velocity=64 time=42
note_on channel=9 note=37 velocity=91 time=24
note_off channel=9 note=37 velocity=64 time=64
note_on channel=9 note=36 velocity=91 time=4
note_off channel=9 note=36 velocity=64 time=40
note_on channel=9 note=37 velocity=64 time=26
note_on channel=9 note=36 velocity=91 time=0
note_on channel=9 note=75 velocity=48 time=0
note_off channel=9 note=37 velocity=64 time=8
note_off channel=9 note=75 velocity=64 time=54
note_on channel=9 note=37 velocity=73 time=4
note_on channel=9 note=63 velocity=82 time=0
note_off channel=9 note=36 velocity=64 time=2
note_off channel=9 note=63 velocity=64 time=22
note_on channel=9 note=36 velocity=109 time=42
note_on channel=9 note=63 velocity=82 time=0
note_on channel=9 note=75 velocity=40 time=2
note_off channel=9 note=37 velocity=64 time=2
note_off channel=9 note=63 velocity=64 time=24
note_off channel=9 note=36 velocity=64 time=14
note_off channel=9 note=75 velocity=64 time=24
note_on channel=9 note=36 velocity=91 time=0
note_on channel=9 note=63 velocity=73 time=0
note_off channel=9 note=63 velocity=64 time=4
note_on channel=9 note=37 velocity=73 time=58
note_off channel=9 note=36 velocity=64 time=2
note_on channel=9 note=62 velocity=48 time=0
note_off channel=9 note=37 velocity=64 time=14
note_off channel=9 note=62 velocity=64 time=8
note_on channel=9 note=37 velocity=100 time=44
note_on channel=9 note=36 velocity=109 time=0
note_on channel=9 note=62 velocity=100 time=0
note_off channel=9 note=62 velocity=64 time=36
note_off channel=9 note=36 velocity=64 time=6
note_on channel=9 note=36 velocity=82 time=24
note_on channel=9 note=62 velocity=73 time=0
note_off channel=9 note=36 velocity=64 time=40
note_off channel=9 note=62 velocity=64 time=12
note_off channel=9 note=37 velocity=64 time=2
note_on channel=9 note=36 velocity=100 time=12
note_on channel=9 note=63 velocity=100 time=0
note_off channel=9 note=63 velocity=64 time=30
note_off channel=9 note=36 velocity=64 time=14
note_on channel=9 note=36 velocity=82 time=22
note_on channel=9 note=63 velocity=100 time=64
note_off channel=9 note=36 velocity=64 time=4
note_off channel=9 note=63 velocity=64 time=26
note_on channel=9 note=37 velocity=64 time=38
note_on channel=9 note=63 velocity=73 time=0
note_off channel=9 note=63 velocity=64 time=26
note_off channel=9 note=37 velocity=64 time=38
note_on channel=9 note=63 velocity=100 time=0
note_off channel=9 note=63 velocity=64 time=34
note_on channel=9 note=37 velocity=56 time=32
note_on channel=9 note=75 velocity=48 time=2
note_off channel=9 note=37 velocity=64 time=8
note_on channel=9 note=37 velocity=91 time=56
note_on channel=9 note=63 velocity=109 time=2
note_off channel=9 note=75 velocity=64 time=4
note_off channel=9 note=63 velocity=64 time=34
note_on channel=9 note=75 velocity=48 time=28
note_off channel=9 note=37 velocity=64 time=62
note_off channel=9 note=75 velocity=64 time=2
note_on channel=9 note=36 velocity=100 time=0
note_off channel=9 note=36 velocity=64 time=42
note_on channel=9 note=36 velocity=82 time=24
note_on channel=9 note=37 velocity=91 time=66
note_on channel=9 note=63 velocity=73 time=0
note_off channel=9 note=36 velocity=64 time=2
note_off channel=9 note=63 velocity=64 time=6
note_on channel=9 note=36 velocity=100 time=56
note_on channel=9 note=63 velocity=91 time=0
note_off channel=9 note=63 velocity=64 time=16
note_off channel=9 note=36 velocity=64 time=26
note_on channel=9 note=36 velocity=73 time=26
note_on channel=9 note=62 velocity=73 time=0
note_off channel=9 note=37 velocity=64 time=2
note_off channel=9 note=62 velocity=64 time=8
note_on channel=9 note=37 velocity=73 time=58
note_on channel=9 note=75 velocity=36 time=0
note_off channel=9 note=36 velocity=64 time=12
note_on channel=9 note=36 velocity=91 time=54
note_on channel=9 note=62 velocity=109 time=0
note_off channel=9 note=75 velocity=64 time=6
note_off channel=9 note=37 velocity=64 time=4
note_off channel=9 note=62 velocity=64 time=18
control_change channel=9 control=1 value=8 time=2
note_off channel=9 note=36 velocity=64 time=12
note_on channel=9 note=37 velocity=82 time=26
note_on channel=9 note=36 velocity=82 time=0
note_on channel=9 note=62 velocity=100 time=0
note_on channel=9 note=75 velocity=48 time=2
note_off channel=9 note=36 velocity=64 time=38
note_off channel=9 note=62 velocity=64 time=2
note_off channel=9 note=37 velocity=64 time=22
note_off channel=9 note=75 velocity=64 time=2
note_on channel=9 note=36 velocity=100 time=0
note_on channel=9 note=63 velocity=91 time=0
note_off channel=9 note=63 velocity=64 time=26
note_off channel=9 note=36 velocity=64 time=14
note_on channel=9 note=36 velocity=91 time=24
note_on channel=9 note=63 velocity=100 time=66
note_off channel=9 note=36 velocity=64 time=18
note_off channel=9 note=63 velocity=64 time=18
note_on channel=9 note=37 velocity=82 time=34
note_on channel=9 note=63 velocity=91 time=2
note_off channel=9 note=63 velocity=64 time=26
note_off channel=9 note=37 velocity=64 time=32
note_on channel=9 note=63 velocity=100 time=6
note_off channel=9 note=63 velocity=64 time=34
note_on channel=9 note=37 velocity=91 time=98
note_on channel=9 note=63 velocity=100 time=0
note_off channel=9 note=63 velocity=64 time=52
note_off channel=9 note=37 velocity=64 time=72
note_on channel=9 note=36 velocity=100 time=8
note_off channel=9 note=36 velocity=64 time=42
note_on channel=9 note=36 velocity=82 time=22
note_on channel=9 note=75 velocity=52 time=0
note_off channel=9 note=36 velocity=64 time=62
note_off channel=9 note=75 velocity=64 time=2
note_on channel=9 note=37 velocity=44 time=4
note_on channel=9 note=62 velocity=64 time=0
note_off channel=9 note=37 velocity=64 time=6
note_off channel=9 note=62 velocity=64 time=6
note_on channel=9 note=37 velocity=82 time=50
note_on channel=9 note=36 velocity=100 time=2
note_on channel=9 note=62 velocity=91 time=0
note_on channel=9 note=75 velocity=44 time=0
note_off channel=9 note=62 velocity=64 time=14
note_off channel=9 note=36 velocity=64 time=18
note_off channel=9 note=37 velocity=64 time=32
note_on channel=9 note=36 velocity=91 time=4
note_on channel=9 note=63 velocity=100 time=0
note_off channel=9 note=75 velocity=64 time=6
note_off channel=9 note=63 velocity=64 time=22
note_off channel=9 note=36 velocity=64 time=34
note_on channel=9 note=37 velocity=36 time=2
note_on channel=9 note=63 velocity=73 time=0
note_off channel=9 note=37 velocity=64 time=6
note_off channel=9 note=63 velocity=64 time=12
note_on channel=9 note=37 velocity=82 time=48
note_on channel=9 note=36 velocity=100 time=0
note_on channel=9 note=63 velocity=100 time=2
note_off channel=9 note=63 velocity=64 time=24
note_off channel=9 note=36 velocity=64 time=10
note_off channel=9 note=37 velocity=64 time=26
note_on channel=9 note=36 velocity=91 time=2
note_on channel=9 note=63 velocity=100 time=0
note_off channel=9 note=36 velocity=64 time=32
note_off channel=9 note=63 velocity=64 time=18
note_on channel=9 note=37 velocity=82 time=14
note_on channel=9 note=36 velocity=100 time=0
note_on channel=9 note=62 velocity=82 time=2
note_off channel=9 note=62 velocity=64 time=10
note_off channel=9 note=36 velocity=64 time=28
note_on channel=9 note=36 velocity=82 time=26
note_off channel=9 note=37 velocity=64 time=4
note_off channel=9 note=36 velocity=64 time=54
note_on channel=9 note=62 velocity=91 time=12
note_off channel=9 note=62 velocity=64 time=14
note_on channel=9 note=37 velocity=64 time=52
note_on channel=9 note=62 velocity=91 time=0
note_off channel=9 note=62 velocity=64 time=40
note_off channel=9 note=37 velocity=64 time=20
note_on channel=9 note=63 velocity=82 time=2
note_off channel=9 note=63 velocity=64 time=24
note_on channel=9 note=75 velocity=32 time=46
note_off channel=9 note=75 velocity=64 time=64
note_on channel=9 note=37 velocity=73 time=4
note_on channel=9 note=63 velocity=100 time=0
note_off channel=9 note=63 velocity=64 time=32
note_on channel=9 note=75 velocity=44 time=32
note_off channel=9 note=37 velocity=64 time=42
note_off channel=9 note=75 velocity=64 time=14
note_on channel=9 note=36 velocity=100 time=10
note_off channel=9 note=36 velocity=64 time=34
note_on channel=9 note=36 velocity=82 time=30
note_on channel=9 note=75 velocity=36 time=0
note_off channel=9 note=36 velocity=64 time=52
note_off channel=9 note=75 velocity=64 time=2
note_on channel=9 note=37 velocity=60 time=12
note_on channel=9 note=61 velocity=73 time=0
note_off channel=9 note=37 velocity=64 time=8
note_off channel=9 note=61 velocity=64 time=0
note_on channel=9 note=37 velocity=82 time=60
note_on channel=9 note=36 velocity=100 time=0
note_on channel=9 note=61 velocity=73 time=0
note_off channel=9 note=36 velocity=64 time=28
note_off channel=9 note=61 velocity=64 time=0
note_on channel=9 note=36 velocity=82 time=34
note_on channel=9 note=61 velocity=91 time=2
note_off channel=9 note=37 velocity=64 time=2
note_off channel=9 note=61 velocity=64 time=10
note_on channel=9 note=60 velocity=56 time=52
note_off channel=9 note=36 velocity=64 time=16
note_off channel=9 note=60 velocity=64 time=2
note_on channel=9 note=37 velocity=91 time=48
note_on channel=9 note=60 velocity=100 time=0
note_off channel=9 note=60 velocity=64 time=32
note_on channel=9 note=60 velocity=91 time=32
note_on channel=9 note=75 velocity=52 time=0
note_off channel=9 note=60 velocity=64 time=50
note_off channel=9 note=75 velocity=64 time=10
note_off channel=9 note=37 velocity=64 time=4
note_on channel=9 note=37 velocity=60 time=136
note_off channel=9 note=37 velocity=64 time=6
note_on channel=9 note=37 velocity=91 time=60
note_on channel=9 note=61 velocity=91 time=0
note_off channel=9 note=61 velocity=64 time=20
note_off channel=9 note=37 velocity=64 time=40
note_on channel=9 note=36 velocity=100 time=4
note_on channel=9 note=61 velocity=109 time=0
note_off channel=9 note=61 velocity=64 time=30
note_off channel=9 note=36 velocity=64 time=6
note_on channel=9 note=36 velocity=91 time=30
note_on channel=9 note=61 velocity=91 time=2
note_off channel=9 note=61 velocity=64 time=24
note_off channel=9 note=36 velocity=64 time=24
note_on channel=9 note=60 velocity=91 time=16
note_on channel=9 note=75 velocity=52 time=0
note_off channel=9 note=60 velocity=64 time=26
note_off channel=9 note=75 velocity=64 time=28
note_on channel=9 note=37 velocity=91 time=12
note_on channel=9 note=36 velocity=100 time=0
note_on channel=9 note=60 velocity=16 time=0
note_off channel=9 note=60 velocity=64 time=2
note_off channel=9 note=36 velocity=64 time=26
note_off channel=9 note=37 velocity=64 time=40
note_on channel=9 note=36 velocity=100 time=0
note_on channel=9 note=63 velocity=91 time=0
note_off channel=9 note=63 velocity=64 time=28
note_off channel=9 note=36 velocity=64 time=24
note_on channel=9 note=75 velocity=60 time=10
note_on channel=9 note=37 velocity=91 time=68
note_on channel=9 note=36 velocity=100 time=0
note_on channel=9 note=63 velocity=100 time=0
note_off channel=9 note=75 velocity=64 time=2
note_off channel=9 note=37 velocity=64 time=22
note_off channel=9 note=63 velocity=64 time=2
note_off channel=9 note=36 velocity=64 time=6
note_on channel=9 note=37 velocity=82 time=34
note_on channel=9 note=36 velocity=91 time=0
note_on channel=9 note=63 velocity=91 time=0
note_on channel=9 note=75 velocity=52 time=0
note_off channel=9 note=36 velocity=64 time=28
note_off channel=9 note=63 velocity=64 time=2
note_off channel=9 note=37 velocity=64 time=32
note_off channel=9 note=75 velocity=64 time=8
note_on channel=9 note=36 velocity=91 time=0
note_off channel=9 note=36 velocity=64 time=50
note_on channel=9 note=62 velocity=73 time=12
note_off channel=9 note=62 velocity=64 time=16
note_on channel=9 note=36 velocity=100 time=52
note_on channel=9 note=63 velocity=100 time=0
note_off channel=9 note=63 velocity=64 time=26
note_off channel=9 note=36 velocity=64 time=6
note_on channel=9 note=37 velocity=91 time=30
note_on channel=9 note=36 velocity=100 time=0
note_on channel=9 note=63 velocity=100 time=2
note_off channel=9 note=63 velocity=64 time=36
note_off channel=9 note=36 velocity=64 time=12
note_off channel=9 note=37 velocity=64 time=36
note_on channel=9 note=37 velocity=91 time=110
note_off channel=9 note=37 velocity=64 time=60
note_on channel=9 note=37 velocity=82 time=70
note_on channel=9 note=61 velocity=82 time=64
note_off channel=9 note=37 velocity=64 time=4
note_off channel=9 note=61 velocity=64 time=6
note_on channel=9 note=37 velocity=60 time=58
note_on channel=9 note=36 velocity=109 time=2
note_on channel=9 note=63 velocity=100 time=0
note_off channel=9 note=37 velocity=64 time=8
note_off channel=9 note=63 velocity=64 time=18
note_off channel=9 note=36 velocity=64 time=6
note_on channel=9 note=37 velocity=91 time=32
note_on channel=9 note=36 velocity=82 time=0
note_on channel=9 note=61 velocity=91 time=0
note_off channel=9 note=61 velocity=64 time=32
note_off channel=9 note=36 velocity=64 time=6
note_off channel=9 note=37 velocity=64 time=22
note_on channel=9 note=36 velocity=100 time=4
note_on channel=9 note=62 velocity=32 time=0
note_off channel=9 note=62 velocity=64 time=6
note_off channel=9 note=36 velocity=64 time=54
note_on channel=9 note=60 velocity=64 time=8
note_off channel=9 note=60 velocity=64 time=18
note_on channel=9 note=37 velocity=64 time=50
note_on channel=9 note=36 velocity=109 time=0
note_on channel=9 note=62 velocity=100 time=0
note_off channel=9 note=37 velocity=64 time=8
note_off channel=9 note=62 velocity=64 time=12
note_off channel=9 note=36 velocity=64 time=16
note_on channel=9 note=37 velocity=91 time=28
note_on channel=9 note=36 velocity=91 time=0
note_on channel=9 note=60 velocity=100 time=2
note_off channel=9 note=60 velocity=64 time=30
note_off channel=9 note=36 velocity=64 time=32
note_off channel=9 note=37 velocity=64 time=2
note_on channel=9 note=63 velocity=100 time=0
note_off channel=9 note=63 velocity=64 time=30
note_on channel=9 note=61 velocity=91 time=34
note_off channel=9 note=61 velocity=64 time=30
note_on channel=9 note=37 velocity=52 time=40
note_on channel=9 note=62 velocity=100 time=0
note_off channel=9 note=37 velocity=64 time=8
note_off channel=9 note=62 velocity=64 time=20
note_on channel=9 note=37 velocity=100 time=34
note_on channel=9 note=60 velocity=82 time=2
note_off channel=9 note=60 velocity=64 time=56
note_on channel=9 note=36 velocity=100 time=8
note_on channel=9 note=63 velocity=100 time=2
note_off channel=9 note=37 velocity=64 time=10
note_off channel=9 note=63 velocity=64 time=16
note_off channel=9 note=36 velocity=64 time=40
note_on channel=9 note=37 velocity=82 time=64
note_on channel=9 note=36 velocity=100 time=0
note_on channel=9 note=63 velocity=109 time=2
note_off channel=9 note=63 velocity=64 time=28
note_off channel=9 note=36 velocity=64 time=6
note_on channel=9 note=36 velocity=100 time=28
note_on channel=9 note=61 velocity=91 time=0
note_off channel=9 note=37 velocity=64 time=6
note_off channel=9 note=61 velocity=64 time=42
note_off channel=9 note=36 velocity=64 time=18
note_on channel=9 note=37 velocity=82 time=64
note_on channel=9 note=75 velocity=32 time=0
note_off channel=9 note=75 velocity=64 time=56
note_on channel=9 note=36 velocity=100 time=12
note_off channel=9 note=37 velocity=64 time=2
note_off channel=9 note=36 velocity=64 time=32
note_on channel=9 note=36 velocity=82 time=32
note_on channel=9 note=75 velocity=60 time=0
note_off channel=9 note=75 velocity=64 time=42
note_on channel=9 note=37 velocity=91 time=22
note_on channel=9 note=63 velocity=82 time=0
note_on channel=9 note=75 velocity=52 time=2
note_off channel=9 note=36 velocity=64 time=18
note_off channel=9 note=63 velocity=64 time=8
note_on channel=9 note=63 velocity=60 time=36
note_off channel=9 note=75 velocity=64 time=2
note_off channel=9 note=63 velocity=64 time=12
note_off channel=9 note=37 velocity=64 time=32
note_on channel=9 note=63 velocity=82 time=22
note_off channel=9 note=63 velocity=64 time=10
note_on channel=9 note=37 velocity=91 time=54
note_on channel=9 note=62 velocity=82 time=2
note_on channel=9 note=75 velocity=60 time=0
note_off channel=9 note=62 velocity=64 time=40
note_off channel=9 note=75 velocity=64 time=6
note_off channel=9 note=37 velocity=64 time=22
note_on channel=9 note=62 velocity=91 time=64
note_off channel=9 note=62 velocity=64 time=30
note_on channel=9 note=37 velocity=82 time=38
note_on channel=9 note=63 velocity=100 time=0
note_on channel=9 note=75 velocity=40 time=0
note_off channel=9 note=63 velocity=64 time=30
note_off channel=9 note=37 velocity=64 time=4
note_off channel=9 note=75 velocity=64 time=14
note_on channel=9 note=37 velocity=64 time=18
note_off channel=9 note=37 velocity=64 time=66
note_on channel=9 note=37 velocity=91 time=64
note_on channel=9 note=75 velocity=48 time=0
note_off channel=9 note=75 velocity=64 time=44
note_on channel=9 note=36 velocity=100 time=24
note_on channel=9 note=63 velocity=100 time=2
note_off channel=9 note=37 velocity=64 time=2
note_off channel=9 note=63 velocity=64 time=24
note_off channel=9 note=36 velocity=64 time=6
note_on channel=9 note=36 velocity=82 time=30
note_on channel=9 note=75 velocity=52 time=0
note_off channel=9 note=75 velocity=64 time=32
note_on channel=9 note=37 velocity=82 time=34
note_on channel=9 note=63 velocity=100 time=2
note_on channel=9 note=75 velocity=60 time=0
note_off channel=9 note=36 velocity=64 time=10
note_off channel=9 note=63 velocity=64 time=14
note_off channel=9 note=75 velocity=64 time=42
note_off channel=9 note=37 velocity=64 time=20
note_on channel=9 note=36 velocity=100 time=46
note_on channel=9 note=63 velocity=82 time=0
note_off channel=9 note=63 velocity=64 time=6
note_on channel=9 note=37 velocity=91 time=60
note_on channel=9 note=62 velocity=64 time=0
note_on channel=9 note=64 velocity=36 time=0
note_on channel=9 note=75 velocity=52 time=0
note_off channel=9 note=36 velocity=64 time=6
note_off channel=9 note=64 velocity=64 time=0
note_off channel=9 note=62 velocity=64 time=10
note_off channel=9 note=75 velocity=64 time=36
note_off channel=9 note=37 velocity=64 time=8
note_on channel=9 note=62 velocity=91 time=4
note_off channel=9 note=62 velocity=64 time=10
note_on channel=9 note=37 velocity=64 time=54
note_on channel=9 note=62 velocity=82 time=0
note_on channel=9 note=75 velocity=52 time=0
note_off channel=9 note=62 velocity=64 time=12
note_off channel=9 note=37 velocity=64 time=16
note_off channel=9 note=75 velocity=64 time=0
note_on channel=9 note=37 velocity=82 time=38
note_on channel=9 note=63 velocity=100 time=2
note_on channel=9 note=75 velocity=52 time=0
note_off channel=9 note=63 velocity=64 time=4
note_off channel=9 note=75 velocity=64 time=34
note_on channel=9 note=63 velocity=73 time=22
note_off channel=9 note=63 velocity=64 time=16
note_off channel=9 note=37 velocity=64 time=30
note_on channel=9 note=63 velocity=100 time=22
note_off channel=9 note=63 velocity=64 time=12
note_on channel=9 note=37 velocity=82 time=52
note_on channel=9 note=62 velocity=60 time=0
note_on channel=9 note=75 velocity=64 time=0
note_off channel=9 note=62 velocity=64 time=30
note_off channel=9 note=75 velocity=64 time=16
note_on channel=9 note=36 velocity=100 time=22
note_on channel=9 note=63 velocity=91 time=0
note_off channel=9 note=37 velocity=64 time=2
note_off channel=9 note=63 velocity=64 time=16
note_off channel=9 note=36 velocity=64 time=20
note_on channel=9 note=36 velocity=82 time=28
note_on channel=9 note=63 velocity=91 time=0
note_on channel=9 note=75 velocity=64 time=0
note_off channel=9 note=75 velocity=64 time=26
note_off channel=9 note=63 velocity=64 time=0
note_on channel=9 note=37 velocity=91 time=40
note_on channel=9 note=75 velocity=52 time=2
note_off channel=9 note=36 velocity=64 time=26
note_off channel=9 note=75 velocity=64 time=14
note_off channel=9 note=37 velocity=64 time=46
note_on channel=9 note=36 velocity=100 time=46
note_on channel=9 note=63 velocity=109 time=0
note_off channel=9 note=63 velocity=64 time=22
note_off channel=9 note=36 velocity=64 time=46
note_on channel=9 note=37 velocity=73 time=0
note_on channel=9 note=75 velocity=48 time=0
note_off channel=9 note=75 velocity=64 time=42
note_off channel=9 note=37 velocity=64 time=20
note_on channel=9 note=36 velocity=91 time=6
note_on channel=9 note=62 velocity=100 time=0
note_off channel=9 note=62 velocity=64 time=24
note_off channel=9 note=36 velocity=64 time=52
note_on channel=9 note=37 velocity=91 time=54
note_on channel=9 note=63 velocity=100 time=2
note_on channel=9 note=75 velocity=52 time=0
note_off channel=9 note=63 velocity=64 time=12
note_off channel=9 note=75 velocity=64 time=20
note_off channel=9 note=37 velocity=64 time=6
note_on channel=9 note=37 velocity=64 time=28
note_on channel=9 note=63 velocity=91 time=2
note_off channel=9 note=63 velocity=64 time=32
note_off channel=9 note=37 velocity=64 time=24
note_on channel=9 note=36 velocity=100 time=8
note_off channel=9 note=36 velocity=64 time=34
note_on channel=9 note=37 velocity=91 time=30
note_on channel=9 note=36 velocity=82 time=0
note_on channel=9 note=75 velocity=60 time=2
note_off channel=9 note=36 velocity=64 time=34
note_off channel=9 note=75 velocity=64 time=8
note_off channel=9 note=37 velocity=64 time=24
note_on channel=9 note=36 velocity=91 time=0
note_on channel=9 note=63 velocity=91 time=0
note_off channel=9 note=63 velocity=64 time=16
note_off channel=9 note=36 velocity=64 time=46
note_on channel=9 note=63 velocity=64 time=4
note_on channel=9 note=75 velocity=56 time=2
note_off channel=9 note=63 velocity=64 time=12
note_off channel=9 note=75 velocity=64 time=14
note_on channel=9 note=37 velocity=91 time=42
note_on channel=9 note=36 velocity=91 time=0
note_on channel=9 note=62 velocity=82 time=0
note_on channel=9 note=75 velocity=56 time=0
note_off channel=9 note=62 velocity=64 time=8
note_off channel=9 note=75 velocity=64 time=52
note_on channel=9 note=62 velocity=82 time=4
note_off channel=9 note=36 velocity=64 time=2
note_off channel=9 note=62 velocity=64 time=14
note_off channel=9 note=37 velocity=64 time=26
note_on channel=9 note=36 velocity=82 time=30
note_on channel=9 note=63 velocity=100 time=0
note_off channel=9 note=63 velocity=64 time=8
note_off channel=9 note=36 velocity=64 time=50
note_on channel=9 note=37 velocity=91 time=8
note_on channel=9 note=63 velocity=91 time=0
note_on channel=9 note=75 velocity=44 time=2
note_off channel=9 note=63 velocity=64 time=28
note_off channel=9 note=75 velocity=64 time=18
note_on channel=9 note=36 velocity=91 time=18
note_off channel=9 note=37 velocity=64 time=8
note_on channel=9 note=63 velocity=82 time=54
note_on channel=9 note=75 velocity=48 time=0
note_off channel=9 note=36 velocity=64 time=2
note_off channel=9 note=63 velocity=64 time=4
note_off channel=9 note=75 velocity=64 time=12
note_on channel=9 note=37 velocity=73 time=48
note_on channel=9 note=63 velocity=109 time=0
note_on channel=9 note=75 velocity=52 time=0
note_off channel=9 note=37 velocity=64 time=18
note_off channel=9 note=75 velocity=64 time=0
note_off channel=9 note=63 velocity=64 time=4
note_on channel=9 note=37 velocity=91 time=42
note_on channel=9 note=75 velocity=52 time=0
note_off channel=9 note=75 velocity=64 time=58
note_on channel=9 note=62 velocity=100 time=8
note_off channel=9 note=37 velocity=64 time=6
note_off channel=9 note=62 velocity=64 time=8
note_on channel=9 note=62 velocity=100 time=52
note_off channel=9 note=62 velocity=64 time=20
note_on channel=9 note=37 velocity=91 time=50
note_on channel=9 note=36 velocity=100 time=0
note_on channel=9 note=63 velocity=100 time=0
note_on channel=9 note=75 velocity=52 time=0
note_off channel=9 note=63 velocity=64 time=18
note_off channel=9 note=37 velocity=64 time=10
note_off channel=9 note=36 velocity=64 time=2
note_off channel=9 note=75 velocity=64 time=16
note_on channel=9 note=37 velocity=73 time=18
note_on channel=9 note=36 velocity=91 time=0
note_off channel=9 note=36 velocity=64 time=34
note_off channel=9 note=37 velocity=64 time=8
note_on channel=9 note=36 velocity=91 time=22
note_off channel=9 note=36 velocity=64 time=56
note_on channel=9 note=37 velocity=100 time=10
note_on channel=9 note=62 velocity=28 time=0
note_off channel=9 note=62 velocity=64 time=16
note_off channel=9 note=37 velocity=64 time=50
note_on channel=9 note=36 velocity=91 time=0
note_on channel=9 note=62 velocity=30 time=0
note_off channel=9 note=62 velocity=64 time=16
note_off channel=9 note=36 velocity=64 time=46
note_on channel=9 note=62 velocity=82 time=4
note_off channel=9 note=62 velocity=64 time=30
note_on channel=9 note=37 velocity=91 time=34
note_on channel=9 note=36 velocity=82 time=0
note_on channel=9 note=62 velocity=73 time=2
note_on channel=9 note=75 velocity=44 time=0
note_off channel=9 note=62 velocity=64 time=30
note_off channel=9 note=75 velocity=64 time=4
note_off channel=9 note=37 velocity=64 time=2
note_on channel=9 note=37 velocity=73 time=28
note_on channel=9 note=63 velocity=56 time=2
note_on channel=9 note=75 velocity=52 time=0
note_off channel=9 note=36 velocity=64 time=4
note_off channel=9 note=63 velocity=64 time=12
note_off channel=9 note=75 velocity=64 time=34
note_on channel=9 note=63 velocity=44 time=18
note_off channel=9 note=37 velocity=64 time=2
note_off channel=9 note=63 velocity=64 time=18
note_on channel=9 note=37 velocity=91 time=46
note_on channel=9 note=62 velocity=64 time=0
note_off channel=9 note=62 velocity=64 time=32
note_on channel=9 note=62 velocity=73 time=30
note_on channel=9 note=75 velocity=60 time=2
note_off channel=9 note=37 velocity=64 time=6
note_off channel=9 note=62 velocity=64 time=32
note_on channel=9 note=37 velocity=82 time=26
note_off channel=9 note=75 velocity=64 time=14
note_off channel=9 note=37 velocity=64 time=58
note_on channel=9 note=37 velocity=82 time=60
note_on channel=9 note=63 velocity=82 time=0
note_on channel=9 note=75 velocity=48 time=2
note_off channel=9 note=63 velocity=64 time=36
note_off channel=9 note=75 velocity=64 time=24
note_on channel=9 note=63 velocity=64 time=4
note_off channel=9 note=37 velocity=64 time=10
note_off channel=9 note=63 velocity=64 time=10
note_on channel=9 note=37 velocity=82 time=46
note_on channel=9 note=75 velocity=44 time=0
note_off channel=9 note=75 velocity=64 time=32
note_off channel=9 note=37 velocity=64 time=2
note_on channel=9 note=37 velocity=82 time=36
note_on channel=9 note=36 velocity=82 time=0
note_on channel=9 note=63 velocity=91 time=0
note_on channel=9 note=75 velocity=60 time=2
note_off channel=9 note=36 velocity=64 time=28
note_off channel=9 note=63 velocity=64 time=8
note_off channel=9 note=75 velocity=64 time=24
note_on channel=9 note=36 velocity=82 time=4
note_off channel=9 note=37 velocity=64 time=12
note_off channel=9 note=36 velocity=64 time=28
note_on channel=9 note=36 velocity=73 time=28
note_on channel=9 note=62 velocity=48 time=0
note_off channel=9 note=62 velocity=64 time=10
note_off channel=9 note=36 velocity=64 time=48
note_on channel=9 note=62 velocity=31 time=6
note_off channel=9 note=62 velocity=64 time=16
note_on channel=9 note=37 velocity=100 time=54
note_on channel=9 note=36 velocity=82 time=0
note_on channel=9 note=62 velocity=91 time=0
note_off channel=9 note=62 velocity=64 time=28
note_off channel=9 note=37 velocity=64 time=2
note_off channel=9 note=36 velocity=64 time=24
note_on channel=9 note=37 velocity=64 time=8
note_on channel=9 note=62 velocity=82 time=0
note_off channel=9 note=62 velocity=64 time=22
note_off channel=9 note=37 velocity=64 time=30
note_on channel=9 note=36 velocity=91 time=14
note_on channel=9 note=63 velocity=64 time=0
note_on channel=9 note=75 velocity=56 time=0
note_off channel=9 note=63 velocity=64 time=14
note_off channel=9 note=75 velocity=64 time=30
note_on channel=9 note=37 velocity=100 time=20
note_on channel=9 note=63 velocity=29 time=0
note_on channel=9 note=75 velocity=48 time=0
note_off channel=9 note=36 velocity=64 time=2
note_off channel=9 note=63 velocity=64 time=12
note_off channel=9 note=75 velocity=64 time=52
note_off channel=9 note=37 velocity=64 time=12
note_on channel=9 note=62 velocity=73 time=54
note_off channel=9 note=62 velocity=64 time=24
note_on channel=9 note=62 velocity=91 time=40
note_on channel=9 note=75 velocity=52 time=0
note_off channel=9 note=62 velocity=64 time=30
note_off channel=9 note=75 velocity=64 time=16
note_on channel=9 note=62 velocity=73 time=20
note_off channel=9 note=62 velocity=64 time=22
note_on channel=9 note=37 velocity=100 time=46
note_on channel=9 note=63 velocity=52 time=0
note_off channel=9 note=63 velocity=64 time=8
note_off channel=9 note=37 velocity=64 time=24
note_on channel=9 note=37 velocity=73 time=32
note_on channel=9 note=63 velocity=73 time=0
note_on channel=9 note=75 velocity=56 time=0
note_off channel=9 note=63 velocity=64 time=22
note_off channel=9 note=75 velocity=64 time=42
note_off channel=9 note=37 velocity=64 time=4
note_on channel=9 note=75 velocity=56 time=62
note_off channel=9 note=75 velocity=64 time=36
note_on channel=9 note=37 velocity=91 time=32
note_on channel=9 note=36 velocity=100 time=0
note_on channel=9 note=62 velocity=16 time=0
note_on channel=9 note=75 velocity=60 time=0
note_off channel=9 note=62 velocity=64 time=2
note_off channel=9 note=36 velocity=64 time=32
note_off channel=9 note=37 velocity=64 time=26
note_on channel=9 note=36 velocity=100 time=6
note_on channel=9 note=62 velocity=60 time=0
note_off channel=9 note=75 velocity=64 time=2
note_off channel=9 note=62 velocity=64 time=12
note_off channel=9 note=36 velocity=64 time=22
note_on channel=9 note=36 velocity=64 time=30
note_off channel=9 note=36 velocity=64 time=62
note_on channel=9 note=62 velocity=73 time=2
note_off channel=9 note=62 velocity=64 time=12
note_on channel=9 note=37 velocity=100 time=56
note_on channel=9 note=36 velocity=91 time=0
note_on channel=9 note=62 velocity=100 time=0
note_off channel=9 note=62 velocity=64 time=18
note_off channel=9 note=36 velocity=64 time=38
note_off channel=9 note=37 velocity=64 time=2
note_on channel=9 note=62 velocity=91 time=10
note_off channel=9 note=62 velocity=64 time=8
note_on channel=9 note=36 velocity=100 time=56
note_on channel=9 note=62 velocity=109 time=0
note_off channel=9 note=62 velocity=64 time=32
note_on channel=9 note=37 velocity=100 time=34
note_on channel=9 note=75 velocity=56 time=0
note_off channel=9 note=36 velocity=64 time=6
note_off channel=9 note=75 velocity=64 time=62
note_on channel=9 note=63 velocity=56 time=0
note_off channel=9 note=63 velocity=64 time=12
note_off channel=9 note=37 velocity=64 time=4
note_on channel=9 note=63 velocity=73 time=48
note_off channel=9 note=63 velocity=64 time=16
note_on channel=9 note=37 velocity=100 time=48
note_on channel=9 note=63 velocity=91 time=2
note_on channel=9 note=75 velocity=52 time=0
note_off channel=9 note=63 velocity=64 time=26
note_off channel=9 note=37 velocity=64 time=8
note_off channel=9 note=75 velocity=64 time=0
note_on channel=9 note=37 velocity=91 time=30
note_on channel=9 note=62 velocity=73 time=0
note_on channel=9 note=75 velocity=56 time=0
note_off channel=9 note=62 velocity=64 time=16
note_off channel=9 note=75 velocity=64 time=46
note_off channel=9 note=37 velocity=64 time=2
note_on channel=9 note=62 velocity=82 time=2
note_off channel=9 note=62 velocity=64 time=26
note_on channel=9 note=37 velocity=91 time=42
note_on channel=9 note=62 velocity=100 time=0
note_on channel=9 note=75 velocity=52 time=0
note_off channel=9 note=62 velocity=64 time=34
note_off channel=9 note=37 velocity=64 time=30
note_off channel=9 note=75 velocity=64 time=2
note_on channel=9 note=37 velocity=100 time=60
note_on channel=9 note=63 velocity=82 time=2
note_on channel=9 note=75 velocity=56 time=0
note_off channel=9 note=63 velocity=64 time=24
note_off channel=9 note=75 velocity=64 time=16
note_on channel=9 note=36 velocity=100 time=24
note_on channel=9 note=63 velocity=73 time=2
note_on channel=9 note=75 velocity=56 time=0
note_off channel=9 note=37 velocity=64 time=12
note_off channel=9 note=63 velocity=64 time=12
note_off channel=9 note=36 velocity=64 time=16
note_on channel=9 note=36 velocity=82 time=26
note_off channel=9 note=75 velocity=64 time=14
note_off channel=9 note=36 velocity=64 time=20
note_on channel=9 note=36 velocity=82 time=34
note_on channel=9 note=62 velocity=48 time=0
note_off channel=9 note=62 velocity=64 time=16
note_off channel=9 note=36 velocity=64 time=46
note_on channel=9 note=62 velocity=73 time=2
note_off channel=9 note=62 velocity=64 time=14
note_on channel=9 note=37 velocity=100 time=56
note_on channel=9 note=36 velocity=100 time=0
note_on channel=9 note=62 velocity=100 time=0
note_off channel=9 note=62 velocity=64 time=28
note_off channel=9 note=37 velocity=64 time=14
note_off channel=9 note=36 velocity=64 time=16
note_on channel=9 note=62 velocity=91 time=8
note_off channel=9 note=62 velocity=64 time=12
note_on channel=9 note=36 velocity=91 time=56
note_on channel=9 note=62 velocity=100 time=0
note_off channel=9 note=62 velocity=64 time=34
note_on channel=9 note=37 velocity=100 time=28
note_on channel=9 note=63 velocity=73 time=2
note_off channel=9 note=63 velocity=64 time=10
note_off channel=9 note=36 velocity=64 time=6
note_off channel=9 note=37 velocity=64 time=50
note_on channel=9 note=63 velocity=48 time=0
note_on channel=9 note=75 velocity=56 time=2
note_off channel=9 note=63 velocity=64 time=12
note_off channel=9 note=75 velocity=64 time=36
note_on channel=9 note=63 velocity=82 time=16
note_off channel=9 note=63 velocity=64 time=10
note_on channel=9 note=62 velocity=100 time=56
note_on channel=9 note=75 velocity=48 time=0
note_off channel=9 note=75 velocity=64 time=34
note_off channel=9 note=62 velocity=64 time=6
note_on channel=9 note=62 velocity=91 time=24
note_on channel=9 note=75 velocity=56 time=0
note_off channel=9 note=62 velocity=64 time=14
note_off channel=9 note=75 velocity=64 time=38
note_on channel=9 note=37 velocity=100 time=16
note_on channel=9 note=62 velocity=60 time=2
note_off channel=9 note=62 velocity=64 time=24
note_off channel=9 note=37 velocity=64 time=16
note_on channel=9 note=37 velocity=91 time=26
note_on channel=9 note=63 velocity=82 time=0
note_on channel=9 note=75 velocity=60 time=0
note_off channel=9 note=63 velocity=64 time=22
note_off channel=9 note=37 velocity=64 time=40
note_on channel=9 note=63 velocity=73 time=6
note_off channel=9 note=75 velocity=64 time=2
note_off channel=9 note=63 velocity=64 time=14
note_on channel=9 note=63 velocity=36 time=50
note_on channel=9 note=75 velocity=56 time=0
note_off channel=9 note=63 velocity=64 time=6
note_off channel=9 note=75 velocity=64 time=30
note_on channel=9 note=37 velocity=100 time=32
note_on channel=9 note=36 velocity=91 time=0
note_on channel=9 note=63 velocity=100 time=2
note_on channel=9 note=75 velocity=60 time=0
note_off channel=9 note=37 velocity=64 time=28
note_off channel=9 note=36 velocity=64 time=6
note_off channel=9 note=63 velocity=64 time=0
note_off channel=9 note=75 velocity=64 time=22
note_on channel=9 note=36 velocity=64 time=10
note_off channel=9 note=36 velocity=64 time=32
note_on channel=9 note=36 velocity=91 time=34
note_on channel=9 note=62 velocity=100 time=0
note_off channel=9 note=62 velocity=64 time=32
note_off channel=9 note=36 velocity=64 time=22
note_on channel=9 note=62 velocity=60 time=12
note_off channel=9 note=62 velocity=64 time=28
note_on channel=9 note=36 velocity=91 time=38
note_on channel=9 note=63 velocity=100 time=0
note_off channel=9 note=36 velocity=64 time=28
note_off channel=9 note=63 velocity=64 time=10
note_on channel=9 note=36 velocity=73 time=28
note_on channel=9 note=37 velocity=91 time=64
note_on channel=9 note=63 velocity=82 time=2
note_off channel=9 note=36 velocity=64 time=6
note_off channel=9 note=63 velocity=64 time=26
note_off channel=9 note=37 velocity=64 time=14
note_on channel=9 note=75 velocity=56 time=18
note_off channel=9 note=75 velocity=64 time=48
note_on channel=9 note=37 velocity=91 time=18
note_on channel=9 note=36 velocity=82 time=0
note_on channel=9 note=62 velocity=82 time=0
note_off channel=9 note=62 velocity=64 time=18
note_off channel=9 note=37 velocity=64 time=4
note_off channel=9 note=36 velocity=64 time=16
note_on channel=9 note=37 velocity=100 time=30
note_on channel=9 note=36 velocity=73 time=0
note_on channel=9 note=62 velocity=60 time=0
note_off channel=9 note=62 velocity=64 time=18
note_off channel=9 note=37 velocity=64 time=16
note_off channel=9 note=36 velocity=64 time=0
note_on channel=9 note=36 velocity=91 time=34
note_on channel=9 note=63 velocity=91 time=0
note_off channel=9 note=63 velocity=64 time=28
note_off channel=9 note=36 velocity=64 time=8
note_on channel=9 note=37 velocity=64 time=28
note_on channel=9 note=36 velocity=82 time=0
note_on channel=9 note=63 velocity=91 time=0
note_on channel=9 note=75 velocity=52 time=0
note_off channel=9 note=63 velocity=64 time=22
note_off channel=9 note=37 velocity=64 time=22
note_off channel=9 note=75 velocity=64 time=2
note_off channel=9 note=36 velocity=64 time=12
note_on channel=9 note=37 velocity=82 time=8
note_on channel=9 note=63 velocity=100 time=2
note_off channel=9 note=63 velocity=64 time=20
note_off channel=9 note=37 velocity=64 time=18
note_on channel=9 note=36 velocity=91 time=26
note_off channel=9 note=36 velocity=64 time=30
note_on channel=9 note=36 velocity=82 time=34
note_on channel=9 note=62 velocity=100 time=0
note_on channel=9 note=75 velocity=36 time=0
note_off channel=9 note=62 velocity=64 time=26
note_off channel=9 note=36 velocity=64 time=26
note_off channel=9 note=75 velocity=64 time=0
note_on channel=9 note=37 velocity=82 time=14
note_off channel=9 note=37 velocity=64 time=28
note_on channel=9 note=37 velocity=73 time=40
note_on channel=9 note=36 velocity=91 time=0
note_off channel=9 note=36 velocity=64 time=34
note_off channel=9 note=37 velocity=64 time=16
note_on channel=9 note=36 velocity=82 time=16
note_on channel=9 note=75 velocity=56 time=0
note_off channel=9 note=75 velocity=64 time=52
note_on channel=9 note=37 velocity=91 time=16
note_on channel=9 note=63 velocity=91 time=0
note_off channel=9 note=36 velocity=64 time=2
note_off channel=9 note=63 velocity=64 time=16
note_off channel=9 note=37 velocity=64 time=8
note_on channel=9 note=63 velocity=60 time=38
note_off channel=9 note=63 velocity=64 time=14
note_on channel=9 note=62 velocity=91 time=52
note_off channel=9 note=62 velocity=64 time=16
note_on channel=9 note=37 velocity=100 time=46
note_on channel=9 note=62 velocity=64 time=2
note_off channel=9 note=62 velocity=64 time=16
note_off channel=9 note=37 velocity=64 time=22
note_on channel=9 note=36 velocity=91 time=28
note_on channel=9 note=63 velocity=91 time=0
note_off channel=9 note=63 velocity=64 time=24
note_off channel=9 note=36 velocity=64 time=10
note_on channel=9 note=36 velocity=91 time=30
note_on channel=9 note=63 velocity=73 time=0
note_off channel=9 note=63 velocity=64 time=16
note_off channel=9 note=36 velocity=64 time=40
note_on channel=9 note=37 velocity=91 time=12
note_on channel=9 note=63 velocity=91 time=0
note_off channel=9 note=37 velocity=64 time=24
note_off channel=9 note=63 velocity=64 time=2
note_on channel=9 note=37 velocity=73 time=40
note_on channel=9 note=36 velocity=82 time=0
note_off channel=9 note=37 velocity=64 time=34
note_off channel=9 note=36 velocity=64 time=0
note_on channel=9 note=36 velocity=73 time=34
note_on channel=9 note=62 velocity=100 time=2
note_off channel=9 note=62 velocity=64 time=20
note_off channel=9 note=36 velocity=64 time=30
note_on channel=9 note=37 velocity=82 time=12
note_on channel=9 note=75 velocity=64 time=2
note_off channel=9 note=75 velocity=64 time=32
note_off channel=9 note=37 velocity=64 time=2
note_on channel=9 note=36 velocity=91 time=30
note_on channel=9 note=63 velocity=73 time=0
note_off channel=9 note=63 velocity=64 time=18
note_off channel=9 note=36 velocity=64 time=16
note_on channel=9 note=37 velocity=64 time=34
note_on channel=9 note=36 velocity=82 time=0
note_on channel=9 note=63 velocity=82 time=0
note_off channel=9 note=37 velocity=64 time=16
note_off channel=9 note=63 velocity=64 time=4
note_off channel=9 note=36 velocity=64 time=42
note_on channel=9 note=37 velocity=91 time=8
note_on channel=9 note=63 velocity=91 time=0
note_off channel=9 note=63 velocity=64 time=26
note_off channel=9 note=37 velocity=64 time=6
note_on channel=9 note=63 velocity=64 time=34
note_on channel=9 note=75 velocity=64 time=0
note_off channel=9 note=63 velocity=64 time=16
note_off channel=9 note=75 velocity=64 time=20
note_on channel=9 note=62 velocity=100 time=32
note_off channel=9 note=62 velocity=64 time=20
note_on channel=9 note=37 velocity=91 time=46
note_on channel=9 note=75 velocity=64 time=0
note_off channel=9 note=75 velocity=64 time=28
note_off channel=9 note=37 velocity=64 time=6
note_on channel=9 note=62 velocity=100 time=30
note_off channel=9 note=62 velocity=64 time=24
note_on channel=9 note=37 velocity=91 time=108
note_on channel=9 note=36 velocity=91 time=0
note_off channel=9 note=37 velocity=64 time=22
note_off channel=9 note=36 velocity=64 time=8
note_on channel=9 note=37 velocity=73 time=36
note_on channel=9 note=36 velocity=73 time=2
note_off channel=9 note=36 velocity=64 time=30
note_off channel=9 note=37 velocity=64 time=8
note_on channel=9 note=36 velocity=82 time=26
note_on channel=9 note=63 velocity=73 time=2
note_off channel=9 note=63 velocity=64 time=24
note_off channel=9 note=36 velocity=64 time=18
note_on channel=9 note=37 velocity=73 time=24
note_on channel=9 note=36 velocity=82 time=0
note_on channel=9 note=63 velocity=64 time=0
note_off channel=9 note=63 velocity=64 time=12
note_off channel=9 note=37 velocity=64 time=28
note_on channel=9 note=63 velocity=82 time=26
note_off channel=9 note=36 velocity=64 time=2
note_off channel=9 note=63 velocity=64 time=16
note_on channel=9 note=37 velocity=91 time=46
note_on channel=9 note=36 velocity=91 time=2
note_off channel=9 note=37 velocity=64 time=24
note_off channel=9 note=36 velocity=64 time=2
note_on channel=9 note=36 velocity=91 time=36
note_on channel=9 note=62 velocity=100 time=0
note_off channel=9 note=62 velocity=64 time=14
note_off channel=9 note=36 velocity=64 time=32
note_on channel=9 note=62 velocity=16 time=20
note_on channel=9 note=75 velocity=73 time=0
note_off channel=9 note=62 velocity=64 time=1
note_off channel=9 note=75 velocity=64 time=29
note_on channel=9 note=37 velocity=91 time=36
note_on channel=9 note=36 velocity=91 time=0
note_on channel=9 note=63 velocity=100 time=0
note_off channel=9 note=37 velocity=64 time=20
note_off channel=9 note=36 velocity=64 time=10
note_off channel=9 note=63 velocity=64 time=0
note_on channel=9 note=36 velocity=82 time=34
note_off channel=9 note=36 velocity=64 time=58
note_on channel=9 note=37 velocity=91 time=8
note_on channel=9 note=63 velocity=91 time=2
note_on channel=9 note=75 velocity=48 time=2
note_off channel=9 note=37 velocity=64 time=16
note_off channel=9 note=63 velocity=64 time=10
note_off channel=9 note=75 velocity=64 time=18
note_on channel=9 note=37 velocity=82 time=16
note_off channel=9 note=37 velocity=64 time=28
note_on channel=9 note=37 velocity=91 time=104
note_on channel=9 note=62 velocity=73 time=2
note_off channel=9 note=62 velocity=64 time=20
note_off channel=9 note=37 velocity=64 time=26
note_on channel=9 note=36 velocity=100 time=20
note_on channel=9 note=62 velocity=100 time=0
note_off channel=9 note=62 velocity=64 time=24
note_off channel=9 note=36 velocity=64 time=6
note_on channel=9 note=36 velocity=73 time=32
note_on channel=9 note=63 velocity=82 time=2
note_on channel=9 note=75 velocity=48 time=0
note_off channel=9 note=63 velocity=64 time=16
note_off channel=9 note=75 velocity=64 time=26
note_off channel=9 note=36 velocity=64 time=12
note_on channel=9 note=37 velocity=82 time=12
note_on channel=9 note=63 velocity=82 time=0
note_off channel=9 note=37 velocity=64 time=24
note_off channel=9 note=63 velocity=64 time=0
note_on channel=9 note=36 velocity=82 time=42
note_off channel=9 note=36 velocity=64 time=26
note_on channel=9 note=37 velocity=82 time=40
note_on channel=9 note=36 velocity=82 time=0
note_on channel=9 note=63 velocity=91 time=0
note_off channel=9 note=63 velocity=64 time=20
note_off channel=9 note=37 velocity=64 time=8
note_off channel=9 note=36 velocity=64 time=24
note_on channel=9 note=37 velocity=73 time=14
note_on channel=9 note=63 velocity=73 time=2
note_on channel=9 note=75 velocity=73 time=0
note_off channel=9 note=63 velocity=64 time=14
note_off channel=9 note=75 velocity=64 time=10
note_off channel=9 note=37 velocity=64 time=8
note_on channel=9 note=36 velocity=91 time=34
note_on channel=9 note=62 velocity=100 time=0
note_on channel=9 note=60 velocity=56 time=0
note_off channel=9 note=60 velocity=64 time=8
note_off channel=9 note=62 velocity=64 time=6
note_off channel=9 note=36 velocity=64 time=14
note_on channel=9 note=37 velocity=91 time=38
note_on channel=9 note=36 velocity=73 time=0
note_on channel=9 note=62 velocity=73 time=0
note_on channel=9 note=75 velocity=52 time=0
note_off channel=9 note=62 velocity=64 time=20
note_off channel=9 note=75 velocity=64 time=2
note_off channel=9 note=36 velocity=64 time=4
note_off channel=9 note=37 velocity=64 time=4
note_on channel=9 note=36 velocity=82 time=34
note_on channel=9 note=63 velocity=100 time=2
note_off channel=9 note=63 velocity=64 time=28
note_off channel=9 note=36 velocity=64 time=8
note_on channel=9 note=36 velocity=82 time=28
note_on channel=9 note=63 velocity=56 time=0
note_off channel=9 note=63 velocity=64 time=14
note_off channel=9 note=36 velocity=64 time=30
note_on channel=9 note=37 velocity=82 time=22
note_on channel=9 note=62 velocity=109 time=0
note_off channel=9 note=62 velocity=64 time=14
note_off channel=9 note=37 velocity=64 time=20
note_on channel=9 note=63 velocity=91 time=32
note_off channel=9 note=63 velocity=64 time=28
note_on channel=9 note=37 velocity=82 time=38
note_off channel=9 note=37 velocity=64 time=30
note_on channel=9 note=37 velocity=82 time=38
note_off channel=9 note=37 velocity=64 time=20
note_on channel=9 note=63 velocity=91 time=44
note_off channel=9 note=63 velocity=64 time=22
note_on channel=9 note=63 velocity=73 time=42
note_off channel=9 note=63 velocity=64 time=8
note_on channel=9 note=37 velocity=82 time=58
note_on channel=9 note=36 velocity=100 time=0
note_on channel=9 note=62 velocity=91 time=0
note_off channel=9 note=62 velocity=64 time=26
note_off channel=9 note=37 velocity=64 time=8
note_off channel=9 note=36 velocity=64 time=0
note_on channel=9 note=36 velocity=64 time=34
note_on channel=9 note=62 velocity=52 time=0
note_on channel=9 note=75 velocity=56 time=0
note_off channel=9 note=62 velocity=64 time=16
note_off channel=9 note=75 velocity=64 time=22
note_off channel=9 note=36 velocity=64 time=16
note_on channel=9 note=63 velocity=91 time=14
note_off channel=9 note=63 velocity=64 time=28
note_on channel=9 note=37 velocity=100 time=38
note_on channel=9 note=36 velocity=91 time=0
note_off channel=9 note=36 velocity=64 time=30
note_off channel=9 note=37 velocity=64 time=12
note_on channel=9 note=36 velocity=82 time=24
note_on channel=9 note=63 velocity=91 time=0
note_on channel=9 note=75 velocity=73 time=0
note_off channel=9 note=63 velocity=64 time=22
note_off channel=9 note=75 velocity=64 time=2
note_off channel=9 note=36 velocity=64 time=32
note_on channel=9 note=37 velocity=82 time=6
note_on channel=9 note=63 velocity=73 time=0
note_off channel=9 note=63 velocity=64 time=18
note_off channel=9 note=37 velocity=64 time=18
note_on channel=9 note=36 velocity=91 time=34
note_on channel=9 note=62 velocity=100 time=0
note_off channel=9 note=62 velocity=64 time=24
note_off channel=9 note=36 velocity=64 time=6
note_on channel=9 note=37 velocity=91 time=34
note_on channel=9 note=36 velocity=82 time=2
note_on channel=9 note=75 velocity=56 time=0
note_off channel=9 note=36 velocity=64 time=26
note_off channel=9 note=37 velocity=64 time=2
note_off channel=9 note=75 velocity=64 time=8
note_on channel=9 note=37 velocity=82 time=26
note_on channel=9 note=36 velocity=82 time=0
note_on channel=9 note=62 velocity=109 time=0
note_off channel=9 note=62 velocity=64 time=26
note_off channel=9 note=36 velocity=64 time=12
note_off channel=9 note=37 velocity=64 time=2
note_on channel=9 note=36 velocity=73 time=26
note_on channel=9 note=62 velocity=73 time=0
note_off channel=9 note=62 velocity=64 time=28
note_off channel=9 note=36 velocity=64 time=22
note_on channel=9 note=62 velocity=100 time=18
note_off channel=9 note=62 velocity=64 time=26
note_on channel=9 note=37 velocity=82 time=40
note_on channel=9 note=63 velocity=82 time=0
note_off channel=9 note=63 velocity=64 time=22
note_off channel=9 note=37 velocity=64 time=10
note_on channel=9 note=63 velocity=91 time=32
note_off channel=9 note=63 velocity=64 time=20
note_on channel=9 note=63 velocity=73 time=46
note_on channel=9 note=75 velocity=64 time=2
note_off channel=9 note=63 velocity=64 time=8
note_off channel=9 note=75 velocity=64 time=26
note_on channel=9 note=37 velocity=100 time=30
note_on channel=9 note=62 velocity=100 time=2
note_off channel=9 note=62 velocity=64 time=24
note_off channel=9 note=37 velocity=64 time=16
note_on channel=9 note=36 velocity=100 time=90
note_off channel=9 note=36 velocity=64 time=40
note_on channel=9 note=37 velocity=100 time=26
note_on channel=9 note=36 velocity=73 time=0
note_off channel=9 note=37 velocity=64 time=48
note_off channel=9 note=36 velocity=64 time=4
note_on channel=9 note=62 velocity=100 time=14
note_off channel=9 note=62 velocity=64 time=24
note_on channel=9 note=37 velocity=91 time=42
note_on channel=9 note=36 velocity=82 time=0
note_on channel=9 note=62 velocity=73 time=0
note_off channel=9 note=37 velocity=64 time=22
note_off channel=9 note=62 velocity=64 time=4
note_off channel=9 note=36 velocity=64 time=4
note_on channel=9 note=36 velocity=91 time=36
note_on channel=9 note=62 velocity=100 time=0
note_off channel=9 note=62 velocity=64 time=26
note_off channel=9 note=36 velocity=64 time=30
note_on channel=9 note=37 velocity=91 time=8
note_on channel=9 note=63 velocity=73 time=0
note_on channel=9 note=75 velocity=73 time=0
note_off channel=9 note=63 velocity=64 time=18
note_off channel=9 note=75 velocity=64 time=22
note_off channel=9 note=37 velocity=64 time=6
note_on channel=9 note=37 velocity=100 time=24
note_on channel=9 note=36 velocity=100 time=0
note_on channel=9 note=63 velocity=100 time=0
note_off channel=9 note=63 velocity=64 time=22
note_off channel=9 note=36 velocity=64 time=14
note_off channel=9 note=37 velocity=64 time=14
note_on channel=9 note=36 velocity=91 time=14
note_on channel=9 note=63 velocity=64 time=0
note_off channel=9 note=63 velocity=64 time=20
note_off channel=9 note=36 velocity=64 time=20
note_on channel=9 note=36 velocity=91 time=28
note_on channel=9 note=63 velocity=100 time=0
note_on channel=9 note=75 velocity=73 time=0
note_off channel=9 note=63 velocity=64 time=28
note_off channel=9 note=36 velocity=64 time=8
note_off channel=9 note=75 velocity=64 time=0
note_on channel=9 note=37 velocity=82 time=28
note_on channel=9 note=36 velocity=82 time=0
note_on channel=9 note=63 velocity=73 time=0
note_off channel=9 note=63 velocity=64 time=12
note_off channel=9 note=37 velocity=64 time=24
note_off channel=9 note=36 velocity=64 time=14
note_on channel=9 note=62 velocity=109 time=16
note_off channel=9 note=62 velocity=64 time=28
note_on channel=9 note=37 velocity=91 time=34
note_on channel=9 note=62 velocity=100 time=2
note_off channel=9 note=62 velocity=64 time=34
note_off channel=9 note=37 velocity=64 time=6
note_on channel=9 note=75 velocity=73 time=90
note_off channel=9 note=75 velocity=64 time=32
note_on channel=9 note=37 velocity=91 time=34
note_on channel=9 note=62 velocity=100 time=0
note_off channel=9 note=62 velocity=64 time=26
note_off channel=9 note=37 velocity=64 time=32
note_on channel=9 note=62 velocity=91 time=8
note_off channel=9 note=62 velocity=64 time=22
note_on channel=9 note=36 velocity=82 time=44
note_on channel=9 note=63 velocity=100 time=0
note_off channel=9 note=63 velocity=64 time=34
note_off channel=9 note=36 velocity=64 time=2
note_on channel=9 note=37 velocity=91 time=32
note_on channel=9 note=36 velocity=91 time=0
note_on channel=9 note=63 velocity=91 time=0
note_off channel=9 note=63 velocity=64 time=30
note_off channel=9 note=36 velocity=64 time=22
note_off channel=9 note=37 velocity=64 time=2
note_on channel=9 note=63 velocity=100 time=14
note_off channel=9 note=63 velocity=64 time=30
note_on channel=9 note=36 velocity=100 time=36
note_on channel=9 note=75 velocity=64 time=0
note_off channel=9 note=75 velocity=64 time=28
note_off channel=9 note=36 velocity=64 time=4
note_on channel=9 note=37 velocity=100 time=36
note_on channel=9 note=36 velocity=64 time=0
note_on channel=9 note=62 velocity=100 time=2
note_off channel=9 note=62 velocity=64 time=26
note_off channel=9 note=37 velocity=64 time=6
note_on channel=9 note=37 velocity=73 time=32
note_on channel=9 note=62 velocity=82 time=0
note_off channel=9 note=62 velocity=64 time=24
note_off channel=9 note=37 velocity=64 time=22
note_off channel=9 note=36 velocity=64 time=8
note_on channel=9 note=63 velocity=100 time=10
note_off channel=9 note=63 velocity=64 time=30
note_on channel=9 note=37 velocity=91 time=36
note_on channel=9 note=63 velocity=73 time=2
note_off channel=9 note=63 velocity=64 time=30
note_off channel=9 note=37 velocity=64 time=8
note_on channel=9 note=36 velocity=91 time=28
note_on channel=9 note=63 velocity=100 time=0
note_off channel=9 note=63 velocity=64 time=30
note_off channel=9 note=36 velocity=64 time=4
note_on channel=9 note=37 velocity=82 time=28
note_on channel=9 note=36 velocity=91 time=2
note_on channel=9 note=75 velocity=56 time=0
note_off channel=9 note=75 velocity=64 time=24
note_off channel=9 note=37 velocity=64 time=16
note_off channel=9 note=36 velocity=64 time=22
note_on channel=9 note=62 velocity=100 time=4
note_off channel=9 note=62 velocity=64 time=32
note_on channel=9 note=36 velocity=100 time=32
note_on channel=9 note=62 velocity=82 time=2
note_off channel=9 note=62 velocity=64 time=24
note_off channel=9 note=36 velocity=64 time=8
note_on channel=9 note=37 velocity=82 time=32
note_on channel=9 note=36 velocity=82 time=2
note_on channel=9 note=62 velocity=91 time=0
note_off channel=9 note=62 velocity=64 time=26
note_off channel=9 note=37 velocity=64 time=4
note_off channel=9 note=36 velocity=64 time=34
note_on channel=9 note=62 velocity=73 time=0
note_off channel=9 note=62 velocity=64 time=32
note_on channel=9 note=36 velocity=82 time=38
note_off channel=9 note=36 velocity=64 time=30
note_on channel=9 note=37 velocity=100 time=32
note_on channel=9 note=36 velocity=82 time=0
note_off channel=9 note=36 velocity=64 time=40
note_on channel=9 note=36 velocity=100 time=30
note_on channel=9 note=63 velocity=100 time=0
note_off channel=9 note=37 velocity=64 time=4
note_off channel=9 note=63 velocity=64 time=26
note_off channel=9 note=36 velocity=64 time=30
note_on channel=9 note=37 velocity=91 time=4
note_on channel=9 note=63 velocity=56 time=0
note_on channel=9 note=75 velocity=64 time=0
note_off channel=9 note=63 velocity=64 time=12
note_off channel=9 note=37 velocity=64 time=10
note_off channel=9 note=75 velocity=64 time=20
note_on channel=9 note=36 velocity=91 time=24
note_on channel=9 note=63 velocity=100 time=0
note_off channel=9 note=63 velocity=64 time=26
note_off channel=9 note=36 velocity=64 time=14
note_on channel=9 note=37 velocity=91 time=26
note_on channel=9 note=36 velocity=100 time=2
note_on channel=9 note=63 velocity=82 time=0
note_on channel=9 note=75 velocity=44 time=0
note_off channel=9 note=63 velocity=64 time=24
note_off channel=9 note=75 velocity=64 time=12
note_off channel=9 note=36 velocity=64 time=22
note_off channel=9 note=37 velocity=64 time=2
note_on channel=9 note=62 velocity=100 time=4
note_off channel=9 note=62 velocity=64 time=26
note_on channel=9 note=37 velocity=73 time=40
note_on channel=9 note=62 velocity=91 time=2
note_off channel=9 note=62 velocity=64 time=30
note_off channel=9 note=37 velocity=64 time=14
note_on channel=9 note=63 velocity=100 time=24
note_off channel=9 note=63 velocity=64 time=26
note_on channel=9 note=37 velocity=82 time=38
note_on channel=9 note=63 velocity=100 time=2
note_off channel=9 note=63 velocity=64 time=36
note_off channel=9 note=37 velocity=64 time=18
note_on channel=9 note=37 velocity=73 time=10
note_off channel=9 note=37 velocity=64 time=34
note_on channel=9 note=37 velocity=91 time=98
note_on channel=9 note=62 velocity=100 time=2
note_on channel=9 note=75 velocity=48 time=0
note_off channel=9 note=62 velocity=64 time=22
note_off channel=9 note=75 velocity=64 time=22
note_off channel=9 note=37 velocity=64 time=6
note_on channel=9 note=37 velocity=91 time=16
note_on channel=9 note=62 velocity=73 time=0
note_off channel=9 note=62 velocity=64 time=16
note_off channel=9 note=37 velocity=64 time=44
note_on channel=9 note=63 velocity=100 time=4
note_off channel=9 note=63 velocity=64 time=30
note_on channel=9 note=63 velocity=100 time=34
note_off channel=9 note=63 velocity=64 time=26
note_on channel=9 note=37 velocity=82 time=40
note_on channel=9 note=36 velocity=100 time=0
note_off channel=9 note=37 velocity=64 time=34
note_off channel=9 note=36 velocity=64 time=0
note_on channel=9 note=37 velocity=82 time=34
note_on channel=9 note=36 velocity=82 time=0
note_off channel=9 note=36 velocity=64 time=32
note_off channel=9 note=37 velocity=64 time=24
note_on channel=9 note=36 velocity=100 time=12
note_on channel=9 note=62 velocity=100 time=0
note_off channel=9 note=62 velocity=64 time=28
note_off channel=9 note=36 velocity=64 time=10
note_on channel=9 note=37 velocity=100 time=24
note_on channel=9 note=36 velocity=82 time=0
note_on channel=9 note=62 velocity=60 time=0
note_on channel=9 note=75 velocity=64 time=0
note_off channel=9 note=62 velocity=64 time=18
note_off channel=9 note=75 velocity=64 time=12
note_off channel=9 note=36 velocity=64 time=22
note_off channel=9 note=37 velocity=64 time=14
note_on channel=9 note=63 velocity=91 time=4
note_off channel=9 note=63 velocity=64 time=24
note_on channel=9 note=37 velocity=100 time=40
note_on channel=9 note=36 velocity=82 time=0
note_on channel=9 note=63 velocity=100 time=0
note_off channel=9 note=36 velocity=64 time=36
note_off channel=9 note=63 velocity=64 time=2
note_on channel=9 note=36 velocity=100 time=28
note_off channel=9 note=37 velocity=64 time=6
note_on channel=9 note=37 velocity=91 time=58
note_on channel=9 note=75 velocity=73 time=0
note_off channel=9 note=75 velocity=64 time=30
note_off channel=9 note=37 velocity=64 time=10
note_off channel=9 note=36 velocity=64 time=8
note_on channel=9 note=37 velocity=82 time=18
note_on channel=9 note=62 velocity=100 time=0
note_off channel=9 note=62 velocity=64 time=26
note_off channel=9 note=37 velocity=64 time=34
note_on channel=9 note=62 velocity=82 time=6
note_on channel=9 note=75 velocity=73 time=0
note_off channel=9 note=62 velocity=64 time=20
note_off channel=9 note=75 velocity=64 time=10
note_on channel=9 note=36 velocity=91 time=36
note_on channel=9 note=62 velocity=100 time=2
note_off channel=9 note=62 velocity=64 time=24
note_off channel=9 note=36 velocity=64 time=16
note_on channel=9 note=37 velocity=100 time=22
note_on channel=9 note=36 velocity=82 time=2
note_on channel=9 note=62 velocity=73 time=0
note_off channel=9 note=62 velocity=64 time=16
note_off channel=9 note=37 velocity=64 time=38
note_off channel=9 note=36 velocity=64 time=8
note_on channel=9 note=63 velocity=91 time=4
note_off channel=9 note=63 velocity=64 time=24
note_on channel=9 note=36 velocity=100 time=42
note_off channel=9 note=36 velocity=64 time=30
note_on channel=9 note=37 velocity=100 time=38
note_on channel=9 note=36 velocity=91 time=0
note_on channel=9 note=62 velocity=100 time=0
note_off channel=9 note=62 velocity=64 time=26
note_off channel=9 note=37 velocity=64 time=26
note_on channel=9 note=62 velocity=82 time=14
note_on channel=9 note=75 velocity=60 time=0
note_off channel=9 note=36 velocity=64 time=6
note_off channel=9 note=62 velocity=64 time=18
note_off channel=9 note=75 velocity=64 time=8
note_on channel=9 note=37 velocity=82 time=36
note_on channel=9 note=36 velocity=82 time=0
note_on channel=9 note=62 velocity=100 time=0
note_off channel=9 note=62 velocity=64 time=18
note_off channel=9 note=37 velocity=64 time=10
note_off channel=9 note=36 velocity=64 time=6
note_on channel=9 note=37 velocity=82 time=28
note_on channel=9 note=36 velocity=82 time=2
note_on channel=9 note=63 velocity=100 time=0
note_off channel=9 note=63 velocity=64 time=30
note_off channel=9 note=36 velocity=64 time=6
note_off channel=9 note=37 velocity=64 time=8
note_on channel=9 note=36 velocity=100 time=28
note_off channel=9 note=36 velocity=64 time=62
control_change channel=9 control=7 value=120 time=640
note_on channel=9 note=36 velocity=40 time=2
note_off channel=9 note=36 velocity=64 time=42
note_on channel=9 note=63 velocity=21 time=18
note_off channel=9 note=63 velocity=64 time=34
note_on channel=9 note=36 velocity=44 time=8
note_on channel=9 note=37 velocity=40 time=2
note_on channel=9 note=63 velocity=27 time=10
note_off channel=9 note=36 velocity=64 time=44
note_off channel=9 note=63 velocity=64 time=0
note_off channel=9 note=37 velocity=64 time=6
note_on channel=9 note=62 velocity=52 time=8
note_off channel=9 note=62 velocity=64 time=36
note_on channel=9 note=36 velocity=44 time=82
note_on channel=9 note=63 velocity=32 time=0
note_off channel=9 note=63 velocity=64 time=42
note_on channel=9 note=37 velocity=44 time=22
note_off channel=9 note=36 velocity=64 time=2
note_off channel=9 note=37 velocity=64 time=66
note_on channel=9 note=37 velocity=32 time=110
note_off channel=9 note=37 velocity=64 time=104
note_on channel=9 note=36 velocity=52 time=82
note_off channel=9 note=36 velocity=64 time=56
note_on channel=9 note=63 velocity=26 time=4
note_off channel=9 note=63 velocity=64 time=40
note_on channel=9 note=36 velocity=48 time=8
note_on channel=9 note=63 velocity=36 time=2
note_off channel=9 note=63 velocity=64 time=44
note_on channel=9 note=62 velocity=48 time=20
note_on channel=9 note=37 velocity=44 time=4
note_off channel=9 note=36 velocity=64 time=8
note_off channel=9 note=62 velocity=64 time=22
note_off channel=9 note=37 velocity=64 time=50
note_on channel=9 note=63 velocity=31 time=36
note_off channel=9 note=63 velocity=64 time=42
note_on channel=9 note=36 velocity=48 time=26
note_on channel=9 note=37 velocity=30 time=14
note_off channel=9 note=36 velocity=64 time=42
note_off channel=9 note=37 velocity=64 time=12
note_on channel=9 note=36 velocity=48 time=46
note_off channel=9 note=36 velocity=64 time=72
note_on channel=9 note=36 velocity=52 time=186
note_off channel=9 note=36 velocity=64 time=52
note_on channel=9 note=63 velocity=44 time=12
note_off channel=9 note=63 velocity=64 time=30
note_on channel=9 note=37 velocity=27 time=8
note_on channel=9 note=36 velocity=52 time=2
note_on channel=9 note=63 velocity=27 time=16
note_off channel=9 note=63 velocity=64 time=30
note_off channel=9 note=37 velocity=64 time=10
note_off channel=9 note=36 velocity=64 time=12
note_on channel=9 note=62 velocity=44 time=4
note_off channel=9 note=62 velocity=64 time=38
note_on channel=9 note=36 velocity=52 time=72
note_on channel=9 note=63 velocity=30 time=2
note_off channel=9 note=63 velocity=64 time=44
note_off channel=9 note=36 velocity=64 time=20
note_on channel=9 note=37 velocity=25 time=0
note_off channel=9 note=37 velocity=64 time=64
note_on channel=9 note=37 velocity=44 time=124
note_off channel=9 note=37 velocity=64 time=52
note_on channel=9 note=36 velocity=52 time=126
note_off channel=9 note=36 velocity=64 time=48
note_on channel=9 note=63 velocity=27 time=20
note_off channel=9 note=63 velocity=64 time=34
note_on channel=9 note=36 velocity=48 time=6
note_on channel=9 note=63 velocity=30 time=24
note_off channel=9 note=36 velocity=64 time=38
note_off channel=9 note=63 velocity=64 time=0
note_on channel=9 note=37 velocity=36 time=12
note_on channel=9 note=62 velocity=40 time=6
note_off channel=9 note=62 velocity=64 time=34
note_off channel=9 note=37 velocity=64 time=26
note_on channel=9 note=63 velocity=40 time=58
note_off channel=9 note=63 velocity=64 time=38
note_on channel=9 note=36 velocity=48 time=26
note_off channel=9 note=36 velocity=64 time=68
note_on channel=9 note=37 velocity=44 time=122
note_off channel=9 note=37 velocity=64 time=82
note_on channel=9 note=36 velocity=60 time=98
note_off channel=9 note=36 velocity=64 time=58
note_on channel=9 note=63 velocity=27 time=12
note_off channel=9 note=63 velocity=64 time=32
note_on channel=9 note=36 velocity=52 time=8
note_on channel=9 note=63 velocity=29 time=20
note_off channel=9 note=63 velocity=64 time=36
note_on channel=9 note=37 velocity=31 time=18
note_on channel=9 note=62 velocity=31 time=0
note_off channel=9 note=36 velocity=64 time=10
note_off channel=9 note=62 velocity=64 time=28
note_off channel=9 note=37 velocity=64 time=28
note_on channel=9 note=36 velocity=52 time=46
note_on channel=9 note=63 velocity=31 time=6
note_off channel=9 note=63 velocity=64 time=32
note_off channel=9 note=36 velocity=64 time=22
note_on channel=9 note=37 velocity=31 time=20
note_off channel=9 note=37 velocity=64 time=84
note_on channel=9 note=37 velocity=32 time=92
note_off channel=9 note=37 velocity=64 time=72
note_on channel=9 note=36 velocity=48 time=98
note_off channel=9 note=36 velocity=64 time=54
note_on channel=9 note=63 velocity=16 time=12
note_off channel=9 note=63 velocity=64 time=46
note_on channel=9 note=36 velocity=44 time=4
note_on channel=9 note=63 velocity=26 time=8
note_off channel=9 note=63 velocity=64 time=42
note_off channel=9 note=36 velocity=64 time=14
note_on channel=9 note=62 velocity=40 time=0
note_on channel=9 note=37 velocity=31 time=8
note_off channel=9 note=62 velocity=64 time=40
note_off channel=9 note=37 velocity=64 time=48
note_on channel=9 note=63 velocity=40 time=32
note_off channel=9 note=63 velocity=64 time=54
note_on channel=9 note=36 velocity=48 time=20
note_off channel=9 note=36 velocity=64 time=58
note_on channel=9 note=36 velocity=48 time=48
note_on channel=9 note=37 velocity=36 time=58
note_off channel=9 note=36 velocity=64 time=8
note_off channel=9 note=37 velocity=64 time=80
note_on channel=9 note=36 velocity=52 time=110
note_off channel=9 note=36 velocity=64 time=54
note_on channel=9 note=63 velocity=16 time=8
note_on channel=9 note=36 velocity=48 time=44
note_off channel=9 note=63 velocity=64 time=52
note_on channel=9 note=37 velocity=29 time=8
note_off channel=9 note=36 velocity=64 time=2
note_on channel=9 note=62 velocity=48 time=4
note_off channel=9 note=62 velocity=64 time=44
note_off channel=9 note=37 velocity=64 time=18
note_on channel=9 note=36 velocity=31 time=44
note_on channel=9 note=63 velocity=36 time=0
note_off channel=9 note=63 velocity=64 time=44
note_off channel=9 note=36 velocity=64 time=18
note_on channel=9 note=37 velocity=32 time=110
note_off channel=9 note=37 velocity=64 time=70
note_on channel=9 note=36 velocity=36 time=192
note_on channel=9 note=63 velocity=16 time=12
note_off channel=9 note=63 velocity=64 time=10
note_off channel=9 note=36 velocity=64 time=26
note_on channel=9 note=36 velocity=44 time=62
note_on channel=9 note=63 velocity=27 time=2
note_off channel=9 note=63 velocity=64 time=42
note_off channel=9 note=36 velocity=64 time=18
note_on channel=9 note=37 velocity=32 time=0
note_on channel=9 note=63 velocity=36 time=10
note_off channel=9 note=63 velocity=64 time=34
note_off channel=9 note=37 velocity=64 time=36
note_on channel=9 note=63 velocity=40 time=40
note_off channel=9 note=63 velocity=64 time=26
note_on channel=9 note=62 velocity=31 time=50
note_on channel=9 note=36 velocity=36 time=2
note_off channel=9 note=62 velocity=64 time=32
note_off channel=9 note=36 velocity=64 time=18
note_on channel=9 note=63 velocity=28 time=54
note_on channel=9 note=36 velocity=48 time=0
note_on channel=9 note=37 velocity=27 time=6
note_off channel=9 note=63 velocity=64 time=14
note_off channel=9 note=36 velocity=64 time=48
note_off channel=9 note=37 velocity=64 time=0
note_on channel=9 note=63 velocity=30 time=4
note_off channel=9 note=63 velocity=64 time=22
note_on channel=9 note=63 velocity=31 time=88
note_off channel=9 note=63 velocity=64 time=32
note_on channel=9 note=36 velocity=36 time=40
note_on channel=9 note=63 velocity=29 time=62
note_off channel=9 note=36 velocity=64 time=2
note_off channel=9 note=63 velocity=64 time=32
note_on channel=9 note=63 velocity=56 time=18
note_off channel=9 note=63 velocity=64 time=40
note_on channel=9 note=37 velocity=28 time=24
note_on channel=9 note=62 velocity=56 time=6
note_off channel=9 note=62 velocity=64 time=36
note_on channel=9 note=63 velocity=44 time=80
note_off channel=9 note=63 velocity=64 time=40
note_off channel=9 note=37 velocity=64 time=18
note_on channel=9 note=63 velocity=44 time=16
note_off channel=9 note=63 velocity=64 time=28
note_on channel=9 note=63 velocity=52 time=34
note_off channel=9 note=63 velocity=64 time=30
note_on channel=9 note=63 velocity=56 time=26
note_off channel=9 note=63 velocity=64 time=30
note_on channel=9 note=62 velocity=60 time=34
note_on channel=9 note=37 velocity=24 time=8
note_off channel=9 note=62 velocity=64 time=32
note_on channel=9 note=36 velocity=48 time=142
note_off channel=9 note=37 velocity=64 time=18
note_off channel=9 note=36 velocity=64 time=34
note_on channel=9 note=36 velocity=36 time=62
note_on channel=9 note=37 velocity=19 time=52
note_off channel=9 note=36 velocity=64 time=6
note_on channel=9 note=63 velocity=44 time=0
note_off channel=9 note=63 velocity=64 time=32
note_on channel=9 note=63 velocity=40 time=30
note_off channel=9 note=63 velocity=64 time=26
note_on channel=9 note=63 velocity=64 time=34
note_off channel=9 note=63 velocity=64 time=22
note_on channel=9 note=62 velocity=60 time=50
note_on channel=9 note=36 velocity=40 time=0
note_off channel=9 note=62 velocity=64 time=22
note_off channel=9 note=36 velocity=64 time=44
note_off channel=9 note=37 velocity=64 time=0
note_on channel=9 note=63 velocity=48 time=48
note_off channel=9 note=63 velocity=64 time=14
note_on channel=9 note=37 velocity=23 time=56
note_on channel=9 note=63 velocity=48 time=2
note_off channel=9 note=63 velocity=64 time=22
note_on channel=9 note=63 velocity=60 time=82
note_off channel=9 note=63 velocity=64 time=28
note_on channel=9 note=36 velocity=29 time=32
note_off channel=9 note=37 velocity=64 time=24
note_off channel=9 note=36 velocity=64 time=50
note_on channel=9 note=63 velocity=52 time=30
note_off channel=9 note=63 velocity=64 time=32
note_on channel=9 note=37 velocity=27 time=34
note_on channel=9 note=63 velocity=19 time=12
note_off channel=9 note=63 velocity=64 time=14
note_on channel=9 note=63 velocity=36 time=38
note_off channel=9 note=63 velocity=64 time=24
note_on channel=9 note=63 velocity=32 time=32
note_off channel=9 note=63 velocity=64 time=20
note_on channel=9 note=62 velocity=60 time=50
note_off channel=9 note=37 velocity=64 time=30
note_off channel=9 note=62 velocity=64 time=2
note_on channel=9 note=37 velocity=25 time=148
note_on channel=9 note=63 velocity=56 time=120
note_off channel=9 note=63 velocity=64 time=32
note_on channel=9 note=63 velocity=32 time=40
note_on channel=9 note=36 velocity=32 time=2
note_off channel=9 note=63 velocity=64 time=18
note_off channel=9 note=37 velocity=64 time=20
note_off channel=9 note=36 velocity=64 time=14
note_on channel=9 note=63 velocity=48 time=8
note_off channel=9 note=63 velocity=64 time=30
note_on channel=9 note=36 velocity=32 time=22
note_on channel=9 note=63 velocity=48 time=6
note_off channel=9 note=63 velocity=64 time=20
note_off channel=9 note=36 velocity=64 time=44
note_on channel=9 note=37 velocity=26 time=2
note_on channel=9 note=62 velocity=60 time=8
note_off channel=9 note=62 velocity=64 time=24
note_off channel=9 note=37 velocity=64 time=10
note_on channel=9 note=63 velocity=36 time=80
note_off channel=9 note=63 velocity=64 time=30
note_on channel=9 note=37 velocity=30 time=32
note_on channel=9 note=36 velocity=32 time=8
note_on channel=9 note=63 velocity=48 time=4
note_off channel=9 note=63 velocity=64 time=16
note_off channel=9 note=36 velocity=64 time=32
note_on channel=9 note=63 velocity=52 time=56
note_on channel=9 note=36 velocity=40 time=4
note_off channel=9 note=63 velocity=64 time=22
note_off channel=9 note=36 velocity=64 time=42
note_on channel=9 note=62 velocity=44 time=2
note_off channel=9 note=37 velocity=64 time=4
note_off channel=9 note=62 velocity=64 time=48
note_on channel=9 note=37 velocity=32 time=66
note_off channel=9 note=37 velocity=64 time=60
control_change channel=9 control=7 value=120 time=2
note_on channel=9 note=36 velocity=40 time=2
note_off channel=9 note=36 velocity=64 time=44
note_on channel=9 note=63 velocity=21 time=20
note_off channel=9 note=63 velocity=64 time=32
note_on channel=9 note=36 velocity=44 time=10
note_on channel=9 note=37 velocity=40 time=2
note_on channel=9 note=63 velocity=27 time=10
note_off channel=9 note=36 velocity=64 time=44
note_off channel=9 note=63 velocity=64 time=0
note_off channel=9 note=37 velocity=64 time=4
note_on channel=9 note=62 velocity=52 time=8
note_off channel=9 note=62 velocity=64 time=36
note_on channel=9 note=36 velocity=44 time=82
note_on channel=9 note=63 velocity=32 time=2
note_off channel=9 note=63 velocity=64 time=40
note_off channel=9 note=36 velocity=64 time=24
note_on channel=9 note=37 velocity=44 time=0
note_off channel=9 note=37 velocity=64 time=66
note_on channel=9 note=37 velocity=32 time=110
note_off channel=9 note=37 velocity=64 time=104
note_on channel=9 note=36 velocity=52 time=82
note_off channel=9 note=36 velocity=64 time=56
note_on channel=9 note=63 velocity=26 time=6
note_off channel=9 note=63 velocity=64 time=38
note_on channel=9 note=36 velocity=48 time=8
note_on channel=9 note=63 velocity=36 time=4
note_off channel=9 note=63 velocity=64 time=44
note_on channel=9 note=62 velocity=48 time=20
note_on channel=9 note=37 velocity=44 time=2
note_off channel=9 note=36 velocity=64 time=10
note_off channel=9 note=62 velocity=64 time=22
note_off channel=9 note=37 velocity=64 time=48
note_on channel=9 note=63 velocity=31 time=36
note_off channel=9 note=63 velocity=64 time=44
note_on channel=9 note=36 velocity=48 time=26
note_on channel=9 note=37 velocity=30 time=12
note_off channel=9 note=36 velocity=64 time=42
note_off channel=9 note=37 velocity=64 time=12
note_on channel=9 note=36 velocity=48 time=48
note_off channel=9 note=36 velocity=64 time=70
note_on channel=9 note=36 velocity=52 time=188
note_off channel=9 note=36 velocity=64 time=52
note_on channel=9 note=63 velocity=44 time=10
note_off channel=9 note=63 velocity=64 time=32
note_on channel=9 note=37 velocity=27 time=8
note_on channel=9 note=36 velocity=52 time=2
note_on channel=9 note=63 velocity=27 time=14
note_off channel=9 note=63 velocity=64 time=30
note_off channel=9 note=37 velocity=64 time=10
note_off channel=9 note=36 velocity=64 time=14
note_on channel=9 note=62 velocity=44 time=4
note_off channel=9 note=62 velocity=64 time=36
note_on channel=9 note=36 velocity=52 time=74
note_on channel=9 note=63 velocity=30 time=0
note_off channel=9 note=63 velocity=64 time=44
note_off channel=9 note=36 velocity=64 time=20
note_on channel=9 note=37 velocity=25 time=0
note_off channel=9 note=37 velocity=64 time=66
note_on channel=9 note=37 velocity=44 time=122
note_off channel=9 note=37 velocity=64 time=52
note_on channel=9 note=36 velocity=52 time=128
note_off channel=9 note=36 velocity=64 time=48
note_on channel=9 note=63 velocity=27 time=20
note_off channel=9 note=63 velocity=64 time=34
note_on channel=9 note=36 velocity=48 time=4
note_on channel=9 note=63 velocity=30 time=24
note_off channel=9 note=63 velocity=64 time=38
note_off channel=9 note=36 velocity=64 time=2
note_on channel=9 note=37 velocity=36 time=12
note_on channel=9 note=62 velocity=40 time=4
note_off channel=9 note=62 velocity=64 time=36
note_off channel=9 note=37 velocity=64 time=26
note_on channel=9 note=63 velocity=40 time=56
note_off channel=9 note=63 velocity=64 time=38
note_on channel=9 note=36 velocity=48 time=28
note_off channel=9 note=36 velocity=64 time=68
note_on channel=9 note=37 velocity=44 time=120
note_off channel=9 note=37 velocity=64 time=82
note_on channel=9 note=36 velocity=60 time=98
note_off channel=9 note=36 velocity=64 time=58
note_on channel=9 note=63 velocity=27 time=14
note_off channel=9 note=63 velocity=64 time=30
note_on channel=9 note=36 velocity=52 time=8
note_on channel=9 note=63 velocity=29 time=20
note_off channel=9 note=63 velocity=64 time=38
note_on channel=9 note=37 velocity=31 time=18
note_on channel=9 note=62 velocity=31 time=0
note_off channel=9 note=36 velocity=64 time=10
note_off channel=9 note=62 velocity=64 time=26
note_off channel=9 note=37 velocity=64 time=28
note_on channel=9 note=36 velocity=52 time=48
note_on channel=9 note=63 velocity=31 time=6
note_off channel=9 note=63 velocity=64 time=30
note_off channel=9 note=36 velocity=64 time=24
note_on channel=9 note=37 velocity=31 time=18
note_off channel=9 note=37 velocity=64 time=86
note_on channel=9 note=37 velocity=32 time=92
note_off channel=9 note=37 velocity=64 time=72
note_on channel=9 note=36 velocity=48 time=96
note_off channel=9 note=36 velocity=64 time=54
note_on channel=9 note=63 velocity=16 time=14
note_off channel=9 note=63 velocity=64 time=44
note_on channel=9 note=36 velocity=44 time=6
note_on channel=9 note=63 velocity=26 time=6
note_off channel=9 note=63 velocity=64 time=42
note_on channel=9 note=62 velocity=40 time=14
note_off channel=9 note=36 velocity=64 time=2
note_on channel=9 note=37 velocity=31 time=8
note_off channel=9 note=62 velocity=64 time=38
note_off channel=9 note=37 velocity=64 time=48
note_on channel=9 note=63 velocity=40 time=34
note_off channel=9 note=63 velocity=64 time=54
note_on channel=9 note=36 velocity=48 time=18
note_off channel=9 note=36 velocity=64 time=58
note_on channel=9 note=36 velocity=48 time=48
note_on channel=9 note=37 velocity=36 time=60
note_off channel=9 note=36 velocity=64 time=6
note_off channel=9 note=37 velocity=64 time=82
note_on channel=9 note=36 velocity=52 time=108
note_off channel=9 note=36 velocity=64 time=56
note_on channel=9 note=63 velocity=16 time=6
note_on channel=9 note=36 velocity=48 time=46
note_off channel=9 note=63 velocity=64 time=50
note_on channel=9 note=37 velocity=29 time=8
note_off channel=9 note=36 velocity=64 time=4
note_on channel=9 note=62 velocity=48 time=2
note_off channel=9 note=62 velocity=64 time=44
note_off channel=9 note=37 velocity=64 time=18
note_on channel=9 note=36 velocity=31 time=44
note_on channel=9 note=63 velocity=36 time=0
note_off channel=9 note=63 velocity=64 time=44
note_off channel=9 note=36 velocity=64 time=20
note_on channel=9 note=37 velocity=32 time=108
note_off channel=9 note=37 velocity=64 time=70
note_on channel=9 note=36 velocity=36 time=194
note_on channel=9 note=63 velocity=16 time=10
note_off channel=9 note=63 velocity=64 time=10
note_off channel=9 note=36 velocity=64 time=26
note_on channel=9 note=36 velocity=44 time=62
note_on channel=9 note=63 velocity=27 time=4
note_off channel=9 note=63 velocity=64 time=42
note_off channel=9 note=36 velocity=64 time=18
note_on channel=9 note=37 velocity=32 time=0
note_on channel=9 note=63 velocity=36 time=10
note_off channel=9 note=63 velocity=64 time=34
note_off channel=9 note=37 velocity=64 time=34
note_on channel=9 note=63 velocity=40 time=40
note_off channel=9 note=63 velocity=64 time=28
note_on channel=9 note=62 velocity=31 time=48
note_on channel=9 note=36 velocity=36 time=2
note_off channel=9 note=62 velocity=64 time=32
note_off channel=9 note=36 velocity=64 time=18
note_on channel=9 note=63 velocity=28 time=54
note_on channel=9 note=36 velocity=48 time=2
note_on channel=9 note=37 velocity=27 time=4
note_off channel=9 note=63 velocity=64 time=14
note_off channel=9 note=36 velocity=64 time=48
note_off channel=9 note=37 velocity=64 time=2
note_on channel=9 note=63 velocity=30 time=2
note_off channel=9 note=63 velocity=64 time=22
note_on channel=9 note=63 velocity=31 time=90
note_off channel=9 note=63 velocity=64 time=30
note_on channel=9 note=36 velocity=36 time=40
note_on channel=9 note=63 velocity=29 time=62
note_off channel=9 note=36 velocity=64 time=2
note_off channel=9 note=63 velocity=64 time=32
note_on channel=9 note=63 velocity=56 time=18
note_off channel=9 note=63 velocity=64 time=42
note_on channel=9 note=37 velocity=28 time=24
note_on channel=9 note=62 velocity=56 time=4
note_off channel=9 note=62 velocity=64 time=38
note_on channel=9 note=63 velocity=44 time=80
note_off channel=9 note=63 velocity=64 time=40
note_off channel=9 note=37 velocity=64 time=16
note_on channel=9 note=63 velocity=44 time=18
note_off channel=9 note=63 velocity=64 time=26
note_on channel=9 note=63 velocity=52 time=34
note_off channel=9 note=63 velocity=64 time=30
note_on channel=9 note=63 velocity=56 time=26
note_off channel=9 note=63 velocity=64 time=32
note_on channel=9 note=62 velocity=60 time=34
note_on channel=9 note=37 velocity=24 time=6
note_off channel=9 note=62 velocity=64 time=32
note_on channel=9 note=36 velocity=48 time=142
note_off channel=9 note=37 velocity=64 time=20
note_off channel=9 note=36 velocity=64 time=32
note_on channel=9 note=36 velocity=36 time=64
note_on channel=9 note=37 velocity=19 time=52
note_off channel=9 note=36 velocity=64 time=4
note_on channel=9 note=63 velocity=44 time=0
note_off channel=9 note=63 velocity=64 time=32
note_on channel=9 note=63 velocity=40 time=32
note_off channel=9 note=63 velocity=64 time=26
note_on channel=9 note=63 velocity=64 time=32
note_off channel=9 note=63 velocity=64 time=22
note_on channel=9 note=62 velocity=60 time=50
note_on channel=9 note=36 velocity=40 time=2
note_off channel=9 note=62 velocity=64 time=22
note_off channel=9 note=37 velocity=64 time=42
note_off channel=9 note=36 velocity=64 time=2
note_on channel=9 note=63 velocity=48 time=46
note_off channel=9 note=63 velocity=64 time=16
note_on channel=9 note=37 velocity=23 time=54
note_on channel=9 note=63 velocity=48 time=4
note_off channel=9 note=63 velocity=64 time=22
note_on channel=9 note=63 velocity=60 time=82
note_off channel=9 note=63 velocity=64 time=28
note_on channel=9 note=36 velocity=29 time=32
note_off channel=9 note=37 velocity=64 time=22
note_off channel=9 note=36 velocity=64 time=50
note_on channel=9 note=63 velocity=52 time=32
note_off channel=9 note=63 velocity=64 time=30
note_on channel=9 note=37 velocity=27 time=34
note_on channel=9 note=63 velocity=19 time=12
note_off channel=9 note=63 velocity=64 time=14
note_on channel=9 note=63 velocity=36 time=38
note_off channel=9 note=63 velocity=64 time=24
note_on channel=9 note=63 velocity=32 time=34
note_off channel=9 note=63 velocity=64 time=18
note_on channel=9 note=62 velocity=60 time=50
note_off channel=9 note=37 velocity=64 time=32
note_off channel=9 note=62 velocity=64 time=2
note_on channel=9 note=37 velocity=25 time=148
note_on channel=9 note=63 velocity=56 time=120
note_off channel=9 note=63 velocity=64 time=32
note_on channel=9 note=63 velocity=32 time=38
note_on channel=9 note=36 velocity=32 time=2
note_off channel=9 note=63 velocity=64 time=18
note_off channel=9 note=37 velocity=64 time=20
note_off channel=9 note=36 velocity=64 time=16
note_on channel=9 note=63 velocity=48 time=6
note_off channel=9 note=63 velocity=64 time=32
note_on channel=9 note=36 velocity=32 time=22
note_on channel=9 note=63 velocity=48 time=4
note_off channel=9 note=63 velocity=64 time=20
note_off channel=9 note=36 velocity=64 time=46
note_on channel=9 note=37 velocity=26 time=0
note_on channel=9 note=62 velocity=60 time=10
note_off channel=9 note=62 velocity=64 time=24
note_off channel=9 note=37 velocity=64 time=10
note_on channel=9 note=63 velocity=36 time=80
note_off channel=9 note=63 velocity=64 time=28
note_on channel=9 note=37 velocity=30 time=34
note_on channel=9 note=36 velocity=32 time=6
note_on channel=9 note=63 velocity=48 time=4
note_off channel=9 note=63 velocity=64 time=18
note_off channel=9 note=36 velocity=64 time=30
note_on channel=9 note=63 velocity=52 time=58
note_on channel=9 note=36 velocity=40 time=4
note_off channel=9 note=63 velocity=64 time=22
note_off channel=9 note=36 velocity=64 time=42
note_on channel=9 note=62 velocity=44 time=2
note_off channel=9 note=37 velocity=64 time=2
note_off channel=9 note=62 velocity=64 time=50
note_on channel=9 note=37 velocity=32 time=64
note_off channel=9 note=37 velocity=64 time=60
control_change channel=9 control=7 value=120 time=4
note_on channel=9 note=36 velocity=40 time=0
note_off channel=9 note=36 velocity=64 time=46
note_on channel=9 note=63 velocity=21 time=18
note_off channel=9 note=63 velocity=64 time=34
note_on channel=9 note=36 velocity=44 time=10
note_on channel=9 note=37 velocity=40 time=0
note_on channel=9 note=63 velocity=27 time=10
note_off channel=9 note=36 velocity=64 time=44
note_off channel=9 note=63 velocity=64 time=0
note_off channel=9 note=37 velocity=64 time=6
note_on channel=9 note=62 velocity=52 time=8
note_off channel=9 note=62 velocity=64 time=34
note_on channel=9 note=36 velocity=44 time=84
note_on channel=9 note=63 velocity=32 time=0
note_off channel=9 note=63 velocity=64 time=42
note_on channel=9 note=37 velocity=44 time=22
note_off channel=9 note=36 velocity=64 time=2
note_off channel=9 note=37 velocity=64 time=66
note_on channel=9 note=37 velocity=32 time=110
note_off channel=9 note=37 velocity=64 time=104
note_on channel=9 note=36 velocity=52 time=80
note_off channel=9 note=36 velocity=64 time=58
note_on channel=9 note=63 velocity=26 time=4
note_off channel=9 note=63 velocity=64 time=40
note_on channel=9 note=36 velocity=48 time=8
note_on channel=9 note=63 velocity=36 time=2
note_off channel=9 note=63 velocity=64 time=44
note_on channel=9 note=62 velocity=48 time=20
note_on channel=9 note=37 velocity=44 time=4
note_off channel=9 note=36 velocity=64 time=8
note_off channel=9 note=62 velocity=64 time=22
note_off channel=9 note=37 velocity=64 time=48
note_on channel=9 note=63 velocity=31 time=36
note_off channel=9 note=63 velocity=64 time=44
note_on channel=9 note=36 velocity=48 time=26
note_on channel=9 note=37 velocity=30 time=14
note_off channel=9 note=36 velocity=64 time=42
note_off channel=9 note=37 velocity=64 time=12
note_on channel=9 note=36 velocity=48 time=46
note_off channel=9 note=36 velocity=64 time=72
note_on channel=9 note=36 velocity=52 time=186
note_off channel=9 note=36 velocity=64 time=52
note_on channel=9 note=63 velocity=44 time=12
note_off channel=9 note=63 velocity=64 time=30
note_on channel=9 note=37 velocity=27 time=8
note_on channel=9 note=36 velocity=52 time=2
note_on channel=9 note=63 velocity=27 time=14
note_off channel=9 note=63 velocity=64 time=32
note_off channel=9 note=37 velocity=64 time=10
note_off channel=9 note=36 velocity=64 time=12
note_on channel=9 note=62 velocity=44 time=4
note_off channel=9 note=62 velocity=64 time=36
note_on channel=9 note=36 velocity=52 time=74
note_on channel=9 note=63 velocity=30 time=2
note_off channel=9 note=63 velocity=64 time=44
note_off channel=9 note=36 velocity=64 time=20
note_on channel=9 note=37 velocity=25 time=0
note_off channel=9 note=37 velocity=64 time=64
note_on channel=9 note=37 velocity=44 time=124
note_off channel=9 note=37 velocity=64 time=52
note_on channel=9 note=36 velocity=52 time=126
note_off channel=9 note=36 velocity=64 time=48
note_on channel=9 note=63 velocity=27 time=20
note_off channel=9 note=63 velocity=64 time=34
note_on channel=9 note=36 velocity=48 time=6
note_on channel=9 note=63 velocity=30 time=24
note_off channel=9 note=63 velocity=64 time=36
note_off channel=9 note=36 velocity=64 time=2
note_on channel=9 note=37 velocity=36 time=12
note_on channel=9 note=62 velocity=40 time=4
note_off channel=9 note=62 velocity=64 time=36
note_off channel=9 note=37 velocity=64 time=26
note_on channel=9 note=63 velocity=40 time=58
note_off channel=9 note=63 velocity=64 time=36
note_on channel=9 note=36 velocity=48 time=28
note_off channel=9 note=36 velocity=64 time=68
note_on channel=9 note=37 velocity=44 time=122
note_off channel=9 note=37 velocity=64 time=82
note_on channel=9 note=36 velocity=60 time=98
note_off channel=9 note=36 velocity=64 time=58
note_on channel=9 note=63 velocity=27 time=12
note_off channel=9 note=63 velocity=64 time=32
note_on channel=9 note=36 velocity=52 time=8
note_on channel=9 note=63 velocity=29 time=20
note_off channel=9 note=63 velocity=64 time=36
note_on channel=9 note=37 velocity=31 time=18
note_on channel=9 note=62 velocity=31 time=0
note_off channel=9 note=36 velocity=64 time=10
note_off channel=9 note=62 velocity=64 time=28
note_off channel=9 note=37 velocity=64 time=28
note_on channel=9 note=36 velocity=52 time=46
note_on channel=9 note=63 velocity=31 time=6
note_off channel=9 note=63 velocity=64 time=32
note_off channel=9 note=36 velocity=64 time=22
note_on channel=9 note=37 velocity=31 time=20
note_off channel=9 note=37 velocity=64 time=84
note_on channel=9 note=37 velocity=32 time=92
note_off channel=9 note=37 velocity=64 time=72
note_on channel=9 note=36 velocity=48 time=98
note_off channel=9 note=36 velocity=64 time=54
note_on channel=9 note=63 velocity=16 time=12
note_off channel=9 note=63 velocity=64 time=46
note_on channel=9 note=36 velocity=44 time=6
note_on channel=9 note=63 velocity=26 time=6
note_off channel=9 note=63 velocity=64 time=42
note_off channel=9 note=36 velocity=64 time=14
note_on channel=9 note=62 velocity=40 time=0
note_on channel=9 note=37 velocity=31 time=8
note_off channel=9 note=62 velocity=64 time=38
note_off channel=9 note=37 velocity=64 time=50
note_on channel=9 note=63 velocity=40 time=32
note_off channel=9 note=63 velocity=64 time=54
note_on channel=9 note=36 velocity=48 time=20
note_off channel=9 note=36 velocity=64 time=58
note_on channel=9 note=36 velocity=48 time=46
note_on channel=9 note=37 velocity=36 time=60
note_off channel=9 note=36 velocity=64 time=8
note_off channel=9 note=37 velocity=64 time=80
note_on channel=9 note=36 velocity=52 time=110
note_off channel=9 note=36 velocity=64 time=54
note_on channel=9 note=63 velocity=16 time=8
note_on channel=9 note=36 velocity=48 time=44
note_off channel=9 note=63 velocity=64 time=50
note_on channel=9 note=37 velocity=29 time=8
note_off channel=9 note=36 velocity=64 time=4
note_on channel=9 note=62 velocity=48 time=4
note_off channel=9 note=62 velocity=64 time=44
note_off channel=9 note=37 velocity=64 time=18
note_on channel=9 note=36 velocity=31 time=44
note_on channel=9 note=63 velocity=36 time=0
note_off channel=9 note=63 velocity=64 time=42
note_off channel=9 note=36 velocity=64 time=20
note_on channel=9 note=37 velocity=32 time=110
note_off channel=9 note=37 velocity=64 time=68
note_on channel=9 note=36 velocity=36 time=194
note_on channel=9 note=63 velocity=16 time=12
note_off channel=9 note=63 velocity=64 time=10
note_off channel=9 note=36 velocity=64 time=26
note_on channel=9 note=36 velocity=44 time=62
note_on channel=9 note=63 velocity=27 time=2
note_off channel=9 note=63 velocity=64 time=42
note_off channel=9 note=36 velocity=64 time=18
note_on channel=9 note=37 velocity=32 time=0
note_on channel=9 note=63 velocity=36 time=10
note_off channel=9 note=63 velocity=64 time=34
note_off channel=9 note=37 velocity=64 time=36
note_on channel=9 note=63 velocity=40 time=38
note_off channel=9 note=63 velocity=64 time=28
note_on channel=9 note=62 velocity=31 time=50
note_on channel=9 note=36 velocity=36 time=0
note_off channel=9 note=62 velocity=64 time=34
note_off channel=9 note=36 velocity=64 time=18
note_on channel=9 note=63 velocity=28 time=54
note_on channel=9 note=36 velocity=48 time=0
note_on channel=9 note=37 velocity=27 time=6
note_off channel=9 note=63 velocity=64 time=14
note_off channel=9 note=37 velocity=64 time=48
note_off channel=9 note=36 velocity=64 time=0
note_on channel=9 note=63 velocity=30 time=4
note_off channel=9 note=63 velocity=64 time=22
note_on channel=9 note=63 velocity=31 time=88
note_off channel=9 note=63 velocity=64 time=32
note_on channel=9 note=36 velocity=36 time=40
note_on channel=9 note=63 velocity=29 time=62
note_off channel=9 note=36 velocity=64 time=2
note_off channel=9 note=63 velocity=64 time=32
note_on channel=9 note=63 velocity=56 time=18
note_off channel=9 note=63 velocity=64 time=40
note_on channel=9 note=37 velocity=28 time=24
note_on channel=9 note=62 velocity=56 time=6
note_off channel=9 note=62 velocity=64 time=36
note_on channel=9 note=63 velocity=44 time=80
note_off channel=9 note=63 velocity=64 time=40
note_off channel=9 note=37 velocity=64 time=18
note_on channel=9 note=63 velocity=44 time=16
note_off channel=9 note=63 velocity=64 time=26
note_on channel=9 note=63 velocity=52 time=34
note_off channel=9 note=63 velocity=64 time=32
note_on channel=9 note=63 velocity=56 time=26
note_off channel=9 note=63 velocity=64 time=30
note_on channel=9 note=62 velocity=60 time=34
note_on channel=9 note=37 velocity=24 time=8
note_off channel=9 note=62 velocity=64 time=32
note_on channel=9 note=36 velocity=48 time=140
note_off channel=9 note=37 velocity=64 time=20
note_off channel=9 note=36 velocity=64 time=34
control_change channel=9 control=7 value=120 time=50
note_on channel=9 note=36 velocity=60 time=2
note_off channel=9 note=36 velocity=64 time=42
note_on channel=9 note=37 velocity=48 time=110
note_off channel=9 note=37 velocity=64 time=72
note_on channel=9 note=36 velocity=48 time=18
note_off channel=9 note=36 velocity=64 time=60
note_on channel=9 note=36 velocity=52 time=28
note_on channel=9 note=37 velocity=36 time=162
note_on channel=9 note=63 velocity=31 time=4
note_off channel=9 note=37 velocity=64 time=60
note_off channel=9 note=63 velocity=64 time=2
note_on channel=9 note=63 velocity=60 time=14
note_off channel=9 note=63 velocity=64 time=50
note_on channel=9 note=37 velocity=32 time=44
note_on channel=9 note=62 velocity=60 time=2
note_off channel=9 note=36 velocity=64 time=18
note_off channel=9 note=37 velocity=64 time=28
note_off channel=9 note=62 velocity=64 time=20
note_on channel=9 note=37 velocity=48 time=14
note_off channel=9 note=37 velocity=64 time=58
note_on channel=9 note=36 velocity=52 time=26
note_on channel=9 note=62 velocity=52 time=10
note_off channel=9 note=62 velocity=64 time=70
note_off channel=9 note=36 velocity=64 time=20
note_on channel=9 note=36 velocity=52 time=70
note_off channel=9 note=36 velocity=64 time=42
note_on channel=9 note=36 velocity=48 time=36
note_on channel=9 note=37 velocity=52 time=92
note_off channel=9 note=36 velocity=64 time=26
note_off channel=9 note=37 velocity=64 time=44
note_on channel=9 note=36 velocity=56 time=92
note_on channel=9 note=37 velocity=56 time=8
note_off channel=9 note=36 velocity=64 time=52
note_off channel=9 note=37 velocity=64 time=18
note_on channel=9 note=63 velocity=44 time=90
note_on channel=9 note=36 velocity=48 time=12
note_off channel=9 note=63 velocity=64 time=30
note_off channel=9 note=36 velocity=64 time=14
note_on channel=9 note=63 velocity=26 time=22
note_on channel=9 note=37 velocity=48 time=8
note_on channel=9 note=36 velocity=48 time=8
note_off channel=9 note=63 velocity=64 time=14
note_off channel=9 note=36 velocity=64 time=36
note_off channel=9 note=37 velocity=64 time=6
note_on channel=9 note=62 velocity=64 time=20
note_off channel=9 note=62 velocity=64 time=40
note_on channel=9 note=63 velocity=40 time=44
note_off channel=9 note=63 velocity=64 time=52
note_on channel=9 note=37 velocity=56 time=22
note_on channel=9 note=36 velocity=56 time=4
note_on channel=9 note=63 velocity=52 time=10
note_off channel=9 note=37 velocity=64 time=30
note_off channel=9 note=63 velocity=64 time=22
note_off channel=9 note=36 velocity=64 time=16
note_on channel=9 note=37 velocity=44 time=2
note_off channel=9 note=37 velocity=64 time=50
note_on channel=9 note=36 velocity=52 time=38
note_on channel=9 note=63 velocity=52 time=10
note_off channel=9 note=36 velocity=64 time=46
note_off channel=9 note=63 velocity=64 time=8
note_on channel=9 note=62 velocity=56 time=108
note_off channel=9 note=62 velocity=64 time=54
note_on channel=9 note=36 velocity=44 time=28
note_off channel=9 note=36 velocity=64 time=74
note_on channel=9 note=62 velocity=48 time=10
note_off channel=9 note=62 velocity=64 time=72
note_on channel=9 note=37 velocity=32 time=4
note_off channel=9 note=37 velocity=64 time=84
note_on channel=9 note=36 velocity=52 time=86
note_off channel=9 note=36 velocity=64 time=38
note_on channel=9 note=36 velocity=44 time=46
note_off channel=9 note=36 velocity=64 time=86
note_on channel=9 note=37 velocity=40 time=2
note_off channel=9 note=37 velocity=64 time=90
note_on channel=9 note=36 velocity=60 time=88
note_on channel=9 note=62 velocity=36 time=4
note_off channel=9 note=62 velocity=64 time=40
note_on channel=9 note=37 velocity=44 time=36
note_off channel=9 note=36 velocity=64 time=6
note_off channel=9 note=37 velocity=64 time=80
note_on channel=9 note=62 velocity=48 time=0
note_off channel=9 note=62 velocity=64 time=52
note_on channel=9 note=62 velocity=73 time=30
note_off channel=9 note=62 velocity=64 time=50
note_on channel=9 note=63 velocity=56 time=32
note_on channel=9 note=36 velocity=52 time=8
note_off channel=9 note=63 velocity=64 time=38
note_off channel=9 note=36 velocity=64 time=14
note_on channel=9 note=63 velocity=82 time=34
note_on channel=9 note=36 velocity=56 time=6
note_off channel=9 note=63 velocity=64 time=52
note_off channel=9 note=36 velocity=64 time=26
MetaMessage('end_of_track', time=0)
MetaMessage('midi_port', port=0, time=0)
MetaMessage('track_name', name='GENERAL MIDI VERSION', time=0)
MetaMessage('end_of_track', time=0)
MetaMessage('midi_port', port=0, time=0)
MetaMessage('track_name', name='                    ', time=0)
MetaMessage('end_of_track', time=0)
MetaMessage('midi_port', port=0, time=0)
MetaMessage('track_name', name=' Copyright (c)1990  ', time=0)
MetaMessage('end_of_track', time=0)
MetaMessage('midi_port', port=0, time=0)
MetaMessage('track_name', name='  LucasFilm Games   ', time=0)
MetaMessage('end_of_track', time=0)
MetaMessage('midi_port', port=0, time=0)
MetaMessage('track_name', name='                    ', time=0)
MetaMessage('end_of_track', time=0)
